<svg xmlns="http://www.w3.org/2000/svg" xmlns:xlink="http://www.w3.org/1999/xlink" width="617.16" height="218.656" viewBox="0 0 462.87 163.992"><defs><symbol overflow="visible" id="a"><path style="stroke:none" d="M2.719-5.734c0-.22 0-.235-.219-.235-.563.563-1.39.563-1.672.563v.281c.172 0 .719 0 1.203-.234v4.64c0 .328-.015.438-.86.438h-.28V0c.312-.031 1.125-.031 1.484-.031.375 0 1.172 0 1.5.031v-.281h-.281c-.844 0-.875-.11-.875-.438Zm0 0"/></symbol><symbol overflow="visible" id="b"><path style="stroke:none" d="M4.25-2.875c0-.594-.031-1.375-.344-2.047-.406-.844-1.078-1.047-1.594-1.047-.546 0-1.234.203-1.624 1.078-.282.61-.329 1.344-.329 2.016 0 .594.016 1.453.407 2.172.421.75 1.125.906 1.53.906.579 0 1.25-.25 1.626-1.078.265-.61.328-1.281.328-2ZM2.312-.031c-.28 0-.921-.125-1.093-1.14-.094-.516-.094-1.298-.094-1.813 0-.61 0-1.313.11-1.813.187-.797.75-.953 1.062-.953.344 0 .906.188 1.078 1.016.094.484.094 1.187.094 1.75 0 .562 0 1.312-.094 1.843C3.187-.109 2.531-.03 2.312-.03Zm0 0"/></symbol><symbol overflow="visible" id="M"><path style="stroke:none" d="M1.672-2.328c0-.969.703-1.406 1.234-1.406.5 0 .656.343.656.968v2.079c0 .406-.093.406-.687.406V0c.422-.016.594-.031 1.016-.031.437 0 .546.015 1.03.031v-.281c-.593 0-.702 0-.702-.406v-1.641c0-.969.703-1.406 1.25-1.406.484 0 .64.343.64.968v2.079c0 .406-.093.406-.687.406V0c.422-.016.594-.031 1.031-.031.422 0 .547.015 1.016.031v-.281c-.453 0-.672 0-.688-.281v-1.72c0-.78 0-1.03-.297-1.359-.187-.218-.546-.328-.953-.328-.656 0-1.093.375-1.343.86-.11-.532-.47-.86-1.22-.86-.718 0-1.155.469-1.343.89h-.016v-.89l-1.296.11v.265c.609 0 .687.063.687.516v2.39C1-.28.906-.28.312-.28V0c.422-.016.594-.031 1.032-.031.422 0 .547.015 1.015.031v-.281c-.593 0-.687 0-.687-.406Zm0 0"/></symbol><symbol overflow="visible" id="N"><path style="stroke:none" d="M1.594-1.953V-6.22l-1.328.094v.281c.609 0 .687.063.687.5v4.657c0 .406-.094.406-.687.406V0c.39-.016.625-.031 1-.031.359 0 .593.015 1 .031v-.281c-.594 0-.704 0-.704-.406v-.907l.579-.484.875 1.172c.14.203.218.312.218.437 0 .078-.03.188-.312.188V0c.406-.016.625-.031.969-.031.265 0 .546 0 .812.031v-.281c-.297 0-.516 0-.844-.438L2.594-2.453c.875-.75 1.297-1.11 1.906-1.14v-.266c-.328.015-.344.015-.672.015-.265 0-.5 0-.984-.015v.265c.14.016.234.078.234.219 0 .172-.14.297-.219.36Zm0 0"/></symbol><symbol overflow="visible" id="O"><path style="stroke:none" d="M1.125-1.61c.219.141.5.282.906.282.86 0 1.5-.61 1.5-1.313 0-.437-.25-.75-.36-.875.36-.328.782-.328.876-.328-.031.031-.11.078-.11.235 0 .109.063.265.266.265.125 0 .266-.078.266-.265a.457.457 0 0 0-.485-.454c-.25 0-.656.094-.968.422a1.541 1.541 0 0 0-.97-.328c-.858 0-1.5.61-1.5 1.328 0 .454.266.782.407.907a1.262 1.262 0 0 0-.265.75c0 .296.14.625.39.78C.625-.046.266.282.266.704c0 .64.875 1.14 2.03 1.14 1.11 0 2.048-.468 2.048-1.155 0-.375-.172-.766-.5-.985-.5-.312-1.031-.312-1.875-.312-.188 0-.469 0-.547-.016C1.172-.688 1-.922 1-1.203c0-.156.047-.281.125-.406Zm.906.048c-.797 0-.797-.891-.797-1.079 0-.25.016-.546.172-.765a.792.792 0 0 1 .625-.313c.813 0 .813.86.813 1.078 0 .204 0 1.079-.813 1.079Zm.422 1.515c.281 0 1.39.016 1.39.735 0 .515-.702.921-1.53.921-.891 0-1.547-.421-1.547-.921 0-.141.093-.735.859-.735Zm0 0"/></symbol><symbol overflow="visible" id="af"><path style="stroke:none" d="M4.14-1.594h-.25c-.015.125-.093.657-.203.797-.062.078-.671.078-.859.078H1.234l.891-.844c1.469-1.265 2.016-1.75 2.016-2.656 0-1.031-.844-1.75-1.954-1.75-1.03 0-1.734.813-1.734 1.625 0 .453.39.5.469.5.203 0 .469-.14.469-.469a.451.451 0 0 0-.47-.468c-.046 0-.062 0-.109.015.22-.64.797-.921 1.282-.921.906 0 1.219.843 1.219 1.468 0 .907-.688 1.657-1.11 2.125L.563-.328c-.11.11-.11.125-.11.328h3.438Zm0 0"/></symbol><symbol overflow="visible" id="ag"><path style="stroke:none" d="M2.734-3.156C3.563-3.47 3.97-4.125 3.97-4.75c0-.688-.766-1.219-1.703-1.219-.922 0-1.625.532-1.625 1.203 0 .297.187.47.453.47a.435.435 0 0 0 .453-.454c0-.313-.219-.438-.531-.438.234-.375.78-.562 1.234-.562.734 0 .875.594.875 1.016 0 .265-.047.703-.266 1.046-.28.391-.593.407-.859.438-.219.016-.234.016-.313.016-.078 0-.156.015-.156.109 0 .125.078.125.235.125h.406c.781 0 1.125.625 1.125 1.469 0 1.156-.61 1.484-1.063 1.484-.171 0-1.046-.047-1.437-.719a.475.475 0 0 0 .562-.484.468.468 0 0 0-.484-.484c-.219 0-.484.14-.484.515 0 .797.828 1.422 1.875 1.422 1.109 0 1.953-.812 1.953-1.734 0-.782-.625-1.438-1.485-1.625Zm0 0"/></symbol><symbol overflow="visible" id="ah"><path style="stroke:none" d="M.266-1.766v.282h2.437v.78c0 .329-.015.423-.687.423h-.204V0C2.375-.031 3-.031 3.063-.031c.047 0 .704 0 1.266.031v-.281h-.203c-.672 0-.703-.094-.703-.422v-.781h.922v-.282h-.922v-4.062c0-.188 0-.25-.172-.25-.11 0-.11.016-.188.14Zm.28 0 2.22-3.312v3.312Zm0 0"/></symbol><symbol overflow="visible" id="ai"><path style="stroke:none" d="M.938-3.094c0 .156 0 .266.125.266.062 0 .093-.047.14-.125a1.45 1.45 0 0 1 1.172-.594c.969 0 .969 1.39.969 1.703 0 .282 0 .844-.266 1.25-.234.375-.61.547-.969.547a1.456 1.456 0 0 1-1.343-1c.015 0 .062.016.125.016.187 0 .453-.11.453-.438 0-.281-.203-.437-.453-.437-.188 0-.438.11-.438.468 0 .813.688 1.641 1.688 1.641 1.078 0 2-.89 2-2 0-1.078-.766-1.969-1.75-1.969-.422 0-.86.141-1.188.47v-1.767c.281.079.563.125.828.125 1.11 0 1.75-.796 1.75-.921 0-.079-.047-.11-.094-.11-.015 0-.03 0-.124.047a3.488 3.488 0 0 1-1.204.234c-.39 0-.796-.078-1.203-.234-.093-.047-.11-.047-.11-.047-.109 0-.109.078-.109.235Zm0 0"/></symbol><symbol overflow="visible" id="c"><path style="stroke:none" d="M4.766-1.344c.093 0 .25 0 .25-.156s-.157-.156-.25-.156H1c-.11 0-.25 0-.25.156s.14.156.25.156Zm0 0"/></symbol><symbol overflow="visible" id="d"><path style="stroke:none" d="M1.766-1.984c.5 0 .843.343.843.953 0 .656-.39.937-.828.937C1.61-.094 1-.125.734-.469c.235-.031.329-.187.329-.344a.328.328 0 0 0-.344-.343.34.34 0 0 0-.344.36c0 .593.656.921 1.422.921.89 0 1.469-.563 1.469-1.156 0-.438-.329-.907-1.047-1.078.484-.157.86-.547.86-1.032 0-.484-.563-.843-1.282-.843-.703 0-1.234.328-1.234.812 0 .266.203.328.328.328.156 0 .312-.094.312-.312 0-.188-.125-.297-.297-.313.281-.312.828-.312.89-.312.298 0 .688.14.688.64 0 .329-.187.907-.796.938-.11 0-.266.015-.313.015-.063.016-.125.016-.125.11s.063.094.156.094Zm0 0"/></symbol><symbol overflow="visible" id="e"><path style="stroke:none" d="M3.219-1.125H3c-.016.094-.078.484-.156.547-.047.047-.531.047-.625.047h-1.11l.766-.625c.203-.172.734-.547.922-.735.172-.171.422-.484.422-.906 0-.75-.672-1.187-1.485-1.187-.765 0-1.296.515-1.296 1.078 0 .297.25.344.312.344a.32.32 0 0 0 .328-.329c0-.125-.078-.328-.344-.328.141-.297.5-.531.922-.531.625 0 .953.469.953.953 0 .422-.28.86-.687 1.25L.5-.25C.437-.187.437-.187.437 0h2.594Zm0 0"/></symbol><symbol overflow="visible" id="f"><path style="stroke:none" d="M2.14-3.797c0-.187-.015-.187-.203-.187-.39.39-1 .39-1.218.39v.235c.156 0 .562 0 .922-.172v3.015c0 .204 0 .282-.625.282h-.25V0c.328-.031.796-.031 1.125-.031.328 0 .796 0 1.125.031v-.234h-.25c-.625 0-.625-.078-.625-.282Zm0 0"/></symbol><symbol overflow="visible" id="g"><path style="stroke:none" d="M3.297-1.906c0-.438 0-2.078-1.469-2.078S.36-2.344.36-1.906c0 .422 0 2.031 1.47 2.031 1.468 0 1.468-1.61 1.468-2.031ZM1.828-.063a.84.84 0 0 1-.812-.625C.922-1.03.922-1.609.922-1.984c0-.407 0-.86.094-1.188.14-.531.593-.61.812-.61.266 0 .672.126.797.579.094.312.094.75.094 1.219 0 .375 0 .984-.094 1.312a.825.825 0 0 1-.797.61Zm0 0"/></symbol><symbol overflow="visible" id="o"><path style="stroke:none" d="M4.89-2.031c.094 0 .22 0 .22-.156 0-.157-.157-.157-.25-.157H.718c-.078 0-.25 0-.25.156 0 .157.14.157.219.157ZM4.86-.656c.093 0 .25 0 .25-.156 0-.157-.126-.157-.22-.157H.689c-.079 0-.22 0-.22.156 0 .157.173.157.25.157Zm0 0"/></symbol><symbol overflow="visible" id="p"><path style="stroke:none" d="M2.672-1.89c0 .452-.031.906-.25 1.265-.156.234-.438.531-.906.531-.141 0-.47-.015-.625-.172.187-.046.234-.171.234-.28 0-.157-.11-.298-.281-.298-.172 0-.297.125-.297.313 0 .484.453.656.969.656.921 0 1.75-.844 1.75-2.094 0-1.453-.657-2.015-1.422-2.015-.766 0-1.469.562-1.469 1.343 0 .454.172.704.39.922.25.25.547.407.985.407.516 0 .797-.344.922-.579Zm-.89.39a.703.703 0 0 1-.626-.313C.984-2.046.97-2.296.97-2.64c0-.343 0-.578.203-.828a.796.796 0 0 1 .672-.312c.812 0 .812 1.015.812 1.265 0 .532-.36 1.016-.875 1.016Zm0 0"/></symbol><symbol overflow="visible" id="r"><path style="stroke:none" d="M4.734-4.047c0-.094 0-.172-.109-.172-.047 0-.063.032-.094.078l-.343.454A1.832 1.832 0 0 0 2.89-4.22c-1.329 0-2.422.985-2.422 2.172C.469-.844 1.563.125 2.89.125c1.093 0 1.843-.766 1.843-1.531 0-.063-.015-.125-.125-.125-.093 0-.093.047-.109.11C4.453-.517 3.625-.11 2.969-.11 2.25-.11 1.14-.531 1.14-2.047c0-1.484 1.078-1.937 1.828-1.937.672 0 1.375.468 1.515 1.375.016.078.016.125.125.125.125 0 .125-.047.125-.172Zm0 0"/></symbol><symbol overflow="visible" id="u"><path style="stroke:none" d="M3.422-3.61c.047-.062.047-.078.047-.25H1.922c-.234 0-.39 0-.625-.015-.281-.016-.36-.031-.39-.172h-.22L.47-2.734h.219c.03-.125.078-.485.171-.547.047-.031.563-.031.657-.031h1.343c-.062.078-.375.468-.53.64-.579.703-.985 1.547-.985 2.453 0 .063 0 .344.297.344.28 0 .28-.281.28-.36V-.39c0-1.156.25-1.734.548-2.093Zm0 0"/></symbol><symbol overflow="visible" id="m"><path style="stroke:none" d="M3.11-3.61c.046-.187.062-.203.312-.203h.547c.64 0 .734.188.734.547 0 .079-.016.235-.047.422 0 .016-.015.078-.015.11 0 .046.046.093.109.093.11 0 .11-.062.125-.156l.156-1.14c0-.11-.062-.11-.172-.11H.97c-.156 0-.172 0-.219.125L.36-2.828c-.016.062-.016.094-.016.094 0 .015 0 .093.11.093.077 0 .077-.015.14-.171.265-.735.453-1 1.219-1h.546c.125 0 .125 0 .204.03L1.75-.515c-.031.172-.063.22-.234.25C1.344-.234 1-.234 1-.234c-.156 0-.172 0-.203.015-.031.016-.047.11-.047.14 0 0 .016.079.11.079.156 0 .343-.016.5-.016.25 0 .406-.015.562-.015.172 0 .36.015.531.015.188 0 .375.016.547.016.047 0 .094 0 .11-.047.015-.015.03-.078.03-.11-.015-.077-.046-.077-.234-.077-.14 0-.265-.016-.39-.016-.141-.016-.22-.016-.22-.11Zm0 0"/></symbol><symbol overflow="visible" id="n"><path style="stroke:none" d="M2.234-2.016a.284.284 0 0 0-.093.22c0 .14.078.25.234.265.188 0 .281-.125.281-.266 0-.437-.61-.437-.875-.437H1.75c-.328 0-.64.078-.906.265a1.084 1.084 0 0 0-.485.89v.063C.391-.359 1.063.047 1.688.047c.39 0 .796-.14.984-.5.015-.047.047-.094.047-.14 0-.063-.047-.079-.094-.079-.125 0-.125.11-.156.172-.156.25-.438.36-.703.36-.5 0-.907-.376-.907-.938 0-.5.25-.969.922-.969.157 0 .297.016.453.031Zm0 0"/></symbol><symbol overflow="visible" id="t"><path style="stroke:none" d="M.828-2.14H.344v.218h.484V-.39c0 .141-.14.157-.281.157h-.14V0l.296-.016h1.063v-.218c-.063 0-.141.015-.204.015-.171 0-.312-.031-.312-.187v-1.516h.703v-.219h-.719v-.5c0-.296.11-.703.532-.703.046 0 .109 0 .14.016a.31.31 0 0 0-.093.203c0 .156.109.25.265.25h.016c.156 0 .234-.125.234-.25 0-.281-.297-.39-.547-.39-.484 0-.953.296-.953.874Zm0 0"/></symbol><symbol overflow="visible" id="q"><path style="stroke:none" d="M3.047-1.25c0-.656-.547-1.203-1.219-1.203-.656 0-1.203.547-1.203 1.203 0 .672.547 1.219 1.203 1.219A1.22 1.22 0 0 0 3.047-1.25Zm-1.219.938a.937.937 0 0 1-.922-.938c0-.516.422-.922.922-.922.516 0 .938.406.938.922a.94.94 0 0 1-.938.938Zm0 0"/></symbol><symbol overflow="visible" id="v"><path style="stroke:none" d="M2.156-4.047c-.875.125-1.64.797-1.64 1.797 0 .89.687 1.813 1.812 1.813.953 0 1.766-.86 1.766-1.813 0-.89-.735-1.797-1.813-1.797h-.125Zm0 0"/></symbol><symbol overflow="visible" id="w"><path style="stroke:none" d="M.313-.281v.265L.859-.03h1.36v-.25c-.25 0-.64-.125-.64-.453 0-.125.046-.235.093-.344.156-.422.281-.984.437-.984H4.25c.156 0 .266.5.36.75.077.234.265.593.265.75 0 .28-.5.28-.734.28v.266h2.453V-.28h-.25c-.203 0-.422-.031-.516-.125-.125-.125-.156-.297-.219-.438-.64-1.734-1.234-3.484-1.875-5.218l-.078-.188c-.031-.094-.062-.188-.219-.188-.187 0-.218.22-.265.36C2.625-4.547 2.078-3 1.516-1.484l-.157.453c-.187.562-.562.75-1.046.75Zm1.812-2.063L3.188-5.28 4.25-2.344Zm0 0"/></symbol><symbol overflow="visible" id="x"><path style="stroke:none" d="M.375-6.14v.28h.328c.313 0 .578.048.578.391v4.782c0 .39-.328.406-.656.406h-.25v.265h3.39c.485 0 .907-.046 1.344-.265.5-.266.907-.781.907-1.375 0-.953-.97-1.438-1.782-1.547.157-.047.329-.094.47-.14.53-.22 1.046-.657 1.046-1.298 0-.578-.469-1.046-.969-1.265-.437-.203-.906-.235-1.375-.235Zm1.656 3.062H3.25c.14 0 .281-.016.422-.016.89 0 1.453.656 1.453 1.422 0 .875-.734 1.39-1.578 1.39H2.375c-.234 0-.344-.109-.344-.343Zm0-.235V-5.53c0-.235.11-.328.344-.328h1.156c.625 0 1.36.28 1.36 1.25 0 .812-.782 1.312-1.5 1.312-.11 0-.22-.015-.329-.015Zm0 0"/></symbol><symbol overflow="visible" id="y"><path style="stroke:none" d="M2.906-6.734c-.125.046-.281.218-.39.328C1.39-5.313.906-3.796.906-2.25c0 1.656.563 3.344 1.906 4.422.047.031.094.078.141.078.063 0 .11-.047.11-.11 0-.109-.25-.296-.344-.39-.953-1.11-1.25-2.578-1.25-4.016 0-1.5.343-3.078 1.453-4.187.047-.047.14-.11.14-.188 0-.046-.046-.093-.109-.093h-.047Zm0 0"/></symbol><symbol overflow="visible" id="B"><path style="stroke:none" d="M.578-6.734c-.047.03-.062.062-.062.093 0 .11.218.266.296.36C1.797-5.188 2.11-3.656 2.11-2.22 2.11-.75 1.766.86.672 1.953c-.047.047-.156.11-.156.188 0 .046.062.109.125.109.109-.031.296-.219.421-.328 1.11-1.047 1.61-2.61 1.61-4.125 0-1.64-.531-3.406-1.906-4.453-.047-.032-.094-.078-.141-.078H.578Zm0 0"/></symbol><symbol overflow="visible" id="C"><path style="stroke:none" d="M5.422-5.547c-.25-.422-.984-.75-1.578-.781H3.75C1.969-6.328.516-4.86.516-3.078v.156c.109 1.75 1.5 3.11 3.203 3.11 1.234 0 2.422-.985 2.422-2.282v-.078c-.016-.062-.079-.094-.141-.094-.078 0-.11.063-.11.141v.063c-.093.921-.75 1.968-2.062 1.968-.703 0-1.406-.36-1.844-.922-.437-.578-.562-1.421-.562-2.109 0-.89.234-1.766.906-2.375.39-.344.938-.547 1.469-.547 1.156 0 1.86 1 2.031 2 .016.125 0 .281.156.281.125 0 .157-.062.157-.14v-2.219c0-.094 0-.203-.11-.203-.156 0-.406.531-.61.781Zm0 0"/></symbol><symbol overflow="visible" id="D"><path style="stroke:none" d="M.36-6.14v.28h.343c.297 0 .578.048.578.391v4.782c0 .39-.328.406-.672.406H.36v.265h2.563c.203 0 .39.016.594.016 1.078 0 2.437-.516 2.89-2.14.078-.297.11-.579.11-.876 0-1.609-1.11-3.125-2.985-3.125h-.61ZM5.624-2.72c0 1.11-.547 2.063-1.547 2.344-.297.094-.578.094-.875.094h-.797c-.203 0-.36-.047-.36-.328V-5.453c0-.266.032-.406.407-.406h.766c.656 0 1.344.093 1.875.78.468.579.547 1.407.547 2.11 0 .078-.016.156-.016.25Zm0 0"/></symbol><symbol overflow="visible" id="E"><path style="stroke:none" d="M.344-6.14v.28h.344c.296 0 .562.048.562.391v4.782c0 .39-.313.406-.656.406h-.25v.265h4.765l.25-2.312h-.25C5.016-1.5 4.938-.625 3.83-.344c-.25.063-.5.063-.767.063h-.671c-.204 0-.329-.094-.329-.313v-4.843c0-.329.188-.375.376-.391.25-.031.515-.031.765-.031v-.282Zm0 0"/></symbol><symbol overflow="visible" id="F"><path style="stroke:none" d="M.36-3.86v.266H.5c.297 0 .516.047.516.453v2.485c0 .36-.25.375-.688.375v.265h1.938V-.28h-.141c-.234 0-.469-.031-.469-.313v-3.375Zm.765-2.156c-.234.047-.422.235-.422.485s.219.468.485.468h.062a.474.474 0 0 0 .422-.468.477.477 0 0 0-.484-.485Zm0 0"/></symbol><symbol overflow="visible" id="G"><path style="stroke:none" d="M3.484-.531v1.625c0 .328-.187.36-.687.36v.28l.64-.03h1.407v-.25h-.188c-.281 0-.5-.032-.5-.376v-5.047l-.218.016-.11.203-.234.578c-.094-.11-.156-.234-.235-.328a1.316 1.316 0 0 0-1.03-.469c-1.079 0-2.017.906-2.017 2.016 0 1.047.813 2.047 1.954 2.047.453 0 .984-.235 1.218-.625ZM1.078-1.797v-.11c0-.734.39-1.765 1.297-1.812h.031c.578 0 1.016.563 1.11 1.094v1.406c0 .735-.922 1.078-1.204 1.078h-.046C1.609-.188 1.25-.859 1.14-1.42c-.032-.126-.032-.25-.063-.376Zm0 0"/></symbol><symbol overflow="visible" id="H"><path style="stroke:none" d="M3.469-2.36H.656c-.078 0-.14.032-.14.11 0 .094.078.11.14.11H3.47V.671c0 .078.031.14.11.156.077 0 .108-.078.108-.14v-2.829h2.829c.062 0 .125-.03.125-.109 0-.078-.079-.11-.141-.11H3.687v-2.812c0-.062-.015-.14-.093-.14-.094 0-.125.062-.125.14Zm0 0"/></symbol><symbol overflow="visible" id="I"><path style="stroke:none" d="M5.484-.578c.11.234.438.562.563.562.078 0 .094-.078.094-.14v-1.516c0-.047-.016-.11-.016-.172 0-.328.266-.343.594-.343h.047v-.282l-.641.031H4.172v.25c.156 0 .312-.015.469-.015.375 0 .703.062.703.453 0 .078-.016.156-.016.219 0 .093.016.187.016.297 0 .515-.36 1.14-1.485 1.14-.843 0-1.64-.469-2.046-1.218-.297-.547-.391-1.188-.391-1.797 0-.625.11-1.282.437-1.829.407-.656 1.157-1.109 1.938-1.109 1.094 0 1.828.953 2.031 2.016.016.11.016.265.156.265.125 0 .157-.062.157-.14v-2.219c0-.094 0-.203-.11-.203-.156 0-.406.531-.61.781-.359-.531-1.124-.781-1.75-.781-1.718 0-3.155 1.516-3.155 3.25C.516-1.422 1.796.187 3.75.187c.688 0 1.281-.187 1.734-.765Zm0 0"/></symbol><symbol overflow="visible" id="J"><path style="stroke:none" d="M1.094-3.484c.25-.22.61-.313.937-.313.313 0 .594.172.781.438.172.25.172.53.172.828v.156c-.734.078-1.468.078-2.093.547-.297.219-.516.578-.516.937 0 .735.875.985 1.469.985.547 0 .968-.281 1.218-.75.079.375.297.703.704.703.546 0 .78-.453.78-.953v-.406h-.25v.453c0 .25-.046.593-.327.593-.297 0-.313-.39-.313-.593v-1.75c0-.938-.812-1.407-1.61-1.407-.562 0-1.39.235-1.39.938 0 .25.14.437.469.437.219-.015.36-.218.36-.421 0-.25-.188-.376-.391-.422Zm1.89 1.328v.875c0 .625-.437 1.14-1.062 1.14h-.063c-.421-.03-.75-.359-.75-.75 0-.859 1.032-1.265 1.875-1.265Zm0 0"/></symbol><symbol overflow="visible" id="K"><path style="stroke:none" d="M.484-3.86.391-2.39h.25c.015-.313.03-.688.234-.938.219-.281.625-.313 1-.313h1c-.281.329-.531.688-.781 1.016A110.04 110.04 0 0 0 .359-.344C.313-.28.266-.219.266-.14c0 .11.078.125.156.125h3.125l.156-1.703h-.25c-.031.375-.062.813-.281 1.094-.25.344-.703.36-1.094.36h-1a163.476 163.476 0 0 0 2.484-3.266c.047-.063.11-.125.11-.203 0-.094-.063-.125-.14-.125Zm0 0"/></symbol><symbol overflow="visible" id="Q"><path style="stroke:none" d="M.266-6.14v.28h.14c.297 0 .547.032.547.454v5.39l.25-.015.344-.531c.312.453.75.656 1.234.656 1.125 0 2.031-.953 2.031-2.047 0-.953-.765-2.016-1.937-2.016-.484 0-.89.172-1.281.563v-2.828Zm3.75 4.406c-.032.421-.079.796-.344 1.109a1.252 1.252 0 0 1-.969.484c-.375 0-.75-.218-.953-.546a.457.457 0 0 1-.125-.297v-2c.063-.391.703-.75 1.172-.75 1.047 0 1.234 1.14 1.234 1.812 0 .063 0 .125-.015.188Zm0 0"/></symbol><symbol overflow="visible" id="R"><path style="stroke:none" d="M.266-3.86v.266h.14c.281 0 .547.031.547.453v2.485c0 .36-.234.375-.687.375v.265L.89-.03h1.562v-.25h-.297c-.312 0-.562-.047-.562-.375v-1.516c.062-.625.234-1.562 1.14-1.562-.125.062-.171.203-.171.328a.39.39 0 1 0 .78 0c0-.375-.359-.563-.687-.563-.547 0-.984.469-1.11.969v-.969Zm0 0"/></symbol><symbol overflow="visible" id="S"><path style="stroke:none" d="M.969-1.734A1.162 1.162 0 0 0 .688-1c0 .297.125.625.39.797-.422.172-.812.422-.812.89 0 .907 1.406 1.157 2.046 1.157.766 0 2.032-.282 2.032-1.188 0-1.062-1.11-1.281-2.016-1.281H1.5a.575.575 0 0 1-.5-.578c0-.125.063-.375.14-.375h.016c.125.031.25.125.375.156.157.063.344.078.516.078.719 0 1.5-.5 1.5-1.281 0-.313-.125-.672-.375-.875v-.016c.297-.203.547-.328.875-.328-.063.063-.125.125-.125.235 0 .14.125.265.281.265.188 0 .266-.14.266-.265 0-.297-.25-.454-.485-.454h-.078a1.483 1.483 0 0 0-.781.313c-.016.031-.063.078-.11.078-.062 0-.265-.14-.39-.187a1.316 1.316 0 0 0-.547-.11c-.734 0-1.531.5-1.531 1.328 0 .329.156.688.422.907ZM.766.734V.672c0-.469.468-.735.89-.735.078 0 .188.016.266.016h.469c.53 0 1.359.031 1.453.688v.062c0 .781-1.313.89-1.563.89C1.72 1.594.86 1.36.766.735ZM1.25-2.5v-.094c0-.484.11-1.125.797-1.125.547 0 .812.469.812 1.11 0 .515-.234 1.015-.812 1.015a.785.785 0 0 1-.61-.265c-.14-.188-.156-.407-.187-.641Zm0 0"/></symbol><symbol overflow="visible" id="T"><path style="stroke:none" d="M.313-3.86v.266h.14c.266 0 .547.031.547.453v2.485c0 .36-.234.375-.688.375v.265L.954-.03H2.36v-.25h-.203c-.265 0-.484-.047-.484-.375v-1.797c.047-.64.484-1.281 1.25-1.281.578 0 .64.578.64 1v2.109c0 .313-.265.344-.562.344h-.125v.265L3.5-.03h1.422v-.25h-.219c-.25 0-.484-.047-.484-.375v-1.797c.062-.64.484-1.281 1.265-1.281.563 0 .625.578.625 1v2.109c0 .313-.25.344-.546.344h-.141v.265h2.047V-.28h-.172c-.25 0-.516-.031-.516-.36v-2.015c0-.281-.015-.547-.14-.781-.235-.422-.704-.532-1.141-.532-.547 0-1.11.36-1.297.86h-.016c-.078-.625-.656-.86-1.203-.86-.578 0-1.14.328-1.359.89l-.016-.89Zm0 0"/></symbol><symbol overflow="visible" id="U"><path style="stroke:none" d="M1.031-2.063h2.657c.109 0 .156-.046.156-.156 0-1.125-.703-1.797-1.64-1.797-1.095 0-1.954.954-1.954 2.047C.25-.875 1.125.094 2.344.094c.64 0 1.281-.453 1.469-1.078.015-.016.015-.063.015-.094a.107.107 0 0 0-.11-.11c-.171 0-.171.266-.265.391-.219.375-.656.64-1.094.64h-.062C1.828-.171 1.422-.5 1.219-.921c-.172-.36-.188-.75-.188-1.14Zm.016-.218c0-.594.25-1.281.906-1.485a.914.914 0 0 1 .203-.03c.781 0 1.063.796 1.063 1.515Zm0 0"/></symbol><symbol overflow="visible" id="W"><path style="stroke:none" d="M2.828-6.14v.28h.094c.36 0 .594.016.594.548v1.875a1.532 1.532 0 0 0-1.172-.532c-1.11 0-2.031.938-2.031 2.047C.313-.906 1.14.094 2.266.094c.421 0 .984-.203 1.218-.578v.578l1.36-.11V-.28h-.14c-.298 0-.548-.031-.548-.453v-5.5Zm-1.75 4.406v-.125c0-.72.188-1.875 1.313-1.875.468 0 1.109.343 1.109.906 0 .11-.016.219-.016.328v1.484c0 .11-.046.188-.109.282-.234.343-.64.593-1.063.593a1.14 1.14 0 0 1-.89-.453c-.25-.328-.297-.734-.344-1.14Zm0 0"/></symbol><symbol overflow="visible" id="X"><path style="stroke:none" d="M.313-3.86v.266H.39c.25 0 .593.031.593.281.016.11.016.188.016.297v1.782c0 .28.016.53.14.78.266.438.813.548 1.282.548.5 0 .984-.297 1.14-.766l.016.766 1.328-.11V-.28H4.75c-.266 0-.531-.031-.531-.438v-3.25l-1.36.11v.265h.125c.282 0 .563.031.563.453v1.766C3.5-.797 3.14-.141 2.453-.141c-.36 0-.687-.078-.765-.546-.016-.172-.016-.329-.016-.5V-3.97Zm0 0"/></symbol><symbol overflow="visible" id="Y"><path style="stroke:none" d="M1.016-3.86h-.72v.266h.72v2.969c0 .313-.266.344-.563.344H.328v.265L.953-.03h1.563v-.25h-.297c-.328 0-.563-.047-.563-.422v-2.89h1.032v-.266H1.625v-.829c0-.578.14-1.421.828-1.421.078 0 .188.015.266.062a.395.395 0 0 0-.235.36c0 .218.172.39.391.39.266 0 .406-.172.406-.39 0-.422-.453-.641-.828-.641-.625 0-1.187.406-1.39.984-.047.172-.047.344-.047.516Zm0 0"/></symbol><symbol overflow="visible" id="Z"><path style="stroke:none" d="M1.031-2.063h2.657c.109 0 .156-.046.156-.156 0-1.125-.703-1.797-1.64-1.797-1.095 0-1.954.954-1.954 2.047C.25-.875 1.125.094 2.344.094c.64 0 1.281-.453 1.469-1.078.015-.016.015-.063.015-.094a.107.107 0 0 0-.11-.11c-.171 0-.171.266-.265.391-.219.375-.656.64-1.094.64h-.062C1.828-.171 1.422-.5 1.219-.921c-.172-.36-.188-.75-.188-1.14Zm.016-.218c0-.594.25-1.281.906-1.485a.914.914 0 0 1 .203-.03c.781 0 1.063.796 1.063 1.515Zm1.484-3.5c-.156.015-.312.203-.422.312-.28.282-.578.547-.859.828-.016.016-.016.032-.016.047 0 .063.079.188.141.188.047 0 .094-.047.125-.063l.25-.14c.39-.22 1.172-.516 1.172-.829 0-.171-.156-.359-.344-.359-.015 0-.031.016-.047.016Zm0 0"/></symbol><symbol overflow="visible" id="aa"><path style="stroke:none" d="M2.172-4.016c-1.047.11-1.906.954-1.906 2.094C.266-1 .953.094 2.312.094c1.047 0 2.032-.844 2.032-2 0-1.078-.844-2.125-2.047-2.125-.047 0-.078.015-.125.015ZM1.047-1.719v-.375c0-.719.219-1.703 1.266-1.703.703 0 1.156.563 1.234 1.281.015.188.015.375.015.563 0 .469-.03 1-.359 1.375a1.19 1.19 0 0 1-.906.422c-.656 0-1.11-.5-1.235-1.219 0-.11 0-.219-.015-.344Zm0 0"/></symbol><symbol overflow="visible" id="ab"><path style="stroke:none" d="M.313-3.86v.266h.14c.266 0 .547.031.547.453v2.485c0 .36-.234.375-.688.375v.265L.954-.03H2.36v-.25h-.203c-.265 0-.484-.047-.484-.375v-1.61c0-.687.406-1.468 1.25-1.468.484 0 .625.437.625 1v2.109c0 .313-.25.344-.547.344h-.14v.265L3.5-.03h1.406v-.25h-.172c-.265 0-.515-.031-.515-.36v-2.015c0-.281-.016-.531-.14-.781-.235-.422-.704-.532-1.141-.532-.547 0-1.11.375-1.313.89l-.016-.89Zm0 0"/></symbol><symbol overflow="visible" id="ac"><path style="stroke:none" d="M.36-6.14v.28h.343c.297 0 .578.048.578.391v4.782c0 .39-.328.406-.672.406H.36v.265h2.61V-.28h-.344c-.313 0-.578-.047-.578-.422v-2.25h1c.61 0 1.234.265 1.328 1v.64c0 .594.094 1.235 1.031 1.454.125.03.266.047.422.047.484 0 .922-.36.922-1.016 0-.078-.047-.14-.125-.14-.172 0-.156.452-.281.655-.094.157-.266.282-.453.282-.438 0-.516-.516-.579-.844-.03-.266-.062-.531-.109-.797-.031-.219-.047-.437-.156-.64-.203-.391-.547-.563-.969-.75.656-.188 1.547-.61 1.547-1.454 0-1.109-1.375-1.562-2.281-1.625Zm1.687 2.952V-5.53c0-.203.094-.328.328-.328h.672c.75 0 1.672.171 1.672 1.359 0 1.078-.86 1.313-1.86 1.313Zm0 0"/></symbol><symbol overflow="visible" id="ad"><path style="stroke:none" d="M.094-2.219v.563h2.469v-.563Zm0 0"/></symbol><symbol overflow="visible" id="ae"><path style="stroke:none" d="M.813-4.781c.14-.532.75-.922 1.296-.922.891 0 1.204.875 1.204 1.562-.094.922-.657 1.547-1.235 2.172-.5.532-1 1.094-1.515 1.625-.063.063-.11.125-.11.235v.093h3.438l.25-1.578h-.25c-.063.375-.047.797-.391.844-.078.016-.156.016-.234.016h-.22c-.265.015-.515.015-.78.015H1.234A39.486 39.486 0 0 1 2.938-2.28c.562-.485 1.171-1.063 1.203-1.86v-.078c0-1.125-.954-1.765-1.97-1.765-.874 0-1.718.687-1.718 1.625 0 .296.203.5.484.5.25 0 .454-.204.454-.47a.46.46 0 0 0-.47-.468c-.03 0-.062 0-.109.016Zm0 0"/></symbol><symbol overflow="visible" id="ay"><path style="stroke:none" d="M.266-6.14v.28h.156c.281 0 .531.032.531.47v4.515c0 .063.016.125.016.203 0 .375-.266.39-.64.39H.265v.266L.89-.03h1.375v-.25H2.03c-.265 0-.469-.047-.469-.422V-1.5c0-.125.11-.172.188-.25.14-.11.266-.234.406-.328.25.437.64.844.938 1.281.047.094.14.219.14.328 0 .14-.171.188-.312.188v.265h1.781V-.28c-.297 0-.5-.063-.719-.313-.14-.156-.25-.328-.375-.484-.328-.469-.687-.922-1.015-1.39.062-.032.11-.079.156-.126L3-2.797c.422-.344.906-.797 1.5-.797v-.265H2.86v.265c.093.031.218.063.218.219 0 .25-.328.453-.515.61l-.61.515c-.125.094-.25.188-.36.297v-4.281Zm0 0"/></symbol><symbol overflow="visible" id="az"><path style="stroke:none" d="M1.61-6.11v.25h.5c.343 0 .687.032.687.391v3.532c0 .14.015.296.015.453 0 .53-.171 1.453-.984 1.453-.39 0-.75-.203-.969-.516.016 0 .032.016.063.016a.487.487 0 0 0 .484-.485c0-.296-.203-.5-.484-.5-.266 0-.485.172-.485.516 0 .766.797 1.188 1.454 1.188.765 0 1.53-.47 1.671-1.266.016-.125.016-.25.016-.36v-4.078c0-.328.266-.343.625-.343h.063v-.282l-.672.032Zm0 0"/></symbol><symbol overflow="visible" id="aA"><path style="stroke:none" d="M3.953-6.734c-.11.046-.172.296-.219.437C2.688-3.53 1.594-.797.563 1.97a.252.252 0 0 0-.047.14c0 .063.046.11.109.11h.016c.062 0 .078-.063.109-.11l.14-.343c1.016-2.72 2.094-5.407 3.094-8.11.047-.093.11-.218.11-.281-.016-.063-.063-.11-.125-.11Zm0 0"/></symbol><symbol overflow="visible" id="z"><path style="stroke:none" d="M3.938-5.469c.046-.187.078-.281.218-.312.078-.016.36-.016.547-.016 1.031 0 1.344.063 1.344.766 0 .11 0 .25-.078.781l-.016.078c0 .063.031.125.125.125.11 0 .125-.094.14-.219l.235-1.562c.016-.031.016-.094.016-.125 0-.125-.078-.125-.25-.125h-5.11c-.218 0-.218.016-.28.187L.265-4.312c-.032.109-.032.14-.032.14 0 .047.032.125.11.125.11 0 .125-.062.172-.219.5-1.406.78-1.53 2.078-1.53h.344c.25 0 .25.03.25.109 0 .046-.016.109-.032.187L1.953-.703c-.078.312-.11.422-1.062.422-.282 0-.36 0-.36.172C.531 0 .641 0 .687 0c.235 0 .485-.016.735-.016s.5-.015.75-.015c.406 0 .422 0 .75.015.125 0 .703.016.781.016.078 0 .188 0 .188-.156 0-.125-.079-.125-.297-.125-.235 0-.344 0-.578-.016-.204-.031-.313-.031-.313-.187 0-.047.016-.11.031-.172Zm0 0"/></symbol><symbol overflow="visible" id="L"><path style="stroke:none" d="M4.313-3.313c0-.624-.329-.656-.407-.656-.234 0-.469.235-.469.438 0 .14.094.219.157.265.234.22.312.516.312.75 0 .391-.562 2.391-1.594 2.391-.687 0-.687-.625-.687-.797 0-.375.14-.844.453-1.656.14-.375.172-.469.172-.625a.739.739 0 0 0-.766-.766c-.859 0-1.218 1.281-1.218 1.39 0 .079.062.11.125.11.093 0 .109-.062.14-.172.188-.656.547-1.093.922-1.093.172 0 .219.109.219.296 0 .141-.047.313-.125.516-.313.875-.531 1.438-.531 1.89 0 .845.64 1.126 1.25 1.126 1.515 0 2.046-2.828 2.046-3.406Zm0 0"/></symbol><symbol overflow="visible" id="P"><path style="stroke:none" d="M.406 1.125c-.062.25-.078.344-.453.344-.11 0-.219 0-.219.156 0 .031.032.11.125.11l.375-.016H1.078c.156 0 .297.015.438.015.046 0 .171 0 .171-.156 0-.11-.093-.11-.25-.11-.421 0-.421-.062-.421-.155a2.9 2.9 0 0 1 .109-.438l.328-1.328c.094.187.344.547.86.547C3.359.094 4.5-1.172 4.5-2.516c0-.906-.563-1.453-1.234-1.453-.188 0-.641.047-1.188.656-.125-.5-.547-.656-.844-.656-.375 0-.578.281-.703.531-.14.313-.265.813-.265.86 0 .078.062.11.125.11.093 0 .109-.048.156-.235.172-.703.36-1.031.656-1.031.281 0 .281.28.281.421 0 .063-.015.204-.03.266Zm1.625-3.89c.047-.172.047-.188.172-.329.235-.312.64-.64 1.047-.64.422 0 .594.421.594.843 0 .391-.25 1.516-.531 1.985-.313.515-.688.781-1.016.781-.578 0-.735-.703-.735-.766 0-.062.032-.109.032-.156Zm0 0"/></symbol><symbol overflow="visible" id="ax"><path style="stroke:none" d="M2.578-5.922c.031-.125.031-.14.031-.172 0-.078-.046-.125-.14-.125-.125 0-.906.063-1.094.078-.078.016-.188.032-.188.172 0 .125.11.125.25.125.422 0 .422.063.422.14 0 .032 0 .048-.046.22L.53-.328C.5-.203.5-.188.5-.156c0 .14.11.25.266.25a.371.371 0 0 0 .343-.203c.016-.047.094-.375.141-.563l.219-.797c.015-.14.11-.484.14-.61l.11-.39c.047-.219.547-1.265 1.515-1.265.485 0 .485.468.485.625 0 .546-.422 1.64-.516 1.921-.11.266-.14.36-.14.532 0 .484.359.75.765.75.86 0 1.219-1.282 1.219-1.375 0-.047-.031-.11-.125-.11s-.11.047-.14.157c-.22.765-.61 1.109-.923 1.109-.062 0-.234 0-.234-.281 0-.235.094-.469.172-.656.172-.47.531-1.407.531-1.922 0-.797-.594-.985-1.062-.985-.547 0-1 .25-1.36.688Zm0 0"/></symbol><symbol overflow="visible" id="A"><path style="stroke:none" d="M.406-4.094v.235h.235c.218 0 .406.03.406.234V-.485c0 .22-.203.25-.39.25-.095 0-.173-.015-.25-.015V0h2.452c.594 0 1.344-.094 1.672-.75a.852.852 0 0 0 .078-.344c0-.64-.718-.984-1.296-1.047.421-.109 1.109-.312 1.109-.921 0-.438-.39-.75-.75-.891-.328-.125-.656-.14-.985-.14ZM1.61-2.03h.907c.109 0 .218-.016.328-.016.531 0 1.125.313 1.125.922 0 .484-.453.797-.906.875H1.859c-.125 0-.25 0-.25-.203Zm0-.203v-1.422c0-.172.094-.203.235-.203h.89c.407 0 .797.093 1 .5a.634.634 0 0 1 .063.296c0 .485-.547.829-1.031.829Zm0 0"/></symbol><symbol overflow="visible" id="ao"><path style="stroke:none" d="M.406-2.578v.25h.078c.22 0 .36.015.36.375v1.469c0 .218-.11.234-.453.234V0l.328-.031H1.75V-.25h-.14c-.141 0-.282-.016-.282-.203v-2.188Zm.547-1.469a.367.367 0 0 0-.312.36c0 .187.14.359.359.359.203 0 .36-.172.36-.36 0-.187-.141-.359-.36-.359H.953Zm0 0"/></symbol><symbol overflow="visible" id="ap"><path style="stroke:none" d="M.703-.203H.72c.203.203.515.25.781.25.484 0 1.094-.172 1.094-.828 0-.703-.797-.797-1.297-.89-.25-.032-.64-.126-.64-.407 0-.36.546-.406.765-.406.344 0 .687.093.766.484.015.094 0 .203.124.203.094 0 .11-.047.11-.11v-.64c0-.062-.016-.125-.078-.125-.094 0-.203.11-.25.172-.203-.14-.438-.172-.656-.172-.454 0-1.125.125-1.125.75 0 .516.562.672.937.734l.203.032c.234.031.813.11.813.515 0 .422-.532.5-.782.5-.39 0-.796-.172-.921-.734C.53-.953.53-1 .421-1c-.094 0-.11.047-.11.11V-.079c0 .078.032.125.094.125.047 0 .11-.047.156-.094l.032-.031c.047-.047.078-.078.11-.125Zm0 0"/></symbol><symbol overflow="visible" id="aq"><path style="stroke:none" d="M1.719-2.672c-.594.078-1.14.344-1.375 1.016-.031.125-.063.25-.063.375 0 .86.828 1.328 1.563 1.328.687 0 1.531-.469 1.531-1.313 0-.859-.797-1.406-1.578-1.406ZM.844-1.187v-.094c0-.313.031-.688.281-.938.172-.172.438-.25.688-.25.28 0 .546.078.734.266.219.234.25.547.25.844 0 .312-.031.671-.25.921a1.016 1.016 0 0 1-.719.282c-.469 0-.875-.266-.953-.797-.016-.063-.016-.156-.031-.235Zm0 0"/></symbol><symbol overflow="visible" id="ar"><path style="stroke:none" d="M1.078-3.688c0 .485-.266 1.157-.86 1.157v.187h.579v1.5c0 .203.015.39.125.563.156.25.469.328.75.328.437 0 .734-.344.734-.86v-.28h-.234c0 .093.015.171.015.25 0 .265-.093.687-.453.687-.359 0-.437-.36-.437-.64v-1.548h.984v-.234h-.984v-1.11Zm0 0"/></symbol><symbol overflow="visible" id="as"><path style="stroke:none" d="M.375-4.094v.235h.094c.172 0 .375 0 .375.312v3.078c0 .203-.156.219-.328.219H.375V0l.344-.031h1.094V-.25h-.141c-.172 0-.328-.016-.328-.203v-1.078c0-.547.437-.907.937-.907h.016c.453 0 .484.376.484.657V-.47c0 .203-.172.219-.344.219h-.14V0l.36-.031H3.75V-.25h-.14c-.157 0-.329-.016-.329-.203V-1.75c0-.234-.031-.453-.187-.656-.203-.188-.485-.235-.735-.235-.39 0-.828.157-1.03.532v-2.047Zm0 0"/></symbol><symbol overflow="visible" id="at"><path style="stroke:none" d="M.844-1.36h2.031c.094 0 .11-.077.11-.124 0-.641-.422-1.188-1.235-1.188-.719 0-1.469.516-1.469 1.36C.281-.5 1.047.046 1.812.046c.47 0 1-.203 1.157-.703.015-.016.015-.047.015-.078 0-.063-.062-.079-.109-.079-.11 0-.156.204-.234.297a1.005 1.005 0 0 1-.72.36H1.86a1.02 1.02 0 0 1-.89-.531 1.608 1.608 0 0 1-.125-.672Zm.015-.187c.032-.484.375-.922.891-.922.531 0 .781.453.797.922Zm0 0"/></symbol><symbol overflow="visible" id="au"><path style="stroke:none" d="M.344-2.578v.25h.094c.218 0 .374.015.374.375v1.469c0 .218-.125.234-.468.234V0l.328-.031h.969L1.875 0v-.25c-.078 0-.156.016-.234.016-.188 0-.36-.032-.36-.235V-1.266c0-.453.172-1.171.828-1.171a.288.288 0 0 0-.078.187.28.28 0 0 0 .281.281c.141 0 .266-.093.282-.25v-.031c0-.219-.219-.375-.438-.39h-.062c-.297 0-.563.171-.735.421-.03.063-.093.14-.109.219v-.64l-.313.03Zm0 0"/></symbol><symbol overflow="visible" id="av"><path style="stroke:none" d="M.375-2.578v.25h.094c.219 0 .375.015.375.375v1.469c0 .234-.156.234-.469.234V0l.344-.031h1.094V-.25h-.141c-.172 0-.328-.016-.328-.203v-1.078c0-.547.453-.907.953-.907.437 0 .484.344.484.626V-.47c0 .203-.156.219-.344.219h-.124V0l.343-.031h1.11V-.25h-.157c-.171 0-.328-.016-.328-.203v-1.078c0-.547.453-.907.953-.907h.016c.406 0 .469.329.469.626V-.47c0 .203-.157.219-.344.219H4.25V0l.344-.031h1.11V-.25h-.157c-.172 0-.328-.016-.328-.219V-1.75c0-.188 0-.375-.11-.547-.171-.281-.515-.344-.828-.344-.437 0-.734.172-1.031.547-.047-.437-.594-.547-.89-.547-.407 0-.907.204-1.047.563l-.016-.563Zm0 0"/></symbol><symbol overflow="visible" id="V"><path style="stroke:none" d="M6.047-2.047c.172 0 .344 0 .344-.203 0-.188-.188-.188-.344-.188H1.109c-.156 0-.343 0-.343.188 0 .203.171.203.343.203Zm0 0"/></symbol><clipPath id="h"><path d="M48 30h22v117.234H48Zm0 0"/></clipPath><clipPath id="i"><path d="M43 25h33v122.234H43Zm0 0"/></clipPath><clipPath id="j"><path d="M69 30h103v117.234H69Zm0 0"/></clipPath><clipPath id="k"><path d="M64 25h112.05v122.234H64Zm0 0"/></clipPath><clipPath id="l"><path d="M53 20.922h62V66H53Zm0 0"/></clipPath><clipPath id="s"><path d="M50 20.922h93V105H50Zm0 0"/></clipPath><clipPath id="aj"><path d="M269 30h84v117.234h-84Zm0 0"/></clipPath><clipPath id="ak"><path d="M263 25h95v122.234h-95Zm0 0"/></clipPath><clipPath id="al"><path d="M352 30h20v117.234h-20Zm0 0"/></clipPath><clipPath id="am"><path d="M346 25h32v122.234h-32Zm0 0"/></clipPath><clipPath id="an"><path d="M300 20.922h77v126.312h-77Zm0 0"/></clipPath><clipPath id="aw"><path d="M284 20.922h82v126.312h-82Zm0 0"/></clipPath></defs><path style="fill:none;stroke-width:.3985;stroke-linecap:butt;stroke-linejoin:miter;stroke:#bfbfbf;stroke-opacity:1;stroke-miterlimit:10" d="M-145.072-3.057v126.312M-96.717-3.057v126.312m48.36-126.312v126.312M-178.877.001h153.59m-153.59 66.801h153.59" transform="matrix(1 0 0 -1 201.338 144.177)"/><path style="fill:none;stroke-width:.19925;stroke-linecap:butt;stroke-linejoin:miter;stroke:gray;stroke-opacity:1;stroke-miterlimit:10" d="M-178.873-4.471v2.828m8.515-2.828v2.828m6.04-2.828v2.828m4.687-2.828v2.828m3.828-2.828v2.828m3.238-2.828v2.828m2.805-2.828v2.828m2.473-2.828v2.828m2.215-2.828v2.828m14.554-2.828v2.828m8.516-2.828v2.828m6.043-2.828v2.828m4.687-2.828v2.828m3.829-2.828v2.828m3.238-2.828v2.828m2.805-2.828v2.828m2.472-2.828v2.828m2.211-2.828v2.828m14.559-2.828v2.828m8.515-2.828v2.828m6.043-2.828v2.828m4.684-2.828v2.828m3.832-2.828v2.828m3.234-2.828v2.828m2.805-2.828v2.828m2.473-2.828v2.828M-145.072-5.178v4.246m48.355-4.246v4.246m48.36-4.246v4.246M-180.291-3.057h2.832M-180.291 0h2.832m-2.832 20.11h2.832m-2.832 11.761h2.832m-2.832 8.348h2.832m-2.832 6.473h2.832m-2.832 5.293h2.832m-2.832 4.468h2.832m-2.832 3.875h2.832m-2.832 3.418h2.832m-2.832 3.055h2.832m-2.832 20.113h2.832m-2.832 11.762h2.832m-2.832 8.348h2.832m-2.832 6.472h2.832m-2.832 5.29h2.832m-2.832 4.472h2.832M-180.998.001h4.246m-4.246 66.801h4.246" transform="matrix(1 0 0 -1 201.338 144.177)"/><path style="fill:none;stroke-width:.3985;stroke-linecap:butt;stroke-linejoin:miter;stroke:#000;stroke-opacity:1;stroke-miterlimit:10" d="M-178.877-3.057H-27.28" transform="matrix(1 0 0 -1 201.338 144.177)"/><path style="stroke:none;fill-rule:nonzero;fill:#000;fill-opacity:1" d="m176.05 147.234-3.187-1.593 1.196 1.593-1.196 1.594"/><path style="fill:none;stroke-width:.3985;stroke-linecap:butt;stroke-linejoin:miter;stroke:#000;stroke-opacity:1;stroke-miterlimit:10" d="M-178.877-3.057v124.32" transform="matrix(1 0 0 -1 201.338 144.177)"/><path style="stroke:none;fill-rule:nonzero;fill:#000;fill-opacity:1" d="m22.46 20.922-1.593 3.187 1.594-1.195 1.594 1.195"/><g style="fill:#000;fill-opacity:1"><use xlink:href="#a" x="46.705" y="159.011"/><use xlink:href="#b" x="51.313" y="159.011"/></g><use xlink:href="#c" x="55.921" y="155.202" style="fill:#000;fill-opacity:1"/><use xlink:href="#d" x="61.677" y="155.202" style="fill:#000;fill-opacity:1"/><g style="fill:#000;fill-opacity:1"><use xlink:href="#a" x="95.062" y="159.011"/><use xlink:href="#b" x="99.67" y="159.011"/></g><use xlink:href="#c" x="104.278" y="155.202" style="fill:#000;fill-opacity:1"/><use xlink:href="#e" x="110.034" y="155.202" style="fill:#000;fill-opacity:1"/><g style="fill:#000;fill-opacity:1"><use xlink:href="#a" x="143.42" y="159.011"/><use xlink:href="#b" x="148.028" y="159.011"/></g><use xlink:href="#c" x="152.635" y="155.202" style="fill:#000;fill-opacity:1"/><use xlink:href="#f" x="158.391" y="155.202" style="fill:#000;fill-opacity:1"/><g style="fill:#000;fill-opacity:1"><use xlink:href="#a" x="4.981" y="148.007"/><use xlink:href="#b" x="9.589" y="148.007"/></g><use xlink:href="#g" x="14.197" y="144.198" style="fill:#000;fill-opacity:1"/><g style="fill:#000;fill-opacity:1"><use xlink:href="#a" x="4.981" y="81.204"/><use xlink:href="#b" x="9.589" y="81.204"/></g><use xlink:href="#f" x="14.197" y="77.395" style="fill:#000;fill-opacity:1"/><g clip-path="url(#h)"><path style="stroke:none;fill-rule:nonzero;fill:#ececec;fill-opacity:1" d="m48.953 147.234.754-21.675.523-12.27.426-8.598.371-6.62.328-5.387.305-4.543.281-3.922.27-3.465.254-3.09.246-2.789.238-2.547.23-2.344.227-2.164.223-2.015.219-1.883.215-1.774.214-1.664.215-1.578.211-1.492.211-1.426.215-1.355.21-1.297.216-1.242.215-1.188.218-1.144.223-1.098.223-1.059.226-1.02.235-.987.234-.953.242-.926.25-.895.254-.867.266-.844.273-.82.285-.797.301-.777.309-.75.332-.735.351-.726.38-.7.405-.683.45-.668.5-.656.57-.637.672-.629.84-.61 1.203-.6 4.828-.587.012 116.496"/></g><g clip-path="url(#i)"><path style="fill:none;stroke-width:.3985;stroke-linecap:butt;stroke-linejoin:miter;stroke:gray;stroke-opacity:1;stroke-dasharray:2.98883,2.98883;stroke-miterlimit:10" d="m-152.385-3.057.754 21.675.523 12.27.426 8.598.371 6.62.328 5.387.305 4.543.281 3.922.27 3.465.254 3.09.246 2.789.238 2.547.23 2.344.227 2.164.223 2.015.219 1.883.215 1.774.214 1.664.215 1.578.211 1.492.211 1.426.215 1.355.21 1.297.216 1.242.215 1.188.218 1.144.223 1.098.223 1.059.226 1.02.235.987.234.953.242.926.25.895.254.867.266.844.273.82.285.797.301.777.309.75.332.735.351.726.38.7.405.683.45.668.5.656.57.637.672.629.84.61 1.203.6 4.828.587" transform="matrix(1 0 0 -1 201.338 144.177)"/></g><g clip-path="url(#j)"><path style="stroke:none;fill-rule:nonzero;fill:#ececec;fill-opacity:1" d="m171.145 147.234-14.7-21.675-8.394-12.27-5.938-8.598-4.613-6.62-3.797-5.387-3.23-4.543-2.817-3.922-2.504-3.465-2.261-3.09-2.067-2.789-1.91-2.547-1.766-2.344-1.652-2.164-1.558-2.015-1.473-1.883-1.399-1.774-1.332-1.664-1.28-1.578-1.227-1.492-1.184-1.426-1.145-1.355-1.105-1.297-1.078-1.242-1.047-1.188-1.023-1.144-1.008-1.098-.98-1.059-.966-1.02-.945-.987-.937-.953-.93-.926-.918-.895-.914-.867-.91-.844-.91-.82-.91-.797-.919-.777-.925-.75-.942-.735-.953-.726-.98-.7-1.016-.683-1.059-.668-1.113-.656-1.203-.637-1.332-.629-1.559-.61-2.027-.6-6.45-.587.013 116.496"/></g><g clip-path="url(#k)"><path style="fill:none;stroke-width:.3985;stroke-linecap:butt;stroke-linejoin:miter;stroke:gray;stroke-opacity:1;stroke-dasharray:2.98883,2.98883;stroke-miterlimit:10" d="m-30.193-3.057-14.7 21.675-8.394 12.27-5.938 8.598-4.613 6.62-3.797 5.387-3.23 4.543-2.817 3.922-2.504 3.465-2.261 3.09-2.067 2.789-1.91 2.547-1.766 2.344-1.652 2.164-1.558 2.015-1.473 1.883-1.399 1.774-1.332 1.664-1.28 1.578-1.227 1.492-1.184 1.426-1.145 1.355-1.105 1.297-1.078 1.242-1.047 1.188-1.023 1.144-1.008 1.098-.98 1.059-.966 1.02-.945.987-.937.953-.93.926-.918.895-.914.867-.91.844-.91.82-.91.797-.919.777-.925.75-.942.735-.953.726-.98.7-1.016.683-1.059.668-1.113.656-1.203.637-1.332.629-1.559.61-2.027.6-6.45.587" transform="matrix(1 0 0 -1 201.338 144.177)"/></g><g clip-path="url(#l)"><path style="fill:none;stroke-width:.3985;stroke-linecap:butt;stroke-linejoin:miter;stroke:#000;stroke-opacity:1;stroke-miterlimit:10" d="M-147.713 123.255V78.568h60.336" transform="matrix(1 0 0 -1 201.338 144.177)"/></g><use xlink:href="#m" x="65.949" y="62.622" style="fill:#000;fill-opacity:1"/><use xlink:href="#n" x="70.32" y="63.618" style="fill:#000;fill-opacity:1"/><use xlink:href="#o" x="75.983" y="62.622" style="fill:#000;fill-opacity:1"/><g style="fill:#000;fill-opacity:1"><use xlink:href="#d" x="83.695" y="62.622"/><use xlink:href="#p" x="87.348" y="62.622"/></g><use xlink:href="#q" x="92.273" y="60.114" style="fill:#000;fill-opacity:1"/><use xlink:href="#r" x="96.438" y="62.622" style="fill:#000;fill-opacity:1"/><path style="fill:none;stroke-width:.3985;stroke-linecap:butt;stroke-linejoin:miter;stroke:#000;stroke-opacity:1;stroke-miterlimit:10" d="m-87.377 78.591.539-.672.543-.676.539-.668.543-.671.54-.672.542-.672.54-.676.542-.672.54-.668.542-.68.54-.671.542-.672.54-.672.542-.672.54-.672.542-.676.54-.672.542-.671.54-.672.542-.672.54-.672.538-.676.543-.672.54-.672.542-.671.54-.672.542-.672.54-.68.542-.668.54-.672.542-.675.54-.672.543-.672.539-.668.543-.672.539-.676.543-.676.539-.668.543-.675.539-.672.543-.672.539-.676.543-.668.539-.676.539-.672.543-.671.539-.672.543-.672.539-.672.543-.676.539-.672.543-.672.539-.671.543-.672.539-.676.543-.668.539-.672.543-.68.539-.664.543-.675.539-.676.543-.672.54-.66.542-.676.54-.688.542-.671.54-.657.542-.668.54-.675.538-.688.543-.668.54-.68.542-.66.54-.672.542-.656.54-.68.542-.668.54-.695.542-.652.54-.684.542-.664.54-.687.542-.672.54-.672.542-.656.54-.696.542-.664.54-.68.542-.675.54-.66.542-.676.54-.68.539-.66.543-.676.539-.683.543-.672.539-.668.543-.668.539-.676" transform="matrix(1 0 0 -1 201.338 144.177)"/><g clip-path="url(#s)"><path style="fill:none;stroke-width:.3985;stroke-linecap:butt;stroke-linejoin:miter;stroke:#000;stroke-opacity:1;stroke-miterlimit:10" d="M-150.674 123.255V40.22h91.445" transform="matrix(1 0 0 -1 201.338 144.177)"/></g><use xlink:href="#m" x="59.634" y="110.914" style="fill:#000;fill-opacity:1"/><use xlink:href="#t" x="64.004" y="112.286" style="fill:#000;fill-opacity:1"/><use xlink:href="#o" x="68.803" y="110.914" style="fill:#000;fill-opacity:1"/><use xlink:href="#c" x="76.515" y="110.914" style="fill:#000;fill-opacity:1"/><use xlink:href="#u" x="82.271" y="110.914" style="fill:#000;fill-opacity:1"/><use xlink:href="#q" x="87.197" y="108.406" style="fill:#000;fill-opacity:1"/><use xlink:href="#r" x="91.362" y="110.914" style="fill:#000;fill-opacity:1"/><path style="fill:none;stroke-width:.3985;stroke-linecap:butt;stroke-linejoin:miter;stroke:#000;stroke-opacity:1;stroke-miterlimit:10" d="m-59.229 40.216.258-.324.258-.32.254-.317.258-.32.258-.313.257-.324.254-.32.258-.313.258-.324.254-.316.515-.641.258-.316.254-.317.516-.64.254-.32.515-.634.254-.324.774-.949.254-.309.257-.34.258-.304.254-.328.516-.649.258-.32.253-.312.258-.313.258-.309.254-.332.516-.648.257-.316.254-.32.258-.313.258-.305.254-.332.258-.328.257-.32.258-.297.254-.336.258-.313.258-.308.254-.328.258-.301.257-.34.258-.316.254-.313.258-.332.258-.324.254-.301.257-.32.258-.336.258-.293.254-.328.258-.325.258-.32.253-.32.258-.336.258-.313.258-.324.254-.316.258-.305.257-.328.254-.313.258-.328.258-.32.258-.297.254-.332.257-.328.258-.309.254-.32.258-.316.258-.328.254-.325.258-.308.257-.317.258-.312.254-.328.258-.325.258-.32.254-.324.257-.3.258-.337.258-.304.254-.332.258-.313.258-.32.253-.317.258-.328.258-.312.258-.32.254-.321.258-.312.257-.325" transform="matrix(1 0 0 -1 201.338 144.177)"/><path style="fill:none;stroke-width:.99628;stroke-linecap:butt;stroke-linejoin:miter;stroke:#00adef;stroke-opacity:1;stroke-miterlimit:10" d="m-59.229 40.22-25.496 38.348" transform="matrix(1 0 0 -1 201.338 144.177)"/><path style="stroke:none;fill-rule:nonzero;fill:#00adef;fill-opacity:1" d="m123.008 75.227.633 5.128.964-2.722 2.887.164"/><use xlink:href="#v" x="139.808" y="105.973" style="fill:#00adef;fill-opacity:1"/><path style="stroke:none;fill-rule:nonzero;fill:#fff;fill-opacity:1" d="M138.656 114.117h6.91v-6.176h-6.91Zm0 0"/><use xlink:href="#w" x="138.657" y="114.118" style="fill:#00adef;fill-opacity:1"/><use xlink:href="#x" x="120.598" y="67.852" style="fill:#00adef;fill-opacity:1"/><use xlink:href="#y" x="130.19" y="67.852" style="fill:#00adef;fill-opacity:1"/><use xlink:href="#z" x="133.778" y="67.852" style="fill:#00adef;fill-opacity:1"/><use xlink:href="#A" x="139.154" y="68.848" style="fill:#00adef;fill-opacity:1"/><use xlink:href="#B" x="144.737" y="67.852" style="fill:#00adef;fill-opacity:1"/><path style="fill:none;stroke-width:.99628;stroke-linecap:butt;stroke-linejoin:miter;stroke:#00adef;stroke-opacity:1;stroke-miterlimit:10" d="M-84.725 78.568h-62.988" transform="matrix(1 0 0 -1 201.338 144.177)"/><path style="stroke:none;fill-rule:nonzero;fill:#00adef;fill-opacity:1" d="m69.375 65.61 4.621 2.312-1.734-2.313 1.734-2.308"/><use xlink:href="#v" x="114.31" y="67.627" style="fill:#00adef;fill-opacity:1"/><use xlink:href="#C" x="44.982" y="68.699" style="fill:#00adef;fill-opacity:1"/><path style="fill:none;stroke-width:.99628;stroke-linecap:butt;stroke-linejoin:miter;stroke:#00adef;stroke-opacity:1;stroke-miterlimit:10" d="m-147.713 78.568 61.512-38.348" transform="matrix(1 0 0 -1 201.338 144.177)"/><path style="stroke:none;fill-rule:nonzero;fill:#00adef;fill-opacity:1" d="m99.68 94.32-2.7-4.406.25 2.879-2.695 1.043"/><use xlink:href="#v" x="51.325" y="67.627" style="fill:#00adef;fill-opacity:1"/><use xlink:href="#v" x="112.835" y="105.973" style="fill:#00adef;fill-opacity:1"/><use xlink:href="#D" x="111.62" y="112.125" style="fill:#00adef;fill-opacity:1"/><path style="fill:none;stroke-width:.99628;stroke-linecap:butt;stroke-linejoin:miter;stroke:#00adef;stroke-opacity:1;stroke-miterlimit:10" d="M-86.201 40.22h26.972" transform="matrix(1 0 0 -1 201.338 144.177)"/><path style="stroke:none;fill-rule:nonzero;fill:#00adef;fill-opacity:1" d="m135.367 103.957-4.62-2.312 1.73 2.312-1.73 2.313"/><g style="fill:#000;fill-opacity:1"><use xlink:href="#E" x="59.782" y="48.4"/><use xlink:href="#F" x="65.539" y="48.4"/><use xlink:href="#G" x="68.098" y="48.4"/><use xlink:href="#H" x="72.961" y="48.4"/><use xlink:href="#I" x="80.127" y="48.4"/><use xlink:href="#J" x="87.356" y="48.4"/><use xlink:href="#K" x="91.963" y="48.4"/></g><g style="fill:#000;fill-opacity:1"><use xlink:href="#E" x="29.065" y="48.4"/><use xlink:href="#F" x="34.822" y="48.4"/><use xlink:href="#G" x="37.381" y="48.4"/></g><g style="fill:#000;fill-opacity:1"><use xlink:href="#I" x="144.256" y="49.271"/><use xlink:href="#J" x="151.486" y="49.271"/><use xlink:href="#K" x="156.093" y="49.271"/></g><use xlink:href="#L" x="180.038" y="149.944" style="fill:#000;fill-opacity:1"/><use xlink:href="#y" x="187.907" y="149.944" style="fill:#000;fill-opacity:1"/><use xlink:href="#M" x="191.49" y="149.944" style="fill:#000;fill-opacity:1"/><use xlink:href="#d" x="199.169" y="146.135" style="fill:#000;fill-opacity:1"/><g style="fill:#000;fill-opacity:1"><use xlink:href="#N" x="204.856" y="149.944"/><use xlink:href="#O" x="209.719" y="149.944"/></g><use xlink:href="#c" x="214.455" y="146.135" style="fill:#000;fill-opacity:1"/><use xlink:href="#f" x="220.211" y="146.135" style="fill:#000;fill-opacity:1"/><use xlink:href="#B" x="224.362" y="149.944" style="fill:#000;fill-opacity:1"/><use xlink:href="#P" x="6.376" y="16.688" style="fill:#000;fill-opacity:1"/><g style="fill:#000;fill-opacity:1"><use xlink:href="#y" x="14.073" y="16.688"/><use xlink:href="#Q" x="17.656" y="16.688"/><use xlink:href="#J" x="22.774" y="16.688"/><use xlink:href="#R" x="27.381" y="16.688"/><use xlink:href="#B" x="30.985" y="16.688"/></g><g style="fill:#000;fill-opacity:1"><use xlink:href="#D" x="34.764" y="11.208"/><use xlink:href="#F" x="41.801" y="11.208"/><use xlink:href="#J" x="44.36" y="11.208"/><use xlink:href="#S" x="48.967" y="11.208"/><use xlink:href="#R" x="53.574" y="11.208"/><use xlink:href="#J" x="57.177" y="11.208"/><use xlink:href="#T" x="61.784" y="11.208"/><use xlink:href="#T" x="69.462" y="11.208"/><use xlink:href="#U" x="77.14" y="11.208"/></g><use xlink:href="#P" x="84.308" y="11.208" style="fill:#000;fill-opacity:1"/><use xlink:href="#V" x="90.982" y="11.208" style="fill:#000;fill-opacity:1"/><use xlink:href="#L" x="100.198" y="11.208" style="fill:#000;fill-opacity:1"/><g style="fill:#000;fill-opacity:1"><use xlink:href="#W" x="108.067" y="11.208"/><use xlink:href="#X" x="113.185" y="11.208"/></g><g style="fill:#000;fill-opacity:1"><use xlink:href="#Y" x="121.379" y="11.208"/><use xlink:href="#R" x="124.194" y="11.208"/><use xlink:href="#Z" x="127.798" y="11.208"/></g><g style="fill:#000;fill-opacity:1"><use xlink:href="#aa" x="131.887" y="11.208"/><use xlink:href="#ab" x="136.494" y="11.208"/></g><g style="fill:#000;fill-opacity:1"><use xlink:href="#ac" x="144.688" y="11.208"/><use xlink:href="#ad" x="151.469" y="11.208"/><use xlink:href="#ae" x="154.54" y="11.208"/><use xlink:href="#ae" x="159.147" y="11.208"/></g><path style="fill:none;stroke-width:.3985;stroke-linecap:butt;stroke-linejoin:miter;stroke:#bfbfbf;stroke-opacity:1;stroke-miterlimit:10" d="M26.88-3.057v126.312M65.28-3.057v126.312M103.677-3.057v126.312M142.076-3.057v126.312M.002.001h153.594M.001 66.802h153.593" transform="matrix(1 0 0 -1 261.092 144.177)"/><path style="fill:none;stroke-width:.19925;stroke-linecap:butt;stroke-linejoin:miter;stroke:gray;stroke-opacity:1;stroke-miterlimit:10" d="M1.28-4.471v2.828m12.8-2.828v2.828m25.598-2.828v2.828m12.8-2.828v2.828m25.598-2.828v2.828m12.8-2.828v2.828m25.598-2.828v2.828m12.801-2.828v2.828M26.88-5.178v4.246m38.4-4.246v4.246m38.398-4.246v4.246m38.398-4.246v4.246M-1.416-3.057h2.832M-1.416 0h2.832m-2.832 20.11h2.832m-2.832 11.761h2.832m-2.832 8.348h2.832m-2.832 6.473h2.832m-2.832 5.293h2.832m-2.832 4.468h2.832m-2.832 3.875h2.832m-2.832 3.418h2.832m-2.832 3.055h2.832m-2.832 20.113h2.832m-2.832 11.762h2.832m-2.832 8.348h2.832m-2.832 6.472h2.832m-2.832 5.29h2.832m-2.832 4.472h2.832M-2.127.001h4.254m-4.254 66.801h4.254" transform="matrix(1 0 0 -1 261.092 144.177)"/><path style="fill:none;stroke-width:.3985;stroke-linecap:butt;stroke-linejoin:miter;stroke:#000;stroke-opacity:1;stroke-miterlimit:10" d="M.002-3.057h151.601" transform="matrix(1 0 0 -1 261.092 144.177)"/><path style="stroke:none;fill-rule:nonzero;fill:#000;fill-opacity:1" d="m414.688 147.234-3.188-1.593 1.195 1.593-1.195 1.594"/><path style="fill:none;stroke-width:.3985;stroke-linecap:butt;stroke-linejoin:miter;stroke:#000;stroke-opacity:1;stroke-miterlimit:10" d="M.002-3.057v124.32" transform="matrix(1 0 0 -1 261.092 144.177)"/><path style="stroke:none;fill-rule:nonzero;fill:#000;fill-opacity:1" d="m261.094 20.922-1.598 3.187 1.598-1.195 1.594 1.195"/><g style="fill:#000;fill-opacity:1"><use xlink:href="#af" x="281.059" y="157.128"/><use xlink:href="#b" x="285.667" y="157.128"/><use xlink:href="#b" x="290.275" y="157.128"/></g><g style="fill:#000;fill-opacity:1"><use xlink:href="#ag" x="319.457" y="157.128"/><use xlink:href="#b" x="324.065" y="157.128"/><use xlink:href="#b" x="328.673" y="157.128"/></g><g style="fill:#000;fill-opacity:1"><use xlink:href="#ah" x="357.855" y="157.128"/><use xlink:href="#b" x="362.463" y="157.128"/><use xlink:href="#b" x="367.071" y="157.128"/></g><g style="fill:#000;fill-opacity:1"><use xlink:href="#ai" x="396.254" y="157.128"/><use xlink:href="#b" x="400.862" y="157.128"/><use xlink:href="#b" x="405.47" y="157.128"/></g><g style="fill:#000;fill-opacity:1"><use xlink:href="#a" x="243.607" y="148.007"/><use xlink:href="#b" x="248.215" y="148.007"/></g><use xlink:href="#g" x="252.822" y="144.198" style="fill:#000;fill-opacity:1"/><g style="fill:#000;fill-opacity:1"><use xlink:href="#a" x="243.607" y="81.204"/><use xlink:href="#b" x="248.215" y="81.204"/></g><use xlink:href="#f" x="252.822" y="77.395" style="fill:#000;fill-opacity:1"/><g clip-path="url(#aj)"><path style="stroke:none;fill-rule:nonzero;fill:#ececec;fill-opacity:1" d="m269.262 147.234 7.129-21.675 4.687-12.27 3.637-8.598 3.035-6.62 2.633-5.387 2.351-4.543 2.133-3.922 1.965-3.465 1.828-3.09 1.723-2.789 1.62-2.547 1.548-2.344 1.469-2.164 1.418-2.015 1.359-1.883 1.312-1.774 1.274-1.664 1.234-1.578 1.207-1.492 1.168-1.426 1.149-1.355 1.12-1.297 1.106-1.242 1.082-1.188 1.063-1.144 1.05-1.098 1.04-1.059 1.023-1.02 1.02-.987 1.007-.953 1.004-.926.996-.895.996-.867.997-.844.996-.82 1-.797 1.007-.777 1.02-.75 1.027-.735 1.051-.726 1.074-.7 1.102-.683 1.148-.668 1.203-.656 1.282-.637 1.402-.629 1.598-.61 2.027-.6 6.473-.587.004 116.496"/></g><g clip-path="url(#ak)"><path style="fill:none;stroke-width:.3985;stroke-linecap:butt;stroke-linejoin:miter;stroke:gray;stroke-opacity:1;stroke-dasharray:2.98883,2.98883;stroke-miterlimit:10" d="m8.17-3.057 7.129 21.675 4.687 12.27 3.637 8.598 3.035 6.62 2.633 5.387 2.351 4.543 2.133 3.922 1.965 3.465 1.828 3.09 1.723 2.789 1.62 2.547 1.548 2.344 1.469 2.164 1.418 2.015 1.359 1.883 1.312 1.774 1.274 1.664 1.234 1.578 1.207 1.492 1.168 1.426 1.149 1.355 1.12 1.297 1.106 1.242 1.082 1.188 1.063 1.144 1.05 1.098 1.04 1.059 1.023 1.02 1.02.987 1.007.953 1.004.926.996.895.996.867.997.844.996.82 1 .797 1.007.777 1.02.75 1.027.735 1.051.726 1.074.7 1.102.683 1.148.668 1.203.656 1.282.637 1.402.629 1.598.61 2.027.6 6.473.587" transform="matrix(1 0 0 -1 261.092 144.177)"/></g><g clip-path="url(#al)"><path style="stroke:none;fill-rule:nonzero;fill:#ececec;fill-opacity:1" d="m359.617 147.234 2.95-21.675 1.788-12.27 1.286-8.598.992-6.62.808-5.387.668-4.543.563-3.922.484-3.465.414-3.09.36-2.789.308-2.547.266-2.344.23-2.164.196-2.015.168-1.883.132-1.774.114-1.664.082-1.578.062-1.492.043-1.426.016-1.355v-1.297l-.027-1.242-.043-1.188-.063-1.144-.082-1.098-.105-1.059-.122-1.02-.148-.987-.164-.953-.188-.926-.21-.895-.235-.867-.262-.844-.289-.82-.312-.797-.356-.777-.382-.75-.426-.735-.477-.726-.527-.7-.586-.683-.668-.668-.77-.656-.898-.637-1.09-.629-1.398-.61-2.031-.6-7.633-.587.004 116.496"/></g><g clip-path="url(#am)"><path style="fill:none;stroke-width:.3985;stroke-linecap:butt;stroke-linejoin:miter;stroke:gray;stroke-opacity:1;stroke-dasharray:2.98883,2.98883;stroke-miterlimit:10" d="m98.525-3.057 2.95 21.675 1.788 12.27 1.286 8.598.992 6.62.808 5.387.668 4.543.563 3.922.484 3.465.414 3.09.36 2.789.308 2.547.266 2.344.23 2.164.196 2.015.168 1.883.132 1.774.114 1.664.082 1.578.062 1.492.043 1.426.016 1.355v1.297l-.027 1.242-.043 1.188-.063 1.144-.082 1.098-.105 1.059-.122 1.02-.148.987-.164.953-.188.926-.21.895-.235.867-.262.844-.289.82-.312.797-.356.777-.382.75-.426.735-.477.726-.527.7-.586.683-.668.668-.77.656-.898.637-1.09.629-1.398.61-2.031.6-7.633.587" transform="matrix(1 0 0 -1 261.092 144.177)"/></g><g clip-path="url(#an)"><path style="fill:none;stroke-width:.3985;stroke-linecap:butt;stroke-linejoin:miter;stroke:#000;stroke-opacity:1;stroke-miterlimit:10" d="M45.482 153.716V78.568h64.371l.004-81.625" transform="matrix(1 0 0 -1 261.092 144.177)"/></g><use xlink:href="#ao" x="317.567" y="72.655" style="fill:#000;fill-opacity:1"/><use xlink:href="#ap" x="319.67" y="72.655" style="fill:#000;fill-opacity:1"/><use xlink:href="#aq" x="322.586" y="72.655" style="fill:#000;fill-opacity:1"/><use xlink:href="#ar" x="326.238" y="72.655" style="fill:#000;fill-opacity:1"/><use xlink:href="#as" x="329.116" y="72.655" style="fill:#000;fill-opacity:1"/><use xlink:href="#at" x="333.155" y="72.655" style="fill:#000;fill-opacity:1"/><use xlink:href="#au" x="336.42" y="72.655" style="fill:#000;fill-opacity:1"/><use xlink:href="#av" x="339.297" y="72.655" style="fill:#000;fill-opacity:1"/><use xlink:href="#at" x="345.273" y="72.655" style="fill:#000;fill-opacity:1"/><g style="fill:#000;fill-opacity:1"><use xlink:href="#d" x="351.028" y="72.655"/><use xlink:href="#p" x="354.681" y="72.655"/></g><use xlink:href="#q" x="359.552" y="70.146" style="fill:#000;fill-opacity:1"/><use xlink:href="#r" x="363.717" y="72.655" style="fill:#000;fill-opacity:1"/><g clip-path="url(#aw)"><path style="fill:none;stroke-width:.3985;stroke-linecap:butt;stroke-linejoin:miter;stroke:#000;stroke-opacity:1;stroke-miterlimit:10" d="M23.951 123.255V40.22h80.707V-66.803" transform="matrix(1 0 0 -1 261.092 144.177)"/></g><use xlink:href="#ao" x="311.906" y="101.61" style="fill:#000;fill-opacity:1"/><use xlink:href="#ap" x="314.009" y="101.61" style="fill:#000;fill-opacity:1"/><use xlink:href="#aq" x="316.925" y="101.61" style="fill:#000;fill-opacity:1"/><use xlink:href="#ar" x="320.577" y="101.61" style="fill:#000;fill-opacity:1"/><use xlink:href="#as" x="323.455" y="101.61" style="fill:#000;fill-opacity:1"/><use xlink:href="#at" x="327.494" y="101.61" style="fill:#000;fill-opacity:1"/><use xlink:href="#au" x="330.759" y="101.61" style="fill:#000;fill-opacity:1"/><use xlink:href="#av" x="333.636" y="101.61" style="fill:#000;fill-opacity:1"/><use xlink:href="#at" x="339.612" y="101.61" style="fill:#000;fill-opacity:1"/><use xlink:href="#c" x="345.367" y="101.61" style="fill:#000;fill-opacity:1"/><use xlink:href="#u" x="351.123" y="101.61" style="fill:#000;fill-opacity:1"/><use xlink:href="#q" x="355.994" y="99.101" style="fill:#000;fill-opacity:1"/><use xlink:href="#r" x="360.159" y="101.61" style="fill:#000;fill-opacity:1"/><path style="fill:none;stroke-width:.99628;stroke-linecap:butt;stroke-linejoin:miter;stroke:#00adef;stroke-opacity:1;stroke-miterlimit:10" d="m104.674 40.22 12.902 38.348" transform="matrix(1 0 0 -1 261.092 144.177)"/><path style="stroke:none;fill-rule:nonzero;fill:#00adef;fill-opacity:1" d="m375.438 75.207-3.665 3.645 2.747-.907 1.636 2.383"/><use xlink:href="#v" x="363.462" y="105.974" style="fill:#00adef;fill-opacity:1"/><path style="stroke:none;fill-rule:nonzero;fill:#fff;fill-opacity:1" d="M367.758 112.125h6.91v-6.176h-6.91Zm0 0"/><use xlink:href="#w" x="367.758" y="112.125" style="fill:#00adef;fill-opacity:1"/><use xlink:href="#x" x="382.652" y="67.852" style="fill:#00adef;fill-opacity:1"/><use xlink:href="#y" x="392.244" y="67.852" style="fill:#00adef;fill-opacity:1"/><use xlink:href="#z" x="395.831" y="67.852" style="fill:#00adef;fill-opacity:1"/><use xlink:href="#A" x="401.207" y="68.849" style="fill:#00adef;fill-opacity:1"/><use xlink:href="#B" x="406.791" y="67.852" style="fill:#00adef;fill-opacity:1"/><path style="fill:none;stroke-width:.99628;stroke-linecap:butt;stroke-linejoin:miter;stroke:#00adef;stroke-opacity:1;stroke-miterlimit:10" d="M117.576 78.568H45.502" transform="matrix(1 0 0 -1 261.092 144.177)"/><path style="stroke:none;fill-rule:nonzero;fill:#00adef;fill-opacity:1" d="m324.613 65.61 4.621 2.312-1.73-2.313 1.73-2.308"/><use xlink:href="#v" x="376.364" y="67.627" style="fill:#00adef;fill-opacity:1"/><use xlink:href="#C" x="297.947" y="68.699" style="fill:#00adef;fill-opacity:1"/><path style="fill:none;stroke-width:.99628;stroke-linecap:butt;stroke-linejoin:miter;stroke:#00adef;stroke-opacity:1;stroke-miterlimit:10" d="M45.502 78.568V40.22" transform="matrix(1 0 0 -1 261.092 144.177)"/><path style="stroke:none;fill-rule:nonzero;fill:#00adef;fill-opacity:1" d="m306.594 94.371 2.312-4.625-2.312 1.734-2.313-1.734"/><use xlink:href="#v" x="304.29" y="67.627" style="fill:#00adef;fill-opacity:1"/><use xlink:href="#v" x="304.29" y="105.974" style="fill:#00adef;fill-opacity:1"/><use xlink:href="#D" x="303.075" y="112.125" style="fill:#00adef;fill-opacity:1"/><path style="fill:none;stroke-width:.99628;stroke-linecap:butt;stroke-linejoin:miter;stroke:#00adef;stroke-opacity:1;stroke-miterlimit:10" d="M45.502 40.22h59.172" transform="matrix(1 0 0 -1 261.092 144.177)"/><path style="stroke:none;fill-rule:nonzero;fill:#00adef;fill-opacity:1" d="m350.973 103.957-4.621-2.312 1.734 2.312-1.734 2.313"/><g style="fill:#000;fill-opacity:1"><use xlink:href="#E" x="330.666" y="48.4"/><use xlink:href="#F" x="336.423" y="48.4"/><use xlink:href="#G" x="338.982" y="48.4"/><use xlink:href="#H" x="343.845" y="48.4"/><use xlink:href="#I" x="351.011" y="48.4"/><use xlink:href="#J" x="358.24" y="48.4"/><use xlink:href="#K" x="362.847" y="48.4"/></g><g style="fill:#000;fill-opacity:1"><use xlink:href="#E" x="269.227" y="48.4"/><use xlink:href="#F" x="274.984" y="48.4"/><use xlink:href="#G" x="277.543" y="48.4"/></g><g style="fill:#000;fill-opacity:1"><use xlink:href="#I" x="385.959" y="49.272"/><use xlink:href="#J" x="393.189" y="49.272"/><use xlink:href="#K" x="397.796" y="49.272"/></g><use xlink:href="#ax" x="418.67" y="149.475" style="fill:#000;fill-opacity:1"/><g style="fill:#000;fill-opacity:1"><use xlink:href="#y" x="427.051" y="149.475"/><use xlink:href="#ay" x="430.634" y="149.475"/><use xlink:href="#az" x="435.496" y="149.475"/><use xlink:href="#aA" x="440.231" y="149.475"/><use xlink:href="#ay" x="444.838" y="149.475"/><use xlink:href="#S" x="449.7" y="149.475"/><use xlink:href="#B" x="454.307" y="149.475"/></g><use xlink:href="#P" x="228.915" y="23.163" style="fill:#000;fill-opacity:1"/><g style="fill:#000;fill-opacity:1"><use xlink:href="#y" x="236.612" y="23.163"/><use xlink:href="#Q" x="240.195" y="23.163"/><use xlink:href="#J" x="245.313" y="23.163"/><use xlink:href="#R" x="249.92" y="23.163"/><use xlink:href="#B" x="253.524" y="23.163"/></g><g style="fill:#000;fill-opacity:1"><use xlink:href="#D" x="273.138" y="11.208"/><use xlink:href="#F" x="280.175" y="11.208"/><use xlink:href="#J" x="282.734" y="11.208"/><use xlink:href="#S" x="287.341" y="11.208"/><use xlink:href="#R" x="291.948" y="11.208"/><use xlink:href="#J" x="295.551" y="11.208"/><use xlink:href="#T" x="300.158" y="11.208"/><use xlink:href="#T" x="307.836" y="11.208"/><use xlink:href="#U" x="315.514" y="11.208"/></g><use xlink:href="#P" x="322.682" y="11.208" style="fill:#000;fill-opacity:1"/><use xlink:href="#V" x="329.356" y="11.208" style="fill:#000;fill-opacity:1"/><use xlink:href="#ax" x="338.571" y="11.208" style="fill:#000;fill-opacity:1"/><g style="fill:#000;fill-opacity:1"><use xlink:href="#W" x="346.952" y="11.208"/><use xlink:href="#X" x="352.07" y="11.208"/></g><g style="fill:#000;fill-opacity:1"><use xlink:href="#Y" x="360.264" y="11.208"/><use xlink:href="#R" x="363.079" y="11.208"/><use xlink:href="#Z" x="366.683" y="11.208"/><use xlink:href="#aa" x="370.781" y="11.208"/><use xlink:href="#ab" x="375.388" y="11.208"/></g><g style="fill:#000;fill-opacity:1"><use xlink:href="#ac" x="383.573" y="11.208"/><use xlink:href="#ad" x="390.354" y="11.208"/><use xlink:href="#ae" x="393.425" y="11.208"/><use xlink:href="#ae" x="398.032" y="11.208"/></g></svg>