<svg xmlns="http://www.w3.org/2000/svg" xmlns:xlink="http://www.w3.org/1999/xlink" width="177.723" height="51.079" viewBox="0 0 133.292 38.309"><defs><symbol overflow="visible" id="a"><path style="stroke:none" d="M3.938-5.469c.046-.187.078-.281.218-.312.078-.016.36-.016.547-.016 1.031 0 1.344.063 1.344.766 0 .11 0 .25-.078.781l-.016.078c0 .063.031.125.125.125.11 0 .125-.094.14-.219l.235-1.562c.016-.031.016-.094.016-.125 0-.125-.078-.125-.25-.125h-5.11c-.218 0-.218.016-.28.187L.265-4.312c-.032.109-.032.14-.032.14 0 .047.032.125.11.125.11 0 .125-.062.172-.219.5-1.406.78-1.53 2.078-1.53h.344c.25 0 .25.03.25.109 0 .046-.016.109-.032.187L1.953-.703c-.078.312-.11.422-1.062.422-.282 0-.36 0-.36.172C.531 0 .641 0 .687 0c.235 0 .485-.016.735-.016s.5-.015.75-.015c.406 0 .422 0 .75.015.125 0 .703.016.781.016.078 0 .188 0 .188-.156 0-.125-.079-.125-.297-.125-.235 0-.344 0-.578-.016-.204-.031-.313-.031-.313-.187 0-.047.016-.11.031-.172Zm0 0"/></symbol><symbol overflow="visible" id="h"><path style="stroke:none" d="M3.688.375c-.016.094-.016.219-.016.328 0 .422.078 1.031.781 1.031C5.531 1.734 5.984.141 5.984 0c0-.047-.046-.11-.125-.11-.062 0-.078.063-.109.126-.203.609-.734.843-1.063.843-.406 0-.546-.265-.64-.906 1.969-.844 2.75-2.61 2.75-3.844 0-1.406-.953-2.437-2.36-2.437-2 0-3.984 2.062-3.984 4.11C.453-.75 1.47.202 2.813.202c.374 0 .734-.094.89-.125ZM2.28-.156c-.422-.172-1.015-.64-1.015-1.797 0-.469.156-1.906 1.125-3.063.468-.546 1.218-1.062 1.984-1.062.89 0 1.61.656 1.61 1.922 0 .89-.438 2.922-1.985 3.781-.078-.484-.25-.969-.828-.969-.5 0-.938.469-.938.922a.73.73 0 0 0 .047.266ZM3.72-.234a2.098 2.098 0 0 1-.844.187c-.11 0-.422 0-.422-.375 0-.328.344-.687.735-.687.53 0 .53.484.53.875Zm0 0"/></symbol><symbol overflow="visible" id="i"><path style="stroke:none" d="M8.469-5.078a1.52 1.52 0 0 1 .156-.234c.328-.485.656-.516.906-.532.11-.015.11-.156.11-.172 0-.046-.032-.109-.11-.109-.047 0-.219.031-.719.031-.296 0-.609-.031-.906-.031-.047 0-.172 0-.172.156 0 .11.11.125.141.125.125 0 .516.016.516.344 0 .063-.016.14-.125.328L5.828-1l-.39-4.563c0-.093.093-.28.656-.28.11 0 .218 0 .218-.173 0-.078-.062-.109-.14-.109-.25 0-.844.031-1.094.031-.328 0-.344 0-.484-.015-.125 0-.36-.016-.469-.016-.047 0-.156 0-.156.156 0 .125.094.125.203.125.406 0 .453.063.469.203 0 .047.046.594.046.625 0 .032 0 .063-.062.157L2.375-1 2-5.422c-.016-.172-.031-.422.625-.422.125 0 .234 0 .234-.172 0-.093-.109-.109-.14-.109-.156 0-.344.016-.516.016-.187 0-.375.015-.562.015-.157 0-.391 0-.5-.015-.079 0-.391-.016-.454-.016-.046 0-.171 0-.171.156 0 .125.109.125.203.125.453 0 .469.063.484.313l.453 5.5c.016.156.016.234.157.234.125 0 .156-.062.234-.187l2.687-4.594.375 4.531c0 .156.016.25.157.25.03 0 .14 0 .234-.187Zm0 0"/></symbol><symbol overflow="visible" id="b"><path style="stroke:none" d="M2.14-3.797c0-.187-.015-.187-.203-.187-.39.39-1 .39-1.218.39v.235c.156 0 .562 0 .922-.172v3.015c0 .204 0 .282-.625.282h-.25V0c.328-.031.796-.031 1.125-.031.328 0 .796 0 1.125.031v-.234h-.25c-.625 0-.625-.078-.625-.282Zm0 0"/></symbol><symbol overflow="visible" id="c"><path style="stroke:none" d="M.953-3.86H.25v.266h.703v2.969c0 .313-.25.344-.547.344h-.14v.265L.922-.03h.734l.625.015V-.28h-.203c-.25 0-.484-.031-.484-.344v-2.969h1.922v2.969c0 .313-.266.344-.563.344h-.125v.265l.625-.015h.735l.656.015V-.28h-.219c-.25 0-.469-.047-.469-.36v-5.593c-.11.015-.218.046-.328.046h-.031c-.063 0-.172-.062-.235-.078a1.613 1.613 0 0 0-.468-.062h-.156c-.922 0-1.985.469-1.985 1.469Zm2.563 0H1.562v-.968c0-.656.422-1.281 1.375-1.281.204 0 .376.03.579.062-.125.094-.204.203-.204.36 0 .218.188.265.204.406.015.047.015.11.015.156 0 .11-.015.219-.015.313Zm0 0"/></symbol><symbol overflow="visible" id="d"><path style="stroke:none" d="M.313-3.86v.266H.39c.25 0 .593.031.593.281.016.11.016.188.016.297v1.782c0 .28.016.53.14.78.266.438.813.548 1.282.548.5 0 .984-.297 1.14-.766l.016.766 1.328-.11V-.28H4.75c-.266 0-.531-.031-.531-.438v-3.25l-1.36.11v.265h.125c.282 0 .563.031.563.453v1.766C3.5-.797 3.14-.141 2.453-.141c-.36 0-.687-.078-.765-.546-.016-.172-.016-.329-.016-.5V-3.97Zm0 0"/></symbol><symbol overflow="visible" id="e"><path style="stroke:none" d="M.36-3.86v.266H.5c.297 0 .516.047.516.453v2.485c0 .36-.25.375-.688.375v.265h1.938V-.28h-.141c-.234 0-.469-.031-.469-.313v-3.375Zm.765-2.156c-.234.047-.422.235-.422.485s.219.468.485.468h.062a.474.474 0 0 0 .422-.468.477.477 0 0 0-.484-.485Zm0 0"/></symbol><symbol overflow="visible" id="f"><path style="stroke:none" d="M2.828-6.14v.28h.094c.36 0 .594.016.594.548v1.875a1.532 1.532 0 0 0-1.172-.532c-1.11 0-2.031.938-2.031 2.047C.313-.906 1.14.094 2.266.094c.421 0 .984-.203 1.218-.578v.578l1.36-.11V-.28h-.14c-.298 0-.548-.031-.548-.453v-5.5Zm-1.75 4.406v-.125c0-.72.188-1.875 1.313-1.875.468 0 1.109.343 1.109.906 0 .11-.016.219-.016.328v1.484c0 .11-.046.188-.109.282-.234.343-.64.593-1.063.593a1.14 1.14 0 0 1-.89-.453c-.25-.328-.297-.734-.344-1.14Zm0 0"/></symbol><symbol overflow="visible" id="g"><path style="stroke:none" d="M1.031-2.063h2.657c.109 0 .156-.046.156-.156 0-1.125-.703-1.797-1.64-1.797-1.095 0-1.954.954-1.954 2.047C.25-.875 1.125.094 2.344.094c.64 0 1.281-.453 1.469-1.078.015-.016.015-.063.015-.094a.107.107 0 0 0-.11-.11c-.171 0-.171.266-.265.391-.219.375-.656.64-1.094.64h-.062C1.828-.171 1.422-.5 1.219-.921c-.172-.36-.188-.75-.188-1.14Zm.016-.218c0-.594.25-1.281.906-1.485a.914.914 0 0 1 .203-.03c.781 0 1.063.796 1.063 1.515Zm0 0"/></symbol></defs><path style="stroke:none;fill-rule:nonzero;fill:#ffe6bf;fill-opacity:1" d="M4.98 33.328H24.47V4.98H4.98Zm0 0"/><use xlink:href="#a" x="9.963" y="21.72" style="fill:#369;fill-opacity:1"/><use xlink:href="#b" x="15.339" y="22.716" style="fill:#369;fill-opacity:1"/><path style="fill-rule:nonzero;fill:#bfbfbf;fill-opacity:1;stroke-width:.3985;stroke-linecap:butt;stroke-linejoin:miter;stroke:#000;stroke-opacity:1;stroke-dasharray:2.98883,2.98883;stroke-miterlimit:10" d="M22.612.002c0 6.3-10.125 11.41-22.613 11.41s-22.61-5.11-22.61-11.41c0-6.305 10.122-11.414 22.61-11.414S22.612-6.303 22.612.002Zm0 0" transform="matrix(1 0 0 -1 71.419 19.154)"/><g style="fill:#fff;fill-opacity:1"><use xlink:href="#c" x="60.413" y="22.242"/><use xlink:href="#d" x="65.531" y="22.242"/><use xlink:href="#e" x="70.649" y="22.242"/><use xlink:href="#f" x="73.208" y="22.242"/><use xlink:href="#g" x="78.326" y="22.242"/></g><path style="fill:none;stroke-width:.3985;stroke-linecap:butt;stroke-linejoin:miter;stroke:#000;stroke-opacity:1;stroke-miterlimit:10" d="M-44.954.002h17.363" transform="matrix(1 0 0 -1 71.419 19.154)"/><path style="stroke:none;fill-rule:nonzero;fill:#000;fill-opacity:1" d="m40.637 19.152-3.188-1.593 1.196 1.593-1.196 1.594"/><use xlink:href="#h" x="29.436" y="15.418" style="fill:#000;fill-opacity:1"/><use xlink:href="#b" x="36.704" y="16.415" style="fill:#000;fill-opacity:1"/><path style="fill:none;stroke-width:.3985;stroke-linecap:butt;stroke-linejoin:miter;stroke:#000;stroke-opacity:1;stroke-miterlimit:10" d="M56.694.002H27.593" transform="matrix(1 0 0 -1 71.419 19.154)"/><path style="stroke:none;fill-rule:nonzero;fill:#000;fill-opacity:1" d="m113.938 19.152 3.19 1.594-1.194-1.594 1.195-1.593"/><use xlink:href="#i" x="108.57" y="17.162" style="fill:#000;fill-opacity:1"/></svg>