<svg xmlns="http://www.w3.org/2000/svg" xmlns:xlink="http://www.w3.org/1999/xlink" width="189.288" height="89.14" viewBox="0 0 141.966 66.855"><defs><symbol overflow="visible" id="a"><path style="stroke:none" d="M3.938-5.469c.046-.187.078-.281.218-.312.078-.016.36-.016.547-.016 1.031 0 1.344.063 1.344.766 0 .11 0 .25-.078.781l-.016.078c0 .063.031.125.125.125.11 0 .125-.094.14-.219l.235-1.562c.016-.031.016-.094.016-.125 0-.125-.078-.125-.25-.125h-5.11c-.218 0-.218.016-.28.187L.265-4.312c-.032.109-.032.14-.032.14 0 .047.032.125.11.125.11 0 .125-.062.172-.219.5-1.406.78-1.53 2.078-1.53h.344c.25 0 .25.03.25.109 0 .046-.016.109-.032.187L1.953-.703c-.078.312-.11.422-1.062.422-.282 0-.36 0-.36.172C.531 0 .641 0 .687 0c.235 0 .485-.016.735-.016s.5-.015.75-.015c.406 0 .422 0 .75.015.125 0 .703.016.781.016.078 0 .188 0 .188-.156 0-.125-.079-.125-.297-.125-.235 0-.344 0-.578-.016-.204-.031-.313-.031-.313-.187 0-.047.016-.11.031-.172Zm0 0"/></symbol><symbol overflow="visible" id="i"><path style="stroke:none" d="M3.688.375c-.016.094-.016.219-.016.328 0 .422.078 1.031.781 1.031C5.531 1.734 5.984.141 5.984 0c0-.047-.046-.11-.125-.11-.062 0-.078.063-.109.126-.203.609-.734.843-1.063.843-.406 0-.546-.265-.64-.906 1.969-.844 2.75-2.61 2.75-3.844 0-1.406-.953-2.437-2.36-2.437-2 0-3.984 2.062-3.984 4.11C.453-.75 1.47.202 2.813.202c.374 0 .734-.094.89-.125ZM2.28-.156c-.422-.172-1.015-.64-1.015-1.797 0-.469.156-1.906 1.125-3.063.468-.546 1.218-1.062 1.984-1.062.89 0 1.61.656 1.61 1.922 0 .89-.438 2.922-1.985 3.781-.078-.484-.25-.969-.828-.969-.5 0-.938.469-.938.922a.73.73 0 0 0 .047.266ZM3.72-.234a2.098 2.098 0 0 1-.844.187c-.11 0-.422 0-.422-.375 0-.328.344-.687.735-.687.53 0 .53.484.53.875Zm0 0"/></symbol><symbol overflow="visible" id="j"><path style="stroke:none" d="M6.203-4.547c.078-.031.188-.094.188-.203a.197.197 0 0 0-.204-.203c-.015 0-.046 0-.156.062L.953-2.453c-.078.031-.187.078-.187.203s.093.172.187.219L6.016.39c.125.062.156.062.171.062.141 0 .204-.125.204-.187 0-.11-.063-.157-.172-.188L1.406-2.25Zm0 0"/></symbol><symbol overflow="visible" id="l"><path style="stroke:none" d="M8.469-5.078a1.52 1.52 0 0 1 .156-.234c.328-.485.656-.516.906-.532.11-.015.11-.156.11-.172 0-.046-.032-.109-.11-.109-.047 0-.219.031-.719.031-.296 0-.609-.031-.906-.031-.047 0-.172 0-.172.156 0 .11.11.125.141.125.125 0 .516.016.516.344 0 .063-.016.14-.125.328L5.828-1l-.39-4.563c0-.093.093-.28.656-.28.11 0 .218 0 .218-.173 0-.078-.062-.109-.14-.109-.25 0-.844.031-1.094.031-.328 0-.344 0-.484-.015-.125 0-.36-.016-.469-.016-.047 0-.156 0-.156.156 0 .125.094.125.203.125.406 0 .453.063.469.203 0 .047.046.594.046.625 0 .032 0 .063-.062.157L2.375-1 2-5.422c-.016-.172-.031-.422.625-.422.125 0 .234 0 .234-.172 0-.093-.109-.109-.14-.109-.156 0-.344.016-.516.016-.187 0-.375.015-.562.015-.157 0-.391 0-.5-.015-.079 0-.391-.016-.454-.016-.046 0-.171 0-.171.156 0 .125.109.125.203.125.453 0 .469.063.484.313l.453 5.5c.016.156.016.234.157.234.125 0 .156-.062.234-.187l2.687-4.594.375 4.531c0 .156.016.25.157.25.03 0 .14 0 .234-.187Zm0 0"/></symbol><symbol overflow="visible" id="b"><path style="stroke:none" d="M.844-2.578H.313v.234h.53v1.89C.844-.25.673-.25.47-.25H.39V0l.328-.031h.969L1.921 0v-.25c-.078 0-.156.016-.234.016-.188 0-.36-.032-.36-.235v-1.875h.797v-.234h-.828v-.547c0-.328.062-.766.5-.89h.094c.062 0 .125 0 .171.015-.046.063-.093.125-.093.219a.27.27 0 0 0 .281.281.28.28 0 0 0 .281-.281c0-.313-.36-.438-.625-.438-.437 0-.89.266-1.015.688-.032.11-.047.234-.047.36Zm0 0"/></symbol><symbol overflow="visible" id="c"><path style="stroke:none" d="M2.438-2.406a.332.332 0 0 0-.11.234c0 .156.11.281.297.281.188 0 .281-.14.281-.296 0-.47-.656-.485-.937-.485h-.063c-.422 0-.812.11-1.14.39a1.374 1.374 0 0 0-.438 1c0 .766.703 1.329 1.5 1.329.453 0 .89-.172 1.11-.61.015-.046.046-.109.046-.156 0-.062-.046-.094-.109-.094-.125 0-.125.141-.172.22-.156.28-.484.437-.781.437C1.344-.156.89-.61.89-1.281c0-.485.187-1.047.765-1.157.094-.015.188-.015.282-.015.171 0 .343.015.5.047Zm0 0"/></symbol><symbol overflow="visible" id="d"><path style="stroke:none" d="M.953-3.86H.25v.266h.703v2.969c0 .313-.25.344-.547.344h-.14v.265L.922-.03h.734l.625.015V-.28h-.203c-.25 0-.484-.031-.484-.344v-2.969h1.922v2.969c0 .313-.266.344-.563.344h-.125v.265l.625-.015h.735l.656.015V-.28h-.219c-.25 0-.469-.047-.469-.36v-5.593c-.11.015-.218.046-.328.046h-.031c-.063 0-.172-.062-.235-.078a1.613 1.613 0 0 0-.468-.062h-.156c-.922 0-1.985.469-1.985 1.469Zm2.563 0H1.562v-.968c0-.656.422-1.281 1.375-1.281.204 0 .376.03.579.062-.125.094-.204.203-.204.36 0 .218.188.265.204.406.015.047.015.11.015.156 0 .11-.015.219-.015.313Zm0 0"/></symbol><symbol overflow="visible" id="e"><path style="stroke:none" d="M.313-3.86v.266H.39c.25 0 .593.031.593.281.016.11.016.188.016.297v1.782c0 .28.016.53.14.78.266.438.813.548 1.282.548.5 0 .984-.297 1.14-.766l.016.766 1.328-.11V-.28H4.75c-.266 0-.531-.031-.531-.438v-3.25l-1.36.11v.265h.125c.282 0 .563.031.563.453v1.766C3.5-.797 3.14-.141 2.453-.141c-.36 0-.687-.078-.765-.546-.016-.172-.016-.329-.016-.5V-3.97Zm0 0"/></symbol><symbol overflow="visible" id="f"><path style="stroke:none" d="M.36-3.86v.266H.5c.297 0 .516.047.516.453v2.485c0 .36-.25.375-.688.375v.265h1.938V-.28h-.141c-.234 0-.469-.031-.469-.313v-3.375Zm.765-2.156c-.234.047-.422.235-.422.485s.219.468.485.468h.062a.474.474 0 0 0 .422-.468.477.477 0 0 0-.484-.485Zm0 0"/></symbol><symbol overflow="visible" id="g"><path style="stroke:none" d="M2.828-6.14v.28h.094c.36 0 .594.016.594.548v1.875a1.532 1.532 0 0 0-1.172-.532c-1.11 0-2.031.938-2.031 2.047C.313-.906 1.14.094 2.266.094c.421 0 .984-.203 1.218-.578v.578l1.36-.11V-.28h-.14c-.298 0-.548-.031-.548-.453v-5.5Zm-1.75 4.406v-.125c0-.72.188-1.875 1.313-1.875.468 0 1.109.343 1.109.906 0 .11-.016.219-.016.328v1.484c0 .11-.046.188-.109.282-.234.343-.64.593-1.063.593a1.14 1.14 0 0 1-.89-.453c-.25-.328-.297-.734-.344-1.14Zm0 0"/></symbol><symbol overflow="visible" id="h"><path style="stroke:none" d="M1.031-2.063h2.657c.109 0 .156-.046.156-.156 0-1.125-.703-1.797-1.64-1.797-1.095 0-1.954.954-1.954 2.047C.25-.875 1.125.094 2.344.094c.64 0 1.281-.453 1.469-1.078.015-.016.015-.063.015-.094a.107.107 0 0 0-.11-.11c-.171 0-.171.266-.265.391-.219.375-.656.64-1.094.64h-.062C1.828-.171 1.422-.5 1.219-.921c-.172-.36-.188-.75-.188-1.14Zm.016-.218c0-.594.25-1.281.906-1.485a.914.914 0 0 1 .203-.03c.781 0 1.063.796 1.063 1.515Zm0 0"/></symbol><symbol overflow="visible" id="k"><path style="stroke:none" d="M4.25-2.875c0-.594-.031-1.375-.344-2.047-.406-.844-1.078-1.047-1.594-1.047-.546 0-1.234.203-1.624 1.078-.282.61-.329 1.344-.329 2.016 0 .594.016 1.453.407 2.172.421.75 1.125.906 1.53.906.579 0 1.25-.25 1.626-1.078.265-.61.328-1.281.328-2ZM2.312-.031c-.28 0-.921-.125-1.093-1.14-.094-.516-.094-1.298-.094-1.813 0-.61 0-1.313.11-1.813.187-.797.75-.953 1.062-.953.344 0 .906.188 1.078 1.016.094.484.094 1.187.094 1.75 0 .562 0 1.312-.094 1.843C3.187-.109 2.531-.03 2.312-.03Zm0 0"/></symbol></defs><path style="stroke:none;fill-rule:nonzero;fill:#ffe6bf;fill-opacity:1" d="M4.98 33.328h18.133V4.98H4.98Zm0 0"/><use xlink:href="#a" x="9.963" y="21.687" style="fill:#369;fill-opacity:1"/><use xlink:href="#b" x="15.339" y="22.749" style="fill:#369;fill-opacity:1"/><path style="stroke:none;fill-rule:nonzero;fill:#ffe6bf;fill-opacity:1" d="M117.883 33.328h19.101V4.98h-19.101Zm0 0"/><use xlink:href="#a" x="122.864" y="21.72" style="fill:#369;fill-opacity:1"/><use xlink:href="#c" x="128.24" y="22.716" style="fill:#369;fill-opacity:1"/><path style="fill-rule:nonzero;fill:#bfbfbf;fill-opacity:1;stroke-width:.3985;stroke-linecap:butt;stroke-linejoin:miter;stroke:#000;stroke-opacity:1;stroke-dasharray:2.98883,2.98883;stroke-miterlimit:10" d="M22.61-.001c0 6.304-10.124 11.414-22.609 11.414-12.488 0-22.613-5.11-22.613-11.414 0-6.301 10.125-11.41 22.613-11.41 12.485 0 22.61 5.109 22.61 11.41Zm0 0" transform="matrix(1 0 0 -1 70.741 19.155)"/><g style="fill:#fff;fill-opacity:1"><use xlink:href="#d" x="59.734" y="22.242"/><use xlink:href="#e" x="64.852" y="22.242"/><use xlink:href="#f" x="69.97" y="22.242"/><use xlink:href="#g" x="72.529" y="22.242"/><use xlink:href="#h" x="77.647" y="22.242"/></g><path style="fill:none;stroke-width:.3985;stroke-linecap:butt;stroke-linejoin:miter;stroke:#000;stroke-opacity:1;stroke-miterlimit:10" d="M-45.636-.001h18.043" transform="matrix(1 0 0 -1 70.741 19.155)"/><path style="stroke:none;fill-rule:nonzero;fill:#000;fill-opacity:1" d="m39.281 19.156-3.187-1.593 1.195 1.593-1.195 1.594"/><use xlink:href="#i" x="29.097" y="15.419" style="fill:#000;fill-opacity:1"/><use xlink:href="#b" x="36.365" y="16.48" style="fill:#000;fill-opacity:1"/><path style="fill:none;stroke-width:.3985;stroke-linecap:butt;stroke-linejoin:miter;stroke:#000;stroke-opacity:1;stroke-miterlimit:10" d="M45.15-.001H27.59" transform="matrix(1 0 0 -1 70.741 19.155)"/><path style="stroke:none;fill-rule:nonzero;fill:#000;fill-opacity:1" d="m101.719 19.156 3.187 1.594-1.195-1.594 1.195-1.593"/><use xlink:href="#i" x="93.148" y="15.419" style="fill:#000;fill-opacity:1"/><use xlink:href="#c" x="100.417" y="16.415" style="fill:#000;fill-opacity:1"/><use xlink:href="#j" x="106.739" y="15.419" style="fill:#000;fill-opacity:1"/><use xlink:href="#k" x="116.467" y="15.419" style="fill:#000;fill-opacity:1"/><path style="fill:none;stroke-width:.3985;stroke-linecap:butt;stroke-linejoin:miter;stroke:#000;stroke-opacity:1;stroke-miterlimit:10" d="M.001-42.52v26.128" transform="matrix(1 0 0 -1 70.741 19.155)"/><path style="stroke:none;fill-rule:nonzero;fill:#000;fill-opacity:1" d="m70.742 47.5-1.594 3.191 1.594-1.195 1.594 1.195"/><use xlink:href="#l" x="72.733" y="51.674" style="fill:#000;fill-opacity:1"/></svg>