<svg xmlns="http://www.w3.org/2000/svg" xmlns:xlink="http://www.w3.org/1999/xlink" width="448.451" height="146.895" viewBox="0 0 336.338 110.171"><defs><symbol overflow="visible" id="a"><path style="stroke:none" d="M.36-6.14v.28h.343c.297 0 .578.048.578.391v4.782c0 .39-.328.406-.672.406H.36v.265h2.563c.203 0 .39.016.594.016 1.078 0 2.437-.516 2.89-2.14.078-.297.11-.579.11-.876 0-1.609-1.11-3.125-2.985-3.125h-.61ZM5.624-2.72c0 1.11-.547 2.063-1.547 2.344-.297.094-.578.094-.875.094h-.797c-.203 0-.36-.047-.36-.328V-5.453c0-.266.032-.406.407-.406h.766c.656 0 1.344.093 1.875.78.468.579.547 1.407.547 2.11 0 .078-.016.156-.016.25Zm0 0"/></symbol><symbol overflow="visible" id="b"><path style="stroke:none" d="M.313-.281v.265L.859-.03h1.36v-.25c-.25 0-.64-.125-.64-.453 0-.125.046-.235.093-.344.156-.422.281-.984.437-.984H4.25c.156 0 .266.5.36.75.077.234.265.593.265.75 0 .28-.5.28-.734.28v.266h2.453V-.28h-.25c-.203 0-.422-.031-.516-.125-.125-.125-.156-.297-.219-.438-.64-1.734-1.234-3.484-1.875-5.218l-.078-.188c-.031-.094-.062-.188-.219-.188-.187 0-.218.22-.265.36C2.625-4.547 2.078-3 1.516-1.484l-.157.453c-.187.562-.562.75-1.046.75Zm1.812-2.063L3.188-5.28 4.25-2.344Zm0 0"/></symbol><symbol overflow="visible" id="c"><path style="stroke:none" d="M.375-6.14v.28h.328c.313 0 .578.048.578.391v4.782c0 .39-.328.406-.656.406h-.25v.265h3.39c.485 0 .907-.046 1.344-.265.5-.266.907-.781.907-1.375 0-.953-.97-1.438-1.782-1.547.157-.047.329-.094.47-.14.53-.22 1.046-.657 1.046-1.298 0-.578-.469-1.046-.969-1.265-.437-.203-.906-.235-1.375-.235Zm1.656 3.062H3.25c.14 0 .281-.016.422-.016.89 0 1.453.656 1.453 1.422 0 .875-.734 1.39-1.578 1.39H2.375c-.234 0-.344-.109-.344-.343Zm0-.235V-5.53c0-.235.11-.328.344-.328h1.156c.625 0 1.36.28 1.36 1.25 0 .812-.782 1.312-1.5 1.312-.11 0-.22-.015-.329-.015Zm0 0"/></symbol><symbol overflow="visible" id="d"><path style="stroke:none" d="M5.422-5.547c-.25-.422-.984-.75-1.578-.781H3.75C1.969-6.328.516-4.86.516-3.078v.156c.109 1.75 1.5 3.11 3.203 3.11 1.234 0 2.422-.985 2.422-2.282v-.078c-.016-.062-.079-.094-.141-.094-.078 0-.11.063-.11.141v.063c-.093.921-.75 1.968-2.062 1.968-.703 0-1.406-.36-1.844-.922-.437-.578-.562-1.421-.562-2.109 0-.89.234-1.766.906-2.375.39-.344.938-.547 1.469-.547 1.156 0 1.86 1 2.031 2 .016.125 0 .281.156.281.125 0 .157-.062.157-.14v-2.219c0-.094 0-.203-.11-.203-.156 0-.406.531-.61.781Zm0 0"/></symbol><symbol overflow="visible" id="e"><path style="stroke:none" d="M.953-3.86H.25v.266h.703v2.969c0 .313-.25.344-.547.344h-.14v.265L.922-.03h.734l.625.015V-.28h-.203c-.25 0-.484-.031-.484-.344v-2.969h1.922v2.969c0 .313-.266.344-.563.344h-.125v.265l.625-.015h.735l.656.015V-.28h-.219c-.25 0-.469-.047-.469-.36v-5.593c-.11.015-.218.046-.328.046h-.031c-.063 0-.172-.062-.235-.078a1.613 1.613 0 0 0-.468-.062h-.156c-.922 0-1.985.469-1.985 1.469Zm2.563 0H1.562v-.968c0-.656.422-1.281 1.375-1.281.204 0 .376.03.579.062-.125.094-.204.203-.204.36 0 .218.188.265.204.406.015.047.015.11.015.156 0 .11-.015.219-.015.313Zm0 0"/></symbol><symbol overflow="visible" id="f"><path style="stroke:none" d="M.313-3.86v.266H.39c.25 0 .593.031.593.281.016.11.016.188.016.297v1.782c0 .28.016.53.14.78.266.438.813.548 1.282.548.5 0 .984-.297 1.14-.766l.016.766 1.328-.11V-.28H4.75c-.266 0-.531-.031-.531-.438v-3.25l-1.36.11v.265h.125c.282 0 .563.031.563.453v1.766C3.5-.797 3.14-.141 2.453-.141c-.36 0-.687-.078-.765-.546-.016-.172-.016-.329-.016-.5V-3.97Zm0 0"/></symbol><symbol overflow="visible" id="g"><path style="stroke:none" d="M.172-3.86v.266h.172c.453 0 .594.188.797.453.171.235.359.454.546.688l.329.406c.03.047.093.11.093.156 0 .094-.265.36-.406.532C1.281-.83.875-.281.125-.281v.265L.578-.03h1.156v-.25C1.563-.328 1.5-.421 1.5-.562c0-.204.156-.36.297-.5.156-.204.344-.407.5-.61h.015c.22.328.516.64.75.969.047.047.126.125.126.203 0 .125-.188.203-.313.219v.265h1.86V-.28h-.173c-.453 0-.609-.188-.812-.469-.328-.39-.625-.797-.953-1.203-.031-.031-.11-.094-.11-.156 0-.094.25-.344.376-.485.437-.531.812-1 1.515-1v-.265l-.469.015H2.953v.25c.156 0 .235.156.235.281 0 .188-.126.297-.22.422-.155.188-.327.375-.452.563H2.5c-.219-.328-.578-.625-.75-.953-.016-.031-.031-.063-.031-.094 0-.125.187-.203.312-.219v-.265Zm0 0"/></symbol><symbol overflow="visible" id="h"><path style="stroke:none" d="M1.36-5.531c0 .656-.298 1.718-1.188 1.718v.22h.781v2.374c0 .282.016.547.156.782.22.39.672.53 1.079.53h.078c.687-.124.796-.859.796-1.39v-.328h-.25c0 .125.016.25.016.39 0 .391-.094 1.079-.625 1.079-.484 0-.594-.563-.594-1.016v-2.422h1.313v-.265H1.609v-1.672Zm0 0"/></symbol><symbol overflow="visible" id="i"><path style="stroke:none" d="M.313-6.14v.28h.156c.281 0 .531.032.531.47v4.515c0 .063.016.125.016.203 0 .375-.266.39-.641.39H.312v.266L.954-.03H2.36v-.25h-.203c-.265 0-.484-.047-.484-.375v-1.61c0-.687.406-1.468 1.25-1.468.484 0 .625.437.625 1v2.109c0 .313-.25.344-.547.344h-.14v.265L3.5-.03h1.406v-.25h-.172c-.265 0-.515-.031-.515-.36v-2.015c0-.281-.016-.547-.14-.781-.22-.407-.673-.532-1.095-.532-.515 0-1.125.297-1.328.844l-.015-3.11Zm0 0"/></symbol><symbol overflow="visible" id="j"><path style="stroke:none" d="M1.031-2.063h2.657c.109 0 .156-.046.156-.156 0-1.125-.703-1.797-1.64-1.797-1.095 0-1.954.954-1.954 2.047C.25-.875 1.125.094 2.344.094c.64 0 1.281-.453 1.469-1.078.015-.016.015-.063.015-.094a.107.107 0 0 0-.11-.11c-.171 0-.171.266-.265.391-.219.375-.656.64-1.094.64h-.062C1.828-.171 1.422-.5 1.219-.921c-.172-.36-.188-.75-.188-1.14Zm.016-.218c0-.594.25-1.281.906-1.485a.914.914 0 0 1 .203-.03c.781 0 1.063.796 1.063 1.515Zm0 0"/></symbol><symbol overflow="visible" id="k"><path style="stroke:none" d="M.266-3.86v.266h.14c.281 0 .547.031.547.453v2.485c0 .36-.234.375-.687.375v.265L.89-.03h1.562v-.25h-.297c-.312 0-.562-.047-.562-.375v-1.516c.062-.625.234-1.562 1.14-1.562-.125.062-.171.203-.171.328a.39.39 0 1 0 .78 0c0-.375-.359-.563-.687-.563-.547 0-.984.469-1.11.969v-.969Zm0 0"/></symbol><symbol overflow="visible" id="l"><path style="stroke:none" d="M.313-3.86v.266h.14c.266 0 .547.031.547.453v2.485c0 .36-.234.375-.688.375v.265L.954-.03H2.36v-.25h-.203c-.265 0-.484-.047-.484-.375v-1.797c.047-.64.484-1.281 1.25-1.281.578 0 .64.578.64 1v2.109c0 .313-.265.344-.562.344h-.125v.265L3.5-.03h1.422v-.25h-.219c-.25 0-.484-.047-.484-.375v-1.797c.062-.64.484-1.281 1.265-1.281.563 0 .625.578.625 1v2.109c0 .313-.25.344-.546.344h-.141v.265h2.047V-.28h-.172c-.25 0-.516-.031-.516-.36v-2.015c0-.281-.015-.547-.14-.781-.235-.422-.704-.532-1.141-.532-.547 0-1.11.36-1.297.86h-.016c-.078-.625-.656-.86-1.203-.86-.578 0-1.14.328-1.359.89l-.016-.89Zm0 0"/></symbol><symbol overflow="visible" id="m"><path style="stroke:none" d="M.36-3.86v.266H.5c.297 0 .516.047.516.453v2.485c0 .36-.25.375-.688.375v.265h1.938V-.28h-.141c-.234 0-.469-.031-.469-.313v-3.375Zm.765-2.156c-.234.047-.422.235-.422.485s.219.468.485.468h.062a.474.474 0 0 0 .422-.468.477.477 0 0 0-.484-.485Zm0 0"/></symbol><symbol overflow="visible" id="n"><path style="stroke:none" d="M3.484-.531v1.625c0 .328-.187.36-.687.36v.28l.64-.03h1.407v-.25h-.188c-.281 0-.5-.032-.5-.376v-5.047l-.218.016-.11.203-.234.578c-.094-.11-.156-.234-.235-.328a1.316 1.316 0 0 0-1.03-.469c-1.079 0-2.017.906-2.017 2.016 0 1.047.813 2.047 1.954 2.047.453 0 .984-.235 1.218-.625ZM1.078-1.797v-.11c0-.734.39-1.765 1.297-1.812h.031c.578 0 1.016.563 1.11 1.094v1.406c0 .735-.922 1.078-1.204 1.078h-.046C1.609-.188 1.25-.859 1.14-1.42c-.032-.126-.032-.25-.063-.376Zm0 0"/></symbol><symbol overflow="visible" id="o"><path style="stroke:none" d="M8.469-5.078a1.52 1.52 0 0 1 .156-.234c.328-.485.656-.516.906-.532.11-.015.11-.156.11-.172 0-.046-.032-.109-.11-.109-.047 0-.219.031-.719.031-.296 0-.609-.031-.906-.031-.047 0-.172 0-.172.156 0 .11.11.125.141.125.125 0 .516.016.516.344 0 .063-.016.14-.125.328L5.828-1l-.39-4.563c0-.093.093-.28.656-.28.11 0 .218 0 .218-.173 0-.078-.062-.109-.14-.109-.25 0-.844.031-1.094.031-.328 0-.344 0-.484-.015-.125 0-.36-.016-.469-.016-.047 0-.156 0-.156.156 0 .125.094.125.203.125.406 0 .453.063.469.203 0 .047.046.594.046.625 0 .032 0 .063-.062.157L2.375-1 2-5.422c-.016-.172-.031-.422.625-.422.125 0 .234 0 .234-.172 0-.093-.109-.109-.14-.109-.156 0-.344.016-.516.016-.187 0-.375.015-.562.015-.157 0-.391 0-.5-.015-.079 0-.391-.016-.454-.016-.046 0-.171 0-.171.156 0 .125.109.125.203.125.453 0 .469.063.484.313l.453 5.5c.016.156.016.234.157.234.125 0 .156-.062.234-.187l2.687-4.594.375 4.531c0 .156.016.25.157.25.03 0 .14 0 .234-.187Zm0 0"/></symbol><symbol overflow="visible" id="p"><path style="stroke:none" d="M.36-5.453v.266c.093 0 .187-.016.28-.016.282 0 .516.047.516.36v4.218c0 .328-.25.36-.531.36H.359v.25h4.329l.234-2.063h-.25c-.063.703-.172 1.531-1.14 1.75-.235.062-.485.062-.72.062h-.624c-.157 0-.297-.046-.297-.28v-4.298c0-.312.296-.343.562-.343h.438v-.266Zm0 0"/></symbol><symbol overflow="visible" id="q"><path style="stroke:none" d="M1.984-3.547c-.906.094-1.75.75-1.75 1.875 0 1.078.985 1.75 1.907 1.75C3.062.078 4-.64 4-1.688c0-1.03-.86-1.859-1.906-1.859Zm-1.046 2v-.203c0-.422.03-.969.375-1.281.218-.203.515-.297.812-.297.813 0 1.156.672 1.156 1.5 0 .437-.015.922-.312 1.281-.219.25-.531.375-.86.375-.593 0-1.046-.422-1.14-1.047-.016-.11-.016-.218-.031-.328Zm0 0"/></symbol><symbol overflow="visible" id="r"><path style="stroke:none" d="M2.922-3.172c-.156.063-.25.188-.25.344 0 .234.172.375.422.375.219 0 .328-.203.328-.375 0-.578-.688-.688-1.172-.719h-.094c-1.031 0-1.875.797-1.875 1.828 0 .985.828 1.797 1.844 1.797.563 0 1.11-.297 1.328-.844.016-.062.063-.125.063-.187 0-.078-.047-.11-.11-.11-.156 0-.125.172-.234.313-.188.36-.547.578-.953.578C1.39-.172.984-.953.984-1.766c0-.64.266-1.546 1.188-1.546.219 0 .531.015.75.14Zm0 0"/></symbol><symbol overflow="visible" id="s"><path style="stroke:none" d="M1.063-3.125v-.016c.265-.125.484-.187.78-.187.532 0 .891.406.891 1.015v.188c-.984 0-2.39.313-2.39 1.313 0 .671.812.89 1.328.89.453 0 .937-.203 1.156-.656 0 .344.281.61.61.61.406 0 .734-.298.734-.72v-.468h-.25v.39c0 .204-.031.5-.281.5s-.282-.296-.282-.468v-1.641c0-.797-.812-1.172-1.515-1.172-.422 0-1.235.125-1.235.766 0 .172.11.375.344.375.266 0 .406-.156.406-.36 0-.171-.093-.328-.296-.359Zm1.671 1.203v.781c0 .563-.421.985-.968.985-.36 0-.735-.235-.766-.61v-.046c0-.86 1.078-1.063 1.734-1.11Zm0 0"/></symbol><symbol overflow="visible" id="t"><path style="stroke:none" d="M.328-5.453v.266h.11c.25 0 .5.015.5.421v4.157c0 .328-.25.343-.532.343H.328v.25L.812-.03h.829l.484.015v-.25h-.188c-.218 0-.421-.03-.421-.312v-4.953Zm0 0"/></symbol><symbol overflow="visible" id="u"><path style="stroke:none" d="M1.063-3.125v-.016c.265-.125.484-.187.78-.187.532 0 .891.406.891 1.015v.188c-.984 0-2.39.313-2.39 1.313 0 .671.812.89 1.328.89.453 0 .937-.203 1.156-.656 0 .344.281.61.61.61.406 0 .734-.298.734-.72v-.468h-.25v.39c0 .204-.031.5-.281.5s-.282-.296-.282-.468v-1.641c0-.797-.812-1.172-1.515-1.172-.422 0-1.235.125-1.235.766 0 .172.11.375.344.375.266 0 .406-.156.406-.36 0-.171-.093-.328-.296-.359Zm1.671 1.203v.781c0 .563-.421.985-.968.985-.36 0-.735-.235-.766-.61v-.046c0-.86 1.078-1.063 1.734-1.11Zm.016-1.984c.031-.063.125-.156.125-.188 0-.062-.188-.203-.281-.281-.203-.203-.406-.406-.625-.594-.094-.093-.188-.203-.328-.218h-.016c-.172 0-.313.171-.313.328 0 .218.22.296.375.375l.438.25c.203.093.422.265.625.328Zm0 0"/></symbol><symbol overflow="visible" id="v"><path style="stroke:none" d="M.266-3.422v.266H.39c.25 0 .484.015.484.39v2.157c0 .328-.203.343-.61.343v.25L.75-.03h.906l.563.015v-.25h-.281c-.25 0-.47-.03-.47-.328v-1.328c0-.578.313-1.375 1-1.375A.427.427 0 0 0 2.345-3c0 .219.187.36.36.36.202 0 .358-.172.358-.36 0-.344-.343-.516-.624-.516-.47 0-.938.422-1.016.844l-.016-.844-.39.032Zm0 0"/></symbol><symbol overflow="visible" id="w"><path style="stroke:none" d="M.938-1.828h2.437c.094 0 .14-.047.14-.14 0-.407-.109-.876-.406-1.157-.28-.297-.671-.422-1.078-.422-.937 0-1.797.703-1.797 1.781C.234-.859.954.078 2.11.078c.594 0 1.235-.375 1.391-.969.016-.015.016-.046.016-.062 0-.063-.047-.125-.11-.125-.156 0-.172.25-.25.36a1.175 1.175 0 0 1-.984.53c-.422 0-.828-.218-1.047-.609-.156-.312-.188-.672-.188-1.031Zm.015-.219c.078-.453.156-.937.625-1.172a.867.867 0 0 1 .438-.11c.515 0 .859.423.937 1 .016.095.016.188.031.282Zm.281-1.86c.204-.062.422-.234.625-.327l.438-.25c.156-.079.375-.157.375-.375 0-.157-.14-.329-.313-.329h-.015c-.25.016-.781.657-1.14.985-.032.031-.095.062-.095.11 0 .03.079.124.125.187Zm0 0"/></symbol><symbol overflow="visible" id="x"><path style="stroke:none" d="M.938-3.438H.28v.266h.656v2.61c0 .28-.25.296-.5.296H.329v.25L.812-.03h.907l.562.015v-.25h-.25c-.328 0-.515-.03-.515-.359v-2.547h.968v-.265H1.5v-.735c0-.516.156-1.219.75-1.219.063 0 .156.016.219.032a.367.367 0 0 0 .172.687.37.37 0 0 0 .375-.375c0-.39-.422-.578-.75-.578-.75 0-1.329.547-1.329 1.36Zm0 0"/></symbol><symbol overflow="visible" id="y"><path style="stroke:none" d="M.36-3.422v.266h.124c.25 0 .454.047.454.39v2.157c0 .328-.22.343-.61.343v.25L.812-.03h.813l.438.015v-.25h-.11c-.234 0-.437-.015-.437-.296v-2.954l-.282.032Zm.687-1.922a.45.45 0 0 0-.39.438c0 .218.187.437.437.437a.453.453 0 0 0 .453-.453.446.446 0 0 0-.438-.437c-.015 0-.046.015-.062.015Zm0 0"/></symbol><symbol overflow="visible" id="z"><path style="stroke:none" d="M.969-.172C.609-.109.234.218.234.61c0 .829 1.313 1.016 1.875 1.016C2.766 1.625 4 1.422 4 .594c0-1-1.063-1.156-1.86-1.156h-.687c-.312 0-.516-.25-.516-.532v-.031c.016-.11.047-.25.125-.266.032 0 .11.047.157.079a1.6 1.6 0 0 0 .656.14c.64 0 1.375-.422 1.375-1.156a1.07 1.07 0 0 0-.219-.656c-.031-.032-.078-.079-.078-.11 0-.125.469-.281.735-.281a.259.259 0 0 0-.079.188c0 .14.11.25.25.25.141 0 .25-.11.25-.25 0-.266-.234-.422-.468-.422-.282 0-.61.14-.782.296-.015.016-.046.047-.093.047H2.75c-.031 0-.094-.046-.156-.078a1.609 1.609 0 0 0-.703-.172c-.641 0-1.375.422-1.375 1.172 0 .25.093.516.265.703.031.032.078.079.078.11v.015c0 .063-.14.22-.171.344A.885.885 0 0 0 .64-.89c0 .313.109.454.328.72ZM.703.656V.594c0-.438.453-.625.828-.625h.61c.593 0 1.296.047 1.375.594v.046c0 .313-.375.563-.594.641a2.2 2.2 0 0 1-.828.14c-.516 0-1.328-.218-1.39-.734Zm.438-2.86v-.093c0-.453.14-.984.734-.984.5 0 .75.422.75.969 0 .468-.219.906-.75.906a.711.711 0 0 1-.547-.266c-.14-.156-.172-.344-.187-.531Zm0 0"/></symbol><symbol overflow="visible" id="A"><path style="stroke:none" d="M.938-1.828h2.437c.094 0 .14-.047.14-.14 0-.407-.109-.876-.406-1.157-.28-.297-.671-.422-1.078-.422-.937 0-1.797.703-1.797 1.781C.234-.859.954.078 2.11.078c.594 0 1.235-.375 1.391-.969.016-.015.016-.046.016-.062 0-.063-.047-.125-.11-.125-.156 0-.172.25-.25.36a1.175 1.175 0 0 1-.984.53c-.422 0-.828-.218-1.047-.609-.156-.312-.188-.672-.188-1.031Zm.015-.219c.078-.453.156-.937.625-1.172a.867.867 0 0 1 .438-.11c.515 0 .859.423.937 1 .016.095.016.188.031.282Zm0 0"/></symbol><symbol overflow="visible" id="B"><path style="stroke:none" d="M.313-3.422v.266h.156c.234 0 .453.031.453.39v2.157c0 .328-.203.343-.61.343v.25l.5-.015h.829l.5.015v-.25h-.172c-.235 0-.438-.03-.438-.328v-1.469c0-.578.375-1.234 1.157-1.234.453 0 .593.39.593.875v1.844c0 .281-.219.312-.453.312h-.156v.25l.5-.015h.844l.484.015v-.25h-.172c-.25 0-.437-.03-.437-.328v-1.469c0-.578.375-1.234 1.156-1.234.453 0 .578.39.578.875v1.844c0 .281-.219.312-.453.312h-.156v.25l.5-.015h.843l.485.015v-.25h-.14c-.235 0-.47-.03-.47-.312v-1.703c0-.266 0-.531-.125-.766-.187-.344-.609-.469-.984-.469-.484 0-1.078.235-1.266.735h-.015c-.063-.547-.625-.735-1.11-.735-.484 0-1.062.282-1.25.766v-.766l-.296.032Zm0 0"/></symbol><symbol overflow="visible" id="C"><path style="stroke:none" d="M.266-3.422v.266H.39c.25 0 .484.015.484.328V.953c0 .313-.219.328-.61.328v.25l.485-.015h.844l.5.015v-.25h-.188c-.218 0-.422-.031-.422-.328L1.5-.39c.172.297.672.47 1.047.47.969 0 1.875-.782 1.875-1.798 0-.89-.719-1.797-1.75-1.797-.453 0-.875.157-1.203.485v-.485Zm3.437 1.828C3.672-.954 3.25-.156 2.47-.156c-.406 0-.985-.39-.985-.75V-2.47c0-.453.594-.797 1.063-.797.797 0 1.156.922 1.156 1.547v.125Zm0 0"/></symbol><symbol overflow="visible" id="D"><path style="stroke:none" d="M.75-.266c.25.22.563.344.906.344.625 0 1.39-.234 1.39-1.125v-.062c-.03-.485-.421-.829-.858-.97-.454-.14-1.485-.093-1.485-.702 0-.469.61-.578.953-.578.485 0 .875.25.938.812 0 .063 0 .14.11.14.108 0 .14-.077.14-.171v-.86c0-.062-.047-.109-.125-.109-.14 0-.203.188-.297.188h-.016c-.125-.047-.234-.125-.375-.157-.125-.015-.234-.03-.36-.03-.577 0-1.39.155-1.39 1v.062c.016.28.203.484.422.656.625.406 1.828.14 1.922.953 0 .563-.5.719-.938.719-.609 0-1.03-.422-1.125-.969-.03-.094-.03-.203-.156-.203-.125 0-.125.078-.125.156v.969c0 .031-.015.078-.015.11 0 .077.03.171.109.171.078 0 .156-.094.188-.14L.609-.11C.656-.172.703-.22.75-.266Zm0 0"/></symbol><symbol overflow="visible" id="E"><path style="stroke:none" d="M.313-3.422v.266h.109c.203 0 .453.015.484.234.016.078.016.172.016.25v1.578c0 .235.015.469.125.672.234.39.734.5 1.125.5.375 0 .719-.125.937-.406a.714.714 0 0 0 .172-.25l.016.656 1.187-.094v-.25h-.156c-.219 0-.453-.03-.453-.39v-2.86l-1.219.094v.266h.094c.281 0 .516.015.516.39v1.36c0 .64-.344 1.25-1.032 1.25-.28 0-.64-.063-.687-.469-.016-.14-.016-.297-.016-.438v-2.453Zm0 0"/></symbol><symbol overflow="visible" id="F"><path style="stroke:none" d="M2.625-5.453v.266h.078c.313 0 .531.015.531.484v1.64c-.296-.28-.656-.453-1.078-.453-.984 0-1.875.766-1.875 1.797 0 .985.813 1.797 1.797 1.797.422 0 .844-.187 1.125-.515v.515l1.219-.094v-.25h-.125c-.234 0-.484-.03-.484-.406v-4.86ZM.985-1.547v-.11c0-.562.109-1.234.718-1.515.156-.078.344-.125.5-.125.36 0 .75.203.938.531.03.032.062.063.062.11v1.719c0 .406-.656.78-1.062.78-.594 0-1.016-.468-1.11-1.03-.015-.125-.031-.235-.047-.36Zm0 0"/></symbol><symbol overflow="visible" id="G"><path style="stroke:none" d="M1.234-4.906c0 .562-.265 1.515-1.078 1.515v.22h.719v2.062c0 .25.016.5.14.734.204.313.594.453.954.453.672 0 .843-.719.843-1.234v-.297h-.25c0 .11.016.219.016.344 0 .343-.094.937-.562.937-.438 0-.532-.469-.532-.86v-2.14h1.188v-.265H1.484v-1.47Zm0 0"/></symbol><symbol overflow="visible" id="H"><path style="stroke:none" d="M.313-3.422v.266h.156c.234 0 .453.031.453.39v2.157c0 .328-.203.343-.61.343v.25l.5-.015h.829l.5.015v-.25h-.172c-.235 0-.438-.03-.438-.328v-1.469c0-.593.39-1.234 1.157-1.234.453 0 .578.406.578.875v1.844c0 .281-.22.312-.438.312h-.172v.25l.5-.015H4l.484.015v-.25h-.156c-.234 0-.453-.03-.453-.312v-1.703c0-.266 0-.531-.125-.781-.203-.344-.625-.454-1-.454-.484 0-1.078.266-1.266.766v-.766l-.296.032Zm0 0"/></symbol><symbol overflow="visible" id="I"><path style="stroke:none" d="M-1.828-.938v-2.437c0-.094-.047-.14-.14-.14-.407 0-.876.109-1.157.406-.297.28-.422.671-.422 1.078 0 .937.703 1.797 1.781 1.797.907 0 1.844-.72 1.844-1.875 0-.594-.375-1.235-.969-1.391-.015-.016-.046-.016-.062-.016-.063 0-.125.047-.125.11 0 .156.25.172.36.25.327.203.53.594.53.984 0 .422-.218.828-.609 1.047-.312.156-.672.188-1.031.188Zm-.219-.015c-.453-.078-.937-.156-1.172-.625a.867.867 0 0 1-.11-.438c0-.515.423-.859 1-.937.095-.016.188-.016.282-.031Zm-1.86-.281c-.062-.204-.234-.422-.327-.625l-.25-.438c-.079-.156-.157-.375-.375-.375-.157 0-.329.14-.329.313v.015c.016.25.657.781.985 1.14.031.032.062.095.11.095.03 0 .124-.079.187-.125Zm0 0"/></symbol><symbol overflow="visible" id="J"><path style="stroke:none" d="M-3.438-.172h.266v-.125c0-.437.203-.469.75-.719.75-.328 1.516-.656 2.266-.984.11-.047.234-.094.234-.234 0-.125-.11-.188-.219-.235-.765-.297-1.562-.656-2.328-1-.406-.187-.703-.375-.703-.812h-.265l.03.312v.594l-.03.406h.265c.016-.172.11-.328.281-.36h.032c.187 0 .39.126.562.204.406.188.813.36 1.203.531.14.047.282.11.422.172-.703.297-1.406.61-2.11.922-.062.031-.124.063-.187.063H-3c-.156-.032-.172-.266-.172-.422h-.265l.03.5v.78Zm0 0"/></symbol><symbol overflow="visible" id="K"><path style="stroke:none" d="M-3.125-1.063h-.016a1.694 1.694 0 0 1-.187-.78c0-.532.406-.891 1.015-.891h.188c0 .984.313 2.39 1.313 2.39.671 0 .89-.812.89-1.328 0-.453-.203-.937-.656-1.156a.61.61 0 0 0 .61-.61c0-.406-.298-.734-.72-.734h-.468v.25h.39c.204 0 .5.031.5.281s-.296.282-.468.282h-1.641c-.797 0-1.172.812-1.172 1.515 0 .422.125 1.235.766 1.235.172 0 .375-.11.375-.344 0-.266-.156-.406-.36-.406-.171 0-.328.093-.359.296Zm1.203-1.671h.781c.563 0 .985.421.985.968 0 .36-.235.735-.61.766h-.046c-.86 0-1.063-1.078-1.11-1.734Zm0 0"/></symbol><symbol overflow="visible" id="L"><path style="stroke:none" d="M-3.422-.266h.266V-.39c0-.25.015-.484.328-.484H.953c.313 0 .328.219.328.61h.25L1.516-.75v-.844l.015-.5h-.25v.188c0 .218-.031.422-.328.422L-.39-1.5c.297-.172.47-.672.47-1.047 0-.969-.782-1.875-1.798-1.875-.89 0-1.797.719-1.797 1.75 0 .453.157.875.485 1.203h-.485Zm1.828-3.437c.64.031 1.438.453 1.438 1.234 0 .406-.39.985-.75.985H-2.47c-.453 0-.797-.594-.797-1.063 0-.797.922-1.156 1.547-1.156h.125Zm0 0"/></symbol><symbol overflow="visible" id="M"><path style="stroke:none" d="M-3.547-1.984c.094.906.75 1.75 1.875 1.75 1.078 0 1.75-.985 1.75-1.907C.078-3.062-.64-4-1.688-4c-1.03 0-1.859.86-1.859 1.906Zm2 1.046h-.203c-.422 0-.969-.03-1.281-.375a1.187 1.187 0 0 1-.297-.812c0-.813.672-1.156 1.5-1.156.437 0 .922.015 1.281.312.25.219.375.531.375.86 0 .593-.422 1.046-1.047 1.14-.11.016-.218.016-.328.031Zm0 0"/></symbol><symbol overflow="visible" id="N"><path style="stroke:none" d="M-3.422-.266h.266V-.39c0-.25.015-.484.39-.484h2.157c.328 0 .343.203.343.61h.25L-.03-.75v-.906l.015-.563h-.25v.281c0 .25-.03.47-.328.47h-1.328c-.578 0-1.375-.313-1.375-1A.427.427 0 0 0-3-2.345c.219 0 .36-.187.36-.36A.363.363 0 0 0-3-3.061c-.344 0-.516.343-.516.624 0 .47.422.938.844 1.016l-.844.016.032.39Zm0 0"/></symbol><symbol overflow="visible" id="O"><path style="stroke:none" d="M-4.906-1.234c.562 0 1.515.265 1.515 1.078h.22v-.719h2.062c.25 0 .5-.016.734-.14.313-.204.453-.594.453-.954 0-.672-.719-.843-1.234-.843h-.297v.25c.11 0 .219-.016.344-.016.343 0 .937.094.937.562 0 .438-.469.532-.86.532h-2.14v-1.188h-.265v1.188h-1.47Zm0 0"/></symbol><symbol overflow="visible" id="P"><path style="stroke:none" d="M-1.828-.938v-2.437c0-.094-.047-.14-.14-.14-.407 0-.876.109-1.157.406-.297.28-.422.671-.422 1.078 0 .937.703 1.797 1.781 1.797.907 0 1.844-.72 1.844-1.875 0-.594-.375-1.235-.969-1.391-.015-.016-.046-.016-.062-.016-.063 0-.125.047-.125.11 0 .156.25.172.36.25.327.203.53.594.53.984 0 .422-.218.828-.609 1.047-.312.156-.672.188-1.031.188Zm-.219-.015c-.453-.078-.937-.156-1.172-.625a.867.867 0 0 1-.11-.438c0-.515.423-.859 1-.937.095-.016.188-.016.282-.031Zm0 0"/></symbol><symbol overflow="visible" id="Q"><path style="stroke:none" d="M-3.422-.313h.266v-.109c0-.203.015-.453.234-.484.078-.016.172-.016.25-.016h1.578c.235 0 .469-.015.672-.125.39-.234.5-.734.5-1.125 0-.375-.125-.719-.406-.937a.714.714 0 0 0-.25-.172l.656-.016-.094-1.187h-.25v.156c0 .219-.03.453-.39.453h-2.86l.094 1.219h.266v-.094c0-.281.015-.516.39-.516h1.36c.64 0 1.25.344 1.25 1.032 0 .28-.063.64-.469.687-.14.016-.297.016-.438.016h-2.453Zm0 0"/></symbol><symbol overflow="visible" id="R"><path style="stroke:none" d="M-3.172-2.922c.063.156.188.25.344.25.234 0 .375-.172.375-.422 0-.219-.203-.328-.375-.328-.578 0-.688.688-.719 1.172v.094c0 1.031.797 1.875 1.828 1.875.985 0 1.797-.828 1.797-1.844 0-.563-.297-1.11-.844-1.328-.062-.016-.125-.063-.187-.063-.078 0-.11.047-.11.11 0 .156.172.125.313.234.36.188.578.547.578.953 0 .828-.781 1.235-1.594 1.235-.64 0-1.546-.266-1.546-1.188 0-.219.015-.531.14-.75Zm0 0"/></symbol><symbol overflow="visible" id="S"><path style="stroke:none" d="M-3.422-.313h.266v-.156c0-.234.031-.453.39-.453h2.157c.328 0 .343.203.343.61h.25l-.015-.5v-.829l.015-.5h-.25v.172c0 .235-.03.438-.328.438h-1.469c-.593 0-1.234-.39-1.234-1.157 0-.453.406-.578.875-.578h1.844c.281 0 .312.22.312.438v.172h.25l-.015-.5V-4l.015-.484h-.25v.156c0 .234-.03.453-.312.453h-1.703c-.266 0-.531 0-.781.125-.344.203-.454.625-.454 1 0 .484.266 1.078.766 1.266h-.766l.032.296Zm0 0"/></symbol><symbol overflow="visible" id="T"><path style="stroke:none" d="M-5.453-2.625h.266v-.078c0-.313.015-.531.484-.531h1.64c-.28.296-.453.656-.453 1.078 0 .984.766 1.875 1.797 1.875.985 0 1.797-.813 1.797-1.797 0-.422-.187-.844-.515-1.125h.515l-.094-1.219h-.25v.125c0 .234-.03.484-.406.484h-4.86Zm3.906 1.64h-.11c-.562 0-1.234-.109-1.515-.718a1.182 1.182 0 0 1-.125-.5c0-.36.203-.75.531-.938.032-.03.063-.062.11-.062h1.719c.406 0 .78.656.78 1.062 0 .594-.468 1.016-1.03 1.11-.125.015-.235.031-.36.047Zm0 0"/></symbol><symbol overflow="visible" id="U"><path style="stroke:none" d="M-.266-.75c.22-.25.344-.563.344-.906 0-.625-.234-1.39-1.125-1.39h-.062c-.485.03-.829.421-.97.858-.14.454-.093 1.485-.702 1.485-.469 0-.578-.61-.578-.953 0-.485.25-.875.812-.938.063 0 .14 0 .14-.11 0-.108-.077-.14-.171-.14h-.86c-.062 0-.109.047-.109.125 0 .14.188.203.188.297v.016c-.047.125-.125.234-.157.375-.015.125-.03.234-.03.36 0 .577.155 1.39 1 1.39h.062c.28-.016.484-.203.656-.422.406-.625.14-1.828.953-1.922.563 0 .719.5.719.938 0 .609-.422 1.03-.969 1.125-.094.03-.203.03-.203.156 0 .125.078.125.156.125h.969c.031 0 .078.015.11.015.077 0 .171-.03.171-.109 0-.078-.094-.156-.14-.188L-.11-.609C-.172-.656-.22-.703-.266-.75Zm0 0"/></symbol></defs><path style="fill-rule:nonzero;fill:#ffe6bf;fill-opacity:1;stroke-width:.3985;stroke-linecap:butt;stroke-linejoin:miter;stroke:#000;stroke-opacity:1;stroke-dasharray:2.98883,2.98883;stroke-miterlimit:10" d="M-56.693-42.521v85.043h-113.386v-85.043Zm0 0" transform="matrix(1 0 0 -1 175.259 62.471)"/><path style="fill:none;stroke-width:1.19553;stroke-linecap:butt;stroke-linejoin:miter;stroke:#000;stroke-opacity:1;stroke-miterlimit:10" d="M-.001-28.345h-85.04v56.691H0" transform="matrix(1 0 0 -1 175.259 62.471)"/><path style="stroke:none;fill-rule:nonzero;fill:#000;fill-opacity:1" d="m118.566 90.816 5.102 2.551-1.914-2.55 1.914-2.551"/><use xlink:href="#a" x="86.701" y="98.985" style="fill:#000;fill-opacity:1"/><use xlink:href="#b" x="86.766" y="32.132" style="fill:#000;fill-opacity:1"/><path style="fill:none;stroke-width:1.19553;stroke-linecap:butt;stroke-linejoin:miter;stroke:#000;stroke-opacity:1;stroke-miterlimit:10" d="M-.001 28.346h85.043v-56.691H-.001" transform="matrix(1 0 0 -1 175.259 62.471)"/><path style="stroke:none;fill-rule:nonzero;fill:#000;fill-opacity:1" d="m231.953 34.125-5.101-2.55 1.914 2.55-1.914 2.55"/><use xlink:href="#c" x="257.036" y="32.132" style="fill:#000;fill-opacity:1"/><use xlink:href="#d" x="256.972" y="98.985" style="fill:#000;fill-opacity:1"/><path style="stroke:none;fill-rule:nonzero;fill:#bfbfbf;fill-opacity:1" d="M80.254 76.645V48.297h19.926v28.348Zm0 0"/><path style="fill:none;stroke-width:.79701;stroke-linecap:butt;stroke-linejoin:miter;stroke:#000;stroke-opacity:1;stroke-miterlimit:10" d="m-85.04-14.174-2.492 2.493 4.984 4.98-4.984 4.98 4.984 4.981-4.984 4.984 2.492 2.489v3.441" transform="matrix(1 0 0 -1 175.259 62.471)"/><path style="fill:none;stroke-width:1.59404;stroke-linecap:butt;stroke-linejoin:miter;stroke:#00adef;stroke-opacity:1;stroke-miterlimit:10" d="M-113.388-.002H-103" transform="matrix(1 0 0 -1 175.259 62.471)"/><path style="stroke:none;fill-rule:nonzero;fill:#00adef;fill-opacity:1" d="m76.047 62.473-6.059-3.032 2.27 3.032-2.27 3.027"/><g style="fill:#00adef;fill-opacity:1"><use xlink:href="#e" x="31.972" y="60.204"/><use xlink:href="#f" x="37.09" y="60.204"/><use xlink:href="#g" x="42.208" y="60.204"/></g><g style="fill:#00adef;fill-opacity:1"><use xlink:href="#h" x="19.162" y="69.17"/><use xlink:href="#i" x="22.745" y="69.17"/><use xlink:href="#j" x="27.863" y="69.17"/><use xlink:href="#k" x="31.962" y="69.17"/><use xlink:href="#l" x="35.565" y="69.17"/><use xlink:href="#m" x="43.243" y="69.17"/><use xlink:href="#n" x="45.802" y="69.17"/><use xlink:href="#f" x="50.665" y="69.17"/><use xlink:href="#j" x="55.783" y="69.17"/></g><path style="stroke:none;fill-rule:nonzero;fill:#bfbfbf;fill-opacity:1" d="M250.336 76.645V48.297h19.926v28.348Zm0 0"/><path style="fill:none;stroke-width:.79701;stroke-linecap:butt;stroke-linejoin:miter;stroke:#000;stroke-opacity:1;stroke-miterlimit:10" d="M85.042-14.174 82.55-11.68l4.98 4.98-4.98 4.98 4.98 4.981-4.98 4.984 2.492 2.489v3.441" transform="matrix(1 0 0 -1 175.259 62.471)"/><path style="fill:none;stroke-width:1.59404;stroke-linecap:butt;stroke-linejoin:miter;stroke:#00adef;stroke-opacity:1;stroke-miterlimit:10" d="M99.214-.002H109.6" transform="matrix(1 0 0 -1 175.259 62.471)"/><path style="stroke:none;fill-rule:nonzero;fill:#00adef;fill-opacity:1" d="m288.645 62.473-6.055-3.032 2.27 3.032-2.27 3.027"/><g style="fill:#00adef;fill-opacity:1"><use xlink:href="#e" x="303.447" y="60.204"/><use xlink:href="#f" x="308.565" y="60.204"/><use xlink:href="#g" x="313.683" y="60.204"/></g><g style="fill:#00adef;fill-opacity:1"><use xlink:href="#h" x="290.638" y="69.17"/><use xlink:href="#i" x="294.221" y="69.17"/><use xlink:href="#j" x="299.339" y="69.17"/><use xlink:href="#k" x="303.438" y="69.17"/><use xlink:href="#l" x="307.041" y="69.17"/><use xlink:href="#m" x="314.719" y="69.17"/><use xlink:href="#n" x="317.278" y="69.17"/><use xlink:href="#f" x="322.141" y="69.17"/><use xlink:href="#j" x="327.259" y="69.17"/></g><path style="stroke:none;fill-rule:nonzero;fill:#bfbfbf;fill-opacity:1" d="M165.297 44.086V24.16l19.926 3.988v11.954Zm0 0"/><path style="fill:none;stroke-width:1.59404;stroke-linecap:butt;stroke-linejoin:miter;stroke:#00adef;stroke-opacity:1;stroke-miterlimit:10" d="M-.001 56.694V39.22" transform="matrix(1 0 0 -1 175.259 62.471)"/><path style="stroke:none;fill-rule:nonzero;fill:#00adef;fill-opacity:1" d="m175.258 27.04 3.031-6.06-3.031 2.27-3.028-2.27"/><use xlink:href="#o" x="177.252" y="19.471" style="fill:#00adef;fill-opacity:1"/><path style="stroke:none;fill-rule:nonzero;fill:#bfbfbf;fill-opacity:1" d="M170.277 95.8v-9.964l9.965 9.965v-9.965Zm0 0"/><g style="fill:#000;fill-opacity:1"><use xlink:href="#p" x="15.882" y="27.433"/><use xlink:href="#q" x="21.169" y="27.433"/></g><g style="fill:#000;fill-opacity:1"><use xlink:href="#r" x="25.633" y="27.433"/><use xlink:href="#s" x="29.396" y="27.433"/><use xlink:href="#t" x="33.629" y="27.433"/></g><use xlink:href="#u" x="38.81" y="27.433" style="fill:#000;fill-opacity:1"/><g style="fill:#000;fill-opacity:1"><use xlink:href="#v" x="45.865" y="27.433"/><use xlink:href="#w" x="49.164" y="27.433"/><use xlink:href="#x" x="52.927" y="27.433"/><use xlink:href="#v" x="55.514" y="27.433"/><use xlink:href="#y" x="58.814" y="27.433"/></g><use xlink:href="#z" x="61.158" y="27.433" style="fill:#000;fill-opacity:1"/><g style="fill:#000;fill-opacity:1"><use xlink:href="#w" x="65.399" y="27.433"/><use xlink:href="#v" x="69.161" y="27.433"/></g><g style="fill:#000;fill-opacity:1"><use xlink:href="#A" x="72.453" y="27.433"/><use xlink:href="#v" x="76.216" y="27.433"/></g><g style="fill:#000;fill-opacity:1"><use xlink:href="#r" x="152.629" y="49.51"/><use xlink:href="#q" x="156.392" y="49.51"/><use xlink:href="#B" x="160.625" y="49.51"/><use xlink:href="#C" x="167.68" y="49.51"/><use xlink:href="#v" x="172.383" y="49.51"/><use xlink:href="#A" x="175.683" y="49.51"/><use xlink:href="#D" x="179.445" y="49.51"/><use xlink:href="#D" x="182.785" y="49.51"/><use xlink:href="#A" x="186.124" y="49.51"/><use xlink:href="#E" x="189.887" y="49.51"/><use xlink:href="#v" x="194.59" y="49.51"/></g><g style="fill:#000;fill-opacity:1"><use xlink:href="#F" x="156.912" y="103.28"/><use xlink:href="#w" x="161.615" y="103.28"/><use xlink:href="#G" x="165.378" y="103.28"/><use xlink:href="#A" x="168.67" y="103.28"/><use xlink:href="#H" x="172.433" y="103.28"/><use xlink:href="#F" x="177.136" y="103.28"/><use xlink:href="#A" x="181.839" y="103.28"/><use xlink:href="#E" x="185.602" y="103.28"/><use xlink:href="#v" x="190.305" y="103.28"/></g><g style="fill:#000;fill-opacity:1"><use xlink:href="#I" x="106.959" y="84.349"/><use xlink:href="#J" x="106.959" y="80.586"/></g><g style="fill:#000;fill-opacity:1"><use xlink:href="#K" x="106.959" y="76.589"/><use xlink:href="#L" x="106.959" y="72.356"/></g><g style="fill:#000;fill-opacity:1"><use xlink:href="#M" x="106.959" y="67.413"/><use xlink:href="#N" x="106.959" y="63.18"/><use xlink:href="#K" x="106.959" y="59.881"/><use xlink:href="#O" x="106.959" y="55.648"/><use xlink:href="#P" x="106.959" y="52.355"/><use xlink:href="#Q" x="106.959" y="48.593"/><use xlink:href="#N" x="106.959" y="43.89"/></g><g style="fill:#000;fill-opacity:1"><use xlink:href="#R" x="248.099" y="82.958"/><use xlink:href="#M" x="248.099" y="79.195"/><use xlink:href="#S" x="248.099" y="74.962"/><use xlink:href="#T" x="248.099" y="70.259"/><use xlink:href="#P" x="248.099" y="65.556"/><use xlink:href="#S" x="248.099" y="61.793"/><use xlink:href="#U" x="248.099" y="57.09"/><use xlink:href="#P" x="248.099" y="53.751"/><use xlink:href="#Q" x="248.099" y="49.988"/><use xlink:href="#N" x="248.099" y="45.285"/></g></svg>