<svg xmlns="http://www.w3.org/2000/svg" xmlns:xlink="http://www.w3.org/1999/xlink" width="329.551" height="220.383" viewBox="0 0 247.163 165.287"><defs><symbol overflow="visible" id="a"><path style="stroke:none" d="M4.25-2.875c0-.594-.031-1.375-.344-2.047-.406-.844-1.078-1.047-1.594-1.047-.546 0-1.234.203-1.624 1.078-.282.61-.329 1.344-.329 2.016 0 .594.016 1.453.407 2.172.421.75 1.125.906 1.53.906.579 0 1.25-.25 1.626-1.078.265-.61.328-1.281.328-2ZM2.312-.031c-.28 0-.921-.125-1.093-1.14-.094-.516-.094-1.298-.094-1.813 0-.61 0-1.313.11-1.813.187-.797.75-.953 1.062-.953.344 0 .906.188 1.078 1.016.094.484.094 1.187.094 1.75 0 .562 0 1.312-.094 1.843C3.187-.109 2.531-.03 2.312-.03Zm0 0"/></symbol><symbol overflow="visible" id="b"><path style="stroke:none" d="M.938-3.094c0 .156 0 .266.125.266.062 0 .093-.047.14-.125a1.45 1.45 0 0 1 1.172-.594c.969 0 .969 1.39.969 1.703 0 .282 0 .844-.266 1.25-.234.375-.61.547-.969.547a1.456 1.456 0 0 1-1.343-1c.015 0 .062.016.125.016.187 0 .453-.11.453-.438 0-.281-.203-.437-.453-.437-.188 0-.438.11-.438.468 0 .813.688 1.641 1.688 1.641 1.078 0 2-.89 2-2 0-1.078-.766-1.969-1.75-1.969-.422 0-.86.141-1.188.47v-1.767c.281.079.563.125.828.125 1.11 0 1.75-.796 1.75-.921 0-.079-.047-.11-.094-.11-.015 0-.03 0-.124.047a3.488 3.488 0 0 1-1.204.234c-.39 0-.796-.078-1.203-.234-.093-.047-.11-.047-.11-.047-.109 0-.109.078-.109.235Zm0 0"/></symbol><symbol overflow="visible" id="c"><path style="stroke:none" d="M2.719-5.734c0-.22 0-.235-.219-.235-.563.563-1.39.563-1.672.563v.281c.172 0 .719 0 1.203-.234v4.64c0 .328-.015.438-.86.438h-.28V0c.312-.031 1.125-.031 1.484-.031.375 0 1.172 0 1.5.031v-.281h-.281c-.844 0-.875-.11-.875-.438Zm0 0"/></symbol><symbol overflow="visible" id="d"><path style="stroke:none" d="M4.14-1.594h-.25c-.015.125-.093.657-.203.797-.062.078-.671.078-.859.078H1.234l.891-.844c1.469-1.265 2.016-1.75 2.016-2.656 0-1.031-.844-1.75-1.954-1.75-1.03 0-1.734.813-1.734 1.625 0 .453.39.5.469.5.203 0 .469-.14.469-.469a.451.451 0 0 0-.47-.468c-.046 0-.062 0-.109.015.22-.64.797-.921 1.282-.921.906 0 1.219.843 1.219 1.468 0 .907-.688 1.657-1.11 2.125L.563-.328c-.11.11-.11.125-.11.328h3.438Zm0 0"/></symbol><symbol overflow="visible" id="y"><path style="stroke:none" d="M3.578-5.484c0-.36.14-.36.688-.36v-.281c-.594.031-.704.031-1.188.031-.36 0-1.156 0-1.469-.031v.281h.313c.844 0 .875.11.875.438v4.078c0 .828-.469 1.297-.938 1.297-.359 0-.78-.172-1-.5a.479.479 0 0 0 .547-.485.468.468 0 0 0-.484-.484c-.281 0-.485.188-.485.5 0 .656.625 1.203 1.454 1.203.75 0 1.546-.469 1.671-1.328.016-.078.016-.469.016-.703Zm0 0"/></symbol><symbol overflow="visible" id="z"><path style="stroke:none" d="M1.672-2.328c0-.969.703-1.406 1.234-1.406.5 0 .656.343.656.968v2.079c0 .406-.093.406-.687.406V0c.422-.016.594-.031 1.016-.031.437 0 .546.015 1.03.031v-.281c-.593 0-.702 0-.702-.406v-1.641c0-.969.703-1.406 1.25-1.406.484 0 .64.343.64.968v2.079c0 .406-.093.406-.687.406V0c.422-.016.594-.031 1.031-.031.422 0 .547.015 1.016.031v-.281c-.453 0-.672 0-.688-.281v-1.72c0-.78 0-1.03-.297-1.359-.187-.218-.546-.328-.953-.328-.656 0-1.093.375-1.343.86-.11-.532-.47-.86-1.22-.86-.718 0-1.155.469-1.343.89h-.016v-.89l-1.296.11v.265c.609 0 .687.063.687.516v2.39C1-.28.906-.28.312-.28V0c.422-.016.594-.031 1.032-.031.422 0 .547.015 1.015.031v-.281c-.593 0-.687 0-.687-.406Zm0 0"/></symbol><symbol overflow="visible" id="A"><path style="stroke:none" d="M4.344-1.906c0-1.172-.938-2.11-2.032-2.11-1.14 0-2.046.954-2.046 2.11 0 1.11.921 2 2.03 2 1.142 0 2.048-.906 2.048-2ZM2.312-.156c-.453 0-.828-.219-1.03-.563-.235-.39-.25-.86-.25-1.265 0-.344 0-.844.218-1.22a1.222 1.222 0 0 1 1.047-.593c.515 0 .875.297 1.062.594.204.375.204.828.204 1.219 0 .328 0 .843-.22 1.234a1.18 1.18 0 0 1-1.03.594Zm0 0"/></symbol><symbol overflow="visible" id="B"><path style="stroke:none" d="m1.656-6.219-1.328.094v.281c.61 0 .688.063.688.5v4.657c0 .406-.094.406-.688.406V0c.422-.016.594-.031 1-.031.422 0 .578.015 1.016.031v-.281c-.594 0-.688 0-.688-.406Zm0 0"/></symbol><symbol overflow="visible" id="e"><path style="stroke:none" d="M.813-4.781c.14-.532.75-.922 1.296-.922.891 0 1.204.875 1.204 1.562-.094.922-.657 1.547-1.235 2.172-.5.532-1 1.094-1.515 1.625-.063.063-.11.125-.11.235v.093h3.438l.25-1.578h-.25c-.063.375-.047.797-.391.844-.078.016-.156.016-.234.016h-.22c-.265.015-.515.015-.78.015H1.234A39.486 39.486 0 0 1 2.938-2.28c.562-.485 1.171-1.063 1.203-1.86v-.078c0-1.125-.954-1.765-1.97-1.765-.874 0-1.718.687-1.718 1.625 0 .296.203.5.484.5.25 0 .454-.204.454-.47a.46.46 0 0 0-.47-.468c-.03 0-.062 0-.109.016Zm0 0"/></symbol><symbol overflow="visible" id="f"><path style="stroke:none" d="M1.625-.156c0 .61-.156 1.172-.61 1.625-.03.031-.093.093-.093.14 0 .063.062.11.094.11.156 0 .375-.313.484-.485a2.37 2.37 0 0 0 .36-1.25c0-.39-.094-.968-.626-.968C.97-.984.797-.72.797-.5c0 .281.203.484.469.484.14 0 .265-.03.359-.14Zm0 0"/></symbol><symbol overflow="visible" id="g"><path style="stroke:none" d="M.266-1.484h2.437v.812c0 .36-.281.39-.89.39v.266h2.515V-.28H4c-.313 0-.578-.047-.578-.39v-.813h.922v-.282h-.922v-4.14c0-.11-.031-.188-.156-.188-.204 0-.563.672-.766.985C1.812-4.094 1.156-3.08.453-2.08l-.125.188c-.031.079-.078.125-.078.235 0 .062.016.11.016.172Zm.28-.282 2.22-3.312v3.312Zm0 0"/></symbol><symbol overflow="visible" id="h"><path style="stroke:none" d="M1.219-2.984h-.016c0-.782.063-1.641.61-2.266.265-.313.625-.516 1.03-.516.298 0 .595.125.782.36h-.031c-.235 0-.438.156-.438.406 0 .219.156.422.406.422.266 0 .422-.172.422-.453 0-.64-.593-.953-1.156-.953C1.25-5.984.391-4.297.391-2.891.39-1.703.64.188 2.344.188c.875 0 1.61-.672 1.812-1.438a2.47 2.47 0 0 0 .063-.594c0-.984-.719-2-1.813-2-.515 0-1.031.344-1.187.86Zm.015 1.03v-.077c0-.547.235-1.438.922-1.563.094-.015.172-.015.266-.015.875.03.969 1.093.969 1.718v.063c0 .672-.032 1.766-1.079 1.766-1 0-1.015-1.235-1.078-1.891Zm0 0"/></symbol><symbol overflow="visible" id="p"><path style="stroke:none" d="M2.906-6.734c-.125.046-.281.218-.39.328C1.39-5.313.906-3.796.906-2.25c0 1.656.563 3.344 1.906 4.422.047.031.094.078.141.078.063 0 .11-.047.11-.11 0-.109-.25-.296-.344-.39-.953-1.11-1.25-2.578-1.25-4.016 0-1.5.343-3.078 1.453-4.187.047-.047.14-.11.14-.188 0-.046-.046-.093-.109-.093h-.047Zm0 0"/></symbol><symbol overflow="visible" id="q"><path style="stroke:none" d="M.266-6.14v.28h.14c.297 0 .547.032.547.454v5.39l.25-.015.344-.531c.312.453.75.656 1.234.656 1.125 0 2.031-.953 2.031-2.047 0-.953-.765-2.016-1.937-2.016-.484 0-.89.172-1.281.563v-2.828Zm3.75 4.406c-.032.421-.079.796-.344 1.109a1.252 1.252 0 0 1-.969.484c-.375 0-.75-.218-.953-.546a.457.457 0 0 1-.125-.297v-2c.063-.391.703-.75 1.172-.75 1.047 0 1.234 1.14 1.234 1.812 0 .063 0 .125-.015.188Zm0 0"/></symbol><symbol overflow="visible" id="r"><path style="stroke:none" d="M1.094-3.484c.25-.22.61-.313.937-.313.313 0 .594.172.781.438.172.25.172.53.172.828v.156c-.734.078-1.468.078-2.093.547-.297.219-.516.578-.516.937 0 .735.875.985 1.469.985.547 0 .968-.281 1.218-.75.079.375.297.703.704.703.546 0 .78-.453.78-.953v-.406h-.25v.453c0 .25-.046.593-.327.593-.297 0-.313-.39-.313-.593v-1.75c0-.938-.812-1.407-1.61-1.407-.562 0-1.39.235-1.39.938 0 .25.14.437.469.437.219-.015.36-.218.36-.421 0-.25-.188-.376-.391-.422Zm1.89 1.328v.875c0 .625-.437 1.14-1.062 1.14h-.063c-.421-.03-.75-.359-.75-.75 0-.859 1.032-1.265 1.875-1.265Zm0 0"/></symbol><symbol overflow="visible" id="s"><path style="stroke:none" d="M.266-3.86v.266h.14c.281 0 .547.031.547.453v2.485c0 .36-.234.375-.687.375v.265L.89-.03h1.562v-.25h-.297c-.312 0-.562-.047-.562-.375v-1.516c.062-.625.234-1.562 1.14-1.562-.125.062-.171.203-.171.328a.39.39 0 1 0 .78 0c0-.375-.359-.563-.687-.563-.547 0-.984.469-1.11.969v-.969Zm0 0"/></symbol><symbol overflow="visible" id="t"><path style="stroke:none" d="M.578-6.734c-.047.03-.062.062-.062.093 0 .11.218.266.296.36C1.797-5.188 2.11-3.656 2.11-2.22 2.11-.75 1.766.86.672 1.953c-.047.047-.156.11-.156.188 0 .046.062.109.125.109.109-.031.296-.219.421-.328 1.11-1.047 1.61-2.61 1.61-4.125 0-1.64-.531-3.406-1.906-4.453-.047-.032-.094-.078-.141-.078H.578Zm0 0"/></symbol><symbol overflow="visible" id="E"><path style="stroke:none" d="M.766-1.063a.388.388 0 0 0 .125.016c.25 0 .453-.172.453-.437a.434.434 0 0 0-.422-.438.457.457 0 0 0-.469.453c0 .875.734 1.657 1.688 1.657 1.078 0 2-.875 2-2 0-.97-.657-1.97-1.766-1.97-.422 0-.86.173-1.172.47v-1.766c.25.062.469.11.719.125h.125c.61 0 1.234-.266 1.64-.734.047-.063.094-.11.094-.188v-.016c-.015-.062-.047-.093-.094-.093-.062 0-.14.062-.203.078-.296.14-.765.218-1.125.218-.406 0-.796-.093-1.171-.234a.252.252 0 0 0-.141-.047H1.03a.1.1 0 0 0-.093.094v2.86c0 .078.015.171.125.171.109 0 .203-.203.25-.234.25-.297.64-.469 1.03-.469h.016c.922 0 .985 1.219.985 1.781 0 .579-.11 1.235-.688 1.563a1.14 1.14 0 0 1-.547.14c-.625 0-1.093-.406-1.343-1Zm0 0"/></symbol><symbol overflow="visible" id="F"><path style="stroke:none" d="M2.172-5.984C.719-5.844.359-4.328.359-2.922c0 .875.047 1.906.672 2.578.313.328.797.547 1.25.547.797 0 1.406-.516 1.688-1.219.234-.609.281-1.265.281-1.906 0-1.281-.297-3.062-1.938-3.062h-.14ZM1.14-2.328c-.016-.078-.016-.156-.016-.235 0-.562 0-1.124.047-1.703.031-.328.062-.718.266-1 .187-.296.515-.5.875-.5.75 0 1.046.735 1.109 1.36.047.437.047.875.047 1.328v.672c0 .969-.078 1.953-.781 2.281a.802.802 0 0 1-.391.094c-.578 0-.953-.531-1.063-1.078-.062-.407-.046-.813-.093-1.22Zm0 0"/></symbol><symbol overflow="visible" id="G"><path style="stroke:none" d="M1.422-6.14c-.5.062-.906.515-.906 1.015a1.02 1.02 0 0 0 1.03 1.031h.079c.516-.062.922-.515.922-1.031 0-.531-.453-1.016-1.031-1.016ZM.89-5.064v-.046c0-.344.296-.641.64-.641.328 0 .563.25.625.578v.047c0 .344-.297.64-.625.64s-.578-.25-.64-.577Zm0 0"/></symbol><symbol overflow="visible" id="H"><path style="stroke:none" d="M5.422-5.547c-.25-.422-.984-.75-1.578-.781H3.75C1.969-6.328.516-4.86.516-3.078v.156c.109 1.75 1.5 3.11 3.203 3.11 1.234 0 2.422-.985 2.422-2.282v-.078c-.016-.062-.079-.094-.141-.094-.078 0-.11.063-.11.141v.063c-.093.921-.75 1.968-2.062 1.968-.703 0-1.406-.36-1.844-.922-.437-.578-.562-1.421-.562-2.109 0-.89.234-1.766.906-2.375.39-.344.938-.547 1.469-.547 1.156 0 1.86 1 2.031 2 .016.125 0 .281.156.281.125 0 .157-.062.157-.14v-2.219c0-.094 0-.203-.11-.203-.156 0-.406.531-.61.781Zm0 0"/></symbol><symbol overflow="visible" id="i"><path style="stroke:none" d="M2.516-5.344a5.006 5.006 0 0 0-.22-.422c-.046-.093-.187-.359-.233-.453H.875V0h.734v-5.531h.016l2.36 4.64c.078.141.187.36.234.422.047.11.172.375.234.469h1.172v-6.219h-.734v5.516Zm0 0"/></symbol><symbol overflow="visible" id="j"><path style="stroke:none" d="M1.688-.453H.796l.922-.828c.11-.094.406-.313.515-.407.266-.234.625-.546.625-1.078 0-.671-.5-1.28-1.359-1.28-.64 0-1.031.343-1.234.952l.28.344c.141-.5.345-.89.86-.89.516 0 .89.359.89.89 0 .5-.296.781-.655 1.125-.11.11-.438.39-.563.5-.172.156-.594.563-.766.719V0H2.86v-.453Zm0 0"/></symbol><symbol overflow="visible" id="n"><path style="stroke:none" d="M2.375-1h.61v-.39h-.61v-2.532h-.594L.171-1.39V-1H1.86v1h.516ZM.687-1.39c.188-.282 1.204-1.876 1.204-2.235v2.234Zm0 0"/></symbol><symbol overflow="visible" id="k"><path style="stroke:none" d="M5.781-2.734c0-1.657-1.218-2.97-2.656-2.97-1.438 0-2.656 1.313-2.656 2.97 0 1.64 1.234 2.906 2.656 2.906 1.438 0 2.656-1.266 2.656-2.906ZM3.125-.391c-.969 0-1.844-.968-1.844-2.484 0-1.406.89-2.266 1.844-2.266.953 0 1.844.86 1.844 2.266 0 1.516-.875 2.484-1.844 2.484Zm0 0"/></symbol><symbol overflow="visible" id="l"><path style="stroke:none" d="M4.938-.969c-.563.344-.813.485-1.61.485-1.234 0-1.984-1.157-1.984-2.297 0-1.172.812-2.281 1.984-2.281.516 0 1.063.156 1.422.437l.14-.719a4.344 4.344 0 0 0-1.593-.281c-1.578 0-2.75 1.313-2.75 2.86 0 1.64 1.25 2.843 2.797 2.843.781 0 1.11-.156 1.64-.437Zm0 0"/></symbol><symbol overflow="visible" id="m"><path style="stroke:none" d="M5.203-5.531h-.812v2.39H1.578v-2.39H.766V0h.812v-2.61h2.813V0h.812Zm0 0"/></symbol><symbol overflow="visible" id="o"><path style="stroke:none" d="M.406 1.125c-.062.25-.078.344-.453.344-.11 0-.219 0-.219.156 0 .031.032.11.125.11l.375-.016H1.078c.156 0 .297.015.438.015.046 0 .171 0 .171-.156 0-.11-.093-.11-.25-.11-.421 0-.421-.062-.421-.155a2.9 2.9 0 0 1 .109-.438l.328-1.328c.094.187.344.547.86.547C3.359.094 4.5-1.172 4.5-2.516c0-.906-.563-1.453-1.234-1.453-.188 0-.641.047-1.188.656-.125-.5-.547-.656-.844-.656-.375 0-.578.281-.703.531-.14.313-.265.813-.265.86 0 .078.062.11.125.11.093 0 .109-.048.156-.235.172-.703.36-1.031.656-1.031.281 0 .281.28.281.421 0 .063-.015.204-.03.266Zm1.625-3.89c.047-.172.047-.188.172-.329.235-.312.64-.64 1.047-.64.422 0 .594.421.594.843 0 .391-.25 1.516-.531 1.985-.313.515-.688.781-1.016.781-.578 0-.735-.703-.735-.766 0-.062.032-.109.032-.156Zm0 0"/></symbol><symbol overflow="visible" id="u"><path style="stroke:none" d="M5.797-5.063c.36-.578.672-.75 1.094-.78.109-.016.187-.016.187-.173 0-.062-.062-.109-.125-.109-.031 0-.25.031-.734.031-.282 0-.594-.031-.86-.031-.062 0-.171.016-.171.156 0 .11.109.125.125.125.093 0 .421.016.421.282 0 .078-.03.14-.062.203-.047.078-.063.109-.094.171L2.766-.827l-.672-4.75c0-.078.062-.266.61-.266.108 0 .218 0 .218-.172 0-.093-.094-.109-.14-.109-.157 0-.345.016-.516.016-.188 0-.375.015-.579.015-.156 0-.406 0-.484-.015-.078 0-.437-.016-.516-.016-.03 0-.156 0-.156.156 0 .125.094.125.203.125.5 0 .516.078.547.297L2.078-.03c.016.172.031.234.188.234.14 0 .187-.078.25-.187Zm0 0"/></symbol><symbol overflow="visible" id="v"><path style="stroke:none" d="M.375-2.578v.25h.094c.219 0 .375.015.375.375v1.469c0 .234-.156.234-.469.234V0l.344-.031h1.094V-.25h-.141c-.172 0-.328-.016-.328-.203v-1.078c0-.547.453-.907.953-.907.437 0 .484.344.484.626V-.47c0 .203-.156.219-.344.219h-.124V0l.343-.031h1.11V-.25h-.157c-.171 0-.328-.016-.328-.203v-1.078c0-.547.453-.907.953-.907h.016c.406 0 .469.329.469.626V-.47c0 .203-.157.219-.344.219H4.25V0l.344-.031h1.11V-.25h-.157c-.172 0-.328-.016-.328-.219V-1.75c0-.188 0-.375-.11-.547-.171-.281-.515-.344-.828-.344-.437 0-.734.172-1.031.547-.047-.437-.594-.547-.89-.547-.407 0-.907.204-1.047.563l-.016-.563Zm0 0"/></symbol><symbol overflow="visible" id="w"><path style="stroke:none" d="M5.672-4.078c.11-.094.125-.14.125-.203a.18.18 0 0 0-.188-.188c-.062 0-.078.016-.187.11L3.578-2.516 1.656-4.437c-.047-.032-.093-.032-.11-.032a.18.18 0 0 0-.187.188c0 .078.032.11.125.203L3.313-2.25 1.484-.437c-.125.124-.125.171-.125.218 0 .11.079.203.188.203.016 0 .062 0 .11-.03L3.577-1.97l1.875 1.86c.047.062.078.093.156.093.11 0 .188-.078.188-.203 0-.031-.016-.093-.031-.11-.032-.03-1.61-1.624-1.922-1.921Zm0 0"/></symbol><symbol overflow="visible" id="x"><path style="stroke:none" d="M1.766-1.984c.5 0 .843.343.843.953 0 .656-.39.937-.828.937C1.61-.094 1-.125.734-.469c.235-.031.329-.187.329-.344a.328.328 0 0 0-.344-.343.34.34 0 0 0-.344.36c0 .593.656.921 1.422.921.89 0 1.469-.563 1.469-1.156 0-.438-.329-.907-1.047-1.078.484-.157.86-.547.86-1.032 0-.484-.563-.843-1.282-.843-.703 0-1.234.328-1.234.812 0 .266.203.328.328.328.156 0 .312-.094.312-.312 0-.188-.125-.297-.297-.313.281-.312.828-.312.89-.312.298 0 .688.14.688.64 0 .329-.187.907-.796.938-.11 0-.266.015-.313.015-.063.016-.125.016-.125.11s.063.094.156.094Zm0 0"/></symbol><symbol overflow="visible" id="D"><path style="stroke:none" d="M2.14-3.797c0-.187-.015-.187-.203-.187-.39.39-1 .39-1.218.39v.235c.156 0 .562 0 .922-.172v3.015c0 .204 0 .282-.625.282h-.25V0c.328-.031.796-.031 1.125-.031.328 0 .796 0 1.125.031v-.234h-.25c-.625 0-.625-.078-.625-.282Zm0 0"/></symbol><symbol overflow="visible" id="C"><path style="stroke:none" d="M4.766-1.344c.093 0 .25 0 .25-.156s-.157-.156-.25-.156H1c-.11 0-.25 0-.25.156s.14.156.25.156Zm0 0"/></symbol></defs><path style="fill:none;stroke-width:.3985;stroke-linecap:butt;stroke-linejoin:miter;stroke:gray;stroke-opacity:1;stroke-dasharray:.3985,1.99255;stroke-miterlimit:10" d="M0 .001V139.42M47.793.001V139.42M95.586.001V139.42M143.38.001V139.42M191.172.001V139.42" transform="matrix(1 0 0 -1 7.285 149.349)"/><path style="fill:none;stroke-width:.19925;stroke-linecap:butt;stroke-linejoin:miter;stroke:gray;stroke-opacity:1;stroke-miterlimit:10" d="M0-2.128v4.254m47.793-4.254v4.254m47.793-4.254v4.254m47.793-4.254v4.254m47.793-4.254v4.254" transform="matrix(1 0 0 -1 7.285 149.349)"/><path style="fill:none;stroke-width:.3985;stroke-linecap:butt;stroke-linejoin:miter;stroke:#000;stroke-opacity:1;stroke-miterlimit:10" d="M0 .001h218.258" transform="matrix(1 0 0 -1 7.285 149.349)"/><path style="stroke:none;fill-rule:nonzero;fill:#000;fill-opacity:1" d="m227.535 149.348-3.187-1.594 1.195 1.594-1.195 1.593"/><path style="fill:none;stroke-width:.3985;stroke-linecap:butt;stroke-linejoin:miter;stroke:#000;stroke-opacity:1;stroke-miterlimit:10" d="M0 .001v147.387" transform="matrix(1 0 0 -1 7.285 149.349)"/><path style="stroke:none;fill-rule:nonzero;fill:#000;fill-opacity:1" d="M7.285-.031 5.691 3.156l1.594-1.195L8.88 3.156"/><use xlink:href="#a" x="4.981" y="159.246" style="fill:#000;fill-opacity:1"/><use xlink:href="#b" x="52.773" y="159.246" style="fill:#000;fill-opacity:1"/><g style="fill:#000;fill-opacity:1"><use xlink:href="#c" x="98.262" y="159.246"/><use xlink:href="#a" x="102.87" y="159.246"/></g><g style="fill:#000;fill-opacity:1"><use xlink:href="#c" x="146.054" y="159.246"/><use xlink:href="#b" x="150.662" y="159.246"/></g><g style="fill:#000;fill-opacity:1"><use xlink:href="#d" x="193.846" y="159.246"/><use xlink:href="#a" x="198.454" y="159.246"/></g><path style="fill:none;stroke-width:.3985;stroke-linecap:butt;stroke-linejoin:miter;stroke:gray;stroke-opacity:1;stroke-dasharray:.3985,1.99255;stroke-miterlimit:10" d="M0 15.74h210.29M0 60.716h210.29M0 105.69h210.29" transform="matrix(1 0 0 -1 7.285 149.349)"/><path style="fill:none;stroke-width:.19925;stroke-linecap:butt;stroke-linejoin:miter;stroke:gray;stroke-opacity:1;stroke-miterlimit:10" d="M-2.125 15.74h4.25m-4.25 44.976h4.25m-4.25 44.973h4.25" transform="matrix(1 0 0 -1 7.285 149.349)"/><path style="stroke:none;fill-rule:nonzero;fill:#fff;fill-opacity:1" d="M9.145 137.363h11.773v-7.508H9.145Zm0 0"/><g style="fill:#000;fill-opacity:1"><use xlink:href="#e" x="9.144" y="135.62"/><use xlink:href="#f" x="13.751" y="135.62"/><use xlink:href="#e" x="16.31" y="135.62"/></g><path style="stroke:none;fill-rule:nonzero;fill:#fff;fill-opacity:1" d="M9.145 92.39h11.773V84.88H9.145Zm0 0"/><g style="fill:#000;fill-opacity:1"><use xlink:href="#e" x="9.144" y="90.647"/><use xlink:href="#f" x="13.751" y="90.647"/><use xlink:href="#g" x="16.31" y="90.647"/></g><path style="stroke:none;fill-rule:nonzero;fill:#fff;fill-opacity:1" d="M9.145 47.414h11.773v-7.508H9.145Zm0 0"/><g style="fill:#000;fill-opacity:1"><use xlink:href="#e" x="9.144" y="45.674"/><use xlink:href="#f" x="13.751" y="45.674"/><use xlink:href="#h" x="16.31" y="45.674"/></g><path style="fill:none;stroke-width:.99628;stroke-linecap:butt;stroke-linejoin:miter;stroke:#ff9d00;stroke-opacity:1;stroke-miterlimit:10" d="m9.559 125.22 10.566.047 10.563.047 10.566.047 10.563.047 10.566.043 10.562.046 10.567.047 10.562.047 21.133.094 10.563.047 10.566.047 10.563.047 10.566.046 10.563.047 10.566.047 10.562.047 21.133.094" transform="matrix(1 0 0 -1 7.285 149.349)"/><use xlink:href="#i" x="219.562" y="25.86" style="fill:#ff9d00;fill-opacity:1"/><use xlink:href="#j" x="226.08" y="26.856" style="fill:#ff9d00;fill-opacity:1"/><path style="fill:none;stroke-width:.99628;stroke-linecap:butt;stroke-linejoin:miter;stroke:#00adef;stroke-opacity:1;stroke-miterlimit:10" d="m9.559 31.564 10.566-.152 10.563-.149 10.566-.152 10.563-.149 10.566-.152 10.562-.152 10.567-.149 10.562-.152 10.567-.149 10.566-.152 10.563-.148 10.566-.153 10.563-.148 10.566-.153 10.563-.152 10.566-.148L189.156 29l10.567-.148 10.566-.152" transform="matrix(1 0 0 -1 7.285 149.349)"/><use xlink:href="#i" x="219.562" y="123.264" style="fill:#00adef;fill-opacity:1"/><use xlink:href="#j" x="226.08" y="124.26" style="fill:#00adef;fill-opacity:1"/><path style="fill:none;stroke-width:.3985;stroke-linecap:butt;stroke-linejoin:miter;stroke:gray;stroke-opacity:1;stroke-dasharray:2.98883,2.98883;stroke-miterlimit:10" d="M0 125.177H.4l.398.004h.398l.399.004h.398l.399.004h.398l.399.004h.797l.394.004h.399l.398.004h.398l.399.003h.398l.399.004h.797l.398.004h.398l.399.004h.398l.399.004M0 31.7l.399-.007.398-.004.398-.008.399-.004.398-.008.797-.008.399-.007.398-.004.399-.008.394-.004.399-.008.398-.004.398-.007.399-.004.398-.008.399-.004.398-.008.797-.008.398-.008.399-.003.398-.008.399-.004" transform="matrix(1 0 0 -1 7.285 149.349)"/><path style="fill:none;stroke-width:.99628;stroke-linecap:butt;stroke-linejoin:miter;stroke:#ff9d00;stroke-opacity:1;stroke-miterlimit:10" d="m9.559 125.037 10.566-.157 10.563-.156 10.566-.156 10.563-.156 10.566-.153 10.562-.156 10.567-.156 10.562-.157 21.133-.312 10.563-.152 10.566-.157 10.563-.156 10.566-.156 10.563-.156 10.566-.157 10.562-.156 10.567-.152 10.566-.157" transform="matrix(1 0 0 -1 7.285 149.349)"/><use xlink:href="#k" x="219.562" y="31.443" style="fill:#ff9d00;fill-opacity:1"/><use xlink:href="#j" x="225.817" y="32.621" style="fill:#ff9d00;fill-opacity:1"/><path style="fill:none;stroke-width:.99628;stroke-linecap:butt;stroke-linejoin:miter;stroke:#00adef;stroke-opacity:1;stroke-miterlimit:10" d="m9.559 31.341 10.566-.394 10.563-.395 10.566-.394 10.563-.395 10.566-.394 10.562-.395 10.567-.395 10.562-.394 21.133-.79 10.563-.394 10.566-.394 10.563-.395 10.566-.394 10.563-.395 10.566-.394 10.562-.395 21.133-.789" transform="matrix(1 0 0 -1 7.285 149.349)"/><use xlink:href="#k" x="219.562" y="129.675" style="fill:#00adef;fill-opacity:1"/><use xlink:href="#j" x="225.817" y="130.853" style="fill:#00adef;fill-opacity:1"/><path style="fill:none;stroke-width:.3985;stroke-linecap:butt;stroke-linejoin:miter;stroke:gray;stroke-opacity:1;stroke-dasharray:2.98883,2.98883;stroke-miterlimit:10" d="m0 125.177.399-.008.398-.004.398-.007.399-.004.398-.008.399-.004.398-.008.399-.004.398-.008.399-.003.394-.008.399-.004.398-.008.398-.004.399-.008.398-.004.399-.007.398-.004.399-.008.398-.004.398-.008.399-.004.398-.008.399-.004M0 31.7l1.594-.062.398-.012 1.594-.062.399-.012.394-.015 1.195-.047.399-.012 1.594-.063.398-.011 1.594-.063" transform="matrix(1 0 0 -1 7.285 149.349)"/><path style="fill:none;stroke-width:.99628;stroke-linecap:butt;stroke-linejoin:miter;stroke:#ff9d00;stroke-opacity:1;stroke-miterlimit:10" d="m9.559 124.591 10.566-.644 10.563-.645 10.566-.644 10.563-.645 10.566-.644 10.562-.649 10.567-.644 10.562-.645 21.133-1.289 10.563-.645 10.566-.648 10.563-.645 10.566-.644 10.563-.645 10.566-.644 10.562-.649 21.133-1.289" transform="matrix(1 0 0 -1 7.285 149.349)"/><g style="fill:#ff9d00;fill-opacity:1"><use xlink:href="#l" x="219.562" y="41.188"/><use xlink:href="#m" x="224.972" y="41.188"/></g><use xlink:href="#n" x="230.95" y="42.365" style="fill:#ff9d00;fill-opacity:1"/><path style="fill:none;stroke-width:.99628;stroke-linecap:butt;stroke-linejoin:miter;stroke:#00adef;stroke-opacity:1;stroke-miterlimit:10" d="m9.559 30.665 10.566-1.14 10.563-1.14 10.566-1.145 10.563-1.141 10.566-1.14 10.562-1.145 10.567-1.14 10.562-1.145 21.133-2.282 10.563-1.144 10.566-1.14 10.563-1.141 10.566-1.145 10.563-1.14 10.566-1.141 10.562-1.145 21.133-2.28" transform="matrix(1 0 0 -1 7.285 149.349)"/><g style="fill:#00adef;fill-opacity:1"><use xlink:href="#l" x="219.562" y="144.551"/><use xlink:href="#m" x="224.972" y="144.551"/></g><use xlink:href="#n" x="230.95" y="145.729" style="fill:#00adef;fill-opacity:1"/><path style="fill:none;stroke-width:.3985;stroke-linecap:butt;stroke-linejoin:miter;stroke:gray;stroke-opacity:1;stroke-dasharray:2.98883,2.98883;stroke-miterlimit:10" d="m0 125.177.399-.023.398-.028 1.594-.093.398-.028 1.196-.07.394-.027 1.594-.094.398-.027 1.196-.07.398-.028 1.195-.07.399-.028M0 31.7l3.985-.43.394-.046 5.18-.559" transform="matrix(1 0 0 -1 7.285 149.349)"/><path style="fill:none;stroke-width:.99628;stroke-linecap:butt;stroke-linejoin:miter;stroke:#ff9d00;stroke-opacity:1;stroke-miterlimit:10" d="m9.559 125.494 10.566.347 10.563.348 10.566.348 10.563.347 10.566.352 10.562.347 10.567.348 10.562.348 10.567.347 10.566.352 10.563.348 10.566.347 10.563.348 10.566.351 10.563.348 10.566.348 10.562.347 10.567.348 10.566.352" transform="matrix(1 0 0 -1 7.285 149.349)"/><use xlink:href="#m" x="219.562" y="19.417" style="fill:#ff9d00;fill-opacity:1"/><use xlink:href="#j" x="225.54" y="20.594" style="fill:#ff9d00;fill-opacity:1"/><path style="fill:none;stroke-width:.99628;stroke-linecap:butt;stroke-linejoin:miter;stroke:#00adef;stroke-opacity:1;stroke-miterlimit:10" d="m9.559 32.005 10.566.34 10.563.34 10.566.34 10.563.336 10.566.34 10.562.34 10.567.34 10.562.335 21.133.68 10.563.34 10.566.34 10.563.335 10.566.34 10.563.34 10.566.34 10.562.336 21.133.68" transform="matrix(1 0 0 -1 7.285 149.349)"/><use xlink:href="#m" x="219.562" y="113.081" style="fill:#00adef;fill-opacity:1"/><use xlink:href="#j" x="225.54" y="114.259" style="fill:#00adef;fill-opacity:1"/><path style="fill:none;stroke-width:.3985;stroke-linecap:butt;stroke-linejoin:miter;stroke:gray;stroke-opacity:1;stroke-dasharray:2.98883,2.98883;stroke-miterlimit:10" d="m0 125.177.399.012.398.015.797.024.398.016.797.023.399.016.398.011.399.016.394.012.399.011.398.016.797.023.398.016.797.023.399.016.398.012.398.015.797.024.399.016M0 31.7l1.195.036.399.015.797.024.398.015 1.196.036.394.015 1.195.035.399.016.797.023.398.016 1.195.035.399.016.797.023" transform="matrix(1 0 0 -1 7.285 149.349)"/><use xlink:href="#o" x="213.989" y="158.065" style="fill:#000;fill-opacity:1"/><g style="fill:#000;fill-opacity:1"><use xlink:href="#p" x="221.687" y="158.065"/><use xlink:href="#q" x="225.27" y="158.065"/><use xlink:href="#r" x="230.388" y="158.065"/><use xlink:href="#s" x="234.995" y="158.065"/><use xlink:href="#t" x="238.599" y="158.065"/></g><g style="fill:#000;fill-opacity:1"><use xlink:href="#o" x="11.27" y="12.643"/><use xlink:href="#u" x="15.896" y="12.643"/></g><use xlink:href="#v" x="21.27" y="13.639" style="fill:#000;fill-opacity:1"/><use xlink:href="#p" x="30.816" y="12.643" style="fill:#000;fill-opacity:1"/><use xlink:href="#c" x="34.399" y="12.643" style="fill:#000;fill-opacity:1"/><use xlink:href="#w" x="41.054" y="12.643" style="fill:#000;fill-opacity:1"/><g style="fill:#000;fill-opacity:1"><use xlink:href="#c" x="50.27" y="12.643"/><use xlink:href="#a" x="54.878" y="12.643"/></g><use xlink:href="#x" x="59.485" y="8.834" style="fill:#000;fill-opacity:1"/><use xlink:href="#y" x="65.172" y="12.643" style="fill:#000;fill-opacity:1"/><g style="fill:#000;fill-opacity:1"><use xlink:href="#z" x="71.44" y="12.643"/><use xlink:href="#A" x="79.12" y="12.643"/><use xlink:href="#B" x="83.728" y="12.643"/></g><use xlink:href="#C" x="86.29" y="8.834" style="fill:#000;fill-opacity:1"/><use xlink:href="#D" x="92.046" y="8.834" style="fill:#000;fill-opacity:1"/><use xlink:href="#t" x="96.197" y="12.643" style="fill:#000;fill-opacity:1"/><path style="fill-rule:nonzero;fill:#fff;fill-opacity:1;stroke-width:.3985;stroke-linecap:butt;stroke-linejoin:miter;stroke:#000;stroke-opacity:1;stroke-miterlimit:10" d="M63.531 61.822h83.227v15.773H63.531Zm0 0" transform="matrix(1 0 0 -1 7.285 149.349)"/><path style="fill:none;stroke-width:.99628;stroke-linecap:butt;stroke-linejoin:miter;stroke:#ff9d00;stroke-opacity:1;stroke-miterlimit:10" d="M-.001 0h17.008" transform="matrix(1 0 0 -1 74.302 79.641)"/><g style="fill:#000;fill-opacity:1"><use xlink:href="#E" x="93.8" y="81.915"/><use xlink:href="#F" x="98.407" y="81.915"/></g><use xlink:href="#G" x="103.013" y="81.915" style="fill:#000;fill-opacity:1"/><use xlink:href="#H" x="106.084" y="81.915" style="fill:#000;fill-opacity:1"/><path style="fill:none;stroke-width:.99628;stroke-linecap:butt;stroke-linejoin:miter;stroke:#00adef;stroke-opacity:1;stroke-miterlimit:10" d="M.001 0H17.01" transform="matrix(1 0 0 -1 115.229 79.641)"/><use xlink:href="#F" x="134.728" y="81.915" style="fill:#000;fill-opacity:1"/><use xlink:href="#G" x="139.334" y="81.915" style="fill:#000;fill-opacity:1"/><use xlink:href="#H" x="142.405" y="81.915" style="fill:#000;fill-opacity:1"/></svg>