<svg xmlns="http://www.w3.org/2000/svg" xmlns:xlink="http://www.w3.org/1999/xlink" width="657.663" height="134.937" viewBox="0 0 493.247 101.203"><defs><symbol overflow="visible" id="a"><path style="stroke:none" d="M3.938-5.469c.046-.187.078-.281.218-.312.078-.016.36-.016.547-.016 1.031 0 1.344.063 1.344.766 0 .11 0 .25-.078.781l-.016.078c0 .063.031.125.125.125.11 0 .125-.094.14-.219l.235-1.562c.016-.031.016-.094.016-.125 0-.125-.078-.125-.25-.125h-5.11c-.218 0-.218.016-.28.187L.265-4.312c-.032.109-.032.14-.032.14 0 .047.032.125.11.125.11 0 .125-.062.172-.219.5-1.406.78-1.53 2.078-1.53h.344c.25 0 .25.03.25.109 0 .046-.016.109-.032.187L1.953-.703c-.078.312-.11.422-1.062.422-.282 0-.36 0-.36.172C.531 0 .641 0 .687 0c.235 0 .485-.016.735-.016s.5-.015.75-.015c.406 0 .422 0 .75.015.125 0 .703.016.781.016.078 0 .188 0 .188-.156 0-.125-.079-.125-.297-.125-.235 0-.344 0-.578-.016-.204-.031-.313-.031-.313-.187 0-.047.016-.11.031-.172Zm0 0"/></symbol><symbol overflow="visible" id="e"><path style="stroke:none" d="M1.625-.14c0 .296 0 1.03-.656 1.671-.047.047-.047.063-.047.094 0 .063.062.11.11.11.093 0 .827-.704.827-1.75 0-.563-.203-.954-.578-.954a.467.467 0 0 0-.484.485c0 .25.172.484.484.484a.46.46 0 0 0 .344-.14Zm0 0"/></symbol><symbol overflow="visible" id="f"><path style="stroke:none" d="M1.906-3.594h.86c.156 0 .265 0 .265-.156 0-.11-.094-.11-.25-.11h-.797l.36-1.5c0-.14-.11-.25-.266-.25-.297 0-.36.25-.39.344l-.344 1.407H.5c-.172 0-.281 0-.281.156 0 .11.093.11.25.11h.812L.656-1.142c-.062.266-.062.282-.062.407 0 .53.406.828.875.828.922 0 1.453-1.282 1.453-1.375 0-.047-.031-.11-.11-.11-.093 0-.109.032-.171.188-.266.64-.72 1.078-1.157 1.078-.187 0-.296-.11-.296-.406 0-.203.03-.313.062-.453Zm0 0"/></symbol><symbol overflow="visible" id="i"><path style="stroke:none" d="M3.688.375c-.016.094-.016.219-.016.328 0 .422.078 1.031.781 1.031C5.531 1.734 5.984.141 5.984 0c0-.047-.046-.11-.125-.11-.062 0-.078.063-.109.126-.203.609-.734.843-1.063.843-.406 0-.546-.265-.64-.906 1.969-.844 2.75-2.61 2.75-3.844 0-1.406-.953-2.437-2.36-2.437-2 0-3.984 2.062-3.984 4.11C.453-.75 1.47.202 2.813.202c.374 0 .734-.094.89-.125ZM2.28-.156c-.422-.172-1.015-.64-1.015-1.797 0-.469.156-1.906 1.125-3.063.468-.546 1.218-1.062 1.984-1.062.89 0 1.61.656 1.61 1.922 0 .89-.438 2.922-1.985 3.781-.078-.484-.25-.969-.828-.969-.5 0-.938.469-.938.922a.73.73 0 0 0 .047.266ZM3.72-.234a2.098 2.098 0 0 1-.844.187c-.11 0-.422 0-.422-.375 0-.328.344-.687.735-.687.53 0 .53.484.53.875Zm0 0"/></symbol><symbol overflow="visible" id="F"><path style="stroke:none" d="M6.203-2.031c.11-.047.188-.094.188-.219s-.11-.172-.188-.203L1.141-4.891c-.125-.062-.157-.062-.188-.062a.19.19 0 0 0-.187.187c0 .11.062.157.187.22L5.75-2.25.953.047C.828.109.766.157.766.266c0 .062.062.187.203.187.015 0 .047 0 .156-.047Zm0 0"/></symbol><symbol overflow="visible" id="b"><path style="stroke:none" d="M2.14-3.797c0-.187-.015-.187-.203-.187-.39.39-1 .39-1.218.39v.235c.156 0 .562 0 .922-.172v3.015c0 .204 0 .282-.625.282h-.25V0c.328-.031.796-.031 1.125-.031.328 0 .796 0 1.125.031v-.234h-.25c-.625 0-.625-.078-.625-.282Zm0 0"/></symbol><symbol overflow="visible" id="h"><path style="stroke:none" d="M3.219-1.125H3c-.016.094-.078.484-.156.547-.047.047-.531.047-.625.047h-1.11l.766-.625c.203-.172.734-.547.922-.735.172-.171.422-.484.422-.906 0-.75-.672-1.187-1.485-1.187-.765 0-1.296.515-1.296 1.078 0 .297.25.344.312.344a.32.32 0 0 0 .328-.329c0-.125-.078-.328-.344-.328.141-.297.5-.531.922-.531.625 0 .953.469.953.953 0 .422-.28.86-.687 1.25L.5-.25C.437-.187.437-.187.437 0h2.594Zm0 0"/></symbol><symbol overflow="visible" id="c"><path style="stroke:none" d="M3.063 2.14c0-.046-.032-.078-.079-.14C1.828.937 1.47-.672 1.47-2.25c0-1.375.265-3.063 1.531-4.266.047-.046.063-.062.063-.109a.107.107 0 0 0-.11-.11c-.11 0-.922.657-1.406 1.626-.422.859-.64 1.796-.64 2.859 0 .64.077 1.672.577 2.719.532 1.11 1.36 1.765 1.47 1.765.062 0 .108-.03.108-.093Zm0 0"/></symbol><symbol overflow="visible" id="g"><path style="stroke:none" d="M2.672-2.25c0-.734-.11-1.719-.578-2.719C1.563-6.079.734-6.734.625-6.734c-.094 0-.11.078-.11.109 0 .047.016.063.079.125.531.469 1.515 1.688 1.515 4.25C2.11-.969 1.875.813.58 2.031c-.016.016-.063.063-.063.11 0 .015.015.093.109.093.11 0 .922-.64 1.406-1.625.422-.859.64-1.78.64-2.859Zm0 0"/></symbol><symbol overflow="visible" id="d"><path style="stroke:none" d="M.39-6.14v.28h.313c.313 0 .61.032.61.376 0 .062-.016.125-.016.171v4.375c0 .594-.516.657-.906.657v.265H2.5V-.28c-.422 0-.938-.078-.938-.672 0-.094.016-.172.016-.25l.016-4.578c.047.187.125.375.203.547.531 1.28 1.031 2.593 1.547 3.89L3.75-.312c.047.109.078.296.234.296.157 0 .188-.203.235-.312.64-1.64 1.297-3.297 1.953-4.922.078-.188.172-.39.234-.594v5.14c0 .376-.281.423-.562.423H5.5v.265h2.547V-.28h-.344c-.281 0-.562-.031-.562-.406V-5.47c0-.343.296-.39.593-.39h.313v-.282H6.5l-.172.032-.094.14L4.22-.89c-.063-.14-.11-.296-.172-.453l-.375-.937c-.453-1.14-.906-2.297-1.36-3.438l-.093-.234c-.078-.14-.125-.188-.281-.188Zm0 0"/></symbol><symbol overflow="visible" id="j"><path style="stroke:none" d="M.266-3.86v.266h.171c.266 0 .516.031.516.39v4.282c0 .375-.265.375-.687.375v.281l.64-.03h1.406v-.25h-.218c-.25 0-.469-.032-.469-.36V-.438c.297.329.656.532 1.125.532 1.078 0 2.063-.875 2.063-2.031 0-1.016-.797-2.032-1.938-2.032-.5 0-.953.219-1.281.563v-.563Zm3.75 2.063C3.984-1.094 3.562-.14 2.672-.14c-.469 0-1.047-.453-1.047-.843v-1.47c0-.124-.016-.233-.016-.343 0-.5.657-.922 1.172-.922.844 0 1.25 1.063 1.25 1.75 0 .047 0 .11-.015.172Zm0 0"/></symbol><symbol overflow="visible" id="k"><path style="stroke:none" d="M1.094-3.484c.25-.22.61-.313.937-.313.313 0 .594.172.781.438.172.25.172.53.172.828v.156c-.734.078-1.468.078-2.093.547-.297.219-.516.578-.516.937 0 .735.875.985 1.469.985.547 0 .968-.281 1.218-.75.079.375.297.703.704.703.546 0 .78-.453.78-.953v-.406h-.25v.453c0 .25-.046.593-.327.593-.297 0-.313-.39-.313-.593v-1.75c0-.938-.812-1.407-1.61-1.407-.562 0-1.39.235-1.39.938 0 .25.14.437.469.437.219-.015.36-.218.36-.421 0-.25-.188-.376-.391-.422Zm1.89 1.328v.875c0 .625-.437 1.14-1.062 1.14h-.063c-.421-.03-.75-.359-.75-.75 0-.859 1.032-1.265 1.875-1.265Zm0 0"/></symbol><symbol overflow="visible" id="l"><path style="stroke:none" d="M.266-3.86v.266h.14c.281 0 .547.031.547.453v2.485c0 .36-.234.375-.687.375v.265L.89-.03h1.562v-.25h-.297c-.312 0-.562-.047-.562-.375v-1.516c.062-.625.234-1.562 1.14-1.562-.125.062-.171.203-.171.328a.39.39 0 1 0 .78 0c0-.375-.359-.563-.687-.563-.547 0-.984.469-1.11.969v-.969Zm0 0"/></symbol><symbol overflow="visible" id="m"><path style="stroke:none" d="M2.172-4.016c-1.047.11-1.906.954-1.906 2.094C.266-1 .953.094 2.312.094c1.047 0 2.032-.844 2.032-2 0-1.078-.844-2.125-2.047-2.125-.047 0-.078.015-.125.015ZM1.047-1.719v-.375c0-.719.219-1.703 1.266-1.703.703 0 1.156.563 1.234 1.281.015.188.015.375.015.563 0 .469-.03 1-.359 1.375a1.19 1.19 0 0 1-.906.422c-.656 0-1.11-.5-1.235-1.219 0-.11 0-.219-.015-.344Zm0 0"/></symbol><symbol overflow="visible" id="n"><path style="stroke:none" d="M.36-3.86v.266H.5c.297 0 .516.047.516.453v2.485c0 .36-.25.375-.688.375v.265h1.938V-.28h-.141c-.234 0-.469-.031-.469-.313v-3.375Zm.765-2.156c-.234.047-.422.235-.422.485s.219.468.485.468h.062a.474.474 0 0 0 .422-.468.477.477 0 0 0-.484-.485Zm0 0"/></symbol><symbol overflow="visible" id="o"><path style="stroke:none" d="M.953-3.86H.25v.266h.703v2.969c0 .313-.25.344-.547.344h-.14v.265L.922-.03h.734l.625.015V-.28h-.203c-.25 0-.484-.031-.484-.344v-2.969h1.468c.25 0 .454.078.454.422v2.5c0 .297-.094.39-.688.39v.266l.625-.015h.735l.656.015V-.28h-.219c-.234 0-.469-.047-.469-.375V-3.97l-1.39.11H1.562v-.922c0-.188.016-.375.094-.563.203-.468.75-.765 1.266-.765.281 0 .562.078.765.265a.426.426 0 0 0-.39.422.42.42 0 0 0 .422.422.42.42 0 0 0 .422-.422v-.016c0-.625-.688-.89-1.22-.89-.89 0-1.968.453-1.968 1.469Zm0 0"/></symbol><symbol overflow="visible" id="p"><path style="stroke:none" d="M.172-3.86v.266h.172c.453 0 .594.188.797.453.171.235.359.454.546.688l.329.406c.03.047.093.11.093.156 0 .094-.265.36-.406.532C1.281-.83.875-.281.125-.281v.265L.578-.03h1.156v-.25C1.563-.328 1.5-.421 1.5-.562c0-.204.156-.36.297-.5.156-.204.344-.407.5-.61h.015c.22.328.516.64.75.969.047.047.126.125.126.203 0 .125-.188.203-.313.219v.265h1.86V-.28h-.173c-.453 0-.609-.188-.812-.469-.328-.39-.625-.797-.953-1.203-.031-.031-.11-.094-.11-.156 0-.094.25-.344.376-.485.437-.531.812-1 1.515-1v-.265l-.469.015H2.953v.25c.156 0 .235.156.235.281 0 .188-.126.297-.22.422-.155.188-.327.375-.452.563H2.5c-.219-.328-.578-.625-.75-.953-.016-.031-.031-.063-.031-.094 0-.125.187-.203.312-.219v-.265Zm0 0"/></symbol><symbol overflow="visible" id="q"><path style="stroke:none" d="M1.031-2.063h2.657c.109 0 .156-.046.156-.156 0-1.125-.703-1.797-1.64-1.797-1.095 0-1.954.954-1.954 2.047C.25-.875 1.125.094 2.344.094c.64 0 1.281-.453 1.469-1.078.015-.016.015-.063.015-.094a.107.107 0 0 0-.11-.11c-.171 0-.171.266-.265.391-.219.375-.656.64-1.094.64h-.062C1.828-.171 1.422-.5 1.219-.921c-.172-.36-.188-.75-.188-1.14Zm.016-.218c0-.594.25-1.281.906-1.485a.914.914 0 0 1 .203-.03c.781 0 1.063.796 1.063 1.515Zm0 0"/></symbol><symbol overflow="visible" id="r"><path style="stroke:none" d="M2.828-6.14v.28h.094c.36 0 .594.016.594.548v1.875a1.532 1.532 0 0 0-1.172-.532c-1.11 0-2.031.938-2.031 2.047C.313-.906 1.14.094 2.266.094c.421 0 .984-.203 1.218-.578v.578l1.36-.11V-.28h-.14c-.298 0-.548-.031-.548-.453v-5.5Zm-1.75 4.406v-.125c0-.72.188-1.875 1.313-1.875.468 0 1.109.343 1.109.906 0 .11-.016.219-.016.328v1.484c0 .11-.046.188-.109.282-.234.343-.64.593-1.063.593a1.14 1.14 0 0 1-.89-.453c-.25-.328-.297-.734-.344-1.14Zm0 0"/></symbol><symbol overflow="visible" id="s"><path style="stroke:none" d="M1.36-5.531c0 .656-.298 1.718-1.188 1.718v.22h.781v2.374c0 .282.016.547.156.782.22.39.672.53 1.079.53h.078c.687-.124.796-.859.796-1.39v-.328h-.25c0 .125.016.25.016.39 0 .391-.094 1.079-.625 1.079-.484 0-.594-.563-.594-1.016v-2.422h1.313v-.265H1.609v-1.672Zm0 0"/></symbol><symbol overflow="visible" id="t"><path style="stroke:none" d="M.313-6.14v.28h.156c.281 0 .531.032.531.47v4.515c0 .063.016.125.016.203 0 .375-.266.39-.641.39H.312v.266L.954-.03H2.36v-.25h-.203c-.265 0-.484-.047-.484-.375v-1.61c0-.687.406-1.468 1.25-1.468.484 0 .625.437.625 1v2.109c0 .313-.25.344-.547.344h-.14v.265L3.5-.03h1.406v-.25h-.172c-.265 0-.515-.031-.515-.36v-2.015c0-.281-.016-.547-.14-.781-.22-.407-.673-.532-1.095-.532-.515 0-1.125.297-1.328.844l-.015-3.11Zm0 0"/></symbol><symbol overflow="visible" id="u"><path style="stroke:none" d="M.313-3.86v.266h.14c.266 0 .547.031.547.453v2.485c0 .36-.234.375-.688.375v.265L.954-.03H2.36v-.25h-.203c-.265 0-.484-.047-.484-.375v-1.797c.047-.64.484-1.281 1.25-1.281.578 0 .64.578.64 1v2.109c0 .313-.265.344-.562.344h-.125v.265L3.5-.03h1.422v-.25h-.219c-.25 0-.484-.047-.484-.375v-1.797c.062-.64.484-1.281 1.265-1.281.563 0 .625.578.625 1v2.109c0 .313-.25.344-.546.344h-.141v.265h2.047V-.28h-.172c-.25 0-.516-.031-.516-.36v-2.015c0-.281-.015-.547-.14-.781-.235-.422-.704-.532-1.141-.532-.547 0-1.11.36-1.297.86h-.016c-.078-.625-.656-.86-1.203-.86-.578 0-1.14.328-1.359.89l-.016-.89Zm0 0"/></symbol><symbol overflow="visible" id="v"><path style="stroke:none" d="M.36-6.14v.28h.343c.297 0 .578.048.578.391v4.782c0 .39-.328.406-.672.406H.36v.265h2.563c.203 0 .39.016.594.016 1.078 0 2.437-.516 2.89-2.14.078-.297.11-.579.11-.876 0-1.609-1.11-3.125-2.985-3.125h-.61ZM5.624-2.72c0 1.11-.547 2.063-1.547 2.344-.297.094-.578.094-.875.094h-.797c-.203 0-.36-.047-.36-.328V-5.453c0-.266.032-.406.407-.406h.766c.656 0 1.344.093 1.875.78.468.579.547 1.407.547 2.11 0 .078-.016.156-.016.25Zm0 0"/></symbol><symbol overflow="visible" id="w"><path style="stroke:none" d="M1.031-2.063h2.657c.109 0 .156-.046.156-.156 0-1.125-.703-1.797-1.64-1.797-1.095 0-1.954.954-1.954 2.047C.25-.875 1.125.094 2.344.094c.64 0 1.281-.453 1.469-1.078.015-.016.015-.063.015-.094a.107.107 0 0 0-.11-.11c-.171 0-.171.266-.265.391-.219.375-.656.64-1.094.64h-.062C1.828-.171 1.422-.5 1.219-.921c-.172-.36-.188-.75-.188-1.14Zm.016-.218c0-.594.25-1.281.906-1.485a.914.914 0 0 1 .203-.03c.781 0 1.063.796 1.063 1.515Zm1.484-3.5c-.156.015-.312.203-.422.312-.28.282-.578.547-.859.828-.016.016-.016.032-.016.047 0 .063.079.188.141.188.047 0 .094-.047.125-.063l.25-.14c.39-.22 1.172-.516 1.172-.829 0-.171-.156-.359-.344-.359-.015 0-.031.016-.047.016Zm0 0"/></symbol><symbol overflow="visible" id="x"><path style="stroke:none" d="M.813-.313c.296.297.656.407 1.046.407.735 0 1.454-.375 1.454-1.25v-.094c-.032-.516-.422-.89-.876-1.063a3.528 3.528 0 0 0-.703-.156c-.375-.078-.968-.187-.968-.703 0-.515.656-.656 1.03-.656.579 0 .985.344 1.032.969 0 .078.016.171.125.171.063 0 .125-.03.125-.109v-1.078c0-.063-.015-.14-.094-.14-.14 0-.234.218-.343.218h-.016c-.063-.015-.125-.062-.188-.094-.187-.093-.421-.125-.64-.125-.625 0-1.484.204-1.484 1.125 0 .907 1.046 1.047 1.687 1.172.39.078.828.313.86.75 0 .64-.532.828-1.016.828h-.078C1.109-.17.75-.656.594-1.28c-.031-.094-.031-.25-.156-.25-.11 0-.126.078-.126.156v1.156c0 .047-.015.078-.015.125 0 .094.016.188.11.188.093 0 .156-.11.218-.172l.031-.047c.063-.063.11-.11.156-.188Zm0 0"/></symbol><symbol overflow="visible" id="y"><path style="stroke:none" d="M3.484-.531v1.625c0 .328-.187.36-.687.36v.28l.64-.03h1.407v-.25h-.188c-.281 0-.5-.032-.5-.376v-5.047l-.218.016-.11.203-.234.578c-.094-.11-.156-.234-.235-.328a1.316 1.316 0 0 0-1.03-.469c-1.079 0-2.017.906-2.017 2.016 0 1.047.813 2.047 1.954 2.047.453 0 .984-.235 1.218-.625ZM1.078-1.797v-.11c0-.734.39-1.765 1.297-1.812h.031c.578 0 1.016.563 1.11 1.094v1.406c0 .735-.922 1.078-1.204 1.078h-.046C1.609-.188 1.25-.859 1.14-1.42c-.032-.126-.032-.25-.063-.376Zm0 0"/></symbol><symbol overflow="visible" id="z"><path style="stroke:none" d="M.313-3.86v.266H.39c.25 0 .593.031.593.281.016.11.016.188.016.297v1.782c0 .28.016.53.14.78.266.438.813.548 1.282.548.5 0 .984-.297 1.14-.766l.016.766 1.328-.11V-.28H4.75c-.266 0-.531-.031-.531-.438v-3.25l-1.36.11v.265h.125c.282 0 .563.031.563.453v1.766C3.5-.797 3.14-.141 2.453-.141c-.36 0-.687-.078-.765-.546-.016-.172-.016-.329-.016-.5V-3.97Zm0 0"/></symbol><symbol overflow="visible" id="A"><path style="stroke:none" d="M.328-6.14v.28h.11c.312 0 .578.016.578.47v4.718c0 .375-.25.39-.641.39H.328v.266h2.016V-.28h-.235c-.234 0-.453-.047-.453-.36v-5.593Zm0 0"/></symbol><symbol overflow="visible" id="B"><path style="stroke:none" d="M.266-6.14v.28h.14c.297 0 .547.032.547.454v5.39l.25-.015.344-.531c.312.453.75.656 1.234.656 1.125 0 2.031-.953 2.031-2.047 0-.953-.765-2.016-1.937-2.016-.484 0-.89.172-1.281.563v-2.828Zm3.75 4.406c-.032.421-.079.796-.344 1.109a1.252 1.252 0 0 1-.969.484c-.375 0-.75-.218-.953-.546a.457.457 0 0 1-.125-.297v-2c.063-.391.703-.75 1.172-.75 1.047 0 1.234 1.14 1.234 1.812 0 .063 0 .125-.015.188Zm0 0"/></symbol><symbol overflow="visible" id="E"><path style="stroke:none" d="M.344-6.11v.282h.344c.296 0 .562.031.562.39v4.75c0 .36-.297.407-.594.407H.344v.265h5.265L6-2.328h-.25c-.094.562-.188 1.203-.563 1.61-.406.421-1.046.437-1.593.437h-1.14c-.188 0-.392 0-.392-.328v-2.438h.86c.312 0 .672.031.828.297.125.188.14.438.14.672v.094h.25v-2.391h-.25v.094c0 .5-.124.906-.687.937-.156.031-.344.031-.515.031h-.626v-2.203c0-.312.188-.312.391-.312h1.172c.625 0 1.328.031 1.656.719.14.328.172.671.219 1.015h.25L5.5-6.109Zm2.406-.765.11.234c.421-.14.843-.25 1.265-.39.188-.047.5-.094.5-.375 0-.188-.156-.36-.344-.36-.11 0-.203.079-.297.125l-.28.172c-.313.188-.626.39-.954.594Zm0 0"/></symbol><symbol overflow="visible" id="G"><path style="stroke:none" d="M1.016-3.86h-.72v.266h.72v2.969c0 .313-.266.344-.563.344H.328v.265L.953-.03h1.563v-.25h-.297c-.328 0-.563-.047-.563-.422v-2.89h1.032v-.266H1.625v-.829c0-.578.14-1.421.828-1.421.078 0 .188.015.266.062a.395.395 0 0 0-.235.36c0 .218.172.39.391.39.266 0 .406-.172.406-.39 0-.422-.453-.641-.828-.641-.625 0-1.187.406-1.39.984-.047.172-.047.344-.047.516Zm0 0"/></symbol><symbol overflow="visible" id="C"><path style="stroke:none" d="M.844-1.36h2.031c.094 0 .11-.077.11-.124 0-.641-.422-1.188-1.235-1.188-.719 0-1.469.516-1.469 1.36C.281-.5 1.047.046 1.812.046c.47 0 1-.203 1.157-.703.015-.016.015-.047.015-.078 0-.063-.062-.079-.109-.079-.11 0-.156.204-.234.297a1.005 1.005 0 0 1-.72.36H1.86a1.02 1.02 0 0 1-.89-.531 1.608 1.608 0 0 1-.125-.672Zm.015-.187c.032-.484.375-.922.891-.922.531 0 .781.453.797.922Zm0 0"/></symbol><symbol overflow="visible" id="D"><path style="stroke:none" d="M2.719-.36V.688c0 .172-.063.235-.469.235v.234h1.438V.922h-.141c-.172 0-.328-.031-.328-.235V-2.64l-.188.016-.078.125-.156.375H2.78c-.172-.344-.594-.516-.953-.516-.734 0-1.453.516-1.5 1.282v.046c0 .782.688 1.36 1.469 1.36.344 0 .687-.14.922-.406ZM.89-1.202v-.094c0-.547.406-1.094.968-1.125h.032c.328 0 .625.203.765.485.031.078.078.156.078.234v.828c0 .344-.406.625-.687.703-.078.016-.14.031-.219.031h-.047C1.234-.188.938-.719.891-1.203Zm0 0"/></symbol></defs><path style="stroke:none;fill-rule:nonzero;fill:#effafb;fill-opacity:1" d="M5.68 79.809V23.113h141.734V79.81Zm0 0"/><path style="fill:none;stroke-width:.79701;stroke-linecap:butt;stroke-linejoin:miter;stroke:#000;stroke-opacity:1;stroke-miterlimit:10" d="M85.04-.002v56.696" transform="matrix(1 0 0 -1 5.679 79.807)"/><path style="fill:none;stroke-width:1.39478;stroke-linecap:butt;stroke-linejoin:miter;stroke:#000;stroke-opacity:1;stroke-miterlimit:10" d="M0-.002v56.696h141.735V-.002Zm0 0" transform="matrix(1 0 0 -1 5.679 79.807)"/><path style="fill:none;stroke-width:.59776;stroke-linecap:butt;stroke-linejoin:miter;stroke:#fff;stroke-opacity:1;stroke-miterlimit:10" d="M0-.002v56.696h141.735V-.002Zm0 0" transform="matrix(1 0 0 -1 5.679 79.807)"/><use xlink:href="#a" x="12.653" y="70.591" style="fill:#000;fill-opacity:1"/><use xlink:href="#b" x="18.029" y="71.588" style="fill:#000;fill-opacity:1"/><use xlink:href="#c" x="22.18" y="70.591" style="fill:#000;fill-opacity:1"/><use xlink:href="#d" x="25.763" y="70.591" style="fill:#000;fill-opacity:1"/><use xlink:href="#e" x="34.207" y="70.591" style="fill:#000;fill-opacity:1"/><use xlink:href="#f" x="38.3" y="70.591" style="fill:#000;fill-opacity:1"/><use xlink:href="#g" x="41.631" y="70.591" style="fill:#000;fill-opacity:1"/><use xlink:href="#a" x="107.875" y="70.591" style="fill:#000;fill-opacity:1"/><use xlink:href="#h" x="113.251" y="71.588" style="fill:#000;fill-opacity:1"/><use xlink:href="#c" x="117.402" y="70.591" style="fill:#000;fill-opacity:1"/><use xlink:href="#d" x="120.986" y="70.591" style="fill:#000;fill-opacity:1"/><use xlink:href="#e" x="129.43" y="70.591" style="fill:#000;fill-opacity:1"/><use xlink:href="#f" x="133.523" y="70.591" style="fill:#000;fill-opacity:1"/><use xlink:href="#g" x="136.853" y="70.591" style="fill:#000;fill-opacity:1"/><path style="fill:none;stroke-width:1.19553;stroke-linecap:butt;stroke-linejoin:miter;stroke:#00adef;stroke-opacity:1;stroke-miterlimit:10" d="M78.067 28.346h10.758" transform="matrix(1 0 0 -1 5.679 79.807)"/><path style="stroke:none;fill-rule:nonzero;fill:#00adef;fill-opacity:1" d="m97.695 51.46-5.101-2.55 1.91 2.55-1.91 2.552"/><use xlink:href="#i" x="99.684" y="53.652" style="fill:#000;fill-opacity:1"/><path style="fill:none;stroke-width:.3985;stroke-linecap:butt;stroke-linejoin:miter;stroke:#000;stroke-opacity:1;stroke-miterlimit:10" d="M88.571 43.143c7.355 1.297 7.355 25.805-3.531 27.723" transform="matrix(1 0 0 -1 5.679 79.807)"/><path style="stroke:none;fill-rule:nonzero;fill:#000;fill-opacity:1" d="M90.719 37.285c1.082.012 2.886.3 4.183.781l-.52-2.941c-1.054.89-2.652 1.781-3.663 2.16"/><g style="fill:#000;fill-opacity:1"><use xlink:href="#j" x="7.546" y="11.157"/><use xlink:href="#k" x="12.664" y="11.157"/><use xlink:href="#l" x="17.271" y="11.157"/><use xlink:href="#m" x="20.875" y="11.157"/><use xlink:href="#n" x="25.481" y="11.157"/></g><g style="fill:#000;fill-opacity:1"><use xlink:href="#o" x="31.116" y="11.157"/><use xlink:href="#p" x="36.234" y="11.157"/><use xlink:href="#q" x="41.096" y="11.157"/></g><g style="fill:#000;fill-opacity:1"><use xlink:href="#r" x="48.262" y="11.157"/><use xlink:href="#n" x="53.38" y="11.157"/><use xlink:href="#k" x="55.939" y="11.157"/><use xlink:href="#s" x="60.545" y="11.157"/><use xlink:href="#t" x="64.128" y="11.157"/><use xlink:href="#q" x="69.246" y="11.157"/><use xlink:href="#l" x="73.345" y="11.157"/><use xlink:href="#u" x="76.949" y="11.157"/><use xlink:href="#q" x="84.627" y="11.157"/></g><g style="fill:#000;fill-opacity:1"><use xlink:href="#v" x="29.976" y="92.956"/><use xlink:href="#w" x="37.013" y="92.956"/><use xlink:href="#x" x="41.111" y="92.956"/><use xlink:href="#w" x="44.745" y="92.956"/><use xlink:href="#y" x="48.844" y="92.956"/><use xlink:href="#z" x="53.706" y="92.956"/><use xlink:href="#n" x="58.824" y="92.956"/><use xlink:href="#A" x="61.384" y="92.956"/><use xlink:href="#n" x="63.943" y="92.956"/><use xlink:href="#B" x="66.502" y="92.956"/><use xlink:href="#l" x="71.62" y="92.956"/><use xlink:href="#q" x="75.223" y="92.956"/></g><g style="fill:#000;fill-opacity:1"><use xlink:href="#s" x="82.397" y="92.956"/><use xlink:href="#t" x="85.98" y="92.956"/><use xlink:href="#q" x="91.098" y="92.956"/><use xlink:href="#l" x="95.197" y="92.956"/><use xlink:href="#u" x="98.8" y="92.956"/><use xlink:href="#n" x="106.478" y="92.956"/><use xlink:href="#y" x="109.037" y="92.956"/><use xlink:href="#z" x="113.9" y="92.956"/><use xlink:href="#q" x="119.018" y="92.956"/></g><path style="stroke:none;fill-rule:nonzero;fill:#effafb;fill-opacity:1" d="M175.762 79.809V23.113h141.73V79.81Zm0 0"/><path style="fill:none;stroke-width:.79701;stroke-linecap:butt;stroke-linejoin:miter;stroke:#000;stroke-opacity:1;stroke-miterlimit:10" d="M255.122-.002v56.696" transform="matrix(1 0 0 -1 5.679 79.807)"/><path style="fill:none;stroke-width:1.39478;stroke-linecap:butt;stroke-linejoin:miter;stroke:#000;stroke-opacity:1;stroke-miterlimit:10" d="M170.083-.002v56.696h141.73V-.002Zm0 0" transform="matrix(1 0 0 -1 5.679 79.807)"/><path style="fill:none;stroke-width:.59776;stroke-linecap:butt;stroke-linejoin:miter;stroke:#fff;stroke-opacity:1;stroke-miterlimit:10" d="M170.083-.002v56.696h141.73V-.002Zm0 0" transform="matrix(1 0 0 -1 5.679 79.807)"/><use xlink:href="#a" x="182.731" y="70.675" style="fill:#000;fill-opacity:1"/><g style="fill:#000;fill-opacity:1"><use xlink:href="#C" x="188.107" y="71.671"/><use xlink:href="#D" x="191.372" y="71.671"/></g><use xlink:href="#a" x="297.531" y="70.675" style="fill:#000;fill-opacity:1"/><g style="fill:#000;fill-opacity:1"><use xlink:href="#C" x="302.907" y="71.671"/><use xlink:href="#D" x="306.172" y="71.671"/></g><path style="fill:none;stroke-width:.3985;stroke-linecap:butt;stroke-linejoin:miter;stroke:#000;stroke-opacity:1;stroke-miterlimit:10" d="M258.653 43.143c7.356 1.297 7.356 25.805-3.531 27.723" transform="matrix(1 0 0 -1 5.679 79.807)"/><path style="stroke:none;fill-rule:nonzero;fill:#000;fill-opacity:1" d="M260.8 37.285c1.083.012 2.887.3 4.184.781l-.52-2.941c-1.054.89-2.651 1.781-3.663 2.16"/><g style="fill:#000;fill-opacity:1"><use xlink:href="#j" x="177.625" y="11.157"/><use xlink:href="#k" x="182.743" y="11.157"/><use xlink:href="#l" x="187.35" y="11.157"/><use xlink:href="#m" x="190.954" y="11.157"/><use xlink:href="#n" x="195.56" y="11.157"/></g><g style="fill:#000;fill-opacity:1"><use xlink:href="#o" x="201.195" y="11.157"/><use xlink:href="#p" x="206.313" y="11.157"/><use xlink:href="#q" x="211.175" y="11.157"/></g><g style="fill:#000;fill-opacity:1"><use xlink:href="#r" x="218.341" y="11.157"/><use xlink:href="#n" x="223.459" y="11.157"/><use xlink:href="#k" x="226.018" y="11.157"/><use xlink:href="#s" x="230.624" y="11.157"/><use xlink:href="#t" x="234.207" y="11.157"/><use xlink:href="#q" x="239.325" y="11.157"/><use xlink:href="#l" x="243.424" y="11.157"/><use xlink:href="#u" x="247.028" y="11.157"/><use xlink:href="#q" x="254.706" y="11.157"/></g><g style="fill:#000;fill-opacity:1"><use xlink:href="#E" x="206.354" y="94.479"/><use xlink:href="#y" x="212.623" y="94.479"/><use xlink:href="#z" x="217.486" y="94.479"/><use xlink:href="#n" x="222.604" y="94.479"/><use xlink:href="#A" x="225.163" y="94.479"/><use xlink:href="#n" x="227.722" y="94.479"/><use xlink:href="#B" x="230.281" y="94.479"/><use xlink:href="#l" x="235.399" y="94.479"/><use xlink:href="#q" x="239.002" y="94.479"/></g><g style="fill:#000;fill-opacity:1"><use xlink:href="#s" x="246.176" y="94.479"/><use xlink:href="#t" x="249.759" y="94.479"/><use xlink:href="#q" x="254.877" y="94.479"/><use xlink:href="#l" x="258.976" y="94.479"/><use xlink:href="#u" x="262.58" y="94.479"/><use xlink:href="#n" x="270.258" y="94.479"/><use xlink:href="#y" x="272.817" y="94.479"/><use xlink:href="#z" x="277.679" y="94.479"/><use xlink:href="#q" x="282.797" y="94.479"/></g><path style="stroke:none;fill-rule:nonzero;fill:#effafb;fill-opacity:1" d="M345.84 79.809V23.113h85.043V79.81ZM430.883 79.809V23.113h56.691V79.81Zm0 0"/><path style="fill:none;stroke-width:3.78586;stroke-linecap:butt;stroke-linejoin:miter;stroke:#000;stroke-opacity:1;stroke-miterlimit:10" d="M425.204-.002v56.696" transform="matrix(1 0 0 -1 5.679 79.807)"/><path style="fill:none;stroke-width:.59776;stroke-linecap:butt;stroke-linejoin:miter;stroke:#fff;stroke-opacity:1;stroke-miterlimit:10" d="M425.204-.002v56.696" transform="matrix(1 0 0 -1 5.679 79.807)"/><path style="fill:none;stroke-width:1.39478;stroke-linecap:butt;stroke-linejoin:miter;stroke:#000;stroke-opacity:1;stroke-miterlimit:10" d="M340.16-.002v56.696h141.735V-.002Zm0 0" transform="matrix(1 0 0 -1 5.679 79.807)"/><path style="fill:none;stroke-width:.59776;stroke-linecap:butt;stroke-linejoin:miter;stroke:#fff;stroke-opacity:1;stroke-miterlimit:10" d="M340.16-.002v56.696h141.735V-.002Zm0 0" transform="matrix(1 0 0 -1 5.679 79.807)"/><use xlink:href="#a" x="352.81" y="71.837" style="fill:#000;fill-opacity:1"/><use xlink:href="#b" x="358.186" y="72.833" style="fill:#000;fill-opacity:1"/><use xlink:href="#F" x="364.897" y="71.837" style="fill:#000;fill-opacity:1"/><use xlink:href="#a" x="374.62" y="71.837" style="fill:#000;fill-opacity:1"/><use xlink:href="#h" x="380" y="72.833" style="fill:#000;fill-opacity:1"/><use xlink:href="#a" x="471.067" y="71.837" style="fill:#000;fill-opacity:1"/><use xlink:href="#h" x="476.443" y="72.833" style="fill:#000;fill-opacity:1"/><path style="fill:none;stroke-width:.3985;stroke-linecap:butt;stroke-linejoin:miter;stroke:#000;stroke-opacity:1;stroke-miterlimit:10" d="M428.735 43.143c7.356 1.297 7.356 25.805-3.531 27.723" transform="matrix(1 0 0 -1 5.679 79.807)"/><path style="stroke:none;fill-rule:nonzero;fill:#000;fill-opacity:1" d="M430.883 37.285c1.078.012 2.883.3 4.183.781l-.52-2.941c-1.058.89-2.651 1.781-3.663 2.16"/><g style="fill:#000;fill-opacity:1"><use xlink:href="#j" x="341.33" y="11.157"/><use xlink:href="#k" x="346.448" y="11.157"/><use xlink:href="#l" x="351.055" y="11.157"/><use xlink:href="#m" x="354.659" y="11.157"/><use xlink:href="#n" x="359.265" y="11.157"/></g><use xlink:href="#o" x="364.891" y="11.157" style="fill:#000;fill-opacity:1"/><g style="fill:#000;fill-opacity:1"><use xlink:href="#p" x="370.018" y="11.157"/><use xlink:href="#q" x="374.88" y="11.157"/></g><g style="fill:#000;fill-opacity:1"><use xlink:href="#k" x="382.046" y="11.157"/><use xlink:href="#r" x="386.652" y="11.157"/><use xlink:href="#n" x="391.77" y="11.157"/><use xlink:href="#k" x="394.329" y="11.157"/><use xlink:href="#B" x="398.936" y="11.157"/><use xlink:href="#k" x="404.054" y="11.157"/><use xlink:href="#s" x="408.661" y="11.157"/><use xlink:href="#n" x="412.244" y="11.157"/><use xlink:href="#y" x="414.803" y="11.157"/><use xlink:href="#z" x="419.666" y="11.157"/><use xlink:href="#q" x="424.784" y="11.157"/></g><g style="fill:#000;fill-opacity:1"><use xlink:href="#E" x="383.564" y="94.479"/><use xlink:href="#y" x="389.833" y="94.479"/><use xlink:href="#z" x="394.696" y="94.479"/><use xlink:href="#n" x="399.814" y="94.479"/><use xlink:href="#A" x="402.373" y="94.479"/><use xlink:href="#n" x="404.932" y="94.479"/><use xlink:href="#B" x="407.491" y="94.479"/><use xlink:href="#l" x="412.609" y="94.479"/><use xlink:href="#q" x="416.212" y="94.479"/></g><g style="fill:#000;fill-opacity:1"><use xlink:href="#G" x="423.386" y="94.479"/><use xlink:href="#l" x="426.202" y="94.479"/><use xlink:href="#z" x="429.806" y="94.479"/><use xlink:href="#x" x="434.924" y="94.479"/><use xlink:href="#s" x="438.558" y="94.479"/><use xlink:href="#l" x="442.141" y="94.479"/><use xlink:href="#w" x="445.744" y="94.479"/></g></svg>