<svg xmlns="http://www.w3.org/2000/svg" xmlns:xlink="http://www.w3.org/1999/xlink" width="657.663" height="128.295" viewBox="0 0 493.247 96.221"><defs><symbol overflow="visible" id="a"><path style="stroke:none" d="M.813-4.781c.14-.532.75-.922 1.296-.922.891 0 1.204.875 1.204 1.562-.094.922-.657 1.547-1.235 2.172-.5.532-1 1.094-1.515 1.625-.063.063-.11.125-.11.235v.093h3.438l.25-1.578h-.25c-.063.375-.047.797-.391.844-.078.016-.156.016-.234.016h-.22c-.265.015-.515.015-.78.015H1.234A39.486 39.486 0 0 1 2.938-2.28c.562-.485 1.171-1.063 1.203-1.86v-.078c0-1.125-.954-1.765-1.97-1.765-.874 0-1.718.687-1.718 1.625 0 .296.203.5.484.5.25 0 .454-.204.454-.47a.46.46 0 0 0-.47-.468c-.03 0-.062 0-.109.016Zm0 0"/></symbol><symbol overflow="visible" id="b"><path style="stroke:none" d="M2.172-5.984C.719-5.844.359-4.328.359-2.922c0 .875.047 1.906.672 2.578.313.328.797.547 1.25.547.797 0 1.406-.516 1.688-1.219.234-.609.281-1.265.281-1.906 0-1.281-.297-3.062-1.938-3.062h-.14ZM1.14-2.328c-.016-.078-.016-.156-.016-.235 0-.562 0-1.124.047-1.703.031-.328.062-.718.266-1 .187-.296.515-.5.875-.5.75 0 1.046.735 1.109 1.36.047.437.047.875.047 1.328v.672c0 .969-.078 1.953-.781 2.281a.802.802 0 0 1-.391.094c-.578 0-.953-.531-1.063-1.078-.062-.407-.046-.813-.093-1.22Zm0 0"/></symbol><symbol overflow="visible" id="c"><path style="stroke:none" d="M2.89-5.906c.407.25.891.375 1.36.375.422 0 .844-.094 1.219-.297-.188.281-.39.547-.578.828C3.78-3.36 2.64-1.734 1.516-.11c-.094.141-.235.297-.235.422 0 .079.078.172.188.188.156 0 .234-.188.312-.297C3.25-1.907 4.688-4.03 6.156-6.14c.063-.109.235-.296.235-.406 0-.11-.11-.187-.204-.187-.125 0-.187.125-.265.218-.36.47-.969.75-1.578.766h-.078c-.61 0-1.22-.234-1.672-.64-.219-.173-.422-.344-.735-.344-.906 0-1.343 1.078-1.343 1.796 0 .813.468 1.813 1.343 1.813.86 0 1.204-1.078 1.204-1.813 0-.343-.063-.64-.172-.968Zm2.97 2.781c-.813.11-1.266 1-1.266 1.797C4.594-.562 5.047.5 5.954.5h.093c.828-.094 1.11-1.156 1.11-1.828 0-.703-.345-1.797-1.204-1.797H5.86Zm1.03 1.953C6.86-.594 6.595.266 5.97.266c-.719 0-.782-1.141-.782-1.485v-.093c0-.579.125-1.579.782-1.579h.015c.141 0 .282.079.391.172.406.328.531.938.531 1.406 0 .047 0 .11-.015.141Zm-4.077-3.61c-.047.563-.297 1.423-.938 1.423-.703 0-.766-1.125-.766-1.47v-.109c0-.578.11-1.578.782-1.578h.015c.125 0 .266.079.375.172.406.328.531.938.531 1.422v.14Zm0 0"/></symbol><symbol overflow="visible" id="f"><path style="stroke:none" d="M1.703-3.031v.015c-.297.094-.64.375-.89.61A1.562 1.562 0 0 0 .39-1.36c0 .968.968 1.546 1.89 1.546.906 0 1.938-.625 1.938-1.687 0-.953-.719-1.344-1.36-1.75.532-.234 1.11-.734 1.11-1.344 0-.953-.89-1.39-1.672-1.39h-.078C1.422-5.954.766-5.422.64-4.61v.093c0 .594.328 1.032.812 1.329a.84.84 0 0 0 .25.156Zm-.828 1.75c0-.032-.016-.078-.016-.11 0-.625.485-1.109.97-1.406.03-.015.077-.062.124-.062s.11.062.156.093l.375.235c.516.312 1.172.594 1.25 1.265C3.734-.484 3-.062 2.328-.062 1.625-.063.984-.47.875-1.282Zm.188-3.485c0-.64.625-.984 1.203-.984.609 0 1.156.328 1.265 1.016 0 .046.016.078.016.093 0 .532-.422.907-.797 1.172-.047.016-.078.047-.125.047s-.094-.047-.14-.062l-.766-.485c-.313-.187-.61-.406-.657-.797Zm0 0"/></symbol><symbol overflow="visible" id="h"><path style="stroke:none" d="M.828-5.406v.281c.453 0 .766-.078 1.203-.234v4.64c0 .406-.344.438-.844.438H.891v.265h2.984V-.28h-.406c-.469 0-.75-.031-.75-.438v-5.11c0-.093-.031-.155-.14-.155-.142 0-.25.156-.36.234-.422.266-.906.344-1.39.344Zm0 0"/></symbol><symbol overflow="visible" id="i"><path style="stroke:none" d="M.266-6.14v.28h.14c.297 0 .547.032.547.454v5.39l.25-.015.344-.531c.312.453.75.656 1.234.656 1.125 0 2.031-.953 2.031-2.047 0-.953-.765-2.016-1.937-2.016-.484 0-.89.172-1.281.563v-2.828Zm3.75 4.406c-.032.421-.079.796-.344 1.109a1.252 1.252 0 0 1-.969.484c-.375 0-.75-.218-.953-.546a.457.457 0 0 1-.125-.297v-2c.063-.391.703-.75 1.172-.75 1.047 0 1.234 1.14 1.234 1.812 0 .063 0 .125-.015.188Zm0 0"/></symbol><symbol overflow="visible" id="j"><path style="stroke:none" d="M1.094-3.484c.25-.22.61-.313.937-.313.313 0 .594.172.781.438.172.25.172.53.172.828v.156c-.734.078-1.468.078-2.093.547-.297.219-.516.578-.516.937 0 .735.875.985 1.469.985.547 0 .968-.281 1.218-.75.079.375.297.703.704.703.546 0 .78-.453.78-.953v-.406h-.25v.453c0 .25-.046.593-.327.593-.297 0-.313-.39-.313-.593v-1.75c0-.938-.812-1.407-1.61-1.407-.562 0-1.39.235-1.39.938 0 .25.14.437.469.437.219-.015.36-.218.36-.421 0-.25-.188-.376-.391-.422Zm1.89 1.328v.875c0 .625-.437 1.14-1.062 1.14h-.063c-.421-.03-.75-.359-.75-.75 0-.859 1.032-1.265 1.875-1.265Zm0 0"/></symbol><symbol overflow="visible" id="k"><path style="stroke:none" d="M.266-3.86v.266h.14c.281 0 .547.031.547.453v2.485c0 .36-.234.375-.687.375v.265L.89-.03h1.562v-.25h-.297c-.312 0-.562-.047-.562-.375v-1.516c.062-.625.234-1.562 1.14-1.562-.125.062-.171.203-.171.328a.39.39 0 1 0 .78 0c0-.375-.359-.563-.687-.563-.547 0-.984.469-1.11.969v-.969Zm0 0"/></symbol><symbol overflow="visible" id="p"><path style="stroke:none" d="M.766-1.063a.388.388 0 0 0 .125.016c.25 0 .453-.172.453-.437a.434.434 0 0 0-.422-.438.457.457 0 0 0-.469.453c0 .875.734 1.657 1.688 1.657 1.078 0 2-.875 2-2 0-.97-.657-1.97-1.766-1.97-.422 0-.86.173-1.172.47v-1.766c.25.062.469.11.719.125h.125c.61 0 1.234-.266 1.64-.734.047-.063.094-.11.094-.188v-.016c-.015-.062-.047-.093-.094-.093-.062 0-.14.062-.203.078-.296.14-.765.218-1.125.218-.406 0-.796-.093-1.171-.234a.252.252 0 0 0-.141-.047H1.03a.1.1 0 0 0-.093.094v2.86c0 .078.015.171.125.171.109 0 .203-.203.25-.234.25-.297.64-.469 1.03-.469h.016c.922 0 .985 1.219.985 1.781 0 .579-.11 1.235-.688 1.563a1.14 1.14 0 0 1-.547.14c-.625 0-1.093-.406-1.343-1Zm0 0"/></symbol><symbol overflow="visible" id="q"><path style="stroke:none" d="M.953-3.86H.25v.266h.703v2.969c0 .313-.25.344-.547.344h-.14v.265L.922-.03h.734l.625.015V-.28h-.203c-.25 0-.484-.031-.484-.344v-2.969h1.922v2.969c0 .313-.266.344-.563.344h-.125v.265l.625-.015h.735l.656.015V-.28h-.219c-.25 0-.469-.047-.469-.36v-5.593c-.11.015-.218.046-.328.046h-.031c-.063 0-.172-.062-.235-.078a1.613 1.613 0 0 0-.468-.062h-.156c-.922 0-1.985.469-1.985 1.469Zm2.563 0H1.562v-.968c0-.656.422-1.281 1.375-1.281.204 0 .376.03.579.062-.125.094-.204.203-.204.36 0 .218.188.265.204.406.015.047.015.11.015.156 0 .11-.015.219-.015.313Zm0 0"/></symbol><symbol overflow="visible" id="r"><path style="stroke:none" d="M.313-3.86v.266H.39c.25 0 .593.031.593.281.016.11.016.188.016.297v1.782c0 .28.016.53.14.78.266.438.813.548 1.282.548.5 0 .984-.297 1.14-.766l.016.766 1.328-.11V-.28H4.75c-.266 0-.531-.031-.531-.438v-3.25l-1.36.11v.265h.125c.282 0 .563.031.563.453v1.766C3.5-.797 3.14-.141 2.453-.141c-.36 0-.687-.078-.765-.546-.016-.172-.016-.329-.016-.5V-3.97Zm0 0"/></symbol><symbol overflow="visible" id="s"><path style="stroke:none" d="M.172-3.86v.266h.172c.453 0 .594.188.797.453.171.235.359.454.546.688l.329.406c.03.047.093.11.093.156 0 .094-.265.36-.406.532C1.281-.83.875-.281.125-.281v.265L.578-.03h1.156v-.25C1.563-.328 1.5-.421 1.5-.562c0-.204.156-.36.297-.5.156-.204.344-.407.5-.61h.015c.22.328.516.64.75.969.047.047.126.125.126.203 0 .125-.188.203-.313.219v.265h1.86V-.28h-.173c-.453 0-.609-.188-.812-.469-.328-.39-.625-.797-.953-1.203-.031-.031-.11-.094-.11-.156 0-.094.25-.344.376-.485.437-.531.812-1 1.515-1v-.265l-.469.015H2.953v.25c.156 0 .235.156.235.281 0 .188-.126.297-.22.422-.155.188-.327.375-.452.563H2.5c-.219-.328-.578-.625-.75-.953-.016-.031-.031-.063-.031-.094 0-.125.187-.203.312-.219v-.265Zm0 0"/></symbol><symbol overflow="visible" id="t"><path style="stroke:none" d="M2.828-6.14v.28h.094c.36 0 .594.016.594.548v1.875a1.532 1.532 0 0 0-1.172-.532c-1.11 0-2.031.938-2.031 2.047C.313-.906 1.14.094 2.266.094c.421 0 .984-.203 1.218-.578v.578l1.36-.11V-.28h-.14c-.298 0-.548-.031-.548-.453v-5.5Zm-1.75 4.406v-.125c0-.72.188-1.875 1.313-1.875.468 0 1.109.343 1.109.906 0 .11-.016.219-.016.328v1.484c0 .11-.046.188-.109.282-.234.343-.64.593-1.063.593a1.14 1.14 0 0 1-.89-.453c-.25-.328-.297-.734-.344-1.14Zm0 0"/></symbol><symbol overflow="visible" id="u"><path style="stroke:none" d="M1.031-2.063h2.657c.109 0 .156-.046.156-.156 0-1.125-.703-1.797-1.64-1.797-1.095 0-1.954.954-1.954 2.047C.25-.875 1.125.094 2.344.094c.64 0 1.281-.453 1.469-1.078.015-.016.015-.063.015-.094a.107.107 0 0 0-.11-.11c-.171 0-.171.266-.265.391-.219.375-.656.64-1.094.64h-.062C1.828-.171 1.422-.5 1.219-.921c-.172-.36-.188-.75-.188-1.14Zm.016-.218c0-.594.25-1.281.906-1.485a.914.914 0 0 1 .203-.03c.781 0 1.063.796 1.063 1.515Zm0 0"/></symbol><symbol overflow="visible" id="v"><path style="stroke:none" d="M.266-3.86v.266h.171c.266 0 .516.031.516.39v4.282c0 .375-.265.375-.687.375v.281l.64-.03h1.406v-.25h-.218c-.25 0-.469-.032-.469-.36V-.438c.297.329.656.532 1.125.532 1.078 0 2.063-.875 2.063-2.031 0-1.016-.797-2.032-1.938-2.032-.5 0-.953.219-1.281.563v-.563Zm3.75 2.063C3.984-1.094 3.562-.14 2.672-.14c-.469 0-1.047-.453-1.047-.843v-1.47c0-.124-.016-.233-.016-.343 0-.5.657-.922 1.172-.922.844 0 1.25 1.063 1.25 1.75 0 .047 0 .11-.015.172Zm0 0"/></symbol><symbol overflow="visible" id="w"><path style="stroke:none" d="M1.36-5.531c0 .656-.298 1.718-1.188 1.718v.22h.781v2.374c0 .282.016.547.156.782.22.39.672.53 1.079.53h.078c.687-.124.796-.859.796-1.39v-.328h-.25c0 .125.016.25.016.39 0 .391-.094 1.079-.625 1.079-.484 0-.594-.563-.594-1.016v-2.422h1.313v-.265H1.609v-1.672Zm0 0"/></symbol><symbol overflow="visible" id="x"><path style="stroke:none" d="M.36-3.86v.266H.5c.297 0 .516.047.516.453v2.485c0 .36-.25.375-.688.375v.265h1.938V-.28h-.141c-.234 0-.469-.031-.469-.313v-3.375Zm.765-2.156c-.234.047-.422.235-.422.485s.219.468.485.468h.062a.474.474 0 0 0 .422-.468.477.477 0 0 0-.484-.485Zm0 0"/></symbol><symbol overflow="visible" id="y"><path style="stroke:none" d="M3.25-3.531c-.188.062-.36.172-.36.422 0 .218.157.406.422.406.235 0 .422-.172.422-.438 0-.64-.765-.859-1.312-.875h-.094A2.04 2.04 0 0 0 .313-1.953c0 1.094.859 2.047 2 2.047.624 0 1.203-.328 1.453-.969.015-.063.062-.14.062-.203s-.062-.11-.125-.11c-.156 0-.156.235-.234.36-.219.406-.61.672-1.094.672-.984 0-1.297-1.125-1.297-1.813 0-.734.266-1.797 1.266-1.797.25 0 .515.032.734.141.063.016.11.063.172.094Zm0 0"/></symbol><symbol overflow="visible" id="z"><path style="stroke:none" d="M.328-6.14v.28h.11c.312 0 .578.016.578.47v4.718c0 .375-.25.39-.641.39H.328v.266h2.016V-.28h-.235c-.234 0-.453-.047-.453-.36v-5.593Zm0 0"/></symbol><symbol overflow="visible" id="A"><path style="stroke:none" d="M.813-.313c.296.297.656.407 1.046.407.735 0 1.454-.375 1.454-1.25v-.094c-.032-.516-.422-.89-.876-1.063a3.528 3.528 0 0 0-.703-.156c-.375-.078-.968-.187-.968-.703 0-.515.656-.656 1.03-.656.579 0 .985.344 1.032.969 0 .078.016.171.125.171.063 0 .125-.03.125-.109v-1.078c0-.063-.015-.14-.094-.14-.14 0-.234.218-.343.218h-.016c-.063-.015-.125-.062-.188-.094-.187-.093-.421-.125-.64-.125-.625 0-1.484.204-1.484 1.125 0 .907 1.046 1.047 1.687 1.172.39.078.828.313.86.75 0 .64-.532.828-1.016.828h-.078C1.109-.17.75-.656.594-1.28c-.031-.094-.031-.25-.156-.25-.11 0-.126.078-.126.156v1.156c0 .047-.015.078-.015.125 0 .094.016.188.11.188.093 0 .156-.11.218-.172l.031-.047c.063-.063.11-.11.156-.188Zm0 0"/></symbol><symbol overflow="visible" id="B"><path style="stroke:none" d="M.36-6.14v.28h.343c.297 0 .578.048.578.391v4.782c0 .39-.328.406-.672.406H.36v.265h2.563c.203 0 .39.016.594.016 1.078 0 2.437-.516 2.89-2.14.078-.297.11-.579.11-.876 0-1.609-1.11-3.125-2.985-3.125h-.61ZM5.624-2.72c0 1.11-.547 2.063-1.547 2.344-.297.094-.578.094-.875.094h-.797c-.203 0-.36-.047-.36-.328V-5.453c0-.266.032-.406.407-.406h.766c.656 0 1.344.093 1.875.78.468.579.547 1.407.547 2.11 0 .078-.016.156-.016.25Zm0 0"/></symbol><symbol overflow="visible" id="C"><path style="stroke:none" d="M1.031-2.063h2.657c.109 0 .156-.046.156-.156 0-1.125-.703-1.797-1.64-1.797-1.095 0-1.954.954-1.954 2.047C.25-.875 1.125.094 2.344.094c.64 0 1.281-.453 1.469-1.078.015-.016.015-.063.015-.094a.107.107 0 0 0-.11-.11c-.171 0-.171.266-.265.391-.219.375-.656.64-1.094.64h-.062C1.828-.171 1.422-.5 1.219-.921c-.172-.36-.188-.75-.188-1.14Zm.016-.218c0-.594.25-1.281.906-1.485a.914.914 0 0 1 .203-.03c.781 0 1.063.796 1.063 1.515Zm1.484-3.5c-.156.015-.312.203-.422.312-.28.282-.578.547-.859.828-.016.016-.016.032-.016.047 0 .063.079.188.141.188.047 0 .094-.047.125-.063l.25-.14c.39-.22 1.172-.516 1.172-.829 0-.171-.156-.359-.344-.359-.015 0-.031.016-.047.016Zm0 0"/></symbol><symbol overflow="visible" id="D"><path style="stroke:none" d="M3.484-.531v1.625c0 .328-.187.36-.687.36v.28l.64-.03h1.407v-.25h-.188c-.281 0-.5-.032-.5-.376v-5.047l-.218.016-.11.203-.234.578c-.094-.11-.156-.234-.235-.328a1.316 1.316 0 0 0-1.03-.469c-1.079 0-2.017.906-2.017 2.016 0 1.047.813 2.047 1.954 2.047.453 0 .984-.235 1.218-.625ZM1.078-1.797v-.11c0-.734.39-1.765 1.297-1.812h.031c.578 0 1.016.563 1.11 1.094v1.406c0 .735-.922 1.078-1.204 1.078h-.046C1.609-.188 1.25-.859 1.14-1.42c-.032-.126-.032-.25-.063-.376Zm0 0"/></symbol><symbol overflow="visible" id="E"><path style="stroke:none" d="M.313-6.14v.28h.156c.281 0 .531.032.531.47v4.515c0 .063.016.125.016.203 0 .375-.266.39-.641.39H.312v.266L.954-.03H2.36v-.25h-.203c-.265 0-.484-.047-.484-.375v-1.61c0-.687.406-1.468 1.25-1.468.484 0 .625.437.625 1v2.109c0 .313-.25.344-.547.344h-.14v.265L3.5-.03h1.406v-.25h-.172c-.265 0-.515-.031-.515-.36v-2.015c0-.281-.016-.547-.14-.781-.22-.407-.673-.532-1.095-.532-.515 0-1.125.297-1.328.844l-.015-3.11Zm0 0"/></symbol><symbol overflow="visible" id="F"><path style="stroke:none" d="M.313-3.86v.266h.14c.266 0 .547.031.547.453v2.485c0 .36-.234.375-.688.375v.265L.954-.03H2.36v-.25h-.203c-.265 0-.484-.047-.484-.375v-1.797c.047-.64.484-1.281 1.25-1.281.578 0 .64.578.64 1v2.109c0 .313-.265.344-.562.344h-.125v.265L3.5-.03h1.422v-.25h-.219c-.25 0-.484-.047-.484-.375v-1.797c.062-.64.484-1.281 1.265-1.281.563 0 .625.578.625 1v2.109c0 .313-.25.344-.546.344h-.141v.265h2.047V-.28h-.172c-.25 0-.516-.031-.516-.36v-2.015c0-.281-.015-.547-.14-.781-.235-.422-.704-.532-1.141-.532-.547 0-1.11.36-1.297.86h-.016c-.078-.625-.656-.86-1.203-.86-.578 0-1.14.328-1.359.89l-.016-.89Zm0 0"/></symbol><symbol overflow="visible" id="G"><path style="stroke:none" d="M1.016-5.203c.265-.344.734-.563 1.203-.563.5 0 .906.313.906 1.032 0 .562-.234 1.25-.781 1.421-.328.11-.813-.03-.813.188 0 .063.047.11.11.11h.468c.813 0 1.188.578 1.188 1.5 0 .624-.25 1.452-1.078 1.452-.547 0-1.125-.234-1.422-.703h.078a.477.477 0 0 0 .484-.484.468.468 0 0 0-.484-.484c-.344 0-.484.265-.484.515C.39-.266 1.437.188 2.25.188c.938 0 1.969-.641 1.969-1.704 0-.625-.375-1.171-.969-1.468-.156-.079-.328-.157-.516-.172.11-.094.313-.14.454-.235.468-.296.78-.796.78-1.39v-.078c-.093-.766-1.015-1.125-1.718-1.125-.719 0-1.61.406-1.61 1.218 0 .297.204.454.454.454a.44.44 0 0 0 .453-.438.453.453 0 0 0-.453-.453h-.078Zm0 0"/></symbol><symbol overflow="visible" id="H"><path style="stroke:none" d="M1.219-2.984h-.016c0-.782.063-1.641.61-2.266.265-.313.625-.516 1.03-.516.298 0 .595.125.782.36h-.031c-.235 0-.438.156-.438.406 0 .219.156.422.406.422.266 0 .422-.172.422-.453 0-.64-.593-.953-1.156-.953C1.25-5.984.391-4.297.391-2.891.39-1.703.64.188 2.344.188c.875 0 1.61-.672 1.812-1.438a2.47 2.47 0 0 0 .063-.594c0-.984-.719-2-1.813-2-.515 0-1.031.344-1.187.86Zm.015 1.03v-.077c0-.547.235-1.438.922-1.563.094-.015.172-.015.266-.015.875.03.969 1.093.969 1.718v.063c0 .672-.032 1.766-1.079 1.766-1 0-1.015-1.235-1.078-1.891Zm0 0"/></symbol><symbol overflow="visible" id="I"><path style="stroke:none" d="M.344-6.11v.282h.344c.296 0 .562.031.562.39v4.75c0 .36-.297.407-.594.407H.344v.265h5.265L6-2.328h-.25c-.094.562-.188 1.203-.563 1.61-.406.421-1.046.437-1.593.437h-1.14c-.188 0-.392 0-.392-.328v-2.438h.86c.312 0 .672.031.828.297.125.188.14.438.14.672v.094h.25v-2.391h-.25v.094c0 .5-.124.906-.687.937-.156.031-.344.031-.515.031h-.626v-2.203c0-.312.188-.312.391-.312h1.172c.625 0 1.328.031 1.656.719.14.328.172.671.219 1.015h.25L5.5-6.109Zm2.406-.765.11.234c.421-.14.843-.25 1.265-.39.188-.047.5-.094.5-.375 0-.188-.156-.36-.344-.36-.11 0-.203.079-.297.125l-.28.172c-.313.188-.626.39-.954.594Zm0 0"/></symbol><symbol overflow="visible" id="J"><path style="stroke:none" d="M1.016-3.86h-.72v.266h.72v2.969c0 .313-.266.344-.563.344H.328v.265L.953-.03h1.563v-.25h-.297c-.328 0-.563-.047-.563-.422v-2.89h1.032v-.266H1.625v-.829c0-.578.14-1.421.828-1.421.078 0 .188.015.266.062a.395.395 0 0 0-.235.36c0 .218.172.39.391.39.266 0 .406-.172.406-.39 0-.422-.453-.641-.828-.641-.625 0-1.187.406-1.39.984-.047.172-.047.344-.047.516Zm0 0"/></symbol><symbol overflow="visible" id="K"><path style="stroke:none" d="M2.172-4.016c-1.047.11-1.906.954-1.906 2.094C.266-1 .953.094 2.312.094c1.047 0 2.032-.844 2.032-2 0-1.078-.844-2.125-2.047-2.125-.047 0-.078.015-.125.015ZM1.047-1.719v-.375c0-.719.219-1.703 1.266-1.703.703 0 1.156.563 1.234 1.281.015.188.015.375.015.563 0 .469-.03 1-.359 1.375a1.19 1.19 0 0 1-.906.422c-.656 0-1.11-.5-1.235-1.219 0-.11 0-.219-.015-.344Zm0 0"/></symbol><symbol overflow="visible" id="L"><path style="stroke:none" d="M.953-3.86H.25v.266h.703v2.969c0 .313-.25.344-.547.344h-.14v.265L.922-.03h.734l.625.015V-.28h-.203c-.25 0-.484-.031-.484-.344v-2.969h1.468c.25 0 .454.078.454.422v2.5c0 .297-.094.39-.688.39v.266l.625-.015h.735l.656.015V-.28h-.219c-.234 0-.469-.047-.469-.375V-3.97l-1.39.11H1.562v-.922c0-.188.016-.375.094-.563.203-.468.75-.765 1.266-.765.281 0 .562.078.765.265a.426.426 0 0 0-.39.422.42.42 0 0 0 .422.422.42.42 0 0 0 .422-.422v-.016c0-.625-.688-.89-1.22-.89-.89 0-1.968.453-1.968 1.469Zm0 0"/></symbol><symbol overflow="visible" id="d"><path style="stroke:none" d="M6.281-3.078c0-1.906-1.328-3.344-2.875-3.344-1.562 0-2.89 1.438-2.89 3.344 0 1.86 1.343 3.281 2.89 3.281 1.547 0 2.875-1.422 2.875-3.281ZM3.406-.438c-1.078 0-2.031-1.093-2.031-2.78 0-1.641 1-2.595 2.031-2.595 1.016 0 2.016.954 2.016 2.594 0 1.688-.953 2.781-2.016 2.781Zm0 0"/></symbol><symbol overflow="visible" id="g"><path style="stroke:none" d="M2.516-5.344a5.006 5.006 0 0 0-.22-.422c-.046-.093-.187-.359-.233-.453H.875V0h.734v-5.531h.016l2.36 4.64c.078.141.187.36.234.422.047.11.172.375.234.469h1.172v-6.219h-.734v5.516Zm0 0"/></symbol><symbol overflow="visible" id="e"><path style="stroke:none" d="M1.688-.453H.796l.922-.828c.11-.094.406-.313.515-.407.266-.234.625-.546.625-1.078 0-.671-.5-1.28-1.359-1.28-.64 0-1.031.343-1.234.952l.28.344c.141-.5.345-.89.86-.89.516 0 .89.359.89.89 0 .5-.296.781-.655 1.125-.11.11-.438.39-.563.5-.172.156-.594.563-.766.719V0H2.86v-.453Zm0 0"/></symbol><symbol overflow="visible" id="l"><path style="stroke:none" d="M4.14-1.594h-.25c-.015.125-.093.657-.203.797-.062.078-.671.078-.859.078H1.234l.891-.844c1.469-1.265 2.016-1.75 2.016-2.656 0-1.031-.844-1.75-1.954-1.75-1.03 0-1.734.813-1.734 1.625 0 .453.39.5.469.5.203 0 .469-.14.469-.469a.451.451 0 0 0-.47-.468c-.046 0-.062 0-.109.015.22-.64.797-.921 1.282-.921.906 0 1.219.843 1.219 1.468 0 .907-.688 1.657-1.11 2.125L.563-.328c-.11.11-.11.125-.11.328h3.438Zm0 0"/></symbol><symbol overflow="visible" id="m"><path style="stroke:none" d="M4.25-2.875c0-.594-.031-1.375-.344-2.047-.406-.844-1.078-1.047-1.594-1.047-.546 0-1.234.203-1.624 1.078-.282.61-.329 1.344-.329 2.016 0 .594.016 1.453.407 2.172.421.75 1.125.906 1.53.906.579 0 1.25-.25 1.626-1.078.265-.61.328-1.281.328-2ZM2.312-.031c-.28 0-.921-.125-1.093-1.14-.094-.516-.094-1.298-.094-1.813 0-.61 0-1.313.11-1.813.187-.797.75-.953 1.062-.953.344 0 .906.188 1.078 1.016.094.484.094 1.187.094 1.75 0 .562 0 1.312-.094 1.843C3.187-.109 2.531-.03 2.312-.03Zm0 0"/></symbol><symbol overflow="visible" id="o"><path style="stroke:none" d="M5.422-5.547c-.281-.281-.797-.781-1.703-.781-1.735 0-3.203 1.453-3.203 3.266C.516-1.22 2 .203 3.719.203 5.203.203 6.14-1.03 6.14-2.078c0-.094 0-.172-.125-.172s-.125.063-.125.14A2.085 2.085 0 0 1 3.812-.077c-.765 0-2.39-.484-2.39-2.985 0-2.5 1.64-2.984 2.375-2.984.89 0 1.828.672 2.047 2.125.015.125.031.156.14.156.157 0 .157-.03.157-.218v-2.11c0-.156 0-.234-.11-.234-.062 0-.093.031-.14.11Zm0 0"/></symbol><symbol overflow="visible" id="n"><path style="stroke:none" d="M3.266-1.5c0-.75-.61-1.36-1.36-1.36-.734 0-1.343.61-1.343 1.36 0 .766.609 1.36 1.343 1.36.75 0 1.36-.594 1.36-1.36ZM1.906-.453A1.024 1.024 0 0 1 .875-1.5c0-.578.453-1.047 1.031-1.047.578 0 1.047.469 1.047 1.047 0 .594-.469 1.047-1.047 1.047Zm0 0"/></symbol></defs><path style="stroke:none;fill-rule:nonzero;fill:#effafb;fill-opacity:1" d="M5.68 79.805V23.113h141.734v56.692Zm0 0"/><path style="fill:none;stroke-width:.79701;stroke-linecap:butt;stroke-linejoin:miter;stroke:#000;stroke-opacity:1;stroke-miterlimit:10" d="M70.868.001v14.172m0 28.348v14.172" transform="matrix(1 0 0 -1 5.679 79.806)"/><path style="fill:none;stroke-width:1.39478;stroke-linecap:butt;stroke-linejoin:miter;stroke:#000;stroke-opacity:1;stroke-miterlimit:10" d="M0 .001v56.692h141.735V0Zm0 0" transform="matrix(1 0 0 -1 5.679 79.806)"/><path style="fill:none;stroke-width:.59776;stroke-linecap:butt;stroke-linejoin:miter;stroke:#fff;stroke-opacity:1;stroke-miterlimit:10" d="M0 .001v56.692h141.735V0Zm0 0" transform="matrix(1 0 0 -1 5.679 79.806)"/><g style="fill:#000;fill-opacity:1"><use xlink:href="#a" x="12.653" y="39.956"/><use xlink:href="#b" x="17.26" y="39.956"/><use xlink:href="#c" x="21.867" y="39.956"/></g><use xlink:href="#d" x="32.614" y="39.956" style="fill:#000;fill-opacity:1"/><use xlink:href="#e" x="39.422" y="40.952" style="fill:#000;fill-opacity:1"/><g style="fill:#000;fill-opacity:1"><use xlink:href="#f" x="12.653" y="50.915"/><use xlink:href="#b" x="17.26" y="50.915"/><use xlink:href="#c" x="21.867" y="50.915"/></g><use xlink:href="#g" x="32.614" y="50.915" style="fill:#000;fill-opacity:1"/><use xlink:href="#e" x="39.131" y="51.911" style="fill:#000;fill-opacity:1"/><use xlink:href="#h" x="12.653" y="61.873" style="fill:#000;fill-opacity:1"/><g style="fill:#000;fill-opacity:1"><use xlink:href="#i" x="20.326" y="61.873"/><use xlink:href="#j" x="25.444" y="61.873"/><use xlink:href="#k" x="30.051" y="61.873"/></g><g style="fill:#000;fill-opacity:1"><use xlink:href="#l" x="12.653" y="72.832"/><use xlink:href="#m" x="17.261" y="72.832"/></g><use xlink:href="#n" x="23.404" y="69.023" style="fill:#000;fill-opacity:1"/><use xlink:href="#o" x="27.721" y="72.832" style="fill:#000;fill-opacity:1"/><g style="fill:#000;fill-opacity:1"><use xlink:href="#p" x="102.899" y="39.956"/><use xlink:href="#b" x="107.506" y="39.956"/><use xlink:href="#c" x="112.113" y="39.956"/></g><use xlink:href="#d" x="122.86" y="39.956" style="fill:#000;fill-opacity:1"/><use xlink:href="#e" x="129.668" y="40.952" style="fill:#000;fill-opacity:1"/><g style="fill:#000;fill-opacity:1"><use xlink:href="#p" x="102.899" y="50.915"/><use xlink:href="#b" x="107.506" y="50.915"/><use xlink:href="#c" x="112.113" y="50.915"/></g><use xlink:href="#g" x="122.86" y="50.915" style="fill:#000;fill-opacity:1"/><use xlink:href="#e" x="129.378" y="51.911" style="fill:#000;fill-opacity:1"/><use xlink:href="#h" x="102.899" y="61.873" style="fill:#000;fill-opacity:1"/><g style="fill:#000;fill-opacity:1"><use xlink:href="#i" x="110.572" y="61.873"/><use xlink:href="#j" x="115.69" y="61.873"/><use xlink:href="#k" x="120.297" y="61.873"/></g><g style="fill:#000;fill-opacity:1"><use xlink:href="#l" x="102.899" y="72.832"/><use xlink:href="#m" x="107.507" y="72.832"/></g><use xlink:href="#n" x="113.65" y="69.023" style="fill:#000;fill-opacity:1"/><use xlink:href="#o" x="117.967" y="72.832" style="fill:#000;fill-opacity:1"/><path style="fill:none;stroke-width:.3985;stroke-linecap:butt;stroke-linejoin:miter;stroke:#000;stroke-opacity:1;stroke-miterlimit:10" d="M60.903 30.341h17.934" transform="matrix(1 0 0 -1 5.679 79.806)"/><path style="stroke:none;fill-rule:nonzero;fill:#000;fill-opacity:1" d="M86.508 49.465 83.32 47.87l1.196 1.594-1.196 1.597"/><g style="fill:#000;fill-opacity:1"><use xlink:href="#q" x="62.851" y="47.475"/><use xlink:href="#r" x="67.969" y="47.475"/><use xlink:href="#s" x="73.087" y="47.475"/></g><g style="fill:#000;fill-opacity:1"><use xlink:href="#t" x="81.025" y="47.475"/><use xlink:href="#u" x="86.143" y="47.475"/></g><path style="fill:none;stroke-width:.3985;stroke-linecap:butt;stroke-linejoin:miter;stroke:#000;stroke-opacity:1;stroke-miterlimit:10" d="M62.895 26.353H80.83" transform="matrix(1 0 0 -1 5.679 79.806)"/><path style="stroke:none;fill-rule:nonzero;fill:#000;fill-opacity:1" d="m66.582 53.453 3.188 1.594-1.196-1.594 1.196-1.594"/><g style="fill:#000;fill-opacity:1"><use xlink:href="#v" x="57.057" y="61.62"/><use xlink:href="#j" x="62.175" y="61.62"/><use xlink:href="#k" x="66.782" y="61.62"/><use xlink:href="#w" x="70.386" y="61.62"/><use xlink:href="#x" x="73.969" y="61.62"/><use xlink:href="#y" x="76.528" y="61.62"/><use xlink:href="#r" x="80.622" y="61.62"/><use xlink:href="#z" x="85.741" y="61.62"/><use xlink:href="#u" x="88.3" y="61.62"/><use xlink:href="#A" x="92.398" y="61.62"/></g><g style="fill:#000;fill-opacity:1"><use xlink:href="#B" x="32.42" y="87.974"/><use xlink:href="#C" x="39.457" y="87.974"/><use xlink:href="#A" x="43.555" y="87.974"/><use xlink:href="#C" x="47.189" y="87.974"/><use xlink:href="#D" x="51.288" y="87.974"/><use xlink:href="#r" x="56.15" y="87.974"/><use xlink:href="#x" x="61.268" y="87.974"/><use xlink:href="#z" x="63.828" y="87.974"/><use xlink:href="#x" x="66.387" y="87.974"/><use xlink:href="#i" x="68.946" y="87.974"/><use xlink:href="#k" x="74.064" y="87.974"/><use xlink:href="#u" x="77.667" y="87.974"/></g><use xlink:href="#y" x="84.841" y="87.974" style="fill:#000;fill-opacity:1"/><g style="fill:#000;fill-opacity:1"><use xlink:href="#E" x="88.676" y="87.974"/><use xlink:href="#x" x="93.794" y="87.974"/><use xlink:href="#F" x="96.353" y="87.974"/><use xlink:href="#x" x="104.031" y="87.974"/><use xlink:href="#D" x="106.59" y="87.974"/><use xlink:href="#r" x="111.453" y="87.974"/><use xlink:href="#u" x="116.571" y="87.974"/></g><path style="stroke:none;fill-rule:nonzero;fill:#effafb;fill-opacity:1" d="M175.762 79.805V23.113h141.73v56.692Zm0 0"/><path style="fill:none;stroke-width:.79701;stroke-linecap:butt;stroke-linejoin:miter;stroke:#000;stroke-opacity:1;stroke-miterlimit:10" d="M240.946.001v14.172m0 28.348v14.172" transform="matrix(1 0 0 -1 5.679 79.806)"/><path style="fill:none;stroke-width:1.39478;stroke-linecap:butt;stroke-linejoin:miter;stroke:#000;stroke-opacity:1;stroke-miterlimit:10" d="M170.083.001v56.692h141.73V0Zm0 0" transform="matrix(1 0 0 -1 5.679 79.806)"/><path style="fill:none;stroke-width:.59776;stroke-linecap:butt;stroke-linejoin:miter;stroke:#fff;stroke-opacity:1;stroke-miterlimit:10" d="M170.083.001v56.692h141.73V0Zm0 0" transform="matrix(1 0 0 -1 5.679 79.806)"/><g style="fill:#000;fill-opacity:1"><use xlink:href="#G" x="182.731" y="39.956"/><use xlink:href="#p" x="187.338" y="39.956"/><use xlink:href="#c" x="191.945" y="39.956"/></g><use xlink:href="#d" x="202.693" y="39.956" style="fill:#000;fill-opacity:1"/><use xlink:href="#e" x="209.501" y="40.952" style="fill:#000;fill-opacity:1"/><g style="fill:#000;fill-opacity:1"><use xlink:href="#H" x="182.731" y="50.915"/><use xlink:href="#p" x="187.338" y="50.915"/><use xlink:href="#c" x="191.945" y="50.915"/></g><use xlink:href="#g" x="202.693" y="50.915" style="fill:#000;fill-opacity:1"/><use xlink:href="#e" x="209.21" y="51.911" style="fill:#000;fill-opacity:1"/><use xlink:href="#h" x="182.731" y="61.873" style="fill:#000;fill-opacity:1"/><use xlink:href="#i" x="190.404" y="61.873" style="fill:#000;fill-opacity:1"/><use xlink:href="#j" x="195.531" y="61.873" style="fill:#000;fill-opacity:1"/><use xlink:href="#k" x="200.129" y="61.873" style="fill:#000;fill-opacity:1"/><g style="fill:#000;fill-opacity:1"><use xlink:href="#l" x="182.731" y="72.832"/><use xlink:href="#m" x="187.339" y="72.832"/></g><use xlink:href="#n" x="193.482" y="69.023" style="fill:#000;fill-opacity:1"/><use xlink:href="#o" x="197.8" y="72.832" style="fill:#000;fill-opacity:1"/><g style="fill:#000;fill-opacity:1"><use xlink:href="#G" x="272.977" y="39.956"/><use xlink:href="#p" x="277.584" y="39.956"/><use xlink:href="#c" x="282.191" y="39.956"/></g><use xlink:href="#d" x="292.939" y="39.956" style="fill:#000;fill-opacity:1"/><use xlink:href="#e" x="299.747" y="40.952" style="fill:#000;fill-opacity:1"/><g style="fill:#000;fill-opacity:1"><use xlink:href="#H" x="272.977" y="50.915"/><use xlink:href="#p" x="277.584" y="50.915"/><use xlink:href="#c" x="282.191" y="50.915"/></g><use xlink:href="#g" x="292.939" y="50.915" style="fill:#000;fill-opacity:1"/><use xlink:href="#e" x="299.456" y="51.911" style="fill:#000;fill-opacity:1"/><use xlink:href="#h" x="272.977" y="61.873" style="fill:#000;fill-opacity:1"/><use xlink:href="#i" x="280.65" y="61.873" style="fill:#000;fill-opacity:1"/><use xlink:href="#j" x="285.777" y="61.873" style="fill:#000;fill-opacity:1"/><use xlink:href="#k" x="290.375" y="61.873" style="fill:#000;fill-opacity:1"/><g style="fill:#000;fill-opacity:1"><use xlink:href="#l" x="272.977" y="72.832"/><use xlink:href="#m" x="277.585" y="72.832"/></g><use xlink:href="#n" x="283.729" y="69.023" style="fill:#000;fill-opacity:1"/><use xlink:href="#o" x="288.046" y="72.832" style="fill:#000;fill-opacity:1"/><g style="fill:#000;fill-opacity:1"><use xlink:href="#I" x="208.798" y="89.497"/><use xlink:href="#D" x="215.067" y="89.497"/><use xlink:href="#r" x="219.93" y="89.497"/><use xlink:href="#x" x="225.048" y="89.497"/><use xlink:href="#z" x="227.607" y="89.497"/><use xlink:href="#x" x="230.166" y="89.497"/><use xlink:href="#i" x="232.725" y="89.497"/><use xlink:href="#k" x="237.843" y="89.497"/><use xlink:href="#u" x="241.446" y="89.497"/></g><use xlink:href="#y" x="248.62" y="89.497" style="fill:#000;fill-opacity:1"/><g style="fill:#000;fill-opacity:1"><use xlink:href="#E" x="252.455" y="89.497"/><use xlink:href="#x" x="257.573" y="89.497"/><use xlink:href="#F" x="260.132" y="89.497"/><use xlink:href="#x" x="267.81" y="89.497"/><use xlink:href="#D" x="270.369" y="89.497"/><use xlink:href="#r" x="275.232" y="89.497"/><use xlink:href="#u" x="280.35" y="89.497"/></g><path style="stroke:none;fill-rule:nonzero;fill:#effafb;fill-opacity:1" d="M345.84 79.805V23.113h141.734v56.692Zm0 0"/><path style="fill:none;stroke-width:.79701;stroke-linecap:butt;stroke-linejoin:miter;stroke:#000;stroke-opacity:1;stroke-miterlimit:10" d="M411.028.001v56.692" transform="matrix(1 0 0 -1 5.679 79.806)"/><path style="fill:none;stroke-width:1.39478;stroke-linecap:butt;stroke-linejoin:miter;stroke:#000;stroke-opacity:1;stroke-miterlimit:10" d="M340.16.001v56.692h141.735V0Zm0 0" transform="matrix(1 0 0 -1 5.679 79.806)"/><path style="fill:none;stroke-width:.59776;stroke-linecap:butt;stroke-linejoin:miter;stroke:#fff;stroke-opacity:1;stroke-miterlimit:10" d="M340.16.001v56.692h141.735V0Zm0 0" transform="matrix(1 0 0 -1 5.679 79.806)"/><g style="fill:#000;fill-opacity:1"><use xlink:href="#a" x="352.81" y="39.956"/><use xlink:href="#b" x="357.417" y="39.956"/><use xlink:href="#c" x="362.024" y="39.956"/></g><use xlink:href="#d" x="372.771" y="39.956" style="fill:#000;fill-opacity:1"/><use xlink:href="#e" x="379.579" y="40.952" style="fill:#000;fill-opacity:1"/><g style="fill:#000;fill-opacity:1"><use xlink:href="#f" x="352.81" y="50.915"/><use xlink:href="#b" x="357.417" y="50.915"/><use xlink:href="#c" x="362.024" y="50.915"/></g><use xlink:href="#g" x="372.771" y="50.915" style="fill:#000;fill-opacity:1"/><use xlink:href="#e" x="379.289" y="51.911" style="fill:#000;fill-opacity:1"/><use xlink:href="#h" x="352.81" y="61.873" style="fill:#000;fill-opacity:1"/><g style="fill:#000;fill-opacity:1"><use xlink:href="#i" x="360.483" y="61.873"/><use xlink:href="#j" x="365.601" y="61.873"/><use xlink:href="#k" x="370.208" y="61.873"/></g><g style="fill:#000;fill-opacity:1"><use xlink:href="#l" x="352.81" y="72.832"/><use xlink:href="#m" x="357.418" y="72.832"/></g><use xlink:href="#n" x="363.561" y="69.023" style="fill:#000;fill-opacity:1"/><use xlink:href="#o" x="367.878" y="72.832" style="fill:#000;fill-opacity:1"/><g style="fill:#000;fill-opacity:1"><use xlink:href="#p" x="443.056" y="39.956"/><use xlink:href="#b" x="447.663" y="39.956"/><use xlink:href="#c" x="452.27" y="39.956"/></g><use xlink:href="#d" x="463.018" y="39.956" style="fill:#000;fill-opacity:1"/><use xlink:href="#e" x="469.825" y="40.952" style="fill:#000;fill-opacity:1"/><g style="fill:#000;fill-opacity:1"><use xlink:href="#p" x="443.056" y="50.915"/><use xlink:href="#b" x="447.663" y="50.915"/><use xlink:href="#c" x="452.27" y="50.915"/></g><use xlink:href="#g" x="463.018" y="50.915" style="fill:#000;fill-opacity:1"/><use xlink:href="#e" x="469.535" y="51.911" style="fill:#000;fill-opacity:1"/><use xlink:href="#h" x="443.056" y="61.873" style="fill:#000;fill-opacity:1"/><g style="fill:#000;fill-opacity:1"><use xlink:href="#i" x="450.729" y="61.873"/><use xlink:href="#j" x="455.847" y="61.873"/><use xlink:href="#k" x="460.454" y="61.873"/></g><g style="fill:#000;fill-opacity:1"><use xlink:href="#l" x="443.056" y="72.832"/><use xlink:href="#m" x="447.664" y="72.832"/></g><use xlink:href="#n" x="453.807" y="69.023" style="fill:#000;fill-opacity:1"/><use xlink:href="#o" x="458.124" y="72.832" style="fill:#000;fill-opacity:1"/><g style="fill:#000;fill-opacity:1"><use xlink:href="#I" x="383.564" y="89.497"/><use xlink:href="#D" x="389.833" y="89.497"/><use xlink:href="#r" x="394.696" y="89.497"/><use xlink:href="#x" x="399.814" y="89.497"/><use xlink:href="#z" x="402.373" y="89.497"/><use xlink:href="#x" x="404.932" y="89.497"/><use xlink:href="#i" x="407.491" y="89.497"/><use xlink:href="#k" x="412.609" y="89.497"/><use xlink:href="#u" x="416.212" y="89.497"/></g><g style="fill:#000;fill-opacity:1"><use xlink:href="#J" x="423.386" y="89.497"/><use xlink:href="#k" x="426.202" y="89.497"/><use xlink:href="#r" x="429.806" y="89.497"/><use xlink:href="#A" x="434.924" y="89.497"/><use xlink:href="#w" x="438.558" y="89.497"/><use xlink:href="#k" x="442.141" y="89.497"/><use xlink:href="#C" x="445.744" y="89.497"/></g><path style="fill:none;stroke-width:.3985;stroke-linecap:butt;stroke-linejoin:miter;stroke:#000;stroke-opacity:1;stroke-miterlimit:10" d="M428.735 43.142c7.356 1.297 7.356 25.805-3.531 27.726" transform="matrix(1 0 0 -1 5.679 79.806)"/><path style="stroke:none;fill-rule:nonzero;fill:#000;fill-opacity:1" d="M430.883 37.285c1.078.012 2.883.3 4.183.781l-.52-2.945c-1.058.895-2.651 1.785-3.663 2.164"/><g style="fill:#000;fill-opacity:1"><use xlink:href="#v" x="336.696" y="11.156"/><use xlink:href="#j" x="341.814" y="11.156"/><use xlink:href="#k" x="346.421" y="11.156"/><use xlink:href="#K" x="350.025" y="11.156"/><use xlink:href="#x" x="354.631" y="11.156"/></g><use xlink:href="#L" x="360.257" y="11.156" style="fill:#000;fill-opacity:1"/><g style="fill:#000;fill-opacity:1"><use xlink:href="#s" x="365.384" y="11.156"/><use xlink:href="#u" x="370.246" y="11.156"/></g><g style="fill:#000;fill-opacity:1"><use xlink:href="#x" x="377.412" y="11.156"/><use xlink:href="#F" x="379.971" y="11.156"/><use xlink:href="#v" x="387.648" y="11.156"/></g><g style="fill:#000;fill-opacity:1"><use xlink:href="#u" x="393.027" y="11.156"/><use xlink:href="#k" x="397.125" y="11.156"/><use xlink:href="#F" x="400.729" y="11.156"/><use xlink:href="#C" x="408.407" y="11.156"/></g><g style="fill:#000;fill-opacity:1"><use xlink:href="#j" x="412.496" y="11.156"/><use xlink:href="#i" x="417.103" y="11.156"/><use xlink:href="#z" x="422.221" y="11.156"/></g><use xlink:href="#u" x="424.789" y="11.156" style="fill:#000;fill-opacity:1"/></svg>