<svg xmlns="http://www.w3.org/2000/svg" xmlns:xlink="http://www.w3.org/1999/xlink" width="181.38" height="139.372" viewBox="0 0 136.035 104.529"><defs><symbol overflow="visible" id="d"><path style="stroke:none" d="M1.031-2.063h2.657c.109 0 .156-.046.156-.156 0-1.125-.703-1.797-1.64-1.797-1.095 0-1.954.954-1.954 2.047C.25-.875 1.125.094 2.344.094c.64 0 1.281-.453 1.469-1.078.015-.016.015-.063.015-.094a.107.107 0 0 0-.11-.11c-.171 0-.171.266-.265.391-.219.375-.656.64-1.094.64h-.062C1.828-.171 1.422-.5 1.219-.921c-.172-.36-.188-.75-.188-1.14Zm.016-.218c0-.594.25-1.281.906-1.485a.914.914 0 0 1 .203-.03c.781 0 1.063.796 1.063 1.515Zm0 0"/></symbol><symbol overflow="visible" id="e"><path style="stroke:none" d="M1.094-3.484c.25-.22.61-.313.937-.313.313 0 .594.172.781.438.172.25.172.53.172.828v.156c-.734.078-1.468.078-2.093.547-.297.219-.516.578-.516.937 0 .735.875.985 1.469.985.547 0 .968-.281 1.218-.75.079.375.297.703.704.703.546 0 .78-.453.78-.953v-.406h-.25v.453c0 .25-.046.593-.327.593-.297 0-.313-.39-.313-.593v-1.75c0-.938-.812-1.407-1.61-1.407-.562 0-1.39.235-1.39.938 0 .25.14.437.469.437.219-.015.36-.218.36-.421 0-.25-.188-.376-.391-.422Zm1.89 1.328v.875c0 .625-.437 1.14-1.062 1.14h-.063c-.421-.03-.75-.359-.75-.75 0-.859 1.032-1.265 1.875-1.265Zm0 0"/></symbol><symbol overflow="visible" id="f"><path style="stroke:none" d="M.313-3.86v.266H.39c.25 0 .593.031.593.281.016.11.016.188.016.297v1.782c0 .28.016.53.14.78.266.438.813.548 1.282.548.5 0 .984-.297 1.14-.766l.016.766 1.328-.11V-.28H4.75c-.266 0-.531-.031-.531-.438v-3.25l-1.36.11v.265h.125c.282 0 .563.031.563.453v1.766C3.5-.797 3.14-.141 2.453-.141c-.36 0-.687-.078-.765-.546-.016-.172-.016-.329-.016-.5V-3.97Zm0 0"/></symbol><symbol overflow="visible" id="g"><path style="stroke:none" d="M.813-4.781c.14-.532.75-.922 1.296-.922.891 0 1.204.875 1.204 1.562-.094.922-.657 1.547-1.235 2.172-.5.532-1 1.094-1.515 1.625-.063.063-.11.125-.11.235v.093h3.438l.25-1.578h-.25c-.063.375-.047.797-.391.844-.078.016-.156.016-.234.016h-.22c-.265.015-.515.015-.78.015H1.234A39.486 39.486 0 0 1 2.938-2.28c.562-.485 1.171-1.063 1.203-1.86v-.078c0-1.125-.954-1.765-1.97-1.765-.874 0-1.718.687-1.718 1.625 0 .296.203.5.484.5.25 0 .454-.204.454-.47a.46.46 0 0 0-.47-.468c-.03 0-.062 0-.109.016Zm0 0"/></symbol><symbol overflow="visible" id="h"><path style="stroke:none" d="M2.172-5.984C.719-5.844.359-4.328.359-2.922c0 .875.047 1.906.672 2.578.313.328.797.547 1.25.547.797 0 1.406-.516 1.688-1.219.234-.609.281-1.265.281-1.906 0-1.281-.297-3.062-1.938-3.062h-.14ZM1.14-2.328c-.016-.078-.016-.156-.016-.235 0-.562 0-1.124.047-1.703.031-.328.062-.718.266-1 .187-.296.515-.5.875-.5.75 0 1.046.735 1.109 1.36.047.437.047.875.047 1.328v.672c0 .969-.078 1.953-.781 2.281a.802.802 0 0 1-.391.094c-.578 0-.953-.531-1.063-1.078-.062-.407-.046-.813-.093-1.22Zm0 0"/></symbol><symbol overflow="visible" id="i"><path style="stroke:none" d="M1.422-6.14c-.5.062-.906.515-.906 1.015a1.02 1.02 0 0 0 1.03 1.031h.079c.516-.062.922-.515.922-1.031 0-.531-.453-1.016-1.031-1.016ZM.89-5.064v-.046c0-.344.296-.641.64-.641.328 0 .563.25.625.578v.047c0 .344-.297.64-.625.64s-.578-.25-.64-.577Zm0 0"/></symbol><symbol overflow="visible" id="j"><path style="stroke:none" d="M5.422-5.547c-.25-.422-.984-.75-1.578-.781H3.75C1.969-6.328.516-4.86.516-3.078v.156c.109 1.75 1.5 3.11 3.203 3.11 1.234 0 2.422-.985 2.422-2.282v-.078c-.016-.062-.079-.094-.141-.094-.078 0-.11.063-.11.141v.063c-.093.921-.75 1.968-2.062 1.968-.703 0-1.406-.36-1.844-.922-.437-.578-.562-1.421-.562-2.109 0-.89.234-1.766.906-2.375.39-.344.938-.547 1.469-.547 1.156 0 1.86 1 2.031 2 .016.125 0 .281.156.281.125 0 .157-.062.157-.14v-2.219c0-.094 0-.203-.11-.203-.156 0-.406.531-.61.781Zm0 0"/></symbol><symbol overflow="visible" id="k"><path style="stroke:none" d="M1.25-.766c.188-.218.672-.671 1.063-1 .671-.562.874-.75.984-.875.734-.718.984-1.171.984-1.218 0-.016 0-.11-.125-.11-.078 0-.093.031-.14.11-.11.171-.36.562-.657.562-.187 0-.296-.11-.5-.328-.218-.234-.39-.344-.625-.344-.687 0-1.109.828-1.109 1.047 0 .031.016.11.11.11.093 0 .124-.063.124-.079.172-.437.704-.437.782-.437.203 0 .421.062.609.14.36.11.516.11.656.11-.281.312-.781.75-1.36 1.234-.437.375-.718.657-.921.844-.328.36-.734.906-.734 1 0 .063.046.094.125.094.078 0 .093-.032.14-.078.344-.547.688-.579.781-.579.22 0 .344.125.547.36.204.234.407.297.579.297.921 0 1.468-1.14 1.468-1.39 0-.079-.062-.11-.125-.11-.094 0-.11.062-.125.11-.25.655-.89.765-1.125.765-.156 0-.344-.047-.61-.14-.187-.048-.39-.126-.577-.126-.094 0-.188.031-.219.031Zm0 0"/></symbol><symbol overflow="visible" id="l"><path style="stroke:none" d="M.406 1.125c-.062.25-.078.344-.453.344-.11 0-.219 0-.219.156 0 .031.032.11.125.11l.375-.016H1.078c.156 0 .297.015.438.015.046 0 .171 0 .171-.156 0-.11-.093-.11-.25-.11-.421 0-.421-.062-.421-.155a2.9 2.9 0 0 1 .109-.438l.328-1.328c.094.187.344.547.86.547C3.359.094 4.5-1.172 4.5-2.516c0-.906-.563-1.453-1.234-1.453-.188 0-.641.047-1.188.656-.125-.5-.547-.656-.844-.656-.375 0-.578.281-.703.531-.14.313-.265.813-.265.86 0 .078.062.11.125.11.093 0 .109-.048.156-.235.172-.703.36-1.031.656-1.031.281 0 .281.28.281.421 0 .063-.015.204-.03.266Zm1.625-3.89c.047-.172.047-.188.172-.329.235-.312.64-.64 1.047-.64.422 0 .594.421.594.843 0 .391-.25 1.516-.531 1.985-.313.515-.688.781-1.016.781-.578 0-.735-.703-.735-.766 0-.062.032-.109.032-.156Zm0 0"/></symbol><symbol overflow="visible" id="m"><path style="stroke:none" d="M1.047-2.406c.172-.031.344-.063.516-.063.343 0 .78.14.78.703v.141c-.75 0-1.952.188-1.952.984 0 .532.625.688 1.062.688.36 0 .797-.125.953-.469h.016c0 .25.219.453.453.453.281 0 .61-.156.656-.469v-.437h-.219v.344c0 .14-.078.297-.234.297-.219 0-.234-.235-.234-.36v-.937c0-.078.015-.14.015-.219 0-.672-.718-.922-1.265-.922-.39 0-.985.047-.985.516 0 .14.094.297.282.297a.287.287 0 0 0 .296-.297c0-.094-.046-.203-.14-.25Zm1.297.969v.468c0 .172 0 .313-.094.469-.14.234-.438.36-.703.36-.266 0-.64-.157-.64-.5 0-.61.921-.797 1.437-.797Zm0 0"/></symbol><symbol overflow="visible" id="n"><path style="stroke:none" d="M1.078-3.688c0 .485-.266 1.157-.86 1.157v.187h.579v1.5c0 .203.015.39.125.563.156.25.469.328.75.328.437 0 .734-.344.734-.86v-.28h-.234c0 .093.015.171.015.25 0 .265-.093.687-.453.687-.359 0-.437-.36-.437-.64v-1.548h.984v-.234h-.984v-1.11Zm0 0"/></symbol><symbol overflow="visible" id="o"><path style="stroke:none" d="M.375-2.578v.25h.094c.219 0 .375.015.375.375v1.469c0 .234-.156.234-.469.234V0l.344-.031h1.094V-.25h-.141c-.172 0-.328-.016-.328-.203v-1.078c0-.547.453-.907.953-.907.437 0 .484.344.484.626V-.47c0 .203-.156.219-.344.219h-.124V0l.343-.031h1.11V-.25h-.157c-.171 0-.328-.016-.328-.203v-1.078c0-.547.453-.907.953-.907h.016c.406 0 .469.329.469.626V-.47c0 .203-.157.219-.344.219H4.25V0l.344-.031h1.11V-.25h-.157c-.172 0-.328-.016-.328-.219V-1.75c0-.188 0-.375-.11-.547-.171-.281-.515-.344-.828-.344-.437 0-.734.172-1.031.547-.047-.437-.594-.547-.89-.547-.407 0-.907.204-1.047.563l-.016-.563Zm0 0"/></symbol><clipPath id="a"><path d="M7 35h37v57H7Zm0 0"/></clipPath><clipPath id="b"><path d="m7.281 35.387 3.77 56.562h28.344l3.957-56.554Zm0 0"/></clipPath><linearGradient id="c" gradientUnits="userSpaceOnUse" x1="0" y1="25.003" x2="0" y2="74.997" gradientTransform="matrix(.72145 0 0 -1.13144 -10.756 120.24)"><stop offset="0" style="stop-color:gray;stop-opacity:1"/><stop offset=".008" style="stop-color:gray;stop-opacity:1"/><stop offset=".016" style="stop-color:#818181;stop-opacity:1"/><stop offset=".023" style="stop-color:#818181;stop-opacity:1"/><stop offset=".031" style="stop-color:#828282;stop-opacity:1"/><stop offset=".039" style="stop-color:#838383;stop-opacity:1"/><stop offset=".047" style="stop-color:#848484;stop-opacity:1"/><stop offset=".055" style="stop-color:#848484;stop-opacity:1"/><stop offset=".063" style="stop-color:#858585;stop-opacity:1"/><stop offset=".07" style="stop-color:#868686;stop-opacity:1"/><stop offset=".078" style="stop-color:#878787;stop-opacity:1"/><stop offset=".086" style="stop-color:#878787;stop-opacity:1"/><stop offset=".094" style="stop-color:#888;stop-opacity:1"/><stop offset=".102" style="stop-color:#898989;stop-opacity:1"/><stop offset=".109" style="stop-color:#8a8a8a;stop-opacity:1"/><stop offset=".117" style="stop-color:#8a8a8a;stop-opacity:1"/><stop offset=".125" style="stop-color:#8b8b8b;stop-opacity:1"/><stop offset=".133" style="stop-color:#8c8c8c;stop-opacity:1"/><stop offset=".141" style="stop-color:#8d8d8d;stop-opacity:1"/><stop offset=".148" style="stop-color:#8d8d8d;stop-opacity:1"/><stop offset=".156" style="stop-color:#8e8e8e;stop-opacity:1"/><stop offset=".164" style="stop-color:#8f8f8f;stop-opacity:1"/><stop offset=".172" style="stop-color:#909090;stop-opacity:1"/><stop offset=".18" style="stop-color:#909090;stop-opacity:1"/><stop offset=".188" style="stop-color:#919191;stop-opacity:1"/><stop offset=".195" style="stop-color:#929292;stop-opacity:1"/><stop offset=".203" style="stop-color:#939393;stop-opacity:1"/><stop offset=".211" style="stop-color:#939393;stop-opacity:1"/><stop offset=".219" style="stop-color:#949494;stop-opacity:1"/><stop offset=".227" style="stop-color:#959595;stop-opacity:1"/><stop offset=".234" style="stop-color:#969696;stop-opacity:1"/><stop offset=".242" style="stop-color:#969696;stop-opacity:1"/><stop offset=".25" style="stop-color:#979797;stop-opacity:1"/><stop offset=".258" style="stop-color:#989898;stop-opacity:1"/><stop offset=".266" style="stop-color:#999;stop-opacity:1"/><stop offset=".273" style="stop-color:#999;stop-opacity:1"/><stop offset=".281" style="stop-color:#9a9a9a;stop-opacity:1"/><stop offset=".289" style="stop-color:#9b9b9b;stop-opacity:1"/><stop offset=".297" style="stop-color:#9c9c9c;stop-opacity:1"/><stop offset=".305" style="stop-color:#9c9c9c;stop-opacity:1"/><stop offset=".313" style="stop-color:#9d9d9d;stop-opacity:1"/><stop offset=".32" style="stop-color:#9e9e9e;stop-opacity:1"/><stop offset=".328" style="stop-color:#9f9f9f;stop-opacity:1"/><stop offset=".336" style="stop-color:#9f9f9f;stop-opacity:1"/><stop offset=".344" style="stop-color:#a0a0a0;stop-opacity:1"/><stop offset=".352" style="stop-color:#a1a1a1;stop-opacity:1"/><stop offset=".359" style="stop-color:#a1a1a1;stop-opacity:1"/><stop offset=".367" style="stop-color:#a2a2a2;stop-opacity:1"/><stop offset=".375" style="stop-color:#a3a3a3;stop-opacity:1"/><stop offset=".383" style="stop-color:#a4a4a4;stop-opacity:1"/><stop offset=".391" style="stop-color:#a4a4a4;stop-opacity:1"/><stop offset=".398" style="stop-color:#a5a5a5;stop-opacity:1"/><stop offset=".406" style="stop-color:#a6a6a6;stop-opacity:1"/><stop offset=".414" style="stop-color:#a7a7a7;stop-opacity:1"/><stop offset=".422" style="stop-color:#a7a7a7;stop-opacity:1"/><stop offset=".43" style="stop-color:#a8a8a8;stop-opacity:1"/><stop offset=".438" style="stop-color:#a9a9a9;stop-opacity:1"/><stop offset=".445" style="stop-color:#aaa;stop-opacity:1"/><stop offset=".453" style="stop-color:#aaa;stop-opacity:1"/><stop offset=".461" style="stop-color:#ababab;stop-opacity:1"/><stop offset=".469" style="stop-color:#acacac;stop-opacity:1"/><stop offset=".477" style="stop-color:#adadad;stop-opacity:1"/><stop offset=".484" style="stop-color:#adadad;stop-opacity:1"/><stop offset=".492" style="stop-color:#aeaeae;stop-opacity:1"/><stop offset=".5" style="stop-color:#afafaf;stop-opacity:1"/><stop offset=".508" style="stop-color:#b0b0b0;stop-opacity:1"/><stop offset=".516" style="stop-color:#b0b0b0;stop-opacity:1"/><stop offset=".523" style="stop-color:#b1b1b1;stop-opacity:1"/><stop offset=".531" style="stop-color:#b2b2b2;stop-opacity:1"/><stop offset=".539" style="stop-color:#b3b3b3;stop-opacity:1"/><stop offset=".547" style="stop-color:#b3b3b3;stop-opacity:1"/><stop offset=".555" style="stop-color:#b4b4b4;stop-opacity:1"/><stop offset=".563" style="stop-color:#b5b5b5;stop-opacity:1"/><stop offset=".57" style="stop-color:#b6b6b6;stop-opacity:1"/><stop offset=".578" style="stop-color:#b6b6b6;stop-opacity:1"/><stop offset=".586" style="stop-color:#b7b7b7;stop-opacity:1"/><stop offset=".594" style="stop-color:#b8b8b8;stop-opacity:1"/><stop offset=".602" style="stop-color:#b9b9b9;stop-opacity:1"/><stop offset=".609" style="stop-color:#b9b9b9;stop-opacity:1"/><stop offset=".617" style="stop-color:#bababa;stop-opacity:1"/><stop offset=".625" style="stop-color:#bbb;stop-opacity:1"/><stop offset=".633" style="stop-color:#bcbcbc;stop-opacity:1"/><stop offset=".641" style="stop-color:#bcbcbc;stop-opacity:1"/><stop offset=".648" style="stop-color:#bdbdbd;stop-opacity:1"/><stop offset=".656" style="stop-color:#bebebe;stop-opacity:1"/><stop offset=".664" style="stop-color:#bfbfbf;stop-opacity:1"/><stop offset=".672" style="stop-color:#bfbfbf;stop-opacity:1"/><stop offset=".68" style="stop-color:silver;stop-opacity:1"/><stop offset=".688" style="stop-color:#c1c1c1;stop-opacity:1"/><stop offset=".695" style="stop-color:#c2c2c2;stop-opacity:1"/><stop offset=".703" style="stop-color:#c2c2c2;stop-opacity:1"/><stop offset=".711" style="stop-color:#c3c3c3;stop-opacity:1"/><stop offset=".719" style="stop-color:#c4c4c4;stop-opacity:1"/><stop offset=".727" style="stop-color:#c5c5c5;stop-opacity:1"/><stop offset=".734" style="stop-color:#c5c5c5;stop-opacity:1"/><stop offset=".742" style="stop-color:#c6c6c6;stop-opacity:1"/><stop offset=".75" style="stop-color:#c7c7c7;stop-opacity:1"/><stop offset=".758" style="stop-color:#c8c8c8;stop-opacity:1"/><stop offset=".766" style="stop-color:#c8c8c8;stop-opacity:1"/><stop offset=".773" style="stop-color:#c9c9c9;stop-opacity:1"/><stop offset=".781" style="stop-color:#cacaca;stop-opacity:1"/><stop offset=".789" style="stop-color:#cbcbcb;stop-opacity:1"/><stop offset=".797" style="stop-color:#cbcbcb;stop-opacity:1"/><stop offset=".805" style="stop-color:#ccc;stop-opacity:1"/><stop offset=".813" style="stop-color:#cdcdcd;stop-opacity:1"/><stop offset=".82" style="stop-color:#cecece;stop-opacity:1"/><stop offset=".828" style="stop-color:#cecece;stop-opacity:1"/><stop offset=".836" style="stop-color:#cfcfcf;stop-opacity:1"/><stop offset=".844" style="stop-color:#d0d0d0;stop-opacity:1"/><stop offset=".852" style="stop-color:#d1d1d1;stop-opacity:1"/><stop offset=".859" style="stop-color:#d1d1d1;stop-opacity:1"/><stop offset=".867" style="stop-color:#d2d2d2;stop-opacity:1"/><stop offset=".875" style="stop-color:#d3d3d3;stop-opacity:1"/><stop offset=".883" style="stop-color:#d4d4d4;stop-opacity:1"/><stop offset=".891" style="stop-color:#d4d4d4;stop-opacity:1"/><stop offset=".898" style="stop-color:#d5d5d5;stop-opacity:1"/><stop offset=".906" style="stop-color:#d6d6d6;stop-opacity:1"/><stop offset=".914" style="stop-color:#d7d7d7;stop-opacity:1"/><stop offset=".922" style="stop-color:#d7d7d7;stop-opacity:1"/><stop offset=".93" style="stop-color:#d8d8d8;stop-opacity:1"/><stop offset=".938" style="stop-color:#d9d9d9;stop-opacity:1"/><stop offset=".945" style="stop-color:#dadada;stop-opacity:1"/><stop offset=".953" style="stop-color:#dadada;stop-opacity:1"/><stop offset=".961" style="stop-color:#dbdbdb;stop-opacity:1"/><stop offset=".969" style="stop-color:#dcdcdc;stop-opacity:1"/><stop offset=".977" style="stop-color:#ddd;stop-opacity:1"/><stop offset=".984" style="stop-color:#ddd;stop-opacity:1"/><stop offset=".992" style="stop-color:#dedede;stop-opacity:1"/><stop offset="1" style="stop-color:#dfdfdf;stop-opacity:1"/></linearGradient></defs><path style="stroke:none;fill-rule:nonzero;fill:#000;fill-opacity:1" d="m7.281 35.387 3.77 56.562h28.344l3.957-56.554Zm0 0"/><g clip-path="url(#a)"><g clip-path="url(#b)"><path style="stroke:none;fill-rule:nonzero;fill:url(#c)" d="M7.281 91.95V35.386h36.07v56.562Zm0 0"/></g></g><g style="fill:#fff;fill-opacity:1"><use xlink:href="#d" x="16.813" y="51.206"/><use xlink:href="#e" x="20.912" y="51.206"/><use xlink:href="#f" x="25.518" y="51.206"/></g><g style="fill:#fff;fill-opacity:1"><use xlink:href="#g" x="16.813" y="62.165"/><use xlink:href="#h" x="21.42" y="62.165"/></g><use xlink:href="#i" x="26.026" y="62.165" style="fill:#fff;fill-opacity:1"/><use xlink:href="#j" x="29.097" y="62.165" style="fill:#fff;fill-opacity:1"/><path style="fill:none;stroke-width:.79701;stroke-linecap:butt;stroke-linejoin:miter;stroke:#000;stroke-opacity:1;stroke-miterlimit:10" d="M-5.67 85.04.002.003h28.344l5.539 79.176 5.8 5.863Zm0 0" transform="matrix(1 0 0 -1 11.049 91.951)"/><path style="fill:none;stroke-width:.3985;stroke-linecap:butt;stroke-linejoin:miter;stroke:#000;stroke-opacity:1;stroke-miterlimit:10" d="M.002.002h4.98M.002 5.67h1.992M.002 11.338h1.992M.002 17.01h1.992M.002 22.678h1.992M.002 28.346h4.98M.002 34.017h1.992M.002 39.685h1.992M.002 45.353h1.992M.002 51.025h1.992M.002 56.693h4.98M.002 62.361h1.992M.002 68.033h1.992M.002 73.701h1.992M.002 79.373h1.992" transform="matrix(1 0 0 -1 11.049 91.951)"/><path style="fill:none;stroke-width:.3985;stroke-linecap:butt;stroke-linejoin:miter;stroke:gray;stroke-opacity:1;stroke-miterlimit:10" d="M56.693.002v83.047" transform="matrix(1 0 0 -1 11.049 91.951)"/><path style="stroke:none;fill-rule:nonzero;fill:gray;fill-opacity:1" d="m67.742 6.91-1.594 3.188 1.594-1.196 1.594 1.196"/><use xlink:href="#k" x="69.734" y="8.842" style="fill:gray;fill-opacity:1"/><path style="fill:none;stroke-width:.3985;stroke-linecap:butt;stroke-linejoin:miter;stroke:gray;stroke-opacity:1;stroke-miterlimit:10" d="M56.693.002h54.703" transform="matrix(1 0 0 -1 11.049 91.951)"/><path style="stroke:none;fill-rule:nonzero;fill:gray;fill-opacity:1" d="m124.438 91.95-3.188-1.595 1.195 1.594-1.195 1.598"/><use xlink:href="#l" x="126.427" y="93.01" style="fill:gray;fill-opacity:1"/><path style="fill:none;stroke-width:.79701;stroke-linecap:butt;stroke-linejoin:miter;stroke:#ff9d00;stroke-opacity:1;stroke-miterlimit:10" d="M76.537 85.04V56.694L99.213.002" transform="matrix(1 0 0 -1 11.049 91.951)"/><path style="fill:none;stroke-width:.3985;stroke-linecap:butt;stroke-linejoin:miter;stroke:#ff9d00;stroke-opacity:1;stroke-dasharray:2.98883,2.98883;stroke-miterlimit:10" d="M76.537 56.693V.002" transform="matrix(1 0 0 -1 11.049 91.951)"/><use xlink:href="#l" x="78.769" y="97.804" style="fill:gray;fill-opacity:1"/><g style="fill:gray;fill-opacity:1"><use xlink:href="#m" x="83.395" y="98.8"/><use xlink:href="#n" x="87.047" y="98.8"/><use xlink:href="#o" x="89.925" y="98.8"/></g></svg>