<svg xmlns="http://www.w3.org/2000/svg" xmlns:xlink="http://www.w3.org/1999/xlink" width="657.663" height="128.295" viewBox="0 0 493.247 96.221"><defs><symbol overflow="visible" id="a"><path style="stroke:none" d="M.406 1.125c-.062.25-.078.344-.453.344-.11 0-.219 0-.219.156 0 .031.032.11.125.11l.375-.016H1.078c.156 0 .297.015.438.015.046 0 .171 0 .171-.156 0-.11-.093-.11-.25-.11-.421 0-.421-.062-.421-.155a2.9 2.9 0 0 1 .109-.438l.328-1.328c.094.187.344.547.86.547C3.359.094 4.5-1.172 4.5-2.516c0-.906-.563-1.453-1.234-1.453-.188 0-.641.047-1.188.656-.125-.5-.547-.656-.844-.656-.375 0-.578.281-.703.531-.14.313-.265.813-.265.86 0 .078.062.11.125.11.093 0 .109-.048.156-.235.172-.703.36-1.031.656-1.031.281 0 .281.28.281.421 0 .063-.015.204-.03.266Zm1.625-3.89c.047-.172.047-.188.172-.329.235-.312.64-.64 1.047-.64.422 0 .594.421.594.843 0 .391-.25 1.516-.531 1.985-.313.515-.688.781-1.016.781-.578 0-.735-.703-.735-.766 0-.062.032-.109.032-.156Zm0 0"/></symbol><symbol overflow="visible" id="c"><path style="stroke:none" d="M6.203-2.031c.11-.047.188-.094.188-.219s-.11-.172-.188-.203L1.141-4.891c-.125-.062-.157-.062-.188-.062a.19.19 0 0 0-.187.187c0 .11.062.157.187.22L5.75-2.25.953.047C.828.109.766.157.766.266c0 .062.062.187.203.187.015 0 .047 0 .156-.047Zm0 0"/></symbol><symbol overflow="visible" id="b"><path style="stroke:none" d="M2.14-3.797c0-.187-.015-.187-.203-.187-.39.39-1 .39-1.218.39v.235c.156 0 .562 0 .922-.172v3.015c0 .204 0 .282-.625.282h-.25V0c.328-.031.796-.031 1.125-.031.328 0 .796 0 1.125.031v-.234h-.25c-.625 0-.625-.078-.625-.282Zm0 0"/></symbol><symbol overflow="visible" id="d"><path style="stroke:none" d="M3.219-1.125H3c-.016.094-.078.484-.156.547-.047.047-.531.047-.625.047h-1.11l.766-.625c.203-.172.734-.547.922-.735.172-.171.422-.484.422-.906 0-.75-.672-1.187-1.485-1.187-.765 0-1.296.515-1.296 1.078 0 .297.25.344.312.344a.32.32 0 0 0 .328-.329c0-.125-.078-.328-.344-.328.141-.297.5-.531.922-.531.625 0 .953.469.953.953 0 .422-.28.86-.687 1.25L.5-.25C.437-.187.437-.187.437 0h2.594Zm0 0"/></symbol><symbol overflow="visible" id="e"><path style="stroke:none" d="M2.156-4.047c-.875.125-1.64.797-1.64 1.797 0 .89.687 1.813 1.812 1.813.953 0 1.766-.86 1.766-1.813 0-.89-.735-1.797-1.813-1.797h-.125Zm0 0"/></symbol><symbol overflow="visible" id="f"><path style="stroke:none" d="M2.828-6.14v.28h.094c.36 0 .594.016.594.548v1.875a1.532 1.532 0 0 0-1.172-.532c-1.11 0-2.031.938-2.031 2.047C.313-.906 1.14.094 2.266.094c.421 0 .984-.203 1.218-.578v.578l1.36-.11V-.28h-.14c-.298 0-.548-.031-.548-.453v-5.5Zm-1.75 4.406v-.125c0-.72.188-1.875 1.313-1.875.468 0 1.109.343 1.109.906 0 .11-.016.219-.016.328v1.484c0 .11-.046.188-.109.282-.234.343-.64.593-1.063.593a1.14 1.14 0 0 1-.89-.453c-.25-.328-.297-.734-.344-1.14Zm0 0"/></symbol><symbol overflow="visible" id="g"><path style="stroke:none" d="M1.031-2.063h2.657c.109 0 .156-.046.156-.156 0-1.125-.703-1.797-1.64-1.797-1.095 0-1.954.954-1.954 2.047C.25-.875 1.125.094 2.344.094c.64 0 1.281-.453 1.469-1.078.015-.016.015-.063.015-.094a.107.107 0 0 0-.11-.11c-.171 0-.171.266-.265.391-.219.375-.656.64-1.094.64h-.062C1.828-.171 1.422-.5 1.219-.921c-.172-.36-.188-.75-.188-1.14Zm.016-.218c0-.594.25-1.281.906-1.485a.914.914 0 0 1 .203-.03c.781 0 1.063.796 1.063 1.515Zm1.484-3.5c-.156.015-.312.203-.422.312-.28.282-.578.547-.859.828-.016.016-.016.032-.016.047 0 .063.079.188.141.188.047 0 .094-.047.125-.063l.25-.14c.39-.22 1.172-.516 1.172-.829 0-.171-.156-.359-.344-.359-.015 0-.031.016-.047.016Zm0 0"/></symbol><symbol overflow="visible" id="h"><path style="stroke:none" d="M.266-3.86v.266h.171c.266 0 .516.031.516.39v4.282c0 .375-.265.375-.687.375v.281l.64-.03h1.406v-.25h-.218c-.25 0-.469-.032-.469-.36V-.438c.297.329.656.532 1.125.532 1.078 0 2.063-.875 2.063-2.031 0-1.016-.797-2.032-1.938-2.032-.5 0-.953.219-1.281.563v-.563Zm3.75 2.063C3.984-1.094 3.562-.14 2.672-.14c-.469 0-1.047-.453-1.047-.843v-1.47c0-.124-.016-.233-.016-.343 0-.5.657-.922 1.172-.922.844 0 1.25 1.063 1.25 1.75 0 .047 0 .11-.015.172Zm0 0"/></symbol><symbol overflow="visible" id="i"><path style="stroke:none" d="M.328-6.14v.28h.11c.312 0 .578.016.578.47v4.718c0 .375-.25.39-.641.39H.328v.266h2.016V-.28h-.235c-.234 0-.453-.047-.453-.36v-5.593Zm0 0"/></symbol><symbol overflow="visible" id="j"><path style="stroke:none" d="M1.094-3.484c.25-.22.61-.313.937-.313.313 0 .594.172.781.438.172.25.172.53.172.828v.156c-.734.078-1.468.078-2.093.547-.297.219-.516.578-.516.937 0 .735.875.985 1.469.985.547 0 .968-.281 1.218-.75.079.375.297.703.704.703.546 0 .78-.453.78-.953v-.406h-.25v.453c0 .25-.046.593-.327.593-.297 0-.313-.39-.313-.593v-1.75c0-.938-.812-1.407-1.61-1.407-.562 0-1.39.235-1.39.938 0 .25.14.437.469.437.219-.015.36-.218.36-.421 0-.25-.188-.376-.391-.422Zm1.89 1.328v.875c0 .625-.437 1.14-1.062 1.14h-.063c-.421-.03-.75-.359-.75-.75 0-.859 1.032-1.265 1.875-1.265Zm0 0"/></symbol><symbol overflow="visible" id="k"><path style="stroke:none" d="M3.25-3.531c-.188.062-.36.172-.36.422 0 .218.157.406.422.406.235 0 .422-.172.422-.438 0-.64-.765-.859-1.312-.875h-.094A2.04 2.04 0 0 0 .313-1.953c0 1.094.859 2.047 2 2.047.624 0 1.203-.328 1.453-.969.015-.063.062-.14.062-.203s-.062-.11-.125-.11c-.156 0-.156.235-.234.36-.219.406-.61.672-1.094.672-.984 0-1.297-1.125-1.297-1.813 0-.734.266-1.797 1.266-1.797.25 0 .515.032.734.141.063.016.11.063.172.094Zm0 0"/></symbol><symbol overflow="visible" id="l"><path style="stroke:none" d="M1.031-2.063h2.657c.109 0 .156-.046.156-.156 0-1.125-.703-1.797-1.64-1.797-1.095 0-1.954.954-1.954 2.047C.25-.875 1.125.094 2.344.094c.64 0 1.281-.453 1.469-1.078.015-.016.015-.063.015-.094a.107.107 0 0 0-.11-.11c-.171 0-.171.266-.265.391-.219.375-.656.64-1.094.64h-.062C1.828-.171 1.422-.5 1.219-.921c-.172-.36-.188-.75-.188-1.14Zm.016-.218c0-.594.25-1.281.906-1.485a.914.914 0 0 1 .203-.03c.781 0 1.063.796 1.063 1.515Zm0 0"/></symbol><symbol overflow="visible" id="m"><path style="stroke:none" d="M.313-3.86v.266h.14c.266 0 .547.031.547.453v2.485c0 .36-.234.375-.688.375v.265L.954-.03H2.36v-.25h-.203c-.265 0-.484-.047-.484-.375v-1.797c.047-.64.484-1.281 1.25-1.281.578 0 .64.578.64 1v2.109c0 .313-.265.344-.562.344h-.125v.265L3.5-.03h1.422v-.25h-.219c-.25 0-.484-.047-.484-.375v-1.797c.062-.64.484-1.281 1.265-1.281.563 0 .625.578.625 1v2.109c0 .313-.25.344-.546.344h-.141v.265h2.047V-.28h-.172c-.25 0-.516-.031-.516-.36v-2.015c0-.281-.015-.547-.14-.781-.235-.422-.704-.532-1.141-.532-.547 0-1.11.36-1.297.86h-.016c-.078-.625-.656-.86-1.203-.86-.578 0-1.14.328-1.359.89l-.016-.89Zm0 0"/></symbol><symbol overflow="visible" id="n"><path style="stroke:none" d="M.313-3.86v.266h.14c.266 0 .547.031.547.453v2.485c0 .36-.234.375-.688.375v.265L.954-.03H2.36v-.25h-.203c-.265 0-.484-.047-.484-.375v-1.61c0-.687.406-1.468 1.25-1.468.484 0 .625.437.625 1v2.109c0 .313-.25.344-.547.344h-.14v.265L3.5-.03h1.406v-.25h-.172c-.265 0-.515-.031-.515-.36v-2.015c0-.281-.016-.531-.14-.781-.235-.422-.704-.532-1.141-.532-.547 0-1.11.375-1.313.89l-.016-.89Zm0 0"/></symbol><symbol overflow="visible" id="o"><path style="stroke:none" d="M1.36-5.531c0 .656-.298 1.718-1.188 1.718v.22h.781v2.374c0 .282.016.547.156.782.22.39.672.53 1.079.53h.078c.687-.124.796-.859.796-1.39v-.328h-.25c0 .125.016.25.016.39 0 .391-.094 1.079-.625 1.079-.484 0-.594-.563-.594-1.016v-2.422h1.313v-.265H1.609v-1.672Zm0 0"/></symbol><symbol overflow="visible" id="p"><path style="stroke:none" d="M.266-3.86v.266h.14c.281 0 .547.031.547.453v2.485c0 .36-.234.375-.687.375v.265L.89-.03h1.562v-.25h-.297c-.312 0-.562-.047-.562-.375v-1.516c.062-.625.234-1.562 1.14-1.562-.125.062-.171.203-.171.328a.39.39 0 1 0 .78 0c0-.375-.359-.563-.687-.563-.547 0-.984.469-1.11.969v-.969Zm0 0"/></symbol><symbol overflow="visible" id="q"><path style="stroke:none" d="M2.172-4.016c-1.047.11-1.906.954-1.906 2.094C.266-1 .953.094 2.312.094c1.047 0 2.032-.844 2.032-2 0-1.078-.844-2.125-2.047-2.125-.047 0-.078.015-.125.015ZM1.047-1.719v-.375c0-.719.219-1.703 1.266-1.703.703 0 1.156.563 1.234 1.281.015.188.015.375.015.563 0 .469-.03 1-.359 1.375a1.19 1.19 0 0 1-.906.422c-.656 0-1.11-.5-1.235-1.219 0-.11 0-.219-.015-.344Zm0 0"/></symbol><symbol overflow="visible" id="r"><path style="stroke:none" d="M.36-3.86v.266H.5c.297 0 .516.047.516.453v2.485c0 .36-.25.375-.688.375v.265h1.938V-.28h-.141c-.234 0-.469-.031-.469-.313v-3.375Zm.765-2.156c-.234.047-.422.235-.422.485s.219.468.485.468h.062a.474.474 0 0 0 .422-.468.477.477 0 0 0-.484-.485Zm0 0"/></symbol><symbol overflow="visible" id="s"><path style="stroke:none" d="M.266-6.14v.28h.14c.297 0 .547.032.547.454v5.39l.25-.015.344-.531c.312.453.75.656 1.234.656 1.125 0 2.031-.953 2.031-2.047 0-.953-.765-2.016-1.937-2.016-.484 0-.89.172-1.281.563v-2.828Zm3.75 4.406c-.032.421-.079.796-.344 1.109a1.252 1.252 0 0 1-.969.484c-.375 0-.75-.218-.953-.546a.457.457 0 0 1-.125-.297v-2c.063-.391.703-.75 1.172-.75 1.047 0 1.234 1.14 1.234 1.812 0 .063 0 .125-.015.188Zm0 0"/></symbol><symbol overflow="visible" id="t"><path style="stroke:none" d="M.344-6.14v.28h.344c.296 0 .562.048.562.391v4.782c0 .39-.313.406-.656.406h-.25v.265h2.64V-.28h-.343c-.313 0-.579-.047-.579-.422v-2.36h2.766v2.36c0 .39-.297.422-.672.422h-.234v.265h2.64V-.28h-.359c-.281 0-.562-.031-.562-.406V-5.47c0-.343.296-.39.593-.39h.329v-.282H3.921v.282h.297c.406 0 .61.03.61.421v2.094H2.062v-2.094c0-.406.28-.421.921-.421v-.282Zm0 0"/></symbol><symbol overflow="visible" id="u"><path style="stroke:none" d="M.813-.313c.296.297.656.407 1.046.407.735 0 1.454-.375 1.454-1.25v-.094c-.032-.516-.422-.89-.876-1.063a3.528 3.528 0 0 0-.703-.156c-.375-.078-.968-.187-.968-.703 0-.515.656-.656 1.03-.656.579 0 .985.344 1.032.969 0 .078.016.171.125.171.063 0 .125-.03.125-.109v-1.078c0-.063-.015-.14-.094-.14-.14 0-.234.218-.343.218h-.016c-.063-.015-.125-.062-.188-.094-.187-.093-.421-.125-.64-.125-.625 0-1.484.204-1.484 1.125 0 .907 1.046 1.047 1.687 1.172.39.078.828.313.86.75 0 .64-.532.828-1.016.828h-.078C1.109-.17.75-.656.594-1.28c-.031-.094-.031-.25-.156-.25-.11 0-.126.078-.126.156v1.156c0 .047-.015.078-.015.125 0 .094.016.188.11.188.093 0 .156-.11.218-.172l.031-.047c.063-.063.11-.11.156-.188Zm0 0"/></symbol><symbol overflow="visible" id="v"><path style="stroke:none" d="M3.484-.531v1.625c0 .328-.187.36-.687.36v.28l.64-.03h1.407v-.25h-.188c-.281 0-.5-.032-.5-.376v-5.047l-.218.016-.11.203-.234.578c-.094-.11-.156-.234-.235-.328a1.316 1.316 0 0 0-1.03-.469c-1.079 0-2.017.906-2.017 2.016 0 1.047.813 2.047 1.954 2.047.453 0 .984-.235 1.218-.625ZM1.078-1.797v-.11c0-.734.39-1.765 1.297-1.812h.031c.578 0 1.016.563 1.11 1.094v1.406c0 .735-.922 1.078-1.204 1.078h-.046C1.609-.188 1.25-.859 1.14-1.42c-.032-.126-.032-.25-.063-.376Zm0 0"/></symbol><symbol overflow="visible" id="w"><path style="stroke:none" d="M.313-3.86v.266H.39c.25 0 .593.031.593.281.016.11.016.188.016.297v1.782c0 .28.016.53.14.78.266.438.813.548 1.282.548.5 0 .984-.297 1.14-.766l.016.766 1.328-.11V-.28H4.75c-.266 0-.531-.031-.531-.438v-3.25l-1.36.11v.265h.125c.282 0 .563.031.563.453v1.766C3.5-.797 3.14-.141 2.453-.141c-.36 0-.687-.078-.765-.546-.016-.172-.016-.329-.016-.5V-3.97Zm0 0"/></symbol><symbol overflow="visible" id="z"><path style="stroke:none" d="M.344-6.11v.282h.344c.296 0 .562.031.562.39v4.75c0 .36-.297.407-.594.407H.344v.265h5.265L6-2.328h-.25c-.094.562-.188 1.203-.563 1.61-.406.421-1.046.437-1.593.437h-1.14c-.188 0-.392 0-.392-.328v-2.438h.86c.312 0 .672.031.828.297.125.188.14.438.14.672v.094h.25v-2.391h-.25v.094c0 .5-.124.906-.687.937-.156.031-.344.031-.515.031h-.626v-2.203c0-.312.188-.312.391-.312h1.172c.625 0 1.328.031 1.656.719.14.328.172.671.219 1.015h.25L5.5-6.109Zm2.406-.765.11.234c.421-.14.843-.25 1.265-.39.188-.047.5-.094.5-.375 0-.188-.156-.36-.344-.36-.11 0-.203.079-.297.125l-.28.172c-.313.188-.626.39-.954.594Zm0 0"/></symbol><symbol overflow="visible" id="A"><path style="stroke:none" d="M1.016-3.86h-.72v.266h.72v2.969c0 .313-.266.344-.563.344H.328v.265L.953-.03h1.563v-.25h-.297c-.328 0-.563-.047-.563-.422v-2.89h1.032v-.266H1.625v-.829c0-.578.14-1.421.828-1.421.078 0 .188.015.266.062a.395.395 0 0 0-.235.36c0 .218.172.39.391.39.266 0 .406-.172.406-.39 0-.422-.453-.641-.828-.641-.625 0-1.187.406-1.39.984-.047.172-.047.344-.047.516Zm0 0"/></symbol><symbol overflow="visible" id="x"><path style="stroke:none" d="M.844-1.36h2.031c.094 0 .11-.077.11-.124 0-.641-.422-1.188-1.235-1.188-.719 0-1.469.516-1.469 1.36C.281-.5 1.047.046 1.812.046c.47 0 1-.203 1.157-.703.015-.016.015-.047.015-.078 0-.063-.062-.079-.109-.079-.11 0-.156.204-.234.297a1.005 1.005 0 0 1-.72.36H1.86a1.02 1.02 0 0 1-.89-.531 1.608 1.608 0 0 1-.125-.672Zm.015-.187c.032-.484.375-.922.891-.922.531 0 .781.453.797.922Zm0 0"/></symbol><symbol overflow="visible" id="y"><path style="stroke:none" d="M2.719-.36V.688c0 .172-.063.235-.469.235v.234h1.438V.922h-.141c-.172 0-.328-.031-.328-.235V-2.64l-.188.016-.078.125-.156.375H2.78c-.172-.344-.594-.516-.953-.516-.734 0-1.453.516-1.5 1.282v.046c0 .782.688 1.36 1.469 1.36.344 0 .687-.14.922-.406ZM.89-1.202v-.094c0-.547.406-1.094.968-1.125h.032c.328 0 .625.203.765.485.031.078.078.156.078.234v.828c0 .344-.406.625-.687.703-.078.016-.14.031-.219.031h-.047C1.234-.188.938-.719.891-1.203Zm0 0"/></symbol></defs><path style="stroke:none;fill-rule:nonzero;fill:#effafb;fill-opacity:1" d="M5.68 79.805V23.113h70.867v56.692ZM76.547 79.805V23.113h70.867v56.692Zm0 0"/><path style="fill:none;stroke-width:4.98138;stroke-linecap:round;stroke-linejoin:miter;stroke:gray;stroke-opacity:1;stroke-miterlimit:10" d="M70.868 2.99v50.714" transform="matrix(1 0 0 -1 5.679 79.806)"/><path style="fill:none;stroke-width:1.39478;stroke-linecap:butt;stroke-linejoin:miter;stroke:#000;stroke-opacity:1;stroke-miterlimit:10" d="M0 .001v56.692h141.735V0Zm0 0" transform="matrix(1 0 0 -1 5.679 79.806)"/><path style="fill:none;stroke-width:.59776;stroke-linecap:butt;stroke-linejoin:miter;stroke:#fff;stroke-opacity:1;stroke-miterlimit:10" d="M0 .001v56.692h141.735V0Zm0 0" transform="matrix(1 0 0 -1 5.679 79.806)"/><use xlink:href="#a" x="12.653" y="71.089" style="fill:#000;fill-opacity:1"/><use xlink:href="#b" x="17.279" y="72.085" style="fill:#000;fill-opacity:1"/><use xlink:href="#c" x="23.989" y="71.089" style="fill:#000;fill-opacity:1"/><use xlink:href="#a" x="33.721" y="71.089" style="fill:#000;fill-opacity:1"/><use xlink:href="#d" x="38.343" y="72.085" style="fill:#000;fill-opacity:1"/><use xlink:href="#a" x="131.66" y="71.089" style="fill:#000;fill-opacity:1"/><use xlink:href="#d" x="136.286" y="72.085" style="fill:#000;fill-opacity:1"/><path style="fill:none;stroke-width:.3985;stroke-linecap:butt;stroke-linejoin:miter;stroke:#000;stroke-opacity:1;stroke-miterlimit:10" d="M70.868 28.345h12.18" transform="matrix(1 0 0 -1 5.679 79.806)"/><path style="stroke:none;fill-rule:nonzero;fill:#000;fill-opacity:1" d="m90.719 51.46-3.188-1.597 1.196 1.598-1.196 1.594"/><use xlink:href="#e" x="74.242" y="53.476" style="fill:#000;fill-opacity:1"/><g style="fill:#000;fill-opacity:1"><use xlink:href="#f" x="81.372" y="47.724"/><use xlink:href="#g" x="86.49" y="47.724"/><use xlink:href="#h" x="90.589" y="47.724"/><use xlink:href="#i" x="95.707" y="47.724"/><use xlink:href="#j" x="98.266" y="47.724"/><use xlink:href="#k" x="102.873" y="47.724"/><use xlink:href="#l" x="106.967" y="47.724"/><use xlink:href="#m" x="111.066" y="47.724"/><use xlink:href="#l" x="118.744" y="47.724"/><use xlink:href="#n" x="122.842" y="47.724"/></g><use xlink:href="#o" x="127.7" y="47.724" style="fill:#000;fill-opacity:1"/><path style="fill:none;stroke-width:.3985;stroke-linecap:butt;stroke-linejoin:miter;stroke:#000;stroke-opacity:1;stroke-miterlimit:10" d="M74.4 43.142c7.355 1.297 7.355 25.805-3.532 27.726" transform="matrix(1 0 0 -1 5.679 79.806)"/><path style="stroke:none;fill-rule:nonzero;fill:#000;fill-opacity:1" d="M76.547 37.285c1.082.012 2.883.3 4.183.781l-.52-2.945c-1.054.895-2.651 1.785-3.663 2.164"/><g style="fill:#000;fill-opacity:1"><use xlink:href="#h" x="24.367" y="11.156"/><use xlink:href="#j" x="29.485" y="11.156"/><use xlink:href="#p" x="34.092" y="11.156"/><use xlink:href="#q" x="37.696" y="11.156"/><use xlink:href="#r" x="42.302" y="11.156"/></g><g style="fill:#000;fill-opacity:1"><use xlink:href="#m" x="47.937" y="11.156"/><use xlink:href="#q" x="55.615" y="11.156"/></g><use xlink:href="#s" x="60.213" y="11.156" style="fill:#000;fill-opacity:1"/><g style="fill:#000;fill-opacity:1"><use xlink:href="#r" x="65.34" y="11.156"/><use xlink:href="#i" x="67.899" y="11.156"/><use xlink:href="#l" x="70.458" y="11.156"/></g><g style="fill:#000;fill-opacity:1"><use xlink:href="#t" x="48.344" y="87.974"/><use xlink:href="#q" x="55.253" y="87.974"/><use xlink:href="#p" x="59.86" y="87.974"/><use xlink:href="#u" x="63.463" y="87.974"/></g><g style="fill:#000;fill-opacity:1"><use xlink:href="#g" x="70.164" y="87.974"/><use xlink:href="#v" x="74.262" y="87.974"/><use xlink:href="#w" x="79.125" y="87.974"/></g><g style="fill:#000;fill-opacity:1"><use xlink:href="#r" x="84.252" y="87.974"/><use xlink:href="#i" x="86.811" y="87.974"/><use xlink:href="#r" x="89.37" y="87.974"/><use xlink:href="#s" x="91.929" y="87.974"/><use xlink:href="#p" x="97.047" y="87.974"/><use xlink:href="#l" x="100.65" y="87.974"/></g><path style="stroke:none;fill-rule:nonzero;fill:#effafb;fill-opacity:1" d="M175.762 79.805V23.113H260.8v56.692ZM260.8 79.805V23.113h56.692v56.692Zm0 0"/><path style="fill:none;stroke-width:4.98138;stroke-linecap:round;stroke-linejoin:miter;stroke:gray;stroke-opacity:1;stroke-miterlimit:10" d="M255.122 2.99v50.714" transform="matrix(1 0 0 -1 5.679 79.806)"/><path style="fill:none;stroke-width:1.39478;stroke-linecap:butt;stroke-linejoin:miter;stroke:#000;stroke-opacity:1;stroke-miterlimit:10" d="M170.083.001v56.692h141.73V0Zm0 0" transform="matrix(1 0 0 -1 5.679 79.806)"/><path style="fill:none;stroke-width:.59776;stroke-linecap:butt;stroke-linejoin:miter;stroke:#fff;stroke-opacity:1;stroke-miterlimit:10" d="M170.083.001v56.692h141.73V0Zm0 0" transform="matrix(1 0 0 -1 5.679 79.806)"/><use xlink:href="#a" x="182.731" y="70.674" style="fill:#000;fill-opacity:1"/><g style="fill:#000;fill-opacity:1"><use xlink:href="#x" x="187.357" y="71.67"/><use xlink:href="#y" x="190.622" y="71.67"/></g><use xlink:href="#a" x="298.281" y="70.674" style="fill:#000;fill-opacity:1"/><g style="fill:#000;fill-opacity:1"><use xlink:href="#x" x="302.907" y="71.67"/><use xlink:href="#y" x="306.172" y="71.67"/></g><g style="fill:#000;fill-opacity:1"><use xlink:href="#z" x="205.597" y="89.497"/><use xlink:href="#v" x="211.866" y="89.497"/><use xlink:href="#w" x="216.729" y="89.497"/><use xlink:href="#r" x="221.847" y="89.497"/><use xlink:href="#i" x="224.406" y="89.497"/><use xlink:href="#r" x="226.965" y="89.497"/><use xlink:href="#s" x="229.524" y="89.497"/><use xlink:href="#p" x="234.642" y="89.497"/><use xlink:href="#l" x="238.245" y="89.497"/></g><g style="fill:#000;fill-opacity:1"><use xlink:href="#m" x="245.419" y="89.497"/><use xlink:href="#g" x="253.097" y="89.497"/><use xlink:href="#k" x="257.196" y="89.497"/><use xlink:href="#j" x="261.291" y="89.497"/></g><use xlink:href="#n" x="265.889" y="89.497" style="fill:#000;fill-opacity:1"/><g style="fill:#000;fill-opacity:1"><use xlink:href="#r" x="271.016" y="89.497"/><use xlink:href="#v" x="273.575" y="89.497"/><use xlink:href="#w" x="278.437" y="89.497"/><use xlink:href="#l" x="283.555" y="89.497"/></g><path style="stroke:none;fill-rule:nonzero;fill:#effafb;fill-opacity:1" d="M345.84 79.805V23.113h70.867v56.692ZM416.707 79.805V23.113h70.867v56.692Zm0 0"/><path style="stroke:none;fill-rule:nonzero;fill:#000;fill-opacity:1" d="M424.68 79.805h-5.98v-5.977Zm0 0"/><path style="fill:none;stroke-width:4.98138;stroke-linecap:round;stroke-linejoin:miter;stroke:gray;stroke-opacity:1;stroke-miterlimit:10" d="M411.028 2.99v50.714" transform="matrix(1 0 0 -1 5.679 79.806)"/><path style="fill:none;stroke-width:1.39478;stroke-linecap:butt;stroke-linejoin:miter;stroke:#000;stroke-opacity:1;stroke-miterlimit:10" d="M340.16.001v56.692h141.735V0Zm0 0" transform="matrix(1 0 0 -1 5.679 79.806)"/><path style="fill:none;stroke-width:.59776;stroke-linecap:butt;stroke-linejoin:miter;stroke:#fff;stroke-opacity:1;stroke-miterlimit:10" d="M340.16.001v56.692h141.735V0Zm0 0" transform="matrix(1 0 0 -1 5.679 79.806)"/><use xlink:href="#a" x="352.81" y="71.089" style="fill:#000;fill-opacity:1"/><use xlink:href="#b" x="357.436" y="72.085" style="fill:#000;fill-opacity:1"/><use xlink:href="#c" x="364.147" y="71.089" style="fill:#000;fill-opacity:1"/><use xlink:href="#a" x="373.87" y="71.089" style="fill:#000;fill-opacity:1"/><use xlink:href="#d" x="378.5" y="72.085" style="fill:#000;fill-opacity:1"/><use xlink:href="#a" x="471.817" y="71.089" style="fill:#000;fill-opacity:1"/><use xlink:href="#d" x="476.443" y="72.085" style="fill:#000;fill-opacity:1"/><path style="fill:none;stroke-width:.3985;stroke-linecap:butt;stroke-linejoin:miter;stroke:#000;stroke-opacity:1;stroke-miterlimit:10" d="M418.122 3.786 445.7 19.708" transform="matrix(1 0 0 -1 5.679 79.806)"/><path style="stroke:none;fill-rule:nonzero;fill:#000;fill-opacity:1" d="M420.691 77.813c1.02-.36 2.817-.704 4.2-.7l-1.493-2.586c-.687 1.2-1.886 2.582-2.707 3.285"/><g style="fill:#000;fill-opacity:1"><use xlink:href="#h" x="420.192" y="45.403"/><use xlink:href="#j" x="425.31" y="45.403"/><use xlink:href="#p" x="429.917" y="45.403"/><use xlink:href="#q" x="433.521" y="45.403"/><use xlink:href="#r" x="438.127" y="45.403"/></g><use xlink:href="#s" x="443.753" y="45.403" style="fill:#000;fill-opacity:1"/><g style="fill:#000;fill-opacity:1"><use xlink:href="#i" x="448.88" y="45.403"/><use xlink:href="#q" x="451.439" y="45.403"/></g><g style="fill:#000;fill-opacity:1"><use xlink:href="#v" x="456.297" y="45.403"/><use xlink:href="#w" x="461.159" y="45.403"/><use xlink:href="#g" x="466.278" y="45.403"/><use xlink:href="#l" x="470.376" y="45.403"/></g><g style="fill:#000;fill-opacity:1"><use xlink:href="#h" x="420.192" y="56.362"/><use xlink:href="#j" x="425.31" y="56.362"/><use xlink:href="#p" x="429.917" y="56.362"/></g><g style="fill:#000;fill-opacity:1"><use xlink:href="#k" x="436.587" y="56.362"/><use xlink:href="#l" x="440.682" y="56.362"/><use xlink:href="#o" x="444.781" y="56.362"/><use xlink:href="#o" x="448.364" y="56.362"/><use xlink:href="#l" x="451.947" y="56.362"/></g><g style="fill:#000;fill-opacity:1"><use xlink:href="#s" x="459.121" y="56.362"/><use xlink:href="#w" x="464.239" y="56.362"/><use xlink:href="#o" x="469.357" y="56.362"/><use xlink:href="#g" x="472.94" y="56.362"/><use xlink:href="#l" x="477.038" y="56.362"/></g><g style="fill:#000;fill-opacity:1"><use xlink:href="#z" x="383.564" y="89.497"/><use xlink:href="#v" x="389.833" y="89.497"/><use xlink:href="#w" x="394.696" y="89.497"/><use xlink:href="#r" x="399.814" y="89.497"/><use xlink:href="#i" x="402.373" y="89.497"/><use xlink:href="#r" x="404.932" y="89.497"/><use xlink:href="#s" x="407.491" y="89.497"/><use xlink:href="#p" x="412.609" y="89.497"/><use xlink:href="#l" x="416.212" y="89.497"/></g><g style="fill:#000;fill-opacity:1"><use xlink:href="#A" x="423.386" y="89.497"/><use xlink:href="#p" x="426.202" y="89.497"/><use xlink:href="#w" x="429.806" y="89.497"/><use xlink:href="#u" x="434.924" y="89.497"/><use xlink:href="#o" x="438.558" y="89.497"/><use xlink:href="#p" x="442.141" y="89.497"/><use xlink:href="#g" x="445.744" y="89.497"/></g></svg>