<svg xmlns="http://www.w3.org/2000/svg" xmlns:xlink="http://www.w3.org/1999/xlink" width="171.403" height="133.011" viewBox="0 0 128.552 99.758"><defs><symbol overflow="visible" id="a"><path style="stroke:none" d="M.953-3.86H.25v.266h.703v2.969c0 .313-.25.344-.547.344h-.14v.265L.922-.03h.734l.625.015V-.28h-.203c-.25 0-.484-.031-.484-.344v-2.969h1.922v2.969c0 .313-.266.344-.563.344h-.125v.265l.625-.015h.735l.656.015V-.28h-.219c-.25 0-.469-.047-.469-.36v-5.593c-.11.015-.218.046-.328.046h-.031c-.063 0-.172-.062-.235-.078a1.613 1.613 0 0 0-.468-.062h-.156c-.922 0-1.985.469-1.985 1.469Zm2.563 0H1.562v-.968c0-.656.422-1.281 1.375-1.281.204 0 .376.03.579.062-.125.094-.204.203-.204.36 0 .218.188.265.204.406.015.047.015.11.015.156 0 .11-.015.219-.015.313Zm0 0"/></symbol><symbol overflow="visible" id="b"><path style="stroke:none" d="M.313-3.86v.266H.39c.25 0 .593.031.593.281.016.11.016.188.016.297v1.782c0 .28.016.53.14.78.266.438.813.548 1.282.548.5 0 .984-.297 1.14-.766l.016.766 1.328-.11V-.28H4.75c-.266 0-.531-.031-.531-.438v-3.25l-1.36.11v.265h.125c.282 0 .563.031.563.453v1.766C3.5-.797 3.14-.141 2.453-.141c-.36 0-.687-.078-.765-.546-.016-.172-.016-.329-.016-.5V-3.97Zm0 0"/></symbol><symbol overflow="visible" id="c"><path style="stroke:none" d="M.36-3.86v.266H.5c.297 0 .516.047.516.453v2.485c0 .36-.25.375-.688.375v.265h1.938V-.28h-.141c-.234 0-.469-.031-.469-.313v-3.375Zm.765-2.156c-.234.047-.422.235-.422.485s.219.468.485.468h.062a.474.474 0 0 0 .422-.468.477.477 0 0 0-.484-.485Zm0 0"/></symbol><symbol overflow="visible" id="d"><path style="stroke:none" d="M2.828-6.14v.28h.094c.36 0 .594.016.594.548v1.875a1.532 1.532 0 0 0-1.172-.532c-1.11 0-2.031.938-2.031 2.047C.313-.906 1.14.094 2.266.094c.421 0 .984-.203 1.218-.578v.578l1.36-.11V-.28h-.14c-.298 0-.548-.031-.548-.453v-5.5Zm-1.75 4.406v-.125c0-.72.188-1.875 1.313-1.875.468 0 1.109.343 1.109.906 0 .11-.016.219-.016.328v1.484c0 .11-.046.188-.109.282-.234.343-.64.593-1.063.593a1.14 1.14 0 0 1-.89-.453c-.25-.328-.297-.734-.344-1.14Zm0 0"/></symbol><symbol overflow="visible" id="e"><path style="stroke:none" d="M1.031-2.063h2.657c.109 0 .156-.046.156-.156 0-1.125-.703-1.797-1.64-1.797-1.095 0-1.954.954-1.954 2.047C.25-.875 1.125.094 2.344.094c.64 0 1.281-.453 1.469-1.078.015-.016.015-.063.015-.094a.107.107 0 0 0-.11-.11c-.171 0-.171.266-.265.391-.219.375-.656.64-1.094.64h-.062C1.828-.171 1.422-.5 1.219-.921c-.172-.36-.188-.75-.188-1.14Zm.016-.218c0-.594.25-1.281.906-1.485a.914.914 0 0 1 .203-.03c.781 0 1.063.796 1.063 1.515Zm0 0"/></symbol><symbol overflow="visible" id="f"><path style="stroke:none" d="M.266-3.86v.266h.171c.266 0 .516.031.516.39v4.282c0 .375-.265.375-.687.375v.281l.64-.03h1.406v-.25h-.218c-.25 0-.469-.032-.469-.36V-.438c.297.329.656.532 1.125.532 1.078 0 2.063-.875 2.063-2.031 0-1.016-.797-2.032-1.938-2.032-.5 0-.953.219-1.281.563v-.563Zm3.75 2.063C3.984-1.094 3.562-.14 2.672-.14c-.469 0-1.047-.453-1.047-.843v-1.47c0-.124-.016-.233-.016-.343 0-.5.657-.922 1.172-.922.844 0 1.25 1.063 1.25 1.75 0 .047 0 .11-.015.172Zm0 0"/></symbol><symbol overflow="visible" id="g"><path style="stroke:none" d="M1.094-3.484c.25-.22.61-.313.937-.313.313 0 .594.172.781.438.172.25.172.53.172.828v.156c-.734.078-1.468.078-2.093.547-.297.219-.516.578-.516.937 0 .735.875.985 1.469.985.547 0 .968-.281 1.218-.75.079.375.297.703.704.703.546 0 .78-.453.78-.953v-.406h-.25v.453c0 .25-.046.593-.327.593-.297 0-.313-.39-.313-.593v-1.75c0-.938-.812-1.407-1.61-1.407-.562 0-1.39.235-1.39.938 0 .25.14.437.469.437.219-.015.36-.218.36-.421 0-.25-.188-.376-.391-.422Zm1.89 1.328v.875c0 .625-.437 1.14-1.062 1.14h-.063c-.421-.03-.75-.359-.75-.75 0-.859 1.032-1.265 1.875-1.265Zm0 0"/></symbol><symbol overflow="visible" id="h"><path style="stroke:none" d="M.266-3.86v.266h.14c.281 0 .547.031.547.453v2.485c0 .36-.234.375-.687.375v.265L.89-.03h1.562v-.25h-.297c-.312 0-.562-.047-.562-.375v-1.516c.062-.625.234-1.562 1.14-1.562-.125.062-.171.203-.171.328a.39.39 0 1 0 .78 0c0-.375-.359-.563-.687-.563-.547 0-.984.469-1.11.969v-.969Zm0 0"/></symbol><symbol overflow="visible" id="i"><path style="stroke:none" d="M2.172-4.016c-1.047.11-1.906.954-1.906 2.094C.266-1 .953.094 2.312.094c1.047 0 2.032-.844 2.032-2 0-1.078-.844-2.125-2.047-2.125-.047 0-.078.015-.125.015ZM1.047-1.719v-.375c0-.719.219-1.703 1.266-1.703.703 0 1.156.563 1.234 1.281.015.188.015.375.015.563 0 .469-.03 1-.359 1.375a1.19 1.19 0 0 1-.906.422c-.656 0-1.11-.5-1.235-1.219 0-.11 0-.219-.015-.344Zm0 0"/></symbol><symbol overflow="visible" id="j"><path style="stroke:none" d="M5.86-6.078c.03-.094.03-.125.03-.14 0-.016 0-.11-.109-.11-.047 0-.047.016-.156.14-.125.141-.016.016-.438.5-.328-.5-.843-.64-1.328-.64-1.156 0-2.25 1.031-2.25 2.11 0 .374.125.671.36.921.25.281.484.328 1.125.5l.75.188c.297.093.594.375.594.89 0 .797-.766 1.64-1.672 1.64-.516 0-1.594-.155-1.594-1.312 0-.078 0-.218.062-.484.016-.031.016-.047.016-.063 0-.03-.016-.093-.125-.093-.11 0-.125.047-.156.187L.5.094c0 .062.031.11.094.11C.64.203.656.187.766.062c.062-.063.312-.391.421-.5.47.593 1.297.64 1.563.64 1.234 0 2.313-1.156 2.313-2.297 0-1.11-.875-1.328-1.157-1.39l-.812-.22c-.297-.077-.844-.218-.844-.89 0-.687.719-1.484 1.61-1.484.359 0 .718.11.968.36.344.327.344.812.344 1.046 0 .297-.031.39-.031.469 0 .062.03.11.125.11.093 0 .093-.016.14-.188Zm0 0"/></symbol><symbol overflow="visible" id="m"><path style="stroke:none" d="M4.313-3.313c0-.624-.329-.656-.407-.656-.234 0-.469.235-.469.438 0 .14.094.219.157.265.234.22.312.516.312.75 0 .391-.562 2.391-1.594 2.391-.687 0-.687-.625-.687-.797 0-.375.14-.844.453-1.656.14-.375.172-.469.172-.625a.739.739 0 0 0-.766-.766c-.859 0-1.218 1.281-1.218 1.39 0 .079.062.11.125.11.093 0 .109-.062.14-.172.188-.656.547-1.093.922-1.093.172 0 .219.109.219.296 0 .141-.047.313-.125.516-.313.875-.531 1.438-.531 1.89 0 .845.64 1.126 1.25 1.126 1.515 0 2.046-2.828 2.046-3.406Zm0 0"/></symbol><symbol overflow="visible" id="q"><path style="stroke:none" d="M3.36-3.594h.796c.188 0 .282 0 .282-.156 0-.11-.094-.11-.266-.11h-.766c.094-.546.219-1.28.344-1.765.078-.344.297-.469.469-.469.062 0 .265.016.422.125-.188.032-.438.188-.438.485 0 .234.172.328.328.328.25 0 .5-.203.5-.532 0-.406-.39-.64-.812-.64-.407 0-.813.297-1 .656-.203.39-.266.734-.453 1.813h-.641c-.172 0-.281 0-.281.156 0 .11.11.11.265.11h.61C2.469-2.282 2.156-.5 1.953.436c-.11.5-.25 1.172-.672 1.172-.14 0-.328-.046-.406-.125.219-.03.438-.218.438-.484 0-.234-.172-.328-.329-.328a.51.51 0 0 0-.5.531c0 .422.407.64.797.64.907 0 1.328-1.5 1.469-2.265Zm0 0"/></symbol><symbol overflow="visible" id="k"><path style="stroke:none" d="M6.047-2.047c.172 0 .344 0 .344-.203 0-.188-.188-.188-.344-.188H1.109c-.156 0-.343 0-.343.188 0 .203.171.203.343.203Zm0 0"/></symbol><symbol overflow="visible" id="l"><path style="stroke:none" d="M7.625-2.047c-1.063.75-1.281 1.938-1.281 2.031 0 .125.125.125.187.125.11 0 .172 0 .203-.125.25-1.046.86-1.75 1.844-2.109.047-.016.125-.047.125-.125s-.062-.094-.125-.125c-1.125-.422-1.64-1.219-1.844-2.094-.03-.125-.062-.125-.203-.125-.078 0-.187 0-.187.125 0 .094.218 1.282 1.281 2.032H.844c-.156 0-.328 0-.328.187 0 .203.171.203.328.203Zm0 0"/></symbol><clipPath id="n"><path d="M5 62h7v7H5Zm0 0"/></clipPath><clipPath id="o"><path d="M11.156 65.633a2.988 2.988 0 1 0-5.976 0 2.988 2.988 0 0 0 5.976 0Zm0 0"/></clipPath><radialGradient id="p" gradientUnits="userSpaceOnUse" cx="5.979" cy="5.979" fx="4.783" fy="7.174" r="5.979" gradientTransform="matrix(1 0 0 -1 2.19 71.612)"><stop offset="0" style="stop-color:#000;stop-opacity:0"/><stop offset="0" style="stop-color:#fff;stop-opacity:1"/><stop offset=".125" style="stop-color:#fff;stop-opacity:1"/><stop offset=".18" style="stop-color:#fefefe;stop-opacity:1"/><stop offset=".184" style="stop-color:#fdfdfd;stop-opacity:1"/><stop offset=".188" style="stop-color:#fbfbfb;stop-opacity:1"/><stop offset=".191" style="stop-color:#f9f9f9;stop-opacity:1"/><stop offset=".195" style="stop-color:#f8f8f8;stop-opacity:1"/><stop offset=".199" style="stop-color:#f6f6f6;stop-opacity:1"/><stop offset=".203" style="stop-color:#f4f4f4;stop-opacity:1"/><stop offset=".207" style="stop-color:#f3f3f3;stop-opacity:1"/><stop offset=".211" style="stop-color:#f1f1f1;stop-opacity:1"/><stop offset=".215" style="stop-color:#efefef;stop-opacity:1"/><stop offset=".219" style="stop-color:#eee;stop-opacity:1"/><stop offset=".223" style="stop-color:#ececec;stop-opacity:1"/><stop offset=".227" style="stop-color:#eaeaea;stop-opacity:1"/><stop offset=".23" style="stop-color:#e9e9e9;stop-opacity:1"/><stop offset=".234" style="stop-color:#e7e7e7;stop-opacity:1"/><stop offset=".238" style="stop-color:#e5e5e5;stop-opacity:1"/><stop offset=".242" style="stop-color:#e4e4e4;stop-opacity:1"/><stop offset=".246" style="stop-color:#e2e2e2;stop-opacity:1"/><stop offset=".25" style="stop-color:#e0e0e0;stop-opacity:1"/><stop offset=".254" style="stop-color:#dfdfdf;stop-opacity:1"/><stop offset=".258" style="stop-color:#ddd;stop-opacity:1"/><stop offset=".262" style="stop-color:#dbdbdb;stop-opacity:1"/><stop offset=".266" style="stop-color:#dadada;stop-opacity:1"/><stop offset=".27" style="stop-color:#d8d8d8;stop-opacity:1"/><stop offset=".273" style="stop-color:#d6d6d6;stop-opacity:1"/><stop offset=".277" style="stop-color:#d5d5d5;stop-opacity:1"/><stop offset=".281" style="stop-color:#d3d3d3;stop-opacity:1"/><stop offset=".285" style="stop-color:#d1d1d1;stop-opacity:1"/><stop offset=".289" style="stop-color:#d0d0d0;stop-opacity:1"/><stop offset=".293" style="stop-color:#cecece;stop-opacity:1"/><stop offset=".297" style="stop-color:#ccc;stop-opacity:1"/><stop offset=".301" style="stop-color:#cbcbcb;stop-opacity:1"/><stop offset=".305" style="stop-color:#c9c9c9;stop-opacity:1"/><stop offset=".309" style="stop-color:#c8c8c8;stop-opacity:1"/><stop offset=".313" style="stop-color:#c6c6c6;stop-opacity:1"/><stop offset=".316" style="stop-color:#c4c4c4;stop-opacity:1"/><stop offset=".32" style="stop-color:#c3c3c3;stop-opacity:1"/><stop offset=".324" style="stop-color:#c1c1c1;stop-opacity:1"/><stop offset=".328" style="stop-color:#bfbfbf;stop-opacity:1"/><stop offset=".332" style="stop-color:#bebebe;stop-opacity:1"/><stop offset=".336" style="stop-color:#bcbcbc;stop-opacity:1"/><stop offset=".34" style="stop-color:#bababa;stop-opacity:1"/><stop offset=".344" style="stop-color:#b9b9b9;stop-opacity:1"/><stop offset=".348" style="stop-color:#b7b7b7;stop-opacity:1"/><stop offset=".352" style="stop-color:#b5b5b5;stop-opacity:1"/><stop offset=".355" style="stop-color:#b4b4b4;stop-opacity:1"/><stop offset=".359" style="stop-color:#b2b2b2;stop-opacity:1"/><stop offset=".363" style="stop-color:#b1b1b1;stop-opacity:1"/><stop offset=".367" style="stop-color:#afafaf;stop-opacity:1"/><stop offset=".371" style="stop-color:#aeaeae;stop-opacity:1"/><stop offset=".375" style="stop-color:#acacac;stop-opacity:1"/><stop offset=".379" style="stop-color:#ababab;stop-opacity:1"/><stop offset=".383" style="stop-color:#a9a9a9;stop-opacity:1"/><stop offset=".387" style="stop-color:#a8a8a8;stop-opacity:1"/><stop offset=".391" style="stop-color:#a7a7a7;stop-opacity:1"/><stop offset=".395" style="stop-color:#a5a5a5;stop-opacity:1"/><stop offset=".398" style="stop-color:#a4a4a4;stop-opacity:1"/><stop offset=".402" style="stop-color:#a2a2a2;stop-opacity:1"/><stop offset=".406" style="stop-color:#a1a1a1;stop-opacity:1"/><stop offset=".41" style="stop-color:#a0a0a0;stop-opacity:1"/><stop offset=".414" style="stop-color:#9e9e9e;stop-opacity:1"/><stop offset=".418" style="stop-color:#9d9d9d;stop-opacity:1"/><stop offset=".422" style="stop-color:#9b9b9b;stop-opacity:1"/><stop offset=".426" style="stop-color:#9a9a9a;stop-opacity:1"/><stop offset=".43" style="stop-color:#989898;stop-opacity:1"/><stop offset=".434" style="stop-color:#979797;stop-opacity:1"/><stop offset=".438" style="stop-color:#969696;stop-opacity:1"/><stop offset=".441" style="stop-color:#949494;stop-opacity:1"/><stop offset=".445" style="stop-color:#939393;stop-opacity:1"/><stop offset=".449" style="stop-color:#919191;stop-opacity:1"/><stop offset=".453" style="stop-color:#909090;stop-opacity:1"/><stop offset=".457" style="stop-color:#8e8e8e;stop-opacity:1"/><stop offset=".461" style="stop-color:#8d8d8d;stop-opacity:1"/><stop offset=".465" style="stop-color:#8c8c8c;stop-opacity:1"/><stop offset=".469" style="stop-color:#8a8a8a;stop-opacity:1"/><stop offset=".473" style="stop-color:#898989;stop-opacity:1"/><stop offset=".477" style="stop-color:#878787;stop-opacity:1"/><stop offset=".48" style="stop-color:#868686;stop-opacity:1"/><stop offset=".484" style="stop-color:#848484;stop-opacity:1"/><stop offset=".488" style="stop-color:#838383;stop-opacity:1"/><stop offset=".492" style="stop-color:#828282;stop-opacity:1"/><stop offset=".496" style="stop-color:gray;stop-opacity:1"/><stop offset=".5" style="stop-color:#7f7f7f;stop-opacity:1"/><stop offset=".504" style="stop-color:#7e7e7e;stop-opacity:1"/><stop offset=".508" style="stop-color:#7d7d7d;stop-opacity:1"/><stop offset=".512" style="stop-color:#7c7c7c;stop-opacity:1"/><stop offset=".516" style="stop-color:#7b7b7b;stop-opacity:1"/><stop offset=".52" style="stop-color:#7a7a7a;stop-opacity:1"/><stop offset=".523" style="stop-color:#797979;stop-opacity:1"/><stop offset=".527" style="stop-color:#787878;stop-opacity:1"/><stop offset=".531" style="stop-color:#777;stop-opacity:1"/><stop offset=".535" style="stop-color:#767676;stop-opacity:1"/><stop offset=".539" style="stop-color:#757575;stop-opacity:1"/><stop offset=".543" style="stop-color:#747474;stop-opacity:1"/><stop offset=".547" style="stop-color:#737373;stop-opacity:1"/><stop offset=".551" style="stop-color:#727272;stop-opacity:1"/><stop offset=".555" style="stop-color:#717171;stop-opacity:1"/><stop offset=".559" style="stop-color:#707070;stop-opacity:1"/><stop offset=".563" style="stop-color:#6f6f6f;stop-opacity:1"/><stop offset=".566" style="stop-color:#6e6e6e;stop-opacity:1"/><stop offset=".57" style="stop-color:#6d6d6d;stop-opacity:1"/><stop offset=".574" style="stop-color:#6c6c6c;stop-opacity:1"/><stop offset=".578" style="stop-color:#6b6b6b;stop-opacity:1"/><stop offset=".582" style="stop-color:#6a6a6a;stop-opacity:1"/><stop offset=".586" style="stop-color:#696969;stop-opacity:1"/><stop offset=".59" style="stop-color:#686868;stop-opacity:1"/><stop offset=".594" style="stop-color:#676767;stop-opacity:1"/><stop offset=".598" style="stop-color:#666;stop-opacity:1"/><stop offset=".602" style="stop-color:#656565;stop-opacity:1"/><stop offset=".605" style="stop-color:#646464;stop-opacity:1"/><stop offset=".609" style="stop-color:#636363;stop-opacity:1"/><stop offset=".613" style="stop-color:#626262;stop-opacity:1"/><stop offset=".617" style="stop-color:#616161;stop-opacity:1"/><stop offset=".621" style="stop-color:#606060;stop-opacity:1"/><stop offset=".625" style="stop-color:#5f5f5f;stop-opacity:1"/><stop offset=".629" style="stop-color:#5e5e5e;stop-opacity:1"/><stop offset=".633" style="stop-color:#5d5d5d;stop-opacity:1"/><stop offset=".637" style="stop-color:#5c5c5c;stop-opacity:1"/><stop offset=".641" style="stop-color:#5b5b5b;stop-opacity:1"/><stop offset=".645" style="stop-color:#5a5a5a;stop-opacity:1"/><stop offset=".648" style="stop-color:#595959;stop-opacity:1"/><stop offset=".652" style="stop-color:#585858;stop-opacity:1"/><stop offset=".656" style="stop-color:#575757;stop-opacity:1"/><stop offset=".66" style="stop-color:#565656;stop-opacity:1"/><stop offset=".664" style="stop-color:#555;stop-opacity:1"/><stop offset=".668" style="stop-color:#545454;stop-opacity:1"/><stop offset=".672" style="stop-color:#535353;stop-opacity:1"/><stop offset=".676" style="stop-color:#525252;stop-opacity:1"/><stop offset=".68" style="stop-color:#515151;stop-opacity:1"/><stop offset=".684" style="stop-color:#505050;stop-opacity:1"/><stop offset=".688" style="stop-color:#4f4f4f;stop-opacity:1"/><stop offset=".691" style="stop-color:#4e4e4e;stop-opacity:1"/><stop offset=".695" style="stop-color:#4d4d4d;stop-opacity:1"/><stop offset=".699" style="stop-color:#4c4c4c;stop-opacity:1"/><stop offset=".703" style="stop-color:#4b4b4b;stop-opacity:1"/><stop offset=".707" style="stop-color:#4a4a4a;stop-opacity:1"/><stop offset=".711" style="stop-color:#494949;stop-opacity:1"/><stop offset=".715" style="stop-color:#484848;stop-opacity:1"/><stop offset=".719" style="stop-color:#474747;stop-opacity:1"/><stop offset=".723" style="stop-color:#464646;stop-opacity:1"/><stop offset=".727" style="stop-color:#454545;stop-opacity:1"/><stop offset=".73" style="stop-color:#444;stop-opacity:1"/><stop offset=".734" style="stop-color:#434343;stop-opacity:1"/><stop offset=".738" style="stop-color:#424242;stop-opacity:1"/><stop offset=".742" style="stop-color:#414141;stop-opacity:1"/><stop offset=".746" style="stop-color:#404040;stop-opacity:1"/><stop offset=".75" style="stop-color:#3f3f3f;stop-opacity:1"/><stop offset=".754" style="stop-color:#3e3e3e;stop-opacity:1"/><stop offset=".758" style="stop-color:#3d3d3d;stop-opacity:1"/><stop offset=".762" style="stop-color:#3c3c3c;stop-opacity:1"/><stop offset=".766" style="stop-color:#3b3b3b;stop-opacity:1"/><stop offset=".77" style="stop-color:#3a3a3a;stop-opacity:1"/><stop offset=".773" style="stop-color:#393939;stop-opacity:1"/><stop offset=".777" style="stop-color:#383838;stop-opacity:1"/><stop offset=".781" style="stop-color:#373737;stop-opacity:1"/><stop offset=".785" style="stop-color:#363636;stop-opacity:1"/><stop offset=".789" style="stop-color:#353535;stop-opacity:1"/><stop offset=".793" style="stop-color:#343434;stop-opacity:1"/><stop offset=".797" style="stop-color:#333;stop-opacity:1"/><stop offset=".801" style="stop-color:#323232;stop-opacity:1"/><stop offset=".805" style="stop-color:#313131;stop-opacity:1"/><stop offset=".809" style="stop-color:#303030;stop-opacity:1"/><stop offset=".813" style="stop-color:#2f2f2f;stop-opacity:1"/><stop offset=".816" style="stop-color:#2e2e2e;stop-opacity:1"/><stop offset=".82" style="stop-color:#2d2d2d;stop-opacity:1"/><stop offset=".824" style="stop-color:#2c2c2c;stop-opacity:1"/><stop offset=".828" style="stop-color:#2b2b2b;stop-opacity:1"/><stop offset=".832" style="stop-color:#2a2a2a;stop-opacity:1"/><stop offset=".836" style="stop-color:#292929;stop-opacity:1"/><stop offset=".84" style="stop-color:#282828;stop-opacity:1"/><stop offset=".844" style="stop-color:#272727;stop-opacity:1"/><stop offset=".848" style="stop-color:#262626;stop-opacity:1"/><stop offset=".852" style="stop-color:#252525;stop-opacity:1"/><stop offset=".855" style="stop-color:#242424;stop-opacity:1"/><stop offset=".859" style="stop-color:#232323;stop-opacity:1"/><stop offset=".863" style="stop-color:#222;stop-opacity:1"/><stop offset=".867" style="stop-color:#212121;stop-opacity:1"/><stop offset=".871" style="stop-color:#202020;stop-opacity:1"/><stop offset=".875" style="stop-color:#1f1f1f;stop-opacity:1"/><stop offset=".879" style="stop-color:#1e1e1e;stop-opacity:1"/><stop offset=".883" style="stop-color:#1d1d1d;stop-opacity:1"/><stop offset=".887" style="stop-color:#1c1c1c;stop-opacity:1"/><stop offset=".891" style="stop-color:#1b1b1b;stop-opacity:1"/><stop offset=".895" style="stop-color:#1a1a1a;stop-opacity:1"/><stop offset=".898" style="stop-color:#191919;stop-opacity:1"/><stop offset=".902" style="stop-color:#181818;stop-opacity:1"/><stop offset=".906" style="stop-color:#171717;stop-opacity:1"/><stop offset=".91" style="stop-color:#161616;stop-opacity:1"/><stop offset=".914" style="stop-color:#151515;stop-opacity:1"/><stop offset=".918" style="stop-color:#141414;stop-opacity:1"/><stop offset=".922" style="stop-color:#131313;stop-opacity:1"/><stop offset=".926" style="stop-color:#121212;stop-opacity:1"/><stop offset=".93" style="stop-color:#111;stop-opacity:1"/><stop offset=".934" style="stop-color:#101010;stop-opacity:1"/><stop offset=".938" style="stop-color:#0f0f0f;stop-opacity:1"/><stop offset=".941" style="stop-color:#0e0e0e;stop-opacity:1"/><stop offset=".945" style="stop-color:#0d0d0d;stop-opacity:1"/><stop offset=".949" style="stop-color:#0c0c0c;stop-opacity:1"/><stop offset=".953" style="stop-color:#0b0b0b;stop-opacity:1"/><stop offset=".957" style="stop-color:#0a0a0a;stop-opacity:1"/><stop offset=".961" style="stop-color:#090909;stop-opacity:1"/><stop offset=".965" style="stop-color:#080808;stop-opacity:1"/><stop offset=".969" style="stop-color:#070707;stop-opacity:1"/><stop offset=".973" style="stop-color:#060606;stop-opacity:1"/><stop offset=".977" style="stop-color:#050505;stop-opacity:1"/><stop offset=".98" style="stop-color:#040404;stop-opacity:1"/><stop offset=".984" style="stop-color:#030303;stop-opacity:1"/><stop offset=".988" style="stop-color:#020202;stop-opacity:1"/><stop offset=".992" style="stop-color:#010101;stop-opacity:1"/><stop offset=".996" style="stop-color:#000;stop-opacity:1"/><stop offset="1" style="stop-color:#000;stop-opacity:1"/><stop offset="1" style="stop-color:#000;stop-opacity:0"/></radialGradient></defs><g style="fill:#000;fill-opacity:1"><use xlink:href="#a" x="47.033" y="11.156"/><use xlink:href="#b" x="52.151" y="11.156"/><use xlink:href="#c" x="57.269" y="11.156"/><use xlink:href="#d" x="59.828" y="11.156"/><use xlink:href="#e" x="64.946" y="11.156"/></g><g style="fill:#000;fill-opacity:1"><use xlink:href="#f" x="90.546" y="11.156"/><use xlink:href="#g" x="95.664" y="11.156"/><use xlink:href="#h" x="100.271" y="11.156"/><use xlink:href="#i" x="103.875" y="11.156"/><use xlink:href="#c" x="108.482" y="11.156"/></g><path style="fill:none;stroke-width:1.59404;stroke-linecap:butt;stroke-linejoin:miter;stroke:#000;stroke-opacity:1;stroke-miterlimit:10" d="M0-42.52v85.039" transform="matrix(1 0 0 -1 79.035 51.46)"/><path style="fill:none;stroke-width:1.59404;stroke-linecap:butt;stroke-linejoin:miter;stroke:#ccf;stroke-opacity:1;stroke-miterlimit:10" d="M0-14.173v28.348" transform="matrix(1 0 0 -1 79.035 51.46)"/><use xlink:href="#d" x="63.793" y="54.548" style="fill:#000;fill-opacity:1"/><use xlink:href="#j" x="68.911" y="54.548" style="fill:#000;fill-opacity:1"/><path style="fill:none;stroke-width:.3985;stroke-linecap:butt;stroke-linejoin:miter;stroke:#000;stroke-opacity:1;stroke-miterlimit:10" d="M-70.867-14.173 0 9.448l-40.629 13.543" transform="matrix(1 0 0 -1 79.035 51.46)"/><path style="stroke:none;fill-rule:nonzero;fill:#000;fill-opacity:1" d="m36.516 27.836 2.52 2.523-.63-1.89 1.637-1.137"/><path style="fill:none;stroke-width:.79701;stroke-linecap:butt;stroke-linejoin:miter;stroke:#000;stroke-opacity:1;stroke-miterlimit:10" d="m-70.867-14.173 14.55 4.852" transform="matrix(1 0 0 -1 79.035 51.46)"/><path style="stroke:none;fill-rule:nonzero;fill:#000;fill-opacity:1" d="m25.176 59.965-4.586-.656 2.129 1.472-.82 2.461"/><use xlink:href="#k" x="12.066" y="68.129" style="fill:#000;fill-opacity:1"/><use xlink:href="#l" x="12.07" y="68.129" style="fill:#000;fill-opacity:1"/><use xlink:href="#m" x="14.274" y="71.99" style="fill:#000;fill-opacity:1"/><g clip-path="url(#n)"><g clip-path="url(#o)"><path style="stroke:none;fill-rule:nonzero;fill:url(#p)" d="M6.973 64.438Zm.898.148-.05.27-.145.234-.223.168-.262.074-.273-.027-.246-.121-.184-.204-.101-.257v-.274l.101-.254.184-.203.246-.125.273-.023.262.074.223.164.144.234Zm0 0-.05-.27-.145-.234-.223-.164-.262-.074-.273.023-.246.125-.184.203-.101.254v.274l.101.257.184.204.246.12.273.028.262-.074.223-.168.144-.235Zm.39.066-.073.387-.208.336-.312.238-.383.11-.39-.035-.356-.18-.266-.29-.14-.366v-.399l.14-.367.266-.29.356-.175.39-.039.383.11.312.238.207.336Zm0 0-.073-.386-.208-.336-.312-.239-.383-.109-.39.04-.356.175-.266.289-.14.367v.399l.14.367.266.289.356.18.39.035.383-.11.312-.238.207-.336Zm.028.004-.074.399-.211.343-.324.243-.387.109-.402-.04-.36-.179-.273-.297-.145-.375v-.402l.145-.379.273-.297.36-.18.402-.038.387.113.324.242.21.344Zm0 0-.074-.394-.211-.344-.324-.242-.387-.114-.402.04-.36.18-.273.296-.145.379v.402l.145.375.273.297.36.18.402.039.387-.11.324-.242.21-.343Zm.027.004-.074.406-.219.352-.328.246-.394.113-.41-.039-.371-.183-.278-.305-.148-.383v-.41l.148-.387.278-.304.37-.184.41-.035.395.113.328.246.22.352Zm0 0-.074-.402-.219-.352-.328-.246-.394-.113-.41.035-.371.184-.278.304-.148.387v.41l.148.383.278.305.37.183.41.04.395-.114.328-.246.22-.352Zm.028.008-.074.41-.223.36-.336.253-.402.114-.422-.04-.375-.187-.285-.308-.149-.395v-.418l.149-.394.285-.31.375-.187.422-.039.402.114.336.254.223.359Zm0 0-.074-.414-.223-.36-.336-.253-.402-.114-.422.04-.375.187-.285.309-.149.394v.418l.149.395.285.308.375.188.422.039.402-.114.336-.254.223-.359Zm.031.004-.082.422-.223.363-.343.258-.415.117-.425-.039-.383-.191-.29-.317-.155-.398v-.43l.156-.402.289-.317.383-.191.426-.04.414.118.343.258.223.367Zm0 0-.082-.422-.223-.367-.343-.258-.415-.117-.425.039-.383.191-.29.317-.155.402v.43l.156.398.289.317.383.191.426.039.414-.117.343-.258.223-.363Zm.027.004-.082.43-.23.37-.348.266-.422.121-.437-.043-.39-.195-.294-.32-.16-.41v-.438l.16-.41.293-.32.39-.196.438-.043.422.121.348.266.23.371Zm0 0-.082-.43-.23-.371-.348-.266-.422-.12-.437.042-.39.196-.294.32-.16.41v.438l.16.41.293.32.39.195.438.043.422-.12.348-.266.23-.372Zm.028.004-.082.441-.235.379-.355.266-.43.125-.445-.043-.399-.2-.3-.328-.16-.418v-.445l.16-.414.3-.332.399-.2.445-.038.43.12.355.27.235.38Zm0 0-.082-.438-.235-.379-.355-.27-.43-.12-.445.039-.399.199-.3.332-.16.414v.445l.16.418.3.328.399.2.445.043.43-.125.355-.266.235-.379Zm.027.004-.082.449-.242.387-.36.273-.437.125-.453-.043-.41-.203-.305-.336-.164-.422v-.457l.164-.422.305-.336.41-.203.453-.043.437.125.36.274.242.386Zm0 0-.082-.446-.242-.386-.36-.274-.437-.125-.453.043-.41.203-.305.336-.164.422v.457l.164.422.305.336.41.203.453.043.437-.125.36-.273.242-.387Zm.027.007-.082.454-.246.394-.37.281-.446.125-.461-.043-.414-.207-.313-.34-.168-.433v-.465l.168-.43.313-.343.414-.207.46-.043.446.129.371.277.246.394Zm0 0-.082-.457-.246-.394-.37-.278-.446-.128-.461.043-.414.207-.313.343-.168.43v.465l.168.433.313.34.414.207.46.043.446-.125.371-.28.246-.395Zm.032.004-.09.465-.246.399-.38.285-.452.129-.47-.043-.421-.211-.32-.348-.172-.441v-.473l.172-.437.32-.352.422-.207.469-.047.453.129.379.285.246.402Zm0 0-.09-.465-.246-.402-.38-.285-.452-.129-.47.047-.421.207-.32.352-.172.437v.473l.172.441.32.348.422.21.469.044.453-.13.379-.284.246-.399Zm.027.004-.09.473-.254.41-.383.29-.46.128-.481-.043-.43-.215-.324-.355-.172-.45v-.48l.172-.445.324-.356.43-.215.48-.043.461.13.383.288.254.41Zm0 0-.09-.472-.254-.41-.383-.29-.46-.129-.481.043-.43.215-.324.356-.172.445v.48l.172.45.324.355.43.215.48.043.461-.129.383-.289.254-.41Zm.027.004-.09.48-.257.419-.391.293-.469.136-.488-.047-.438-.218-.332-.36-.175-.457v-.488l.175-.457.332-.363.438-.22.488-.042.469.133.39.297.258.414Zm0 0-.09-.48-.257-.414-.391-.297-.469-.133-.488.043-.438.219-.332.363-.175.457v.488l.175.457.332.36.438.218.488.047.469-.136.39-.293.258-.418Zm.028.004-.09.492-.262.422-.398.3-.48.138-.497-.047-.445-.223-.336-.367-.18-.465v-.496l.18-.465.336-.367.445-.223.496-.047.48.137.4.3.26.423Zm0 0-.09-.488-.262-.422-.398-.3-.48-.138-.497.047-.445.223-.336.367-.18.465v.496l.18.465.336.367.445.223.496.047.48-.137.4-.3.26-.423Zm.027.008-.094.496-.265.43-.403.304-.488.14-.504-.046-.453-.227-.34-.374-.183-.473v-.504l.183-.473.34-.375.453-.226.504-.047.488.14.403.305.265.43Zm0 0-.094-.5-.265-.43-.403-.305-.488-.14-.504.047-.453.226-.34.375-.183.473v.504l.183.472.34.376.453.226.504.047.488-.14.403-.305.265-.43Zm.027.004-.093.504-.27.437-.41.313-.496.14-.512-.047-.465-.23-.343-.379-.188-.48v-.516l.188-.48.343-.38.465-.23.512-.047.496.14.41.31.27.437Zm0 0-.093-.508-.27-.438-.41-.308-.496-.14-.512.046-.465.23-.343.38-.188.48v.516l.188.48.343.379.465.23.512.047.496-.14.41-.313.27-.437Zm.032.004-.098.515-.277.446-.418.312-.5.145-.524-.047-.469-.235-.351-.386-.192-.489v-.523l.192-.488.351-.387.47-.234.523-.047.5.14.418.317.277.445Zm0 0-.098-.516-.277-.445-.418-.317-.5-.14-.524.047-.469.234-.351.387-.192.488v.523l.192.489.351.386.47.235.523.047.5-.145.418-.312.277-.446Zm.027.004-.098.523-.281.453-.426.32-.511.145-.528-.047-.476-.238-.36-.395-.191-.496v-.531l.191-.496.36-.395.476-.234.528-.05.511.144.426.32.281.453Zm0 0-.098-.524-.281-.453-.426-.32-.511-.145-.528.05-.476.235-.36.395-.191.496v.531l.191.496.36.395.476.238.528.047.511-.145.426-.32.281-.453Zm.027.003-.101.532-.282.46-.433.329-.52.144-.539-.047-.484-.242-.363-.398-.196-.504v-.543l.196-.504.363-.398.484-.243.54-.05.519.148.433.328.282.457Zm0 0-.101-.53-.282-.458-.433-.328-.52-.148-.539.05-.484.243-.363.398-.196.504v.543l.196.504.363.398.484.242.54.047.519-.144.433-.328.282-.461Zm.028.008-.102.54-.289.464-.438.332-.527.153-.547-.051-.492-.246L6 65.523l-.2-.511v-.551l.2-.512.371-.406.492-.242.547-.051.527.148.438.332.29.465Zm0 0-.102-.543-.289-.465-.438-.332-.527-.148-.547.05-.492.243-.371.406-.2.512v.55l.2.512.371.407.492.246.547.05.527-.152.438-.332.29-.465Zm.027.004-.102.547-.293.477-.445.336-.535.152-.559-.05-.5-.25-.375-.415-.199-.52v-.558l.2-.52.374-.41.5-.25.559-.05.535.152.445.336.293.472Zm0 0-.102-.55-.293-.473-.445-.336-.535-.153-.559.051-.5.25-.375.41-.199.52v.559l.2.52.374.413.5.25.559.05.535-.151.445-.336.293-.477Zm.027.004-.101.555-.301.484-.45.34-.546.156-.563-.054-.507-.25-.383-.418-.203-.532v-.566l.203-.527.383-.418.507-.254.563-.051.547.156.449.34.3.48Zm0 0-.101-.558-.301-.481-.45-.34-.546-.156-.563.05-.507.255-.383.418-.203.527v.566l.203.532.383.418.507.25.563.054.547-.156.449-.34.3-.484Zm.032.004-.106.566-.305.489-.457.347-.554.157-.575-.055L6.344 66l-.39-.426-.208-.535v-.574l.207-.54.39-.425.512-.254.575-.055.554.16.457.344.305.489Zm0 0-.106-.566-.305-.489-.457-.343-.554-.16-.575.054-.511.254-.39.426-.208.539v.574l.207.535.39.426.512.254.575.055.554-.157.457-.347.305-.489Zm.027.004-.11.574-.304.496-.469.352-.559.16-.582-.055-.523-.258-.39-.433-.212-.543v-.582l.211-.547.391-.43.523-.261.582-.051.56.156.468.352.305.496Zm0 0-.11-.574-.304-.496-.469-.352-.559-.156-.582.05-.523.262-.39.43-.212.547v.582l.211.543.391.433.523.258.582.055.56-.16.468-.352.305-.496Zm.027.008-.11.582-.312.5-.472.36-.57.16-.587-.055-.53-.262-.4-.438-.214-.554v-.59l.215-.555.398-.437.531-.262.586-.055.57.16.473.36.313.504Zm0 0-.11-.582-.312-.504-.472-.36-.57-.16-.587.055-.53.262-.4.437-.214.555v.59l.215.554.398.438.531.262.586.054.57-.16.473-.36.313-.5Zm.028.004-.11.59-.316.511-.48.36-.579.164-.597-.055-.54-.266-.402-.445-.219-.559v-.601l.22-.563.402-.441.539-.27.597-.054.578.164.48.363.317.512Zm0 0-.11-.59-.316-.512-.48-.363-.579-.164-.597.054-.54.27-.402.441-.219.563v.601l.22.559.402.445.539.266.597.055.578-.164.48-.36.317-.512Zm.027.004-.11.597-.32.52-.488.367-.586.168-.605-.059-.547-.27-.41-.452-.22-.567v-.61l.22-.57.41-.449.547-.27.605-.058.586.168.488.367.32.52Zm0 0-.11-.598-.32-.52-.488-.367-.586-.168-.605.059-.547.27-.41.449-.22.57v.61l.22.566.41.453.547.27.605.058.586-.168.488-.367.32-.52Zm.027.003-.113.61-.324.523-.492.371-.594.172-.617-.058-.551-.274-.418-.457-.223-.578v-.617l.223-.574.418-.457.55-.278.618-.058.594.172.492.37.324.528Zm0 0-.113-.605-.324-.527-.492-.371-.594-.172-.617.058-.551.278-.418.457-.223.574v.617l.223.578.418.457.55.274.618.058.594-.172.492-.37.324-.524Zm.032.004-.118.618-.328.53-.5.38-.605.172-.621-.059-.563-.277-.422-.465-.226-.582v-.63l.226-.581.422-.465.563-.277.62-.059.606.172.5.375.328.535Zm0 0-.118-.613-.328-.535-.5-.375-.605-.172-.621.059-.563.277-.422.465-.226.582v.629l.226.582.422.465.563.277.62.059.606-.172.5-.38.328-.53Zm.027.008-.117.621-.336.543-.504.383-.613.172-.633-.059-.567-.28-.43-.474-.226-.59v-.636l.227-.59.43-.473.566-.28.633-.06.613.172.504.383.336.543Zm0 0-.117-.625-.336-.543-.504-.383-.613-.172-.633.06-.567.28-.43.473-.226.59v.637l.227.59.43.472.566.281.633.059.613-.172.504-.383.336-.543Zm.027.004-.117.633-.34.547-.515.386-.618.176-.64-.058-.578-.285-.434-.477-.23-.602v-.644l.23-.598.434-.476.578-.29.64-.058.618.176.515.39.34.547Zm0 0-.117-.633-.34-.547-.515-.39-.618-.176-.64.059-.578.289-.434.476-.23.598v.644l.23.602.434.477.578.285.64.058.618-.176.515-.386.34-.547Zm.028.004-.122.64-.34.555-.523.395-.625.176-.652-.059-.582-.293-.442-.48-.234-.61v-.652l.234-.606.442-.484.582-.29.652-.062.625.18.524.395.34.554Zm0 0-.122-.64-.34-.555-.523-.395-.625-.18-.652.063-.582.289-.442.484-.234.606v.652l.234.61.442.48.582.293.652.059.625-.176.524-.395.34-.554Zm.027.004-.121.648-.348.563-.527.398-.637.18-.656-.059-.59-.297-.445-.488-.242-.613v-.66l.242-.617.445-.489.59-.297.656-.058.637.18.527.398.348.562Zm0 0-.121-.649-.348-.562-.527-.398-.637-.18-.656.058-.59.297-.445.489-.242.617v.66l.242.613.445.488.59.297.656.059.637-.18.527-.398.348-.563Zm.031.004-.125.66-.351.566-.536.407-.644.183-.664-.062-.602-.301-.449-.492-.242-.625v-.668l.242-.625.45-.496.6-.297.665-.063.644.184.536.402.351.57Zm0 0-.125-.656-.351-.57-.536-.403-.644-.184-.664.063-.602.297-.449.496-.242.625v.668l.242.625.45.492.6.3.665.063.644-.183.536-.407.351-.566Zm.027.004-.124.668-.36.578-.539.406-.652.188-.676-.063-.606-.305-.457-.5-.246-.632v-.676l.246-.633.457-.5.606-.305.676-.062.652.187.54.407.358.578Zm0 0-.124-.664-.36-.579-.539-.406-.652-.187-.676.062-.606.305-.457.5-.246.633v.676l.246.632.457.5.606.305.676.063.652-.188.54-.406.358-.578Zm.028.007-.125.672-.363.586-.547.414-.66.188-.684-.063-.617-.308-.461-.508-.25-.637v-.687l.25-.64.46-.509.618-.304.684-.067.66.192.547.41.363.586Zm0 0-.125-.675-.363-.586-.547-.41-.66-.192-.684.067-.617.304-.461.508-.25.64v.688l.25.637.46.508.618.308.684.063.66-.188.547-.414.363-.586Zm.027.004-.129.684-.363.59-.555.418-.672.191-.691-.062-.621-.313-.469-.511-.25-.649v-.695l.25-.649.469-.515.621-.309.691-.062.672.187.555.422.363.59Zm0 0-.129-.683-.363-.59-.555-.422-.672-.187-.691.062-.621.309-.469.515-.25.649v.695l.25.648.469.512.621.313.691.062.672-.191.555-.418.363-.59Zm.028.004-.13.692-.37.597-.563.426-.676.192-.699-.063-.629-.316-.476-.52-.254-.656v-.703l.254-.656.476-.52.629-.313.7-.066.675.191.563.426.37.598Zm0 0-.13-.691-.37-.598-.563-.426-.676-.19-.699.065-.629.313-.476.52-.254.656v.703l.254.656.476.52.629.316.7.063.675-.192.563-.426.37-.597Zm.027.004-.129.703-.375.606-.57.426-.684.195-.71-.063-.638-.32-.48-.527-.258-.664v-.711l.258-.664.48-.528.637-.316.711-.066.684.195.57.43.375.605Zm0 0-.129-.699-.375-.605-.57-.43-.684-.195-.71.066-.638.316-.48.528-.258.664v.71l.258.665.48.527.637.32.711.063.684-.195.57-.426.375-.606Zm.031.004-.133.711-.383.613-.574.434-.691.2-.719-.071-.644-.32-.489-.532-.258-.672v-.722l.258-.672.489-.531.644-.325.719-.066.691.2.575.433.382.613Zm0 0-.133-.707-.383-.613-.574-.434-.691-.199-.719.066-.644.325-.489.53-.258.673v.722l.258.672.489.532.644.32.719.07.691-.2.575-.433.382-.613Zm.027.008-.136.715-.383.62-.582.442-.703.2-.727-.07-.652-.325-.488-.54-.266-.679v-.73l.266-.68.488-.539.652-.324.727-.067.703.2.582.437.383.621Zm0 0-.136-.719-.383-.62-.582-.438-.703-.2-.727.067-.652.324-.488.54-.266.679v.73l.266.68.488.539.652.324.727.07.703-.199.582-.441.383-.621Zm.028.004-.137.726-.387.625-.59.446-.71.203-.735-.07-.66-.329-.496-.543-.27-.691v-.738l.27-.688.496-.543.66-.332.735-.066.71.203.59.441.387.63Zm0 0-.137-.727-.387-.629-.59-.441-.71-.203-.735.066-.66.332-.496.543-.27.688v.738l.27.691.496.543.66.329.735.07.71-.203.59-.446.387-.625Zm.027.004-.137.734-.394.633-.594.453-.719.203-.742-.07-.668-.332-.504-.55-.27-.696v-.75l.27-.696.504-.55.668-.332.742-.07.72.202.593.454.394.632Zm0 0-.137-.735-.394-.632-.594-.454-.719-.203-.742.07-.668.333-.504.55-.27.696v.75l.27.695.504.55.668.333.742.07.72-.203.593-.453.394-.633Zm.027.004-.136.742-.399.644-.601.454-.727.207-.754-.07-.675-.337-.508-.558-.274-.703v-.754l.274-.707.508-.559.675-.336.754-.07.727.207.601.457.399.64Zm0 0-.136-.743-.399-.64-.601-.457-.727-.207-.754.07-.675.336-.508.559-.274.707v.754l.274.703.508.558.675.336.754.07.727-.207.601-.453.399-.644Zm.028.004-.137.753-.402.649-.61.46-.738.208-.758-.07-.683-.34-.516-.563-.277-.715v-.761l.277-.715.516-.563.683-.34.758-.07.738.207.61.461.402.649Zm0 0-.137-.75-.402-.649-.61-.46-.738-.208-.758.07-.683.34-.516.563-.277.715v.761l.277.715.516.563.683.34.758.07.738-.207.61-.461.402-.649Zm.031.007-.144.758-.407.656-.617.465-.742.211-.77-.07-.691-.344-.52-.57-.277-.719v-.773l.277-.723.52-.57.691-.344.77-.07.742.21.617.465.407.657Zm0 0-.144-.761-.407-.657-.617-.464-.742-.211-.77.07-.691.344-.52.57-.277.723v.773l.277.719.52.57.691.344.77.07.742-.21.617-.466.407-.656Zm.027.004-.144.766-.41.664-.625.473-.75.214-.778-.074-.699-.347-.527-.579-.281-.726v-.781l.28-.73.528-.575.7-.348.777-.074.75.215.625.469.41.664Zm0 0-.144-.77-.41-.663-.625-.47-.75-.214-.778.074-.699.348-.527.574-.281.73v.782l.28.726.528.579.7.347.777.074.75-.214.625-.473.41-.664Zm.028.004-.145.778-.418.671-.629.473-.757.219-.79-.074-.707-.352-.53-.582-.286-.738v-.79l.285-.738.531-.582.707-.351.79-.074.757.218.63.473.417.672Zm0 0-.145-.777-.418-.672-.629-.473-.757-.218-.79.074-.707.351-.53.582-.286.739v.789l.285.738.531.582.707.352.79.074.757-.219.63-.473.417-.671Zm.027.004-.144.785-.422.68-.637.48-.77.22-.793-.075-.714-.356-.54-.59-.285-.745v-.797l.286-.743.539-.59.715-.359.792-.07.77.219.637.48.422.676Zm0 0-.144-.785-.422-.676-.637-.48-.77-.22-.793.071-.714.36-.54.59-.285.742v.797l.286.746.539.59.715.355.792.074.77-.219.637-.48.422-.68Zm.027.004-.148.793-.422.687-.644.485-.778.222-.8-.074-.723-.36-.543-.597-.293-.75v-.808l.293-.75.543-.598.723-.36.8-.074.778.22.644.487.422.684Zm0 0-.148-.793-.422-.684-.644-.488-.778-.219-.8.075-.723.359-.543.598-.293.75v.808l.293.75.543.598.723.36.8.073.778-.222.644-.485.422-.687Zm.028.008-.149.8-.43.692-.648.492-.785.223-.812-.074-.73-.364-.548-.601-.297-.762v-.816l.297-.758.547-.606.73-.363.813-.074.785.223.649.492.43.691Zm0 0-.149-.805-.43-.691-.648-.492-.785-.223-.812.074-.73.363-.548.606-.297.758v.816l.297.762.547.601.73.364.813.074.785-.223.649-.492.43-.691Zm.031.004-.152.808-.434.7-.656.5-.793.222-.82-.074-.739-.367-.554-.61-.297-.77v-.823l.297-.766.554-.61.739-.367.82-.078.793.227.656.496.434.7Zm0 0-.152-.813-.434-.699-.656-.496-.793-.227-.82.078-.739.368-.554.609-.297.766v.824l.297.77.554.609.739.367.82.074.793-.222.656-.5.434-.7Zm.027.004-.152.816-.441.711-.664.5-.801.227-.828-.075-.746-.37-.559-.618-.3-.773v-.836l.3-.774.559-.617.746-.371.828-.074.8.226.665.5.441.711Zm0 0-.152-.817-.441-.71-.664-.5-.801-.227-.828.074-.746.371-.559.617-.3.774v.836l.3.773.559.617.746.371.828.075.8-.227.665-.5.441-.711Zm.028.004-.156.828-.442.715-.672.507-.808.23-.836-.077-.754-.375-.567-.621-.304-.786v-.84l.304-.785.567-.62.754-.376.836-.078.808.23.672.505.441.718Zm0 0-.156-.825-.442-.718-.672-.504-.808-.23-.836.077-.754.375-.567.621-.304.786v.84l.304.785.567.62.754.376.836.078.808-.23.672-.508.441-.715Zm.027.003-.156.836-.445.723-.68.512-.817.234-.847-.078-.758-.379-.574-.629-.305-.793v-.847l.305-.793.574-.63.758-.378.847-.078.817.234.68.512.445.722Zm0 0-.156-.832-.445-.722-.68-.512-.817-.234-.847.078-.758.379-.574.629-.305.793v.847l.305.793.574.63.758.378.847.078.817-.234.68-.512.445-.723Zm.027.008-.156.844-.453.727-.684.52-.824.233-.855-.078-.77-.382-.578-.637-.308-.801v-.855l.308-.801.578-.637.77-.379.855-.082.824.234.684.52.453.73Zm0 0-.156-.844-.453-.73-.684-.52-.824-.234-.855.082-.77.38-.578.636-.308.8v.856l.308.8.578.638.77.382.855.078.824-.234.684-.52.453-.726Zm.032.004-.16.852-.457.738-.692.52-.836.238-.863-.078-.774-.387-.585-.64-.313-.81v-.866l.313-.809.585-.64.774-.387.863-.078.836.234.691.523.458.739Zm0 0-.16-.851-.457-.739-.692-.523-.836-.234-.863.078-.774.386-.585.641-.313.809v.867l.313.808.585.641.774.387.863.078.836-.238.691-.52.458-.738Zm.027.004-.16.86-.461.746-.7.527-.843.238-.871-.078-.785-.39-.59-.649-.317-.816v-.875l.317-.817.59-.648.785-.39.871-.079.844.238.699.528.46.746Zm0 0-.16-.86-.461-.745-.7-.528-.843-.238-.871.078-.785.39-.59.65-.317.816v.875l.317.816.59.648.785.391.871.078.844-.238.699-.527.46-.747Zm.027.004-.164.871-.465.75-.703.531-.851.243-.88-.083-.792-.39-.594-.656-.32-.825v-.882l.32-.825.594-.652.793-.395.879-.082.851.243.703.53.465.755Zm0 0-.164-.867-.465-.754-.703-.531-.851-.243-.88.082-.792.395-.594.652-.32.825v.882l.32.825.594.656.793.39.879.082.851-.242.703-.53.465-.75Zm.028.004-.164.879-.47.758-.714.539-.855.242-.891-.082-.797-.395-.601-.66-.325-.832v-.894l.325-.832.601-.66.797-.4.89-.081.856.246.715.535.469.762Zm0 0-.164-.875-.47-.762-.714-.535-.855-.246-.891.082-.797.398-.601.66-.325.833v.894l.325.832.601.66.797.395.89.082.856-.242.715-.54.469-.757Zm.027.008-.164.882-.477.766-.718.547-.867.246-.895-.086-.809-.398-.605-.668-.328-.84v-.902l.328-.84.605-.664.809-.403.894-.086.868.25.718.543.477.766Zm0 0-.164-.887-.477-.766-.718-.543-.867-.25-.895.086-.809.403-.605.664-.328.84v.902l.328.84.605.668.809.398.894.086.868-.246.718-.547.477-.766Zm.027.004-.164.894-.48.774-.727.546-.875.25-.906-.085-.812-.407-.614-.672-.328-.847v-.91l.328-.848.614-.672.812-.406.906-.082.875.246.727.55.48.774Zm0 0-.164-.895-.48-.773-.727-.551-.875-.246-.906.082-.812.406-.614.672-.328.848v.91l.328.847.614.672.812.406.906.086.875-.25.727-.546.48-.774Zm.032.004-.172.902-.48.781-.735.555-.883.25-.914-.086-.824-.41-.617-.676-.332-.856v-.921l.332-.856.617-.68.824-.406.914-.086.883.25.734.555.48.781Zm0 0-.172-.903-.48-.781-.735-.555-.883-.25-.914.086-.824.406-.617.68-.332.856v.921l.332.856.617.676.824.41.914.086.883-.25.734-.555.48-.781Zm.027.003-.172.91-.488.79-.738.558-.891.254-.926-.086-.828-.414-.625-.683-.336-.864v-.926l.336-.867.625-.683.828-.414.926-.086.89.254.739.558.488.79Zm0 0-.172-.91-.488-.789-.738-.558-.891-.254-.926.086-.828.414-.625.683-.336.867v.926l.336.864.625.683.828.414.926.086.89-.254.739-.558.488-.79Zm.027.004-.172.922-.492.793-.746.567-.902.253-.93-.085-.836-.418-.633-.692-.336-.87v-.935l.336-.875.633-.69.836-.415.93-.09.902.258.746.562.492.797Zm0 0-.172-.918-.492-.797-.746-.562-.902-.258-.93.09-.836.414-.633.691-.336.875v.934l.336.871.633.692.836.418.93.085.902-.253.746-.567.492-.793Zm.028.008-.172.926-.5.805-.75.566-.91.258-.942-.086L5.938 67l-.637-.695-.34-.883v-.942l.34-.882.636-.696.844-.422.942-.085.91.257.75.567.5.804Zm0 0-.172-.93-.5-.804-.75-.567-.91-.257-.942.085-.843.422-.637.696-.34.882v.942l.34.883.636.695.844.422.942.086.91-.258.75-.566.5-.805Zm.027.004-.176.934-.5.812-.761.574-.915.262-.949-.09-.851-.426-.645-.703-.344-.886v-.954l.344-.89.645-.703.851-.426.95-.086.914.262.761.574.5.809Zm0 0-.176-.937-.5-.81-.761-.573-.915-.262-.949.086-.851.426-.645.703-.344.89v.954l.344.886.645.703.851.426.95.09.914-.262.761-.574.5-.812Zm.027.004-.175.945-.504.817-.77.578-.922.265-.957-.09-.863-.43-.645-.71-.347-.895v-.96l.347-.899.645-.707.863-.43.957-.09.922.266.77.578.504.817Zm0 0-.175-.945-.504-.817-.77-.578-.922-.266-.957.09-.863.43-.645.707-.347.898v.961l.347.895.645.71.863.43.957.09.922-.265.77-.578.504-.817Zm.032.004-.18.953-.512.824-.773.586-.934.266-.965-.09-.867-.434-.652-.715-.352-.906v-.969l.352-.906.652-.715.867-.433.965-.09.934.266.773.586.512.824Zm0 0-.18-.953-.512-.825-.773-.585-.934-.266-.965.09-.867.433-.652.715-.352.906v.97l.352.905.652.715.867.434.965.09.934-.266.773-.586.512-.824Zm.027.004-.18.965-.515.828-.782.59-.941.27-.973-.09-.875-.438-.66-.723-.355-.91v-.98l.355-.91.66-.727.875-.434.973-.09.941.266.782.59.515.832Zm0 0-.18-.961-.515-.832-.782-.59-.941-.266-.973.09-.875.434-.66.726-.355.91v.98l.355.911.66.723.875.437.973.09.941-.27.782-.59.515-.827Zm.027.008-.18.968-.519.84-.789.594-.95.27-.984-.09-.882-.442-.664-.73-.356-.918v-.989l.356-.918.664-.73.882-.441.985-.09.949.27.79.593.519.84Zm0 0-.18-.973-.519-.84-.789-.594-.95-.27-.984.09-.882.442-.664.73-.356.918v.989l.356.918.664.73.882.442.985.09.949-.27.79-.594.519-.84Zm.028.003-.184.977-.523.848-.793.601-.957.27-.993-.09-.89-.445-.672-.735-.36-.93v-.996l.36-.925.672-.739.89-.441.993-.094.957.274.793.601.523.844Zm0 0-.184-.98-.523-.844-.793-.601-.957-.274-.993.094-.89.441-.672.739-.36.925v.997l.36.93.672.734.89.445.993.09.957-.27.793-.601.523-.848Zm.027.004-.184.989-.527.851-.8.606-.97.273-1-.09-.898-.449-.676-.742-.363-.938V64.48l.363-.933.676-.742.899-.45 1-.093.968.277.801.606.527.851Zm0 0-.184-.988-.527-.851-.8-.606-.97-.277-1 .093-.898.45-.676.742-.363.933v1.004l.363.938.676.742.899.45 1 .09.968-.274.801-.606.527-.851Zm.027.004-.183.996-.535.86-.809.613-.973.277-1.007-.093-.907-.454-.683-.75-.364-.94V64.48l.364-.94.683-.75.907-.45 1.007-.094.973.277.809.61.535.86Zm0 0-.183-.996-.535-.86-.809-.609-.973-.277-1.007.094-.907.45-.683.75-.364.94v1.016l.364.942.683.75.907.453 1.007.093.973-.277.809-.613.535-.86Zm.032.004-.188 1.004-.539.871-.816.613-.98.282-1.016-.094-.918-.457-.688-.754-.367-.953v-1.02l.367-.953.688-.754.918-.457 1.015-.093.98.277.817.617.54.867Zm0 0-.188-1.004-.539-.867-.816-.617-.98-.277-1.016.093-.918.457-.688.754-.367.953v1.02l.367.953.688.754.918.457 1.015.094.98-.282.817-.613.54-.87Zm.027.008-.191 1.012-.54.875-.824.62-.988.282-1.027-.094-.922-.46-.696-.762-.37-.961v-1.028l.37-.96.696-.762.922-.461 1.027-.094.988.281.824.621.54.875Zm0 0-.191-1.016-.54-.875-.824-.62-.988-.282-1.027.094-.922.46-.696.762-.37.961v1.028l.37.96.696.762.922.461 1.027.094.988-.281.824-.621.54-.875Zm.027.004-.191 1.02-.547.882-.828.625-1 .285-1.031-.097-.93-.461-.7-.766-.374-.969v-1.039l.375-.968.699-.77.93-.46 1.03-.099 1 .286.829.625.547.882Zm0 0-.191-1.024-.547-.882-.828-.625-1-.285-1.031.097-.93.461-.7.77-.374.968v1.04l.375.968.699.766.93.46 1.03.098 1-.285.829-.625.547-.883Zm.028.004-.192 1.027-.55.89-.836.634-1.008.285-1.043-.098-.938-.465-.703-.773-.379-.977v-1.047l.38-.976.702-.774.938-.468 1.043-.094 1.008.285.835.633.551.887Zm0 0-.192-1.031-.55-.887-.836-.633-1.008-.285-1.043.094-.938.468-.703.774-.379.976v1.047l.38.977.702.773.938.465 1.043.098 1.008-.285.835-.633.551-.89Zm.027.004-.191 1.039-.559.898-.84.633-1.015.29-1.051-.099-.946-.468-.71-.782-.383-.984v-1.055l.382-.984.711-.781.946-.469 1.05-.098 1.016.29.84.636.559.895Zm0 0-.191-1.04-.559-.894-.84-.637-1.015-.289-1.051.098-.946.469-.71.781-.383.984v1.055l.382.984.711.782.946.468 1.05.098 1.016-.289.84-.633.559-.898Zm.031.004-.199 1.046-.559.907-.847.64-1.024.29-1.062-.098-.953-.473-.715-.785-.387-.992v-1.067l.387-.992.715-.785.953-.477 1.062-.097 1.024.293.847.64.559.903Zm0 0-.199-1.047-.559-.903-.847-.64-1.024-.293-1.062.097-.953.477-.715.785-.387.992v1.067l.387.992.715.785.953.473 1.062.097 1.024-.289.847-.64.559-.906Zm.028.004-.2 1.054-.562.914-.856.645-1.035.297-1.066-.102-.961-.476-.723-.793-.386-1v-1.075l.386-1 .723-.793.96-.476 1.067-.102 1.035.297.856.645.562.914Zm0 0-.2-1.051-.562-.914-.856-.645-1.035-.297-1.066.102-.961.476-.723.793-.386 1v1.075l.386 1 .723.793.96.476 1.067.102 1.035-.297.856-.645.562-.914Zm.027.007-.2 1.063-.57.918-.863.652-1.039.297-1.078-.102-.965-.48-.73-.8-.391-1.009v-1.082l.39-1.007.731-.797.965-.485 1.078-.097 1.04.293.862.652.57.922Zm0 0-.2-1.062-.57-.922-.863-.652-1.039-.293-1.078.097-.965.485-.73.797-.391 1.007v1.082l.39 1.008.731.801.965.48 1.078.102 1.04-.297.862-.652.57-.918Zm.027.004-.199 1.07-.574.926-.871.66-1.047.297-1.086-.101-.977-.485-.734-.804-.395-1.02v-1.09l.395-1.015.734-.805.977-.484 1.086-.102 1.047.297.87.656.575.93Zm0 0-.199-1.07-.574-.93-.871-.656-1.047-.297-1.086.102-.977.484-.734.805-.395 1.015v1.09l.395 1.02.734.804.977.485 1.086.101 1.047-.296.87-.66.575-.926Zm.028.004-.2 1.082-.578.934-.879.66-1.054.3-1.094-.1-.984-.49-.743-.812-.394-1.023v-1.102l.394-1.023.743-.813.984-.488 1.094-.101 1.054.3.88.664.577.934Zm0 0-.2-1.078-.578-.934-.879-.664-1.054-.3-1.094.101-.984.488-.743.813-.394 1.023v1.102l.394 1.023.743.813.984.488 1.094.102 1.054-.301.88-.66.577-.934Zm.027.004-.203 1.09-.582.941-.883.668-1.066.301-1.102-.102-.992-.492-.746-.82-.399-1.031v-1.106l.399-1.035.746-.816.992-.496 1.102-.102 1.066.305.883.668.582.941Zm0 0-.203-1.086-.582-.941-.883-.668-1.066-.305-1.102.102-.992.496-.746.816-.399 1.035v1.106l.399 1.031.746.82.992.493 1.102.101 1.066-.3.883-.669.582-.941Zm.031.004-.207 1.098-.586.949-.89.672-1.075.304-1.109-.101-1-.496-.75-.824-.406-1.043v-1.114L5 63.445l.75-.824 1-.496 1.11-.102 1.074.305.89.672.586.95Zm0 0-.207-1.094L9.824 63l-.89-.672-1.075-.305-1.109.102-1 .496-.75.824-.406 1.043v1.114L5 66.645l.75.824 1 .496 1.11.101 1.074-.304.89-.672.586-.95Zm.028.008-.207 1.105-.594.953-.895.68-1.082.309-1.12-.106-1.005-.5-.758-.832-.406-1.047v-1.125l.406-1.05.758-.829 1.004-.504 1.121-.101 1.082.309.895.675.594.957Zm0 0-.207-1.106-.594-.957-.895-.675-1.082-.31-1.12.102-1.005.504-.758.828-.406 1.051v1.125l.406 1.047.758.832 1.004.5 1.121.106 1.082-.309.895-.68.594-.953Zm.027.004-.207 1.113-.598.965-.902.68-1.09.312-1.129-.105-1.016-.504-.761-.84-.41-1.055v-1.133l.41-1.058.761-.836 1.016-.504 1.129-.106 1.09.309.902.684.598.964Zm0 0-.207-1.114-.598-.964-.902-.684-1.09-.309-1.129.106-1.016.504-.761.836-.41 1.058v1.133l.41 1.055.761.84 1.016.504 1.129.105 1.09-.313.902-.68.598-.964Zm.027.004-.21 1.12-.598.973-.914.688-1.098.312-1.137-.105-1.02-.508-.769-.844-.414-1.066v-1.14l.414-1.067.77-.84 1.02-.512 1.136-.105 1.098.312.914.688.597.972Zm0 0-.21-1.121-.598-.973-.914-.688-1.098-.312-1.137.105-1.02.512-.769.84-.414 1.066v1.14l.414 1.067.77.844 1.02.508 1.136.105 1.098-.312.914-.688.597-.972Zm.028.004-.211 1.132-.606.977-.918.691-1.105.317-1.145-.106-1.031-.511-.774-.852-.414-1.074v-1.149l.415-1.07.773-.852 1.031-.511 1.145-.106 1.105.313.918.695.606.977Zm0 0-.211-1.13-.606-.976-.918-.695-1.105-.313-1.145.106-1.031.511-.774.852-.414 1.07v1.149l.415 1.074.773.852 1.031.511 1.145.106 1.105-.317.918-.691.606-.977Zm.027.003-.211 1.141-.61.984-.925.7-1.113.316-1.157-.105-1.035-.516-.781-.86-.418-1.078v-1.16l.418-1.078.781-.86 1.035-.515 1.157-.105 1.113.316.926.7.609.984Zm0 0-.211-1.136-.61-.985-.925-.699-1.113-.316-1.157.105-1.035.516-.781.86-.418 1.077v1.16l.418 1.079.781.859 1.035.516 1.157.105 1.113-.316.926-.7.609-.984Zm.031.008-.215 1.145-.617.992-.93.703-1.12.32-1.165-.105-1.043-.524-.789-.859-.422-1.09v-1.168l.422-1.086.79-.863 1.042-.52 1.164-.109 1.121.32.93.704.617.992Zm0 0-.215-1.148-.617-.992-.93-.704-1.12-.32-1.165.11-1.043.52-.789.862-.422 1.086v1.168l.422 1.09.79.86 1.042.523 1.164.105 1.121-.32.93-.703.617-.992Zm.027.004-.218 1.156-.617 1-.938.707-1.133.32-1.168-.105-1.054-.527-.793-.867-.422-1.098v-1.176l.422-1.093.793-.872L6.738 62l1.168-.11 1.133.325.938.707.617 1Zm0 0-.218-1.156-.617-1-.938-.707-1.133-.324L6.738 62l-1.054.523-.793.872-.422 1.093v1.176l.422 1.098.793.867 1.054.527 1.168.106 1.133-.32.938-.708.617-1Zm.028.004-.219 1.164L10 67.254l-.945.715-1.14.324-1.18-.11-1.06-.53-.8-.876-.426-1.101v-1.188l.426-1.101.8-.875 1.06-.532 1.18-.105 1.14.32.945.715.621 1.008Zm0 0-.219-1.164L10 62.91l-.945-.715-1.14-.32-1.18.105-1.06.532-.8.875-.426 1.101v1.188l.426 1.101.8.875 1.06.532 1.18.109 1.14-.324.945-.715.621-1.008Zm.027.004-.219 1.172-.628 1.015-.95.72-1.148.327-1.188-.11-1.07-.534-.8-.88-.434-1.112v-1.192l.433-1.113.801-.883 1.07-.531 1.188-.11 1.148.325.95.718.628 1.016Zm0 0-.219-1.172-.628-1.016-.95-.718-1.148-.325-1.188.11-1.07.531-.8.883-.434 1.113v1.192l.433 1.113.801.879 1.07.535 1.188.11 1.148-.329.95-.719.628-1.015Zm.028.004-.22 1.183-.632 1.02-.961.727-1.152.328-1.2-.114-1.074-.535-.808-.886-.434-1.122v-1.199l.434-1.12.808-.892 1.074-.535 1.2-.11 1.152.33.961.726.633 1.02Zm0 0-.22-1.18-.632-1.02-.961-.726-1.152-.328-1.2.11-1.074.534-.808.891-.434 1.121v1.2l.434 1.12.808.887 1.074.535 1.2.114 1.152-.328.961-.727.633-1.02Zm.03.008-.222 1.187-.64 1.031-.965.727-1.164.332-1.204-.113-1.082-.54-.816-.894-.437-1.125v-1.21l.437-1.13.816-.894 1.082-.54 1.204-.113 1.164.332.964.73.641 1.028Zm0 0-.222-1.192-.64-1.027-.965-.73-1.164-.333-1.204.114-1.082.539-.816.894-.437 1.13v1.21l.437 1.125.816.895 1.082.539 1.204.113 1.164-.332.964-.727.641-1.03Zm.028.004-.226 1.195-.641 1.039-.973.734-1.172.332-1.214-.113-1.09-.543-.82-.898-.442-1.137v-1.219l.441-1.137.82-.902 1.09-.543 1.215-.113 1.172.336.973.734.64 1.035Zm0 0-.226-1.2-.641-1.035-.973-.734-1.172-.336-1.214.113-1.09.543-.82.902-.442 1.137v1.219l.441 1.137.82.898 1.09.543 1.215.113 1.172-.332.973-.734.64-1.04Zm.027.003-.226 1.207-.645 1.043-.98.739-1.18.336-1.222-.114-1.098-.546-.828-.907-.442-1.144v-1.227l.442-1.144.828-.907 1.098-.546 1.222-.114 1.18.336.98.738.645 1.043Zm0 0-.226-1.207-.645-1.043-.98-.738-1.18-.336-1.222.114-1.098.546-.828.907-.442 1.144v1.227l.442 1.144.828.907 1.098.546 1.222.114 1.18-.336.98-.739.645-1.043Zm.028.004-.227 1.215-.652 1.051-.984.746-1.188.336-1.23-.113-1.11-.551-.832-.914-.445-1.152v-1.235l.445-1.152.832-.914 1.11-.551 1.23-.113 1.188.34.984.742.652 1.05Zm0 0-.227-1.214-.652-1.051-.984-.742-1.188-.34-1.23.113-1.11.55-.832.915-.445 1.152v1.235l.445 1.152.832.914 1.11.55 1.23.114 1.188-.336.984-.746.652-1.05Zm.027.004-.226 1.227-.657 1.055-.992.75-1.2.343-1.237-.117-1.114-.555-.84-.918-.449-1.16v-1.246l.45-1.16.84-.918 1.113-.555 1.238-.117 1.2.34.991.75.657 1.059Zm0 0-.226-1.222-.657-1.059-.992-.75-1.2-.34-1.237.117-1.114.555-.84.918-.449 1.16v1.246l.45 1.16.84.918 1.113.555 1.238.117 1.2-.343.991-.75.657-1.055Zm.027.008-.23 1.23-.656 1.067-1 .754-1.207.344-1.246-.118-1.125-.558-.844-.926-.453-1.168v-1.254l.453-1.168.844-.926 1.125-.558 1.246-.117 1.207.343 1 .758.656 1.063Zm0 0-.23-1.234-.656-1.063-1-.758-1.207-.343-1.246.117-1.125.558-.844.926-.453 1.168v1.254l.453 1.168.844.926 1.125.558 1.246.118 1.207-.344 1-.754.656-1.066Zm.032.004-.235 1.238-.664 1.075-1.008.761-1.21.344-1.258-.117-1.13-.563-.85-.933-.454-1.176v-1.262l.453-1.176.852-.933 1.129-.563 1.258-.113 1.21.344 1.008.761.664 1.07Zm0 0-.235-1.242-.664-1.07-1.008-.762-1.21-.344-1.258.113-1.13.563-.85.933-.454 1.176v1.262l.453 1.176.852.933 1.129.563 1.258.117 1.21-.344 1.008-.761.664-1.075Zm.027.004-.234 1.25-.668 1.078-1.016.766-1.219.347-1.265-.117-1.137-.566-.855-.938-.461-1.183v-1.274l.46-1.183.856-.938 1.137-.566 1.265-.117 1.22.347 1.015.766.668 1.078Zm0 0-.234-1.25-.668-1.078-1.016-.766-1.219-.347-1.265.117-1.137.566-.855.938-.461 1.183v1.274l.46 1.183.856.938 1.137.566 1.265.117 1.22-.347 1.015-.766.668-1.078Zm.027.004-.234 1.258-.676 1.086-1.02.773-1.23.348-1.273-.118-1.145-.57-.86-.945-.464-1.192v-1.28l.465-1.192.86-.946 1.144-.57 1.273-.117 1.23.352 1.02.77.676 1.085Zm0 0-.234-1.258-.676-1.086-1.02-.77-1.23-.351-1.273.117-1.145.57-.86.946-.464 1.191v1.281l.465 1.192.86.945 1.144.57 1.273.118 1.23-.348 1.02-.773.676-1.086Zm.028.004-.235 1.265-.68 1.098-1.027.773-1.238.352-1.281-.117-1.152-.574-.868-.954-.465-1.199v-1.285l.465-1.203.867-.95 1.153-.573 1.281-.122 1.238.356 1.028.773.68 1.094Zm0 0-.235-1.266-.68-1.094-1.027-.773-1.238-.356-1.281.122-1.152.574-.868.949-.465 1.203v1.285l.465 1.2.867.953 1.153.574 1.281.117 1.238-.352 1.028-.773.68-1.098Zm.027.008-.238 1.273-.68 1.102-1.035.78-1.246.352-1.293-.117-1.16-.578L4.68 67l-.47-1.21v-1.294l.47-1.21.87-.958 1.16-.578 1.294-.117 1.246.351 1.035.782.68 1.101Zm0 0-.238-1.278-.68-1.101-1.035-.782-1.246-.351-1.293.117-1.16.578-.871.957-.47 1.211v1.293L4.68 67l.87.957 1.16.578 1.294.117 1.246-.351 1.035-.781.68-1.102Zm.027.003-.238 1.282-.687 1.11-1.04.784-1.253.36-1.301-.121-1.168-.583-.879-.964-.473-1.215v-1.305l.473-1.219.879-.96 1.168-.583 1.3-.12 1.255.355 1.039.789.687 1.105Zm0 0-.238-1.285-.687-1.105-1.04-.79-1.253-.355-1.301.121-1.168.582-.879.961-.473 1.22V65.8l.473 1.215.879.964 1.168.582 1.3.122 1.255-.36 1.039-.785.687-1.11Zm.032.004-.242 1.29-.692 1.117-1.047.793-1.265.359-1.305-.121-1.176-.586-.887-.969-.472-1.226v-1.313l.472-1.226.887-.97 1.176-.585 1.305-.121 1.265.36 1.047.792.692 1.117Zm0 0-.242-1.289-.692-1.117-1.047-.793-1.265-.36-1.305.122-1.176.586-.887.969-.472 1.226v1.313l.472 1.226.887.969 1.176.586 1.305.12 1.265-.358 1.047-.793.692-1.118Zm.027.004-.242 1.301-.7 1.121-1.054.797-1.27.363-1.316-.12-1.184-.59-.89-.977-.477-1.235v-1.32l.477-1.234.89-.977 1.184-.586 1.316-.125 1.27.364 1.055.796.699 1.125Zm0 0-.242-1.297-.7-1.125-1.054-.797-1.27-.363-1.316.125-1.184.586-.89.977-.477 1.234v1.32l.477 1.235.89.976 1.184.59 1.316.121 1.27-.363 1.055-.797.699-1.121Zm.027.004-.246 1.309-.699 1.133-1.062.8-1.278.364-1.324-.121-1.191-.594-.899-.985-.48-1.238v-1.332l.48-1.238.899-.985 1.191-.593 1.324-.121 1.278.363 1.062.8.7 1.133Zm0 0-.246-1.305-.699-1.132-1.062-.801-1.278-.363-1.324.12-1.191.594-.899.985-.48 1.238v1.332l.48 1.238.899.985 1.191.594 1.324.12 1.278-.363 1.062-.8.7-1.133Zm.028.008-.246 1.312-.703 1.141-1.07.805-1.286.367-1.336-.121-1.2-.598-.901-.988-.48-1.25v-1.34l.48-1.246.902-.992 1.2-.598 1.335-.12 1.285.366 1.07.805.704 1.14Zm0 0-.246-1.316-.703-1.141-1.07-.805-1.286-.367-1.336.121-1.2.598-.901.992-.48 1.246v1.34l.48 1.25.902.988 1.2.598 1.335.121 1.285-.367 1.07-.805.704-1.14Zm.027.004-.246 1.324-.71 1.145-1.075.812-1.297.367-1.34-.12-1.207-.602-.906-.996-.488-1.258v-1.348l.488-1.254.906-.996 1.207-.601 1.34-.125 1.297.37 1.074.81.711 1.148Zm0 0-.246-1.324-.71-1.149-1.075-.808-1.297-.371-1.34.125-1.207.601-.906.996-.488 1.254v1.348l.488 1.258.906.996 1.207.601 1.34.121 1.297-.367 1.074-.812.711-1.145Zm.027.004-.246 1.332-.714 1.152-1.083.82-1.304.372-1.352-.13-1.21-.6-.915-1.005-.492-1.262v-1.359l.492-1.262.914-1.004 1.211-.605 1.352-.125 1.304.371 1.082.82.715 1.153Zm0 0-.246-1.332-.714-1.153-1.083-.82-1.304-.371-1.352.125-1.21.605-.915 1.004-.492 1.262v1.36l.492 1.261.914 1.004 1.211.602 1.352.129 1.304-.372 1.082-.82.715-1.152Zm.032.004-.254 1.343-.715 1.16-1.09.82-1.312.376-1.36-.129-1.222-.605-.918-1.008-.493-1.274v-1.367l.493-1.27.918-1.007 1.222-.61 1.36-.125 1.312.371 1.09.825.715 1.16Zm0 0-.254-1.34-.715-1.16-1.09-.825-1.312-.37-1.36.124-1.222.61-.918 1.008-.493 1.27v1.366l.493 1.274.918 1.008 1.222.605 1.36.129 1.312-.375 1.09-.82.715-1.16Zm.027.004-.254 1.351-.723 1.168-1.093.828-1.32.375-1.372-.129-1.226-.609-.926-1.016-.496-1.28V64.5l.496-1.281.926-1.016 1.226-.613 1.371-.125 1.32.375 1.094.828.723 1.168Zm0 0-.254-1.348-.723-1.168-1.093-.828-1.32-.375-1.372.125-1.226.613-.926 1.016-.496 1.281v1.371l.496 1.281.926 1.016 1.226.61 1.371.128 1.32-.375 1.094-.828.723-1.168Zm.027.007-.254 1.356-.726 1.176-1.106.832-1.328.379-1.375-.13-1.238-.613-.93-1.023-.5-1.29V64.5l.5-1.29.93-1.023 1.238-.613 1.375-.129 1.328.38 1.106.831.726 1.176Zm0 0-.254-1.359-.726-1.176-1.106-.832-1.328-.379-1.375.13-1.238.612-.93 1.024-.5 1.289v1.379l.5 1.289.93 1.023 1.238.614 1.375.129 1.328-.38 1.106-.831.726-1.176Zm.028.004-.254 1.368-.735 1.18-1.109.839-1.336.379-1.383-.129-1.246-.617-.937-1.028-.5-1.296V64.5l.5-1.297.937-1.027 1.246-.621 1.383-.13 1.336.384 1.11.836.734 1.183Zm0 0-.254-1.367-.735-1.183-1.109-.836-1.336-.383-1.383.129-1.246.62-.937 1.028-.5 1.297v1.39l.5 1.297.937 1.028 1.246.617 1.383.129 1.336-.379 1.11-.84.734-1.18Zm.027.004-.254 1.375-.738 1.188-1.117.843-1.344.383-1.395-.129-1.25-.62-.945-1.036-.504-1.305V64.5l.504-1.305.945-1.035 1.25-.62 1.395-.13 1.344.383 1.117.84.738 1.191Zm0 0-.254-1.375-.738-1.191-1.117-.84-1.344-.383-1.395.13-1.25.62-.945 1.035-.504 1.305v1.398l.504 1.305.945 1.035 1.25.621 1.395.13 1.344-.384 1.117-.843.738-1.188Zm.031.004-.261 1.383-.739 1.2-1.125.847-1.355.383-1.399-.13-1.261-.624-.95-1.043-.507-1.313V64.5l.507-1.313.95-1.039 1.261-.628 1.399-.13 1.355.383 1.125.852.739 1.195Zm0 0-.261-1.383-.739-1.195-1.125-.852-1.355-.382-1.399.129-1.261.628-.95 1.04-.507 1.312v1.406l.507 1.313.95 1.043 1.261.625 1.399.129 1.355-.383 1.125-.848.739-1.2Zm.028.004-.262 1.395-.746 1.203-1.13.851-1.362.39-1.41-.132-1.266-.629-.953-1.047-.512-1.32V64.5l.512-1.32.953-1.047 1.266-.63 1.41-.132 1.363.387 1.129.855.746 1.203Zm0 0-.262-1.39-.746-1.204-1.13-.855-1.362-.387-1.41.133-1.266.629-.953 1.047-.512 1.32v1.418l.512 1.32.953 1.047 1.266.63 1.41.132 1.363-.39 1.129-.852.746-1.203Zm.027.008-.262 1.398-.75 1.211-1.136.86-1.372.39-1.418-.133-1.277-.636-.957-1.051-.516-1.328V64.5l.516-1.328.957-1.05 1.277-.638 1.418-.132 1.372.39 1.136.86.75 1.21Zm0 0-.262-1.403-.75-1.21-1.136-.86-1.372-.39-1.418.132-1.277.637-.957 1.05-.516 1.329v1.426l.516 1.328.957 1.05 1.277.637 1.418.133 1.372-.39 1.136-.86.75-1.21Zm.027.004-.261 1.406-.758 1.219-1.14.863-1.38.395-1.43-.133-1.28-.64-.965-1.06-.52-1.335V64.5l.52-1.336.964-1.059 1.282-.64 1.43-.13 1.378.392 1.14.863.759 1.219Zm0 0-.261-1.41-.758-1.22-1.14-.862-1.38-.391-1.43.129-1.28.64-.965 1.06-.52 1.335v1.434l.52 1.336.964 1.058 1.282.64 1.43.134 1.378-.395 1.14-.863.759-1.219Zm.028.004-.266 1.418-.758 1.226-1.148.867-1.39.395-1.434-.133-1.29-.644-.972-1.063-.52-1.348V64.5l.52-1.344.973-1.066 1.289-.64 1.433-.134 1.39.395 1.15.867.757 1.227Zm0 0-.266-1.418-.758-1.227-1.148-.867-1.39-.395-1.434.133-1.29.64-.972 1.067-.52 1.344v1.441l.52 1.348.973 1.063 1.289.644 1.433.133 1.39-.395 1.15-.867.757-1.226Zm.027.004-.266 1.425-.761 1.235-1.16.875-1.395.394-1.445-.133-1.297-.648-.977-1.07-.523-1.352V64.5l.523-1.352.977-1.07 1.297-.648 1.445-.133 1.395.398 1.16.871.761 1.235Zm0 0-.266-1.426-.761-1.235-1.16-.87-1.395-.4-1.445.134-1.297.648-.977 1.07-.523 1.352v1.453l.523 1.352.977 1.07 1.297.648 1.445.133 1.395-.394 1.16-.875.761-1.235Zm.031.003-.27 1.434-.769 1.242-1.164.88-1.402.398-1.453-.133-1.305-.653-.984-1.078-.528-1.36v-1.456l.528-1.363.984-1.078 1.305-.649 1.453-.137 1.402.399 1.164.883.77 1.238Zm0 0-.27-1.433-.769-1.238-1.164-.883-1.402-.399-1.453.137-1.305.648-.984 1.079-.528 1.363v1.457l.528 1.36.984 1.077 1.305.653 1.453.133 1.402-.399 1.164-.879.77-1.242Zm.028.004-.27 1.446-.773 1.246-1.172.886-1.41.399-1.461-.133-1.317-.656-.988-1.082-.531-1.371v-1.465l.531-1.371.988-1.082 1.317-.656 1.46-.133 1.41.398 1.173.887.773 1.246Zm0 0-.27-1.441-.773-1.246-1.172-.887-1.41-.398-1.461.133-1.317.656-.988 1.082-.531 1.37v1.466l.531 1.37.988 1.083 1.317.656 1.46.133 1.41-.398 1.173-.887.773-1.246Zm.027.008-.273 1.45-.774 1.253-1.18.89-1.421.407-1.47-.137-1.32-.66-.996-1.09-.53-1.375v-1.476l.53-1.379.996-1.09 1.32-.656 1.47-.137 1.421.403 1.18.89.774 1.254Zm0 0-.273-1.453-.774-1.254-1.18-.89-1.421-.403-1.47.137-1.32.656-.996 1.09-.53 1.379v1.476l.53 1.375.996 1.09 1.32.66 1.47.137 1.421-.406 1.18-.89.774-1.255Zm.027.004-.273 1.461-.781 1.262-1.184.894-1.43.407-1.476-.137-1.332-.664-1-1.098-.535-1.383v-1.484l.535-1.387 1-1.097 1.332-.66 1.476-.137 1.43.406 1.184.894.78 1.262Zm0 0-.273-1.46-.781-1.263-1.184-.894-1.43-.406-1.476.136-1.332.66-1 1.098-.535 1.387v1.484l.535 1.383 1 1.098 1.332.664 1.476.137 1.43-.407 1.184-.894.78-1.262Zm.028.004-.274 1.469-.785 1.27-1.191.898-1.438.41-1.488-.137-1.336-.668-1.004-1.101-.543-1.395v-1.492l.543-1.395 1.004-1.101 1.336-.664 1.488-.14 1.438.41 1.191.898.785 1.27Zm0 0-.274-1.469-.785-1.27-1.191-.898-1.438-.41-1.488.14-1.336.665-1.004 1.101-.543 1.395v1.492l.543 1.395 1.004 1.101 1.336.668 1.488.137 1.438-.41 1.191-.899.785-1.27Zm.027.004-.273 1.476-.793 1.278-1.196.906-1.445.41-1.496-.136-1.344-.672-1.012-1.11-.543-1.398v-1.504l.543-1.402 1.012-1.11 1.344-.668 1.496-.14 1.445.414 1.196.902.793 1.277Zm0 0-.273-1.477-.793-1.277-1.196-.902-1.445-.414-1.496.14-1.344.668-1.012 1.11-.543 1.402v1.504l.543 1.398 1.012 1.11 1.344.671 1.496.137 1.445-.41 1.196-.906.793-1.278Zm.031.004-.277 1.488-.797 1.281-1.207.91-1.453.415-1.504-.137-1.352-.676-1.015-1.117-.547-1.406v-1.512l.547-1.406 1.015-1.118 1.352-.675 1.504-.137 1.453.414 1.207.91.797 1.281Zm0 0-.277-1.485-.797-1.28-1.207-.911-1.453-.414-1.504.137-1.352.675-1.015 1.118-.547 1.406v1.512l.547 1.406 1.015 1.117 1.352.676 1.504.137 1.453-.415 1.207-.91.797-1.28Zm.028.008-.282 1.492-.797 1.293-1.214.914-1.461.414-1.512-.14-1.36-.677-1.023-1.12-.55-1.419v-1.52l.55-1.413 1.024-1.125 1.359-.676 1.512-.14 1.46.413 1.215.918.797 1.29Zm0 0-.282-1.496-.797-1.29-1.214-.917-1.461-.415-1.512.141-1.36.676-1.023 1.125-.55 1.414v1.52l.55 1.417 1.024 1.121 1.359.676 1.512.14 1.46-.413 1.215-.914.797-1.293Zm.027.004-.281 1.5-.805 1.3-1.219.918-1.469.422-1.519-.144-1.371-.68-1.027-1.129-.551-1.426v-1.527l.55-1.422 1.028-1.129 1.371-.683 1.52-.141 1.468.418 1.219.922.805 1.297Zm0 0-.281-1.504-.805-1.297-1.219-.922-1.469-.418-1.519.14-1.371.684-1.027 1.129-.551 1.422v1.527l.55 1.426 1.028 1.129 1.371.68 1.52.144 1.468-.422 1.219-.918.805-1.3Zm.027.003-.281 1.512-.809 1.305-1.226.926-1.477.421-1.53-.144-1.376-.684-1.035-1.136-.555-1.43v-1.54l.555-1.429 1.035-1.136 1.375-.684 1.531-.145 1.477.422 1.226.926.809 1.305Zm0 0-.281-1.511-.809-1.305-1.226-.926-1.477-.422-1.53.145-1.376.684-1.035 1.136-.555 1.43v1.539l.555 1.43 1.035 1.136 1.375.684 1.531.144 1.477-.421 1.226-.926.809-1.305Zm.028.004-.282 1.52-.816 1.312-1.23.934-1.489.422-1.535-.145-1.383-.687-1.043-1.14-.558-1.442v-1.543l.558-1.442 1.043-1.144 1.383-.688 1.535-.14 1.489.422 1.23.93.816 1.316Zm0 0-.282-1.515-.816-1.317-1.23-.93-1.489-.421-1.535.14-1.383.688-1.043 1.144-.558 1.442v1.543l.558 1.441 1.043 1.14 1.383.688 1.535.145 1.489-.422 1.23-.934.816-1.312Zm.027.004-.285 1.528-.817 1.32-1.238.937-1.496.426-1.547-.144-1.39-.692-1.047-1.148-.559-1.45v-1.55l.559-1.45L5.27 61.91l1.39-.691 1.547-.145 1.496.426 1.238.934.817 1.324Zm0 0-.285-1.523-.817-1.324-1.238-.934-1.496-.426-1.547.145-1.39.691-1.047 1.149-.559 1.449v1.55l.559 1.45 1.047 1.148 1.39.692 1.547.144 1.496-.426 1.238-.937.817-1.32Zm.031.008-.289 1.535-.82 1.328-1.246.942-1.504.426-1.555-.145-1.398-.695-1.055-1.157-.562-1.453v-1.562l.562-1.457 1.055-1.156 1.398-.696 1.555-.144 1.504.43 1.246.94.82 1.329Zm0 0-.289-1.535-.82-1.328-1.246-.942-1.504-.43-1.555.145-1.398.696-1.055 1.156-.562 1.457v1.562l.562 1.453 1.055 1.157 1.398.695 1.555.145 1.504-.426 1.246-.942.82-1.328Zm.028.004-.29 1.543-.828 1.336-1.254.945-1.507.43-1.567-.145-1.406-.699-1.055-1.16-.57-1.465v-1.57l.57-1.465 1.055-1.16 1.406-.7 1.567-.148 1.507.43 1.254.95.829 1.335Zm0 0-.29-1.543-.828-1.336-1.254-.95-1.507-.429-1.567.149-1.406.699-1.055 1.16-.57 1.465v1.57l.57 1.465 1.055 1.16 1.406.7 1.567.144 1.507-.43 1.254-.945.829-1.336Zm.027.004-.29 1.55-.831 1.344-1.262.954-1.52.43-1.57-.145-1.414-.703-1.062-1.168-.57-1.473v-1.578l.57-1.473 1.062-1.168 1.414-.703 1.57-.144 1.52.43 1.262.952.832 1.344Zm0 0-.29-1.55-.831-1.345-1.262-.953-1.52-.43-1.57.145-1.414.703-1.062 1.168-.57 1.473v1.578l.57 1.473 1.062 1.168 1.414.703 1.57.144 1.52-.43 1.262-.953.832-1.343Zm.027.004-.293 1.562-.832 1.348-1.27.957-1.527.437-1.582-.148-1.418-.707-1.07-1.176-.574-1.48v-1.586l.574-1.48 1.07-1.173 1.418-.71L8.234 61l1.528.434 1.27.957.831 1.351Zm0 0-.293-1.559-.832-1.351-1.27-.957L8.235 61l-1.582.145-1.418.71-1.07 1.172-.574 1.48v1.587l.574 1.48 1.07 1.176 1.418.707 1.582.148 1.528-.437 1.27-.957.831-1.348Zm.028.004-.293 1.57-.84 1.36-1.274.96-1.535.438-1.59-.149-1.43-.71-1.074-1.18-.578-1.489v-1.597l.578-1.488 1.075-1.18 1.43-.711 1.59-.149 1.534.438 1.274.96.84 1.36Zm0 0-.293-1.567-.84-1.36-1.274-.96-1.535-.438-1.59.149-1.43.71-1.074 1.18-.578 1.489v1.597l.578 1.489 1.075 1.18 1.43.71 1.59.149 1.534-.438 1.274-.96.84-1.36Zm.03.007-.296 1.575-.844 1.367-1.281.965-1.543.441-1.598-.148-1.437-.715-1.082-1.188-.578-1.496v-1.605l.578-1.496 1.082-1.188 1.437-.715 1.598-.148 1.543.441 1.281.965.844 1.367Zm0 0-.296-1.578-.844-1.367-1.281-.965-1.543-.441-1.598.148-1.437.715-1.082 1.188-.578 1.496v1.605l.578 1.496 1.082 1.188 1.437.715 1.598.148 1.543-.441 1.281-.965.844-1.367Zm.028.004-.297 1.586-.851 1.371-1.285.973-1.555.442-1.606-.149-1.445-.719-1.086-1.191-.582-1.508v-1.613l.582-1.504 1.086-1.191 1.445-.72 1.606-.148 1.555.442 1.285.972.851 1.371Zm0 0-.297-1.586-.851-1.37-1.285-.973-1.555-.442-1.606.149-1.445.718-1.086 1.192-.582 1.504v1.613l.582 1.508 1.086 1.191 1.445.72 1.606.147 1.555-.44 1.285-.974.851-1.37Zm.028.004-.297 1.594-.856 1.379-1.293.98-1.562.442-1.614-.149-1.453-.722-1.093-1.2-.586-1.511v-1.625l.586-1.512 1.093-1.2 1.453-.722 1.614-.148 1.562.445 1.293.977.856 1.379Zm0 0-.297-1.593-.856-1.38-1.293-.976-1.562-.445-1.614.148-1.453.723-1.093 1.2-.586 1.51v1.626l.586 1.512 1.093 1.199 1.453.722 1.614.149 1.562-.442 1.293-.98.856-1.379Zm.027.004-.3 1.606-.856 1.382-1.305.985-1.566.445-1.625-.148-1.457-.727-1.102-1.207-.586-1.52v-1.632l.586-1.52 1.101-1.203 1.458-.726 1.625-.153 1.566.446 1.305.984.855 1.387Zm0 0-.3-1.601-.856-1.387-1.305-.984-1.566-.446-1.625.153-1.457.726-1.102 1.203-.586 1.52v1.633l.586 1.52 1.101 1.206 1.458.727 1.625.148 1.566-.445 1.305-.984.855-1.383Zm.027.004-.3 1.613-.864 1.395-1.308.988-1.575.446-1.632-.149-1.47-.73L4.07 67.68l-.59-1.532v-1.636l.59-1.532 1.106-1.21 1.469-.73 1.632-.153 1.575.449 1.308.988.863 1.395Zm0 0-.3-1.61-.864-1.394-1.308-.988-1.575-.45-1.632.153-1.47.73L4.07 62.98l-.59 1.532v1.636l.59 1.532 1.106 1.21 1.469.731 1.632.149 1.575-.446 1.308-.988.863-1.395Zm.028.008-.301 1.617-.867 1.402-1.317.993-1.586.453-1.64-.153-1.473-.734-1.11-1.219-.597-1.535v-1.648l.598-1.54 1.109-1.214 1.473-.735 1.64-.152 1.586.45 1.317.992.867 1.402Zm0 0-.301-1.621-.867-1.403-1.317-.992-1.586-.449-1.64.152-1.473.735-1.11 1.215-.597 1.539v1.648l.598 1.535 1.109 1.22 1.473.733 1.64.153 1.586-.453 1.317-.993.867-1.402Zm.03.004-.304 1.629-.875 1.406-1.32 1-1.594.453-1.648-.152-1.485-.739-1.113-1.226-.602-1.543v-1.656l.602-1.547 1.113-1.223 1.485-.738 1.648-.152 1.594.453 1.32.996.875 1.41Zm0 0-.304-1.63-.875-1.41-1.32-.995-1.594-.453-1.648.152-1.485.738-1.113 1.223-.602 1.547v1.656l.602 1.543 1.113 1.227 1.485.738 1.648.152 1.594-.453 1.32-1 .875-1.406Zm.028.004-.308 1.636-.875 1.415-1.329 1.003-1.601.457-1.66-.152-1.489-.742-1.12-1.23-.602-1.555v-1.664l.601-1.555 1.121-1.23 1.489-.743 1.66-.152 1.601.457 1.329 1.004.875 1.414Zm0 0-.308-1.637-.875-1.414-1.329-1.004-1.601-.457-1.66.152-1.489.743-1.12 1.23-.602 1.555v1.664l.601 1.554 1.121 1.23 1.489.743 1.66.152 1.601-.457 1.329-1.003.875-1.415Zm.027.004-.308 1.644-.879 1.426-1.336 1.008-1.61.457-1.667-.153-1.496-.746-1.13-1.238-.605-1.562v-1.672l.606-1.563 1.129-1.234 1.496-.746 1.668-.157 1.61.461 1.335 1.008.879 1.422Zm0 0-.308-1.645-.879-1.422-1.336-1.008-1.61-.46-1.667.156-1.496.746-1.13 1.234-.605 1.563v1.672l.606 1.562 1.129 1.238 1.496.746 1.668.153 1.61-.457 1.335-1.008.879-1.426Zm.028.004-.309 1.656-.886 1.43-1.34 1.011-1.621.461-1.672-.156-1.508-.75-1.133-1.242-.61-1.567v-1.683l.61-1.567L5.13 61.7l1.508-.75 1.672-.152 1.62.457 1.34 1.016.887 1.43Zm0 0-.309-1.653-.886-1.43-1.34-1.015-1.621-.457-1.672.152-1.508.75-1.133 1.246-.61 1.567v1.683l.61 1.567 1.133 1.242 1.508.75 1.672.156 1.62-.46 1.34-1.013.887-1.43Zm.027.007-.308 1.66-.891 1.438-1.352 1.02-1.625.46-1.683-.156-1.512-.754-1.14-1.246-.61-1.578v-1.691l.61-1.575 1.14-1.25 1.512-.753 1.683-.157 1.625.461 1.352 1.02.89 1.437Zm0 0-.308-1.664-.891-1.437-1.352-1.02-1.625-.46-1.683.156-1.512.754-1.14 1.25-.61 1.574v1.691l.61 1.578 1.14 1.246 1.512.754 1.683.156 1.625-.46 1.352-1.02.89-1.437Zm.028.004-.31 1.668-.898 1.446L9.957 69.5l-1.633.465-1.691-.156-1.524-.758-1.144-1.254-.613-1.586v-1.7l.613-1.581 1.144-1.258 1.524-.758 1.691-.156 1.633.465 1.355 1.023.899 1.445Zm0 0-.31-1.672-.898-1.445-1.355-1.023-1.633-.465-1.691.156-1.524.758-1.144 1.258-.613 1.582v1.699l.613 1.586 1.144 1.254 1.524.758 1.691.156 1.633-.465 1.355-1.023.899-1.446Zm.03.004-.316 1.68-.898 1.45-1.363 1.03-1.641.47-1.703-.161-1.527-.762-1.153-1.261-.617-1.59v-1.711l.617-1.59 1.153-1.262 1.527-.762 1.703-.16 1.64.469 1.364 1.027.898 1.453Zm0 0-.316-1.68-.898-1.453-1.363-1.027-1.641-.469-1.703.16-1.527.762-1.153 1.262-.617 1.59v1.71l.617 1.59 1.153 1.262 1.527.762 1.703.16 1.64-.469 1.364-1.03.898-1.45Zm.028.004-.316 1.688-.903 1.46-1.37 1.036-1.653.468-1.707-.16-1.54-.765-1.155-1.266-.618-1.602v-1.718l.618-1.598 1.156-1.27 1.539-.765 1.707-.156 1.652.468 1.371 1.036.903 1.457Zm0 0-.316-1.687-.903-1.457-1.37-1.036-1.653-.468-1.707.156-1.54.766-1.155 1.27-.618 1.597v1.718l.618 1.602 1.156 1.266 1.539.765 1.707.16 1.652-.468 1.371-1.035.903-1.461Zm.027.004-.316 1.695-.91 1.47-1.375 1.038-1.66.473-1.719-.16-1.543-.77-1.16-1.273-.625-1.61v-1.722l.625-1.61 1.16-1.277 1.543-.766 1.719-.16 1.66.473 1.375 1.039.91 1.465Zm0 0-.316-1.695-.91-1.465-1.375-1.04-1.66-.472-1.719.16-1.543.766-1.16 1.277-.625 1.61v1.722l.625 1.61 1.16 1.273 1.543.77 1.719.16 1.66-.473 1.375-1.039.91-1.469Zm.028.008-.317 1.703-.914 1.473-1.382 1.046-1.668.473-1.727-.16-1.55-.773-1.169-1.282-.629-1.617v-1.73l.63-1.618 1.167-1.28 1.551-.774 1.727-.16 1.668.472 1.382 1.047.914 1.473Zm0 0-.317-1.707-.914-1.473-1.382-1.047-1.668-.472-1.727.16-1.55.773-1.169 1.281-.629 1.618v1.73l.63 1.617 1.167 1.282 1.551.773 1.727.16 1.668-.473 1.382-1.046.914-1.473Zm.027.004-.32 1.71-.914 1.481-1.39 1.05-1.677.477-1.734-.16-1.563-.777-1.171-1.285-.63-1.625v-1.742l.63-1.625 1.171-1.29 1.563-.777 1.734-.16 1.676.477 1.39 1.05.915 1.48Zm0 0-.32-1.715-.914-1.48-1.39-1.051-1.677-.477-1.734.16-1.563.778-1.171 1.289-.63 1.625v1.742l.63 1.625 1.171 1.285 1.563.777 1.734.16 1.676-.476 1.39-1.05.915-1.481Zm.027.004-.32 1.722-.922 1.489-1.398 1.054-1.684.477-1.742-.16-1.566-.782-1.18-1.293-.633-1.632v-1.75l.633-1.633 1.18-1.293 1.566-.781 1.742-.16 1.684.476 1.398 1.055.922 1.488Zm0 0-.32-1.723-.922-1.488-1.398-1.055-1.684-.477-1.742.16-1.566.782-1.18 1.293-.633 1.633v1.75l.633 1.632 1.18 1.293 1.566.782 1.742.16 1.684-.477 1.398-1.054.922-1.489Zm.032.004-.324 1.73-.926 1.496-1.406 1.059-1.692.484L6.621 70l-1.578-.785-1.184-1.3-.636-1.642v-1.757l.636-1.641 1.184-1.3 1.578-.786 1.75-.16 1.691.48 1.407 1.059.926 1.496Zm0 0-.324-1.73-.926-1.497-1.406-1.059-1.692-.48-1.75.16-1.578.785-1.184 1.301-.636 1.64v1.758l.636 1.641 1.184 1.3L6.621 70l1.75.164 1.691-.484 1.407-1.059.926-1.496Zm.027.003-.324 1.739-.934 1.504-1.41 1.066-1.7.484-1.76-.164-1.583-.789-1.191-1.304-.637-1.649v-1.77l.637-1.648 1.191-1.304 1.582-.79 1.762-.164 1.7.485 1.41 1.066.933 1.5Zm0 0-.324-1.738-.934-1.5-1.41-1.066-1.7-.485-1.76.164-1.583.79-1.191 1.304-.637 1.649v1.77l.637 1.648 1.191 1.304 1.582.79 1.762.163 1.7-.484 1.41-1.066.933-1.504Zm.027.008-.328 1.746-.933 1.508-1.418 1.07-1.707.489-1.77-.164-1.59-.793-1.199-1.313-.64-1.656v-1.777l.64-1.657 1.2-1.312 1.59-.793 1.769-.164 1.707.488 1.418 1.07.933 1.508Zm0 0-.328-1.75-.933-1.508-1.418-1.07-1.707-.488-1.77.164-1.59.793-1.199 1.312-.64 1.657v1.777l.64 1.656 1.2 1.313 1.59.793 1.769.164 1.707-.489 1.418-1.07.933-1.508Zm.028.004-.328 1.754-.938 1.516-1.426 1.078-1.718.488-1.778-.164-1.597-.797-1.204-1.32-.644-1.664v-1.785l.644-1.664 1.204-1.32 1.597-.794 1.778-.168 1.718.492 1.426 1.075.938 1.52Zm0 0-.328-1.754-.938-1.52-1.426-1.074-1.718-.492-1.778.168-1.597.793-1.204 1.32-.644 1.665V66.3l.644 1.664 1.204 1.32 1.597.797 1.778.164 1.718-.488 1.426-1.078.938-1.516Zm.027.004-.328 1.762-.945 1.527-1.43 1.078-1.727.492-1.785-.164-1.605-.8-1.211-1.325-.645-1.671v-1.797l.645-1.672 1.21-1.324 1.606-.801 1.785-.164 1.727.488 1.43 1.082.945 1.527Zm0 0-.328-1.762-.945-1.527-1.43-1.082-1.727-.488-1.785.164-1.605.8-1.211 1.325-.645 1.672v1.796l.645 1.672 1.21 1.325 1.606.8 1.785.164 1.727-.492 1.43-1.078.945-1.527Zm.031.004-.332 1.773-.949 1.532-1.437 1.086-1.735.492-1.797-.164-1.613-.805L3.786 68l-.653-1.68v-1.804l.652-1.68 1.211-1.332 1.613-.8 1.797-.169 1.735.492 1.437 1.086.95 1.535Zm0 0-.332-1.77-.949-1.535-1.437-1.086-1.735-.492-1.797.168-1.613.8-1.21 1.333-.653 1.68v1.804L3.785 68l1.211 1.332 1.613.805 1.797.164 1.735-.492 1.437-1.086.95-1.532Zm.028.004-.332 1.781-.957 1.54-1.442 1.093-1.742.492-1.805-.164-1.62-.809-1.22-1.34-.656-1.687V64.52l.657-1.692 1.218-1.336 1.621-.808 1.805-.168 1.742.496 1.442 1.09.957 1.543Zm0 0-.332-1.777-.957-1.543-1.442-1.09-1.742-.496-1.805.168-1.62.808-1.22 1.336-.656 1.692v1.808l.657 1.688 1.218 1.34 1.621.808 1.805.164 1.742-.492 1.442-1.094.957-1.539Zm.027.008-.336 1.785-.957 1.547-1.453 1.097-1.75.5-1.809-.168-1.629-.812-1.226-1.344-.656-1.7V64.52l.656-1.7 1.226-1.343 1.63-.813 1.808-.168 1.75.5 1.453 1.098.957 1.547Zm0 0-.336-1.79-.957-1.546-1.453-1.098-1.75-.5-1.809.168-1.629.813-1.226 1.343-.656 1.7v1.816l.656 1.7 1.226 1.343 1.63.812 1.808.168 1.75-.5 1.453-1.097.957-1.547Zm.027.004-.336 1.796-.96 1.555-1.461 1.102-1.758.5-1.82-.168-1.637-.817-1.23-1.351-.66-1.703V64.52l.66-1.707 1.23-1.352 1.636-.813 1.82-.168 1.759.5 1.46 1.102.961 1.555Zm0 0-.336-1.797-.96-1.555-1.461-1.102-1.758-.5-1.82.168-1.637.813-1.23 1.352-.66 1.707v1.828l.66 1.703 1.23 1.351 1.636.817 1.82.168 1.759-.5 1.46-1.102.961-1.555Zm.028.004-.336 1.804-.969 1.563L10.2 69.91l-1.765.504-1.829-.172-1.644-.816-1.238-1.36-.664-1.71V64.52l.664-1.715 1.238-1.356 1.644-.82 1.829-.168 1.765.504 1.465 1.105.969 1.563Zm0 0-.336-1.805-.969-1.563-1.465-1.105-1.765-.504-1.829.168-1.644.82-1.238 1.356-.664 1.715v1.835l.664 1.711 1.238 1.36 1.644.816 1.829.172 1.765-.504 1.465-1.105.969-1.563Zm.027.003-.336 1.813-.973 1.57-1.472 1.114-1.774.503-1.84-.171-1.652-.82-1.242-1.364-.668-1.723V64.52l.668-1.723 1.242-1.363 1.653-.82 1.84-.173 1.773.504 1.473 1.114.972 1.57Zm0 0-.336-1.812-.973-1.57-1.472-1.114-1.774-.504-1.84.172-1.652.82-1.242 1.364-.668 1.723v1.843l.668 1.723 1.242 1.363 1.653.82 1.84.172 1.773-.504 1.473-1.113.972-1.57Zm.031.004-.343 1.825-.973 1.574-1.48 1.117-1.786.508-1.843-.172-1.66-.824-1.25-1.371-.669-1.727V64.52l.668-1.73 1.25-1.368 1.66-.828 1.844-.172 1.785.508 1.48 1.117.974 1.578Zm0 0-.343-1.82-.973-1.578-1.48-1.117-1.786-.508-1.843.172-1.66.828-1.25 1.367-.669 1.73v1.856l.668 1.727 1.25 1.37 1.66.825 1.844.172 1.785-.508 1.48-1.117.974-1.574Zm.028.004-.344 1.832-.98 1.586-1.485 1.121-1.793.508-1.855-.172-1.664-.828-1.258-1.379-.672-1.734V64.52l.672-1.735 1.258-1.379 1.664-.828 1.855-.172 1.793.508 1.484 1.121.98 1.586Zm0 0-.344-1.828-.98-1.586-1.485-1.12-1.793-.509-1.855.172-1.664.828-1.258 1.38-.672 1.734v1.863l.672 1.734 1.258 1.38 1.664.827 1.855.172 1.793-.508 1.484-1.12.98-1.587Zm.027.008-.344 1.84-.984 1.59-1.492 1.125-1.801.511-1.863-.171-1.676-.832-1.262-1.383-.676-1.746V64.52l.676-1.743 1.262-1.382 1.676-.836 1.863-.172 1.8.511 1.493 1.13.984 1.59Zm0 0-.344-1.84-.984-1.59-1.492-1.129-1.801-.511-1.863.172-1.676.836-1.262 1.382-.676 1.743v1.87l.676 1.747 1.262 1.383 1.676.832 1.863.171 1.8-.511 1.493-1.125.984-1.59Zm.027.004-.343 1.848-.993 1.597-1.5 1.133-1.804.516-1.875-.176-1.68-.836-1.266-1.39-.68-1.755V64.52l.68-1.75 1.266-1.391 1.68-.836 1.875-.176 1.804.516 1.5 1.133.993 1.597Zm0 0-.343-1.848-.993-1.597-1.5-1.133-1.804-.516-1.875.176-1.68.836-1.266 1.39-.68 1.75v1.88l.68 1.753 1.266 1.391 1.68.836 1.875.176 1.804-.516 1.5-1.133.993-1.597Zm.028.004-.348 1.855-.992 1.606-1.508 1.136-1.816.52-1.88-.176-1.69-.84-1.27-1.398-.684-1.758v-1.89l.684-1.758 1.27-1.399 1.69-.84 1.88-.175 1.816.52 1.508 1.136.992 1.605Zm0 0-.348-1.856-.992-1.605-1.508-1.137-1.816-.52-1.88.176-1.69.84-1.27 1.399-.684 1.758v1.89l.684 1.758 1.27 1.398 1.69.84 1.88.176 1.816-.52 1.508-1.136.992-1.606Zm.027.004-.348 1.867-.996 1.61-1.515 1.144-1.825.52-1.886-.176-1.7-.844-1.277-1.403-.687-1.769V64.52l.687-1.766 1.278-1.402 1.699-.848 1.886-.172 1.825.52 1.515 1.14.996 1.613Zm0 0-.348-1.864-.996-1.613-1.515-1.14-1.825-.52-1.886.172-1.7.848-1.277 1.402-.687 1.766v1.898l.687 1.77 1.278 1.402 1.699.844 1.886.175 1.825-.52 1.515-1.144.996-1.61Zm.031.004-.351 1.875-1.004 1.62-1.52 1.15-1.832.519-1.898-.176-1.703-.848-1.285-1.41-.688-1.777v-1.903l.688-1.777 1.285-1.41 1.703-.848 1.898-.175 1.832.519 1.52 1.148 1.004 1.622Zm0 0-.351-1.871-1.004-1.622-1.52-1.148-1.832-.52-1.898.176-1.703.848-1.285 1.41-.688 1.777v1.903l.688 1.777 1.285 1.41 1.703.848 1.898.176 1.832-.52 1.52-1.148 1.004-1.621Zm.028.007-.352 1.88-1.008 1.628-1.527 1.153-1.84.523-1.906-.176-1.715-.851-1.29-1.414-.69-1.785v-1.915l.69-1.785 1.29-1.414 1.715-.855 1.906-.176 1.84.523 1.527 1.153 1.008 1.629Zm0 0-.352-1.882-1.008-1.63-1.527-1.152-1.84-.523-1.906.176-1.715.855-1.29 1.414-.69 1.785v1.915l.69 1.785 1.29 1.414 1.715.851 1.906.176 1.84-.523 1.527-1.153 1.008-1.629Zm.027.004-.352 1.891-1.015 1.633-1.531 1.16-1.852.523-1.914-.175-1.719-.856-1.297-1.422-.695-1.793v-1.922l.695-1.793 1.297-1.421 1.719-.856 1.914-.18 1.852.528 1.53 1.16 1.016 1.633Zm0 0-.352-1.89-1.015-1.633-1.531-1.16-1.852-.528-1.914.18-1.719.856L3.57 62.73l-.695 1.793v1.922l.695 1.793 1.297 1.422 1.719.856 1.914.175 1.852-.523 1.53-1.16 1.016-1.633Zm.027.004-.355 1.899-1.016 1.64-1.539 1.164-1.86.528-1.921-.176-1.73-.86-1.301-1.43-.696-1.8v-1.93l.696-1.8 1.3-1.426 1.73-.863 1.923-.176 1.86.527 1.538 1.164 1.016 1.64Zm0 0-.355-1.898-1.016-1.64-1.539-1.165-1.86-.527-1.921.176-1.73.863-1.301 1.426-.696 1.8v1.93l.696 1.8 1.3 1.43 1.73.86 1.923.176 1.86-.528 1.538-1.164 1.016-1.64Zm.028.004-.356 1.906-1.02 1.653-1.55 1.168-1.863.531-1.934-.18-1.734-.867-1.309-1.43-.7-1.808v-1.942l.7-1.808 1.309-1.434 1.734-.863 1.934-.18 1.863.532 1.55 1.167 1.02 1.649Zm0 0-.356-1.906-1.02-1.648-1.55-1.168-1.863-.532-1.934.18-1.734.863-1.309 1.434-.7 1.808v1.942l.7 1.808 1.309 1.43 1.734.867 1.934.18 1.863-.531 1.55-1.168 1.02-1.653Zm.027.004-.355 1.918-1.028 1.656-1.554 1.172-1.872.535-1.941-.18-1.746-.87-1.313-1.438-.703-1.816v-1.95l.703-1.816 1.313-1.441 1.746-.868 1.941-.18 1.872.536 1.554 1.172 1.028 1.656Zm0 0-.355-1.914-1.028-1.656-1.554-1.172-1.872-.535-1.941.18-1.746.867-1.313 1.441-.703 1.816v1.95l.703 1.816 1.313 1.438 1.746.87 1.941.18 1.872-.535 1.554-1.172 1.028-1.656Zm.031.008-.36 1.922-1.03 1.664-1.563 1.18-1.883.535-1.945-.18-1.754-.875-1.316-1.445-.707-1.825v-1.957l.707-1.824 1.316-1.445 1.754-.871 1.945-.184 1.883.535 1.563 1.18 1.03 1.664Zm0 0-.36-1.926-1.03-1.664-1.563-1.18-1.883-.535-1.945.184-1.754.87L3.512 62.7l-.707 1.824v1.957l.707 1.825 1.316 1.445 1.754.875 1.945.18 1.883-.535 1.563-1.18 1.03-1.664Zm.028.004-.364 1.93-1.03 1.671-1.571 1.184-1.89.539-1.958-.18-1.758-.879-1.324-1.449-.71-1.836v-1.965l.71-1.832 1.324-1.453 1.758-.875 1.957-.18 1.89.536 1.571 1.183 1.031 1.672Zm0 0-.364-1.934-1.03-1.672-1.571-1.183-1.89-.535-1.958.18-1.758.874-1.324 1.453-.71 1.832v1.965l.71 1.836 1.324 1.45 1.758.878 1.957.18 1.89-.539 1.571-1.184 1.031-1.671Zm.027.004-.363 1.941-1.04 1.676-1.574 1.191-1.898.54-1.965-.18-1.77-.883L3.48 68.34l-.714-1.84v-1.977l.714-1.84 1.329-1.456 1.77-.883 1.964-.18 1.898.54 1.575 1.19 1.039 1.676Zm0 0-.363-1.942-1.04-1.675-1.574-1.192-1.898-.539-1.965.18-1.77.883-1.328 1.457-.714 1.84V66.5l.714 1.84 1.329 1.457 1.77.883 1.964.18 1.898-.54 1.575-1.191 1.039-1.676Zm.027.004-.363 1.949-1.043 1.687-1.582 1.192-1.906.543-1.977-.18-1.773-.887-1.336-1.465-.715-1.847v-1.985l.715-1.847L4.8 61.21l1.773-.883 1.977-.183 1.906.542 1.582 1.196 1.043 1.683Zm0 0-.363-1.95-1.043-1.683-1.582-1.196-1.906-.542-1.977.183-1.773.883-1.336 1.465-.715 1.847v1.985l.715 1.847L4.8 69.82l1.773.887 1.977.18 1.906-.543 1.582-1.192 1.043-1.687Zm.028.004-.364 1.957-1.05 1.695-1.586 1.2-1.918.546-1.98-.184-1.786-.89-1.34-1.469-.719-1.86v-1.988l.72-1.859 1.34-1.469 1.784-.89 1.98-.184 1.919.547 1.586 1.2 1.05 1.69Zm0 0-.364-1.957-1.05-1.692-1.586-1.2-1.918-.546-1.98.184-1.786.89-1.34 1.469-.719 1.86v1.988l.72 1.859 1.34 1.469 1.784.89 1.98.184 1.919-.547 1.586-1.2 1.05-1.694Zm.03.007-.37 1.965-1.051 1.7-1.598 1.206-1.921.547-1.993-.187-1.789-.89-1.347-1.477-.723-1.864v-2l.723-1.867 1.347-1.476 1.79-.891 1.992-.184 1.921.547 1.598 1.203 1.05 1.7Zm0 0-.37-1.968-1.051-1.7-1.598-1.203-1.921-.547-1.993.184-1.789.89-1.347 1.477-.723 1.867v2l.723 1.864 1.347 1.476 1.79.89 1.992.188 1.921-.547 1.598-1.207 1.05-1.699Zm.028.004-.37 1.973-1.056 1.707-1.605 1.21-1.93.552-2-.188-1.797-.894-1.355-1.485-.723-1.87v-2.009l.723-1.875 1.355-1.484 1.797-.895 2-.183 1.93.547 1.605 1.21 1.055 1.708Zm0 0-.37-1.976-1.056-1.707-1.605-1.211-1.93-.547-2 .183-1.797.895-1.355 1.484-.723 1.875v2.008l.723 1.871 1.355 1.485 1.797.894 2 .188 1.93-.551 1.605-1.211 1.055-1.707Zm.028.004-.371 1.985-1.063 1.714-1.61 1.215L8.579 71l-2.012-.188-1.804-.898-1.36-1.488-.726-1.883v-2.016l.726-1.882 1.36-1.489 1.804-.898 2.012-.188 1.938.551 1.609 1.215 1.063 1.715Zm0 0-.371-1.984-1.063-1.715-1.61-1.215-1.937-.55-2.012.187-1.804.898-1.36 1.489-.726 1.882v2.016l.726 1.883 1.36 1.488 1.804.898L8.578 71l1.938-.55 1.609-1.216 1.063-1.714Zm.027.004-.371 1.992-1.067 1.723-1.617 1.219-1.949.554-2.016-.187-1.812-.903-1.363-1.496-.735-1.89v-2.024l.735-1.89 1.363-1.496 1.812-.903 2.016-.187 1.95.554 1.616 1.223 1.067 1.723Zm0 0-.371-1.988-1.067-1.723-1.617-1.223-1.949-.554-2.016.187-1.812.903-1.363 1.496-.735 1.89v2.024l.735 1.89 1.363 1.496 1.812.903 2.016.187 1.95-.554 1.616-1.22 1.067-1.722Zm.027.004-.37 2-1.075 1.73-1.621 1.227-1.957.555-2.024-.188-1.824-.906-1.367-1.504-.734-1.894v-2.036l.734-1.898 1.367-1.5 1.824-.906 2.024-.188 1.957.555 1.621 1.226 1.074 1.73Zm0 0-.37-1.996-1.075-1.73-1.621-1.227-1.957-.555-2.024.188-1.824.906-1.367 1.5-.734 1.898v2.035l.734 1.895 1.367 1.504 1.824.906 2.024.188 1.957-.555 1.621-1.227 1.074-1.73Zm.028.008-.375 2.008-1.075 1.734-1.629 1.23-1.964.559-2.036-.187-1.828-.91-1.375-1.508-.738-1.907v-2.043l.738-1.902 1.375-1.512 1.829-.91 2.035-.187 1.964.558 1.63 1.23 1.074 1.739Zm0 0-.375-2.008-1.075-1.738-1.629-1.23-1.964-.56-2.036.188-1.828.91-1.375 1.512-.738 1.902v2.043l.738 1.907 1.375 1.507 1.829.91 2.035.188 1.964-.559 1.63-1.23 1.074-1.734Zm.03.004-.378 2.015-1.078 1.743-1.637 1.238-1.973.562-2.043-.191-1.835-.914-1.383-1.516-.742-1.914v-2.05l.742-1.91 1.383-1.516 1.835-.918 2.043-.188 1.973.563 1.637 1.234 1.078 1.746Zm0 0-.378-2.016-1.078-1.746-1.637-1.234-1.973-.563-2.043.188-1.835.918-1.383 1.515-.742 1.91v2.051l.742 1.914 1.383 1.516 1.835.914 2.043.191 1.973-.562 1.637-1.239 1.078-1.742Zm.028.004-.379 2.023-1.086 1.754-1.644 1.238-1.98.567-2.051-.192-1.844-.918-1.387-1.523-.746-1.918v-2.063l.746-1.918 1.387-1.523 1.844-.918 2.05-.191 1.98.566 1.645 1.238 1.086 1.754Zm0 0-.379-2.024-1.086-1.754-1.644-1.238-1.98-.566-2.051.191-1.844.918-1.387 1.523-.746 1.918v2.063l.746 1.918 1.387 1.523 1.844.918 2.05.192 1.98-.567 1.645-1.238 1.086-1.754Zm.028.004-.38 2.035-1.09 1.757-1.652 1.247-1.988.566-2.058-.191-1.852-.922-1.394-1.528-.747-1.93v-2.07l.747-1.925 1.394-1.532 1.852-.922 2.058-.191 1.988.566 1.653 1.25 1.09 1.758Zm0 0-.38-2.032-1.09-1.758-1.652-1.25-1.988-.566-2.058.191-1.852.922-1.394 1.532-.747 1.925v2.07l.747 1.93 1.394 1.528 1.852.922 2.058.191 1.988-.566 1.653-1.247 1.09-1.757Zm.027.003-.383 2.043-1.094 1.766-1.656 1.254-1.996.566-2.07-.191-1.86-.926-1.398-1.535-.75-1.938v-2.074l.75-1.937 1.398-1.535 1.86-.926 2.07-.192 1.996.567 1.656 1.254 1.094 1.765Zm0 0-.383-2.039-1.094-1.765-1.656-1.254-1.996-.567-2.07.192-1.86.926-1.398 1.535-.75 1.937v2.074l.75 1.938 1.398 1.535 1.86.926 2.07.191 1.996-.566 1.656-1.254 1.094-1.766Zm.027.008-.383 2.047-1.097 1.774-1.664 1.257-2.004.57-2.078-.19-1.867-.93-1.407-1.543-.754-1.942v-2.086l.754-1.945 1.406-1.543 1.868-.93 2.078-.191 2.004.57L12.3 61.75l1.097 1.773Zm0 0-.383-2.05-1.097-1.774-1.664-1.258-2.004-.57-2.078.191-1.867.93-1.407 1.543-.754 1.945v2.086l.754 1.942 1.406 1.543 1.868.93 2.078.19 2.004-.57 1.664-1.257 1.097-1.774Zm.028.004-.383 2.059-1.102 1.781-1.672 1.262-2.015.57-2.086-.191-1.871-.934-1.414-1.547-.754-1.953v-2.094l.754-1.953 1.414-1.547 1.87-.933 2.087-.196 2.015.575 1.672 1.261 1.102 1.782Zm0 0-.383-2.058-1.102-1.782-1.672-1.261-2.015-.575-2.086.196-1.871.933-1.414 1.547-.754 1.953v2.094l.754 1.953 1.414 1.547 1.87.934 2.087.191 2.015-.57 1.672-1.262 1.102-1.781Zm.03.004-.386 2.066-1.11 1.79-1.675 1.265-2.023.574-2.094-.191-1.883-.938-1.414-1.554-.762-1.961V64.53l.762-1.96 1.414-1.555 1.883-.938 2.094-.195 2.023.578 1.676 1.266 1.11 1.789Zm0 0-.386-2.066-1.11-1.79-1.675-1.265-2.023-.578-2.094.195-1.883.938-1.414 1.554-.762 1.961v2.102l.762 1.96 1.414 1.555 1.883.938 2.094.191 2.023-.574 1.676-1.266 1.11-1.789Zm.028.004-.39 2.074-1.11 1.797-1.683 1.273-2.032.579-2.101-.196-1.89-.941-1.423-1.563-.765-1.968v-2.11l.765-1.969L4.66 61l1.89-.938 2.102-.195 2.032.578 1.683 1.27 1.11 1.797Zm0 0-.39-2.074-1.11-1.797-1.683-1.27-2.032-.578-2.101.196L4.66 61l-1.423 1.563-.765 1.968v2.11l.765 1.968 1.422 1.563 1.89.941 2.102.196 2.032-.579 1.683-1.273 1.11-1.797Zm.028.004-.391 2.086-1.113 1.8-1.696 1.278-2.035.582-2.113-.195-1.899-.946-1.425-1.566-.766-1.977v-2.12l.766-1.977 1.425-1.567 1.899-.945 2.113-.195 2.035.578 1.696 1.281 1.113 1.8Zm0 0-.391-2.082-1.113-1.801-1.696-1.281-2.035-.578-2.113.195-1.899.945-1.425 1.567-.766 1.976v2.121l.766 1.977 1.425 1.566 1.899.946 2.113.195 2.035-.582 1.696-1.277 1.113-1.801Zm.027.008-.39 2.09-1.122 1.808-1.7 1.285-2.046.582-2.117-.195-1.906-.95-1.434-1.573-.77-1.985v-2.129l.77-1.984 1.434-1.574 1.906-.95 2.117-.195 2.047.582 1.7 1.285 1.12 1.809Zm0 0-.39-2.094-1.122-1.809-1.7-1.285-2.046-.582-2.117.195-1.906.95-1.434 1.574-.77 1.984v2.13l.77 1.984 1.434 1.574 1.906.949 2.117.195 2.047-.582 1.7-1.285 1.12-1.808Zm.027.004-.39 2.101-1.125 1.817-1.707 1.285-2.055.586-2.129-.196-1.91-.953L3.19 68.66l-.773-1.992v-2.137l.773-1.992 1.442-1.578 1.91-.953 2.129-.2 2.055.587 1.707 1.289 1.125 1.816Zm0 0-.39-2.102-1.125-1.816-1.707-1.29-2.055-.585-2.129.199-1.91.953-1.442 1.578-.773 1.992v2.137l.773 1.992 1.442 1.582 1.91.953 2.129.196 2.055-.586 1.707-1.285 1.125-1.817Zm.028.003-.391 2.11-1.133 1.824-1.71 1.293-2.063.586-2.137-.195-1.922-.957-1.445-1.586-.774-2V64.53l.774-2 1.445-1.586 1.922-.957 2.137-.195 2.062.586 1.711 1.293 1.133 1.824Zm0 0-.391-2.109-1.133-1.824-1.71-1.293-2.063-.586-2.137.195-1.922.957-1.445 1.586-.774 2v2.149l.774 2 1.445 1.586 1.922.957 2.137.195 2.062-.586 1.711-1.293 1.133-1.824Zm.03.004-.398 2.118-1.132 1.832-1.72 1.296-2.07.59-2.148-.199-1.926-.957-1.453-1.594-.777-2.007V64.53l.777-2.008 1.453-1.59 1.926-.96 2.149-.2 2.07.59 1.719 1.297 1.132 1.832Zm0 0-.398-2.117-1.132-1.832-1.72-1.297-2.07-.59-2.148.2-1.926.96-1.453 1.59-.777 2.008v2.156l.777 2.008 1.453 1.594 1.926.957 2.149.2 2.07-.59 1.719-1.297 1.132-1.832Zm.028.004-.398 2.13-1.137 1.835-1.727 1.305-2.082.594-2.152-.204-1.937-.96-1.457-1.602-.782-2.016v-2.16l.782-2.02 1.457-1.597 1.937-.965 2.152-.2 2.082.595 1.727 1.3 1.137 1.84Zm0 0-.398-2.125-1.137-1.84-1.727-1.3-2.082-.594-2.152.2-1.937.964-1.457 1.598-.782 2.02v2.16l.782 2.015 1.457 1.602 1.937.96 2.152.204 2.082-.594 1.727-1.305 1.137-1.836Zm.027.008-.398 2.133-1.144 1.848-1.73 1.308-2.09.594-2.16-.203-1.946-.965-1.465-1.606-.781-2.027v-2.168l.78-2.027 1.466-1.606 1.945-.965 2.16-.203 2.09.598 1.73 1.309 1.145 1.843Zm0 0-.398-2.137-1.144-1.843-1.73-1.309-2.09-.598-2.16.203-1.946.965-1.465 1.606-.781 2.027v2.168l.78 2.027 1.466 1.606 1.945.965 2.16.203 2.09-.594 1.73-1.308 1.145-1.848Zm.028.004-.399 2.14-1.148 1.856-1.738 1.313-2.098.597-2.172-.203-1.95-.969-1.468-1.613-.789-2.031v-2.18l.79-2.035 1.468-1.61 1.95-.972 2.171-.2 2.098.594 1.738 1.317 1.148 1.851Zm0 0-.399-2.145-1.148-1.851-1.738-1.316-2.098-.594-2.172.199-1.95.973L3.118 62.5l-.789 2.035v2.18l.79 2.031 1.468 1.613 1.95.97 2.171.202 2.098-.597 1.738-1.313 1.148-1.855Zm.027.004-.402 2.152-1.152 1.86-1.747 1.32-2.101.598-2.18-.204-1.96-.972-1.473-1.621-.793-2.04v-2.187l.793-2.043 1.472-1.617 1.961-.973 2.18-.203 2.101.598 1.746 1.32 1.153 1.86Zm0 0-.402-2.152-1.152-1.86-1.747-1.32-2.101-.598-2.18.203-1.96.973-1.473 1.617-.793 2.043v2.188l.793 2.039 1.472 1.62 1.961.973 2.18.204 2.101-.598 1.746-1.32 1.153-1.86Zm.031.004-.406 2.16-1.156 1.867-1.754 1.324-2.113.602-2.188-.203-1.965-.977-1.48-1.625-.793-2.05v-2.196l.793-2.05 1.48-1.622 1.965-.98 2.188-.203 2.113.601 1.754 1.324 1.156 1.868ZM5.18 68.62v-5.976h5.976v5.976Zm0 0"/></g></g><path style="fill:none;stroke-width:.3985;stroke-linecap:butt;stroke-linejoin:miter;stroke:#000;stroke-opacity:1;stroke-miterlimit:10" d="M-67.879-14.173a2.988 2.988 0 1 1-5.976 0 2.988 2.988 0 0 1 5.976 0Zm0 0" transform="matrix(1 0 0 -1 79.035 51.46)"/><path style="fill:none;stroke-width:.79701;stroke-linecap:butt;stroke-linejoin:miter;stroke:#369;stroke-opacity:1;stroke-miterlimit:10" d="M4.98 0h23.684" transform="matrix(1 0 0 -1 79.035 51.46)"/><path style="stroke:none;fill-rule:nonzero;fill:#369;fill-opacity:1" d="M112.363 51.46c-1.383-.26-3.625-1.034-5.18-1.944v3.886c1.555-.906 3.797-1.683 5.18-1.941"/><use xlink:href="#k" x="114.356" y="49.144" style="fill:#369;fill-opacity:1"/><use xlink:href="#l" x="114.36" y="49.144" style="fill:#369;fill-opacity:1"/><use xlink:href="#q" x="116.239" y="55.371" style="fill:#369;fill-opacity:1"/></svg>