<svg xmlns="http://www.w3.org/2000/svg" xmlns:xlink="http://www.w3.org/1999/xlink" width="253.548" height="158.816" viewBox="0 0 190.161 119.112"><defs><symbol overflow="visible" id="c"><path style="stroke:none" d="M6.047-2.047c.172 0 .344 0 .344-.203 0-.188-.188-.188-.344-.188H1.109c-.156 0-.343 0-.343.188 0 .203.171.203.343.203Zm0 0"/></symbol><symbol overflow="visible" id="d"><path style="stroke:none" d="M7.625-2.047c-1.063.75-1.281 1.938-1.281 2.031 0 .125.125.125.187.125.11 0 .172 0 .203-.125.25-1.046.86-1.75 1.844-2.109.047-.016.125-.047.125-.125s-.062-.094-.125-.125c-1.125-.422-1.64-1.219-1.844-2.094-.03-.125-.062-.125-.203-.125-.078 0-.187 0-.187.125 0 .094.218 1.282 1.281 2.032H.844c-.156 0-.328 0-.328.187 0 .203.171.203.328.203Zm0 0"/></symbol><symbol overflow="visible" id="e"><path style="stroke:none" d="M4.375-3.531c0-.14-.125-.25-.281-.25-.157 0-.344.11-.39.36-.204-.345-.485-.548-.845-.548-1.093 0-2.203 1.281-2.203 2.531C.656-.594 1.187 0 1.906 0c.407 0 .766-.219 1.063-.5C2.859 0 2.703.594 2.64.766c-.047.093-.375.843-1.282.843-.171 0-.468 0-.687-.062C.844 1.469 1 1.28 1 1.078 1 .891.844.766.656.766c-.203 0-.5.156-.5.53 0 .438.5.548 1.219.548 1.156 0 1.828-.672 1.969-1.25Zm-1.234 2.36c-.032.171-.047.187-.188.359-.453.515-.844.593-1.015.593-.438 0-.594-.437-.594-.844 0-.343.203-1.343.484-1.875.219-.421.625-.796 1.031-.796.579 0 .735.671.735.75 0 .03-.031.093-.031.14Zm0 0"/></symbol><symbol overflow="visible" id="f"><path style="stroke:none" d="M2.578-5.922c.031-.125.031-.14.031-.172 0-.078-.046-.125-.14-.125-.125 0-.906.063-1.094.078-.078.016-.188.032-.188.172 0 .125.11.125.25.125.422 0 .422.063.422.14 0 .032 0 .048-.046.22L.53-.328C.5-.203.5-.188.5-.156c0 .14.11.25.266.25a.371.371 0 0 0 .343-.203c.016-.047.094-.375.141-.563l.219-.797c.015-.14.11-.484.14-.61l.11-.39c.047-.219.547-1.265 1.515-1.265.485 0 .485.468.485.625 0 .546-.422 1.64-.516 1.921-.11.266-.14.36-.14.532 0 .484.359.75.765.75.86 0 1.219-1.282 1.219-1.375 0-.047-.031-.11-.125-.11s-.11.047-.14.157c-.22.765-.61 1.109-.923 1.109-.062 0-.234 0-.234-.281 0-.235.094-.469.172-.656.172-.47.531-1.407.531-1.922 0-.797-.594-.985-1.062-.985-.547 0-1 .25-1.36.688Zm0 0"/></symbol><symbol overflow="visible" id="u"><path style="stroke:none" d="M.406 1.125c-.062.25-.078.344-.453.344-.11 0-.219 0-.219.156 0 .031.032.11.125.11l.375-.016H1.078c.156 0 .297.015.438.015.046 0 .171 0 .171-.156 0-.11-.093-.11-.25-.11-.421 0-.421-.062-.421-.155a2.9 2.9 0 0 1 .109-.438l.328-1.328c.094.187.344.547.86.547C3.359.094 4.5-1.172 4.5-2.516c0-.906-.563-1.453-1.234-1.453-.188 0-.641.047-1.188.656-.125-.5-.547-.656-.844-.656-.375 0-.578.281-.703.531-.14.313-.265.813-.265.86 0 .078.062.11.125.11.093 0 .109-.048.156-.235.172-.703.36-1.031.656-1.031.281 0 .281.28.281.421 0 .063-.015.204-.03.266Zm1.625-3.89c.047-.172.047-.188.172-.329.235-.312.64-.64 1.047-.64.422 0 .594.421.594.843 0 .391-.25 1.516-.531 1.985-.313.515-.688.781-1.016.781-.578 0-.735-.703-.735-.766 0-.062.032-.109.032-.156Zm0 0"/></symbol><symbol overflow="visible" id="v"><path style="stroke:none" d="M6.203-2.031c.11-.047.188-.094.188-.219s-.11-.172-.188-.203L1.141-4.891c-.125-.062-.157-.062-.188-.062a.19.19 0 0 0-.187.187c0 .11.062.157.187.22L5.75-2.25.953.047C.828.109.766.157.766.266c0 .062.062.187.203.187.015 0 .047 0 .156-.047Zm0 0"/></symbol><symbol overflow="visible" id="g"><path style="stroke:none" d="M.344-6.14v.28h.344c.296 0 .562.048.562.391v4.782c0 .39-.313.406-.656.406h-.25v.265h4.765l.25-2.312h-.25C5.016-1.5 4.938-.625 3.83-.344c-.25.063-.5.063-.767.063h-.671c-.204 0-.329-.094-.329-.313v-4.843c0-.329.188-.375.376-.391.25-.031.515-.031.765-.031v-.282Zm0 0"/></symbol><symbol overflow="visible" id="h"><path style="stroke:none" d="M.36-3.86v.266H.5c.297 0 .516.047.516.453v2.485c0 .36-.25.375-.688.375v.265h1.938V-.28h-.141c-.234 0-.469-.031-.469-.313v-3.375Zm.765-2.156c-.234.047-.422.235-.422.485s.219.468.485.468h.062a.474.474 0 0 0 .422-.468.477.477 0 0 0-.484-.485Zm0 0"/></symbol><symbol overflow="visible" id="i"><path style="stroke:none" d="M3.484-.531v1.625c0 .328-.187.36-.687.36v.28l.64-.03h1.407v-.25h-.188c-.281 0-.5-.032-.5-.376v-5.047l-.218.016-.11.203-.234.578c-.094-.11-.156-.234-.235-.328a1.316 1.316 0 0 0-1.03-.469c-1.079 0-2.017.906-2.017 2.016 0 1.047.813 2.047 1.954 2.047.453 0 .984-.235 1.218-.625ZM1.078-1.797v-.11c0-.734.39-1.765 1.297-1.812h.031c.578 0 1.016.563 1.11 1.094v1.406c0 .735-.922 1.078-1.204 1.078h-.046C1.609-.188 1.25-.859 1.14-1.42c-.032-.126-.032-.25-.063-.376Zm0 0"/></symbol><symbol overflow="visible" id="j"><path style="stroke:none" d="M.313-3.86v.266H.39c.25 0 .593.031.593.281.016.11.016.188.016.297v1.782c0 .28.016.53.14.78.266.438.813.548 1.282.548.5 0 .984-.297 1.14-.766l.016.766 1.328-.11V-.28H4.75c-.266 0-.531-.031-.531-.438v-3.25l-1.36.11v.265h.125c.282 0 .563.031.563.453v1.766C3.5-.797 3.14-.141 2.453-.141c-.36 0-.687-.078-.765-.546-.016-.172-.016-.329-.016-.5V-3.97Zm0 0"/></symbol><symbol overflow="visible" id="k"><path style="stroke:none" d="M2.828-6.14v.28h.094c.36 0 .594.016.594.548v1.875a1.532 1.532 0 0 0-1.172-.532c-1.11 0-2.031.938-2.031 2.047C.313-.906 1.14.094 2.266.094c.421 0 .984-.203 1.218-.578v.578l1.36-.11V-.28h-.14c-.298 0-.548-.031-.548-.453v-5.5Zm-1.75 4.406v-.125c0-.72.188-1.875 1.313-1.875.468 0 1.109.343 1.109.906 0 .11-.016.219-.016.328v1.484c0 .11-.046.188-.109.282-.234.343-.64.593-1.063.593a1.14 1.14 0 0 1-.89-.453c-.25-.328-.297-.734-.344-1.14Zm0 0"/></symbol><symbol overflow="visible" id="l"><path style="stroke:none" d="M1.031-2.063h2.657c.109 0 .156-.046.156-.156 0-1.125-.703-1.797-1.64-1.797-1.095 0-1.954.954-1.954 2.047C.25-.875 1.125.094 2.344.094c.64 0 1.281-.453 1.469-1.078.015-.016.015-.063.015-.094a.107.107 0 0 0-.11-.11c-.171 0-.171.266-.265.391-.219.375-.656.64-1.094.64h-.062C1.828-.171 1.422-.5 1.219-.921c-.172-.36-.188-.75-.188-1.14Zm.016-.218c0-.594.25-1.281.906-1.485a.914.914 0 0 1 .203-.03c.781 0 1.063.796 1.063 1.515Zm0 0"/></symbol><symbol overflow="visible" id="m"><path style="stroke:none" d="M5.484-.578c.11.234.438.562.563.562.078 0 .094-.078.094-.14v-1.516c0-.047-.016-.11-.016-.172 0-.328.266-.343.594-.343h.047v-.282l-.641.031H4.172v.25c.156 0 .312-.015.469-.015.375 0 .703.062.703.453 0 .078-.016.156-.016.219 0 .093.016.187.016.297 0 .515-.36 1.14-1.485 1.14-.843 0-1.64-.469-2.046-1.218-.297-.547-.391-1.188-.391-1.797 0-.625.11-1.282.437-1.829.407-.656 1.157-1.109 1.938-1.109 1.094 0 1.828.953 2.031 2.016.016.11.016.265.156.265.125 0 .157-.062.157-.14v-2.219c0-.094 0-.203-.11-.203-.156 0-.406.531-.61.781-.359-.531-1.124-.781-1.75-.781-1.718 0-3.155 1.516-3.155 3.25C.516-1.422 1.796.187 3.75.187c.688 0 1.281-.187 1.734-.765Zm0 0"/></symbol><symbol overflow="visible" id="n"><path style="stroke:none" d="M1.094-3.484c.25-.22.61-.313.937-.313.313 0 .594.172.781.438.172.25.172.53.172.828v.156c-.734.078-1.468.078-2.093.547-.297.219-.516.578-.516.937 0 .735.875.985 1.469.985.547 0 .968-.281 1.218-.75.079.375.297.703.704.703.546 0 .78-.453.78-.953v-.406h-.25v.453c0 .25-.046.593-.327.593-.297 0-.313-.39-.313-.593v-1.75c0-.938-.812-1.407-1.61-1.407-.562 0-1.39.235-1.39.938 0 .25.14.437.469.437.219-.015.36-.218.36-.421 0-.25-.188-.376-.391-.422Zm1.89 1.328v.875c0 .625-.437 1.14-1.062 1.14h-.063c-.421-.03-.75-.359-.75-.75 0-.859 1.032-1.265 1.875-1.265Zm0 0"/></symbol><symbol overflow="visible" id="o"><path style="stroke:none" d="M.484-3.86.391-2.39h.25c.015-.313.03-.688.234-.938.219-.281.625-.313 1-.313h1c-.281.329-.531.688-.781 1.016A110.04 110.04 0 0 0 .359-.344C.313-.28.266-.219.266-.14c0 .11.078.125.156.125h3.125l.156-1.703h-.25c-.031.375-.062.813-.281 1.094-.25.344-.703.36-1.094.36h-1a163.476 163.476 0 0 0 2.484-3.266c.047-.063.11-.125.11-.203 0-.094-.063-.125-.14-.125Zm0 0"/></symbol><symbol overflow="visible" id="p"><path style="stroke:none" d="M.813-.313c.296.297.656.407 1.046.407.735 0 1.454-.375 1.454-1.25v-.094c-.032-.516-.422-.89-.876-1.063a3.528 3.528 0 0 0-.703-.156c-.375-.078-.968-.187-.968-.703 0-.515.656-.656 1.03-.656.579 0 .985.344 1.032.969 0 .078.016.171.125.171.063 0 .125-.03.125-.109v-1.078c0-.063-.015-.14-.094-.14-.14 0-.234.218-.343.218h-.016c-.063-.015-.125-.062-.188-.094-.187-.093-.421-.125-.64-.125-.625 0-1.484.204-1.484 1.125 0 .907 1.046 1.047 1.687 1.172.39.078.828.313.86.75 0 .64-.532.828-1.016.828h-.078C1.109-.17.75-.656.594-1.28c-.031-.094-.031-.25-.156-.25-.11 0-.126.078-.126.156v1.156c0 .047-.015.078-.015.125 0 .094.016.188.11.188.093 0 .156-.11.218-.172l.031-.047c.063-.063.11-.11.156-.188Zm0 0"/></symbol><symbol overflow="visible" id="q"><path style="stroke:none" d="M2.172-4.016c-1.047.11-1.906.954-1.906 2.094C.266-1 .953.094 2.312.094c1.047 0 2.032-.844 2.032-2 0-1.078-.844-2.125-2.047-2.125-.047 0-.078.015-.125.015ZM1.047-1.719v-.375c0-.719.219-1.703 1.266-1.703.703 0 1.156.563 1.234 1.281.015.188.015.375.015.563 0 .469-.03 1-.359 1.375a1.19 1.19 0 0 1-.906.422c-.656 0-1.11-.5-1.235-1.219 0-.11 0-.219-.015-.344Zm0 0"/></symbol><symbol overflow="visible" id="r"><path style="stroke:none" d="M.266-3.86v.266h.171c.266 0 .516.031.516.39v4.282c0 .375-.265.375-.687.375v.281l.64-.03h1.406v-.25h-.218c-.25 0-.469-.032-.469-.36V-.438c.297.329.656.532 1.125.532 1.078 0 2.063-.875 2.063-2.031 0-1.016-.797-2.032-1.938-2.032-.5 0-.953.219-1.281.563v-.563Zm3.75 2.063C3.984-1.094 3.562-.14 2.672-.14c-.469 0-1.047-.453-1.047-.843v-1.47c0-.124-.016-.233-.016-.343 0-.5.657-.922 1.172-.922.844 0 1.25 1.063 1.25 1.75 0 .047 0 .11-.015.172Zm0 0"/></symbol><symbol overflow="visible" id="s"><path style="stroke:none" d="M.266-3.86v.266h.14c.281 0 .547.031.547.453v2.485c0 .36-.234.375-.687.375v.265L.89-.03h1.562v-.25h-.297c-.312 0-.562-.047-.562-.375v-1.516c.062-.625.234-1.562 1.14-1.562-.125.062-.171.203-.171.328a.39.39 0 1 0 .78 0c0-.375-.359-.563-.687-.563-.547 0-.984.469-1.11.969v-.969Zm0 0"/></symbol><symbol overflow="visible" id="t"><path style="stroke:none" d="M.313-3.86v.266h.14c.266 0 .547.031.547.453v2.485c0 .36-.234.375-.688.375v.265L.954-.03H2.36v-.25h-.203c-.265 0-.484-.047-.484-.375v-1.61c0-.687.406-1.468 1.25-1.468.484 0 .625.437.625 1v2.109c0 .313-.25.344-.547.344h-.14v.265L3.5-.03h1.406v-.25h-.172c-.265 0-.515-.031-.515-.36v-2.015c0-.281-.016-.531-.14-.781-.235-.422-.704-.532-1.141-.532-.547 0-1.11.375-1.313.89l-.016-.89Zm0 0"/></symbol><symbol overflow="visible" id="z"><path style="stroke:none" d="M.313-.281v.265L.859-.03h1.36v-.25c-.25 0-.64-.125-.64-.453 0-.125.046-.235.093-.344.156-.422.281-.984.437-.984H4.25c.156 0 .266.5.36.75.077.234.265.593.265.75 0 .28-.5.28-.734.28v.266h2.453V-.28h-.25c-.203 0-.422-.031-.516-.125-.125-.125-.156-.297-.219-.438-.64-1.734-1.234-3.484-1.875-5.218l-.078-.188c-.031-.094-.062-.188-.219-.188-.187 0-.218.22-.265.36C2.625-4.547 2.078-3 1.516-1.484l-.157.453c-.187.562-.562.75-1.046.75Zm1.812-2.063L3.188-5.28 4.25-2.344Zm0 0"/></symbol><symbol overflow="visible" id="A"><path style="stroke:none" d="M1.36-5.531c0 .656-.298 1.718-1.188 1.718v.22h.781v2.374c0 .282.016.547.156.782.22.39.672.53 1.079.53h.078c.687-.124.796-.859.796-1.39v-.328h-.25c0 .125.016.25.016.39 0 .391-.094 1.079-.625 1.079-.484 0-.594-.563-.594-1.016v-2.422h1.313v-.265H1.609v-1.672Zm0 0"/></symbol><symbol overflow="visible" id="B"><path style="stroke:none" d="M.313-3.86v.266h.14c.266 0 .547.031.547.453v2.485c0 .36-.234.375-.688.375v.265L.954-.03H2.36v-.25h-.203c-.265 0-.484-.047-.484-.375v-1.797c.047-.64.484-1.281 1.25-1.281.578 0 .64.578.64 1v2.109c0 .313-.265.344-.562.344h-.125v.265L3.5-.03h1.422v-.25h-.219c-.25 0-.484-.047-.484-.375v-1.797c.062-.64.484-1.281 1.265-1.281.563 0 .625.578.625 1v2.109c0 .313-.25.344-.546.344h-.141v.265h2.047V-.28h-.172c-.25 0-.516-.031-.516-.36v-2.015c0-.281-.015-.547-.14-.781-.235-.422-.704-.532-1.141-.532-.547 0-1.11.36-1.297.86h-.016c-.078-.625-.656-.86-1.203-.86-.578 0-1.14.328-1.359.89l-.016-.89Zm0 0"/></symbol><symbol overflow="visible" id="C"><path style="stroke:none" d="M.313-6.14v.28h.156c.281 0 .531.032.531.47v4.515c0 .063.016.125.016.203 0 .375-.266.39-.641.39H.312v.266L.954-.03H2.36v-.25h-.203c-.265 0-.484-.047-.484-.375v-1.61c0-.687.406-1.468 1.25-1.468.484 0 .625.437.625 1v2.109c0 .313-.25.344-.547.344h-.14v.265L3.5-.03h1.406v-.25h-.172c-.265 0-.515-.031-.515-.36v-2.015c0-.281-.016-.547-.14-.781-.22-.407-.673-.532-1.095-.532-.515 0-1.125.297-1.328.844l-.015-3.11Zm0 0"/></symbol><symbol overflow="visible" id="D"><path style="stroke:none" d="M1.031-2.063h2.657c.109 0 .156-.046.156-.156 0-1.125-.703-1.797-1.64-1.797-1.095 0-1.954.954-1.954 2.047C.25-.875 1.125.094 2.344.094c.64 0 1.281-.453 1.469-1.078.015-.016.015-.063.015-.094a.107.107 0 0 0-.11-.11c-.171 0-.171.266-.265.391-.219.375-.656.64-1.094.64h-.062C1.828-.171 1.422-.5 1.219-.921c-.172-.36-.188-.75-.188-1.14Zm.016-.218c0-.594.25-1.281.906-1.485a.914.914 0 0 1 .203-.03c.781 0 1.063.796 1.063 1.515Zm.672-3.5c-.172.015-.297.187-.297.343 0 .235.281.329.453.438.25.125.5.266.75.406l.266.14c.03.016.046.048.093.048H3c.016-.016.125-.125.125-.172 0-.094-.266-.297-.375-.39-.297-.282-.719-.829-.969-.829-.015 0-.047.016-.062.016Zm0 0"/></symbol><symbol overflow="visible" id="E"><path style="stroke:none" d="M1.094-3.484c.25-.22.61-.313.937-.313.313 0 .594.172.781.438.172.25.172.53.172.828v.156c-.734.078-1.468.078-2.093.547-.297.219-.516.578-.516.937 0 .735.875.985 1.469.985.547 0 .968-.281 1.218-.75.079.375.297.703.704.703.546 0 .78-.453.78-.953v-.406h-.25v.453c0 .25-.046.593-.327.593-.297 0-.313-.39-.313-.593v-1.75c0-.938-.812-1.407-1.61-1.407-.562 0-1.39.235-1.39.938 0 .25.14.437.469.437.219-.015.36-.218.36-.421 0-.25-.188-.376-.391-.422Zm1.89 1.328v.875c0 .625-.437 1.14-1.062 1.14h-.063c-.421-.03-.75-.359-.75-.75 0-.859 1.032-1.265 1.875-1.265ZM1.72-5.781c-.172.015-.297.187-.297.343 0 .235.281.329.453.438.25.125.5.266.75.406l.266.14c.03.016.046.048.093.048H3c.016-.016.125-.125.125-.172 0-.094-.266-.297-.375-.39-.297-.282-.719-.829-.969-.829-.015 0-.047.016-.062.016Zm0 0"/></symbol><symbol overflow="visible" id="F"><path style="stroke:none" d="M.328-6.14v.28h.11c.312 0 .578.016.578.47v4.718c0 .375-.25.39-.641.39H.328v.266h2.016V-.28h-.235c-.234 0-.453-.047-.453-.36v-5.593Zm0 0"/></symbol><symbol overflow="visible" id="w"><path style="stroke:none" d="M1.047-2.406c.172-.031.344-.063.516-.063.343 0 .78.14.78.703v.141c-.75 0-1.952.188-1.952.984 0 .532.625.688 1.062.688.36 0 .797-.125.953-.469h.016c0 .25.219.453.453.453.281 0 .61-.156.656-.469v-.437h-.219v.344c0 .14-.078.297-.234.297-.219 0-.234-.235-.234-.36v-.937c0-.078.015-.14.015-.219 0-.672-.718-.922-1.265-.922-.39 0-.985.047-.985.516 0 .14.094.297.282.297a.287.287 0 0 0 .296-.297c0-.094-.046-.203-.14-.25Zm1.297.969v.468c0 .172 0 .313-.094.469-.14.234-.438.36-.703.36-.266 0-.64-.157-.64-.5 0-.61.921-.797 1.437-.797Zm0 0"/></symbol><symbol overflow="visible" id="x"><path style="stroke:none" d="M1.078-3.688c0 .485-.266 1.157-.86 1.157v.187h.579v1.5c0 .203.015.39.125.563.156.25.469.328.75.328.437 0 .734-.344.734-.86v-.28h-.234c0 .093.015.171.015.25 0 .265-.093.687-.453.687-.359 0-.437-.36-.437-.64v-1.548h.984v-.234h-.984v-1.11Zm0 0"/></symbol><symbol overflow="visible" id="y"><path style="stroke:none" d="M.375-2.578v.25h.094c.219 0 .375.015.375.375v1.469c0 .234-.156.234-.469.234V0l.344-.031h1.094V-.25h-.141c-.172 0-.328-.016-.328-.203v-1.078c0-.547.453-.907.953-.907.437 0 .484.344.484.626V-.47c0 .203-.156.219-.344.219h-.124V0l.343-.031h1.11V-.25h-.157c-.171 0-.328-.016-.328-.203v-1.078c0-.547.453-.907.953-.907h.016c.406 0 .469.329.469.626V-.47c0 .203-.157.219-.344.219H4.25V0l.344-.031h1.11V-.25h-.157c-.172 0-.328-.016-.328-.219V-1.75c0-.188 0-.375-.11-.547-.171-.281-.515-.344-.828-.344-.437 0-.734.172-1.031.547-.047-.437-.594-.547-.89-.547-.407 0-.907.204-1.047.563l-.016-.563Zm0 0"/></symbol><linearGradient id="b" gradientUnits="userSpaceOnUse" x1="0" y1="25.003" x2="0" y2="74.997" gradientTransform="matrix(.7938 0 0 -1.38914 84.843 148.366)"><stop offset="0" style="stop-color:gray;stop-opacity:1"/><stop offset=".008" style="stop-color:gray;stop-opacity:1"/><stop offset=".016" style="stop-color:#818181;stop-opacity:1"/><stop offset=".023" style="stop-color:#818181;stop-opacity:1"/><stop offset=".031" style="stop-color:#828282;stop-opacity:1"/><stop offset=".039" style="stop-color:#838383;stop-opacity:1"/><stop offset=".047" style="stop-color:#848484;stop-opacity:1"/><stop offset=".055" style="stop-color:#848484;stop-opacity:1"/><stop offset=".063" style="stop-color:#858585;stop-opacity:1"/><stop offset=".07" style="stop-color:#868686;stop-opacity:1"/><stop offset=".078" style="stop-color:#878787;stop-opacity:1"/><stop offset=".086" style="stop-color:#878787;stop-opacity:1"/><stop offset=".094" style="stop-color:#888;stop-opacity:1"/><stop offset=".102" style="stop-color:#898989;stop-opacity:1"/><stop offset=".109" style="stop-color:#8a8a8a;stop-opacity:1"/><stop offset=".117" style="stop-color:#8a8a8a;stop-opacity:1"/><stop offset=".125" style="stop-color:#8b8b8b;stop-opacity:1"/><stop offset=".133" style="stop-color:#8c8c8c;stop-opacity:1"/><stop offset=".141" style="stop-color:#8d8d8d;stop-opacity:1"/><stop offset=".148" style="stop-color:#8d8d8d;stop-opacity:1"/><stop offset=".156" style="stop-color:#8e8e8e;stop-opacity:1"/><stop offset=".164" style="stop-color:#8f8f8f;stop-opacity:1"/><stop offset=".172" style="stop-color:#909090;stop-opacity:1"/><stop offset=".18" style="stop-color:#909090;stop-opacity:1"/><stop offset=".188" style="stop-color:#919191;stop-opacity:1"/><stop offset=".195" style="stop-color:#929292;stop-opacity:1"/><stop offset=".203" style="stop-color:#939393;stop-opacity:1"/><stop offset=".211" style="stop-color:#939393;stop-opacity:1"/><stop offset=".219" style="stop-color:#949494;stop-opacity:1"/><stop offset=".227" style="stop-color:#959595;stop-opacity:1"/><stop offset=".234" style="stop-color:#969696;stop-opacity:1"/><stop offset=".242" style="stop-color:#969696;stop-opacity:1"/><stop offset=".25" style="stop-color:#979797;stop-opacity:1"/><stop offset=".258" style="stop-color:#989898;stop-opacity:1"/><stop offset=".266" style="stop-color:#999;stop-opacity:1"/><stop offset=".273" style="stop-color:#999;stop-opacity:1"/><stop offset=".281" style="stop-color:#9a9a9a;stop-opacity:1"/><stop offset=".289" style="stop-color:#9b9b9b;stop-opacity:1"/><stop offset=".297" style="stop-color:#9c9c9c;stop-opacity:1"/><stop offset=".305" style="stop-color:#9c9c9c;stop-opacity:1"/><stop offset=".313" style="stop-color:#9d9d9d;stop-opacity:1"/><stop offset=".32" style="stop-color:#9e9e9e;stop-opacity:1"/><stop offset=".328" style="stop-color:#9f9f9f;stop-opacity:1"/><stop offset=".336" style="stop-color:#9f9f9f;stop-opacity:1"/><stop offset=".344" style="stop-color:#a0a0a0;stop-opacity:1"/><stop offset=".352" style="stop-color:#a1a1a1;stop-opacity:1"/><stop offset=".359" style="stop-color:#a1a1a1;stop-opacity:1"/><stop offset=".367" style="stop-color:#a2a2a2;stop-opacity:1"/><stop offset=".375" style="stop-color:#a3a3a3;stop-opacity:1"/><stop offset=".383" style="stop-color:#a4a4a4;stop-opacity:1"/><stop offset=".391" style="stop-color:#a4a4a4;stop-opacity:1"/><stop offset=".398" style="stop-color:#a5a5a5;stop-opacity:1"/><stop offset=".406" style="stop-color:#a6a6a6;stop-opacity:1"/><stop offset=".414" style="stop-color:#a7a7a7;stop-opacity:1"/><stop offset=".422" style="stop-color:#a7a7a7;stop-opacity:1"/><stop offset=".43" style="stop-color:#a8a8a8;stop-opacity:1"/><stop offset=".438" style="stop-color:#a9a9a9;stop-opacity:1"/><stop offset=".445" style="stop-color:#aaa;stop-opacity:1"/><stop offset=".453" style="stop-color:#aaa;stop-opacity:1"/><stop offset=".461" style="stop-color:#ababab;stop-opacity:1"/><stop offset=".469" style="stop-color:#acacac;stop-opacity:1"/><stop offset=".477" style="stop-color:#adadad;stop-opacity:1"/><stop offset=".484" style="stop-color:#adadad;stop-opacity:1"/><stop offset=".492" style="stop-color:#aeaeae;stop-opacity:1"/><stop offset=".5" style="stop-color:#afafaf;stop-opacity:1"/><stop offset=".508" style="stop-color:#b0b0b0;stop-opacity:1"/><stop offset=".516" style="stop-color:#b0b0b0;stop-opacity:1"/><stop offset=".523" style="stop-color:#b1b1b1;stop-opacity:1"/><stop offset=".531" style="stop-color:#b2b2b2;stop-opacity:1"/><stop offset=".539" style="stop-color:#b3b3b3;stop-opacity:1"/><stop offset=".547" style="stop-color:#b3b3b3;stop-opacity:1"/><stop offset=".555" style="stop-color:#b4b4b4;stop-opacity:1"/><stop offset=".563" style="stop-color:#b5b5b5;stop-opacity:1"/><stop offset=".57" style="stop-color:#b6b6b6;stop-opacity:1"/><stop offset=".578" style="stop-color:#b6b6b6;stop-opacity:1"/><stop offset=".586" style="stop-color:#b7b7b7;stop-opacity:1"/><stop offset=".594" style="stop-color:#b8b8b8;stop-opacity:1"/><stop offset=".602" style="stop-color:#b9b9b9;stop-opacity:1"/><stop offset=".609" style="stop-color:#b9b9b9;stop-opacity:1"/><stop offset=".617" style="stop-color:#bababa;stop-opacity:1"/><stop offset=".625" style="stop-color:#bbb;stop-opacity:1"/><stop offset=".633" style="stop-color:#bcbcbc;stop-opacity:1"/><stop offset=".641" style="stop-color:#bcbcbc;stop-opacity:1"/><stop offset=".648" style="stop-color:#bdbdbd;stop-opacity:1"/><stop offset=".656" style="stop-color:#bebebe;stop-opacity:1"/><stop offset=".664" style="stop-color:#bfbfbf;stop-opacity:1"/><stop offset=".672" style="stop-color:#bfbfbf;stop-opacity:1"/><stop offset=".68" style="stop-color:silver;stop-opacity:1"/><stop offset=".688" style="stop-color:#c1c1c1;stop-opacity:1"/><stop offset=".695" style="stop-color:#c2c2c2;stop-opacity:1"/><stop offset=".703" style="stop-color:#c2c2c2;stop-opacity:1"/><stop offset=".711" style="stop-color:#c3c3c3;stop-opacity:1"/><stop offset=".719" style="stop-color:#c4c4c4;stop-opacity:1"/><stop offset=".727" style="stop-color:#c5c5c5;stop-opacity:1"/><stop offset=".734" style="stop-color:#c5c5c5;stop-opacity:1"/><stop offset=".742" style="stop-color:#c6c6c6;stop-opacity:1"/><stop offset=".75" style="stop-color:#c7c7c7;stop-opacity:1"/><stop offset=".758" style="stop-color:#c8c8c8;stop-opacity:1"/><stop offset=".766" style="stop-color:#c8c8c8;stop-opacity:1"/><stop offset=".773" style="stop-color:#c9c9c9;stop-opacity:1"/><stop offset=".781" style="stop-color:#cacaca;stop-opacity:1"/><stop offset=".789" style="stop-color:#cbcbcb;stop-opacity:1"/><stop offset=".797" style="stop-color:#cbcbcb;stop-opacity:1"/><stop offset=".805" style="stop-color:#ccc;stop-opacity:1"/><stop offset=".813" style="stop-color:#cdcdcd;stop-opacity:1"/><stop offset=".82" style="stop-color:#cecece;stop-opacity:1"/><stop offset=".828" style="stop-color:#cecece;stop-opacity:1"/><stop offset=".836" style="stop-color:#cfcfcf;stop-opacity:1"/><stop offset=".844" style="stop-color:#d0d0d0;stop-opacity:1"/><stop offset=".852" style="stop-color:#d1d1d1;stop-opacity:1"/><stop offset=".859" style="stop-color:#d1d1d1;stop-opacity:1"/><stop offset=".867" style="stop-color:#d2d2d2;stop-opacity:1"/><stop offset=".875" style="stop-color:#d3d3d3;stop-opacity:1"/><stop offset=".883" style="stop-color:#d4d4d4;stop-opacity:1"/><stop offset=".891" style="stop-color:#d4d4d4;stop-opacity:1"/><stop offset=".898" style="stop-color:#d5d5d5;stop-opacity:1"/><stop offset=".906" style="stop-color:#d6d6d6;stop-opacity:1"/><stop offset=".914" style="stop-color:#d7d7d7;stop-opacity:1"/><stop offset=".922" style="stop-color:#d7d7d7;stop-opacity:1"/><stop offset=".93" style="stop-color:#d8d8d8;stop-opacity:1"/><stop offset=".938" style="stop-color:#d9d9d9;stop-opacity:1"/><stop offset=".945" style="stop-color:#dadada;stop-opacity:1"/><stop offset=".953" style="stop-color:#dadada;stop-opacity:1"/><stop offset=".961" style="stop-color:#dbdbdb;stop-opacity:1"/><stop offset=".969" style="stop-color:#dcdcdc;stop-opacity:1"/><stop offset=".977" style="stop-color:#ddd;stop-opacity:1"/><stop offset=".984" style="stop-color:#ddd;stop-opacity:1"/><stop offset=".992" style="stop-color:#dedede;stop-opacity:1"/><stop offset="1" style="stop-color:#dfdfdf;stop-opacity:1"/></linearGradient><clipPath id="a"><path d="M138.422 44.184h5.953v63.496h-5.953Zm-33.73 49.605h5.953v13.89h-5.954Zm0 13.89h39.683v5.954h-39.684Zm0 0"/></clipPath></defs><g clip-path="url(#a)"><path style="stroke:none;fill-rule:nonzero;fill:url(#b)" d="M104.691 113.633v-69.45h39.684v69.45Zm0 0"/></g><path style="stroke:none;fill-rule:nonzero;fill:#effafb;fill-opacity:1" d="M104.691 93.79V73.95H65.004v9.921H5.477V24.34h59.527v43.656h45.64V93.79Zm0 0"/><path style="fill:none;stroke-width:.99628;stroke-linecap:butt;stroke-linejoin:miter;stroke:#000;stroke-opacity:1;stroke-miterlimit:10" d="M-.001-.002v-99.21h-39.684v39.683h-39.687v-9.922H-138.9V-9.92h59.527v-43.656h45.64V-93.26h27.778V-.002" transform="matrix(1 0 0 -1 144.376 14.42)"/><path style="fill:none;stroke-width:.79701;stroke-linecap:butt;stroke-linejoin:miter;stroke:#000;stroke-opacity:1;stroke-miterlimit:10" d="M19.843-79.37v-17.253" transform="matrix(1 0 0 -1 144.376 14.42)"/><path style="stroke:none;fill-rule:nonzero;fill:#000;fill-opacity:1" d="m164.219 113.633 2.07-4.145-2.07 1.555-2.074-1.555"/><use xlink:href="#c" x="166.211" y="102.578" style="fill:#000;fill-opacity:1"/><use xlink:href="#d" x="166.215" y="102.578" style="fill:#000;fill-opacity:1"/><use xlink:href="#e" x="168.461" y="106.439" style="fill:#000;fill-opacity:1"/><path style="fill:none;stroke-width:.3985;stroke-linecap:butt;stroke-linejoin:miter;stroke:#000;stroke-opacity:1;stroke-miterlimit:10" d="M-19.84-32.154v-44.824" transform="matrix(1 0 0 -1 144.376 14.42)"/><path style="stroke:none;fill-rule:nonzero;fill:#000;fill-opacity:1" d="m124.535 44.582-1.597 3.188 1.597-1.196 1.594 1.196"/><path style="fill:none;stroke-width:.3985;stroke-linecap:butt;stroke-linejoin:miter;stroke:#000;stroke-opacity:1;stroke-miterlimit:10" d="M0 2.291V-2.29" transform="matrix(0 -1 -1 0 124.533 44.383)"/><path style="stroke:none;fill-rule:nonzero;fill:#000;fill-opacity:1" d="m124.535 93.39 1.594-3.187-1.594 1.195-1.597-1.195"/><path style="fill:none;stroke-width:.3985;stroke-linecap:butt;stroke-linejoin:miter;stroke:#000;stroke-opacity:1;stroke-miterlimit:10" d="M-.002 2.29V-2.29" transform="matrix(0 1 1 0 124.533 93.591)"/><use xlink:href="#f" x="117.232" y="72.1" style="fill:#000;fill-opacity:1"/><g style="fill:#000;fill-opacity:1"><use xlink:href="#g" x="155.106" y="61.731"/><use xlink:href="#h" x="160.863" y="61.731"/><use xlink:href="#i" x="163.422" y="61.731"/><use xlink:href="#j" x="168.285" y="61.731"/><use xlink:href="#h" x="173.403" y="61.731"/><use xlink:href="#k" x="175.962" y="61.731"/><use xlink:href="#l" x="181.08" y="61.731"/></g><path style="fill:none;stroke-width:.19925;stroke-linecap:butt;stroke-linejoin:miter;stroke:gray;stroke-opacity:1;stroke-miterlimit:10" d="M-3.462-58.396 12.69-51.05" transform="matrix(1 0 0 -1 144.376 14.42)"/><g style="fill:#000;fill-opacity:1"><use xlink:href="#m" x="17.246" y="45.362"/><use xlink:href="#n" x="24.476" y="45.362"/><use xlink:href="#o" x="29.083" y="45.362"/></g><g style="fill:#000;fill-opacity:1"><use xlink:href="#p" x="36.244" y="45.362"/><use xlink:href="#q" x="39.878" y="45.362"/><use xlink:href="#j" x="44.485" y="45.362"/><use xlink:href="#p" x="49.603" y="45.362"/></g><g style="fill:#000;fill-opacity:1"><use xlink:href="#r" x="19.057" y="56.321"/><use xlink:href="#s" x="24.175" y="56.321"/><use xlink:href="#l" x="27.779" y="56.321"/><use xlink:href="#p" x="31.877" y="56.321"/><use xlink:href="#p" x="35.511" y="56.321"/><use xlink:href="#h" x="39.145" y="56.321"/><use xlink:href="#q" x="41.704" y="56.321"/><use xlink:href="#t" x="46.311" y="56.321"/></g><use xlink:href="#u" x="16.621" y="67.28" style="fill:#000;fill-opacity:1"/><use xlink:href="#v" x="25.156" y="67.28" style="fill:#000;fill-opacity:1"/><use xlink:href="#u" x="36.233" y="67.28" style="fill:#000;fill-opacity:1"/><g style="fill:#000;fill-opacity:1"><use xlink:href="#w" x="40.862" y="68.276"/><use xlink:href="#x" x="44.514" y="68.276"/><use xlink:href="#y" x="47.392" y="68.276"/></g><use xlink:href="#z" x="76.758" y="11.157" style="fill:#000;fill-opacity:1"/><g style="fill:#000;fill-opacity:1"><use xlink:href="#A" x="83.407" y="11.157"/><use xlink:href="#B" x="86.99" y="11.157"/><use xlink:href="#q" x="94.667" y="11.157"/><use xlink:href="#p" x="99.274" y="11.157"/><use xlink:href="#r" x="102.909" y="11.157"/><use xlink:href="#C" x="108.027" y="11.157"/><use xlink:href="#D" x="113.145" y="11.157"/><use xlink:href="#s" x="117.243" y="11.157"/><use xlink:href="#l" x="120.847" y="11.157"/></g><use xlink:href="#E" x="128.021" y="11.157" style="fill:#000;fill-opacity:1"/><g style="fill:#000;fill-opacity:1"><use xlink:href="#F" x="73.037" y="22.116"/><use xlink:href="#n" x="75.596" y="22.116"/></g><g style="fill:#000;fill-opacity:1"><use xlink:href="#r" x="83.269" y="22.116"/><use xlink:href="#s" x="88.387" y="22.116"/><use xlink:href="#l" x="91.991" y="22.116"/><use xlink:href="#p" x="96.09" y="22.116"/><use xlink:href="#p" x="99.724" y="22.116"/><use xlink:href="#h" x="103.358" y="22.116"/><use xlink:href="#q" x="105.917" y="22.116"/><use xlink:href="#t" x="110.524" y="22.116"/></g><use xlink:href="#u" x="118.717" y="22.116" style="fill:#000;fill-opacity:1"/><g style="fill:#000;fill-opacity:1"><use xlink:href="#w" x="123.343" y="23.112"/><use xlink:href="#x" x="126.995" y="23.112"/><use xlink:href="#y" x="129.873" y="23.112"/></g></svg>