<svg xmlns="http://www.w3.org/2000/svg" xmlns:xlink="http://www.w3.org/1999/xlink" width="182.567" height="100.555" viewBox="0 0 136.925 75.416"><defs><symbol overflow="visible" id="b"><path style="stroke:none" d="M1.063-.438c.156.11.296.235.468.344.39.203.828.281 1.25.281.938 0 1.813-.78 1.813-1.859 0-.687-.39-1.39-1.032-1.687-.203-.094-.421-.141-.624-.188l-.563-.14c-.234-.047-.484-.094-.688-.22a1.144 1.144 0 0 1-.593-1.015c0-.703.625-1.156 1.281-1.156.89 0 1.484.656 1.672 1.578.031.14 0 .406.172.406.11 0 .125-.078.125-.172v-1.937c0-.063-.032-.125-.125-.125-.11 0-.203.25-.282.36-.046.077-.109.171-.156.265-.422-.375-.828-.625-1.453-.625-.89 0-1.812.64-1.812 1.75 0 .86.656 1.516 1.468 1.687.422.125.938.172 1.329.36.421.203.718.656.718 1.125 0 .703-.515 1.312-1.265 1.312-.985 0-1.86-.484-2-1.75 0-.093 0-.203-.125-.203s-.125.094-.125.172V.047c0 .078.03.14.109.14.125 0 .219-.25.297-.359.047-.094.094-.172.14-.266Zm0 0"/></symbol><symbol overflow="visible" id="c"><path style="stroke:none" d="M.188-3.86v.266h.124c.329 0 .5.094.625.406l.188.454c.25.593.5 1.171.766 1.78l.28.688c.032.079.11.172.11.25 0 .125-.125.313-.172.422L2 .656c-.172.406-.453.938-.953.953a.686.686 0 0 1-.422-.14c.203-.047.313-.188.313-.375C.938.875.796.704.53.704c-.25 0-.36.218-.36.405 0 .438.438.72.845.72.921 0 1.296-1.235 1.562-1.891.39-.922.781-1.829 1.188-2.75.156-.376.343-.782.89-.782v-.265H3.203v.265c.203.016.39.14.406.36 0 .25-.203.593-.312.859-.219.516-.453 1.031-.656 1.547-.36-.766-.657-1.547-1-2.313-.016-.062-.063-.14-.063-.203 0-.234.297-.25.484-.25v-.265Zm0 0"/></symbol><symbol overflow="visible" id="d"><path style="stroke:none" d="M.813-.313c.296.297.656.407 1.046.407.735 0 1.454-.375 1.454-1.25v-.094c-.032-.516-.422-.89-.876-1.063a3.528 3.528 0 0 0-.703-.156c-.375-.078-.968-.187-.968-.703 0-.515.656-.656 1.03-.656.579 0 .985.344 1.032.969 0 .078.016.171.125.171.063 0 .125-.03.125-.109v-1.078c0-.063-.015-.14-.094-.14-.14 0-.234.218-.343.218h-.016c-.063-.015-.125-.062-.188-.094-.187-.093-.421-.125-.64-.125-.625 0-1.484.204-1.484 1.125 0 .907 1.046 1.047 1.687 1.172.39.078.828.313.86.75 0 .64-.532.828-1.016.828h-.078C1.109-.17.75-.656.594-1.28c-.031-.094-.031-.25-.156-.25-.11 0-.126.078-.126.156v1.156c0 .047-.015.078-.015.125 0 .094.016.188.11.188.093 0 .156-.11.218-.172l.031-.047c.063-.063.11-.11.156-.188Zm0 0"/></symbol><symbol overflow="visible" id="e"><path style="stroke:none" d="M1.36-5.531c0 .656-.298 1.718-1.188 1.718v.22h.781v2.374c0 .282.016.547.156.782.22.39.672.53 1.079.53h.078c.687-.124.796-.859.796-1.39v-.328h-.25c0 .125.016.25.016.39 0 .391-.094 1.079-.625 1.079-.484 0-.594-.563-.594-1.016v-2.422h1.313v-.265H1.609v-1.672Zm0 0"/></symbol><symbol overflow="visible" id="f"><path style="stroke:none" d="M1.031-2.063h2.657c.109 0 .156-.046.156-.156 0-1.125-.703-1.797-1.64-1.797-1.095 0-1.954.954-1.954 2.047C.25-.875 1.125.094 2.344.094c.64 0 1.281-.453 1.469-1.078.015-.016.015-.063.015-.094a.107.107 0 0 0-.11-.11c-.171 0-.171.266-.265.391-.219.375-.656.64-1.094.64h-.062C1.828-.171 1.422-.5 1.219-.921c-.172-.36-.188-.75-.188-1.14Zm.016-.218c0-.594.25-1.281.906-1.485a.914.914 0 0 1 .203-.03c.781 0 1.063.796 1.063 1.515Zm.672-3.5c-.172.015-.297.187-.297.343 0 .235.281.329.453.438.25.125.5.266.75.406l.266.14c.03.016.046.048.093.048H3c.016-.016.125-.125.125-.172 0-.094-.266-.297-.375-.39-.297-.282-.719-.829-.969-.829-.015 0-.047.016-.062.016Zm0 0"/></symbol><symbol overflow="visible" id="g"><path style="stroke:none" d="M.313-3.86v.266h.14c.266 0 .547.031.547.453v2.485c0 .36-.234.375-.688.375v.265L.954-.03H2.36v-.25h-.203c-.265 0-.484-.047-.484-.375v-1.797c.047-.64.484-1.281 1.25-1.281.578 0 .64.578.64 1v2.109c0 .313-.265.344-.562.344h-.125v.265L3.5-.03h1.422v-.25h-.219c-.25 0-.484-.047-.484-.375v-1.797c.062-.64.484-1.281 1.265-1.281.563 0 .625.578.625 1v2.109c0 .313-.25.344-.546.344h-.141v.265h2.047V-.28h-.172c-.25 0-.516-.031-.516-.36v-2.015c0-.281-.015-.547-.14-.781-.235-.422-.704-.532-1.141-.532-.547 0-1.11.36-1.297.86h-.016c-.078-.625-.656-.86-1.203-.86-.578 0-1.14.328-1.359.89l-.016-.89Zm0 0"/></symbol><symbol overflow="visible" id="h"><path style="stroke:none" d="M1.031-2.063h2.657c.109 0 .156-.046.156-.156 0-1.125-.703-1.797-1.64-1.797-1.095 0-1.954.954-1.954 2.047C.25-.875 1.125.094 2.344.094c.64 0 1.281-.453 1.469-1.078.015-.016.015-.063.015-.094a.107.107 0 0 0-.11-.11c-.171 0-.171.266-.265.391-.219.375-.656.64-1.094.64h-.062C1.828-.171 1.422-.5 1.219-.921c-.172-.36-.188-.75-.188-1.14Zm.016-.218c0-.594.25-1.281.906-1.485a.914.914 0 0 1 .203-.03c.781 0 1.063.796 1.063 1.515Zm0 0"/></symbol><symbol overflow="visible" id="i"><path style="stroke:none" d="M.344-6.11v.282h.344c.296 0 .562.031.562.39v4.75c0 .36-.297.407-.594.407H.344v.265h5.265L6-2.328h-.25c-.094.562-.188 1.203-.563 1.61-.406.421-1.046.437-1.593.437h-1.14c-.188 0-.392 0-.392-.328v-2.438h.86c.312 0 .672.031.828.297.125.188.14.438.14.672v.094h.25v-2.391h-.25v.094c0 .5-.124.906-.687.937-.156.031-.344.031-.515.031h-.626v-2.203c0-.312.188-.312.391-.312h1.172c.625 0 1.328.031 1.656.719.14.328.172.671.219 1.015h.25L5.5-6.109Zm0 0"/></symbol><symbol overflow="visible" id="j"><path style="stroke:none" d="M.172-3.86v.266h.172c.453 0 .594.188.797.453.171.235.359.454.546.688l.329.406c.03.047.093.11.093.156 0 .094-.265.36-.406.532C1.281-.83.875-.281.125-.281v.265L.578-.03h1.156v-.25C1.563-.328 1.5-.421 1.5-.562c0-.204.156-.36.297-.5.156-.204.344-.407.5-.61h.015c.22.328.516.64.75.969.047.047.126.125.126.203 0 .125-.188.203-.313.219v.265h1.86V-.28h-.173c-.453 0-.609-.188-.812-.469-.328-.39-.625-.797-.953-1.203-.031-.031-.11-.094-.11-.156 0-.094.25-.344.376-.485.437-.531.812-1 1.515-1v-.265l-.469.015H2.953v.25c.156 0 .235.156.235.281 0 .188-.126.297-.22.422-.155.188-.327.375-.452.563H2.5c-.219-.328-.578-.625-.75-.953-.016-.031-.031-.063-.031-.094 0-.125.187-.203.312-.219v-.265Zm0 0"/></symbol><symbol overflow="visible" id="k"><path style="stroke:none" d="M1.031-2.063h2.657c.109 0 .156-.046.156-.156 0-1.125-.703-1.797-1.64-1.797-1.095 0-1.954.954-1.954 2.047C.25-.875 1.125.094 2.344.094c.64 0 1.281-.453 1.469-1.078.015-.016.015-.063.015-.094a.107.107 0 0 0-.11-.11c-.171 0-.171.266-.265.391-.219.375-.656.64-1.094.64h-.062C1.828-.171 1.422-.5 1.219-.921c-.172-.36-.188-.75-.188-1.14Zm.016-.218c0-.594.25-1.281.906-1.485a.914.914 0 0 1 .203-.03c.781 0 1.063.796 1.063 1.515Zm1.484-3.5c-.156.015-.312.203-.422.312-.28.282-.578.547-.859.828-.016.016-.016.032-.016.047 0 .063.079.188.141.188.047 0 .094-.047.125-.063l.25-.14c.39-.22 1.172-.516 1.172-.829 0-.171-.156-.359-.344-.359-.015 0-.031.016-.047.016Zm0 0"/></symbol><symbol overflow="visible" id="l"><path style="stroke:none" d="M.266-3.86v.266h.14c.281 0 .547.031.547.453v2.485c0 .36-.234.375-.687.375v.265L.89-.03h1.562v-.25h-.297c-.312 0-.562-.047-.562-.375v-1.516c.062-.625.234-1.562 1.14-1.562-.125.062-.171.203-.171.328a.39.39 0 1 0 .78 0c0-.375-.359-.563-.687-.563-.547 0-.984.469-1.11.969v-.969Zm0 0"/></symbol><symbol overflow="visible" id="m"><path style="stroke:none" d="M.36-3.86v.266H.5c.297 0 .516.047.516.453v2.485c0 .36-.25.375-.688.375v.265h1.938V-.28h-.141c-.234 0-.469-.031-.469-.313v-3.375Zm.765-2.156c-.234.047-.422.235-.422.485s.219.468.485.468h.062a.474.474 0 0 0 .422-.468.477.477 0 0 0-.484-.485Zm0 0"/></symbol><symbol overflow="visible" id="n"><path style="stroke:none" d="M.313-3.86v.266H.39c.25 0 .593.031.593.281.016.11.016.188.016.297v1.782c0 .28.016.53.14.78.266.438.813.548 1.282.548.5 0 .984-.297 1.14-.766l.016.766 1.328-.11V-.28H4.75c-.266 0-.531-.031-.531-.438v-3.25l-1.36.11v.265h.125c.282 0 .563.031.563.453v1.766C3.5-.797 3.14-.141 2.453-.141c-.36 0-.687-.078-.765-.546-.016-.172-.016-.329-.016-.5V-3.97Zm0 0"/></symbol><symbol overflow="visible" id="o"><path style="stroke:none" d="M.344-6.11v.282h.344c.296 0 .562.031.562.39v4.75c0 .36-.297.407-.594.407H.344v.265h5.265L6-2.328h-.25c-.094.562-.188 1.203-.563 1.61-.406.421-1.046.437-1.593.437h-1.14c-.188 0-.392 0-.392-.328v-2.438h.86c.312 0 .672.031.828.297.125.188.14.438.14.672v.094h.25v-2.391h-.25v.094c0 .5-.124.906-.687.937-.156.031-.344.031-.515.031h-.626v-2.203c0-.312.188-.312.391-.312h1.172c.625 0 1.328.031 1.656.719.14.328.172.671.219 1.015h.25L5.5-6.109Zm2.406-.765.11.234c.421-.14.843-.25 1.265-.39.188-.047.5-.094.5-.375 0-.188-.156-.36-.344-.36-.11 0-.203.079-.297.125l-.28.172c-.313.188-.626.39-.954.594Zm0 0"/></symbol><symbol overflow="visible" id="p"><path style="stroke:none" d="M3.25-3.531c-.188.062-.36.172-.36.422 0 .218.157.406.422.406.235 0 .422-.172.422-.438 0-.64-.765-.859-1.312-.875h-.094A2.04 2.04 0 0 0 .313-1.953c0 1.094.859 2.047 2 2.047.624 0 1.203-.328 1.453-.969.015-.063.062-.14.062-.203s-.062-.11-.125-.11c-.156 0-.156.235-.234.36-.219.406-.61.672-1.094.672-.984 0-1.297-1.125-1.297-1.813 0-.734.266-1.797 1.266-1.797.25 0 .515.032.734.141.063.016.11.063.172.094Zm0 0"/></symbol><symbol overflow="visible" id="q"><path style="stroke:none" d="M.313-6.14v.28h.156c.281 0 .531.032.531.47v4.515c0 .063.016.125.016.203 0 .375-.266.39-.641.39H.312v.266L.954-.03H2.36v-.25h-.203c-.265 0-.484-.047-.484-.375v-1.61c0-.687.406-1.468 1.25-1.468.484 0 .625.437.625 1v2.109c0 .313-.25.344-.547.344h-.14v.265L3.5-.03h1.406v-.25h-.172c-.265 0-.515-.031-.515-.36v-2.015c0-.281-.016-.547-.14-.781-.22-.407-.673-.532-1.095-.532-.515 0-1.125.297-1.328.844l-.015-3.11Zm0 0"/></symbol><symbol overflow="visible" id="r"><path style="stroke:none" d="M1.094-3.484c.25-.22.61-.313.937-.313.313 0 .594.172.781.438.172.25.172.53.172.828v.156c-.734.078-1.468.078-2.093.547-.297.219-.516.578-.516.937 0 .735.875.985 1.469.985.547 0 .968-.281 1.218-.75.079.375.297.703.704.703.546 0 .78-.453.78-.953v-.406h-.25v.453c0 .25-.046.593-.327.593-.297 0-.313-.39-.313-.593v-1.75c0-.938-.812-1.407-1.61-1.407-.562 0-1.39.235-1.39.938 0 .25.14.437.469.437.219-.015.36-.218.36-.421 0-.25-.188-.376-.391-.422Zm1.89 1.328v.875c0 .625-.437 1.14-1.062 1.14h-.063c-.421-.03-.75-.359-.75-.75 0-.859 1.032-1.265 1.875-1.265Zm0 0"/></symbol><symbol overflow="visible" id="s"><path style="stroke:none" d="M.313-3.86v.266h.14c.266 0 .547.031.547.453v2.485c0 .36-.234.375-.688.375v.265L.954-.03H2.36v-.25h-.203c-.265 0-.484-.047-.484-.375v-1.61c0-.687.406-1.468 1.25-1.468.484 0 .625.437.625 1v2.109c0 .313-.25.344-.547.344h-.14v.265L3.5-.03h1.406v-.25h-.172c-.265 0-.515-.031-.515-.36v-2.015c0-.281-.016-.531-.14-.781-.235-.422-.704-.532-1.141-.532-.547 0-1.11.375-1.313.89l-.016-.89Zm0 0"/></symbol><symbol overflow="visible" id="t"><path style="stroke:none" d="M.969-1.734A1.162 1.162 0 0 0 .688-1c0 .297.125.625.39.797-.422.172-.812.422-.812.89 0 .907 1.406 1.157 2.046 1.157.766 0 2.032-.282 2.032-1.188 0-1.062-1.11-1.281-2.016-1.281H1.5a.575.575 0 0 1-.5-.578c0-.125.063-.375.14-.375h.016c.125.031.25.125.375.156.157.063.344.078.516.078.719 0 1.5-.5 1.5-1.281 0-.313-.125-.672-.375-.875v-.016c.297-.203.547-.328.875-.328-.063.063-.125.125-.125.235 0 .14.125.265.281.265.188 0 .266-.14.266-.265 0-.297-.25-.454-.485-.454h-.078a1.483 1.483 0 0 0-.781.313c-.016.031-.063.078-.11.078-.062 0-.265-.14-.39-.187a1.316 1.316 0 0 0-.547-.11c-.734 0-1.531.5-1.531 1.328 0 .329.156.688.422.907ZM.766.734V.672c0-.469.468-.735.89-.735.078 0 .188.016.266.016h.469c.53 0 1.359.031 1.453.688v.062c0 .781-1.313.89-1.563.89C1.72 1.594.86 1.36.766.735ZM1.25-2.5v-.094c0-.484.11-1.125.797-1.125.547 0 .812.469.812 1.11 0 .515-.234 1.015-.812 1.015a.785.785 0 0 1-.61-.265c-.14-.188-.156-.407-.187-.641Zm0 0"/></symbol><clipPath id="a"><path d="M0 11h100v64.414H0Zm0 0"/></clipPath></defs><path style="stroke:none;fill-rule:nonzero;fill:#bfbfbf;fill-opacity:1" d="M94.219 43.504c0-14.766-19.93-26.734-44.52-26.734-24.586 0-44.52 11.968-44.52 26.734 0 14.762 19.934 26.73 44.52 26.73 24.59 0 44.52-11.968 44.52-26.73Zm0 0"/><g clip-path="url(#a)"><path style="fill:none;stroke-width:.3985;stroke-linecap:butt;stroke-linejoin:miter;stroke:#000;stroke-opacity:1;stroke-dasharray:2.98883,2.98883;stroke-miterlimit:10" d="M44.519-.002c0 14.766-19.93 26.734-44.52 26.734-24.586 0-44.52-11.968-44.52-26.734 0-14.762 19.934-26.73 44.52-26.73 24.59 0 44.52 11.968 44.52 26.73Zm0 0" transform="matrix(1 0 0 -1 49.7 43.502)"/></g><g style="fill:#fff;fill-opacity:1"><use xlink:href="#b" x="33.164" y="45.718"/><use xlink:href="#c" x="38.282" y="45.718"/><use xlink:href="#d" x="43.145" y="45.718"/><use xlink:href="#e" x="46.779" y="45.718"/><use xlink:href="#f" x="50.362" y="45.718"/><use xlink:href="#g" x="54.46" y="45.718"/><use xlink:href="#h" x="62.138" y="45.718"/></g><g style="fill:#000;fill-opacity:1"><use xlink:href="#i" x="30.802" y="11.157"/><use xlink:href="#j" x="37.071" y="11.157"/><use xlink:href="#e" x="41.934" y="11.157"/><use xlink:href="#k" x="45.517" y="11.157"/><use xlink:href="#l" x="49.615" y="11.157"/><use xlink:href="#m" x="53.219" y="11.157"/><use xlink:href="#h" x="55.778" y="11.157"/><use xlink:href="#n" x="59.876" y="11.157"/><use xlink:href="#l" x="64.994" y="11.157"/></g><path style="fill:none;stroke-width:1.19553;stroke-linecap:butt;stroke-linejoin:miter;stroke:#00adef;stroke-opacity:1;stroke-miterlimit:10" d="M24.55 14.174c7.809 2.844 12.043 5.285 15.969 8.582" transform="matrix(1 0 0 -1 49.7 43.502)"/><path style="stroke:none;fill-rule:nonzero;fill:#00adef;fill-opacity:1" d="m92.66 18.7-5.547 1.323 3.106.723.176 3.184"/><g style="fill:#00adef;fill-opacity:1"><use xlink:href="#o" x="94.653" y="21.677"/><use xlink:href="#p" x="100.922" y="21.677"/></g><g style="fill:#00adef;fill-opacity:1"><use xlink:href="#q" x="104.757" y="21.677"/><use xlink:href="#r" x="109.875" y="21.677"/><use xlink:href="#s" x="114.482" y="21.677"/><use xlink:href="#t" x="119.6" y="21.677"/><use xlink:href="#h" x="124.207" y="21.677"/><use xlink:href="#d" x="128.306" y="21.677"/></g><path style="fill:none;stroke-width:1.19553;stroke-linecap:butt;stroke-linejoin:miter;stroke:#00adef;stroke-opacity:1;stroke-miterlimit:10" d="M37.152 26.014c-7.032-3.278-10.77-5.895-14-9.125" transform="matrix(1 0 0 -1 49.7 43.502)"/><path style="stroke:none;fill-rule:nonzero;fill:#00adef;fill-opacity:1" d="m70.598 28.871 5.41-1.805-3.156-.453-.45-3.152"/></svg>