<svg xmlns="http://www.w3.org/2000/svg" xmlns:xlink="http://www.w3.org/1999/xlink" width="204.12" height="113.98" viewBox="0 0 153.09 85.485"><defs><symbol overflow="visible" id="a"><path style="stroke:none" d="M3.938-5.469c.046-.187.078-.281.218-.312.078-.016.36-.016.547-.016 1.031 0 1.344.063 1.344.766 0 .11 0 .25-.078.781l-.016.078c0 .063.031.125.125.125.11 0 .125-.094.14-.219l.235-1.562c.016-.031.016-.094.016-.125 0-.125-.078-.125-.25-.125h-5.11c-.218 0-.218.016-.28.187L.265-4.312c-.032.109-.032.14-.032.14 0 .047.032.125.11.125.11 0 .125-.062.172-.219.5-1.406.78-1.53 2.078-1.53h.344c.25 0 .25.03.25.109 0 .046-.016.109-.032.187L1.953-.703c-.078.312-.11.422-1.062.422-.282 0-.36 0-.36.172C.531 0 .641 0 .687 0c.235 0 .485-.016.735-.016s.5-.015.75-.015c.406 0 .422 0 .75.015.125 0 .703.016.781.016.078 0 .188 0 .188-.156 0-.125-.079-.125-.297-.125-.235 0-.344 0-.578-.016-.204-.031-.313-.031-.313-.187 0-.047.016-.11.031-.172Zm0 0"/></symbol><symbol overflow="visible" id="c"><path style="stroke:none" d="M6.203-2.031c.11-.047.188-.094.188-.219s-.11-.172-.188-.203L1.141-4.891c-.125-.062-.157-.062-.188-.062a.19.19 0 0 0-.187.187c0 .11.062.157.187.22L5.75-2.25.953.047C.828.109.766.157.766.266c0 .062.062.187.203.187.015 0 .047 0 .156-.047Zm0 0"/></symbol><symbol overflow="visible" id="e"><path style="stroke:none" d="M3.688.375c-.016.094-.016.219-.016.328 0 .422.078 1.031.781 1.031C5.531 1.734 5.984.141 5.984 0c0-.047-.046-.11-.125-.11-.062 0-.078.063-.109.126-.203.609-.734.843-1.063.843-.406 0-.546-.265-.64-.906 1.969-.844 2.75-2.61 2.75-3.844 0-1.406-.953-2.437-2.36-2.437-2 0-3.984 2.062-3.984 4.11C.453-.75 1.47.202 2.813.202c.374 0 .734-.094.89-.125ZM2.28-.156c-.422-.172-1.015-.64-1.015-1.797 0-.469.156-1.906 1.125-3.063.468-.546 1.218-1.062 1.984-1.062.89 0 1.61.656 1.61 1.922 0 .89-.438 2.922-1.985 3.781-.078-.484-.25-.969-.828-.969-.5 0-.938.469-.938.922a.73.73 0 0 0 .047.266ZM3.72-.234a2.098 2.098 0 0 1-.844.187c-.11 0-.422 0-.422-.375 0-.328.344-.687.735-.687.53 0 .53.484.53.875Zm0 0"/></symbol><symbol overflow="visible" id="b"><path style="stroke:none" d="M2.14-3.797c0-.187-.015-.187-.203-.187-.39.39-1 .39-1.218.39v.235c.156 0 .562 0 .922-.172v3.015c0 .204 0 .282-.625.282h-.25V0c.328-.031.796-.031 1.125-.031.328 0 .796 0 1.125.031v-.234h-.25c-.625 0-.625-.078-.625-.282Zm0 0"/></symbol><symbol overflow="visible" id="d"><path style="stroke:none" d="M3.219-1.125H3c-.016.094-.078.484-.156.547-.047.047-.531.047-.625.047h-1.11l.766-.625c.203-.172.734-.547.922-.735.172-.171.422-.484.422-.906 0-.75-.672-1.187-1.485-1.187-.765 0-1.296.515-1.296 1.078 0 .297.25.344.312.344a.32.32 0 0 0 .328-.329c0-.125-.078-.328-.344-.328.141-.297.5-.531.922-.531.625 0 .953.469.953.953 0 .422-.28.86-.687 1.25L.5-.25C.437-.187.437-.187.437 0h2.594Zm0 0"/></symbol><symbol overflow="visible" id="f"><path style="stroke:none" d="M.266-3.86v.266h.171c.266 0 .516.031.516.39v4.282c0 .375-.265.375-.687.375v.281l.64-.03h1.406v-.25h-.218c-.25 0-.469-.032-.469-.36V-.438c.297.329.656.532 1.125.532 1.078 0 2.063-.875 2.063-2.031 0-1.016-.797-2.032-1.938-2.032-.5 0-.953.219-1.281.563v-.563Zm3.75 2.063C3.984-1.094 3.562-.14 2.672-.14c-.469 0-1.047-.453-1.047-.843v-1.47c0-.124-.016-.233-.016-.343 0-.5.657-.922 1.172-.922.844 0 1.25 1.063 1.25 1.75 0 .047 0 .11-.015.172Zm0 0"/></symbol><symbol overflow="visible" id="g"><path style="stroke:none" d="M1.094-3.484c.25-.22.61-.313.937-.313.313 0 .594.172.781.438.172.25.172.53.172.828v.156c-.734.078-1.468.078-2.093.547-.297.219-.516.578-.516.937 0 .735.875.985 1.469.985.547 0 .968-.281 1.218-.75.079.375.297.703.704.703.546 0 .78-.453.78-.953v-.406h-.25v.453c0 .25-.046.593-.327.593-.297 0-.313-.39-.313-.593v-1.75c0-.938-.812-1.407-1.61-1.407-.562 0-1.39.235-1.39.938 0 .25.14.437.469.437.219-.015.36-.218.36-.421 0-.25-.188-.376-.391-.422Zm1.89 1.328v.875c0 .625-.437 1.14-1.062 1.14h-.063c-.421-.03-.75-.359-.75-.75 0-.859 1.032-1.265 1.875-1.265Zm0 0"/></symbol><symbol overflow="visible" id="h"><path style="stroke:none" d="M.266-3.86v.266h.14c.281 0 .547.031.547.453v2.485c0 .36-.234.375-.687.375v.265L.89-.03h1.562v-.25h-.297c-.312 0-.562-.047-.562-.375v-1.516c.062-.625.234-1.562 1.14-1.562-.125.062-.171.203-.171.328a.39.39 0 1 0 .78 0c0-.375-.359-.563-.687-.563-.547 0-.984.469-1.11.969v-.969Zm0 0"/></symbol><symbol overflow="visible" id="i"><path style="stroke:none" d="M2.172-4.016c-1.047.11-1.906.954-1.906 2.094C.266-1 .953.094 2.312.094c1.047 0 2.032-.844 2.032-2 0-1.078-.844-2.125-2.047-2.125-.047 0-.078.015-.125.015ZM1.047-1.719v-.375c0-.719.219-1.703 1.266-1.703.703 0 1.156.563 1.234 1.281.015.188.015.375.015.563 0 .469-.03 1-.359 1.375a1.19 1.19 0 0 1-.906.422c-.656 0-1.11-.5-1.235-1.219 0-.11 0-.219-.015-.344Zm0 0"/></symbol><symbol overflow="visible" id="j"><path style="stroke:none" d="M.36-3.86v.266H.5c.297 0 .516.047.516.453v2.485c0 .36-.25.375-.688.375v.265h1.938V-.28h-.141c-.234 0-.469-.031-.469-.313v-3.375Zm.765-2.156c-.234.047-.422.235-.422.485s.219.468.485.468h.062a.474.474 0 0 0 .422-.468.477.477 0 0 0-.484-.485Zm0 0"/></symbol><symbol overflow="visible" id="k"><path style="stroke:none" d="M.953-3.86H.25v.266h.703v2.969c0 .313-.25.344-.547.344h-.14v.265L.922-.03h.734l.625.015V-.28h-.203c-.25 0-.484-.031-.484-.344v-2.969h1.468c.25 0 .454.078.454.422v2.5c0 .297-.094.39-.688.39v.266l.625-.015h.735l.656.015V-.28h-.219c-.234 0-.469-.047-.469-.375V-3.97l-1.39.11H1.562v-.922c0-.188.016-.375.094-.563.203-.468.75-.765 1.266-.765.281 0 .562.078.765.265a.426.426 0 0 0-.39.422.42.42 0 0 0 .422.422.42.42 0 0 0 .422-.422v-.016c0-.625-.688-.89-1.22-.89-.89 0-1.968.453-1.968 1.469Zm0 0"/></symbol><symbol overflow="visible" id="l"><path style="stroke:none" d="M.172-3.86v.266h.172c.453 0 .594.188.797.453.171.235.359.454.546.688l.329.406c.03.047.093.11.093.156 0 .094-.265.36-.406.532C1.281-.83.875-.281.125-.281v.265L.578-.03h1.156v-.25C1.563-.328 1.5-.421 1.5-.562c0-.204.156-.36.297-.5.156-.204.344-.407.5-.61h.015c.22.328.516.64.75.969.047.047.126.125.126.203 0 .125-.188.203-.313.219v.265h1.86V-.28h-.173c-.453 0-.609-.188-.812-.469-.328-.39-.625-.797-.953-1.203-.031-.031-.11-.094-.11-.156 0-.094.25-.344.376-.485.437-.531.812-1 1.515-1v-.265l-.469.015H2.953v.25c.156 0 .235.156.235.281 0 .188-.126.297-.22.422-.155.188-.327.375-.452.563H2.5c-.219-.328-.578-.625-.75-.953-.016-.031-.031-.063-.031-.094 0-.125.187-.203.312-.219v-.265Zm0 0"/></symbol><symbol overflow="visible" id="m"><path style="stroke:none" d="M1.031-2.063h2.657c.109 0 .156-.046.156-.156 0-1.125-.703-1.797-1.64-1.797-1.095 0-1.954.954-1.954 2.047C.25-.875 1.125.094 2.344.094c.64 0 1.281-.453 1.469-1.078.015-.016.015-.063.015-.094a.107.107 0 0 0-.11-.11c-.171 0-.171.266-.265.391-.219.375-.656.64-1.094.64h-.062C1.828-.171 1.422-.5 1.219-.921c-.172-.36-.188-.75-.188-1.14Zm.016-.218c0-.594.25-1.281.906-1.485a.914.914 0 0 1 .203-.03c.781 0 1.063.796 1.063 1.515Zm0 0"/></symbol><symbol overflow="visible" id="n"><path style="stroke:none" d="M2.828-6.14v.28h.094c.36 0 .594.016.594.548v1.875a1.532 1.532 0 0 0-1.172-.532c-1.11 0-2.031.938-2.031 2.047C.313-.906 1.14.094 2.266.094c.421 0 .984-.203 1.218-.578v.578l1.36-.11V-.28h-.14c-.298 0-.548-.031-.548-.453v-5.5Zm-1.75 4.406v-.125c0-.72.188-1.875 1.313-1.875.468 0 1.109.343 1.109.906 0 .11-.016.219-.016.328v1.484c0 .11-.046.188-.109.282-.234.343-.64.593-1.063.593a1.14 1.14 0 0 1-.89-.453c-.25-.328-.297-.734-.344-1.14Zm0 0"/></symbol><symbol overflow="visible" id="o"><path style="stroke:none" d="M1.36-5.531c0 .656-.298 1.718-1.188 1.718v.22h.781v2.374c0 .282.016.547.156.782.22.39.672.53 1.079.53h.078c.687-.124.796-.859.796-1.39v-.328h-.25c0 .125.016.25.016.39 0 .391-.094 1.079-.625 1.079-.484 0-.594-.563-.594-1.016v-2.422h1.313v-.265H1.609v-1.672Zm0 0"/></symbol><symbol overflow="visible" id="p"><path style="stroke:none" d="M.313-6.14v.28h.156c.281 0 .531.032.531.47v4.515c0 .063.016.125.016.203 0 .375-.266.39-.641.39H.312v.266L.954-.03H2.36v-.25h-.203c-.265 0-.484-.047-.484-.375v-1.61c0-.687.406-1.468 1.25-1.468.484 0 .625.437.625 1v2.109c0 .313-.25.344-.547.344h-.14v.265L3.5-.03h1.406v-.25h-.172c-.265 0-.515-.031-.515-.36v-2.015c0-.281-.016-.547-.14-.781-.22-.407-.673-.532-1.095-.532-.515 0-1.125.297-1.328.844l-.015-3.11Zm0 0"/></symbol><symbol overflow="visible" id="q"><path style="stroke:none" d="M.313-3.86v.266h.14c.266 0 .547.031.547.453v2.485c0 .36-.234.375-.688.375v.265L.954-.03H2.36v-.25h-.203c-.265 0-.484-.047-.484-.375v-1.797c.047-.64.484-1.281 1.25-1.281.578 0 .64.578.64 1v2.109c0 .313-.265.344-.562.344h-.125v.265L3.5-.03h1.422v-.25h-.219c-.25 0-.484-.047-.484-.375v-1.797c.062-.64.484-1.281 1.265-1.281.563 0 .625.578.625 1v2.109c0 .313-.25.344-.546.344h-.141v.265h2.047V-.28h-.172c-.25 0-.516-.031-.516-.36v-2.015c0-.281-.015-.547-.14-.781-.235-.422-.704-.532-1.141-.532-.547 0-1.11.36-1.297.86h-.016c-.078-.625-.656-.86-1.203-.86-.578 0-1.14.328-1.359.89l-.016-.89Zm0 0"/></symbol></defs><path style="stroke:none;fill-rule:nonzero;fill:#effafb;fill-opacity:1" d="M5.68 79.805V23.113h85.039v56.692ZM90.719 79.805V23.113h56.695v56.692Zm0 0"/><path style="fill:none;stroke-width:.79701;stroke-linecap:butt;stroke-linejoin:miter;stroke:#000;stroke-opacity:1;stroke-miterlimit:10" d="M85.04.001v56.692" transform="matrix(1 0 0 -1 5.679 79.806)"/><path style="fill:none;stroke-width:1.39478;stroke-linecap:butt;stroke-linejoin:miter;stroke:#000;stroke-opacity:1;stroke-miterlimit:10" d="M0 .001v56.692h141.735V0Zm0 0" transform="matrix(1 0 0 -1 5.679 79.806)"/><path style="fill:none;stroke-width:.59776;stroke-linecap:butt;stroke-linejoin:miter;stroke:#fff;stroke-opacity:1;stroke-miterlimit:10" d="M0 .001v56.692h141.735V0Zm0 0" transform="matrix(1 0 0 -1 5.679 79.806)"/><use xlink:href="#a" x="12.653" y="71.836" style="fill:#000;fill-opacity:1"/><use xlink:href="#b" x="18.029" y="72.832" style="fill:#000;fill-opacity:1"/><use xlink:href="#c" x="24.739" y="71.836" style="fill:#000;fill-opacity:1"/><use xlink:href="#a" x="34.471" y="71.836" style="fill:#000;fill-opacity:1"/><use xlink:href="#d" x="39.843" y="72.832" style="fill:#000;fill-opacity:1"/><use xlink:href="#a" x="130.91" y="71.836" style="fill:#000;fill-opacity:1"/><use xlink:href="#d" x="136.286" y="72.832" style="fill:#000;fill-opacity:1"/><path style="fill:none;stroke-width:1.19553;stroke-linecap:butt;stroke-linejoin:miter;stroke:#00adef;stroke-opacity:1;stroke-miterlimit:10" d="M78.067 28.345h10.758" transform="matrix(1 0 0 -1 5.679 79.806)"/><path style="stroke:none;fill-rule:nonzero;fill:#00adef;fill-opacity:1" d="m97.695 51.46-5.101-2.55 1.91 2.55-1.91 2.548"/><use xlink:href="#e" x="99.684" y="53.652" style="fill:#000;fill-opacity:1"/><path style="fill:none;stroke-width:.3985;stroke-linecap:butt;stroke-linejoin:miter;stroke:#000;stroke-opacity:1;stroke-miterlimit:10" d="M88.571 43.142c7.355 1.297 7.355 25.805-3.531 27.726" transform="matrix(1 0 0 -1 5.679 79.806)"/><path style="stroke:none;fill-rule:nonzero;fill:#000;fill-opacity:1" d="M90.719 37.285c1.082.012 2.886.3 4.183.781l-.52-2.945c-1.054.895-2.652 1.785-3.663 2.164"/><g style="fill:#000;fill-opacity:1"><use xlink:href="#f" x="7.546" y="11.156"/><use xlink:href="#g" x="12.664" y="11.156"/><use xlink:href="#h" x="17.271" y="11.156"/><use xlink:href="#i" x="20.875" y="11.156"/><use xlink:href="#j" x="25.481" y="11.156"/></g><g style="fill:#000;fill-opacity:1"><use xlink:href="#k" x="31.116" y="11.156"/><use xlink:href="#l" x="36.234" y="11.156"/><use xlink:href="#m" x="41.096" y="11.156"/></g><g style="fill:#000;fill-opacity:1"><use xlink:href="#n" x="48.262" y="11.156"/><use xlink:href="#j" x="53.38" y="11.156"/><use xlink:href="#g" x="55.939" y="11.156"/><use xlink:href="#o" x="60.545" y="11.156"/><use xlink:href="#p" x="64.128" y="11.156"/><use xlink:href="#m" x="69.246" y="11.156"/><use xlink:href="#h" x="73.345" y="11.156"/><use xlink:href="#q" x="76.949" y="11.156"/><use xlink:href="#m" x="84.627" y="11.156"/></g></svg>