<svg xmlns="http://www.w3.org/2000/svg" xmlns:xlink="http://www.w3.org/1999/xlink" width="177.731" height="275.951" viewBox="0 0 133.298 206.963"><defs><symbol overflow="visible" id="b"><path style="stroke:none" d="M5.484-.578c.11.234.438.562.563.562.078 0 .094-.078.094-.14v-1.516c0-.047-.016-.11-.016-.172 0-.328.266-.343.594-.343h.047v-.282l-.641.031H4.172v.25c.156 0 .312-.015.469-.015.375 0 .703.062.703.453 0 .078-.016.156-.016.219 0 .093.016.187.016.297 0 .515-.36 1.14-1.485 1.14-.843 0-1.64-.469-2.046-1.218-.297-.547-.391-1.188-.391-1.797 0-.625.11-1.282.437-1.829.407-.656 1.157-1.109 1.938-1.109 1.094 0 1.828.953 2.031 2.016.016.11.016.265.156.265.125 0 .157-.062.157-.14v-2.219c0-.094 0-.203-.11-.203-.156 0-.406.531-.61.781-.359-.531-1.124-.781-1.75-.781-1.718 0-3.155 1.516-3.155 3.25C.516-1.422 1.796.187 3.75.187c.688 0 1.281-.187 1.734-.765Zm0 0"/></symbol><symbol overflow="visible" id="c"><path style="stroke:none" d="M1.094-3.484c.25-.22.61-.313.937-.313.313 0 .594.172.781.438.172.25.172.53.172.828v.156c-.734.078-1.468.078-2.093.547-.297.219-.516.578-.516.937 0 .735.875.985 1.469.985.547 0 .968-.281 1.218-.75.079.375.297.703.704.703.546 0 .78-.453.78-.953v-.406h-.25v.453c0 .25-.046.593-.327.593-.297 0-.313-.39-.313-.593v-1.75c0-.938-.812-1.407-1.61-1.407-.562 0-1.39.235-1.39.938 0 .25.14.437.469.437.219-.015.36-.218.36-.421 0-.25-.188-.376-.391-.422Zm1.89 1.328v.875c0 .625-.437 1.14-1.062 1.14h-.063c-.421-.03-.75-.359-.75-.75 0-.859 1.032-1.265 1.875-1.265Zm0 0"/></symbol><symbol overflow="visible" id="d"><path style="stroke:none" d="M.484-3.86.391-2.39h.25c.015-.313.03-.688.234-.938.219-.281.625-.313 1-.313h1c-.281.329-.531.688-.781 1.016A110.04 110.04 0 0 0 .359-.344C.313-.28.266-.219.266-.14c0 .11.078.125.156.125h3.125l.156-1.703h-.25c-.031.375-.062.813-.281 1.094-.25.344-.703.36-1.094.36h-1a163.476 163.476 0 0 0 2.484-3.266c.047-.063.11-.125.11-.203 0-.094-.063-.125-.14-.125Zm0 0"/></symbol><symbol overflow="visible" id="e"><path style="stroke:none" d="M.266-3.86v.266h.171c.266 0 .516.031.516.39v4.282c0 .375-.265.375-.687.375v.281l.64-.03h1.406v-.25h-.218c-.25 0-.469-.032-.469-.36V-.438c.297.329.656.532 1.125.532 1.078 0 2.063-.875 2.063-2.031 0-1.016-.797-2.032-1.938-2.032-.5 0-.953.219-1.281.563v-.563Zm3.75 2.063C3.984-1.094 3.562-.14 2.672-.14c-.469 0-1.047-.453-1.047-.843v-1.47c0-.124-.016-.233-.016-.343 0-.5.657-.922 1.172-.922.844 0 1.25 1.063 1.25 1.75 0 .047 0 .11-.015.172Zm0 0"/></symbol><symbol overflow="visible" id="f"><path style="stroke:none" d="M.266-3.86v.266h.14c.281 0 .547.031.547.453v2.485c0 .36-.234.375-.687.375v.265L.89-.03h1.562v-.25h-.297c-.312 0-.562-.047-.562-.375v-1.516c.062-.625.234-1.562 1.14-1.562-.125.062-.171.203-.171.328a.39.39 0 1 0 .78 0c0-.375-.359-.563-.687-.563-.547 0-.984.469-1.11.969v-.969Zm0 0"/></symbol><symbol overflow="visible" id="g"><path style="stroke:none" d="M1.016-3.86h-.72v.266h.72v2.969c0 .313-.266.344-.563.344H.328v.265L.953-.03h1.563v-.25h-.297c-.328 0-.563-.047-.563-.422v-2.89h1.032v-.266H1.625v-.829c0-.578.14-1.421.828-1.421.078 0 .188.015.266.062a.395.395 0 0 0-.235.36c0 .218.172.39.391.39.266 0 .406-.172.406-.39 0-.422-.453-.641-.828-.641-.625 0-1.187.406-1.39.984-.047.172-.047.344-.047.516Zm0 0"/></symbol><symbol overflow="visible" id="h"><path style="stroke:none" d="M.36-3.86v.266H.5c.297 0 .516.047.516.453v2.485c0 .36-.25.375-.688.375v.265h1.938V-.28h-.141c-.234 0-.469-.031-.469-.313v-3.375Zm.765-2.156c-.234.047-.422.235-.422.485s.219.468.485.468h.062a.474.474 0 0 0 .422-.468.477.477 0 0 0-.484-.485Zm0 0"/></symbol><symbol overflow="visible" id="i"><path style="stroke:none" d="M1.36-5.531c0 .656-.298 1.718-1.188 1.718v.22h.781v2.374c0 .282.016.547.156.782.22.39.672.53 1.079.53h.078c.687-.124.796-.859.796-1.39v-.328h-.25c0 .125.016.25.016.39 0 .391-.094 1.079-.625 1.079-.484 0-.594-.563-.594-1.016v-2.422h1.313v-.265H1.609v-1.672Zm0 0"/></symbol><symbol overflow="visible" id="j"><path style="stroke:none" d="M.313-.281v.265L.859-.03h1.36v-.25c-.25 0-.64-.125-.64-.453 0-.125.046-.235.093-.344.156-.422.281-.984.437-.984H4.25c.156 0 .266.5.36.75.077.234.265.593.265.75 0 .28-.5.28-.734.28v.266h2.453V-.28h-.25c-.203 0-.422-.031-.516-.125-.125-.125-.156-.297-.219-.438-.64-1.734-1.234-3.484-1.875-5.218l-.078-.188c-.031-.094-.062-.188-.219-.188-.187 0-.218.22-.265.36C2.625-4.547 2.078-3 1.516-1.484l-.157.453c-.187.562-.562.75-1.046.75Zm1.812-2.063L3.188-5.28 4.25-2.344Zm0 0"/></symbol><symbol overflow="visible" id="k"><path style="stroke:none" d="M.313-3.86v.266h.14c.266 0 .547.031.547.453v2.485c0 .36-.234.375-.688.375v.265L.954-.03H2.36v-.25h-.203c-.265 0-.484-.047-.484-.375v-1.797c.047-.64.484-1.281 1.25-1.281.578 0 .64.578.64 1v2.109c0 .313-.265.344-.562.344h-.125v.265L3.5-.03h1.422v-.25h-.219c-.25 0-.484-.047-.484-.375v-1.797c.062-.64.484-1.281 1.265-1.281.563 0 .625.578.625 1v2.109c0 .313-.25.344-.546.344h-.141v.265h2.047V-.28h-.172c-.25 0-.516-.031-.516-.36v-2.015c0-.281-.015-.547-.14-.781-.235-.422-.704-.532-1.141-.532-.547 0-1.11.36-1.297.86h-.016c-.078-.625-.656-.86-1.203-.86-.578 0-1.14.328-1.359.89l-.016-.89Zm0 0"/></symbol><symbol overflow="visible" id="l"><path style="stroke:none" d="M2.172-4.016c-1.047.11-1.906.954-1.906 2.094C.266-1 .953.094 2.312.094c1.047 0 2.032-.844 2.032-2 0-1.078-.844-2.125-2.047-2.125-.047 0-.078.015-.125.015ZM1.047-1.719v-.375c0-.719.219-1.703 1.266-1.703.703 0 1.156.563 1.234 1.281.015.188.015.375.015.563 0 .469-.03 1-.359 1.375a1.19 1.19 0 0 1-.906.422c-.656 0-1.11-.5-1.235-1.219 0-.11 0-.219-.015-.344Zm0 0"/></symbol><symbol overflow="visible" id="m"><path style="stroke:none" d="M.813-.313c.296.297.656.407 1.046.407.735 0 1.454-.375 1.454-1.25v-.094c-.032-.516-.422-.89-.876-1.063a3.528 3.528 0 0 0-.703-.156c-.375-.078-.968-.187-.968-.703 0-.515.656-.656 1.03-.656.579 0 .985.344 1.032.969 0 .078.016.171.125.171.063 0 .125-.03.125-.109v-1.078c0-.063-.015-.14-.094-.14-.14 0-.234.218-.343.218h-.016c-.063-.015-.125-.062-.188-.094-.187-.093-.421-.125-.64-.125-.625 0-1.484.204-1.484 1.125 0 .907 1.046 1.047 1.687 1.172.39.078.828.313.86.75 0 .64-.532.828-1.016.828h-.078C1.109-.17.75-.656.594-1.28c-.031-.094-.031-.25-.156-.25-.11 0-.126.078-.126.156v1.156c0 .047-.015.078-.015.125 0 .094.016.188.11.188.093 0 .156-.11.218-.172l.031-.047c.063-.063.11-.11.156-.188Zm0 0"/></symbol><symbol overflow="visible" id="n"><path style="stroke:none" d="M.313-6.14v.28h.156c.281 0 .531.032.531.47v4.515c0 .063.016.125.016.203 0 .375-.266.39-.641.39H.312v.266L.954-.03H2.36v-.25h-.203c-.265 0-.484-.047-.484-.375v-1.61c0-.687.406-1.468 1.25-1.468.484 0 .625.437.625 1v2.109c0 .313-.25.344-.547.344h-.14v.265L3.5-.03h1.406v-.25h-.172c-.265 0-.515-.031-.515-.36v-2.015c0-.281-.016-.547-.14-.781-.22-.407-.673-.532-1.095-.532-.515 0-1.125.297-1.328.844l-.015-3.11Zm0 0"/></symbol><symbol overflow="visible" id="o"><path style="stroke:none" d="M1.031-2.063h2.657c.109 0 .156-.046.156-.156 0-1.125-.703-1.797-1.64-1.797-1.095 0-1.954.954-1.954 2.047C.25-.875 1.125.094 2.344.094c.64 0 1.281-.453 1.469-1.078.015-.016.015-.063.015-.094a.107.107 0 0 0-.11-.11c-.171 0-.171.266-.265.391-.219.375-.656.64-1.094.64h-.062C1.828-.171 1.422-.5 1.219-.921c-.172-.36-.188-.75-.188-1.14Zm.016-.218c0-.594.25-1.281.906-1.485a.914.914 0 0 1 .203-.03c.781 0 1.063.796 1.063 1.515Zm.672-3.5c-.172.015-.297.187-.297.343 0 .235.281.329.453.438.25.125.5.266.75.406l.266.14c.03.016.046.048.093.048H3c.016-.016.125-.125.125-.172 0-.094-.266-.297-.375-.39-.297-.282-.719-.829-.969-.829-.015 0-.047.016-.062.016Zm0 0"/></symbol><symbol overflow="visible" id="p"><path style="stroke:none" d="M1.031-2.063h2.657c.109 0 .156-.046.156-.156 0-1.125-.703-1.797-1.64-1.797-1.095 0-1.954.954-1.954 2.047C.25-.875 1.125.094 2.344.094c.64 0 1.281-.453 1.469-1.078.015-.016.015-.063.015-.094a.107.107 0 0 0-.11-.11c-.171 0-.171.266-.265.391-.219.375-.656.64-1.094.64h-.062C1.828-.171 1.422-.5 1.219-.921c-.172-.36-.188-.75-.188-1.14Zm.016-.218c0-.594.25-1.281.906-1.485a.914.914 0 0 1 .203-.03c.781 0 1.063.796 1.063 1.515Zm0 0"/></symbol><symbol overflow="visible" id="q"><path style="stroke:none" d="M1.203-3.86a.49.49 0 0 0-.406.485c0 .234.187.484.484.484.25 0 .485-.218.485-.484 0-.234-.188-.484-.47-.484h-.093Zm0 2.891A.473.473 0 0 0 .797-.5c0 .234.172.484.453.484.234 0 .516-.156.516-.484a.497.497 0 0 0-.485-.484c-.031 0-.047 0-.078.015Zm0 0"/></symbol><symbol overflow="visible" id="x"><path style="stroke:none" d="M.36-6.14v.28h.343c.297 0 .578.048.578.391v4.782c0 .39-.328.406-.672.406H.36v.265h2.61V-.28h-.344c-.313 0-.578-.047-.578-.422v-2.25h1c.61 0 1.234.265 1.328 1v.64c0 .594.094 1.235 1.031 1.454.125.03.266.047.422.047.484 0 .922-.36.922-1.016 0-.078-.047-.14-.125-.14-.172 0-.156.452-.281.655-.094.157-.266.282-.453.282-.438 0-.516-.516-.579-.844-.03-.266-.062-.531-.109-.797-.031-.219-.047-.437-.156-.64-.203-.391-.547-.563-.969-.75.656-.188 1.547-.61 1.547-1.454 0-1.109-1.375-1.562-2.281-1.625Zm1.687 2.952V-5.53c0-.203.094-.328.328-.328h.672c.75 0 1.672.171 1.672 1.359 0 1.078-.86 1.313-1.86 1.313Zm0 0"/></symbol><symbol overflow="visible" id="y"><path style="stroke:none" d="M.266-6.14v.28h.14c.297 0 .547.032.547.454v5.39l.25-.015.344-.531c.312.453.75.656 1.234.656 1.125 0 2.031-.953 2.031-2.047 0-.953-.765-2.016-1.937-2.016-.484 0-.89.172-1.281.563v-2.828Zm3.75 4.406c-.032.421-.079.796-.344 1.109a1.252 1.252 0 0 1-.969.484c-.375 0-.75-.218-.953-.546a.457.457 0 0 1-.125-.297v-2c.063-.391.703-.75 1.172-.75 1.047 0 1.234 1.14 1.234 1.812 0 .063 0 .125-.015.188Zm0 0"/></symbol><symbol overflow="visible" id="z"><path style="stroke:none" d="M.313-3.86v.266h.14c.266 0 .547.031.547.453v2.485c0 .36-.234.375-.688.375v.265L.954-.03H2.36v-.25h-.203c-.265 0-.484-.047-.484-.375v-1.61c0-.687.406-1.468 1.25-1.468.484 0 .625.437.625 1v2.109c0 .313-.25.344-.547.344h-.14v.265L3.5-.03h1.406v-.25h-.172c-.265 0-.515-.031-.515-.36v-2.015c0-.281-.016-.531-.14-.781-.235-.422-.704-.532-1.141-.532-.547 0-1.11.375-1.313.89l-.016-.89Zm0 0"/></symbol><symbol overflow="visible" id="C"><path style="stroke:none" d="M.39-6.14v.28h.313c.313 0 .61.032.61.376 0 .062-.016.125-.016.171v4.375c0 .594-.516.657-.906.657v.265H2.5V-.28c-.422 0-.938-.078-.938-.672 0-.094.016-.172.016-.25l.016-4.578c.047.187.125.375.203.547.531 1.28 1.031 2.593 1.547 3.89L3.75-.312c.047.109.078.296.234.296.157 0 .188-.203.235-.312.64-1.64 1.297-3.297 1.953-4.922.078-.188.172-.39.234-.594v5.14c0 .376-.281.423-.562.423H5.5v.265h2.547V-.28h-.344c-.281 0-.562-.031-.562-.406V-5.47c0-.343.296-.39.593-.39h.313v-.282H6.5l-.172.032-.094.14L4.22-.89c-.063-.14-.11-.296-.172-.453l-.375-.937c-.453-1.14-.906-2.297-1.36-3.438l-.093-.234c-.078-.14-.125-.188-.281-.188Zm0 0"/></symbol><symbol overflow="visible" id="r"><path style="stroke:none" d="M3.063 2.14c0-.046-.032-.078-.079-.14C1.828.937 1.47-.672 1.47-2.25c0-1.375.265-3.063 1.531-4.266.047-.046.063-.062.063-.109a.107.107 0 0 0-.11-.11c-.11 0-.922.657-1.406 1.626-.422.859-.64 1.796-.64 2.859 0 .64.077 1.672.577 2.719.532 1.11 1.36 1.765 1.47 1.765.062 0 .108-.03.108-.093Zm0 0"/></symbol><symbol overflow="visible" id="w"><path style="stroke:none" d="M2.672-2.25c0-.734-.11-1.719-.578-2.719C1.563-6.079.734-6.734.625-6.734c-.094 0-.11.078-.11.109 0 .047.016.063.079.125.531.469 1.515 1.688 1.515 4.25C2.11-.969 1.875.813.58 2.031c-.016.016-.063.063-.063.11 0 .015.015.093.109.093.11 0 .922-.64 1.406-1.625.422-.859.64-1.78.64-2.859Zm0 0"/></symbol><symbol overflow="visible" id="s"><path style="stroke:none" d="M2.766-2.813h1.5c1.453 0 2.64-1 2.64-1.953 0-.703-.64-1.359-1.812-1.359H2.14c-.172 0-.282 0-.282.156 0 .125.094.125.282.125.03 0 .187 0 .328.016.156.016.219.031.219.14 0 .032 0 .079-.032.172L1.437-.687c-.078.328-.093.406-.765.406-.172 0-.266 0-.266.172C.406-.016.47 0 .531 0c.172 0 .406-.016.578-.016.266-.015.282-.015.563-.015.297 0 .312 0 .578.015.188 0 .406.016.578.016.063 0 .188 0 .188-.156 0-.125-.094-.125-.282-.125-.03 0-.203 0-.343-.016-.188-.031-.204-.062-.204-.14 0-.032 0-.047.047-.204ZM3.422-5.5c.078-.328.094-.344.469-.344h.906c.703 0 1.25.219 1.25.86 0 .187-.094 1.03-.563 1.468-.187.172-.609.454-1.375.454H2.813Zm0 0"/></symbol><symbol overflow="visible" id="u"><path style="stroke:none" d="M1.625-.14c0 .296 0 1.03-.656 1.671-.047.047-.047.063-.047.094 0 .063.062.11.11.11.093 0 .827-.704.827-1.75 0-.563-.203-.954-.578-.954a.467.467 0 0 0-.484.485c0 .25.172.484.484.484a.46.46 0 0 0 .344-.14Zm0 0"/></symbol><symbol overflow="visible" id="v"><path style="stroke:none" d="M3.938-5.469c.046-.187.078-.281.218-.312.078-.016.36-.016.547-.016 1.031 0 1.344.063 1.344.766 0 .11 0 .25-.078.781l-.016.078c0 .063.031.125.125.125.11 0 .125-.094.14-.219l.235-1.562c.016-.031.016-.094.016-.125 0-.125-.078-.125-.25-.125h-5.11c-.218 0-.218.016-.28.187L.265-4.312c-.032.109-.032.14-.032.14 0 .047.032.125.11.125.11 0 .125-.062.172-.219.5-1.406.78-1.53 2.078-1.53h.344c.25 0 .25.03.25.109 0 .046-.016.109-.032.187L1.953-.703c-.078.312-.11.422-1.062.422-.282 0-.36 0-.36.172C.531 0 .641 0 .687 0c.235 0 .485-.016.735-.016s.5-.015.75-.015c.406 0 .422 0 .75.015.125 0 .703.016.781.016.078 0 .188 0 .188-.156 0-.125-.079-.125-.297-.125-.235 0-.344 0-.578-.016-.204-.031-.313-.031-.313-.187 0-.047.016-.11.031-.172Zm0 0"/></symbol><symbol overflow="visible" id="B"><path style="stroke:none" d="M2.578-5.922c.031-.125.031-.14.031-.172 0-.078-.046-.125-.14-.125-.125 0-.906.063-1.094.078-.078.016-.188.032-.188.172 0 .125.11.125.25.125.422 0 .422.063.422.14 0 .032 0 .048-.046.22L.53-.328C.5-.203.5-.188.5-.156c0 .14.11.25.266.25a.371.371 0 0 0 .343-.203c.016-.047.094-.375.141-.563l.219-.797c.015-.14.11-.484.14-.61l.11-.39c.047-.219.547-1.265 1.515-1.265.485 0 .485.468.485.625 0 .546-.422 1.64-.516 1.921-.11.266-.14.36-.14.532 0 .484.359.75.765.75.86 0 1.219-1.282 1.219-1.375 0-.047-.031-.11-.125-.11s-.11.047-.14.157c-.22.765-.61 1.109-.923 1.109-.062 0-.234 0-.234-.281 0-.235.094-.469.172-.656.172-.47.531-1.407.531-1.922 0-.797-.594-.985-1.062-.985-.547 0-1 .25-1.36.688Zm0 0"/></symbol><symbol overflow="visible" id="t"><path style="stroke:none" d="M3.297-1.906c0-.438 0-2.078-1.469-2.078S.36-2.344.36-1.906c0 .422 0 2.031 1.47 2.031 1.468 0 1.468-1.61 1.468-2.031ZM1.828-.063a.84.84 0 0 1-.812-.625C.922-1.03.922-1.609.922-1.984c0-.407 0-.86.094-1.188.14-.531.593-.61.812-.61.266 0 .672.126.797.579.094.312.094.75.094 1.219 0 .375 0 .984-.094 1.312a.825.825 0 0 1-.797.61Zm0 0"/></symbol><clipPath id="a"><path d="M0 51h133.297v151H0Zm0 0"/></clipPath><clipPath id="A"><path d="M32 0h101.297v131H32Zm0 0"/></clipPath></defs><path style="stroke:none;fill-rule:nonzero;fill:#effafb;fill-opacity:1" d="m56.727 62.852.078 15.035c-30.836 5.437-51.426 34.84-45.989 65.675 5.438 30.836 34.84 51.426 65.676 45.989 30.836-5.438 51.426-34.84 45.988-65.676-4.136-23.469-22.52-41.852-45.988-45.988l.078-15.035"/><g clip-path="url(#a)"><path style="fill:none;stroke-width:.79701;stroke-linecap:butt;stroke-linejoin:miter;stroke:#000;stroke-opacity:1;stroke-miterlimit:10" d="m-9.922 70.867.078-15.035C-40.68 50.395-61.27 20.992-55.833-9.843c5.438-30.836 34.84-51.426 65.676-45.989C40.68-50.394 61.27-20.992 55.831 9.844c-4.136 23.469-22.52 41.852-45.988 45.988l.078 15.035" transform="matrix(1 0 0 -1 66.649 133.719)"/></g><path style="fill-rule:nonzero;fill:#bfbfbf;fill-opacity:1;stroke-width:.3985;stroke-linecap:butt;stroke-linejoin:miter;stroke:gray;stroke-opacity:1;stroke-miterlimit:10" d="M-9.922 70.867v-8.503H9.92v8.503Zm0 0" transform="matrix(1 0 0 -1 66.649 133.719)"/><g style="fill:#000;fill-opacity:1"><use xlink:href="#b" x="43.702" y="135.935"/><use xlink:href="#c" x="50.932" y="135.935"/><use xlink:href="#d" x="55.539" y="135.935"/></g><g style="fill:#000;fill-opacity:1"><use xlink:href="#e" x="62.7" y="135.935"/><use xlink:href="#c" x="67.818" y="135.935"/><use xlink:href="#f" x="72.425" y="135.935"/><use xlink:href="#g" x="76.029" y="135.935"/><use xlink:href="#c" x="78.844" y="135.935"/><use xlink:href="#h" x="83.451" y="135.935"/><use xlink:href="#i" x="86.01" y="135.935"/></g><g style="fill:#000;fill-opacity:1"><use xlink:href="#b" x="43.702" y="135.935"/><use xlink:href="#c" x="50.932" y="135.935"/><use xlink:href="#d" x="55.539" y="135.935"/></g><g style="fill:#000;fill-opacity:1"><use xlink:href="#e" x="62.7" y="135.935"/><use xlink:href="#c" x="67.818" y="135.935"/><use xlink:href="#f" x="72.425" y="135.935"/><use xlink:href="#g" x="76.029" y="135.935"/><use xlink:href="#c" x="78.844" y="135.935"/><use xlink:href="#h" x="83.451" y="135.935"/><use xlink:href="#i" x="86.01" y="135.935"/></g><use xlink:href="#j" x="22.278" y="199.74" style="fill:#000;fill-opacity:1"/><g style="fill:#000;fill-opacity:1"><use xlink:href="#i" x="28.927" y="199.74"/><use xlink:href="#k" x="32.51" y="199.74"/><use xlink:href="#l" x="40.187" y="199.74"/><use xlink:href="#m" x="44.794" y="199.74"/><use xlink:href="#e" x="48.429" y="199.74"/><use xlink:href="#n" x="53.547" y="199.74"/></g><use xlink:href="#o" x="58.674" y="199.74" style="fill:#000;fill-opacity:1"/><g style="fill:#000;fill-opacity:1"><use xlink:href="#f" x="62.763" y="199.74"/><use xlink:href="#p" x="66.367" y="199.74"/></g><use xlink:href="#q" x="73.541" y="199.74" style="fill:#000;fill-opacity:1"/><use xlink:href="#r" x="80.194" y="199.74" style="fill:#000;fill-opacity:1"/><use xlink:href="#s" x="83.778" y="199.74" style="fill:#000;fill-opacity:1"/><use xlink:href="#t" x="89.662" y="200.736" style="fill:#000;fill-opacity:1"/><use xlink:href="#u" x="93.813" y="199.74" style="fill:#000;fill-opacity:1"/><use xlink:href="#v" x="97.906" y="199.74" style="fill:#000;fill-opacity:1"/><use xlink:href="#t" x="103.285" y="200.736" style="fill:#000;fill-opacity:1"/><use xlink:href="#w" x="107.436" y="199.74" style="fill:#000;fill-opacity:1"/><path style="fill:none;stroke-width:2.78955;stroke-linecap:butt;stroke-linejoin:miter;stroke:#000;stroke-opacity:1;stroke-miterlimit:10" d="M-4.942 42.305v56.691" transform="matrix(1 0 0 -1 66.649 133.719)"/><path style="fill:none;stroke-width:1.99255;stroke-linecap:butt;stroke-linejoin:miter;stroke:#fff;stroke-opacity:1;stroke-miterlimit:10" d="M-4.942 42.305v56.691" transform="matrix(1 0 0 -1 66.649 133.719)"/><path style="fill-rule:nonzero;fill:#bfbfbf;fill-opacity:1;stroke-width:.3985;stroke-linecap:butt;stroke-linejoin:miter;stroke:gray;stroke-opacity:1;stroke-miterlimit:10" d="M-.958 84.824a3.984 3.984 0 1 1-7.968 0 3.984 3.984 0 0 1 3.984-3.984 3.981 3.981 0 0 1 3.984 3.984Zm0 0" transform="matrix(1 0 0 -1 66.649 133.719)"/><path style="fill:none;stroke-width:.79701;stroke-linecap:butt;stroke-linejoin:miter;stroke:#000;stroke-opacity:1;stroke-miterlimit:10" d="M-8.926 84.824h7.968" transform="matrix(1 0 0 -1 66.649 133.719)"/><g style="fill:#000;fill-opacity:1"><use xlink:href="#x" x="23.865" y="51.984"/><use xlink:href="#l" x="30.646" y="51.984"/><use xlink:href="#y" x="35.253" y="51.984"/><use xlink:href="#h" x="40.371" y="51.984"/><use xlink:href="#z" x="42.93" y="51.984"/><use xlink:href="#p" x="48.048" y="51.984"/><use xlink:href="#i" x="52.147" y="51.984"/></g><g clip-path="url(#A)"><path style="fill:none;stroke-width:2.78955;stroke-linecap:butt;stroke-linejoin:miter;stroke:#000;stroke-opacity:1;stroke-miterlimit:10" d="M4.94 42.305v52.707a3.984 3.984 0 0 0 3.985 3.984h6.203a3.984 3.984 0 0 0 3.989-3.984v-34.55c0-2.2 1.78-3.985 3.984-3.985h6.203c2.2 0 3.985 1.785 3.985 3.984v66.883" transform="matrix(1 0 0 -1 66.649 133.719)"/></g><path style="fill:none;stroke-width:1.99255;stroke-linecap:butt;stroke-linejoin:miter;stroke:#fff;stroke-opacity:1;stroke-miterlimit:10" d="M4.94 42.305v52.707a3.984 3.984 0 0 0 3.985 3.984h6.203a3.984 3.984 0 0 0 3.989-3.984v-34.55c0-2.2 1.78-3.985 3.984-3.985h6.203c2.2 0 3.985 1.785 3.985 3.984v66.883" transform="matrix(1 0 0 -1 66.649 133.719)"/><path style="fill:none;stroke-width:1.99255;stroke-linecap:butt;stroke-linejoin:miter;stroke:#ec008c;stroke-opacity:1;stroke-miterlimit:10" d="M19.117 64.98v-4.519c0-2.199 1.78-3.984 3.984-3.984h6.203c2.2 0 3.985 1.785 3.985 3.984v30.031" transform="matrix(1 0 0 -1 66.649 133.719)"/><path style="fill:none;stroke-width:.3985;stroke-linecap:butt;stroke-linejoin:miter;stroke:#000;stroke-opacity:1;stroke-miterlimit:10" d="M26.203 67.371v20.73" transform="matrix(1 0 0 -1 66.649 133.719)"/><path style="stroke:none;fill-rule:nonzero;fill:#000;fill-opacity:1" d="m92.852 68.34 1.593-3.188-1.593 1.196-1.594-1.196"/><path style="fill:none;stroke-width:.3985;stroke-linecap:butt;stroke-linejoin:miter;stroke:#000;stroke-opacity:1;stroke-miterlimit:10" d="M0 2.29v-4.582" transform="matrix(0 1 1 0 92.85 68.538)"/><path style="stroke:none;fill-rule:nonzero;fill:#000;fill-opacity:1" d="m92.852 43.625-1.594 3.188 1.594-1.196 1.593 1.196"/><path style="fill:none;stroke-width:.3985;stroke-linecap:butt;stroke-linejoin:miter;stroke:#000;stroke-opacity:1;stroke-miterlimit:10" d="M0 2.292V-2.29" transform="matrix(0 -1 -1 0 92.85 43.425)"/><path style="stroke:none;fill-rule:nonzero;fill:#fff;fill-opacity:1" d="M90.195 59.094h5.309v-6.227h-5.309Zm0 0"/><use xlink:href="#B" x="90.195" y="59.096" style="fill:#000;fill-opacity:1"/><g style="fill:#000;fill-opacity:1"><use xlink:href="#C" x="35.53" y="23.637"/><use xlink:href="#c" x="43.974" y="23.637"/><use xlink:href="#z" x="48.581" y="23.637"/><use xlink:href="#l" x="53.699" y="23.637"/><use xlink:href="#k" x="58.306" y="23.637"/><use xlink:href="#o" x="65.983" y="23.637"/><use xlink:href="#i" x="70.082" y="23.637"/><use xlink:href="#f" x="73.665" y="23.637"/><use xlink:href="#p" x="77.269" y="23.637"/></g><path style="fill:none;stroke-width:.19925;stroke-linecap:butt;stroke-linejoin:miter;stroke:gray;stroke-opacity:1;stroke-miterlimit:10" d="M30.796 113.172H16.71" transform="matrix(1 0 0 -1 66.649 133.719)"/></svg>