<svg xmlns="http://www.w3.org/2000/svg" xmlns:xlink="http://www.w3.org/1999/xlink" width="394.315" height="177.391" viewBox="0 0 295.736 133.043"><defs><symbol overflow="visible" id="a"><path style="stroke:none" d="M.938-3.094c0 .156 0 .266.125.266.062 0 .093-.047.14-.125a1.45 1.45 0 0 1 1.172-.594c.969 0 .969 1.39.969 1.703 0 .282 0 .844-.266 1.25-.234.375-.61.547-.969.547a1.456 1.456 0 0 1-1.343-1c.015 0 .062.016.125.016.187 0 .453-.11.453-.438 0-.281-.203-.437-.453-.437-.188 0-.438.11-.438.468 0 .813.688 1.641 1.688 1.641 1.078 0 2-.89 2-2 0-1.078-.766-1.969-1.75-1.969-.422 0-.86.141-1.188.47v-1.767c.281.079.563.125.828.125 1.11 0 1.75-.796 1.75-.921 0-.079-.047-.11-.094-.11-.015 0-.03 0-.124.047a3.488 3.488 0 0 1-1.204.234c-.39 0-.796-.078-1.203-.234-.093-.047-.11-.047-.11-.047-.109 0-.109.078-.109.235Zm0 0"/></symbol><symbol overflow="visible" id="b"><path style="stroke:none" d="M4.25-2.875c0-.594-.031-1.375-.344-2.047-.406-.844-1.078-1.047-1.594-1.047-.546 0-1.234.203-1.624 1.078-.282.61-.329 1.344-.329 2.016 0 .594.016 1.453.407 2.172.421.75 1.125.906 1.53.906.579 0 1.25-.25 1.626-1.078.265-.61.328-1.281.328-2ZM2.312-.031c-.28 0-.921-.125-1.093-1.14-.094-.516-.094-1.298-.094-1.813 0-.61 0-1.313.11-1.813.187-.797.75-.953 1.062-.953.344 0 .906.188 1.078 1.016.094.484.094 1.187.094 1.75 0 .562 0 1.312-.094 1.843C3.187-.109 2.531-.03 2.312-.03Zm0 0"/></symbol><symbol overflow="visible" id="c"><path style="stroke:none" d="M1.203-2.969c0-.922.094-1.422.344-1.89.172-.375.61-.891 1.281-.891.172 0 .594.031.797.36-.328 0-.484.171-.484.406a.41.41 0 0 0 .421.421c.25 0 .422-.171.422-.437 0-.5-.359-.969-1.171-.969-1.157 0-2.422 1.14-2.422 3.14C.39-.405 1.484.204 2.328.204c.985 0 1.89-.844 1.89-2.031 0-1.125-.827-2-1.843-2-.531 0-.922.328-1.172.86Zm1.11 2.922c-.516 0-.813-.422-.907-.687-.172-.407-.187-1.157-.187-1.297 0-.594.281-1.563 1.14-1.563.141 0 .579 0 .875.547.172.344.172.781.172 1.219 0 .422 0 .875-.172 1.203-.28.516-.671.578-.921.578Zm0 0"/></symbol><symbol overflow="visible" id="d"><path style="stroke:none" d="M4.39-5.469c.079-.093.079-.125.079-.312H2.25c-1.14 0-1.172-.11-1.188-.282h-.25L.516-4.188h.25C.796-4.39.875-4.89.984-5c.063-.063.782-.063.907-.063h1.875l-.86 1.172C1.734-2.28 1.625-.812 1.625-.312c0 .109 0 .515.422.515s.422-.406.422-.516V-.75c0-1.328.187-2.36.672-3.016Zm0 0"/></symbol><symbol overflow="visible" id="e"><path style="stroke:none" d="M1.547-4.078c-.266-.172-.484-.406-.484-.734 0-.594.625-.938 1.218-.938.703 0 1.25.484 1.25 1.11 0 .624-.531 1.046-.89 1.25Zm1.312.828c.454-.219 1.11-.656 1.11-1.39 0-.844-.844-1.329-1.656-1.329-.938 0-1.672.672-1.672 1.5 0 .328.125.657.343.922.141.172.204.203.72.531C.921-2.64.39-2.094.39-1.359c0 .953.937 1.562 1.906 1.562C3.344.203 4.219-.53 4.219-1.5c0-.875-.672-1.313-.89-1.453-.095-.063-.36-.235-.47-.297Zm-.906.39 1.125.704c.203.125.656.422.656.969 0 .703-.718 1.14-1.421 1.14C1.53-.047.875-.609.875-1.359c0-.641.438-1.172 1.078-1.5Zm0 0"/></symbol><symbol overflow="visible" id="f"><path style="stroke:none" d="M2.172-5.984C.719-5.844.359-4.328.359-2.922c0 .875.047 1.906.672 2.578.313.328.797.547 1.25.547.797 0 1.406-.516 1.688-1.219.234-.609.281-1.265.281-1.906 0-1.281-.297-3.062-1.938-3.062h-.14ZM1.14-2.328c-.016-.078-.016-.156-.016-.235 0-.562 0-1.124.047-1.703.031-.328.062-.718.266-1 .187-.296.515-.5.875-.5.75 0 1.046.735 1.109 1.36.047.437.047.875.047 1.328v.672c0 .969-.078 1.953-.781 2.281a.802.802 0 0 1-.391.094c-.578 0-.953-.531-1.063-1.078-.062-.407-.046-.813-.093-1.22Zm0 0"/></symbol><symbol overflow="visible" id="g"><path style="stroke:none" d="M1.422-6.14c-.5.062-.906.515-.906 1.015a1.02 1.02 0 0 0 1.03 1.031h.079c.516-.062.922-.515.922-1.031 0-.531-.453-1.016-1.031-1.016ZM.89-5.064v-.046c0-.344.296-.641.64-.641.328 0 .563.25.625.578v.047c0 .344-.297.64-.625.64s-.578-.25-.64-.577Zm0 0"/></symbol><symbol overflow="visible" id="h"><path style="stroke:none" d="M5.422-5.547c-.25-.422-.984-.75-1.578-.781H3.75C1.969-6.328.516-4.86.516-3.078v.156c.109 1.75 1.5 3.11 3.203 3.11 1.234 0 2.422-.985 2.422-2.282v-.078c-.016-.062-.079-.094-.141-.094-.078 0-.11.063-.11.141v.063c-.093.921-.75 1.968-2.062 1.968-.703 0-1.406-.36-1.844-.922-.437-.578-.562-1.421-.562-2.109 0-.89.234-1.766.906-2.375.39-.344.938-.547 1.469-.547 1.156 0 1.86 1 2.031 2 .016.125 0 .281.156.281.125 0 .157-.062.157-.14v-2.219c0-.094 0-.203-.11-.203-.156 0-.406.531-.61.781Zm0 0"/></symbol><symbol overflow="visible" id="i"><path style="stroke:none" d="M.828-5.406v.281c.453 0 .766-.078 1.203-.234v4.64c0 .406-.344.438-.844.438H.891v.265h2.984V-.28h-.406c-.469 0-.75-.031-.75-.438v-5.11c0-.093-.031-.155-.14-.155-.142 0-.25.156-.36.234-.422.266-.906.344-1.39.344Zm0 0"/></symbol><symbol overflow="visible" id="y"><path style="stroke:none" d="M1.094-3.484c.25-.22.61-.313.937-.313.313 0 .594.172.781.438.172.25.172.53.172.828v.156c-.734.078-1.468.078-2.093.547-.297.219-.516.578-.516.937 0 .735.875.985 1.469.985.547 0 .968-.281 1.218-.75.079.375.297.703.704.703.546 0 .78-.453.78-.953v-.406h-.25v.453c0 .25-.046.593-.327.593-.297 0-.313-.39-.313-.593v-1.75c0-.938-.812-1.407-1.61-1.407-.562 0-1.39.235-1.39.938 0 .25.14.437.469.437.219-.015.36-.218.36-.421 0-.25-.188-.376-.391-.422Zm1.89 1.328v.875c0 .625-.437 1.14-1.062 1.14h-.063c-.421-.03-.75-.359-.75-.75 0-.859 1.032-1.265 1.875-1.265Zm0 0"/></symbol><symbol overflow="visible" id="z"><path style="stroke:none" d="M.266-3.86v.266h.171c.266 0 .516.031.516.39v4.282c0 .375-.265.375-.687.375v.281l.64-.03h1.406v-.25h-.218c-.25 0-.469-.032-.469-.36V-.438c.297.329.656.532 1.125.532 1.078 0 2.063-.875 2.063-2.031 0-1.016-.797-2.032-1.938-2.032-.5 0-.953.219-1.281.563v-.563Zm3.75 2.063C3.984-1.094 3.562-.14 2.672-.14c-.469 0-1.047-.453-1.047-.843v-1.47c0-.124-.016-.233-.016-.343 0-.5.657-.922 1.172-.922.844 0 1.25 1.063 1.25 1.75 0 .047 0 .11-.015.172Zm0 0"/></symbol><symbol overflow="visible" id="A"><path style="stroke:none" d="M3.25-3.531c-.188.062-.36.172-.36.422 0 .218.157.406.422.406.235 0 .422-.172.422-.438 0-.64-.765-.859-1.312-.875h-.094A2.04 2.04 0 0 0 .313-1.953c0 1.094.859 2.047 2 2.047.624 0 1.203-.328 1.453-.969.015-.063.062-.14.062-.203s-.062-.11-.125-.11c-.156 0-.156.235-.234.36-.219.406-.61.672-1.094.672-.984 0-1.297-1.125-1.297-1.813 0-.734.266-1.797 1.266-1.797.25 0 .515.032.734.141.063.016.11.063.172.094Zm0 0"/></symbol><symbol overflow="visible" id="B"><path style="stroke:none" d="M.36-3.86v.266H.5c.297 0 .516.047.516.453v2.485c0 .36-.25.375-.688.375v.265h1.938V-.28h-.141c-.234 0-.469-.031-.469-.313v-3.375Zm.765-2.156c-.234.047-.422.235-.422.485s.219.468.485.468h.062a.474.474 0 0 0 .422-.468.477.477 0 0 0-.484-.485Zm0 0"/></symbol><symbol overflow="visible" id="C"><path style="stroke:none" d="M1.36-5.531c0 .656-.298 1.718-1.188 1.718v.22h.781v2.374c0 .282.016.547.156.782.22.39.672.53 1.079.53h.078c.687-.124.796-.859.796-1.39v-.328h-.25c0 .125.016.25.016.39 0 .391-.094 1.079-.625 1.079-.484 0-.594-.563-.594-1.016v-2.422h1.313v-.265H1.609v-1.672Zm0 0"/></symbol><symbol overflow="visible" id="D"><path style="stroke:none" d="M1.031-2.063h2.657c.109 0 .156-.046.156-.156 0-1.125-.703-1.797-1.64-1.797-1.095 0-1.954.954-1.954 2.047C.25-.875 1.125.094 2.344.094c.64 0 1.281-.453 1.469-1.078.015-.016.015-.063.015-.094a.107.107 0 0 0-.11-.11c-.171 0-.171.266-.265.391-.219.375-.656.64-1.094.64h-.062C1.828-.171 1.422-.5 1.219-.921c-.172-.36-.188-.75-.188-1.14Zm.016-.218c0-.594.25-1.281.906-1.485a.914.914 0 0 1 .203-.03c.781 0 1.063.796 1.063 1.515Zm1.484-3.5c-.156.015-.312.203-.422.312-.28.282-.578.547-.859.828-.016.016-.016.032-.016.047 0 .063.079.188.141.188.047 0 .094-.047.125-.063l.25-.14c.39-.22 1.172-.516 1.172-.829 0-.171-.156-.359-.344-.359-.015 0-.031.016-.047.016Zm0 0"/></symbol><symbol overflow="visible" id="E"><path style="stroke:none" d="M.813-.313c.296.297.656.407 1.046.407.735 0 1.454-.375 1.454-1.25v-.094c-.032-.516-.422-.89-.876-1.063a3.528 3.528 0 0 0-.703-.156c-.375-.078-.968-.187-.968-.703 0-.515.656-.656 1.03-.656.579 0 .985.344 1.032.969 0 .078.016.171.125.171.063 0 .125-.03.125-.109v-1.078c0-.063-.015-.14-.094-.14-.14 0-.234.218-.343.218h-.016c-.063-.015-.125-.062-.188-.094-.187-.093-.421-.125-.64-.125-.625 0-1.484.204-1.484 1.125 0 .907 1.046 1.047 1.687 1.172.39.078.828.313.86.75 0 .64-.532.828-1.016.828h-.078C1.109-.17.75-.656.594-1.28c-.031-.094-.031-.25-.156-.25-.11 0-.126.078-.126.156v1.156c0 .047-.015.078-.015.125 0 .094.016.188.11.188.093 0 .156-.11.218-.172l.031-.047c.063-.063.11-.11.156-.188Zm0 0"/></symbol><symbol overflow="visible" id="F"><path style="stroke:none" d="M.313-6.14v.28h.156c.281 0 .531.032.531.47v4.515c0 .063.016.125.016.203 0 .375-.266.39-.641.39H.312v.266L.954-.03H2.36v-.25h-.203c-.265 0-.484-.047-.484-.375v-1.61c0-.687.406-1.468 1.25-1.468.484 0 .625.437.625 1v2.109c0 .313-.25.344-.547.344h-.14v.265L3.5-.03h1.406v-.25h-.172c-.265 0-.515-.031-.515-.36v-2.015c0-.281-.016-.547-.14-.781-.22-.407-.673-.532-1.095-.532-.515 0-1.125.297-1.328.844l-.015-3.11Zm0 0"/></symbol><symbol overflow="visible" id="G"><path style="stroke:none" d="M1.031-2.063h2.657c.109 0 .156-.046.156-.156 0-1.125-.703-1.797-1.64-1.797-1.095 0-1.954.954-1.954 2.047C.25-.875 1.125.094 2.344.094c.64 0 1.281-.453 1.469-1.078.015-.016.015-.063.015-.094a.107.107 0 0 0-.11-.11c-.171 0-.171.266-.265.391-.219.375-.656.64-1.094.64h-.062C1.828-.171 1.422-.5 1.219-.921c-.172-.36-.188-.75-.188-1.14Zm.016-.218c0-.594.25-1.281.906-1.485a.914.914 0 0 1 .203-.03c.781 0 1.063.796 1.063 1.515Zm0 0"/></symbol><symbol overflow="visible" id="H"><path style="stroke:none" d="M.266-3.86v.266h.14c.281 0 .547.031.547.453v2.485c0 .36-.234.375-.687.375v.265L.89-.03h1.562v-.25h-.297c-.312 0-.562-.047-.562-.375v-1.516c.062-.625.234-1.562 1.14-1.562-.125.062-.171.203-.171.328a.39.39 0 1 0 .78 0c0-.375-.359-.563-.687-.563-.547 0-.984.469-1.11.969v-.969Zm0 0"/></symbol><symbol overflow="visible" id="I"><path style="stroke:none" d="M.313-3.86v.266h.14c.266 0 .547.031.547.453v2.485c0 .36-.234.375-.688.375v.265L.954-.03H2.36v-.25h-.203c-.265 0-.484-.047-.484-.375v-1.797c.047-.64.484-1.281 1.25-1.281.578 0 .64.578.64 1v2.109c0 .313-.265.344-.562.344h-.125v.265L3.5-.03h1.422v-.25h-.219c-.25 0-.484-.047-.484-.375v-1.797c.062-.64.484-1.281 1.265-1.281.563 0 .625.578.625 1v2.109c0 .313-.25.344-.546.344h-.141v.265h2.047V-.28h-.172c-.25 0-.516-.031-.516-.36v-2.015c0-.281-.015-.547-.14-.781-.235-.422-.704-.532-1.141-.532-.547 0-1.11.36-1.297.86h-.016c-.078-.625-.656-.86-1.203-.86-.578 0-1.14.328-1.359.89l-.016-.89Zm0 0"/></symbol><symbol overflow="visible" id="J"><path style="stroke:none" d="M3.484-.531v1.625c0 .328-.187.36-.687.36v.28l.64-.03h1.407v-.25h-.188c-.281 0-.5-.032-.5-.376v-5.047l-.218.016-.11.203-.234.578c-.094-.11-.156-.234-.235-.328a1.316 1.316 0 0 0-1.03-.469c-1.079 0-2.017.906-2.017 2.016 0 1.047.813 2.047 1.954 2.047.453 0 .984-.235 1.218-.625ZM1.078-1.797v-.11c0-.734.39-1.765 1.297-1.812h.031c.578 0 1.016.563 1.11 1.094v1.406c0 .735-.922 1.078-1.204 1.078h-.046C1.609-.188 1.25-.859 1.14-1.42c-.032-.126-.032-.25-.063-.376Zm0 0"/></symbol><symbol overflow="visible" id="K"><path style="stroke:none" d="M.313-3.86v.266H.39c.25 0 .593.031.593.281.016.11.016.188.016.297v1.782c0 .28.016.53.14.78.266.438.813.548 1.282.548.5 0 .984-.297 1.14-.766l.016.766 1.328-.11V-.28H4.75c-.266 0-.531-.031-.531-.438v-3.25l-1.36.11v.265h.125c.282 0 .563.031.563.453v1.766C3.5-.797 3.14-.141 2.453-.141c-.36 0-.687-.078-.765-.546-.016-.172-.016-.329-.016-.5V-3.97Zm0 0"/></symbol><symbol overflow="visible" id="L"><path style="stroke:none" d="M2.828-6.14v.28h.094c.36 0 .594.016.594.548v1.875a1.532 1.532 0 0 0-1.172-.532c-1.11 0-2.031.938-2.031 2.047C.313-.906 1.14.094 2.266.094c.421 0 .984-.203 1.218-.578v.578l1.36-.11V-.28h-.14c-.298 0-.548-.031-.548-.453v-5.5Zm-1.75 4.406v-.125c0-.72.188-1.875 1.313-1.875.468 0 1.109.343 1.109.906 0 .11-.016.219-.016.328v1.484c0 .11-.046.188-.109.282-.234.343-.64.593-1.063.593a1.14 1.14 0 0 1-.89-.453c-.25-.328-.297-.734-.344-1.14Zm0 0"/></symbol><symbol overflow="visible" id="M"><path style="stroke:none" d="M.328-6.14v.28h.11c.312 0 .578.016.578.47v4.718c0 .375-.25.39-.641.39H.328v.266h2.016V-.28h-.235c-.234 0-.453-.047-.453-.36v-5.593Zm0 0"/></symbol><symbol overflow="visible" id="N"><path style="stroke:none" d="M1.656-5.422v.156c0 .438-.156.875-.422 1.235-.093.125-.312.281-.312.39 0 .063.062.11.094.11.14 0 .406-.36.53-.563.22-.36.345-.765.345-1.187 0-.39-.125-.953-.625-.953-.282 0-.47.218-.47.5v.062c.032.25.25.406.485.406a.546.546 0 0 0 .375-.156Zm0 0"/></symbol><symbol overflow="visible" id="j"><path style="stroke:none" d="M5.313-4.047c.015-.047.03-.078.03-.078 0-.016-.015-.094-.093-.094-.047 0-.063.016-.11.078l-.452.47c-.329-.407-.766-.548-1.188-.548-1.531 0-2.984 1.282-2.984 2.625 0 1.032.828 1.719 1.937 1.719.625 0 1.172-.25 1.531-.531.594-.469.688-1 .688-1.031 0-.063-.063-.094-.11-.094-.078 0-.093.031-.109.093-.297.922-1.234 1.329-1.89 1.329-.454 0-1.422-.188-1.422-1.329 0-.234.046-1.062.703-1.78.328-.36.968-.75 1.703-.75.781 0 1.187.546 1.187 1.171 0 .11-.03.219-.03.219 0 .094.093.094.124.094.078 0 .11 0 .14-.125Zm0 0"/></symbol><symbol overflow="visible" id="k"><path style="stroke:none" d="M3.188-1.781c0-.328-.172-.422-.282-.422-.14 0-.297.156-.297.281 0 .094.079.14.11.172.047.047.187.156.187.375 0 .281-.375 1.266-.969 1.266-.265 0-.484-.11-.484-.47 0-.25.125-.577.281-.937a.735.735 0 0 0 .063-.25c0-.25-.234-.437-.547-.437-.516 0-.797.64-.797.765 0 .079.078.079.11.079.078 0 .078-.032.109-.094.094-.344.328-.578.562-.578.094 0 .157.047.157.187 0 .094-.032.157-.094.297-.188.484-.266.719-.266.906 0 .485.39.704.875.704.407 0 .703-.297.875-.579.36-.53.406-1.171.406-1.265Zm0 0"/></symbol><symbol overflow="visible" id="l"><path style="stroke:none" d="M1.344-.063c0 .47-.25.75-.39.86C.905.828.89.844.89.875s.046.094.093.094c.063 0 .532-.39.532-1.016 0-.344-.157-.562-.375-.562-.188 0-.297.156-.297.312S.954 0 1.14 0c.078 0 .156-.016.203-.063Zm0 0"/></symbol><symbol overflow="visible" id="n"><path style="stroke:none" d="M.703.578C.656.718.656.75.438.75.358.75.28.75.28.875c0 .063.031.094.078.094.063 0 .157-.016.235-.016H1.14c.078 0 .187.016.28.016.063 0 .126-.031.126-.14C1.547.75 1.453.75 1.39.75c-.172 0-.282 0-.282-.063 0-.03.079-.343.235-.937a.729.729 0 0 0 .593.313c.704 0 1.407-.704 1.407-1.391 0-.5-.375-.875-.875-.875-.39 0-.688.25-.797.344-.094-.266-.39-.344-.578-.344-.172 0-.328.078-.453.281a1.665 1.665 0 0 0-.188.484c0 .079.078.079.11.079.078 0 .093-.032.109-.11.062-.203.156-.562.39-.562.172 0 .204.156.204.265 0 .063 0 .079-.016.125Zm.953-2.062c.016-.079.016-.094.11-.188.187-.219.453-.36.687-.36.203 0 .438.126.438.5 0 .22-.11.704-.25.938-.22.375-.516.485-.704.485-.406 0-.515-.407-.515-.454 0-.015.016-.046.016-.078Zm0 0"/></symbol><symbol overflow="visible" id="m"><path style="stroke:none" d="M.406-2.14v.218h.078c.188 0 .344.016.344.25v1.266c0 .156-.156.172-.312.172h-.11V0l.485-.031h.5L1.687 0v-.234h-.156c-.14 0-.265-.016-.265-.157v-.89c0-.485.421-.75.843-.75h.016c.39 0 .422.312.422.562V-.39c0 .141-.125.172-.266.172-.047 0-.094-.015-.14-.015V0l.28-.016h.985v-.218h-.14C3.125-.234 3-.25 3-.391v-.89c0-.485.422-.75.828-.75h.016c.39 0 .437.312.437.562V-.39c0 .141-.14.172-.265.172-.047 0-.11-.015-.141-.015V0l.469-.031h.515L5.141 0v-.234c-.063 0-.11.015-.157.015-.14 0-.265-.031-.265-.187V-1.578c-.032-.344-.219-.625-.844-.625-.313 0-.61.11-.813.344l-.093.125c-.047-.422-.64-.47-.813-.47-.328 0-.656.11-.86.392-.03.03-.046.062-.062.093l-.015-.484Zm0 0"/></symbol><symbol overflow="visible" id="o"><path style="stroke:none" d="M3.938-5.469c.046-.187.078-.281.218-.312.078-.016.36-.016.547-.016 1.031 0 1.344.063 1.344.766 0 .11 0 .25-.078.781l-.016.078c0 .063.031.125.125.125.11 0 .125-.094.14-.219l.235-1.562c.016-.031.016-.094.016-.125 0-.125-.078-.125-.25-.125h-5.11c-.218 0-.218.016-.28.187L.265-4.312c-.032.109-.032.14-.032.14 0 .047.032.125.11.125.11 0 .125-.062.172-.219.5-1.406.78-1.53 2.078-1.53h.344c.25 0 .25.03.25.109 0 .046-.016.109-.032.187L1.953-.703c-.078.312-.11.422-1.062.422-.282 0-.36 0-.36.172C.531 0 .641 0 .687 0c.235 0 .485-.016.735-.016s.5-.015.75-.015c.406 0 .422 0 .75.015.125 0 .703.016.781.016.078 0 .188 0 .188-.156 0-.125-.079-.125-.297-.125-.235 0-.344 0-.578-.016-.204-.031-.313-.031-.313-.187 0-.047.016-.11.031-.172Zm0 0"/></symbol><symbol overflow="visible" id="p"><path style="stroke:none" d="M-6.734-2.906c.046.125.218.281.328.39 1.093 1.125 2.61 1.61 4.156 1.61 1.656 0 3.344-.563 4.422-1.906.031-.047.078-.094.078-.141a.107.107 0 0 0-.11-.11c-.109 0-.296.25-.39.344-1.11.953-2.578 1.25-4.016 1.25-1.5 0-3.078-.343-4.187-1.453-.047-.047-.11-.14-.188-.14-.046 0-.093.046-.093.109v.047Zm0 0"/></symbol><symbol overflow="visible" id="x"><path style="stroke:none" d="M-6.734-.578c.03.047.062.062.093.062.11 0 .266-.218.36-.296C-5.188-1.797-3.656-2.11-2.22-2.11c1.469 0 3.078.343 4.172 1.437.047.047.11.156.188.156.046 0 .109-.062.109-.125-.031-.109-.219-.296-.328-.421-1.047-1.11-2.61-1.61-4.125-1.61-1.64 0-3.406.531-4.453 1.906-.032.047-.078.094-.078.141v.047Zm0 0"/></symbol><symbol overflow="visible" id="q"><path style="stroke:none" d="M-5.484-3.578c-.36 0-.36-.14-.36-.688h-.281c.031.594.031.704.031 1.188 0 .36 0 1.156-.031 1.469h.281v-.313c0-.844.11-.875.438-.875h4.078c.828 0 1.297.469 1.297.938 0 .359-.172.78-.5 1a.479.479 0 0 0-.485-.547.468.468 0 0 0-.484.484c0 .281.188.485.5.485.656 0 1.203-.625 1.203-1.454 0-.75-.469-1.546-1.328-1.671-.078-.016-.469-.016-.703-.016Zm0 0"/></symbol><symbol overflow="visible" id="r"><path style="stroke:none" d="M-5.297-5.375c-.531-.563-.547-1.125-.547-1.266h-.281c.031.25.031.704.031.797 0 .375-.015.703-.031 1.11h.281c0-.25.125-.391.297-.391.063 0 .14.031.203.078l2.766 2.984h-2.844c-.328 0-.422-.015-.422-.703v-.218h-.281c.031.406.031.906.031 1.328 0 .406 0 .906-.031 1.312h.281v-.203c0-.687.094-.703.422-.703h4.719c.328 0 .422.016.422.703v.203H0C-.031-.75-.031-1.25-.031-1.656c0-.422 0-.922.031-1.328h-.281v.218c0 .688-.094.704-.422.704H-2.25l-1-1.094 2.375-1.672c.11-.078.234-.156.344-.156.25 0 .25.343.25.515H0c-.031-.406-.031-.843-.031-1.25 0-.234 0-.593.031-1.047h-.281c0 .563-.078.688-.485.97L-3.75-3.688Zm0 0"/></symbol><symbol overflow="visible" id="u"><path style="stroke:none" d="M-2.328-1.672c-.969 0-1.406-.703-1.406-1.234 0-.5.343-.656.968-.656h2.079c.406 0 .406.093.406.687H0c-.016-.422-.031-.594-.031-1.016 0-.437.015-.546.031-1.03h-.281c0 .593 0 .702-.406.702h-1.641c-.969 0-1.406-.703-1.406-1.25 0-.484.343-.64.968-.64h2.079c.406 0 .406.093.406.687H0c-.016-.422-.031-.594-.031-1.031 0-.422.015-.547.031-1.016h-.281c0 .453 0 .672-.281.688h-1.72c-.78 0-1.03 0-1.359.297-.218.187-.328.546-.328.953 0 .656.375 1.093.86 1.343-.532.11-.86.47-.86 1.22 0 .718.469 1.155.89 1.343v.016h-.89l.11 1.296h.265c0-.609.063-.687.516-.687h2.39c.407 0 .407.094.407.688H0c-.016-.422-.031-.594-.031-1.032 0-.422.015-.547.031-1.015h-.281c0 .593 0 .687-.406.687Zm0 0"/></symbol><symbol overflow="visible" id="v"><path style="stroke:none" d="M-1.906-4.344c-1.172 0-2.11.938-2.11 2.032 0 1.14.954 2.046 2.11 2.046 1.11 0 2-.921 2-2.03 0-1.142-.906-2.048-2-2.048Zm1.75 2.032c0 .453-.219.828-.563 1.03-.39.235-.86.25-1.265.25-.344 0-.844 0-1.22-.218a1.222 1.222 0 0 1-.593-1.047c0-.515.297-.875.594-1.062.375-.204.828-.204 1.219-.204.328 0 .843 0 1.234.22.422.25.594.655.594 1.03Zm0 0"/></symbol><symbol overflow="visible" id="w"><path style="stroke:none" d="m-6.219-1.656.094 1.328h.281c0-.61.063-.688.5-.688h4.657c.406 0 .406.094.406.688H0c-.016-.422-.031-.594-.031-1 0-.422.015-.578.031-1.016h-.281c0 .594 0 .688-.406.688Zm0 0"/></symbol><symbol overflow="visible" id="s"><path style="stroke:none" d="M-1.344-4.766c0-.093 0-.25-.156-.25s-.156.157-.156.25V-1c0 .11 0 .25.156.25s.156-.14.156-.25Zm0 0"/></symbol><symbol overflow="visible" id="t"><path style="stroke:none" d="M-3.797-2.14c-.187 0-.187.015-.187.203.39.39.39 1 .39 1.218h.235c0-.156 0-.562-.172-.922h3.015c.204 0 .282 0 .282.625v.25H0c-.031-.328-.031-.796-.031-1.125 0-.328 0-.796.031-1.125h-.234v.25c0 .625-.078.625-.282.625Zm0 0"/></symbol></defs><path style="fill:none;stroke-width:.19925;stroke-linecap:butt;stroke-linejoin:miter;stroke:gray;stroke-opacity:1;stroke-miterlimit:10" d="M-2.124-.002h4.25M-2.124 32.3h4.25M-2.124 64.6h4.25m-4.25 32.3h4.25" transform="matrix(1 0 0 -1 30.21 117.768)"/><path style="fill:none;stroke-width:.3985;stroke-linecap:butt;stroke-linejoin:miter;stroke:#000;stroke-opacity:1;stroke-miterlimit:10" d="M0-.002h246.606" transform="matrix(1 0 0 -1 30.21 117.768)"/><path style="stroke:none;fill-rule:nonzero;fill:#000;fill-opacity:1" d="m278.809 117.77-3.188-1.594 1.195 1.594-1.195 1.593"/><path style="fill:none;stroke-width:.3985;stroke-linecap:butt;stroke-linejoin:miter;stroke:#000;stroke-opacity:1;stroke-miterlimit:10" d="M0-.002V104.87" transform="matrix(1 0 0 -1 30.21 117.768)"/><path style="stroke:none;fill-rule:nonzero;fill:#000;fill-opacity:1" d="m30.21 10.906-1.593 3.188 1.594-1.196 1.594 1.196"/><g style="fill:#000;fill-opacity:1"><use xlink:href="#a" x="16.876" y="120.657"/><use xlink:href="#b" x="21.484" y="120.657"/></g><g style="fill:#000;fill-opacity:1"><use xlink:href="#c" x="16.876" y="88.358"/><use xlink:href="#b" x="21.484" y="88.358"/></g><g style="fill:#000;fill-opacity:1"><use xlink:href="#d" x="16.876" y="56.059"/><use xlink:href="#b" x="21.484" y="56.059"/></g><g style="fill:#000;fill-opacity:1"><use xlink:href="#e" x="16.876" y="23.759"/><use xlink:href="#b" x="21.484" y="23.759"/></g><path style="fill:none;stroke-width:.19925;stroke-linecap:butt;stroke-linejoin:miter;stroke:gray;stroke-opacity:1;stroke-miterlimit:10" d="M19.888-2.127v4.254M218.75-2.127v4.254" transform="matrix(1 0 0 -1 30.21 117.768)"/><use xlink:href="#f" x="42.93" y="128.062" style="fill:#000;fill-opacity:1"/><use xlink:href="#g" x="47.537" y="128.062" style="fill:#000;fill-opacity:1"/><use xlink:href="#h" x="50.608" y="128.062" style="fill:#000;fill-opacity:1"/><g style="fill:#000;fill-opacity:1"><use xlink:href="#i" x="237.184" y="128.062"/><use xlink:href="#f" x="241.791" y="128.062"/><use xlink:href="#f" x="246.398" y="128.062"/></g><use xlink:href="#g" x="251.004" y="128.062" style="fill:#000;fill-opacity:1"/><use xlink:href="#h" x="254.075" y="128.062" style="fill:#000;fill-opacity:1"/><path style="fill:none;stroke-width:.99628;stroke-linecap:butt;stroke-linejoin:miter;stroke:#ff9d00;stroke-opacity:1;stroke-miterlimit:10" d="m19.907 83.881 1.988-.129 1.989-.136 1.988-.141 1.988-.144 1.989-.153 3.976-.32 1.988-.168 1.993-.172 1.988-.172 3.976-.367 1.989-.188 1.988-.191 1.988-.195 1.989-.2 1.988-.203 1.988-.207 1.988-.21 1.993-.215 1.988-.215 1.988-.219 1.988-.223 3.977-.453 1.988-.234 1.989-.23 3.976-.477 1.988-.242 1.993-.246 1.988-.247 3.976-.5 1.989-.257 1.988-.254 1.988-.258 3.977-.524 1.988-.265 1.988-.27 1.993-.265 1.988-.274 1.988-.27 1.988-.273 3.977-.554 7.953-1.125 1.988-.286 1.989-.289 1.992-.285 3.976-.578 7.954-1.172 7.953-1.187 1.992-.301 1.988-.297 7.953-1.203 3.977-.61 1.988-.3 3.977-.61 1.992-.304 1.988-.301 1.988-.309 9.942-1.523 1.988-.309 3.977-.61 1.992-.308 1.988-.3 1.988-.31 13.918-2.132 1.989-.3 1.992-.301 1.988-.305 1.184-.18" transform="matrix(1 0 0 -1 30.21 117.768)"/><path style="stroke:none;fill-rule:nonzero;fill:#dfdfdf;fill-opacity:1" d="M267.477 75.094h23.28V63.066h-23.28Zm0 0"/><use xlink:href="#j" x="270.462" y="70.141" style="fill:#000;fill-opacity:1"/><use xlink:href="#k" x="275.744" y="71.138" style="fill:#000;fill-opacity:1"/><use xlink:href="#l" x="279.521" y="71.138" style="fill:#000;fill-opacity:1"/><use xlink:href="#m" x="281.804" y="71.138" style="fill:#000;fill-opacity:1"/><path style="fill:none;stroke-width:.19925;stroke-linecap:butt;stroke-linejoin:miter;stroke:gray;stroke-opacity:1;stroke-miterlimit:10" d="m221.24 57.358 14.034-4.399" transform="matrix(1 0 0 -1 30.21 117.768)"/><path style="fill:none;stroke-width:.99628;stroke-linecap:butt;stroke-linejoin:miter;stroke:#00adef;stroke-opacity:1;stroke-miterlimit:10" d="m19.907 84.026 1.988-.195 1.989-.18 1.988-.164 1.988-.156 1.989-.145 1.988-.133 1.988-.125 1.988-.113 1.993-.106 1.988-.097 1.988-.09 1.988-.082 1.989-.078 3.976-.14 3.977-.118 1.988-.05 1.988-.044 1.993-.043 1.988-.039 1.988-.035 3.977-.063 1.988-.023 1.988-.02 1.989-.023 3.976-.031 1.988-.012 1.993-.012 3.976-.015 1.988-.004h1.989l1.988-.004h1.988l3.977.008h1.988l1.988.008 1.993.007 1.988.008 1.988.012 1.988.008 1.989.011 3.976.032 1.989.011 1.988.016 1.988.02 1.988.015 1.989.02 1.992.02 1.988.019 9.942.117 1.988.027 1.988.024 1.988.031 1.989.027 1.992.032 1.988.027 1.988.031 1.989.035 3.976.063 5.965.105 3.977.078 1.992.04 1.988.043 1.988.039 3.977.085 1.988.047 1.989.043 3.976.094 1.988.05 1.989.048 1.992.05 1.988.055 1.988.051 3.977.11 7.953.234 3.977.125 1.992.062 1.988.067 1.184.039" transform="matrix(1 0 0 -1 30.21 117.768)"/><path style="stroke:none;fill-rule:nonzero;fill:#dfdfdf;fill-opacity:1" d="M267.477 30.352h23.191V18.324h-23.191Zm0 0"/><use xlink:href="#j" x="270.462" y="25.398" style="fill:#000;fill-opacity:1"/><g style="fill:#000;fill-opacity:1"><use xlink:href="#n" x="275.744" y="26.394"/><use xlink:href="#l" x="279.429" y="26.394"/></g><use xlink:href="#m" x="281.712" y="26.394" style="fill:#000;fill-opacity:1"/><path style="fill:none;stroke-width:.19925;stroke-linecap:butt;stroke-linejoin:miter;stroke:gray;stroke-opacity:1;stroke-miterlimit:10" d="m221.24 84.76 14.034 4.406" transform="matrix(1 0 0 -1 30.21 117.768)"/><use xlink:href="#o" x="282.79" y="120.831" style="fill:#000;fill-opacity:1"/><use xlink:href="#p" x="12.643" y="97.719" style="fill:#000;fill-opacity:1"/><use xlink:href="#q" x="12.643" y="94.137" style="fill:#000;fill-opacity:1"/><use xlink:href="#r" x="12.643" y="87.869" style="fill:#000;fill-opacity:1"/><use xlink:href="#s" x="8.834" y="80.7" style="fill:#000;fill-opacity:1"/><use xlink:href="#t" x="8.834" y="74.943" style="fill:#000;fill-opacity:1"/><g style="fill:#000;fill-opacity:1"><use xlink:href="#u" x="12.643" y="69.256"/><use xlink:href="#v" x="12.643" y="61.576"/><use xlink:href="#w" x="12.643" y="56.968"/></g><use xlink:href="#s" x="8.834" y="54.409" style="fill:#000;fill-opacity:1"/><use xlink:href="#t" x="8.834" y="48.653" style="fill:#000;fill-opacity:1"/><use xlink:href="#x" x="12.643" y="44.502" style="fill:#000;fill-opacity:1"/><g style="fill:#000;fill-opacity:1"><use xlink:href="#h" x="89.187" y="11.157"/><use xlink:href="#y" x="95.841" y="11.157"/><use xlink:href="#z" x="100.448" y="11.157"/><use xlink:href="#y" x="105.566" y="11.157"/><use xlink:href="#A" x="110.173" y="11.157"/><use xlink:href="#B" x="114.268" y="11.157"/><use xlink:href="#C" x="116.827" y="11.157"/><use xlink:href="#D" x="120.41" y="11.157"/><use xlink:href="#E" x="124.508" y="11.157"/></g><g style="fill:#000;fill-opacity:1"><use xlink:href="#C" x="131.209" y="11.157"/><use xlink:href="#F" x="134.792" y="11.157"/><use xlink:href="#G" x="139.91" y="11.157"/><use xlink:href="#H" x="144.008" y="11.157"/><use xlink:href="#I" x="147.612" y="11.157"/><use xlink:href="#B" x="155.29" y="11.157"/><use xlink:href="#J" x="157.849" y="11.157"/><use xlink:href="#K" x="162.711" y="11.157"/><use xlink:href="#G" x="167.83" y="11.157"/><use xlink:href="#E" x="171.928" y="11.157"/></g><g style="fill:#000;fill-opacity:1"><use xlink:href="#L" x="178.638" y="11.157"/><use xlink:href="#G" x="183.756" y="11.157"/></g><g style="fill:#000;fill-opacity:1"><use xlink:href="#M" x="190.921" y="11.157"/><use xlink:href="#N" x="193.48" y="11.157"/><use xlink:href="#G" x="196.039" y="11.157"/><use xlink:href="#y" x="200.137" y="11.157"/><use xlink:href="#K" x="204.744" y="11.157"/></g></svg>