<svg xmlns="http://www.w3.org/2000/svg" xmlns:xlink="http://www.w3.org/1999/xlink" width="501.609" height="110.003" viewBox="0 0 376.207 82.502"><defs><symbol overflow="visible" id="c"><path style="stroke:none" d="M3.422-5.422c.078-.344.11-.422.828-.422.172 0 .266 0 .266-.172 0-.093-.094-.109-.141-.109-.188 0-.39.016-.578.016-.203 0-.547.015-.61.015-.203 0-.406-.015-.609-.015-.187 0-.406-.016-.594-.016-.046 0-.171 0-.171.156 0 .125.093.125.265.125.203 0 .406 0 .578.063a.275.275 0 0 1 .016.093c0 .032-.016.125-.016.157L1.437-.688c-.078.313-.093.407-.796.407-.188 0-.297 0-.297.172 0 .03.031.109.14.109.172 0 .375-.016.563-.016.203 0 .422-.015.625-.015s.406.015.61.015c.187 0 .405.016.593.016.063 0 .172 0 .172-.156 0-.125-.094-.125-.266-.125-.344 0-.61 0-.61-.156 0-.063 0-.079.048-.204Zm0 0"/></symbol><symbol overflow="visible" id="e"><path style="stroke:none" d="M3.938-5.469c.046-.187.078-.281.218-.312.078-.016.36-.016.547-.016 1.031 0 1.344.063 1.344.766 0 .11 0 .25-.078.781l-.016.078c0 .063.031.125.125.125.11 0 .125-.094.14-.219l.235-1.562c.016-.031.016-.094.016-.125 0-.125-.078-.125-.25-.125h-5.11c-.218 0-.218.016-.28.187L.265-4.312c-.032.109-.032.14-.032.14 0 .047.032.125.11.125.11 0 .125-.062.172-.219.5-1.406.78-1.53 2.078-1.53h.344c.25 0 .25.03.25.109 0 .046-.016.109-.032.187L1.953-.703c-.078.312-.11.422-1.062.422-.282 0-.36 0-.36.172C.531 0 .641 0 .687 0c.235 0 .485-.016.735-.016s.5-.015.75-.015c.406 0 .422 0 .75.015.125 0 .703.016.781.016.078 0 .188 0 .188-.156 0-.125-.079-.125-.297-.125-.235 0-.344 0-.578-.016-.204-.031-.313-.031-.313-.187 0-.047.016-.11.031-.172Zm0 0"/></symbol><symbol overflow="visible" id="I"><path style="stroke:none" d="M1.438-.688c-.079.329-.094.407-.766.407-.172 0-.266 0-.266.172C.406 0 .5 0 .656 0h3.016c1.922 0 3.703-1.906 3.703-3.844 0-1.219-.766-2.281-2.172-2.281H2.141c-.172 0-.282 0-.282.156 0 .125.094.125.282.125.03 0 .187 0 .328.016.156.016.219.031.219.14 0 .032 0 .079-.032.172ZM3.421-5.5c.078-.328.094-.344.469-.344h1.015c.938 0 1.672.516 1.672 1.672 0 .516-.219 1.953-.922 2.844C5.25-.812 4.5-.281 3.516-.281h-1.25c-.094-.016-.125-.031-.125-.094 0-.016 0-.031.046-.203Zm0 0"/></symbol><symbol overflow="visible" id="f"><path style="stroke:none" d="M3.219-1.125H3c-.016.094-.078.484-.156.547-.047.047-.531.047-.625.047h-1.11l.766-.625c.203-.172.734-.547.922-.735.172-.171.422-.484.422-.906 0-.75-.672-1.187-1.485-1.187-.765 0-1.296.515-1.296 1.078 0 .297.25.344.312.344a.32.32 0 0 0 .328-.329c0-.125-.078-.328-.344-.328.141-.297.5-.531.922-.531.625 0 .953.469.953.953 0 .422-.28.86-.687 1.25L.5-.25C.437-.187.437-.187.437 0h2.594Zm0 0"/></symbol><symbol overflow="visible" id="h"><path style="stroke:none" d="M2.14-3.797c0-.187-.015-.187-.203-.187-.39.39-1 .39-1.218.39v.235c.156 0 .562 0 .922-.172v3.015c0 .204 0 .282-.625.282h-.25V0c.328-.031.796-.031 1.125-.031.328 0 .796 0 1.125.031v-.234h-.25c-.625 0-.625-.078-.625-.282Zm0 0"/></symbol><symbol overflow="visible" id="i"><path style="stroke:none" d="M.266-3.422v.266H.39c.25 0 .484.015.484.39v2.157c0 .328-.203.343-.61.343v.25L.75-.03h.906l.563.015v-.25h-.281c-.25 0-.47-.03-.47-.328v-1.328c0-.578.313-1.375 1-1.375A.427.427 0 0 0 2.345-3c0 .219.187.36.36.36.202 0 .358-.172.358-.36 0-.344-.343-.516-.624-.516-.47 0-.938.422-1.016.844l-.016-.844-.39.032Zm0 0"/></symbol><symbol overflow="visible" id="j"><path style="stroke:none" d="M.938-1.828h2.437c.094 0 .14-.047.14-.14 0-.407-.109-.876-.406-1.157-.28-.297-.671-.422-1.078-.422-.937 0-1.797.703-1.797 1.781C.234-.859.954.078 2.11.078c.594 0 1.235-.375 1.391-.969.016-.015.016-.046.016-.062 0-.063-.047-.125-.11-.125-.156 0-.172.25-.25.36a1.175 1.175 0 0 1-.984.53c-.422 0-.828-.218-1.047-.609-.156-.312-.188-.672-.188-1.031Zm.015-.219c.078-.453.156-.937.625-1.172a.867.867 0 0 1 .438-.11c.515 0 .859.423.937 1 .016.095.016.188.031.282Zm.281-1.86c.204-.062.422-.234.625-.327l.438-.25c.156-.079.375-.157.375-.375 0-.157-.14-.329-.313-.329h-.015c-.25.016-.781.657-1.14.985-.032.031-.095.062-.095.11 0 .03.079.124.125.187Zm0 0"/></symbol><symbol overflow="visible" id="k"><path style="stroke:none" d="M.75-.266c.25.22.563.344.906.344.625 0 1.39-.234 1.39-1.125v-.062c-.03-.485-.421-.829-.858-.97-.454-.14-1.485-.093-1.485-.702 0-.469.61-.578.953-.578.485 0 .875.25.938.812 0 .063 0 .14.11.14.108 0 .14-.077.14-.171v-.86c0-.062-.047-.109-.125-.109-.14 0-.203.188-.297.188h-.016c-.125-.047-.234-.125-.375-.157-.125-.015-.234-.03-.36-.03-.577 0-1.39.155-1.39 1v.062c.016.28.203.484.422.656.625.406 1.828.14 1.922.953 0 .563-.5.719-.938.719-.609 0-1.03-.422-1.125-.969-.03-.094-.03-.203-.156-.203-.125 0-.125.078-.125.156v.969c0 .031-.015.078-.015.11 0 .077.03.171.109.171.078 0 .156-.094.188-.14L.609-.11C.656-.172.703-.22.75-.266Zm0 0"/></symbol><symbol overflow="visible" id="l"><path style="stroke:none" d="M.36-3.422v.266h.124c.25 0 .454.047.454.39v2.157c0 .328-.22.343-.61.343v.25L.812-.03h.813l.438.015v-.25h-.11c-.234 0-.437-.015-.437-.296v-2.954l-.282.032Zm.687-1.922a.45.45 0 0 0-.39.438c0 .218.187.437.437.437a.453.453 0 0 0 .453-.453.446.446 0 0 0-.438-.437c-.015 0-.046.015-.062.015Zm0 0"/></symbol><symbol overflow="visible" id="m"><path style="stroke:none" d="M1.234-4.906c0 .562-.265 1.515-1.078 1.515v.22h.719v2.062c0 .25.016.5.14.734.204.313.594.453.954.453.672 0 .843-.719.843-1.234v-.297h-.25c0 .11.016.219.016.344 0 .343-.094.937-.562.937-.438 0-.532-.469-.532-.86v-2.14h1.188v-.265H1.484v-1.47Zm0 0"/></symbol><symbol overflow="visible" id="n"><path style="stroke:none" d="M1.063-3.125v-.016c.265-.125.484-.187.78-.187.532 0 .891.406.891 1.015v.188c-.984 0-2.39.313-2.39 1.313 0 .671.812.89 1.328.89.453 0 .937-.203 1.156-.656 0 .344.281.61.61.61.406 0 .734-.298.734-.72v-.468h-.25v.39c0 .204-.031.5-.281.5s-.282-.296-.282-.468v-1.641c0-.797-.812-1.172-1.515-1.172-.422 0-1.235.125-1.235.766 0 .172.11.375.344.375.266 0 .406-.156.406-.36 0-.171-.093-.328-.296-.359Zm1.671 1.203v.781c0 .563-.421.985-.968.985-.36 0-.735-.235-.766-.61v-.046c0-.86 1.078-1.063 1.734-1.11Zm0 0"/></symbol><symbol overflow="visible" id="o"><path style="stroke:none" d="M.313-3.422v.266h.156c.234 0 .453.031.453.39v2.157c0 .328-.203.343-.61.343v.25l.5-.015h.829l.5.015v-.25h-.172c-.235 0-.438-.03-.438-.328v-1.469c0-.593.39-1.234 1.157-1.234.453 0 .578.406.578.875v1.844c0 .281-.22.312-.438.312h-.172v.25l.5-.015H4l.484.015v-.25h-.156c-.234 0-.453-.03-.453-.312v-1.703c0-.266 0-.531-.125-.781-.203-.344-.625-.454-1-.454-.484 0-1.078.266-1.266.766v-.766l-.296.032Zm0 0"/></symbol><symbol overflow="visible" id="p"><path style="stroke:none" d="M2.922-3.172c-.156.063-.25.188-.25.344 0 .234.172.375.422.375.219 0 .328-.203.328-.375 0-.578-.688-.688-1.172-.719h-.094c-1.031 0-1.875.797-1.875 1.828 0 .985.828 1.797 1.844 1.797.563 0 1.11-.297 1.328-.844.016-.062.063-.125.063-.187 0-.078-.047-.11-.11-.11-.156 0-.125.172-.234.313-.188.36-.547.578-.953.578C1.39-.172.984-.953.984-1.766c0-.64.266-1.546 1.188-1.546.219 0 .531.015.75.14Zm0 0"/></symbol><symbol overflow="visible" id="q"><path style="stroke:none" d="M.938-1.828h2.437c.094 0 .14-.047.14-.14 0-.407-.109-.876-.406-1.157-.28-.297-.671-.422-1.078-.422-.937 0-1.797.703-1.797 1.781C.234-.859.954.078 2.11.078c.594 0 1.235-.375 1.391-.969.016-.015.016-.046.016-.062 0-.063-.047-.125-.11-.125-.156 0-.172.25-.25.36a1.175 1.175 0 0 1-.984.53c-.422 0-.828-.218-1.047-.609-.156-.312-.188-.672-.188-1.031Zm.015-.219c.078-.453.156-.937.625-1.172a.867.867 0 0 1 .438-.11c.515 0 .859.423.937 1 .016.095.016.188.031.282Zm0 0"/></symbol><symbol overflow="visible" id="r"><path style="stroke:none" d="M.313-5.453v.266h.156c.25 0 .453.03.453.39V-.78c0 .047.015.11.015.172 0 .328-.25.343-.578.343H.313v.25l.5-.015h.828l.5.015v-.25h-.172c-.235 0-.438-.03-.438-.328v-1.469c0-.593.39-1.234 1.157-1.234.453 0 .578.406.578.875v1.844c0 .281-.22.312-.438.312h-.172v.25l.5-.015H4l.484.015v-.25h-.156c-.219 0-.453-.03-.453-.312v-1.719c0-.25 0-.5-.11-.719-.187-.375-.609-.5-1-.5-.468 0-1.046.235-1.25.704v-2.72Zm0 0"/></symbol><symbol overflow="visible" id="s"><path style="stroke:none" d="M.313-3.422v.266h.109c.203 0 .453.015.484.234.016.078.016.172.016.25v1.578c0 .235.015.469.125.672.234.39.734.5 1.125.5.375 0 .719-.125.937-.406a.714.714 0 0 0 .172-.25l.016.656 1.187-.094v-.25h-.156c-.219 0-.453-.03-.453-.39v-2.86l-1.219.094v.266h.094c.281 0 .516.015.516.39v1.36c0 .64-.344 1.25-1.032 1.25-.28 0-.64-.063-.687-.469-.016-.14-.016-.297-.016-.438v-2.453Zm0 0"/></symbol><symbol overflow="visible" id="t"><path style="stroke:none" d="M.875-3.438H.219v.266h.656v2.61c0 .28-.234.296-.5.296h-.11v.25L.75-.03h.828l.5.015v-.25h-.156c-.234 0-.453-.03-.453-.296v-2.61h1.765v2.61c0 .28-.25.296-.5.296h-.109v.25l.469-.015h.922l.562.015v-.25h-.25c-.328 0-.516-.03-.516-.359v-2.547h.954v-.265h-.97v-.735c0-.516.142-1.219.75-1.219.063 0 .141.016.22.032a.367.367 0 0 0 .187.687c.25 0 .36-.187.36-.36 0-.405-.422-.593-.766-.593-.266 0-.578.094-.781.25-.032.016-.063.063-.11.063s-.156-.125-.25-.157a1.595 1.595 0 0 0-.594-.156h-.109c-.828 0-1.828.375-1.828 1.36ZM3.25-4.609c-.016.109-.016.203-.016.312v.86H1.438v-.813c0-.766.609-1.14 1.25-1.14h.062c.203.015.344.062.547.109-.14.078-.25.172-.25.343 0 .141.078.282.203.329Zm0 0"/></symbol><symbol overflow="visible" id="u"><path style="stroke:none" d="M.266-3.422v.266H.39c.25 0 .484.015.484.328V.953c0 .313-.219.328-.61.328v.25l.485-.015h.844l.5.015v-.25h-.188c-.218 0-.422-.031-.422-.328L1.5-.39c.172.297.672.47 1.047.47.969 0 1.875-.782 1.875-1.798 0-.89-.719-1.797-1.75-1.797-.453 0-.875.157-1.203.485v-.485Zm3.437 1.828C3.672-.954 3.25-.156 2.47-.156c-.406 0-.985-.39-.985-.75V-2.47c0-.453.594-.797 1.063-.797.797 0 1.156.922 1.156 1.547v.125Zm0 0"/></symbol><symbol overflow="visible" id="v"><path style="stroke:none" d="M1.984-3.547c-.906.094-1.75.75-1.75 1.875 0 1.078.985 1.75 1.907 1.75C3.062.078 4-.64 4-1.688c0-1.03-.86-1.859-1.906-1.859Zm-1.046 2v-.203c0-.422.03-.969.375-1.281.218-.203.515-.297.812-.297.813 0 1.156.672 1.156 1.5 0 .437-.015.922-.312 1.281-.219.25-.531.375-.86.375-.593 0-1.046-.422-1.14-1.047-.016-.11-.016-.218-.031-.328Zm0 0"/></symbol><symbol overflow="visible" id="w"><path style="stroke:none" d="M2.625-5.453v.266h.078c.313 0 .531.015.531.484v1.64c-.296-.28-.656-.453-1.078-.453-.984 0-1.875.766-1.875 1.797 0 .985.813 1.797 1.797 1.797.422 0 .844-.187 1.125-.515v.515l1.219-.094v-.25h-.125c-.234 0-.484-.03-.484-.406v-4.86ZM.985-1.547v-.11c0-.562.109-1.234.718-1.515.156-.078.344-.125.5-.125.36 0 .75.203.938.531.03.032.062.063.062.11v1.719c0 .406-.656.78-1.062.78-.594 0-1.016-.468-1.11-1.03-.015-.125-.031-.235-.047-.36Zm0 0"/></symbol><symbol overflow="visible" id="x"><path style="stroke:none" d="M.266-5.453v.266H.39c.25 0 .484.03.484.39v4.781h.234L1.406-.5c.313.344.657.578 1.125.578.969 0 1.89-.765 1.89-1.797 0-.937-.765-1.797-1.796-1.797-.453 0-.844.172-1.156.485v-2.5Zm3.437 3.906c-.031.328-.078.672-.312.953a1.178 1.178 0 0 1-.907.438c-.343 0-1-.313-1-.766V-2.484c0-.47.61-.813 1.079-.813.89 0 1.14.938 1.14 1.578v.172Zm0 0"/></symbol><symbol overflow="visible" id="y"><path style="stroke:none" d="M3.203-.484 3.22.969c0 .281-.188.312-.61.312v.25l.5-.015h.829l.5.015v-.25h-.172c-.235 0-.438-.031-.438-.343v-4.454L3.61-3.5l-.312.672c-.25-.422-.672-.688-1.172-.688-1 0-1.844.813-1.844 1.797 0 1 .828 1.797 1.797 1.797.39 0 .922-.203 1.125-.562ZM.984-1.61v-.079c0-.53.204-1.156.735-1.437a.97.97 0 0 1 .5-.14c.484 0 .953.468 1.015.953v1.203c0 .484-.562.843-.859.921-.078.016-.156.032-.25.032h-.047c-.562-.032-.922-.578-1.031-1.063a2.916 2.916 0 0 1-.063-.39Zm0 0"/></symbol><symbol overflow="visible" id="z"><path style="stroke:none" d="M1.031-2.063h2.657c.109 0 .156-.046.156-.156 0-1.125-.703-1.797-1.64-1.797-1.095 0-1.954.954-1.954 2.047C.25-.875 1.125.094 2.344.094c.64 0 1.281-.453 1.469-1.078.015-.016.015-.063.015-.094a.107.107 0 0 0-.11-.11c-.171 0-.171.266-.265.391-.219.375-.656.64-1.094.64h-.062C1.828-.171 1.422-.5 1.219-.921c-.172-.36-.188-.75-.188-1.14Zm.016-.218c0-.594.25-1.281.906-1.485a.914.914 0 0 1 .203-.03c.781 0 1.063.796 1.063 1.515Zm1.484-3.5c-.156.015-.312.203-.422.312-.28.282-.578.547-.859.828-.016.016-.016.032-.016.047 0 .063.079.188.141.188.047 0 .094-.047.125-.063l.25-.14c.39-.22 1.172-.516 1.172-.829 0-.171-.156-.359-.344-.359-.015 0-.031.016-.047.016Zm0 0"/></symbol><symbol overflow="visible" id="A"><path style="stroke:none" d="M3.25-3.531c-.188.062-.36.172-.36.422 0 .218.157.406.422.406.235 0 .422-.172.422-.438 0-.64-.765-.859-1.312-.875h-.094A2.04 2.04 0 0 0 .313-1.953c0 1.094.859 2.047 2 2.047.624 0 1.203-.328 1.453-.969.015-.063.062-.14.062-.203s-.062-.11-.125-.11c-.156 0-.156.235-.234.36-.219.406-.61.672-1.094.672-.984 0-1.297-1.125-1.297-1.813 0-.734.266-1.797 1.266-1.797.25 0 .515.032.734.141.063.016.11.063.172.094Zm0 0"/></symbol><symbol overflow="visible" id="B"><path style="stroke:none" d="M2.172-4.016c-1.047.11-1.906.954-1.906 2.094C.266-1 .953.094 2.312.094c1.047 0 2.032-.844 2.032-2 0-1.078-.844-2.125-2.047-2.125-.047 0-.078.015-.125.015ZM1.047-1.719v-.375c0-.719.219-1.703 1.266-1.703.703 0 1.156.563 1.234 1.281.015.188.015.375.015.563 0 .469-.03 1-.359 1.375a1.19 1.19 0 0 1-.906.422c-.656 0-1.11-.5-1.235-1.219 0-.11 0-.219-.015-.344Zm0 0"/></symbol><symbol overflow="visible" id="C"><path style="stroke:none" d="M.313-3.86v.266H.39c.25 0 .593.031.593.281.016.11.016.188.016.297v1.782c0 .28.016.53.14.78.266.438.813.548 1.282.548.5 0 .984-.297 1.14-.766l.016.766 1.328-.11V-.28H4.75c-.266 0-.531-.031-.531-.438v-3.25l-1.36.11v.265h.125c.282 0 .563.031.563.453v1.766C3.5-.797 3.14-.141 2.453-.141c-.36 0-.687-.078-.765-.546-.016-.172-.016-.329-.016-.5V-3.97Zm0 0"/></symbol><symbol overflow="visible" id="D"><path style="stroke:none" d="M.328-6.14v.28h.11c.312 0 .578.016.578.47v4.718c0 .375-.25.39-.641.39H.328v.266h2.016V-.28h-.235c-.234 0-.453-.047-.453-.36v-5.593Zm0 0"/></symbol><symbol overflow="visible" id="E"><path style="stroke:none" d="M1.031-2.063h2.657c.109 0 .156-.046.156-.156 0-1.125-.703-1.797-1.64-1.797-1.095 0-1.954.954-1.954 2.047C.25-.875 1.125.094 2.344.094c.64 0 1.281-.453 1.469-1.078.015-.016.015-.063.015-.094a.107.107 0 0 0-.11-.11c-.171 0-.171.266-.265.391-.219.375-.656.64-1.094.64h-.062C1.828-.171 1.422-.5 1.219-.921c-.172-.36-.188-.75-.188-1.14Zm.016-.218c0-.594.25-1.281.906-1.485a.914.914 0 0 1 .203-.03c.781 0 1.063.796 1.063 1.515Zm0 0"/></symbol><symbol overflow="visible" id="F"><path style="stroke:none" d="M.313-3.86v.266h.14c.266 0 .547.031.547.453v2.485c0 .36-.234.375-.688.375v.265L.954-.03H2.36v-.25h-.203c-.265 0-.484-.047-.484-.375v-1.797c.047-.64.484-1.281 1.25-1.281.578 0 .64.578.64 1v2.109c0 .313-.265.344-.562.344h-.125v.265L3.5-.03h1.422v-.25h-.219c-.25 0-.484-.047-.484-.375v-1.797c.062-.64.484-1.281 1.265-1.281.563 0 .625.578.625 1v2.109c0 .313-.25.344-.546.344h-.141v.265h2.047V-.28h-.172c-.25 0-.516-.031-.516-.36v-2.015c0-.281-.015-.547-.14-.781-.235-.422-.704-.532-1.141-.532-.547 0-1.11.36-1.297.86h-.016c-.078-.625-.656-.86-1.203-.86-.578 0-1.14.328-1.359.89l-.016-.89Zm0 0"/></symbol><symbol overflow="visible" id="G"><path style="stroke:none" d="M.313-3.86v.266h.14c.266 0 .547.031.547.453v2.485c0 .36-.234.375-.688.375v.265L.954-.03H2.36v-.25h-.203c-.265 0-.484-.047-.484-.375v-1.61c0-.687.406-1.468 1.25-1.468.484 0 .625.437.625 1v2.109c0 .313-.25.344-.547.344h-.14v.265L3.5-.03h1.406v-.25h-.172c-.265 0-.515-.031-.515-.36v-2.015c0-.281-.016-.531-.14-.781-.235-.422-.704-.532-1.141-.532-.547 0-1.11.375-1.313.89l-.016-.89Zm0 0"/></symbol><symbol overflow="visible" id="H"><path style="stroke:none" d="M1.36-5.531c0 .656-.298 1.718-1.188 1.718v.22h.781v2.374c0 .282.016.547.156.782.22.39.672.53 1.079.53h.078c.687-.124.796-.859.796-1.39v-.328h-.25c0 .125.016.25.016.39 0 .391-.094 1.079-.625 1.079-.484 0-.594-.563-.594-1.016v-2.422h1.313v-.265H1.609v-1.672Zm0 0"/></symbol><symbol overflow="visible" id="J"><path style="stroke:none" d="M.375-2.578v.25h.094c.219 0 .375.015.375.375v1.469c0 .234-.156.234-.469.234V0l.344-.031h1.094V-.25h-.141c-.172 0-.328-.016-.328-.203v-1.078c0-.547.453-.907.953-.907.437 0 .484.344.484.626V-.47c0 .203-.156.219-.344.219h-.124V0l.343-.031h1.11V-.25h-.157c-.171 0-.328-.016-.328-.203v-1.078c0-.547.453-.907.953-.907h.016c.406 0 .469.329.469.626V-.47c0 .203-.157.219-.344.219H4.25V0l.344-.031h1.11V-.25h-.157c-.172 0-.328-.016-.328-.219V-1.75c0-.188 0-.375-.11-.547-.171-.281-.515-.344-.828-.344-.437 0-.734.172-1.031.547-.047-.437-.594-.547-.89-.547-.407 0-.907.204-1.047.563l-.016-.563Zm0 0"/></symbol><clipPath id="a"><path d="M31.008 41h283.469v19.773H31.007Zm0 0"/></clipPath><clipPath id="d"><path d="M256 0h60v82.504h-60Zm0 0"/></clipPath><clipPath id="g"><path d="M30 0h59v82.504H30Zm0 0"/></clipPath><linearGradient id="b" gradientUnits="userSpaceOnUse" x1="0" y1="25.003" x2="0" y2="74.997" gradientTransform="matrix(5.67004 0 0 -.39856 -110.76 70.737)"><stop offset="0" style="stop-color:#bfbfff;stop-opacity:1"/><stop offset=".008" style="stop-color:#c0c0ff;stop-opacity:1"/><stop offset=".016" style="stop-color:#c0c0ff;stop-opacity:1"/><stop offset=".023" style="stop-color:#c1c1ff;stop-opacity:1"/><stop offset=".031" style="stop-color:#c1c1ff;stop-opacity:1"/><stop offset=".039" style="stop-color:#c2c2ff;stop-opacity:1"/><stop offset=".047" style="stop-color:#c3c3ff;stop-opacity:1"/><stop offset=".055" style="stop-color:#c3c3ff;stop-opacity:1"/><stop offset=".063" style="stop-color:#c4c4ff;stop-opacity:1"/><stop offset=".07" style="stop-color:#c4c4ff;stop-opacity:1"/><stop offset=".078" style="stop-color:#c5c5ff;stop-opacity:1"/><stop offset=".086" style="stop-color:#c6c6ff;stop-opacity:1"/><stop offset=".094" style="stop-color:#c6c6ff;stop-opacity:1"/><stop offset=".102" style="stop-color:#c7c7ff;stop-opacity:1"/><stop offset=".109" style="stop-color:#c7c7ff;stop-opacity:1"/><stop offset=".117" style="stop-color:#c8c8ff;stop-opacity:1"/><stop offset=".125" style="stop-color:#c9c9ff;stop-opacity:1"/><stop offset=".133" style="stop-color:#c9c9ff;stop-opacity:1"/><stop offset=".141" style="stop-color:#cacaff;stop-opacity:1"/><stop offset=".148" style="stop-color:#cacaff;stop-opacity:1"/><stop offset=".156" style="stop-color:#cbcbff;stop-opacity:1"/><stop offset=".164" style="stop-color:#ccf;stop-opacity:1"/><stop offset=".172" style="stop-color:#ccf;stop-opacity:1"/><stop offset=".18" style="stop-color:#cdcdff;stop-opacity:1"/><stop offset=".188" style="stop-color:#cdcdff;stop-opacity:1"/><stop offset=".195" style="stop-color:#ceceff;stop-opacity:1"/><stop offset=".203" style="stop-color:#ceceff;stop-opacity:1"/><stop offset=".211" style="stop-color:#cfcfff;stop-opacity:1"/><stop offset=".219" style="stop-color:#d0d0ff;stop-opacity:1"/><stop offset=".227" style="stop-color:#d0d0ff;stop-opacity:1"/><stop offset=".234" style="stop-color:#d1d1ff;stop-opacity:1"/><stop offset=".242" style="stop-color:#d1d1ff;stop-opacity:1"/><stop offset=".25" style="stop-color:#d2d2ff;stop-opacity:1"/><stop offset=".258" style="stop-color:#d3d3ff;stop-opacity:1"/><stop offset=".266" style="stop-color:#d3d3ff;stop-opacity:1"/><stop offset=".273" style="stop-color:#d4d4ff;stop-opacity:1"/><stop offset=".281" style="stop-color:#d4d4ff;stop-opacity:1"/><stop offset=".289" style="stop-color:#d5d5ff;stop-opacity:1"/><stop offset=".297" style="stop-color:#d6d6ff;stop-opacity:1"/><stop offset=".305" style="stop-color:#d6d6ff;stop-opacity:1"/><stop offset=".313" style="stop-color:#d7d7ff;stop-opacity:1"/><stop offset=".32" style="stop-color:#d7d7ff;stop-opacity:1"/><stop offset=".328" style="stop-color:#d8d8ff;stop-opacity:1"/><stop offset=".336" style="stop-color:#d9d9ff;stop-opacity:1"/><stop offset=".344" style="stop-color:#d9d9ff;stop-opacity:1"/><stop offset=".352" style="stop-color:#dadaff;stop-opacity:1"/><stop offset=".359" style="stop-color:#dadaff;stop-opacity:1"/><stop offset=".367" style="stop-color:#dbdbff;stop-opacity:1"/><stop offset=".375" style="stop-color:#dcdcff;stop-opacity:1"/><stop offset=".383" style="stop-color:#dcdcff;stop-opacity:1"/><stop offset=".391" style="stop-color:#ddf;stop-opacity:1"/><stop offset=".398" style="stop-color:#ddf;stop-opacity:1"/><stop offset=".406" style="stop-color:#dedeff;stop-opacity:1"/><stop offset=".414" style="stop-color:#dfdfff;stop-opacity:1"/><stop offset=".422" style="stop-color:#dfdfff;stop-opacity:1"/><stop offset=".43" style="stop-color:#e0e0ff;stop-opacity:1"/><stop offset=".438" style="stop-color:#e0e0ff;stop-opacity:1"/><stop offset=".445" style="stop-color:#e1e1ff;stop-opacity:1"/><stop offset=".453" style="stop-color:#e2e2ff;stop-opacity:1"/><stop offset=".461" style="stop-color:#e2e2ff;stop-opacity:1"/><stop offset=".469" style="stop-color:#e3e3ff;stop-opacity:1"/><stop offset=".477" style="stop-color:#e3e3ff;stop-opacity:1"/><stop offset=".484" style="stop-color:#e4e4ff;stop-opacity:1"/><stop offset=".492" style="stop-color:#e5e5ff;stop-opacity:1"/><stop offset=".5" style="stop-color:#e5e5ff;stop-opacity:1"/><stop offset=".508" style="stop-color:#e5e5ff;stop-opacity:1"/><stop offset=".516" style="stop-color:#e5e5ff;stop-opacity:1"/><stop offset=".523" style="stop-color:#e4e4ff;stop-opacity:1"/><stop offset=".531" style="stop-color:#e3e3ff;stop-opacity:1"/><stop offset=".539" style="stop-color:#e3e3ff;stop-opacity:1"/><stop offset=".547" style="stop-color:#e2e2ff;stop-opacity:1"/><stop offset=".555" style="stop-color:#e2e2ff;stop-opacity:1"/><stop offset=".563" style="stop-color:#e1e1ff;stop-opacity:1"/><stop offset=".57" style="stop-color:#e0e0ff;stop-opacity:1"/><stop offset=".578" style="stop-color:#e0e0ff;stop-opacity:1"/><stop offset=".586" style="stop-color:#dfdfff;stop-opacity:1"/><stop offset=".594" style="stop-color:#dfdfff;stop-opacity:1"/><stop offset=".602" style="stop-color:#dedeff;stop-opacity:1"/><stop offset=".609" style="stop-color:#ddf;stop-opacity:1"/><stop offset=".617" style="stop-color:#ddf;stop-opacity:1"/><stop offset=".625" style="stop-color:#dcdcff;stop-opacity:1"/><stop offset=".633" style="stop-color:#dcdcff;stop-opacity:1"/><stop offset=".641" style="stop-color:#dbdbff;stop-opacity:1"/><stop offset=".648" style="stop-color:#dadaff;stop-opacity:1"/><stop offset=".656" style="stop-color:#dadaff;stop-opacity:1"/><stop offset=".664" style="stop-color:#d9d9ff;stop-opacity:1"/><stop offset=".672" style="stop-color:#d9d9ff;stop-opacity:1"/><stop offset=".68" style="stop-color:#d8d8ff;stop-opacity:1"/><stop offset=".688" style="stop-color:#d7d7ff;stop-opacity:1"/><stop offset=".695" style="stop-color:#d7d7ff;stop-opacity:1"/><stop offset=".703" style="stop-color:#d6d6ff;stop-opacity:1"/><stop offset=".711" style="stop-color:#d6d6ff;stop-opacity:1"/><stop offset=".719" style="stop-color:#d5d5ff;stop-opacity:1"/><stop offset=".727" style="stop-color:#d4d4ff;stop-opacity:1"/><stop offset=".734" style="stop-color:#d4d4ff;stop-opacity:1"/><stop offset=".742" style="stop-color:#d3d3ff;stop-opacity:1"/><stop offset=".75" style="stop-color:#d3d3ff;stop-opacity:1"/><stop offset=".758" style="stop-color:#d2d2ff;stop-opacity:1"/><stop offset=".766" style="stop-color:#d1d1ff;stop-opacity:1"/><stop offset=".773" style="stop-color:#d1d1ff;stop-opacity:1"/><stop offset=".781" style="stop-color:#d0d0ff;stop-opacity:1"/><stop offset=".789" style="stop-color:#d0d0ff;stop-opacity:1"/><stop offset=".797" style="stop-color:#cfcfff;stop-opacity:1"/><stop offset=".805" style="stop-color:#ceceff;stop-opacity:1"/><stop offset=".813" style="stop-color:#ceceff;stop-opacity:1"/><stop offset=".82" style="stop-color:#cdcdff;stop-opacity:1"/><stop offset=".828" style="stop-color:#cdcdff;stop-opacity:1"/><stop offset=".836" style="stop-color:#ccf;stop-opacity:1"/><stop offset=".844" style="stop-color:#ccf;stop-opacity:1"/><stop offset=".852" style="stop-color:#cbcbff;stop-opacity:1"/><stop offset=".859" style="stop-color:#cacaff;stop-opacity:1"/><stop offset=".867" style="stop-color:#cacaff;stop-opacity:1"/><stop offset=".875" style="stop-color:#c9c9ff;stop-opacity:1"/><stop offset=".883" style="stop-color:#c9c9ff;stop-opacity:1"/><stop offset=".891" style="stop-color:#c8c8ff;stop-opacity:1"/><stop offset=".898" style="stop-color:#c7c7ff;stop-opacity:1"/><stop offset=".906" style="stop-color:#c7c7ff;stop-opacity:1"/><stop offset=".914" style="stop-color:#c6c6ff;stop-opacity:1"/><stop offset=".922" style="stop-color:#c6c6ff;stop-opacity:1"/><stop offset=".93" style="stop-color:#c5c5ff;stop-opacity:1"/><stop offset=".938" style="stop-color:#c4c4ff;stop-opacity:1"/><stop offset=".945" style="stop-color:#c4c4ff;stop-opacity:1"/><stop offset=".953" style="stop-color:#c3c3ff;stop-opacity:1"/><stop offset=".961" style="stop-color:#c3c3ff;stop-opacity:1"/><stop offset=".969" style="stop-color:#c2c2ff;stop-opacity:1"/><stop offset=".977" style="stop-color:#c1c1ff;stop-opacity:1"/><stop offset=".984" style="stop-color:#c1c1ff;stop-opacity:1"/><stop offset=".992" style="stop-color:#c0c0ff;stop-opacity:1"/><stop offset="1" style="stop-color:#c0c0ff;stop-opacity:1"/></linearGradient></defs><path style="stroke:none;fill-rule:nonzero;fill:#bfbfff;fill-opacity:1" d="M31.008 40.848v19.925h283.469V40.848Zm0 0"/><g clip-path="url(#a)"><path style="stroke:none;fill-rule:nonzero;fill:url(#b)" d="M31.008 60.773V40.848h283.469v19.925Zm0 0"/></g><path style="fill:none;stroke-width:1.59404;stroke-linecap:butt;stroke-linejoin:miter;stroke:#000;stroke-opacity:1;stroke-miterlimit:10" d="M-141.734 9.961h283.469M-141.734-9.964h283.469" transform="matrix(1 0 0 -1 172.742 50.809)"/><path style="fill:none;stroke-width:.3985;stroke-linecap:butt;stroke-linejoin:miter;stroke:#000;stroke-opacity:1;stroke-miterlimit:10" d="M-85.039 28.348V21.97" transform="matrix(1 0 0 -1 172.742 50.809)"/><path style="stroke:none;fill-rule:nonzero;fill:#000;fill-opacity:1" d="M87.703 32.426c.2-1.063.797-2.79 1.492-3.985h-2.988c.7 1.196 1.297 2.922 1.496 3.985"/><use xlink:href="#c" x="89.695" y="30.508" style="fill:#000;fill-opacity:1"/><path style="fill:none;stroke-width:.3985;stroke-linecap:butt;stroke-linejoin:miter;stroke:#000;stroke-opacity:1;stroke-miterlimit:10" d="M-85.039 28.348V3.985c0-2.2 1.781-3.985 3.984-3.985h24.36M85.04 28.348V3.985c0-2.2-1.782-3.985-3.985-3.985h-24.36M-56.695 0c.168 2.211.867 3.985 1.695 3.985.828 0 1.528-1.774 1.696-3.985.164-2.21-.204-3.984-.7-3.984s-.863 1.773-.699 3.984c.168 2.211.867 3.985 1.695 3.985.829 0 1.528-1.774 1.696-3.985.164-2.21-.203-3.984-.7-3.984-.496 0-.863 1.773-.695 3.984.164 2.211.863 3.985 1.692 3.985.832 0 1.527-1.774 1.695-3.985.164-2.21-.2-3.984-.7-3.984-.495 0-.863 1.773-.695 3.984.164 2.211.864 3.985 1.692 3.985.832 0 1.527-1.774 1.695-3.985.164-2.21-.2-3.984-.7-3.984-.495 0-.862 1.773-.694 3.984.164 2.211.863 3.985 1.69 3.985.833 0 1.528-1.774 1.696-3.985.164-2.21-.199-3.984-.699-3.984-.496 0-.863 1.773-.695 3.984.164 2.211.863 3.985 1.691 3.985.832 0 1.531-1.774 1.695-3.985.168-2.21-.199-3.984-.699-3.984-.496 0-.863 1.773-.695 3.984.164 2.211.863 3.985 1.695 3.985.828 0 1.528-1.774 1.692-3.985.168-2.21-.2-3.984-.696-3.984-.5 0-.863 1.773-.699 3.984.168 2.211.863 3.985 1.695 3.985.829 0 1.528-1.774 1.692-3.985.168-2.21-.2-3.984-.695-3.984-.5 0-.864 1.773-.7 3.984.168 2.211.864 3.985 1.696 3.985.828 0 1.527-1.774 1.691-3.985.168-2.21-.2-3.984-.695-3.984-.5 0-.864 1.773-.7 3.984.168 2.211.864 3.985 1.696 3.985.828 0 1.527-1.774 1.691-3.985.168-2.21-.199-3.984-.695-3.984-.5 0-.863 1.773-.7 3.984.169 2.211.868 3.985 1.696 3.985S-33.547 2.21-33.383 0c.168-2.21-.199-3.984-.695-3.984-.496 0-.863 1.773-.7 3.984.169 2.211.868 3.985 1.696 3.985S-31.555 2.21-31.387 0c.165-2.21-.203-3.984-.699-3.984-.496 0-.863 1.773-.699 3.984.168 2.211.867 3.985 1.695 3.985.828 0 1.528-1.774 1.696-3.985.164-2.21-.203-3.984-.7-3.984-.496 0-.863 1.773-.695 3.984.164 2.211.863 3.985 1.692 3.985.832 0 1.527-1.774 1.695-3.985.164-2.21-.2-3.984-.7-3.984-.495 0-.863 1.773-.695 3.984.164 2.211.864 3.985 1.692 3.985.832 0 1.527-1.774 1.695-3.985.164-2.21-.2-3.984-.7-3.984-.495 0-.862 1.773-.695 3.984.165 2.211.864 3.985 1.692 3.985.832 0 1.527-1.774 1.695-3.985.164-2.21-.199-3.984-.699-3.984-.496 0-.863 1.773-.695 3.984.164 2.211.863 3.985 1.691 3.985.832 0 1.531-1.774 1.695-3.985.168-2.21-.199-3.984-.699-3.984-.496 0-.863 1.773-.695 3.984.164 2.211.863 3.985 1.695 3.985.828 0 1.528-1.774 1.692-3.985.168-2.21-.2-3.984-.696-3.984-.5 0-.863 1.773-.699 3.984.168 2.211.863 3.985 1.695 3.985.828 0 1.528-1.774 1.692-3.985.168-2.21-.2-3.984-.696-3.984-.5 0-.863 1.773-.699 3.984.168 2.211.864 3.985 1.696 3.985.828 0 1.527-1.774 1.691-3.985.168-2.21-.2-3.984-.695-3.984-.5 0-.864 1.773-.7 3.984.168 2.211.864 3.985 1.696 3.985.828 0 1.527-1.774 1.691-3.985.168-2.21-.2-3.984-.695-3.984-.496 0-.863 1.773-.7 3.984.169 2.211.868 3.985 1.696 3.985S-11.63 2.21-11.461 0c.164-2.21-.203-3.984-.699-3.984-.496 0-.863 1.773-.7 3.984.169 2.211.868 3.985 1.696 3.985S-9.637 2.21-9.469 0c.164-2.21-.203-3.984-.699-3.984-.496 0-.863 1.773-.695 3.984.164 2.211.863 3.985 1.691 3.985.828 0 1.528-1.774 1.696-3.985.164-2.21-.2-3.984-.7-3.984-.496 0-.863 1.773-.695 3.984.164 2.211.863 3.985 1.692 3.985.832 0 1.527-1.774 1.695-3.985.164-2.21-.2-3.984-.7-3.984-.495 0-.863 1.773-.695 3.984.164 2.211.864 3.985 1.692 3.985.832 0 1.527-1.774 1.695-3.985.164-2.21-.2-3.984-.7-3.984-.495 0-.862 1.773-.695 3.984.165 2.211.864 3.985 1.692 3.985.832 0 1.527-1.774 1.695-3.985.164-2.21-.199-3.984-.699-3.984-.496 0-.863 1.773-.695 3.984.164 2.211.863 3.985 1.691 3.985C-.37 3.985.328 2.21.492 0 .66-2.21.293-3.984-.203-3.984c-.5 0-.867 1.773-.7 3.984.169 2.211.864 3.985 1.696 3.985.828 0 1.527-1.774 1.692-3.985.168-2.21-.2-3.984-.696-3.984-.5 0-.863 1.773-.699 3.984.168 2.211.863 3.985 1.695 3.985.828 0 1.528-1.774 1.692-3.985.168-2.21-.2-3.984-.696-3.984-.5 0-.863 1.773-.699 3.984.168 2.211.864 3.985 1.696 3.985.828 0 1.527-1.774 1.69-3.985.169-2.21-.198-3.984-.694-3.984-.5 0-.864 1.773-.7 3.984.168 2.211.864 3.985 1.696 3.985.828 0 1.527-1.774 1.691-3.985.168-2.21-.2-3.984-.695-3.984-.496 0-.863 1.773-.7 3.984.169 2.211.868 3.985 1.696 3.985S10.289 2.21 10.457 0c.164-2.21-.203-3.984-.699-3.984-.496 0-.863 1.773-.7 3.984.169 2.211.868 3.985 1.696 3.985S12.281 2.21 12.45 0c.164-2.21-.203-3.984-.699-3.984-.496 0-.863 1.773-.695 3.984.164 2.211.863 3.985 1.691 3.985.832 0 1.528-1.774 1.696-3.985.164-2.21-.2-3.984-.7-3.984-.496 0-.863 1.773-.695 3.984.164 2.211.863 3.985 1.691 3.985.832 0 1.528-1.774 1.696-3.985.164-2.21-.2-3.984-.7-3.984-.496 0-.863 1.773-.695 3.984.164 2.211.864 3.985 1.692 3.985.832 0 1.527-1.774 1.695-3.985.164-2.21-.2-3.984-.7-3.984-.495 0-.863 1.773-.695 3.984.165 2.211.864 3.985 1.692 3.985.832 0 1.527-1.774 1.695-3.985.168-2.21-.2-3.984-.7-3.984-.495 0-.862 1.773-.694 3.984.164 2.211.863 3.985 1.695 3.985.828 0 1.527-1.774 1.691-3.985.168-2.21-.199-3.984-.695-3.984-.5 0-.863 1.773-.7 3.984.169 2.211.864 3.985 1.696 3.985.828 0 1.527-1.774 1.692-3.985.168-2.21-.2-3.984-.696-3.984-.5 0-.863 1.773-.699 3.984.168 2.211.863 3.985 1.695 3.985.828 0 1.528-1.774 1.692-3.985.168-2.21-.2-3.984-.696-3.984-.5 0-.863 1.773-.699 3.984.168 2.211.863 3.985 1.695 3.985.829 0 1.528-1.774 1.692-3.985.168-2.21-.2-3.984-.695-3.984-.5 0-.864 1.773-.7 3.984.168 2.211.868 3.985 1.696 3.985S30.215 2.21 30.379 0c.168-2.21-.2-3.984-.695-3.984-.496 0-.864 1.773-.7 3.984.169 2.211.868 3.985 1.696 3.985S32.207 2.21 32.375 0c.164-2.21-.203-3.984-.699-3.984-.496 0-.863 1.773-.7 3.984.169 2.211.868 3.985 1.696 3.985S34.2 2.21 34.367 0c.164-2.21-.203-3.984-.699-3.984-.496 0-.863 1.773-.695 3.984.164 2.211.863 3.985 1.691 3.985.832 0 1.528-1.774 1.696-3.985.164-2.21-.2-3.984-.7-3.984-.496 0-.863 1.773-.695 3.984.164 2.211.863 3.985 1.691 3.985.832 0 1.528-1.774 1.696-3.985.164-2.21-.2-3.984-.7-3.984-.496 0-.863 1.773-.695 3.984.164 2.211.864 3.985 1.692 3.985.832 0 1.527-1.774 1.695-3.985.164-2.21-.2-3.984-.7-3.984-.495 0-.863 1.773-.695 3.984.164 2.211.864 3.985 1.692 3.985.832 0 1.531-1.774 1.695-3.985.168-2.21-.2-3.984-.7-3.984-.495 0-.862 1.773-.694 3.984.164 2.211.863 3.985 1.695 3.985.828 0 1.527-1.774 1.691-3.985.168-2.21-.199-3.984-.695-3.984-.5 0-.863 1.773-.7 3.984.169 2.211.864 3.985 1.696 3.985.828 0 1.527-1.774 1.692-3.985.167-2.21-.2-3.984-.696-3.984-.5 0-.863 1.773-.699 3.984.168 2.211.863 3.985 1.695 3.985.828 0 1.528-1.774 1.692-3.985.168-2.21-.2-3.984-.696-3.984-.5 0-.863 1.773-.699 3.984.168 2.211.863 3.985 1.695 3.985.829 0 1.528-1.774 1.692-3.985.168-2.21-.2-3.984-.695-3.984-.497 0-.864 1.773-.7 3.984.168 2.211.868 3.985 1.696 3.985S52.133 2.21 52.3 0c.164-2.21-.203-3.984-.7-3.984-.495 0-.863 1.773-.698 3.984.168 2.211.867 3.985 1.695 3.985.828 0 1.527-1.774 1.695-3.985.164-2.21-.203-3.984-.7-3.984-.495 0-.862 1.773-.694 3.984.164 2.211.863 3.985 1.691 3.985.828 0 1.527-1.774 1.695-3.985h.41" transform="matrix(1 0 0 -1 172.742 50.809)"/><g clip-path="url(#d)"><path style="fill:none;stroke-width:1.99255;stroke-linecap:butt;stroke-linejoin:miter;stroke:#bfbfbf;stroke-opacity:1;stroke-miterlimit:10" d="M113.387 44.832V2.99l.996-1.727v-4.98a.995.995 0 1 0-1.992 0v4.98l.996 1.727" transform="matrix(1 0 0 -1 172.742 50.809)"/></g><path style="fill-rule:nonzero;fill:red;fill-opacity:1;stroke-width:.3985;stroke-linecap:butt;stroke-linejoin:miter;stroke:red;stroke-opacity:1;stroke-miterlimit:10" d="M113.387 34.871V2.99l.996-1.727v-4.98a.995.995 0 1 0-1.992 0v4.98l.996 1.727" transform="matrix(1 0 0 -1 172.742 50.809)"/><use xlink:href="#e" x="291.109" y="18.506" style="fill:#000;fill-opacity:1"/><use xlink:href="#f" x="296.485" y="19.502" style="fill:#000;fill-opacity:1"/><g clip-path="url(#g)"><path style="fill:none;stroke-width:1.99255;stroke-linecap:butt;stroke-linejoin:miter;stroke:#bfbfbf;stroke-opacity:1;stroke-miterlimit:10" d="M-113.387 44.832V2.99l.997-1.727v-4.98a.995.995 0 1 0-1.993 0v4.98l.996 1.727" transform="matrix(1 0 0 -1 172.742 50.809)"/></g><path style="fill-rule:nonzero;fill:red;fill-opacity:1;stroke-width:.3985;stroke-linecap:butt;stroke-linejoin:miter;stroke:red;stroke-opacity:1;stroke-miterlimit:10" d="M-113.387 24.907V2.989l.997-1.727v-4.98a.995.995 0 1 0-1.993 0v4.98l.996 1.727" transform="matrix(1 0 0 -1 172.742 50.809)"/><use xlink:href="#e" x="64.338" y="18.506" style="fill:#000;fill-opacity:1"/><use xlink:href="#h" x="69.714" y="19.502" style="fill:#000;fill-opacity:1"/><g style="fill:#000;fill-opacity:1"><use xlink:href="#i" x="134.476" y="28.752"/><use xlink:href="#j" x="137.776" y="28.752"/><use xlink:href="#k" x="141.538" y="28.752"/><use xlink:href="#l" x="144.878" y="28.752"/><use xlink:href="#k" x="147.23" y="28.752"/><use xlink:href="#m" x="150.569" y="28.752"/><use xlink:href="#n" x="153.862" y="28.752"/><use xlink:href="#o" x="158.095" y="28.752"/><use xlink:href="#p" x="162.798" y="28.752"/><use xlink:href="#q" x="166.56" y="28.752"/></g><use xlink:href="#p" x="173.145" y="28.752" style="fill:#000;fill-opacity:1"/><g style="fill:#000;fill-opacity:1"><use xlink:href="#r" x="176.676" y="28.752"/><use xlink:href="#n" x="181.379" y="28.752"/><use xlink:href="#s" x="185.612" y="28.752"/><use xlink:href="#t" x="190.315" y="28.752"/><use xlink:href="#n" x="195.254" y="28.752"/><use xlink:href="#o" x="199.487" y="28.752"/></g><g style="fill:#000;fill-opacity:1"><use xlink:href="#m" x="203.951" y="28.752"/><use xlink:href="#q" x="207.243" y="28.752"/></g><path style="fill:none;stroke-width:.19925;stroke-linecap:butt;stroke-linejoin:miter;stroke:gray;stroke-opacity:1;stroke-miterlimit:10" d="M0 4.98v14.09" transform="matrix(1 0 0 -1 172.742 50.809)"/><g style="fill:#000;fill-opacity:1"><use xlink:href="#u" x="202.732" y="74.975"/><use xlink:href="#n" x="207.435" y="74.975"/><use xlink:href="#i" x="211.668" y="74.975"/><use xlink:href="#v" x="214.968" y="74.975"/><use xlink:href="#l" x="219.201" y="74.975"/></g><g style="fill:#000;fill-opacity:1"><use xlink:href="#n" x="224.374" y="74.975"/><use xlink:href="#w" x="228.607" y="74.975"/><use xlink:href="#l" x="233.31" y="74.975"/><use xlink:href="#n" x="235.662" y="74.975"/><use xlink:href="#x" x="239.895" y="74.975"/><use xlink:href="#n" x="244.598" y="74.975"/><use xlink:href="#m" x="248.831" y="74.975"/><use xlink:href="#l" x="252.124" y="74.975"/><use xlink:href="#y" x="254.475" y="74.975"/><use xlink:href="#s" x="258.944" y="74.975"/><use xlink:href="#q" x="263.647" y="74.975"/></g><path style="fill:none;stroke-width:.19925;stroke-linecap:butt;stroke-linejoin:miter;stroke:gray;stroke-opacity:1;stroke-miterlimit:10" d="m110.895-10.558-21.403-5.13" transform="matrix(1 0 0 -1 172.742 50.809)"/><path style="fill:none;stroke-width:.3985;stroke-linecap:butt;stroke-linejoin:miter;stroke:#000;stroke-opacity:1;stroke-miterlimit:10" d="M131.77 0h16.34" transform="matrix(1 0 0 -1 172.742 50.809)"/><path style="stroke:none;fill-rule:nonzero;fill:#000;fill-opacity:1" d="M324.438 50.809c-1.063-.2-2.79-.797-3.985-1.493v2.989c1.195-.7 2.922-1.297 3.985-1.496"/><g style="fill:#000;fill-opacity:1"><use xlink:href="#z" x="326.429" y="53.897"/><use xlink:href="#A" x="330.528" y="53.897"/><use xlink:href="#B" x="334.622" y="53.897"/><use xlink:href="#C" x="339.229" y="53.897"/><use xlink:href="#D" x="344.347" y="53.897"/><use xlink:href="#E" x="346.906" y="53.897"/><use xlink:href="#F" x="351.005" y="53.897"/><use xlink:href="#E" x="358.683" y="53.897"/><use xlink:href="#G" x="362.781" y="53.897"/></g><use xlink:href="#H" x="367.639" y="53.897" style="fill:#000;fill-opacity:1"/><path style="fill:none;stroke-width:.3985;stroke-linecap:butt;stroke-linejoin:miter;stroke:#000;stroke-opacity:1;stroke-miterlimit:10" d="M-151.695 0h16.336" transform="matrix(1 0 0 -1 172.742 50.809)"/><path style="stroke:none;fill-rule:nonzero;fill:#000;fill-opacity:1" d="M40.973 50.809c-1.067-.2-2.793-.797-3.989-1.493v2.989c1.196-.7 2.922-1.297 3.989-1.496"/><use xlink:href="#I" x="4.981" y="53.375" style="fill:#000;fill-opacity:1"/><use xlink:href="#J" x="12.58" y="54.371" style="fill:#000;fill-opacity:1"/></svg>