<svg xmlns="http://www.w3.org/2000/svg" xmlns:xlink="http://www.w3.org/1999/xlink" width="294.452" height="247.193" viewBox="0 0 220.839 185.395"><defs><symbol overflow="visible" id="a"><path style="stroke:none" d="M5.797-5.063c.36-.578.672-.75 1.094-.78.109-.016.187-.016.187-.173 0-.062-.062-.109-.125-.109-.031 0-.25.031-.734.031-.282 0-.594-.031-.86-.031-.062 0-.171.016-.171.156 0 .11.109.125.125.125.093 0 .421.016.421.282 0 .078-.03.14-.062.203-.047.078-.063.109-.094.171L2.766-.827l-.672-4.75c0-.078.062-.266.61-.266.108 0 .218 0 .218-.172 0-.093-.094-.109-.14-.109-.157 0-.345.016-.516.016-.188 0-.375.015-.579.015-.156 0-.406 0-.484-.015-.078 0-.437-.016-.516-.016-.03 0-.156 0-.156.156 0 .125.094.125.203.125.5 0 .516.078.547.297L2.078-.03c.016.172.031.234.188.234.14 0 .187-.078.25-.187Zm0 0"/></symbol><symbol overflow="visible" id="d"><path style="stroke:none" d="M.406 1.125c-.062.25-.078.344-.453.344-.11 0-.219 0-.219.156 0 .031.032.11.125.11l.375-.016H1.078c.156 0 .297.015.438.015.046 0 .171 0 .171-.156 0-.11-.093-.11-.25-.11-.421 0-.421-.062-.421-.155a2.9 2.9 0 0 1 .109-.438l.328-1.328c.094.187.344.547.86.547C3.359.094 4.5-1.172 4.5-2.516c0-.906-.563-1.453-1.234-1.453-.188 0-.641.047-1.188.656-.125-.5-.547-.656-.844-.656-.375 0-.578.281-.703.531-.14.313-.265.813-.265.86 0 .078.062.11.125.11.093 0 .109-.048.156-.235.172-.703.36-1.031.656-1.031.281 0 .281.28.281.421 0 .063-.015.204-.03.266Zm1.625-3.89c.047-.172.047-.188.172-.329.235-.312.64-.64 1.047-.64.422 0 .594.421.594.843 0 .391-.25 1.516-.531 1.985-.313.515-.688.781-1.016.781-.578 0-.735-.703-.735-.766 0-.062.032-.109.032-.156Zm0 0"/></symbol><symbol overflow="visible" id="b"><path style="stroke:none" d="M2.14-3.797c0-.187-.015-.187-.203-.187-.39.39-1 .39-1.218.39v.235c.156 0 .562 0 .922-.172v3.015c0 .204 0 .282-.625.282h-.25V0c.328-.031.796-.031 1.125-.031.328 0 .796 0 1.125.031v-.234h-.25c-.625 0-.625-.078-.625-.282Zm0 0"/></symbol><symbol overflow="visible" id="c"><path style="stroke:none" d="M3.219-1.125H3c-.016.094-.078.484-.156.547-.047.047-.531.047-.625.047h-1.11l.766-.625c.203-.172.734-.547.922-.735.172-.171.422-.484.422-.906 0-.75-.672-1.187-1.485-1.187-.765 0-1.296.515-1.296 1.078 0 .297.25.344.312.344a.32.32 0 0 0 .328-.329c0-.125-.078-.328-.344-.328.141-.297.5-.531.922-.531.625 0 .953.469.953.953 0 .422-.28.86-.687 1.25L.5-.25C.437-.187.437-.187.437 0h2.594Zm0 0"/></symbol><symbol overflow="visible" id="F"><path style="stroke:none" d="M1.297-2.344h.984v-.234h-.984v-1.11h-.219c0 .547-.266 1.126-.86 1.157v.187h.595V-.75c0 .625.468.813.875.813.406 0 .718-.329.718-.813v-.328h-.234v.312c0 .422-.219.61-.438.61-.437 0-.437-.485-.437-.594Zm0 0"/></symbol><symbol overflow="visible" id="G"><path style="stroke:none" d="M2.813-1.36c.124 0 .171 0 .171-.14 0-.453-.25-1.172-1.25-1.172-.843 0-1.453.64-1.453 1.36C.281-.563.97.063 1.812.063c.875 0 1.172-.657 1.172-.782 0-.031-.015-.094-.109-.094-.078 0-.094.032-.11.11-.187.437-.64.547-.906.547a.981.981 0 0 1-.78-.36c-.22-.28-.22-.671-.22-.843ZM.875-1.53c.063-.797.61-.953.86-.953.765 0 .812.78.812.953Zm0 0"/></symbol><symbol overflow="visible" id="e"><path style="stroke:none" d="m3.14-1.422-.234.125.063.11c.125.203.172.421-.125.593L1 .5C.719.672.594.484.406.14L.187.267l.25.421.422.704.204.375.218-.125-.047-.094c-.125-.203-.218-.375.016-.516l2.547-1.5-.172-.234Zm2-.39a.488.488 0 0 0-.593-.125c-.188.125-.281.406-.14.609a.428.428 0 0 0 .609.156c.171-.11.296-.36.156-.594 0-.015-.016-.03-.031-.046Zm0 0"/></symbol><symbol overflow="visible" id="f"><path style="stroke:none" d="M.61.5c-.047.328.015.672.187.953.328.531.937 1.063 1.687.594l.063-.031c.39-.282.484-.797.36-1.25C2.796.328 2.218-.547 2.75-.86c.39-.25.797.234.969.515.265.422.265.875-.188 1.219-.047.031-.125.063-.078.156.063.094.156.094.235.047.03-.031.078-.047.109-.078l.625-.375c.047-.031.062-.094.016-.172-.079-.11-.266-.062-.313-.14V.296c-.031-.14-.016-.281-.063-.406-.046-.11-.109-.22-.171-.329-.297-.484-.86-1.109-1.579-.656l-.046.032c-.235.156-.313.421-.329.703-.03.734.829 1.64.188 2.14-.484.297-.875-.047-1.11-.422C.704.844.845.266 1.25-.109c.063-.079.156-.125.094-.235-.078-.11-.14-.078-.203-.031l-.829.5L.22.172C.156.203.094.297.14.359c.03.079.156.079.203.094h.062C.484.47.562.484.61.5Zm0 0"/></symbol><symbol overflow="visible" id="g"><path style="stroke:none" d="M4.047-.234c-.563-.72-1.563-1.063-2.516-.47-.906.595-.937 1.782-.437 2.548.484.781 1.61 1.187 2.484.625.875-.563 1.094-1.735.531-2.61Zm-2.25.203c.062-.032.125-.078.172-.11.36-.234.843-.515 1.297-.375.28.079.53.266.687.516.438.672.047 1.344-.64 1.781-.376.235-.797.485-1.266.422a1.141 1.141 0 0 1-.766-.515c-.328-.5-.203-1.11.266-1.532.094-.078.187-.14.25-.187Zm0 0"/></symbol><symbol overflow="visible" id="h"><path style="stroke:none" d="M4.75-1.766c-.469.313-1.406.641-1.86-.03l-.187.124.406.594L1.406.094C1.203.234 1 .39.891.625c-.157.344-.047.75.156 1.047.39.547 1.078.281 1.5-.016l.25-.172-.14-.203c-.095.063-.173.14-.282.219-.281.188-.828.453-1.094.063-.25-.36.094-.704.407-.922L3.452-.58l.672.985.219-.156-.672-.984 1.219-.829Zm0 0"/></symbol><symbol overflow="visible" id="i"><path style="stroke:none" d="m4.563-3-.204.156.094.125c.14.203.234.375-.047.594L1.172.265c-.031.032-.063.079-.125.126C.78.578.625.39.437.125L.407.094l-.204.14.313.407.5.656.28.406.204-.14-.11-.141c-.14-.188-.25-.36 0-.547L2.564 0c.484-.344 1.218-.422 1.671.188.282.359.032.718-.359 1L2.406 2.28c-.234.172-.375.016-.5-.172l-.11-.125-.202.141.312.39.5.688.281.39.204-.14-.094-.14c-.125-.172-.25-.376-.016-.547l1.375-1.032c.203-.14.407-.296.516-.5.172-.375.031-.796-.203-1.109-.266-.375-.797-.703-1.297-.578l2.172-1.625Zm0 0"/></symbol><symbol overflow="visible" id="j"><path style="stroke:none" d="M2.016-.406 3.53 1.5c.063.078.125.078.203.031.313-.265.61-.625.657-1.047.046-.39-.094-.78-.344-1.093-.578-.735-1.688-.97-2.531-.297a1.85 1.85 0 0 0-.266 2.61c.375.452 1.063.718 1.625.484a.118.118 0 0 0 .063-.032.121.121 0 0 0 .03-.156c-.093-.125-.312.016-.437.016A1.184 1.184 0 0 1 1.5 1.594 1.215 1.215 0 0 1 1.328.375c.156-.297.406-.563.688-.781Zm.187-.125c.39-.219.813-.453 1.297-.235.14.063.266.141.36.266.328.406.218.938-.188 1.36-.078.078-.156.14-.203.187Zm0 0"/></symbol><symbol overflow="visible" id="k"><path style="stroke:none" d="m2.813-1.969-.204.172.079.094c.156.203.296.375.015.61L1.031.28C.781.5.625.344.375.031L.187.188l.329.374.562.704.344.437.187-.156c-.046-.063-.109-.14-.171-.219-.157-.203-.266-.375-.047-.562l1.03-.844c.438-.375 1.25-.64 1.688-.11a.394.394 0 0 0-.312.094c-.172.14-.156.375-.047.516.125.156.375.156.516.031.265-.219.187-.594 0-.812-.297-.36-.922-.454-1.297-.25l.64-.547-.28-.282Zm0 0"/></symbol><symbol overflow="visible" id="l"><path style="stroke:none" d="m2.734-2.063-.203.172.11.11c.156.172.296.36.03.61L1.079.28C.828.5.688.36.406.062L.22.22l.344.36.562.624.328.36.188-.157-.11-.125C1.375 1.11 1.25.921 1.47.72l1.093-.985c.422-.39 1.157-.546 1.688.032.297.343.11.703-.25 1.03L2.625 2.032c-.203.188-.36.063-.516-.11L2 1.798l-.188.156.344.375.563.625.328.36.187-.157-.109-.125c-.172-.187-.281-.36-.063-.562l1.094-.985c.422-.39 1.157-.546 1.672.032.313.328.11.687-.25 1.015L4.203 3.766c-.203.187-.36.062-.516-.11l-.109-.125-.187.156.343.376.563.625.328.359.188-.156-.094-.11c-.157-.172-.297-.375-.094-.562l1.266-1.14c.203-.188.39-.36.468-.61.125-.375-.062-.781-.312-1.063-.328-.343-.906-.625-1.39-.422V.97C5 .563 4.765 0 4.436-.36c-.328-.36-.921-.579-1.406-.407l.563-.515-.219-.188Zm0 0"/></symbol><symbol overflow="visible" id="m"><path style="stroke:none" d="m1.953-.64 1.734 1.734c.063.062.126.062.188 0 .281-.297.547-.703.531-1.11.016-.406-.187-.78-.468-1.062-.657-.672-1.75-.766-2.516 0-.64.64-.813 1.812.016 2.625.406.422 1.125.61 1.671.297.016 0 .032-.016.047-.032.047-.046.063-.125.016-.171-.11-.11-.297.046-.438.078-.359.093-.796-.032-1.078-.313A1.181 1.181 0 0 1 1.36.234c.11-.328.329-.625.594-.875Zm.172-.141c.375-.25.766-.547 1.266-.39.156.062.265.124.375.234.375.359.312.906-.032 1.39-.062.063-.125.125-.171.203Zm0 0"/></symbol><symbol overflow="visible" id="n"><path style="stroke:none" d="M5.766-1.781c.218-.188.234-.188.5 0l.468.36c.672.484.594.75.36 1.062-.11.156-.344.421-.375.468-.063.047-.125.11-.125.11-.063.078-.016.14.031.172.063.062.125.046.234-.079L7.906-.766C7.97-.859 7.891-.922 7.781-1L3.984-3.766c-.156-.109-.187-.14-.312-.015l-1.203.812c-.047.047-.094.078-.125.11-.031.062-.016.125.031.156.078.062.125.031.219-.047 1.125-.766 1.36-.703 2.344.016l.25.171c.187.141.203.172.156.22a.54.54 0 0 1-.14.124L1.874.547c-.25.219-.297.265-.969-.219C.687.172.625.125.531.25c0 0-.062.094.047.172.172.125.64.422.813.547l.546.406c.172.125.61.484.797.61.047.046.141.109.235-.016.062-.094-.016-.14-.172-.266-.172-.125-.219-.156-.36-.297-.203-.14-.218-.187-.156-.281.031-.016.047-.047.125-.094Zm0 0"/></symbol><symbol overflow="visible" id="o"><path style="stroke:none" d="M6.266 1.297c.093.062.234.156.343 0 .11-.14-.062-.25-.14-.328L2.406-1.984c-.094-.063-.25-.172-.36-.032-.108.157.017.25.126.313Zm-1 1.328c.078.078.25.188.343.047.11-.156-.03-.25-.125-.313l-4.093-3c-.11-.062-.235-.156-.344 0-.094.141.062.25.156.313Zm0 0"/></symbol><symbol overflow="visible" id="p"><path style="stroke:none" d="M3.969-1.797c.11-.156.094-.172-.063-.281C3.36-2 2.86-2.36 2.687-2.484l-.124.187c.124.094.453.328.843.406L1.625.547c-.11.172-.156.234-.656-.14L.766.265.625.453c.281.156.656.438.922.625.266.203.64.469.89.703l.141-.187-.203-.157c-.5-.359-.453-.421-.344-.593Zm0 0"/></symbol><symbol overflow="visible" id="q"><path style="stroke:none" d="m3.14-1.422-.234.125.063.11c.125.203.187.421-.11.593L1.016.5C.719.672.594.484.406.14L.187.267l.25.421.422.704.204.375.218-.125-.047-.094C1.11 1.344 1 1.172 1.25 1.03l2.547-1.5-.172-.234Zm1.985-.39a.463.463 0 0 0-.578-.125.443.443 0 0 0-.14.609c.124.234.405.266.609.156.171-.11.296-.36.156-.594 0-.015-.031-.03-.047-.046Zm0 0"/></symbol><symbol overflow="visible" id="r"><path style="stroke:none" d="M.61.5c-.032.313.015.656.203.953.328.531.921 1.063 1.687.594l.047-.031c.406-.297.484-.797.375-1.25-.11-.47-.703-1.313-.188-1.641.407-.25.813.219 1 .516.25.406.235.875-.187 1.218-.063.032-.125.079-.078.172.062.094.14.078.219.032.046-.032.078-.047.124-.079l.61-.375c.047-.03.062-.109.031-.171-.078-.126-.266-.063-.312-.141L4.125.28C4.094.141 4.094 0 4.062-.14 4-.234 3.97-.344 3.892-.453c-.297-.5-.875-1.094-1.579-.656l-.062.03c-.219.173-.297.438-.328.704-.016.75.844 1.64.219 2.14-.485.298-.891-.03-1.125-.406C.687.844.828.25 1.25-.109c.063-.079.156-.141.094-.25-.078-.11-.14-.063-.203-.032L.312.125.22.172C.156.203.094.297.14.359c.03.079.156.079.203.094h.078C.484.47.562.484.609.5Zm0 0"/></symbol><symbol overflow="visible" id="s"><path style="stroke:none" d="M4.047-.375c-.594-.688-1.61-1.031-2.531-.39-.891.609-.891 1.812-.36 2.578.516.75 1.64 1.125 2.5.53C4.5 1.75 4.703.579 4.11-.296Zm-2.234.266c.046-.032.109-.079.156-.125.343-.235.812-.516 1.281-.407.281.079.516.25.688.5.468.672.109 1.344-.579 1.813-.359.25-.75.5-1.218.453a1.112 1.112 0 0 1-.797-.484C1 1.156 1.094.53 1.547.109c.094-.078.187-.14.266-.218Zm0 0"/></symbol><symbol overflow="visible" id="t"><path style="stroke:none" d="M4.703-1.875c-.453.328-1.39.672-1.86.016l-.171.125.422.578L1.422.047C1.219.203 1.016.359.89.609c-.125.344-.016.75.203 1.032.39.546 1.062.265 1.484-.032l.235-.171-.141-.204c-.078.063-.172.141-.266.204-.281.203-.812.484-1.094.109-.25-.36.079-.719.407-.953l1.734-1.25.688.969.203-.157-.688-.969 1.203-.859Zm0 0"/></symbol><symbol overflow="visible" id="u"><path style="stroke:none" d="m4.453-3.14-.203.156.11.109c.156.203.25.39-.032.61l-3.14 2.5c-.032.03-.079.078-.125.124C.796.563.625.36.421.11L.39.08.203.233l.328.391.516.64.297.391.187-.156-.11-.125c-.14-.188-.234-.36 0-.547l1.141-.906c.47-.375 1.22-.469 1.688.14.281.344.047.704-.328 1L2.484 2.204c-.218.172-.39.016-.515-.156l-.11-.14-.187.155.328.391.516.656.296.391L3 3.344l-.11-.125c-.124-.172-.25-.375-.03-.547l1.343-1.063c.203-.156.39-.312.5-.53C4.891.687 4.72.28 4.47-.017 4.172-.39 3.625-.703 3.14-.562L5.266-2.25Zm0 0"/></symbol><symbol overflow="visible" id="v"><path style="stroke:none" d="m1.984-.5 1.61 1.844c.062.062.125.078.203.015.312-.265.578-.671.61-1.062.03-.422-.141-.781-.407-1.094-.61-.703-1.703-.906-2.516-.187a1.843 1.843 0 0 0-.156 2.625c.39.437 1.094.687 1.64.421.032 0 .048-.015.063-.03.047-.048.063-.126.016-.173-.094-.109-.297.032-.422.047a1.194 1.194 0 0 1-1.063-.39A1.272 1.272 0 0 1 1.329.312c.156-.312.39-.578.656-.812Zm.188-.125c.39-.234.812-.484 1.281-.297.156.047.281.14.39.25.329.39.235.938-.155 1.36-.047.078-.126.14-.188.218Zm0 0"/></symbol><symbol overflow="visible" id="w"><path style="stroke:none" d="m2.672-2.172-.203.188.078.093c.172.188.344.375.062.625L1.047.22C.813.453.657.297.375 0L.203.172l.328.36.625.655.39.407.173-.172-.203-.203c-.172-.188-.282-.36-.063-.563l.953-.922c.422-.39 1.203-.703 1.688-.203a.37.37 0 0 0-.313.11c-.156.14-.11.375 0 .5a.35.35 0 0 0 .5.015c.25-.234.14-.61-.062-.812C3.906-1 3.28-1.031 2.922-.812l.594-.594-.282-.266Zm0 0"/></symbol><symbol overflow="visible" id="x"><path style="stroke:none" d="m2.594-2.234-.172.187.125.11c.156.156.281.328.031.593L1.078.203C.86.437.703.313.406.031L.234.203l.36.344.594.578.359.344.172-.172-.125-.11C1.437 1.016 1.297.845 1.5.641L2.531-.422c.406-.406 1.14-.61 1.688-.062.328.312.156.671-.172 1.03L2.766 1.86c-.204.204-.375.079-.547-.078l-.11-.11-.171.173.359.343.61.594.343.328.172-.171-.125-.11c-.188-.172-.297-.344-.094-.547L4.234 1.22c.407-.407 1.125-.61 1.688-.063.328.313.125.672-.203 1.032L4.437 3.5c-.203.203-.375.078-.53-.094l-.126-.11-.172.173.36.36.61.577.343.344.172-.172L5 4.484c-.172-.171-.328-.359-.125-.562l1.188-1.219c.171-.187.359-.375.453-.64.093-.376-.11-.766-.375-1.032C5.78.703 5.187.453 4.703.688V.671c.328-.438.063-.969-.281-1.297-.36-.344-.969-.547-1.438-.313l.532-.562-.235-.172Zm0 0"/></symbol><symbol overflow="visible" id="y"><path style="stroke:none" d="M1.89-.781 3.75.813c.063.062.14.062.203 0 .266-.313.485-.75.438-1.157-.016-.406-.235-.75-.532-1.015-.718-.61-1.828-.641-2.53.171a1.856 1.856 0 0 0 .218 2.625c.453.391 1.172.532 1.687.172.032 0 .047-.015.063-.03a.142.142 0 0 0-.016-.173c-.11-.093-.281.078-.422.11-.375.109-.796.015-1.093-.235A1.223 1.223 0 0 1 1.375.125c.078-.344.281-.625.516-.906Zm.157-.14c.36-.298.75-.626 1.25-.485.156.031.281.11.406.203.39.344.36.875.047 1.36-.047.093-.11.155-.156.25Zm0 0"/></symbol><symbol overflow="visible" id="z"><path style="stroke:none" d="M5.578-2.25c.219-.219.234-.219.516-.047l.5.313c.703.437.656.703.453 1.046-.094.172-.328.422-.344.47l-.125.124a.124.124 0 0 0 .047.172c.078.047.125.031.234-.094l.954-1.171c.062-.094-.016-.141-.141-.22L3.656-4.093c-.172-.093-.187-.11-.328 0l-1.11.938c-.046.031-.109.078-.14.11-.031.062.016.124.063.155.078.047.109.032.234-.062 1.031-.86 1.266-.828 2.313-.188l.265.157c.203.125.219.14.188.203-.016.015-.125.125-.157.14L1.922.391c-.234.234-.281.28-1-.141C.703.11.64.062.562.203c0 0-.062.094.047.172.188.11.672.36.86.484l.578.344c.187.11.656.438.844.547.046.031.156.094.234-.047.063-.094-.016-.14-.188-.25-.171-.094-.234-.125-.406-.234-.203-.14-.203-.188-.14-.282.015-.03.03-.046.078-.109Zm0 0"/></symbol><symbol overflow="visible" id="A"><path style="stroke:none" d="M6.36.766c.093.046.234.14.327-.032.094-.14-.078-.25-.171-.296l-4.282-2.61c-.109-.062-.265-.156-.359-.015-.094.171.031.25.14.312Zm-.907 1.421c.094.047.266.157.36.016.093-.172-.047-.265-.141-.312L1.328-.75c-.11-.063-.234-.14-.328.031-.094.14.063.235.172.297Zm0 0"/></symbol><symbol overflow="visible" id="B"><path style="stroke:none" d="m3.328.703-.187-.11c-.063.079-.313.376-.407.376C2.672 1 2.266.75 2.172.703L1.234.125l.97-.14c.265-.048.921-.079 1.171-.141.219-.063.61-.203.828-.563.39-.64.031-1.36-.656-1.781-.656-.406-1.375-.234-1.656.25a.323.323 0 0 0 .078.453c.14.078.343.078.453-.11.062-.109.11-.327-.125-.468.281-.172.719-.188 1.078.031.531.328.563.89.313 1.313-.22.36-.704.578-1.25.703L.546.047C.469.078.469.078.375.234l2.219 1.344Zm0 0"/></symbol><symbol overflow="visible" id="C"><path style="stroke:none" d="M2.89-.844c-.062-.61-.374-1.797-1.296-1.797C.766-2.64.28-1.812.28-1.578c0 .094.078.094.11.094.078 0 .078-.032.109-.11.14-.375.594-.547 1.016-.547.953 0 1.171.86 1.171 1.61 0 .14-.015.281-.046.39-.157.5-.313 1.11-.313 1.282 0 .03.016.14.11.14.124 0 .171-.172.218-.328 0-.015.156-.531.219-1.062.031-.22.438-1.297.938-2.204.093-.156.093-.171.093-.187 0-.063-.062-.078-.11-.078-.03 0-.062 0-.093.031-.015.016-.484.844-.812 1.703Zm0 0"/></symbol><symbol overflow="visible" id="D"><path style="stroke:none" d="M6.344-2.969c.125 0 .297 0 .297-.187 0-.203-.188-.203-.329-.203H.845c-.14 0-.328 0-.328.203 0 .187.171.187.296.187ZM6.312-1.14c.141 0 .329 0 .329-.203 0-.187-.172-.187-.297-.187H.812c-.125 0-.296 0-.296.187 0 .203.187.203.328.203Zm0 0"/></symbol><symbol overflow="visible" id="E"><path style="stroke:none" d="M5.422-5.547c-.281-.281-.797-.781-1.703-.781-1.735 0-3.203 1.453-3.203 3.266C.516-1.22 2 .203 3.719.203 5.203.203 6.14-1.03 6.14-2.078c0-.094 0-.172-.125-.172s-.125.063-.125.14A2.085 2.085 0 0 1 3.812-.077c-.765 0-2.39-.484-2.39-2.985 0-2.5 1.64-2.984 2.375-2.984.89 0 1.828.672 2.047 2.125.015.125.031.156.14.156.157 0 .157-.03.157-.218v-2.11c0-.156 0-.234-.11-.234-.062 0-.093.031-.14.11Zm0 0"/></symbol></defs><path style="fill:none;stroke-width:.19925;stroke-linecap:butt;stroke-linejoin:miter;stroke:gray;stroke-opacity:1;stroke-miterlimit:10" d="M48.568-2.125v4.25m85.48-4.25v4.25M-2.127 125.527h4.254M-2.127 16.856h4.254" transform="matrix(1 0 0 -1 17.877 169.172)"/><path style="fill:none;stroke-width:.3985;stroke-linecap:butt;stroke-linejoin:miter;stroke:#000;stroke-opacity:1;stroke-miterlimit:10" d="M.002 0h192.277" transform="matrix(1 0 0 -1 17.877 169.172)"/><path style="stroke:none;fill-rule:nonzero;fill:#000;fill-opacity:1" d="m212.148 169.172-3.187-1.594 1.195 1.594-1.195 1.594"/><path style="fill:none;stroke-width:.3985;stroke-linecap:butt;stroke-linejoin:miter;stroke:#000;stroke-opacity:1;stroke-miterlimit:10" d="M.002 0V159.4" transform="matrix(1 0 0 -1 17.877 169.172)"/><path style="stroke:none;fill-rule:nonzero;fill:#000;fill-opacity:1" d="M17.879 7.781 16.28 10.97l1.598-1.196 1.594 1.196"/><use xlink:href="#a" x="61.682" y="179.417" style="fill:#000;fill-opacity:1"/><use xlink:href="#b" x="67.056" y="180.414" style="fill:#000;fill-opacity:1"/><use xlink:href="#a" x="147.16" y="179.417" style="fill:#000;fill-opacity:1"/><use xlink:href="#c" x="152.535" y="180.414" style="fill:#000;fill-opacity:1"/><use xlink:href="#d" x="4.981" y="44.706" style="fill:#000;fill-opacity:1"/><use xlink:href="#b" x="9.607" y="45.703" style="fill:#000;fill-opacity:1"/><use xlink:href="#d" x="4.981" y="153.374" style="fill:#000;fill-opacity:1"/><use xlink:href="#c" x="9.607" y="154.371" style="fill:#000;fill-opacity:1"/><path style="fill:none;stroke-width:.3985;stroke-linecap:butt;stroke-linejoin:miter;stroke:#00adef;stroke-opacity:1;stroke-dasharray:2.98883,2.98883;stroke-miterlimit:10" d="m40.15 155.602 1.293-5.418 1.297-5.098 1.293-4.797 1.297-4.52 1.297-4.269 1.293-4.039 1.297-3.824 1.293-3.63 1.297-3.448 1.293-3.285 1.296-3.122 1.293-2.98 1.297-2.844 1.297-2.715 1.293-2.597 1.297-2.489 1.293-2.382 1.297-2.29 1.293-2.195 1.297-2.11 1.297-2.026 1.293-1.954 1.296-1.878 1.293-1.813 1.297-1.746 1.293-1.684 1.297-1.629 1.293-1.57 1.297-1.52 1.297-1.472 1.293-1.422 1.297-1.379 1.293-1.332 1.297-1.293 1.292-1.254 1.297-1.219 1.293-1.18 1.297-1.144 1.297-1.117 1.293-1.082 1.297-1.05 1.293-1.024 1.297-.996 1.293-.969 1.297-.945 1.293-.918 1.296-.895 1.297-.875 1.293-.851 1.297-.829 1.293-.812 1.297-.79 1.293-.773 1.297-.75 1.293-.738 1.297-.719 1.297-.703 1.293-.687 1.296-.672 1.293-.656 1.297-.64 1.293-.63 1.297-.617 1.297-.602 1.293-.59 1.297-.578 1.293-.566 1.297-.555 1.293-.543 1.296-.53 1.293-.524 1.297-.512 1.297-.5 1.293-.496 1.297-.48 1.293-.477 1.297-.465 1.293-.457 1.297-.45 1.293-.44 1.297-.43 1.296-.426 1.293-.418 1.297-.41 1.293-.403 1.297-.398 1.293-.39 1.297-.383 1.293-.375 1.297-.372 1.297-.363 1.293-.36 1.297-.35 1.293-.348 1.296-.344 1.293-.336 1.297-.328 1.293-.328 1.297-.32" transform="matrix(1 0 0 -1 17.877 169.172)"/><use xlink:href="#e" x="85.059" y="74.382" style="fill:#000;fill-opacity:1"/><use xlink:href="#f" x="86.199" y="76.345" style="fill:#000;fill-opacity:1"/><use xlink:href="#g" x="87.902" y="79.119" style="fill:#000;fill-opacity:1"/><use xlink:href="#h" x="90.109" y="82.537" style="fill:#000;fill-opacity:1"/><use xlink:href="#i" x="91.866" y="85.128" style="fill:#000;fill-opacity:1"/><use xlink:href="#j" x="94.564" y="88.784" style="fill:#000;fill-opacity:1"/><use xlink:href="#k" x="96.861" y="91.662" style="fill:#000;fill-opacity:1"/><use xlink:href="#l" x="98.795" y="94.043" style="fill:#000;fill-opacity:1"/><use xlink:href="#m" x="103.424" y="99.068" style="fill:#000;fill-opacity:1"/><use xlink:href="#n" x="107.105" y="103.804" style="fill:#000;fill-opacity:1"/><use xlink:href="#o" x="113.941" y="108.785" style="fill:#000;fill-opacity:1"/><use xlink:href="#n" x="121.165" y="114.049" style="fill:#000;fill-opacity:1"/><use xlink:href="#p" x="124.497" y="117.847" style="fill:#000;fill-opacity:1"/><path style="fill:none;stroke-width:.3985;stroke-linecap:butt;stroke-linejoin:miter;stroke:#00adef;stroke-opacity:1;stroke-dasharray:2.98883,2.98883;stroke-miterlimit:10" d="m29.143 141.465 1.406-7.34 1.406-6.691 1.406-6.125 1.407-5.637 1.406-5.191 1.406-4.805 1.406-4.461 1.407-4.148 1.406-3.868 1.406-3.62 1.406-3.387 1.407-3.184 1.406-2.988 1.406-2.825 1.406-2.664 1.407-2.515 1.406-2.383 1.406-2.266 1.406-2.144 1.407-2.04 1.406-1.952 1.406-1.848 1.406-1.766 1.407-1.695 1.406-1.613 1.406-1.547 1.406-1.48 1.407-1.422 1.406-1.364 1.406-1.308 1.406-1.258 1.407-1.211 1.406-1.168 1.406-1.121 1.406-1.086 1.407-1.043 1.406-1.012 1.406-.972 1.406-.942 1.407-.91 1.406-.883 1.406-.851 1.406-.829 1.407-.8 1.406-.778 1.406-.75 1.406-.734 1.407-.707 1.406-.691 1.406-.668 1.406-.653 1.407-.633 1.406-.617 1.406-.597 1.406-.586 1.407-.567 1.406-.554 1.406-.54 1.406-.527 1.407-.515 1.406-.5 1.406-.489 1.406-.476 1.407-.465 1.406-.453 1.406-.446 1.406-.433 1.407-.426 1.406-.414 1.406-.406 1.406-.399 1.407-.386 1.406-.38 1.406-.374 1.406-.364 1.407-.355 1.406-.352 1.406-.34 1.406-.335 1.407-.332 1.406-.32 1.406-.317 1.406-.309 1.407-.304 1.406-.297 1.406-.293 1.406-.29 1.407-.28 1.406-.278 1.406-.273 1.406-.266 1.407-.262 1.406-.258 1.406-.253 1.406-.25 2.813-.485 2.812-.469" transform="matrix(1 0 0 -1 17.877 169.172)"/><use xlink:href="#q" x="63.877" y="101.457" style="fill:#000;fill-opacity:1"/><use xlink:href="#r" x="65.161" y="103.61" style="fill:#000;fill-opacity:1"/><use xlink:href="#s" x="67.102" y="106.734" style="fill:#000;fill-opacity:1"/><use xlink:href="#t" x="69.594" y="110.338" style="fill:#000;fill-opacity:1"/><use xlink:href="#u" x="71.726" y="113.272" style="fill:#000;fill-opacity:1"/><use xlink:href="#v" x="74.861" y="117.192" style="fill:#000;fill-opacity:1"/><use xlink:href="#w" x="77.525" y="120.262" style="fill:#000;fill-opacity:1"/><use xlink:href="#x" x="79.969" y="122.894" style="fill:#000;fill-opacity:1"/><use xlink:href="#y" x="85.386" y="128.039" style="fill:#000;fill-opacity:1"/><use xlink:href="#z" x="90.996" y="133.526" style="fill:#000;fill-opacity:1"/><use xlink:href="#A" x="98.226" y="137.915" style="fill:#000;fill-opacity:1"/><use xlink:href="#z" x="105.867" y="142.553" style="fill:#000;fill-opacity:1"/><use xlink:href="#B" x="109.507" y="146.057" style="fill:#000;fill-opacity:1"/><path style="fill:none;stroke-width:.99628;stroke-linecap:butt;stroke-linejoin:miter;stroke:#00adef;stroke-opacity:1;stroke-miterlimit:10" d="m48.568 125.32.864-3.496.863-3.343.863-3.207.863-3.114.864-2.972.863-2.836.863-2.746.864-2.645.863-2.543.863-2.445.863-2.367.864-2.274.863-2.203.863-2.133.864-2.05.863-1.997.863-1.918.867-1.87.864-1.774.863-1.75.863-1.688.863-1.64.864-1.586.863-1.547.863-1.496.864-1.453.863-1.41.863-1.375.863-1.333.864-1.296.863-1.262.863-1.223.864-1.195.863-1.16.863-1.133.863-1.102.864-1.074.863-1.047.863-1.02.863-.995.864-.97.863-.948.863-.922.864-.899.863-.882.863-.86.863-.84.868-.816.863-.805.863-.785.863-.766.864-.746.863-.734.863-.715.864-.707.863-.683.863-.672.863-.653.864-.648.863-.633.863-.613.864-.61.863-.593.863-.582.863-.567.864-.562.863-.543.863-.54.864-.53.863-.516.863-.504.863-.5.864-.492 1.726-.946.864-.46.863-.454.863-.449.867-.437.864-.43.863-.418.863-.422.863-.41 1.727-.797 1.727-.766 1.726-.742.863-.363.864-.36.863-.35.863-.345.863-.347 1.727-.664.863-.325.864-.316.863-.313" transform="matrix(1 0 0 -1 17.877 169.172)"/><path style="stroke:none;fill-rule:nonzero;fill:#00adef;fill-opacity:1" d="m85.55 97.066-.179-5.164-1.2 2.625-2.859-.418"/><path style="fill:none;stroke-width:.3985;stroke-linecap:butt;stroke-linejoin:miter;stroke:#000;stroke-opacity:1;stroke-dasharray:2.98883,1.99255;stroke-miterlimit:10" d="M48.568 0v125.32M134.048 0V16.65M.002 125.32h48.566M.002 16.65h134.047" transform="matrix(1 0 0 -1 17.877 169.172)"/><g style="fill:#000;fill-opacity:1"><use xlink:href="#d" x="140.533" y="106.04"/><use xlink:href="#a" x="145.159" y="106.04"/></g><use xlink:href="#C" x="152.581" y="102.231" style="fill:#000;fill-opacity:1"/><use xlink:href="#D" x="159.924" y="106.04" style="fill:#000;fill-opacity:1"/><use xlink:href="#E" x="169.647" y="106.04" style="fill:#000;fill-opacity:1"/><g style="fill:#000;fill-opacity:1"><use xlink:href="#F" x="176.307" y="102.231"/><use xlink:href="#G" x="179.185" y="102.231"/></g><path style="fill:none;stroke-width:.19925;stroke-linecap:butt;stroke-linejoin:miter;stroke:gray;stroke-opacity:1;stroke-miterlimit:10" d="m99.627 37.469 32.453 20.933" transform="matrix(1 0 0 -1 17.877 169.172)"/><path style="fill-rule:nonzero;fill:#fff;fill-opacity:1;stroke-width:.3985;stroke-linecap:butt;stroke-linejoin:miter;stroke:#000;stroke-opacity:1;stroke-miterlimit:10" d="M50.56 125.32a1.99 1.99 0 0 1-1.992 1.993 1.993 1.993 0 1 1 1.992-1.992ZM136.041 16.649a1.993 1.993 0 1 1-3.986-.002 1.993 1.993 0 0 1 3.986.002Zm0 0" transform="matrix(1 0 0 -1 17.877 169.172)"/><path style="fill-rule:nonzero;fill:#fff;fill-opacity:1;stroke-width:.3985;stroke-linecap:butt;stroke-linejoin:miter;stroke:#000;stroke-opacity:1;stroke-miterlimit:10" d="M50.56 125.32a1.99 1.99 0 0 1-1.992 1.993 1.993 1.993 0 1 1 1.992-1.992ZM136.041 16.649a1.993 1.993 0 1 1-3.986-.002 1.993 1.993 0 0 1 3.986.002Zm0 0" transform="matrix(1 0 0 -1 17.877 169.172)"/><use xlink:href="#a" x="208.436" y="179.284" style="fill:#000;fill-opacity:1"/><use xlink:href="#d" x="9.266" y="8.842" style="fill:#000;fill-opacity:1"/></svg>