<svg xmlns="http://www.w3.org/2000/svg" xmlns:xlink="http://www.w3.org/1999/xlink" width="378.604" height="49.508" viewBox="0 0 283.953 37.131"><defs><symbol overflow="visible" id="b"><path style="stroke:none" d="M3.063 2.14c0-.046-.032-.078-.079-.14C1.828.937 1.47-.672 1.47-2.25c0-1.375.265-3.063 1.531-4.266.047-.046.063-.062.063-.109a.107.107 0 0 0-.11-.11c-.11 0-.922.657-1.406 1.626-.422.859-.64 1.796-.64 2.859 0 .64.077 1.672.577 2.719.532 1.11 1.36 1.765 1.47 1.765.062 0 .108-.03.108-.093Zm0 0"/></symbol><symbol overflow="visible" id="h"><path style="stroke:none" d="M2.672-2.25c0-.734-.11-1.719-.578-2.719C1.563-6.079.734-6.734.625-6.734c-.094 0-.11.078-.11.109 0 .047.016.063.079.125.531.469 1.515 1.688 1.515 4.25C2.11-.969 1.875.813.58 2.031c-.016.016-.063.063-.063.11 0 .015.015.093.109.093.11 0 .922-.64 1.406-1.625.422-.859.64-1.78.64-2.859Zm0 0"/></symbol><symbol overflow="visible" id="y"><path style="stroke:none" d="M6.344-2.969c.125 0 .297 0 .297-.187 0-.203-.188-.203-.329-.203H.845c-.14 0-.328 0-.328.203 0 .187.171.187.296.187ZM6.312-1.14c.141 0 .329 0 .329-.203 0-.187-.172-.187-.297-.187H.812c-.125 0-.296 0-.296.187 0 .203.187.203.328.203Zm0 0"/></symbol><symbol overflow="visible" id="z"><path style="stroke:none" d="M4.25-2.875c0-.594-.031-1.375-.344-2.047-.406-.844-1.078-1.047-1.594-1.047-.546 0-1.234.203-1.624 1.078-.282.61-.329 1.344-.329 2.016 0 .594.016 1.453.407 2.172.421.75 1.125.906 1.53.906.579 0 1.25-.25 1.626-1.078.265-.61.328-1.281.328-2ZM2.312-.031c-.28 0-.921-.125-1.093-1.14-.094-.516-.094-1.298-.094-1.813 0-.61 0-1.313.11-1.813.187-.797.75-.953 1.062-.953.344 0 .906.188 1.078 1.016.094.484.094 1.187.094 1.75 0 .562 0 1.312-.094 1.843C3.187-.109 2.531-.03 2.312-.03Zm0 0"/></symbol><symbol overflow="visible" id="c"><path style="stroke:none" d="M.406 1.125c-.062.25-.078.344-.453.344-.11 0-.219 0-.219.156 0 .031.032.11.125.11l.375-.016H1.078c.156 0 .297.015.438.015.046 0 .171 0 .171-.156 0-.11-.093-.11-.25-.11-.421 0-.421-.062-.421-.155a2.9 2.9 0 0 1 .109-.438l.328-1.328c.094.187.344.547.86.547C3.359.094 4.5-1.172 4.5-2.516c0-.906-.563-1.453-1.234-1.453-.188 0-.641.047-1.188.656-.125-.5-.547-.656-.844-.656-.375 0-.578.281-.703.531-.14.313-.265.813-.265.86 0 .078.062.11.125.11.093 0 .109-.048.156-.235.172-.703.36-1.031.656-1.031.281 0 .281.28.281.421 0 .063-.015.204-.03.266Zm1.625-3.89c.047-.172.047-.188.172-.329.235-.312.64-.64 1.047-.64.422 0 .594.421.594.843 0 .391-.25 1.516-.531 1.985-.313.515-.688.781-1.016.781-.578 0-.735-.703-.735-.766 0-.062.032-.109.032-.156Zm0 0"/></symbol><symbol overflow="visible" id="e"><path style="stroke:none" d="M1.625-.14c0 .296 0 1.03-.656 1.671-.047.047-.047.063-.047.094 0 .063.062.11.11.11.093 0 .827-.704.827-1.75 0-.563-.203-.954-.578-.954a.467.467 0 0 0-.484.485c0 .25.172.484.484.484a.46.46 0 0 0 .344-.14Zm0 0"/></symbol><symbol overflow="visible" id="f"><path style="stroke:none" d="M5.797-5.063c.36-.578.672-.75 1.094-.78.109-.016.187-.016.187-.173 0-.062-.062-.109-.125-.109-.031 0-.25.031-.734.031-.282 0-.594-.031-.86-.031-.062 0-.171.016-.171.156 0 .11.109.125.125.125.093 0 .421.016.421.282 0 .078-.03.14-.062.203-.047.078-.063.109-.094.171L2.766-.827l-.672-4.75c0-.078.062-.266.61-.266.108 0 .218 0 .218-.172 0-.093-.094-.109-.14-.109-.157 0-.345.016-.516.016-.188 0-.375.015-.579.015-.156 0-.406 0-.484-.015-.078 0-.437-.016-.516-.016-.03 0-.156 0-.156.156 0 .125.094.125.203.125.5 0 .516.078.547.297L2.078-.03c.016.172.031.234.188.234.14 0 .187-.078.25-.187Zm0 0"/></symbol><symbol overflow="visible" id="g"><path style="stroke:none" d="M3.938-5.469c.046-.187.078-.281.218-.312.078-.016.36-.016.547-.016 1.031 0 1.344.063 1.344.766 0 .11 0 .25-.078.781l-.016.078c0 .063.031.125.125.125.11 0 .125-.094.14-.219l.235-1.562c.016-.031.016-.094.016-.125 0-.125-.078-.125-.25-.125h-5.11c-.218 0-.218.016-.28.187L.265-4.312c-.032.109-.032.14-.032.14 0 .047.032.125.11.125.11 0 .125-.062.172-.219.5-1.406.78-1.53 2.078-1.53h.344c.25 0 .25.03.25.109 0 .046-.016.109-.032.187L1.953-.703c-.078.312-.11.422-1.062.422-.282 0-.36 0-.36.172C.531 0 .641 0 .687 0c.235 0 .485-.016.735-.016s.5-.015.75-.015c.406 0 .422 0 .75.015.125 0 .703.016.781.016.078 0 .188 0 .188-.156 0-.125-.079-.125-.297-.125-.235 0-.344 0-.578-.016-.204-.031-.313-.031-.313-.187 0-.047.016-.11.031-.172Zm0 0"/></symbol><symbol overflow="visible" id="x"><path style="stroke:none" d="M3.688.375c-.016.094-.016.219-.016.328 0 .422.078 1.031.781 1.031C5.531 1.734 5.984.141 5.984 0c0-.047-.046-.11-.125-.11-.062 0-.078.063-.109.126-.203.609-.734.843-1.063.843-.406 0-.546-.265-.64-.906 1.969-.844 2.75-2.61 2.75-3.844 0-1.406-.953-2.437-2.36-2.437-2 0-3.984 2.062-3.984 4.11C.453-.75 1.47.202 2.813.202c.374 0 .734-.094.89-.125ZM2.28-.156c-.422-.172-1.015-.64-1.015-1.797 0-.469.156-1.906 1.125-3.063.468-.546 1.218-1.062 1.984-1.062.89 0 1.61.656 1.61 1.922 0 .89-.438 2.922-1.985 3.781-.078-.484-.25-.969-.828-.969-.5 0-.938.469-.938.922a.73.73 0 0 0 .047.266ZM3.72-.234a2.098 2.098 0 0 1-.844.187c-.11 0-.422 0-.422-.375 0-.328.344-.687.735-.687.53 0 .53.484.53.875Zm0 0"/></symbol><symbol overflow="visible" id="d"><path style="stroke:none" d="M2.14-3.797c0-.187-.015-.187-.203-.187-.39.39-1 .39-1.218.39v.235c.156 0 .562 0 .922-.172v3.015c0 .204 0 .282-.625.282h-.25V0c.328-.031.796-.031 1.125-.031.328 0 .796 0 1.125.031v-.234h-.25c-.625 0-.625-.078-.625-.282Zm0 0"/></symbol><symbol overflow="visible" id="j"><path style="stroke:none" d="M3.219-1.125H3c-.016.094-.078.484-.156.547-.047.047-.531.047-.625.047h-1.11l.766-.625c.203-.172.734-.547.922-.735.172-.171.422-.484.422-.906 0-.75-.672-1.187-1.485-1.187-.765 0-1.296.515-1.296 1.078 0 .297.25.344.312.344a.32.32 0 0 0 .328-.329c0-.125-.078-.328-.344-.328.141-.297.5-.531.922-.531.625 0 .953.469.953.953 0 .422-.28.86-.687 1.25L.5-.25C.437-.187.437-.187.437 0h2.594Zm0 0"/></symbol><symbol overflow="visible" id="k"><path style="stroke:none" d="M1.094-3.484c.25-.22.61-.313.937-.313.313 0 .594.172.781.438.172.25.172.53.172.828v.156c-.734.078-1.468.078-2.093.547-.297.219-.516.578-.516.937 0 .735.875.985 1.469.985.547 0 .968-.281 1.218-.75.079.375.297.703.704.703.546 0 .78-.453.78-.953v-.406h-.25v.453c0 .25-.046.593-.327.593-.297 0-.313-.39-.313-.593v-1.75c0-.938-.812-1.407-1.61-1.407-.562 0-1.39.235-1.39.938 0 .25.14.437.469.437.219-.015.36-.218.36-.421 0-.25-.188-.376-.391-.422Zm1.89 1.328v.875c0 .625-.437 1.14-1.062 1.14h-.063c-.421-.03-.75-.359-.75-.75 0-.859 1.032-1.265 1.875-1.265Zm0 0"/></symbol><symbol overflow="visible" id="l"><path style="stroke:none" d="M2.828-6.14v.28h.094c.36 0 .594.016.594.548v1.875a1.532 1.532 0 0 0-1.172-.532c-1.11 0-2.031.938-2.031 2.047C.313-.906 1.14.094 2.266.094c.421 0 .984-.203 1.218-.578v.578l1.36-.11V-.28h-.14c-.298 0-.548-.031-.548-.453v-5.5Zm-1.75 4.406v-.125c0-.72.188-1.875 1.313-1.875.468 0 1.109.343 1.109.906 0 .11-.016.219-.016.328v1.484c0 .11-.046.188-.109.282-.234.343-.64.593-1.063.593a1.14 1.14 0 0 1-.89-.453c-.25-.328-.297-.734-.344-1.14Zm0 0"/></symbol><symbol overflow="visible" id="m"><path style="stroke:none" d="M.36-3.86v.266H.5c.297 0 .516.047.516.453v2.485c0 .36-.25.375-.688.375v.265h1.938V-.28h-.141c-.234 0-.469-.031-.469-.313v-3.375Zm.765-2.156c-.234.047-.422.235-.422.485s.219.468.485.468h.062a.474.474 0 0 0 .422-.468.477.477 0 0 0-.484-.485Zm0 0"/></symbol><symbol overflow="visible" id="n"><path style="stroke:none" d="M.266-6.14v.28h.14c.297 0 .547.032.547.454v5.39l.25-.015.344-.531c.312.453.75.656 1.234.656 1.125 0 2.031-.953 2.031-2.047 0-.953-.765-2.016-1.937-2.016-.484 0-.89.172-1.281.563v-2.828Zm3.75 4.406c-.032.421-.079.796-.344 1.109a1.252 1.252 0 0 1-.969.484c-.375 0-.75-.218-.953-.546a.457.457 0 0 1-.125-.297v-2c.063-.391.703-.75 1.172-.75 1.047 0 1.234 1.14 1.234 1.812 0 .063 0 .125-.015.188Zm0 0"/></symbol><symbol overflow="visible" id="o"><path style="stroke:none" d="M1.36-5.531c0 .656-.298 1.718-1.188 1.718v.22h.781v2.374c0 .282.016.547.156.782.22.39.672.53 1.079.53h.078c.687-.124.796-.859.796-1.39v-.328h-.25c0 .125.016.25.016.39 0 .391-.094 1.079-.625 1.079-.484 0-.594-.563-.594-1.016v-2.422h1.313v-.265H1.609v-1.672Zm0 0"/></symbol><symbol overflow="visible" id="p"><path style="stroke:none" d="M3.484-.531v1.625c0 .328-.187.36-.687.36v.28l.64-.03h1.407v-.25h-.188c-.281 0-.5-.032-.5-.376v-5.047l-.218.016-.11.203-.234.578c-.094-.11-.156-.234-.235-.328a1.316 1.316 0 0 0-1.03-.469c-1.079 0-2.017.906-2.017 2.016 0 1.047.813 2.047 1.954 2.047.453 0 .984-.235 1.218-.625ZM1.078-1.797v-.11c0-.734.39-1.765 1.297-1.812h.031c.578 0 1.016.563 1.11 1.094v1.406c0 .735-.922 1.078-1.204 1.078h-.046C1.609-.188 1.25-.859 1.14-1.42c-.032-.126-.032-.25-.063-.376Zm0 0"/></symbol><symbol overflow="visible" id="q"><path style="stroke:none" d="M.313-3.86v.266H.39c.25 0 .593.031.593.281.016.11.016.188.016.297v1.782c0 .28.016.53.14.78.266.438.813.548 1.282.548.5 0 .984-.297 1.14-.766l.016.766 1.328-.11V-.28H4.75c-.266 0-.531-.031-.531-.438v-3.25l-1.36.11v.265h.125c.282 0 .563.031.563.453v1.766C3.5-.797 3.14-.141 2.453-.141c-.36 0-.687-.078-.765-.546-.016-.172-.016-.329-.016-.5V-3.97Zm0 0"/></symbol><symbol overflow="visible" id="r"><path style="stroke:none" d="M1.031-2.063h2.657c.109 0 .156-.046.156-.156 0-1.125-.703-1.797-1.64-1.797-1.095 0-1.954.954-1.954 2.047C.25-.875 1.125.094 2.344.094c.64 0 1.281-.453 1.469-1.078.015-.016.015-.063.015-.094a.107.107 0 0 0-.11-.11c-.171 0-.171.266-.265.391-.219.375-.656.64-1.094.64h-.062C1.828-.171 1.422-.5 1.219-.921c-.172-.36-.188-.75-.188-1.14Zm.016-.218c0-.594.25-1.281.906-1.485a.914.914 0 0 1 .203-.03c.781 0 1.063.796 1.063 1.515Zm0 0"/></symbol><symbol overflow="visible" id="s"><path style="stroke:none" d="M.266-3.86v.266h.14c.281 0 .547.031.547.453v2.485c0 .36-.234.375-.687.375v.265L.89-.03h1.562v-.25h-.297c-.312 0-.562-.047-.562-.375v-1.516c.062-.625.234-1.562 1.14-1.562-.125.062-.171.203-.171.328a.39.39 0 1 0 .78 0c0-.375-.359-.563-.687-.563-.547 0-.984.469-1.11.969v-.969Zm0 0"/></symbol><symbol overflow="visible" id="t"><path style="stroke:none" d="M1.031-2.063h2.657c.109 0 .156-.046.156-.156 0-1.125-.703-1.797-1.64-1.797-1.095 0-1.954.954-1.954 2.047C.25-.875 1.125.094 2.344.094c.64 0 1.281-.453 1.469-1.078.015-.016.015-.063.015-.094a.107.107 0 0 0-.11-.11c-.171 0-.171.266-.265.391-.219.375-.656.64-1.094.64h-.062C1.828-.171 1.422-.5 1.219-.921c-.172-.36-.188-.75-.188-1.14Zm.016-.218c0-.594.25-1.281.906-1.485a.914.914 0 0 1 .203-.03c.781 0 1.063.796 1.063 1.515Zm1.484-3.5c-.156.015-.312.203-.422.312-.28.282-.578.547-.859.828-.016.016-.016.032-.016.047 0 .063.079.188.141.188.047 0 .094-.047.125-.063l.25-.14c.39-.22 1.172-.516 1.172-.829 0-.171-.156-.359-.344-.359-.015 0-.031.016-.047.016Zm0 0"/></symbol><symbol overflow="visible" id="u"><path style="stroke:none" d="M.172-3.86v.266h.14c.454 0 .485.14.797.844.375.86.704 1.75 1.079 2.594.046.125.093.25.25.25.203 0 .39-.625.53-.969.266-.64.532-1.266.798-1.906.062-.156.109-.297.203-.438a.829.829 0 0 1 .703-.375v-.265l-.438.015h-1.03v.25c.218.016.405.14.405.36v.046c0 .235-.187.563-.296.813-.235.531-.485 1.078-.672 1.625-.11-.203-.188-.422-.266-.625l-.531-1.281c-.078-.172-.14-.328-.219-.485-.016-.062-.063-.14-.063-.203 0-.234.313-.25.5-.25v-.265Zm0 0"/></symbol><symbol overflow="visible" id="v"><path style="stroke:none" d="M.813-.313c.296.297.656.407 1.046.407.735 0 1.454-.375 1.454-1.25v-.094c-.032-.516-.422-.89-.876-1.063a3.528 3.528 0 0 0-.703-.156c-.375-.078-.968-.187-.968-.703 0-.515.656-.656 1.03-.656.579 0 .985.344 1.032.969 0 .078.016.171.125.171.063 0 .125-.03.125-.109v-1.078c0-.063-.015-.14-.094-.14-.14 0-.234.218-.343.218h-.016c-.063-.015-.125-.062-.188-.094-.187-.093-.421-.125-.64-.125-.625 0-1.484.204-1.484 1.125 0 .907 1.046 1.047 1.687 1.172.39.078.828.313.86.75 0 .64-.532.828-1.016.828h-.078C1.109-.17.75-.656.594-1.28c-.031-.094-.031-.25-.156-.25-.11 0-.126.078-.126.156v1.156c0 .047-.015.078-.015.125 0 .094.016.188.11.188.093 0 .156-.11.218-.172l.031-.047c.063-.063.11-.11.156-.188Zm0 0"/></symbol><symbol overflow="visible" id="w"><path style="stroke:none" d="M.328-6.14v.28h.11c.312 0 .578.016.578.47v4.718c0 .375-.25.39-.641.39H.328v.266h2.016V-.28h-.235c-.234 0-.453-.047-.453-.36v-5.593Zm0 0"/></symbol><clipPath id="a"><path d="M0 0h86v37.133H0Zm0 0"/></clipPath><clipPath id="i"><path d="M197 0h86.953v37.133H197Zm0 0"/></clipPath></defs><path style="stroke:none;fill-rule:nonzero;fill:#bfbfbf;fill-opacity:1" d="M80.348 18.566c0-7.394-16.828-13.386-37.582-13.386-20.758 0-37.586 5.992-37.586 13.386 0 7.391 16.828 13.383 37.586 13.383 20.754 0 37.582-5.992 37.582-13.383Zm0 0"/><g clip-path="url(#a)"><path style="fill:none;stroke-width:.3985;stroke-linecap:butt;stroke-linejoin:miter;stroke:#000;stroke-opacity:1;stroke-dasharray:2.98883,2.98883;stroke-miterlimit:10" d="M37.584 0c0 7.394-16.828 13.386-37.582 13.386-20.758 0-37.586-5.992-37.586-13.386 0-7.391 16.828-13.383 37.586-13.383 20.754 0 37.582 5.992 37.582 13.383Zm0 0" transform="matrix(1 0 0 -1 42.764 18.566)"/></g><use xlink:href="#b" x="21.17" y="20.807" style="fill:#fff;fill-opacity:1"/><use xlink:href="#c" x="24.754" y="20.807" style="fill:#fff;fill-opacity:1"/><use xlink:href="#d" x="29.38" y="21.803" style="fill:#fff;fill-opacity:1"/><use xlink:href="#e" x="33.531" y="20.807" style="fill:#fff;fill-opacity:1"/><use xlink:href="#f" x="37.624" y="20.807" style="fill:#fff;fill-opacity:1"/><use xlink:href="#d" x="43.001" y="21.803" style="fill:#fff;fill-opacity:1"/><use xlink:href="#e" x="47.152" y="20.807" style="fill:#fff;fill-opacity:1"/><use xlink:href="#g" x="51.245" y="20.807" style="fill:#fff;fill-opacity:1"/><use xlink:href="#d" x="56.624" y="21.803" style="fill:#fff;fill-opacity:1"/><use xlink:href="#h" x="60.775" y="20.807" style="fill:#fff;fill-opacity:1"/><path style="stroke:none;fill-rule:nonzero;fill:#bfbfbf;fill-opacity:1" d="M278.777 18.566c0-7.394-16.828-13.386-37.586-13.386-20.757 0-37.582 5.992-37.582 13.386 0 7.391 16.825 13.383 37.582 13.383 20.758 0 37.586-5.992 37.586-13.383Zm0 0"/><g clip-path="url(#i)"><path style="fill:none;stroke-width:.3985;stroke-linecap:butt;stroke-linejoin:miter;stroke:#000;stroke-opacity:1;stroke-dasharray:2.98883,2.98883;stroke-miterlimit:10" d="M236.013 0c0 7.394-16.828 13.386-37.586 13.386-20.757 0-37.582-5.992-37.582-13.386 0-7.391 16.825-13.383 37.582-13.383 20.758 0 37.586 5.992 37.586 13.383Zm0 0" transform="matrix(1 0 0 -1 42.764 18.566)"/></g><use xlink:href="#b" x="219.595" y="20.807" style="fill:#fff;fill-opacity:1"/><use xlink:href="#c" x="223.179" y="20.807" style="fill:#fff;fill-opacity:1"/><use xlink:href="#j" x="227.805" y="21.803" style="fill:#fff;fill-opacity:1"/><use xlink:href="#e" x="231.956" y="20.807" style="fill:#fff;fill-opacity:1"/><use xlink:href="#f" x="236.049" y="20.807" style="fill:#fff;fill-opacity:1"/><use xlink:href="#j" x="241.426" y="21.803" style="fill:#fff;fill-opacity:1"/><use xlink:href="#e" x="245.577" y="20.807" style="fill:#fff;fill-opacity:1"/><use xlink:href="#g" x="249.67" y="20.807" style="fill:#fff;fill-opacity:1"/><use xlink:href="#j" x="255.049" y="21.803" style="fill:#fff;fill-opacity:1"/><use xlink:href="#h" x="259.2" y="20.807" style="fill:#fff;fill-opacity:1"/><path style="fill:none;stroke-width:1.59404;stroke-linecap:butt;stroke-linejoin:miter;stroke:gray;stroke-opacity:1;stroke-miterlimit:10" d="M42.564 0h109.512" transform="matrix(1 0 0 -1 42.764 18.566)"/><path style="stroke:none;fill-rule:nonzero;fill:gray;fill-opacity:1" d="m198.625 18.566-6.055-3.027 2.27 3.027-2.27 3.028"/><g style="fill:gray;fill-opacity:1"><use xlink:href="#k" x="98.033" y="14.83"/><use xlink:href="#l" x="102.64" y="14.83"/><use xlink:href="#m" x="107.758" y="14.83"/><use xlink:href="#k" x="110.317" y="14.83"/><use xlink:href="#n" x="114.924" y="14.83"/><use xlink:href="#k" x="120.042" y="14.83"/><use xlink:href="#o" x="124.649" y="14.83"/><use xlink:href="#m" x="128.232" y="14.83"/><use xlink:href="#p" x="130.791" y="14.83"/><use xlink:href="#q" x="135.653" y="14.83"/><use xlink:href="#r" x="140.771" y="14.83"/></g><g style="fill:gray;fill-opacity:1"><use xlink:href="#s" x="147.945" y="14.83"/><use xlink:href="#t" x="151.549" y="14.83"/></g><use xlink:href="#u" x="155.639" y="14.83" style="fill:gray;fill-opacity:1"/><g style="fill:gray;fill-opacity:1"><use xlink:href="#r" x="160.25" y="14.83"/><use xlink:href="#s" x="164.348" y="14.83"/><use xlink:href="#v" x="167.952" y="14.83"/><use xlink:href="#m" x="171.586" y="14.83"/><use xlink:href="#n" x="174.145" y="14.83"/><use xlink:href="#w" x="179.263" y="14.83"/><use xlink:href="#r" x="181.822" y="14.83"/></g><use xlink:href="#x" x="129.895" y="26.685" style="fill:gray;fill-opacity:1"/><use xlink:href="#y" x="139.723" y="26.685" style="fill:gray;fill-opacity:1"/><use xlink:href="#z" x="149.446" y="26.685" style="fill:gray;fill-opacity:1"/></svg>