<svg xmlns="http://www.w3.org/2000/svg" xmlns:xlink="http://www.w3.org/1999/xlink" width="455.949" height="51.343" viewBox="0 0 341.962 38.507"><defs><symbol overflow="visible" id="b"><path style="stroke:none" d="M.344-6.11v.282h.344c.296 0 .562.031.562.39v4.75c0 .36-.297.407-.594.407H.344v.265h5.265L6-2.328h-.25c-.094.562-.188 1.203-.563 1.61-.406.421-1.046.437-1.593.437h-1.14c-.188 0-.392 0-.392-.328v-2.438h.86c.312 0 .672.031.828.297.125.188.14.438.14.672v.094h.25v-2.391h-.25v.094c0 .5-.124.906-.687.937-.156.031-.344.031-.515.031h-.626v-2.203c0-.312.188-.312.391-.312h1.172c.625 0 1.328.031 1.656.719.14.328.172.671.219 1.015h.25L5.5-6.109Zm2.406-.765.11.234c.421-.14.843-.25 1.265-.39.188-.047.5-.094.5-.375 0-.188-.156-.36-.344-.36-.11 0-.203.079-.297.125l-.28.172c-.313.188-.626.39-.954.594Zm0 0"/></symbol><symbol overflow="visible" id="c"><path style="stroke:none" d="M1.36-5.531c0 .656-.298 1.718-1.188 1.718v.22h.781v2.374c0 .282.016.547.156.782.22.39.672.53 1.079.53h.078c.687-.124.796-.859.796-1.39v-.328h-.25c0 .125.016.25.016.39 0 .391-.094 1.079-.625 1.079-.484 0-.594-.563-.594-1.016v-2.422h1.313v-.265H1.609v-1.672Zm0 0"/></symbol><symbol overflow="visible" id="d"><path style="stroke:none" d="M1.094-3.484c.25-.22.61-.313.937-.313.313 0 .594.172.781.438.172.25.172.53.172.828v.156c-.734.078-1.468.078-2.093.547-.297.219-.516.578-.516.937 0 .735.875.985 1.469.985.547 0 .968-.281 1.218-.75.079.375.297.703.704.703.546 0 .78-.453.78-.953v-.406h-.25v.453c0 .25-.046.593-.327.593-.297 0-.313-.39-.313-.593v-1.75c0-.938-.812-1.407-1.61-1.407-.562 0-1.39.235-1.39.938 0 .25.14.437.469.437.219-.015.36-.218.36-.421 0-.25-.188-.376-.391-.422Zm1.89 1.328v.875c0 .625-.437 1.14-1.062 1.14h-.063c-.421-.03-.75-.359-.75-.75 0-.859 1.032-1.265 1.875-1.265Zm0 0"/></symbol><symbol overflow="visible" id="e"><path style="stroke:none" d="M.36-3.86v.266H.5c.297 0 .516.047.516.453v2.485c0 .36-.25.375-.688.375v.265h1.938V-.28h-.141c-.234 0-.469-.031-.469-.313v-3.375Zm.765-2.156c-.234.047-.422.235-.422.485s.219.468.485.468h.062a.474.474 0 0 0 .422-.468.477.477 0 0 0-.484-.485Zm0 0"/></symbol><symbol overflow="visible" id="f"><path style="stroke:none" d="M.313-3.86v.266h.14c.266 0 .547.031.547.453v2.485c0 .36-.234.375-.688.375v.265L.954-.03H2.36v-.25h-.203c-.265 0-.484-.047-.484-.375v-1.61c0-.687.406-1.468 1.25-1.468.484 0 .625.437.625 1v2.109c0 .313-.25.344-.547.344h-.14v.265L3.5-.03h1.406v-.25h-.172c-.265 0-.515-.031-.515-.36v-2.015c0-.281-.016-.531-.14-.781-.235-.422-.704-.532-1.141-.532-.547 0-1.11.375-1.313.89l-.016-.89Zm0 0"/></symbol><symbol overflow="visible" id="g"><path style="stroke:none" d="M.328-6.14v.28h.11c.312 0 .578.016.578.47v4.718c0 .375-.25.39-.641.39H.328v.266h2.016V-.28h-.235c-.234 0-.453-.047-.453-.36v-5.593Zm0 0"/></symbol><symbol overflow="visible" id="p"><path style="stroke:none" d="M.953-3.86H.25v.266h.703v2.969c0 .313-.25.344-.547.344h-.14v.265L.922-.03h.734l.625.015V-.28h-.203c-.25 0-.484-.031-.484-.344v-2.969h1.468c.25 0 .454.078.454.422v2.5c0 .297-.094.39-.688.39v.266l.625-.015h.735l.656.015V-.28h-.219c-.234 0-.469-.047-.469-.375V-3.97l-1.39.11H1.562v-.922c0-.188.016-.375.094-.563.203-.468.75-.765 1.266-.765.281 0 .562.078.765.265a.426.426 0 0 0-.39.422.42.42 0 0 0 .422.422.42.42 0 0 0 .422-.422v-.016c0-.625-.688-.89-1.22-.89-.89 0-1.968.453-1.968 1.469Zm0 0"/></symbol><symbol overflow="visible" id="r"><path style="stroke:none" d="M5.422-5.547c-.25-.422-.984-.75-1.578-.781H3.75C1.969-6.328.516-4.86.516-3.078v.156c.109 1.75 1.5 3.11 3.203 3.11 1.234 0 2.422-.985 2.422-2.282v-.078c-.016-.062-.079-.094-.141-.094-.078 0-.11.063-.11.141v.063c-.093.921-.75 1.968-2.062 1.968-.703 0-1.406-.36-1.844-.922-.437-.578-.562-1.421-.562-2.109 0-.89.234-1.766.906-2.375.39-.344.938-.547 1.469-.547 1.156 0 1.86 1 2.031 2 .016.125 0 .281.156.281.125 0 .157-.062.157-.14v-2.219c0-.094 0-.203-.11-.203-.156 0-.406.531-.61.781Zm0 0"/></symbol><symbol overflow="visible" id="s"><path style="stroke:none" d="M.313-6.14v.28h.156c.281 0 .531.032.531.47v4.515c0 .063.016.125.016.203 0 .375-.266.39-.641.39H.312v.266L.954-.03H2.36v-.25h-.203c-.265 0-.484-.047-.484-.375v-1.61c0-.687.406-1.468 1.25-1.468.484 0 .625.437.625 1v2.109c0 .313-.25.344-.547.344h-.14v.265L3.5-.03h1.406v-.25h-.172c-.265 0-.515-.031-.515-.36v-2.015c0-.281-.016-.547-.14-.781-.22-.407-.673-.532-1.095-.532-.515 0-1.125.297-1.328.844l-.015-3.11Zm0 0"/></symbol><symbol overflow="visible" id="t"><path style="stroke:none" d="M.313-3.86v.266H.39c.25 0 .593.031.593.281.016.11.016.188.016.297v1.782c0 .28.016.53.14.78.266.438.813.548 1.282.548.5 0 .984-.297 1.14-.766l.016.766 1.328-.11V-.28H4.75c-.266 0-.531-.031-.531-.438v-3.25l-1.36.11v.265h.125c.282 0 .563.031.563.453v1.766C3.5-.797 3.14-.141 2.453-.141c-.36 0-.687-.078-.765-.546-.016-.172-.016-.329-.016-.5V-3.97Zm0 0"/></symbol><symbol overflow="visible" id="u"><path style="stroke:none" d="M.953-3.86H.234v.266h.72v2.969c0 .313-.25.344-.548.344h-.14v.265L.89-.03h1.39v-.25h-.203c-.25 0-.484-.031-.484-.344v-2.969h1.922v2.969c0 .313-.266.344-.563.344h-.125v.265l.625-.015h1.563v-.25h-.297c-.328 0-.563-.047-.563-.422v-2.89h1.032v-.266H4.125v-.829c0-.578.14-1.421.828-1.421.094 0 .188.015.266.062a.395.395 0 0 0-.235.36c0 .218.172.406.407.406.234 0 .39-.188.39-.407 0-.453-.468-.64-.843-.64-.375 0-.672.14-.97.375-.187-.313-.765-.375-1.046-.375-.875 0-1.969.437-1.969 1.453v.25Zm2.594-1.343c-.031.094-.031.187-.031.281v1.063H1.562v-.938c0-.281.047-.578.25-.797.266-.343.704-.515 1.125-.515.235 0 .454.062.672.156-.156.062-.296.172-.296.39 0 .141.078.313.234.36Zm0 0"/></symbol><symbol overflow="visible" id="v"><path style="stroke:none" d="M.969-1.734A1.162 1.162 0 0 0 .688-1c0 .297.125.625.39.797-.422.172-.812.422-.812.89 0 .907 1.406 1.157 2.046 1.157.766 0 2.032-.282 2.032-1.188 0-1.062-1.11-1.281-2.016-1.281H1.5a.575.575 0 0 1-.5-.578c0-.125.063-.375.14-.375h.016c.125.031.25.125.375.156.157.063.344.078.516.078.719 0 1.5-.5 1.5-1.281 0-.313-.125-.672-.375-.875v-.016c.297-.203.547-.328.875-.328-.063.063-.125.125-.125.235 0 .14.125.265.281.265.188 0 .266-.14.266-.265 0-.297-.25-.454-.485-.454h-.078a1.483 1.483 0 0 0-.781.313c-.016.031-.063.078-.11.078-.062 0-.265-.14-.39-.187a1.316 1.316 0 0 0-.547-.11c-.734 0-1.531.5-1.531 1.328 0 .329.156.688.422.907ZM.766.734V.672c0-.469.468-.735.89-.735.078 0 .188.016.266.016h.469c.53 0 1.359.031 1.453.688v.062c0 .781-1.313.89-1.563.89C1.72 1.594.86 1.36.766.735ZM1.25-2.5v-.094c0-.484.11-1.125.797-1.125.547 0 .812.469.812 1.11 0 .515-.234 1.015-.812 1.015a.785.785 0 0 1-.61-.265c-.14-.188-.156-.407-.187-.641Zm0 0"/></symbol><symbol overflow="visible" id="w"><path style="stroke:none" d="M1.031-2.063h2.657c.109 0 .156-.046.156-.156 0-1.125-.703-1.797-1.64-1.797-1.095 0-1.954.954-1.954 2.047C.25-.875 1.125.094 2.344.094c.64 0 1.281-.453 1.469-1.078.015-.016.015-.063.015-.094a.107.107 0 0 0-.11-.11c-.171 0-.171.266-.265.391-.219.375-.656.64-1.094.64h-.062C1.828-.171 1.422-.5 1.219-.921c-.172-.36-.188-.75-.188-1.14Zm.016-.218c0-.594.25-1.281.906-1.485a.914.914 0 0 1 .203-.03c.781 0 1.063.796 1.063 1.515Zm0 0"/></symbol><symbol overflow="visible" id="x"><path style="stroke:none" d="M.813-.313c.296.297.656.407 1.046.407.735 0 1.454-.375 1.454-1.25v-.094c-.032-.516-.422-.89-.876-1.063a3.528 3.528 0 0 0-.703-.156c-.375-.078-.968-.187-.968-.703 0-.515.656-.656 1.03-.656.579 0 .985.344 1.032.969 0 .078.016.171.125.171.063 0 .125-.03.125-.109v-1.078c0-.063-.015-.14-.094-.14-.14 0-.234.218-.343.218h-.016c-.063-.015-.125-.062-.188-.094-.187-.093-.421-.125-.64-.125-.625 0-1.484.204-1.484 1.125 0 .907 1.046 1.047 1.687 1.172.39.078.828.313.86.75 0 .64-.532.828-1.016.828h-.078C1.109-.17.75-.656.594-1.28c-.031-.094-.031-.25-.156-.25-.11 0-.126.078-.126.156v1.156c0 .047-.015.078-.015.125 0 .094.016.188.11.188.093 0 .156-.11.218-.172l.031-.047c.063-.063.11-.11.156-.188Zm0 0"/></symbol><symbol overflow="visible" id="y"><path style="stroke:none" d="M2.172-4.016c-1.047.11-1.906.954-1.906 2.094C.266-1 .953.094 2.312.094c1.047 0 2.032-.844 2.032-2 0-1.078-.844-2.125-2.047-2.125-.047 0-.078.015-.125.015ZM1.047-1.719v-.375c0-.719.219-1.703 1.266-1.703.703 0 1.156.563 1.234 1.281.015.188.015.375.015.563 0 .469-.03 1-.359 1.375a1.19 1.19 0 0 1-.906.422c-.656 0-1.11-.5-1.235-1.219 0-.11 0-.219-.015-.344Zm0 0"/></symbol><symbol overflow="visible" id="z"><path style="stroke:none" d="M3.25-3.531c-.188.062-.36.172-.36.422 0 .218.157.406.422.406.235 0 .422-.172.422-.438 0-.64-.765-.859-1.312-.875h-.094A2.04 2.04 0 0 0 .313-1.953c0 1.094.859 2.047 2 2.047.624 0 1.203-.328 1.453-.969.015-.063.062-.14.062-.203s-.062-.11-.125-.11c-.156 0-.156.235-.234.36-.219.406-.61.672-1.094.672-.984 0-1.297-1.125-1.297-1.813 0-.734.266-1.797 1.266-1.797.25 0 .515.032.734.141.063.016.11.063.172.094Zm0 0"/></symbol><symbol overflow="visible" id="A"><path style="stroke:none" d="M.266-3.86v.266h.14c.281 0 .547.031.547.453v2.485c0 .36-.234.375-.687.375v.265L.89-.03h1.562v-.25h-.297c-.312 0-.562-.047-.562-.375v-1.516c.062-.625.234-1.562 1.14-1.562-.125.062-.171.203-.171.328a.39.39 0 1 0 .78 0c0-.375-.359-.563-.687-.563-.547 0-.984.469-1.11.969v-.969Zm0 0"/></symbol><symbol overflow="visible" id="h"><path style="stroke:none" d="M3.063 2.14c0-.046-.032-.078-.079-.14C1.828.937 1.47-.672 1.47-2.25c0-1.375.265-3.063 1.531-4.266.047-.046.063-.062.063-.109a.107.107 0 0 0-.11-.11c-.11 0-.922.657-1.406 1.626-.422.859-.64 1.796-.64 2.859 0 .64.077 1.672.577 2.719.532 1.11 1.36 1.765 1.47 1.765.062 0 .108-.03.108-.093Zm0 0"/></symbol><symbol overflow="visible" id="n"><path style="stroke:none" d="M2.672-2.25c0-.734-.11-1.719-.578-2.719C1.563-6.079.734-6.734.625-6.734c-.094 0-.11.078-.11.109 0 .047.016.063.079.125.531.469 1.515 1.688 1.515 4.25C2.11-.969 1.875.813.58 2.031c-.016.016-.063.063-.063.11 0 .015.015.093.109.093.11 0 .922-.64 1.406-1.625.422-.859.64-1.78.64-2.859Zm0 0"/></symbol><symbol overflow="visible" id="i"><path style="stroke:none" d="M.406 1.125c-.062.25-.078.344-.453.344-.11 0-.219 0-.219.156 0 .031.032.11.125.11l.375-.016H1.078c.156 0 .297.015.438.015.046 0 .171 0 .171-.156 0-.11-.093-.11-.25-.11-.421 0-.421-.062-.421-.155a2.9 2.9 0 0 1 .109-.438l.328-1.328c.094.187.344.547.86.547C3.359.094 4.5-1.172 4.5-2.516c0-.906-.563-1.453-1.234-1.453-.188 0-.641.047-1.188.656-.125-.5-.547-.656-.844-.656-.375 0-.578.281-.703.531-.14.313-.265.813-.265.86 0 .078.062.11.125.11.093 0 .109-.048.156-.235.172-.703.36-1.031.656-1.031.281 0 .281.28.281.421 0 .063-.015.204-.03.266Zm1.625-3.89c.047-.172.047-.188.172-.329.235-.312.64-.64 1.047-.64.422 0 .594.421.594.843 0 .391-.25 1.516-.531 1.985-.313.515-.688.781-1.016.781-.578 0-.735-.703-.735-.766 0-.062.032-.109.032-.156Zm0 0"/></symbol><symbol overflow="visible" id="k"><path style="stroke:none" d="M1.625-.14c0 .296 0 1.03-.656 1.671-.047.047-.047.063-.047.094 0 .063.062.11.11.11.093 0 .827-.704.827-1.75 0-.563-.203-.954-.578-.954a.467.467 0 0 0-.484.485c0 .25.172.484.484.484a.46.46 0 0 0 .344-.14Zm0 0"/></symbol><symbol overflow="visible" id="l"><path style="stroke:none" d="M5.797-5.063c.36-.578.672-.75 1.094-.78.109-.016.187-.016.187-.173 0-.062-.062-.109-.125-.109-.031 0-.25.031-.734.031-.282 0-.594-.031-.86-.031-.062 0-.171.016-.171.156 0 .11.109.125.125.125.093 0 .421.016.421.282 0 .078-.03.14-.062.203-.047.078-.063.109-.094.171L2.766-.827l-.672-4.75c0-.078.062-.266.61-.266.108 0 .218 0 .218-.172 0-.093-.094-.109-.14-.109-.157 0-.345.016-.516.016-.188 0-.375.015-.579.015-.156 0-.406 0-.484-.015-.078 0-.437-.016-.516-.016-.03 0-.156 0-.156.156 0 .125.094.125.203.125.5 0 .516.078.547.297L2.078-.03c.016.172.031.234.188.234.14 0 .187-.078.25-.187Zm0 0"/></symbol><symbol overflow="visible" id="m"><path style="stroke:none" d="M3.938-5.469c.046-.187.078-.281.218-.312.078-.016.36-.016.547-.016 1.031 0 1.344.063 1.344.766 0 .11 0 .25-.078.781l-.016.078c0 .063.031.125.125.125.11 0 .125-.094.14-.219l.235-1.562c.016-.031.016-.094.016-.125 0-.125-.078-.125-.25-.125h-5.11c-.218 0-.218.016-.28.187L.265-4.312c-.032.109-.032.14-.032.14 0 .047.032.125.11.125.11 0 .125-.062.172-.219.5-1.406.78-1.53 2.078-1.53h.344c.25 0 .25.03.25.109 0 .046-.016.109-.032.187L1.953-.703c-.078.312-.11.422-1.062.422-.282 0-.36 0-.36.172C.531 0 .641 0 .687 0c.235 0 .485-.016.735-.016s.5-.015.75-.015c.406 0 .422 0 .75.015.125 0 .703.016.781.016.078 0 .188 0 .188-.156 0-.125-.079-.125-.297-.125-.235 0-.344 0-.578-.016-.204-.031-.313-.031-.313-.187 0-.047.016-.11.031-.172Zm0 0"/></symbol><symbol overflow="visible" id="j"><path style="stroke:none" d="M2.14-3.797c0-.187-.015-.187-.203-.187-.39.39-1 .39-1.218.39v.235c.156 0 .562 0 .922-.172v3.015c0 .204 0 .282-.625.282h-.25V0c.328-.031.796-.031 1.125-.031.328 0 .796 0 1.125.031v-.234h-.25c-.625 0-.625-.078-.625-.282Zm0 0"/></symbol><symbol overflow="visible" id="q"><path style="stroke:none" d="M3.219-1.125H3c-.016.094-.078.484-.156.547-.047.047-.531.047-.625.047h-1.11l.766-.625c.203-.172.734-.547.922-.735.172-.171.422-.484.422-.906 0-.75-.672-1.187-1.485-1.187-.765 0-1.296.515-1.296 1.078 0 .297.25.344.312.344a.32.32 0 0 0 .328-.329c0-.125-.078-.328-.344-.328.141-.297.5-.531.922-.531.625 0 .953.469.953.953 0 .422-.28.86-.687 1.25L.5-.25C.437-.187.437-.187.437 0h2.594Zm0 0"/></symbol><clipPath id="a"><path d="M0 0h149v38.508H0Zm0 0"/></clipPath><clipPath id="o"><path d="M202 0h139.96v38.508H202Zm0 0"/></clipPath></defs><path style="stroke:none;fill-rule:nonzero;fill:#bfbfbf;fill-opacity:1" d="M142.7 19.254c0-7.774-30.786-14.074-68.759-14.074-37.976 0-68.761 6.3-68.761 14.074 0 7.773 30.785 14.07 68.761 14.07 37.973 0 68.758-6.297 68.758-14.07Zm0 0"/><g clip-path="url(#a)"><path style="fill:none;stroke-width:.3985;stroke-linecap:butt;stroke-linejoin:miter;stroke:#000;stroke-opacity:1;stroke-dasharray:2.98883,2.98883;stroke-miterlimit:10" d="M68.76 0C68.76 7.772 37.973 14.072 0 14.072c-37.976 0-68.761-6.3-68.761-14.074 0-7.773 30.785-14.07 68.761-14.07 37.973 0 68.758 6.297 68.758 14.07Zm0 0" transform="matrix(1 0 0 -1 73.94 19.253)"/></g><g style="fill:#fff;fill-opacity:1"><use xlink:href="#b" x="30.301" y="21.982"/><use xlink:href="#c" x="36.57" y="21.982"/><use xlink:href="#d" x="40.153" y="21.982"/><use xlink:href="#c" x="44.76" y="21.982"/></g><use xlink:href="#e" x="51.41" y="21.982" style="fill:#fff;fill-opacity:1"/><g style="fill:#fff;fill-opacity:1"><use xlink:href="#f" x="53.978" y="21.982"/><use xlink:href="#e" x="59.096" y="21.982"/><use xlink:href="#c" x="61.655" y="21.982"/><use xlink:href="#e" x="65.238" y="21.982"/><use xlink:href="#d" x="67.797" y="21.982"/><use xlink:href="#g" x="72.404" y="21.982"/></g><use xlink:href="#h" x="78.03" y="21.982" style="fill:#fff;fill-opacity:1"/><use xlink:href="#i" x="81.614" y="21.982" style="fill:#fff;fill-opacity:1"/><use xlink:href="#j" x="86.24" y="22.978" style="fill:#fff;fill-opacity:1"/><use xlink:href="#k" x="90.391" y="21.982" style="fill:#fff;fill-opacity:1"/><use xlink:href="#l" x="94.484" y="21.982" style="fill:#fff;fill-opacity:1"/><use xlink:href="#k" x="100.37" y="21.982" style="fill:#fff;fill-opacity:1"/><use xlink:href="#m" x="104.472" y="21.982" style="fill:#fff;fill-opacity:1"/><use xlink:href="#j" x="109.844" y="22.978" style="fill:#fff;fill-opacity:1"/><use xlink:href="#n" x="113.995" y="21.982" style="fill:#fff;fill-opacity:1"/><path style="stroke:none;fill-rule:nonzero;fill:#bfbfbf;fill-opacity:1" d="M336.785 19.254c0-7.774-28.84-14.074-64.418-14.074s-64.418 6.3-64.418 14.074c0 7.773 28.84 14.07 64.418 14.07s64.418-6.297 64.418-14.07Zm0 0"/><g clip-path="url(#o)"><path style="fill:none;stroke-width:.3985;stroke-linecap:butt;stroke-linejoin:miter;stroke:#000;stroke-opacity:1;stroke-dasharray:2.98883,2.98883;stroke-miterlimit:10" d="M262.845 0c0 7.773-28.84 14.073-64.418 14.073S134.01 7.773 134.01 0c0-7.773 28.84-14.07 64.418-14.07s64.418 6.297 64.418 14.07Zm0 0" transform="matrix(1 0 0 -1 73.94 19.253)"/></g><g style="fill:#fff;fill-opacity:1"><use xlink:href="#b" x="231.797" y="21.982"/><use xlink:href="#c" x="238.066" y="21.982"/><use xlink:href="#d" x="241.649" y="21.982"/><use xlink:href="#c" x="246.256" y="21.982"/></g><use xlink:href="#p" x="252.906" y="21.982" style="fill:#fff;fill-opacity:1"/><g style="fill:#fff;fill-opacity:1"><use xlink:href="#f" x="258.033" y="21.982"/><use xlink:href="#d" x="263.151" y="21.982"/><use xlink:href="#g" x="267.758" y="21.982"/></g><use xlink:href="#h" x="273.384" y="21.982" style="fill:#fff;fill-opacity:1"/><use xlink:href="#i" x="276.968" y="21.982" style="fill:#fff;fill-opacity:1"/><use xlink:href="#q" x="281.594" y="22.978" style="fill:#fff;fill-opacity:1"/><use xlink:href="#k" x="285.745" y="21.982" style="fill:#fff;fill-opacity:1"/><use xlink:href="#l" x="289.838" y="21.982" style="fill:#fff;fill-opacity:1"/><use xlink:href="#k" x="295.724" y="21.982" style="fill:#fff;fill-opacity:1"/><use xlink:href="#m" x="299.826" y="21.982" style="fill:#fff;fill-opacity:1"/><use xlink:href="#q" x="305.198" y="22.978" style="fill:#fff;fill-opacity:1"/><use xlink:href="#n" x="309.349" y="21.982" style="fill:#fff;fill-opacity:1"/><path style="fill:none;stroke-width:1.59404;stroke-linecap:butt;stroke-linejoin:miter;stroke:gray;stroke-opacity:1;stroke-miterlimit:10" d="M73.744 0h51.5" transform="matrix(1 0 0 -1 73.94 19.253)"/><path style="stroke:none;fill-rule:nonzero;fill:gray;fill-opacity:1" d="m202.969 19.254-6.059-3.031 2.274 3.03-2.274 3.028"/><g style="fill:gray;fill-opacity:1"><use xlink:href="#r" x="155.233" y="15.518"/><use xlink:href="#s" x="161.887" y="15.518"/><use xlink:href="#d" x="167.005" y="15.518"/><use xlink:href="#t" x="171.612" y="15.518"/><use xlink:href="#u" x="176.73" y="15.518"/><use xlink:href="#d" x="182.104" y="15.518"/><use xlink:href="#v" x="186.711" y="15.518"/><use xlink:href="#w" x="191.318" y="15.518"/></g><g style="fill:gray;fill-opacity:1"><use xlink:href="#e" x="159.163" y="27.421"/><use xlink:href="#x" x="161.722" y="27.421"/><use xlink:href="#y" x="165.356" y="27.421"/></g><use xlink:href="#z" x="170.223" y="27.421" style="fill:gray;fill-opacity:1"/><g style="fill:gray;fill-opacity:1"><use xlink:href="#s" x="174.058" y="27.421"/><use xlink:href="#y" x="179.176" y="27.421"/><use xlink:href="#A" x="183.783" y="27.421"/><use xlink:href="#w" x="187.387" y="27.421"/></g></svg>