<svg xmlns="http://www.w3.org/2000/svg" xmlns:xlink="http://www.w3.org/1999/xlink" width="296.333" height="85.547" viewBox="0 0 222.25 64.16"><defs><symbol overflow="visible" id="a"><path style="stroke:none" d="M.39-6.14v.28h.313c.313 0 .61.032.61.376 0 .062-.016.125-.016.171v4.375c0 .594-.516.657-.906.657v.265H2.5V-.28c-.422 0-.938-.078-.938-.672 0-.094.016-.172.016-.25l.016-4.578c.047.187.125.375.203.547.531 1.28 1.031 2.593 1.547 3.89L3.75-.312c.047.109.078.296.234.296.157 0 .188-.203.235-.312.64-1.64 1.297-3.297 1.953-4.922.078-.188.172-.39.234-.594v5.14c0 .376-.281.423-.562.423H5.5v.265h2.547V-.28h-.344c-.281 0-.562-.031-.562-.406V-5.47c0-.343.296-.39.593-.39h.313v-.282H6.5l-.172.032-.094.14L4.22-.89c-.063-.14-.11-.296-.172-.453l-.375-.937c-.453-1.14-.906-2.297-1.36-3.438l-.093-.234c-.078-.14-.125-.188-.281-.188Zm0 0"/></symbol><symbol overflow="visible" id="b"><path style="stroke:none" d="M.36-3.86v.266H.5c.297 0 .516.047.516.453v2.485c0 .36-.25.375-.688.375v.265h1.938V-.28h-.141c-.234 0-.469-.031-.469-.313v-3.375Zm.765-2.156c-.234.047-.422.235-.422.485s.219.468.485.468h.062a.474.474 0 0 0 .422-.468.477.477 0 0 0-.484-.485Zm0 0"/></symbol><symbol overflow="visible" id="c"><path style="stroke:none" d="M.328-6.14v.28h.11c.312 0 .578.016.578.47v4.718c0 .375-.25.39-.641.39H.328v.266h2.016V-.28h-.235c-.234 0-.453-.047-.453-.36v-5.593Zm0 0"/></symbol><symbol overflow="visible" id="d"><path style="stroke:none" d="M1.031-2.063h2.657c.109 0 .156-.046.156-.156 0-1.125-.703-1.797-1.64-1.797-1.095 0-1.954.954-1.954 2.047C.25-.875 1.125.094 2.344.094c.64 0 1.281-.453 1.469-1.078.015-.016.015-.063.015-.094a.107.107 0 0 0-.11-.11c-.171 0-.171.266-.265.391-.219.375-.656.64-1.094.64h-.062C1.828-.171 1.422-.5 1.219-.921c-.172-.36-.188-.75-.188-1.14Zm.016-.218c0-.594.25-1.281.906-1.485a.914.914 0 0 1 .203-.03c.781 0 1.063.796 1.063 1.515Zm0 0"/></symbol><symbol overflow="visible" id="e"><path style="stroke:none" d="M.313-3.86v.266H.39c.25 0 .593.031.593.281.016.11.016.188.016.297v1.782c0 .28.016.53.14.78.266.438.813.548 1.282.548.5 0 .984-.297 1.14-.766l.016.766 1.328-.11V-.28H4.75c-.266 0-.531-.031-.531-.438v-3.25l-1.36.11v.265h.125c.282 0 .563.031.563.453v1.766C3.5-.797 3.14-.141 2.453-.141c-.36 0-.687-.078-.765-.546-.016-.172-.016-.329-.016-.5V-3.97Zm0 0"/></symbol><symbol overflow="visible" id="f"><path style="stroke:none" d="M1.094-3.484c.25-.22.61-.313.937-.313.313 0 .594.172.781.438.172.25.172.53.172.828v.156c-.734.078-1.468.078-2.093.547-.297.219-.516.578-.516.937 0 .735.875.985 1.469.985.547 0 .968-.281 1.218-.75.079.375.297.703.704.703.546 0 .78-.453.78-.953v-.406h-.25v.453c0 .25-.046.593-.327.593-.297 0-.313-.39-.313-.593v-1.75c0-.938-.812-1.407-1.61-1.407-.562 0-1.39.235-1.39.938 0 .25.14.437.469.437.219-.015.36-.218.36-.421 0-.25-.188-.376-.391-.422Zm1.89 1.328v.875c0 .625-.437 1.14-1.062 1.14h-.063c-.421-.03-.75-.359-.75-.75 0-.859 1.032-1.265 1.875-1.265Zm0 0"/></symbol><symbol overflow="visible" id="g"><path style="stroke:none" d="M.266-3.86v.266h.14c.281 0 .547.031.547.453v2.485c0 .36-.234.375-.687.375v.265L.89-.03h1.562v-.25h-.297c-.312 0-.562-.047-.562-.375v-1.516c.062-.625.234-1.562 1.14-1.562-.125.062-.171.203-.171.328a.39.39 0 1 0 .78 0c0-.375-.359-.563-.687-.563-.547 0-.984.469-1.11.969v-.969Zm0 0"/></symbol><symbol overflow="visible" id="h"><path style="stroke:none" d="M.266-3.86v.266h.171c.266 0 .516.031.516.39v4.282c0 .375-.265.375-.687.375v.281l.64-.03h1.406v-.25h-.218c-.25 0-.469-.032-.469-.36V-.438c.297.329.656.532 1.125.532 1.078 0 2.063-.875 2.063-2.031 0-1.016-.797-2.032-1.938-2.032-.5 0-.953.219-1.281.563v-.563Zm3.75 2.063C3.984-1.094 3.562-.14 2.672-.14c-.469 0-1.047-.453-1.047-.843v-1.47c0-.124-.016-.233-.016-.343 0-.5.657-.922 1.172-.922.844 0 1.25 1.063 1.25 1.75 0 .047 0 .11-.015.172Zm0 0"/></symbol><symbol overflow="visible" id="i"><path style="stroke:none" d="M2.172-4.016c-1.047.11-1.906.954-1.906 2.094C.266-1 .953.094 2.312.094c1.047 0 2.032-.844 2.032-2 0-1.078-.844-2.125-2.047-2.125-.047 0-.078.015-.125.015ZM1.047-1.719v-.375c0-.719.219-1.703 1.266-1.703.703 0 1.156.563 1.234 1.281.015.188.015.375.015.563 0 .469-.03 1-.359 1.375a1.19 1.19 0 0 1-.906.422c-.656 0-1.11-.5-1.235-1.219 0-.11 0-.219-.015-.344Zm0 0"/></symbol><symbol overflow="visible" id="j"><path style="stroke:none" d="M.813-.313c.296.297.656.407 1.046.407.735 0 1.454-.375 1.454-1.25v-.094c-.032-.516-.422-.89-.876-1.063a3.528 3.528 0 0 0-.703-.156c-.375-.078-.968-.187-.968-.703 0-.515.656-.656 1.03-.656.579 0 .985.344 1.032.969 0 .078.016.171.125.171.063 0 .125-.03.125-.109v-1.078c0-.063-.015-.14-.094-.14-.14 0-.234.218-.343.218h-.016c-.063-.015-.125-.062-.188-.094-.187-.093-.421-.125-.64-.125-.625 0-1.484.204-1.484 1.125 0 .907 1.046 1.047 1.687 1.172.39.078.828.313.86.75 0 .64-.532.828-1.016.828h-.078C1.109-.17.75-.656.594-1.28c-.031-.094-.031-.25-.156-.25-.11 0-.126.078-.126.156v1.156c0 .047-.015.078-.015.125 0 .094.016.188.11.188.093 0 .156-.11.218-.172l.031-.047c.063-.063.11-.11.156-.188Zm0 0"/></symbol><symbol overflow="visible" id="k"><path style="stroke:none" d="M5.86-6.078c.03-.094.03-.125.03-.14 0-.016 0-.11-.109-.11-.047 0-.047.016-.156.14-.125.141-.016.016-.438.5-.328-.5-.843-.64-1.328-.64-1.156 0-2.25 1.031-2.25 2.11 0 .374.125.671.36.921.25.281.484.328 1.125.5l.75.188c.297.093.594.375.594.89 0 .797-.766 1.64-1.672 1.64-.516 0-1.594-.155-1.594-1.312 0-.078 0-.218.062-.484.016-.031.016-.047.016-.063 0-.03-.016-.093-.125-.093-.11 0-.125.047-.156.187L.5.094c0 .062.031.11.094.11C.64.203.656.187.766.062c.062-.063.312-.391.421-.5.47.593 1.297.64 1.563.64 1.234 0 2.313-1.156 2.313-2.297 0-1.11-.875-1.328-1.157-1.39l-.812-.22c-.297-.077-.844-.218-.844-.89 0-.687.719-1.484 1.61-1.484.359 0 .718.11.968.36.344.327.344.812.344 1.046 0 .297-.031.39-.031.469 0 .062.03.11.125.11.093 0 .093-.016.14-.188Zm0 0"/></symbol><symbol overflow="visible" id="n"><path style="stroke:none" d="M4.375-2.922c.047-.234.156-.64.156-.687 0-.11-.078-.25-.281-.25a.402.402 0 0 0-.328.187c-.031.078-.64 2.516-.703 2.813-.188.328-.547.734-1.047.734-.547 0-.547-.563-.547-.734 0-.407.11-.844.5-1.844.078-.219.125-.344.125-.5a.739.739 0 0 0-.766-.766c-.859 0-1.218 1.281-1.218 1.39 0 .079.062.11.125.11.093 0 .109-.062.14-.172.188-.656.531-1.093.922-1.093.188 0 .219.125.219.296 0 .141-.047.313-.125.516-.422 1.125-.531 1.5-.531 1.922 0 1 .812 1.094 1.14 1.094.5 0 .875-.313 1.094-.594.172.594.766.594.813.594.265 0 .484-.125.671-.469.157-.297.297-.875.297-.906 0-.047-.031-.11-.11-.11-.109 0-.124.047-.155.22-.188.702-.375 1.046-.672 1.046-.219 0-.282-.188-.282-.406 0-.172.047-.36.126-.672l.218-.922Zm0 0"/></symbol><symbol overflow="visible" id="p"><path style="stroke:none" d="M3.938-5.469c.046-.187.078-.281.218-.312.078-.016.36-.016.547-.016 1.031 0 1.344.063 1.344.766 0 .11 0 .25-.078.781l-.016.078c0 .063.031.125.125.125.11 0 .125-.094.14-.219l.235-1.562c.016-.031.016-.094.016-.125 0-.125-.078-.125-.25-.125h-5.11c-.218 0-.218.016-.28.187L.265-4.312c-.032.109-.032.14-.032.14 0 .047.032.125.11.125.11 0 .125-.062.172-.219.5-1.406.78-1.53 2.078-1.53h.344c.25 0 .25.03.25.109 0 .046-.016.109-.032.187L1.953-.703c-.078.312-.11.422-1.062.422-.282 0-.36 0-.36.172C.531 0 .641 0 .687 0c.235 0 .485-.016.735-.016s.5-.015.75-.015c.406 0 .422 0 .75.015.125 0 .703.016.781.016.078 0 .188 0 .188-.156 0-.125-.079-.125-.297-.125-.235 0-.344 0-.578-.016-.204-.031-.313-.031-.313-.187 0-.047.016-.11.031-.172Zm0 0"/></symbol><symbol overflow="visible" id="r"><path style="stroke:none" d="M4.406-3.625a.504.504 0 0 0-.422.484c0 .172.125.329.344.329.25 0 .5-.22.5-.532 0-.422-.453-.625-.875-.625-.531 0-.844.485-.953.672a1.042 1.042 0 0 0-1-.672c-.953 0-1.484 1.156-1.484 1.39 0 .079.062.11.125.11.078 0 .109-.047.125-.11.28-.89.875-1.155 1.218-1.155.266 0 .485.171.485.593 0 .313-.375 1.75-.5 2.188-.063.265-.344.828-.828.828-.188 0-.375-.063-.454-.11.235-.046.422-.265.422-.484 0-.234-.171-.328-.343-.328-.266 0-.5.219-.5.531 0 .438.484.61.859.61.531 0 .828-.422.969-.672.219.594.75.672.984.672.969 0 1.485-1.157 1.485-1.375 0-.047-.032-.11-.11-.11-.11 0-.11.032-.156.172-.203.64-.719 1.094-1.188 1.094-.25 0-.5-.156-.5-.594 0-.203.125-.687.204-1.031.046-.156.28-1.125.296-1.188.11-.328.375-.796.844-.796.156 0 .328.015.453.109Zm0 0"/></symbol><symbol overflow="visible" id="s"><path style="stroke:none" d="M1.625-.14c0 .296 0 1.03-.656 1.671-.047.047-.047.063-.047.094 0 .063.062.11.11.11.093 0 .827-.704.827-1.75 0-.563-.203-.954-.578-.954a.467.467 0 0 0-.484.485c0 .25.172.484.484.484a.46.46 0 0 0 .344-.14Zm0 0"/></symbol><symbol overflow="visible" id="t"><path style="stroke:none" d="M1.906-3.594h.86c.156 0 .265 0 .265-.156 0-.11-.094-.11-.25-.11h-.797l.36-1.5c0-.14-.11-.25-.266-.25-.297 0-.36.25-.39.344l-.344 1.407H.5c-.172 0-.281 0-.281.156 0 .11.093.11.25.11h.812L.656-1.142c-.062.266-.062.282-.062.407 0 .53.406.828.875.828.922 0 1.453-1.282 1.453-1.375 0-.047-.031-.11-.11-.11-.093 0-.109.032-.171.188-.266.64-.72 1.078-1.157 1.078-.187 0-.296-.11-.296-.406 0-.203.03-.313.062-.453Zm0 0"/></symbol><symbol overflow="visible" id="y"><path style="stroke:none" d="M3.266-2.844c.03-.14.03-.281.03-.281 0-.484-.358-.844-.858-.844-.938 0-1.485 1.281-1.485 1.39 0 .079.063.11.125.11.094 0 .11-.031.172-.203.297-.672.734-1.062 1.156-1.062.25 0 .281.187.281.421 0 .063 0 .204-.03.266l-.86 3.5C1.657 1 1.297 1.61.75 1.61c-.156 0-.313-.046-.375-.062a.51.51 0 0 0 .344-.469C.719.891.563.766.375.766a.494.494 0 0 0-.484.515c0 .422.5.563.875.563.671 0 1.453-.532 1.671-1.375Zm0 0"/></symbol><symbol overflow="visible" id="l"><path style="stroke:none" d="M6.047-2.047c.172 0 .344 0 .344-.203 0-.188-.188-.188-.344-.188H1.109c-.156 0-.343 0-.343.188 0 .203.171.203.343.203Zm0 0"/></symbol><symbol overflow="visible" id="m"><path style="stroke:none" d="M7.625-2.047c-1.063.75-1.281 1.938-1.281 2.031 0 .125.125.125.187.125.11 0 .172 0 .203-.125.25-1.046.86-1.75 1.844-2.109.047-.016.125-.047.125-.125s-.062-.094-.125-.125c-1.125-.422-1.64-1.219-1.844-2.094-.03-.125-.062-.125-.203-.125-.078 0-.187 0-.187.125 0 .094.218 1.282 1.281 2.032H.844c-.156 0-.328 0-.328.187 0 .203.171.203.328.203Zm0 0"/></symbol><symbol overflow="visible" id="x"><path style="stroke:none" d="M4.094-2.25c0-1-.828-1.781-1.782-1.781A1.794 1.794 0 0 0 .516-2.25c0 1 .828 1.797 1.78 1.797A1.807 1.807 0 0 0 4.095-2.25Zm0 0"/></symbol><symbol overflow="visible" id="o"><path style="stroke:none" d="M3.375-2.36a.339.339 0 0 0-.266.329c0 .187.157.234.235.234.187 0 .36-.14.36-.375 0-.328-.36-.469-.657-.469-.406 0-.64.313-.703.422-.078-.156-.313-.422-.766-.422-.687 0-1.094.72-1.094.922 0 .032.032.078.11.078.094 0 .11-.03.125-.078.156-.484.562-.718.844-.718.296 0 .39.187.39.39 0 .063 0 .125-.047.313-.14.546-.265 1.093-.297 1.171-.093.22-.312.422-.562.422-.031 0-.203 0-.344-.093C.938-.312.97-.5.97-.547c0-.156-.125-.234-.25-.234-.156 0-.344.125-.344.375 0 .344.375.469.656.469.344 0 .594-.235.703-.422.125.25.407.421.75.421.704 0 1.094-.734 1.094-.921 0-.016 0-.094-.11-.094-.077 0-.093.047-.109.11-.171.515-.593.702-.859.702-.219 0-.375-.125-.375-.375 0-.125.016-.25.078-.453l.188-.781c.062-.234.093-.344.218-.484a.574.574 0 0 1 .422-.204c.031 0 .203 0 .344.079Zm0 0"/></symbol><symbol overflow="visible" id="q"><path style="stroke:none" d="M3.063 2.14c0-.046-.032-.078-.079-.14C1.828.937 1.47-.672 1.47-2.25c0-1.375.265-3.063 1.531-4.266.047-.046.063-.062.063-.109a.107.107 0 0 0-.11-.11c-.11 0-.922.657-1.406 1.626-.422.859-.64 1.796-.64 2.859 0 .64.077 1.672.577 2.719.532 1.11 1.36 1.765 1.47 1.765.062 0 .108-.03.108-.093Zm0 0"/></symbol><symbol overflow="visible" id="u"><path style="stroke:none" d="M2.672-2.25c0-.734-.11-1.719-.578-2.719C1.563-6.079.734-6.734.625-6.734c-.094 0-.11.078-.11.109 0 .047.016.063.079.125.531.469 1.515 1.688 1.515 4.25C2.11-.969 1.875.813.58 2.031c-.016.016-.063.063-.063.11 0 .015.015.093.109.093.11 0 .922-.64 1.406-1.625.422-.859.64-1.78.64-2.859Zm0 0"/></symbol><symbol overflow="visible" id="v"><path style="stroke:none" d="M6.328-2.047c.125 0 .313 0 .313-.203 0-.188-.172-.188-.313-.188H3.781V-5c0-.14 0-.313-.203-.313-.187 0-.187.188-.187.313v2.563H.828c-.125 0-.312 0-.312.187 0 .203.171.203.312.203h2.563V.516c0 .14 0 .312.203.312.187 0 .187-.187.187-.312v-2.563Zm0 0"/></symbol><symbol overflow="visible" id="w"><path style="stroke:none" d="M3.484-1.078c0 .156 0 .187-.125.375a1.3 1.3 0 0 1-1.046.578c-.391 0-.75-.219-.985-.594-.234-.39-.25-.906-.25-1.203 0-.422.047-.89.281-1.25a1.262 1.262 0 0 1 1.047-.562c.375 0 .735.187.969.53.11.142.11.142.11.313Zm.032-2.36c-.047-.046-.454-.53-1.141-.53-1.11 0-2.063.89-2.063 2.046 0 1.11.891 2.016 1.954 2.016A1.59 1.59 0 0 0 3.484-.47v.563L4.844 0v-.281c-.61 0-.688-.063-.688-.5V-6.22l-1.328.094v.281c.61 0 .688.063.688.5Zm0 0"/></symbol><symbol overflow="visible" id="z"><path style="stroke:none" d="M1.078-3.688c0 .485-.266 1.157-.86 1.157v.187h.579v1.5c0 .203.015.39.125.563.156.25.469.328.75.328.437 0 .734-.344.734-.86v-.28h-.234c0 .093.015.171.015.25 0 .265-.093.687-.453.687-.359 0-.437-.36-.437-.64v-1.548h.984v-.234h-.984v-1.11Zm0 0"/></symbol><symbol overflow="visible" id="A"><path style="stroke:none" d="M.375-4.094v.235h.094c.172 0 .375 0 .375.312v3.078c0 .203-.156.219-.328.219H.375V0l.344-.031h1.094V-.25h-.141c-.172 0-.328-.016-.328-.203v-1.078c0-.547.437-.907.937-.907h.016c.453 0 .484.376.484.657V-.47c0 .203-.172.219-.344.219h-.14V0l.36-.031H3.75V-.25h-.14c-.157 0-.329-.016-.329-.203V-1.75c0-.234-.031-.453-.187-.656-.203-.188-.485-.235-.735-.235-.39 0-.828.157-1.03.532v-2.047Zm0 0"/></symbol></defs><path style="fill:none;stroke-width:.3985;stroke-linecap:butt;stroke-linejoin:miter;stroke:#bfbfbf;stroke-opacity:1;stroke-miterlimit:10" d="M0 14.174H170.08" transform="matrix(1 0 0 -1 6.878 29.065)"/><path style="stroke:none;fill-rule:nonzero;fill:#bfbfbf;fill-opacity:1" d="m91.918 14.89-3.188-1.593 1.196 1.594-1.196 1.593"/><g style="fill:#000;fill-opacity:1"><use xlink:href="#a" x="112.442" y="11.156"/><use xlink:href="#b" x="120.886" y="11.156"/><use xlink:href="#c" x="123.445" y="11.156"/><use xlink:href="#b" x="126.004" y="11.156"/><use xlink:href="#d" x="128.563" y="11.156"/><use xlink:href="#e" x="132.661" y="11.156"/></g><g style="fill:#000;fill-opacity:1"><use xlink:href="#f" x="140.855" y="11.156"/><use xlink:href="#e" x="145.462" y="11.156"/></g><g style="fill:#000;fill-opacity:1"><use xlink:href="#g" x="153.646" y="11.156"/><use xlink:href="#d" x="157.25" y="11.156"/><use xlink:href="#h" x="161.348" y="11.156"/></g><g style="fill:#000;fill-opacity:1"><use xlink:href="#i" x="166.726" y="11.156"/><use xlink:href="#j" x="171.333" y="11.156"/></g><path style="fill:none;stroke-width:.3985;stroke-linecap:butt;stroke-linejoin:miter;stroke:#bfbfbf;stroke-opacity:1;stroke-miterlimit:10" d="M0-14.173H170.08" transform="matrix(1 0 0 -1 6.878 29.065)"/><path style="stroke:none;fill-rule:nonzero;fill:#bfbfbf;fill-opacity:1" d="m91.918 43.238-3.188-1.593 1.196 1.593-1.196 1.594"/><path style="fill-rule:nonzero;fill:#bfbfbf;fill-opacity:1;stroke-width:.3985;stroke-linecap:butt;stroke-linejoin:miter;stroke:gray;stroke-opacity:1;stroke-miterlimit:10" d="M178.587-.001c0 7.828-3.809 14.175-8.508 14.175-4.695 0-8.504-6.347-8.504-14.175 0-7.829 3.809-14.172 8.504-14.172 4.7 0 8.508 6.343 8.508 14.172Zm0 0" transform="matrix(1 0 0 -1 6.878 29.065)"/><use xlink:href="#k" x="173.887" y="37.185" style="fill:#000;fill-opacity:1"/><path style="fill:none;stroke-width:.3985;stroke-linecap:butt;stroke-linejoin:miter;stroke:#000;stroke-opacity:1;stroke-dasharray:2.98883,2.98883;stroke-miterlimit:10" d="M0-.001h161.575m8.504 0h26.356" transform="matrix(1 0 0 -1 6.878 29.065)"/><path style="stroke:none;fill-rule:nonzero;fill:#000;fill-opacity:1" d="m205.305 29.066-3.188-1.593 1.196 1.593-1.196 1.594"/><use xlink:href="#l" x="207.296" y="28.306" style="fill:#000;fill-opacity:1"/><use xlink:href="#m" x="208.053" y="28.306" style="fill:#000;fill-opacity:1"/><use xlink:href="#n" x="207.296" y="32.166" style="fill:#000;fill-opacity:1"/><use xlink:href="#o" x="212.599" y="33.163" style="fill:#000;fill-opacity:1"/><path style="fill-rule:nonzero;fill:#f2f2f2;fill-opacity:1;stroke-width:.3985;stroke-linecap:butt;stroke-linejoin:miter;stroke:#000;stroke-opacity:1;stroke-miterlimit:10" d="M39.684 14.174c-4.695 0-8.503-6.347-8.503-14.175 0-7.829 3.808-14.172 8.503-14.172H96.38v28.347Zm0 0" transform="matrix(1 0 0 -1 6.878 29.065)"/><path style="fill:none;stroke-width:.3985;stroke-linecap:butt;stroke-linejoin:miter;stroke:#bfbfbf;stroke-opacity:1;stroke-dasharray:2.98883,1.99255;stroke-miterlimit:10" d="M39.684-14.173c4.7 0 8.504 6.343 8.504 14.172 0 7.828-3.804 14.175-8.504 14.175" transform="matrix(1 0 0 -1 6.878 29.065)"/><path style="stroke:none;fill-rule:nonzero;fill:#fff;fill-opacity:1" d="M4.98 33.547h26.473v-8.965H4.98Zm0 0"/><use xlink:href="#p" x="4.981" y="31.307" style="fill:#000;fill-opacity:1"/><use xlink:href="#q" x="11.637" y="31.307" style="fill:#000;fill-opacity:1"/><g style="fill:#000;fill-opacity:1"><use xlink:href="#r" x="15.221" y="31.307"/><use xlink:href="#s" x="20.445" y="31.307"/></g><use xlink:href="#t" x="24.538" y="31.307" style="fill:#000;fill-opacity:1"/><use xlink:href="#u" x="27.868" y="31.307" style="fill:#000;fill-opacity:1"/><use xlink:href="#q" x="40.367" y="56.937" style="fill:#000;fill-opacity:1"/><use xlink:href="#r" x="43.951" y="56.937" style="fill:#000;fill-opacity:1"/><use xlink:href="#u" x="49.175" y="56.937" style="fill:#000;fill-opacity:1"/><path style="fill-rule:nonzero;fill:#bfbfbf;fill-opacity:1;stroke-width:.3985;stroke-linecap:butt;stroke-linejoin:miter;stroke:#000;stroke-opacity:1;stroke-miterlimit:10" d="M104.884-.001c0 7.828-3.809 14.175-8.504 14.175-4.7 0-8.504-6.347-8.504-14.175 0-7.829 3.805-14.172 8.504-14.172 4.695 0 8.504 6.343 8.504 14.172Zm0 0" transform="matrix(1 0 0 -1 6.878 29.065)"/><use xlink:href="#q" x="86.257" y="56.937" style="fill:#000;fill-opacity:1"/><use xlink:href="#r" x="89.841" y="56.937" style="fill:#000;fill-opacity:1"/><use xlink:href="#v" x="97.112" y="56.937" style="fill:#000;fill-opacity:1"/><use xlink:href="#w" x="106.324" y="56.937" style="fill:#000;fill-opacity:1"/><use xlink:href="#r" x="111.447" y="56.937" style="fill:#000;fill-opacity:1"/><use xlink:href="#u" x="116.671" y="56.937" style="fill:#000;fill-opacity:1"/><path style="fill:none;stroke-width:1.19553;stroke-linecap:butt;stroke-linejoin:miter;stroke:#00adef;stroke-opacity:1;stroke-miterlimit:10" d="M39.684-.001h25.16" transform="matrix(1 0 0 -1 6.878 29.065)"/><path style="stroke:none;fill-rule:nonzero;fill:#00adef;fill-opacity:1" d="m74.91 29.066-5.101-2.55 1.914 2.55-1.914 2.551"/><use xlink:href="#x" x="44.259" y="31.082" style="fill:#00adef;fill-opacity:1"/><use xlink:href="#l" x="59.539" y="20.971" style="fill:#00adef;fill-opacity:1"/><use xlink:href="#m" x="61.246" y="20.971" style="fill:#00adef;fill-opacity:1"/><use xlink:href="#y" x="59.539" y="24.831" style="fill:#00adef;fill-opacity:1"/><g style="fill:#00adef;fill-opacity:1"><use xlink:href="#z" x="63.05" y="25.893"/><use xlink:href="#A" x="65.928" y="25.893"/></g><use xlink:href="#q" x="70.465" y="24.831" style="fill:#00adef;fill-opacity:1"/><g style="fill:#00adef;fill-opacity:1"><use xlink:href="#r" x="74.049" y="24.831"/><use xlink:href="#s" x="79.273" y="24.831"/></g><use xlink:href="#t" x="83.366" y="24.831" style="fill:#00adef;fill-opacity:1"/><use xlink:href="#u" x="86.696" y="24.831" style="fill:#00adef;fill-opacity:1"/><path style="fill:none;stroke-width:1.19553;stroke-linecap:butt;stroke-linejoin:miter;stroke:#00adef;stroke-opacity:1;stroke-miterlimit:10" d="M96.38-.001h25.156" transform="matrix(1 0 0 -1 6.878 29.065)"/><path style="stroke:none;fill-rule:nonzero;fill:#00adef;fill-opacity:1" d="m131.605 29.066-5.101-2.55 1.91 2.55-1.91 2.551"/><use xlink:href="#x" x="100.952" y="31.082" style="fill:#00adef;fill-opacity:1"/><use xlink:href="#l" x="112.515" y="20.971" style="fill:#00adef;fill-opacity:1"/><use xlink:href="#m" x="114.222" y="20.971" style="fill:#00adef;fill-opacity:1"/><use xlink:href="#y" x="112.515" y="24.831" style="fill:#00adef;fill-opacity:1"/><g style="fill:#00adef;fill-opacity:1"><use xlink:href="#z" x="116.027" y="25.893"/><use xlink:href="#A" x="118.905" y="25.893"/></g><use xlink:href="#q" x="123.441" y="24.831" style="fill:#00adef;fill-opacity:1"/><use xlink:href="#r" x="127.025" y="24.831" style="fill:#00adef;fill-opacity:1"/><use xlink:href="#v" x="134.297" y="24.831" style="fill:#00adef;fill-opacity:1"/><use xlink:href="#w" x="143.509" y="24.831" style="fill:#00adef;fill-opacity:1"/><g style="fill:#00adef;fill-opacity:1"><use xlink:href="#r" x="148.632" y="24.831"/><use xlink:href="#s" x="153.856" y="24.831"/></g><use xlink:href="#t" x="157.949" y="24.831" style="fill:#00adef;fill-opacity:1"/><use xlink:href="#u" x="161.279" y="24.831" style="fill:#00adef;fill-opacity:1"/></svg>