<svg xmlns="http://www.w3.org/2000/svg" xmlns:xlink="http://www.w3.org/1999/xlink" width="171.039" height="146.915" viewBox="0 0 128.279 110.186"><defs><symbol overflow="visible" id="a"><path style="stroke:none" d="M3.938-5.469c.046-.187.078-.281.218-.312.078-.016.36-.016.547-.016 1.031 0 1.344.063 1.344.766 0 .11 0 .25-.078.781l-.016.078c0 .063.031.125.125.125.11 0 .125-.094.14-.219l.235-1.562c.016-.031.016-.094.016-.125 0-.125-.078-.125-.25-.125h-5.11c-.218 0-.218.016-.28.187L.265-4.312c-.032.109-.032.14-.032.14 0 .047.032.125.11.125.11 0 .125-.062.172-.219.5-1.406.78-1.53 2.078-1.53h.344c.25 0 .25.03.25.109 0 .046-.016.109-.032.187L1.953-.703c-.078.312-.11.422-1.062.422-.282 0-.36 0-.36.172C.531 0 .641 0 .687 0c.235 0 .485-.016.735-.016s.5-.015.75-.015c.406 0 .422 0 .75.015.125 0 .703.016.781.016.078 0 .188 0 .188-.156 0-.125-.079-.125-.297-.125-.235 0-.344 0-.578-.016-.204-.031-.313-.031-.313-.187 0-.047.016-.11.031-.172Zm0 0"/></symbol><symbol overflow="visible" id="c"><path style="stroke:none" d="M6.203-4.547c.078-.031.188-.094.188-.203a.197.197 0 0 0-.204-.203c-.015 0-.046 0-.156.062L.953-2.453c-.078.031-.187.078-.187.203s.093.172.187.219L6.016.39c.125.062.156.062.171.062.141 0 .204-.125.204-.187 0-.11-.063-.157-.172-.188L1.406-2.25Zm0 0"/></symbol><symbol overflow="visible" id="b"><path style="stroke:none" d="M3.219-1.125H3c-.016.094-.078.484-.156.547-.047.047-.531.047-.625.047h-1.11l.766-.625c.203-.172.734-.547.922-.735.172-.171.422-.484.422-.906 0-.75-.672-1.187-1.485-1.187-.765 0-1.296.515-1.296 1.078 0 .297.25.344.312.344a.32.32 0 0 0 .328-.329c0-.125-.078-.328-.344-.328.141-.297.5-.531.922-.531.625 0 .953.469.953.953 0 .422-.28.86-.687 1.25L.5-.25C.437-.187.437-.187.437 0h2.594Zm0 0"/></symbol><symbol overflow="visible" id="d"><path style="stroke:none" d="M2.14-3.797c0-.187-.015-.187-.203-.187-.39.39-1 .39-1.218.39v.235c.156 0 .562 0 .922-.172v3.015c0 .204 0 .282-.625.282h-.25V0c.328-.031.796-.031 1.125-.031.328 0 .796 0 1.125.031v-.234h-.25c-.625 0-.625-.078-.625-.282Zm0 0"/></symbol><symbol overflow="visible" id="e"><path style="stroke:none" d="M1.766-1.984c.5 0 .843.343.843.953 0 .656-.39.937-.828.937C1.61-.094 1-.125.734-.469c.235-.031.329-.187.329-.344a.328.328 0 0 0-.344-.343.34.34 0 0 0-.344.36c0 .593.656.921 1.422.921.89 0 1.469-.563 1.469-1.156 0-.438-.329-.907-1.047-1.078.484-.157.86-.547.86-1.032 0-.484-.563-.843-1.282-.843-.703 0-1.234.328-1.234.812 0 .266.203.328.328.328.156 0 .312-.094.312-.312 0-.188-.125-.297-.297-.313.281-.312.828-.312.89-.312.298 0 .688.14.688.64 0 .329-.187.907-.796.938-.11 0-.266.015-.313.015-.063.016-.125.016-.125.11s.063.094.156.094Zm0 0"/></symbol><symbol overflow="visible" id="f"><path style="stroke:none" d="m-3.672-1.219.25.047.031-.14c.079-.297.172-.485.563-.391l2.422.562c.36.094.297.329.203.766l.266.063L.5-2.204l-.266-.063-.03.141c-.048.219-.126.438-.407.375l-3.281-.766Zm-1.937-1.25c0 .25.14.453.375.516a.48.48 0 0 0 .578-.36l.015-.062c.032-.234-.125-.453-.375-.516a.468.468 0 0 0-.578.36Zm0 0"/></symbol><symbol overflow="visible" id="g"><path style="stroke:none" d="M-.156-.86c.36-.234.531-.562.61-.953C.593-2.53.358-3.296-.5-3.468l-.094-.015c-.515-.079-.937.234-1.203.656a3.121 3.121 0 0 0-.297.656c-.14.36-.375.906-.875.813-.515-.094-.515-.766-.437-1.141.11-.563.515-.906 1.14-.828.079.015.172.015.188-.078.015-.063 0-.125-.078-.14l-1.047-.22c-.063 0-.14 0-.156.079-.032.124.171.25.14.359v.015a.694.694 0 0 1-.125.172c-.125.172-.203.391-.25.61-.125.61-.078 1.484.813 1.656.89.188 1.234-.813 1.484-1.422.14-.36.469-.75.89-.703.626.125.72.688.626 1.156l-.016.078c-.156.641-.703.907-1.344.938-.093.015-.25-.016-.28.11-.016.093.062.124.14.14l1.125.219c.047.015.078.03.125.046.093.016.187.016.203-.078C.188-.469.094-.547.047-.625L0-.672c-.047-.062-.094-.125-.156-.187Zm0 0"/></symbol><symbol overflow="visible" id="h"><path style="stroke:none" d="M-3.656-2.719C-3.703-1.656-3-.703-1.875-.53c.922.125 2.11-.39 2.297-1.75.14-1.031-.563-2.125-1.703-2.281-1.063-.157-2.203.515-2.375 1.703-.016.046 0 .093 0 .14Zm2.094 1.438-.375-.047c-.704-.094-1.657-.453-1.5-1.5.093-.688.718-1.063 1.453-1.047.187.016.359.047.546.063.47.078 1 .171 1.313.562.234.25.344.625.297.953-.094.656-.656 1.031-1.375 1.063-.11-.016-.219-.032-.36-.047Zm0 0"/></symbol><symbol overflow="visible" id="i"><path style="stroke:none" d="M-5.39-1.86c.656.063 1.687.454 1.609 1.344l.219.016.062-.781 2.36.218c.28.032.562.032.796-.093.422-.172.594-.61.64-1v-.078c-.062-.704-.78-.875-1.312-.922l-.328-.031-.031.25c.125 0 .25 0 .39.015.391.031 1.079.188 1.032.719-.047.469-.625.531-1.078.484l-2.407-.218.126-1.297-.266-.016-.125 1.297-1.672-.156Zm0 0"/></symbol><symbol overflow="visible" id="j"><path style="stroke:none" d="m-6.125-.516.281.016v-.156c.016-.281.047-.531.485-.516l4.515.14c.063 0 .125-.015.203 0 .375 0 .391.266.375.641v.063L0-.312v-.641L.047-2.36l-.25-.016v.203c-.016.266-.063.485-.39.485l-1.61-.063c-.688-.016-1.469-.453-1.438-1.297.016-.484.47-.61 1.032-.594l2.109.079c.313 0 .328.25.313.546v.141l.265.016V-3.5l.047-1.406-.25-.016v.172c0 .266-.047.516-.375.516l-2.016-.079c-.28 0-.546 0-.78.125-.423.204-.563.657-.579 1.079-.016.515.266 1.125.813 1.343l-3.126-.078Zm0 0"/></symbol><symbol overflow="visible" id="k"><path style="stroke:none" d="m-2.094-.969-.062-2.656c-.016-.11-.063-.156-.172-.156-1.125.031-1.766.75-1.75 1.687C-4.047-1-3.062-.172-1.968-.204c1.093-.015 2.03-.921 2-2.14-.016-.64-.485-1.265-1.126-1.437-.015-.016-.062-.016-.093-.016-.063 0-.094.047-.094.11 0 .171.265.171.39.25.375.218.657.64.672 1.078v.062c0 .469-.312.89-.734 1.11-.36.171-.75.203-1.14.218Zm-.219-.015c-.593.015-1.28-.22-1.5-.875-.015-.063-.046-.125-.046-.188-.016-.781.765-1.094 1.484-1.11Zm0 0"/></symbol><symbol overflow="visible" id="l"><path style="stroke:none" d="m-3.86.031.266-.015-.015-.141c-.016-.281-.016-.547.406-.594l2.469-.187c.359-.031.39.203.437.656l.266-.016-.063-.625-.125-1.562-.25.015.016.297c.031.313 0 .579-.328.594l-1.516.125c-.61-.016-1.562-.125-1.625-1.016.063.11.203.141.328.141.25-.015.39-.203.375-.406-.015-.235-.203-.375-.422-.36-.375.032-.546.407-.515.735.047.531.547.922 1.047 1.015l-.97.079Zm0 0"/></symbol><symbol overflow="visible" id="m"><path style="stroke:none" d="m-3.86.266.266-.047-.015-.14c-.047-.25-.047-.532.359-.595L-.797-.89c.36-.046.406.188.469.625l.266-.046-.11-.625-.203-1.391-.25.047.031.203c.031.25.016.469-.312.515l-1.766.266c-.64.047-1.328-.281-1.453-1.047-.078-.578.469-.703.89-.765l2.079-.313c.312-.047.39.203.437.5l.016.125.265-.047-.109-.625-.219-1.406-.25.047.032.219c.046.25.03.484-.297.53l-1.766.266c-.656.032-1.344-.296-1.453-1.062-.078-.563.469-.703.89-.766l2.079-.312c.312-.047.375.203.422.5l.03.14.266-.046-.312-2.032-.266.047.032.172c.03.25.046.516-.282.563l-1.984.296c-.281.047-.547.094-.766.266-.375.297-.406.766-.343 1.203.078.547.515 1.032 1.03 1.157v.015c-.593.156-.75.781-.655 1.313.078.578.484 1.078 1.078 1.203L-4.156-1Zm0 0"/></symbol><symbol overflow="visible" id="n"><path style="stroke:none" d="m-2.234-.547-.594-2.594c-.016-.109-.078-.14-.188-.125-1.093.25-1.593 1.079-1.39 1.985C-4.172-.203-3.046.422-1.984.187-.922-.063-.156-1.109-.422-2.296c-.14-.625-.719-1.156-1.375-1.203-.016-.016-.062 0-.094 0-.062.016-.093.078-.078.14.032.172.282.11.422.157.438.14.781.5.875.937l.016.063c.078.453-.14.922-.516 1.219-.312.25-.672.343-1.062.437Zm-.22.031c-.593.125-1.296.032-1.64-.562a1.085 1.085 0 0 1-.078-.203c-.172-.75.547-1.203 1.25-1.36Zm0 0"/></symbol><symbol overflow="visible" id="o"><path style="stroke:none" d="M3.25-3.531c-.188.062-.36.172-.36.422 0 .218.157.406.422.406.235 0 .422-.172.422-.438 0-.64-.765-.859-1.312-.875h-.094A2.04 2.04 0 0 0 .313-1.953c0 1.094.859 2.047 2 2.047.624 0 1.203-.328 1.453-.969.015-.063.062-.14.062-.203s-.062-.11-.125-.11c-.156 0-.156.235-.234.36-.219.406-.61.672-1.094.672-.984 0-1.297-1.125-1.297-1.813 0-.734.266-1.797 1.266-1.797.25 0 .515.032.734.141.063.016.11.063.172.094Zm0 0"/></symbol><symbol overflow="visible" id="p"><path style="stroke:none" d="M2.172-4.016c-1.047.11-1.906.954-1.906 2.094C.266-1 .953.094 2.312.094c1.047 0 2.032-.844 2.032-2 0-1.078-.844-2.125-2.047-2.125-.047 0-.078.015-.125.015ZM1.047-1.719v-.375c0-.719.219-1.703 1.266-1.703.703 0 1.156.563 1.234 1.281.015.188.015.375.015.563 0 .469-.03 1-.359 1.375a1.19 1.19 0 0 1-.906.422c-.656 0-1.11-.5-1.235-1.219 0-.11 0-.219-.015-.344Zm0 0"/></symbol><symbol overflow="visible" id="q"><path style="stroke:none" d="M.313-3.86v.266H.39c.25 0 .593.031.593.281.016.11.016.188.016.297v1.782c0 .28.016.53.14.78.266.438.813.548 1.282.548.5 0 .984-.297 1.14-.766l.016.766 1.328-.11V-.28H4.75c-.266 0-.531-.031-.531-.438v-3.25l-1.36.11v.265h.125c.282 0 .563.031.563.453v1.766C3.5-.797 3.14-.141 2.453-.141c-.36 0-.687-.078-.765-.546-.016-.172-.016-.329-.016-.5V-3.97Zm0 0"/></symbol><symbol overflow="visible" id="r"><path style="stroke:none" d="M.266-3.86v.266h.14c.281 0 .547.031.547.453v2.485c0 .36-.234.375-.687.375v.265L.89-.03h1.562v-.25h-.297c-.312 0-.562-.047-.562-.375v-1.516c.062-.625.234-1.562 1.14-1.562-.125.062-.171.203-.171.328a.39.39 0 1 0 .78 0c0-.375-.359-.563-.687-.563-.547 0-.984.469-1.11.969v-.969Zm0 0"/></symbol><symbol overflow="visible" id="s"><path style="stroke:none" d="M1.094-3.484c.25-.22.61-.313.937-.313.313 0 .594.172.781.438.172.25.172.53.172.828v.156c-.734.078-1.468.078-2.093.547-.297.219-.516.578-.516.937 0 .735.875.985 1.469.985.547 0 .968-.281 1.218-.75.079.375.297.703.704.703.546 0 .78-.453.78-.953v-.406h-.25v.453c0 .25-.046.593-.327.593-.297 0-.313-.39-.313-.593v-1.75c0-.938-.812-1.407-1.61-1.407-.562 0-1.39.235-1.39.938 0 .25.14.437.469.437.219-.015.36-.218.36-.421 0-.25-.188-.376-.391-.422Zm1.89 1.328v.875c0 .625-.437 1.14-1.062 1.14h-.063c-.421-.03-.75-.359-.75-.75 0-.859 1.032-1.265 1.875-1.265Zm0 0"/></symbol><symbol overflow="visible" id="t"><path style="stroke:none" d="M.313-3.86v.266h.14c.266 0 .547.031.547.453v2.485c0 .36-.234.375-.688.375v.265L.954-.03H2.36v-.25h-.203c-.265 0-.484-.047-.484-.375v-1.61c0-.687.406-1.468 1.25-1.468.484 0 .625.437.625 1v2.109c0 .313-.25.344-.547.344h-.14v.265L3.5-.03h1.406v-.25h-.172c-.265 0-.515-.031-.515-.36v-2.015c0-.281-.016-.531-.14-.781-.235-.422-.704-.532-1.141-.532-.547 0-1.11.375-1.313.89l-.016-.89Zm0 0"/></symbol><symbol overflow="visible" id="u"><path style="stroke:none" d="M1.36-5.531c0 .656-.298 1.718-1.188 1.718v.22h.781v2.374c0 .282.016.547.156.782.22.39.672.53 1.079.53h.078c.687-.124.796-.859.796-1.39v-.328h-.25c0 .125.016.25.016.39 0 .391-.094 1.079-.625 1.079-.484 0-.594-.563-.594-1.016v-2.422h1.313v-.265H1.609v-1.672Zm0 0"/></symbol><symbol overflow="visible" id="v"><path style="stroke:none" d="M.313-6.14v.28h.156c.281 0 .531.032.531.47v4.515c0 .063.016.125.016.203 0 .375-.266.39-.641.39H.312v.266L.954-.03H2.36v-.25h-.203c-.265 0-.484-.047-.484-.375v-1.61c0-.687.406-1.468 1.25-1.468.484 0 .625.437.625 1v2.109c0 .313-.25.344-.547.344h-.14v.265L3.5-.03h1.406v-.25h-.172c-.265 0-.515-.031-.515-.36v-2.015c0-.281-.016-.547-.14-.781-.22-.407-.673-.532-1.095-.532-.515 0-1.125.297-1.328.844l-.015-3.11Zm0 0"/></symbol><symbol overflow="visible" id="w"><path style="stroke:none" d="M1.031-2.063h2.657c.109 0 .156-.046.156-.156 0-1.125-.703-1.797-1.64-1.797-1.095 0-1.954.954-1.954 2.047C.25-.875 1.125.094 2.344.094c.64 0 1.281-.453 1.469-1.078.015-.016.015-.063.015-.094a.107.107 0 0 0-.11-.11c-.171 0-.171.266-.265.391-.219.375-.656.64-1.094.64h-.062C1.828-.171 1.422-.5 1.219-.921c-.172-.36-.188-.75-.188-1.14Zm.016-.218c0-.594.25-1.281.906-1.485a.914.914 0 0 1 .203-.03c.781 0 1.063.796 1.063 1.515Zm0 0"/></symbol><symbol overflow="visible" id="x"><path style="stroke:none" d="M.313-3.86v.266h.14c.266 0 .547.031.547.453v2.485c0 .36-.234.375-.688.375v.265L.954-.03H2.36v-.25h-.203c-.265 0-.484-.047-.484-.375v-1.797c.047-.64.484-1.281 1.25-1.281.578 0 .64.578.64 1v2.109c0 .313-.265.344-.562.344h-.125v.265L3.5-.03h1.422v-.25h-.219c-.25 0-.484-.047-.484-.375v-1.797c.062-.64.484-1.281 1.265-1.281.563 0 .625.578.625 1v2.109c0 .313-.25.344-.546.344h-.141v.265h2.047V-.28h-.172c-.25 0-.516-.031-.516-.36v-2.015c0-.281-.015-.547-.14-.781-.235-.422-.704-.532-1.141-.532-.547 0-1.11.36-1.297.86h-.016c-.078-.625-.656-.86-1.203-.86-.578 0-1.14.328-1.359.89l-.016-.89Zm0 0"/></symbol><symbol overflow="visible" id="y"><path style="stroke:none" d="M.36-3.86v.266H.5c.297 0 .516.047.516.453v2.485c0 .36-.25.375-.688.375v.265h1.938V-.28h-.141c-.234 0-.469-.031-.469-.313v-3.375Zm.765-2.156c-.234.047-.422.235-.422.485s.219.468.485.468h.062a.474.474 0 0 0 .422-.468.477.477 0 0 0-.484-.485Zm0 0"/></symbol><symbol overflow="visible" id="z"><path style="stroke:none" d="M3.484-.531v1.625c0 .328-.187.36-.687.36v.28l.64-.03h1.407v-.25h-.188c-.281 0-.5-.032-.5-.376v-5.047l-.218.016-.11.203-.234.578c-.094-.11-.156-.234-.235-.328a1.316 1.316 0 0 0-1.03-.469c-1.079 0-2.017.906-2.017 2.016 0 1.047.813 2.047 1.954 2.047.453 0 .984-.235 1.218-.625ZM1.078-1.797v-.11c0-.734.39-1.765 1.297-1.812h.031c.578 0 1.016.563 1.11 1.094v1.406c0 .735-.922 1.078-1.204 1.078h-.046C1.609-.188 1.25-.859 1.14-1.42c-.032-.126-.032-.25-.063-.376Zm0 0"/></symbol><clipPath id="A"><path d="M0 0h128.277v45H0Zm0 0"/></clipPath><clipPath id="B"><path d="M0 56h128.277v52H0Zm0 0"/></clipPath></defs><path style="fill:none;stroke-width:.79701;stroke-linecap:butt;stroke-linejoin:miter;stroke:#ff9d00;stroke-opacity:1;stroke-dasharray:.79701,.99628;stroke-miterlimit:10" d="M.001-45.356v90.711" transform="matrix(1 0 0 -1 62.272 50.734)"/><use xlink:href="#a" x="46.602" y="104.208" style="fill:#ff9d00;fill-opacity:1"/><use xlink:href="#b" x="51.978" y="105.205" style="fill:#ff9d00;fill-opacity:1"/><use xlink:href="#c" x="58.688" y="104.208" style="fill:#ff9d00;fill-opacity:1"/><use xlink:href="#a" x="68.42" y="104.208" style="fill:#ff9d00;fill-opacity:1"/><use xlink:href="#d" x="73.792" y="105.205" style="fill:#ff9d00;fill-opacity:1"/><path style="fill:none;stroke-width:.79701;stroke-linecap:butt;stroke-linejoin:miter;stroke:#ff9d00;stroke-opacity:1;stroke-dasharray:.79701,.99628;stroke-miterlimit:10" d="M45.357-45.356c-17.688 30.637-17.688 60.074 0 90.711" transform="matrix(1 0 0 -1 62.272 50.734)"/><use xlink:href="#a" x="91.956" y="104.208" style="fill:#ff9d00;fill-opacity:1"/><use xlink:href="#e" x="97.332" y="105.205" style="fill:#ff9d00;fill-opacity:1"/><use xlink:href="#c" x="104.043" y="104.208" style="fill:#ff9d00;fill-opacity:1"/><use xlink:href="#a" x="113.766" y="104.208" style="fill:#ff9d00;fill-opacity:1"/><use xlink:href="#b" x="119.146" y="105.205" style="fill:#ff9d00;fill-opacity:1"/><path style="fill:none;stroke-width:.79701;stroke-linecap:butt;stroke-linejoin:miter;stroke:#ff9d00;stroke-opacity:1;stroke-dasharray:.79701,.99628;stroke-miterlimit:10" d="M-45.354-45.356c17.687 30.637 17.687 60.074 0 90.711" transform="matrix(1 0 0 -1 62.272 50.734)"/><use xlink:href="#f" x="25.481" y="69.489" style="fill:#000;fill-opacity:1"/><use xlink:href="#g" x="26.058" y="67.087" style="fill:#000;fill-opacity:1"/><use xlink:href="#h" x="26.749" y="63.641" style="fill:#000;fill-opacity:1"/><use xlink:href="#i" x="27.374" y="59.201" style="fill:#000;fill-opacity:1"/><use xlink:href="#j" x="27.709" y="55.766" style="fill:#000;fill-opacity:1"/><use xlink:href="#k" x="27.863" y="50.79" style="fill:#000;fill-opacity:1"/><use xlink:href="#l" x="27.753" y="46.812" style="fill:#000;fill-opacity:1"/><use xlink:href="#m" x="27.567" y="43.378" style="fill:#000;fill-opacity:1"/><use xlink:href="#n" x="26.393" y="35.962" style="fill:#000;fill-opacity:1"/><use xlink:href="#a" x="12.154" y="104.208" style="fill:#ff9d00;fill-opacity:1"/><use xlink:href="#d" x="17.53" y="105.205" style="fill:#ff9d00;fill-opacity:1"/><path style="fill:none;stroke-width:1.19553;stroke-linecap:butt;stroke-linejoin:miter;stroke:#00adef;stroke-opacity:1;stroke-miterlimit:10" d="M-56.694 0h110.2" transform="matrix(1 0 0 -1 62.272 50.734)"/><path style="stroke:none;fill-rule:nonzero;fill:#00adef;fill-opacity:1" d="m118.965 50.734-5.102-2.55 1.914 2.55-1.914 2.551M76.445 50.734l-5.101-2.55 1.914 2.55-1.914 2.551"/><g style="fill:#000;fill-opacity:1"><use xlink:href="#o" x="42.707" y="46.999"/><use xlink:href="#p" x="46.802" y="46.999"/><use xlink:href="#q" x="51.409" y="46.999"/><use xlink:href="#r" x="56.527" y="46.999"/><use xlink:href="#s" x="60.131" y="46.999"/><use xlink:href="#t" x="64.737" y="46.999"/></g><use xlink:href="#u" x="69.595" y="46.999" style="fill:#000;fill-opacity:1"/><g style="fill:#000;fill-opacity:1"><use xlink:href="#u" x="76.254" y="46.999"/><use xlink:href="#v" x="79.837" y="46.999"/><use xlink:href="#w" x="84.955" y="46.999"/><use xlink:href="#r" x="89.053" y="46.999"/><use xlink:href="#x" x="92.657" y="46.999"/><use xlink:href="#y" x="100.335" y="46.999"/><use xlink:href="#z" x="102.894" y="46.999"/><use xlink:href="#q" x="107.756" y="46.999"/><use xlink:href="#w" x="112.874" y="46.999"/></g><g clip-path="url(#A)"><path style="fill:none;stroke-width:1.19553;stroke-linecap:butt;stroke-linejoin:miter;stroke:#00adef;stroke-opacity:1;stroke-miterlimit:10" d="M-56.694 22.68C-18.4 44.784 18.4 44.784 53.931 24.272" transform="matrix(1 0 0 -1 62.272 50.734)"/></g><path style="stroke:none;fill-rule:nonzero;fill:#00adef;fill-opacity:1" d="m118.965 28.055-3.14-4.758.378 3.164-2.93 1.254M73.352 12.117l-4.774-3.12 1.606 2.753-2.192 2.313"/><g clip-path="url(#B)"><path style="fill:none;stroke-width:1.19553;stroke-linecap:butt;stroke-linejoin:miter;stroke:#00adef;stroke-opacity:1;stroke-miterlimit:10" d="M-56.694-22.676C-18.4-44.786 18.4-44.786 53.931-24.27" transform="matrix(1 0 0 -1 62.272 50.734)"/></g><path style="stroke:none;fill-rule:nonzero;fill:#00adef;fill-opacity:1" d="m118.965 73.41-5.692.344 2.93 1.25-.379 3.168M73.352 89.352l-5.36-1.946 2.192 2.313-1.606 2.754"/></svg>