<svg xmlns="http://www.w3.org/2000/svg" xmlns:xlink="http://www.w3.org/1999/xlink" width="206.796" height="79.804" viewBox="0 0 155.097 59.853"><defs><clipPath id="a"><path d="M4 7.25h134.777v22.676H4Zm0 0"/></clipPath><clipPath id="b"><path d="M150.117 54.871V4.981H14.051c-5.012 0-9.07 11.167-9.07 24.945 0 13.777 4.058 24.945 9.07 24.945Zm0 0"/></clipPath><clipPath id="d"><path d="M4 30h134.777v22.605H4Zm0 0"/></clipPath><clipPath id="e"><path d="M150.117 54.871V4.981H14.051c-5.012 0-9.07 11.167-9.07 24.945 0 13.777 4.058 24.945 9.07 24.945Zm0 0"/></clipPath><clipPath id="g"><path d="M4 41h135v1H4Zm0 0"/></clipPath><clipPath id="h"><path d="M150.117 54.871V4.981H14.051c-5.012 0-9.07 11.167-9.07 24.945 0 13.777 4.058 24.945 9.07 24.945Zm0 0"/></clipPath><clipPath id="i"><path d="M4 18h135v1H4Zm0 0"/></clipPath><clipPath id="j"><path d="M150.117 54.871V4.981H14.051c-5.012 0-9.07 11.167-9.07 24.945 0 13.777 4.058 24.945 9.07 24.945Zm0 0"/></clipPath><clipPath id="k"><path d="M129 7h19v46h-19Zm0 0"/></clipPath><clipPath id="l"><path d="M150.117 54.871V4.981H14.051c-5.012 0-9.07 11.167-9.07 24.945 0 13.777 4.058 24.945 9.07 24.945Zm0 0"/></clipPath><clipPath id="m"><path d="M124 4h27v51h-27Zm0 0"/></clipPath><clipPath id="n"><path d="M150.117 54.871V4.981H14.051c-5.012 0-9.07 11.167-9.07 24.945 0 13.777 4.058 24.945 9.07 24.945Zm0 0"/></clipPath><clipPath id="o"><path d="M134 18h10v24h-10Zm0 0"/></clipPath><clipPath id="p"><path d="M150.117 54.871V4.981H14.051c-5.012 0-9.07 11.167-9.07 24.945 0 13.777 4.058 24.945 9.07 24.945Zm0 0"/></clipPath><clipPath id="q"><path d="M128 12h21v35h-21Zm0 0"/></clipPath><clipPath id="r"><path d="M150.117 54.871V4.981H14.051c-5.012 0-9.07 11.167-9.07 24.945 0 13.777 4.058 24.945 9.07 24.945Zm0 0"/></clipPath><clipPath id="s"><path d="M52 25h26v10H52Zm0 0"/></clipPath><clipPath id="t"><path d="M150.117 54.871V4.981H14.051c-5.012 0-9.07 11.167-9.07 24.945 0 13.777 4.058 24.945 9.07 24.945Zm0 0"/></clipPath><clipPath id="A"><path d="M78 25h7v9h-7Zm0 0"/></clipPath><clipPath id="B"><path d="M150.117 54.871V4.981H14.051c-5.012 0-9.07 11.167-9.07 24.945 0 13.777 4.058 24.945 9.07 24.945Zm0 0"/></clipPath><clipPath id="E"><path d="M90 28h4v5h-4Zm0 0"/></clipPath><clipPath id="F"><path d="M150.117 54.871V4.981H14.051c-5.012 0-9.07 11.167-9.07 24.945 0 13.777 4.058 24.945 9.07 24.945Zm0 0"/></clipPath><clipPath id="H"><path d="M93 30h5v5h-5Zm0 0"/></clipPath><clipPath id="I"><path d="M150.117 54.871V4.981H14.051c-5.012 0-9.07 11.167-9.07 24.945 0 13.777 4.058 24.945 9.07 24.945Zm0 0"/></clipPath><clipPath id="K"><path d="M98 31h2v3h-2Zm0 0"/></clipPath><clipPath id="L"><path d="M150.117 54.871V4.981H14.051c-5.012 0-9.07 11.167-9.07 24.945 0 13.777 4.058 24.945 9.07 24.945Zm0 0"/></clipPath><clipPath id="M"><path d="M105 28h8v7h-8Zm0 0"/></clipPath><clipPath id="N"><path d="M150.117 54.871V4.981H14.051c-5.012 0-9.07 11.167-9.07 24.945 0 13.777 4.058 24.945 9.07 24.945Zm0 0"/></clipPath><clipPath id="P"><path d="M117 28h5v7h-5Zm0 0"/></clipPath><clipPath id="Q"><path d="M150.117 54.871V4.981H14.051c-5.012 0-9.07 11.167-9.07 24.945 0 13.777 4.058 24.945 9.07 24.945Zm0 0"/></clipPath><clipPath id="S"><path d="M122 25h3v10h-3Zm0 0"/></clipPath><clipPath id="T"><path d="M150.117 54.871V4.981H14.051c-5.012 0-9.07 11.167-9.07 24.945 0 13.777 4.058 24.945 9.07 24.945Zm0 0"/></clipPath><clipPath id="V"><path d="M24 29h11v2H24Zm0 0"/></clipPath><clipPath id="W"><path d="M150.117 54.871V4.981H14.051c-5.012 0-9.07 11.167-9.07 24.945 0 13.777 4.058 24.945 9.07 24.945Zm0 0"/></clipPath><clipPath id="X"><path d="M32 27h5v5h-5Zm0 0"/></clipPath><clipPath id="Y"><path d="M150.117 54.871V4.981H14.051c-5.012 0-9.07 11.167-9.07 24.945 0 13.777 4.058 24.945 9.07 24.945Zm0 0"/></clipPath><clipPath id="Z"><path d="M39 26h7v1h-7Zm0 0"/></clipPath><clipPath id="aa"><path d="M150.117 54.871V4.981H14.051c-5.012 0-9.07 11.167-9.07 24.945 0 13.777 4.058 24.945 9.07 24.945Zm0 0"/></clipPath><clipPath id="ac"><path d="M39 24h9v5h-9Zm0 0"/></clipPath><clipPath id="ad"><path d="M150.117 54.871V4.981H14.051c-5.012 0-9.07 11.167-9.07 24.945 0 13.777 4.058 24.945 9.07 24.945Zm0 0"/></clipPath><clipPath id="af"><path d="M40 29h6v1h-6Zm0 0"/></clipPath><clipPath id="ag"><path d="M150.117 54.871V4.981H14.051c-5.012 0-9.07 11.167-9.07 24.945 0 13.777 4.058 24.945 9.07 24.945Zm0 0"/></clipPath><clipPath id="ah"><path d="M41 30h5v5h-5Zm0 0"/></clipPath><clipPath id="ai"><path d="M150.117 54.871V4.981H14.051c-5.012 0-9.07 11.167-9.07 24.945 0 13.777 4.058 24.945 9.07 24.945Zm0 0"/></clipPath><clipPath id="ak"><path d="M13 20h2v20h-2Zm0 0"/></clipPath><clipPath id="al"><path d="M150.117 54.871V4.981H14.051c-5.012 0-9.07 11.167-9.07 24.945 0 13.777 4.058 24.945 9.07 24.945Zm0 0"/></clipPath><clipPath id="am"><path d="M12 37h4v4h-4Zm0 0"/></clipPath><clipPath id="an"><path d="M150.117 54.871V4.981H14.051c-5.012 0-9.07 11.167-9.07 24.945 0 13.777 4.058 24.945 9.07 24.945Zm0 0"/></clipPath><clipPath id="ao"><path d="M11 40h6v2h-6Zm0 0"/></clipPath><clipPath id="ap"><path d="M150.117 54.871V4.981H14.051c-5.012 0-9.07 11.167-9.07 24.945 0 13.777 4.058 24.945 9.07 24.945Zm0 0"/></clipPath><clipPath id="aq"><path d="M12 18h4v5h-4Zm0 0"/></clipPath><clipPath id="ar"><path d="M150.117 54.871V4.981H14.051c-5.012 0-9.07 11.167-9.07 24.945 0 13.777 4.058 24.945 9.07 24.945Zm0 0"/></clipPath><clipPath id="as"><path d="M11 18h6v2h-6Zm0 0"/></clipPath><clipPath id="at"><path d="M150.117 54.871V4.981H14.051c-5.012 0-9.07 11.167-9.07 24.945 0 13.777 4.058 24.945 9.07 24.945Zm0 0"/></clipPath><clipPath id="au"><path d="M4 26h8v7H4Zm0 0"/></clipPath><clipPath id="av"><path d="M150.117 54.871V4.981H14.051c-5.012 0-9.07 11.167-9.07 24.945 0 13.777 4.058 24.945 9.07 24.945Zm0 0"/></clipPath><symbol overflow="visible" id="u"><path style="stroke:none" d="M.953-3.86H.25v.266h.703v2.969c0 .313-.25.344-.547.344h-.14v.265L.922-.03h.734l.625.015V-.28h-.203c-.25 0-.484-.031-.484-.344v-2.969h1.922v2.969c0 .313-.266.344-.563.344h-.125v.265l.625-.015h.735l.656.015V-.28h-.219c-.25 0-.469-.047-.469-.36v-5.593c-.11.015-.218.046-.328.046h-.031c-.063 0-.172-.062-.235-.078a1.613 1.613 0 0 0-.468-.062h-.156c-.922 0-1.985.469-1.985 1.469Zm2.563 0H1.562v-.968c0-.656.422-1.281 1.375-1.281.204 0 .376.03.579.062-.125.094-.204.203-.204.36 0 .218.188.265.204.406.015.047.015.11.015.156 0 .11-.015.219-.015.313Zm0 0"/></symbol><symbol overflow="visible" id="v"><path style="stroke:none" d="M.313-3.86v.266H.39c.25 0 .593.031.593.281.016.11.016.188.016.297v1.782c0 .28.016.53.14.78.266.438.813.548 1.282.548.5 0 .984-.297 1.14-.766l.016.766 1.328-.11V-.28H4.75c-.266 0-.531-.031-.531-.438v-3.25l-1.36.11v.265h.125c.282 0 .563.031.563.453v1.766C3.5-.797 3.14-.141 2.453-.141c-.36 0-.687-.078-.765-.546-.016-.172-.016-.329-.016-.5V-3.97Zm0 0"/></symbol><symbol overflow="visible" id="w"><path style="stroke:none" d="M.36-3.86v.266H.5c.297 0 .516.047.516.453v2.485c0 .36-.25.375-.688.375v.265h1.938V-.28h-.141c-.234 0-.469-.031-.469-.313v-3.375Zm.765-2.156c-.234.047-.422.235-.422.485s.219.468.485.468h.062a.474.474 0 0 0 .422-.468.477.477 0 0 0-.484-.485Zm0 0"/></symbol><symbol overflow="visible" id="x"><path style="stroke:none" d="M2.828-6.14v.28h.094c.36 0 .594.016.594.548v1.875a1.532 1.532 0 0 0-1.172-.532c-1.11 0-2.031.938-2.031 2.047C.313-.906 1.14.094 2.266.094c.421 0 .984-.203 1.218-.578v.578l1.36-.11V-.28h-.14c-.298 0-.548-.031-.548-.453v-5.5Zm-1.75 4.406v-.125c0-.72.188-1.875 1.313-1.875.468 0 1.109.343 1.109.906 0 .11-.016.219-.016.328v1.484c0 .11-.046.188-.109.282-.234.343-.64.593-1.063.593a1.14 1.14 0 0 1-.89-.453c-.25-.328-.297-.734-.344-1.14Zm0 0"/></symbol><symbol overflow="visible" id="y"><path style="stroke:none" d="M1.031-2.063h2.657c.109 0 .156-.046.156-.156 0-1.125-.703-1.797-1.64-1.797-1.095 0-1.954.954-1.954 2.047C.25-.875 1.125.094 2.344.094c.64 0 1.281-.453 1.469-1.078.015-.016.015-.063.015-.094a.107.107 0 0 0-.11-.11c-.171 0-.171.266-.265.391-.219.375-.656.64-1.094.64h-.062C1.828-.171 1.422-.5 1.219-.921c-.172-.36-.188-.75-.188-1.14Zm.016-.218c0-.594.25-1.281.906-1.485a.914.914 0 0 1 .203-.03c.781 0 1.063.796 1.063 1.515Zm0 0"/></symbol><symbol overflow="visible" id="z"><path style="stroke:none" d="M2.906-6.734c-.125.046-.281.218-.39.328C1.39-5.313.906-3.796.906-2.25c0 1.656.563 3.344 1.906 4.422.047.031.094.078.141.078.063 0 .11-.047.11-.11 0-.109-.25-.296-.344-.39-.953-1.11-1.25-2.578-1.25-4.016 0-1.5.343-3.078 1.453-4.187.047-.047.14-.11.14-.188 0-.046-.046-.093-.109-.093h-.047Zm0 0"/></symbol><symbol overflow="visible" id="U"><path style="stroke:none" d="M.578-6.734c-.047.03-.062.062-.062.093 0 .11.218.266.296.36C1.797-5.188 2.11-3.656 2.11-2.22 2.11-.75 1.766.86.672 1.953c-.047.047-.156.11-.156.188 0 .046.062.109.125.109.109-.031.296-.219.421-.328 1.11-1.047 1.61-2.61 1.61-4.125 0-1.64-.531-3.406-1.906-4.453-.047-.032-.094-.078-.141-.078H.578Zm0 0"/></symbol><symbol overflow="visible" id="C"><path style="stroke:none" d="M3.281-2.594c.516 1.344.86 2.344.938 2.453.187.235.25.235.531.235h.203c.063 0 .11-.032.11-.094 0-.047-.016-.063-.063-.094-.11-.125-.14-.234-.203-.39L2.89-5.61c-.204-.547-.797-.61-1.125-.61-.079 0-.204 0-.204.11 0 .093.079.093.172.109.282.047.375.297.516.625l.922 2.484L.64-.453C.562-.36.484-.297.484-.156c0 .187.157.265.282.265.156 0 .265-.125.296-.156Zm0 0"/></symbol><symbol overflow="visible" id="D"><path style="stroke:none" d="M1.625-.14c0 .296 0 1.03-.656 1.671-.047.047-.047.063-.047.094 0 .063.062.11.11.11.093 0 .827-.704.827-1.75 0-.563-.203-.954-.578-.954a.467.467 0 0 0-.484.485c0 .25.172.484.484.484a.46.46 0 0 0 .344-.14Zm0 0"/></symbol><symbol overflow="visible" id="G"><path style="stroke:none" d="M3.61-3.422a.508.508 0 0 0-.532.485c0 .265.235.328.344.328.187 0 .5-.157.5-.579 0-.468-.469-.78-1.094-.78-1.219 0-2.437 1.25-2.437 2.53C.39-.53.984.095 1.89.095c1.343 0 2.093-.922 2.093-1.047 0-.047-.062-.125-.125-.125-.03 0-.046.016-.125.11-.546.655-1.359.843-1.828.843-.5 0-.828-.328-.828-.984 0-.375.172-1.266.531-1.844.204-.328.672-.781 1.235-.781.172 0 .547.03.765.312Zm0 0"/></symbol><symbol overflow="visible" id="O"><path style="stroke:none" d="M2.125-3.203c.047-.156.125-.469.125-.5 0-.14-.11-.266-.281-.266-.282 0-.36.266-.375.36L.312 1.484c-.03.125-.03.141-.03.188 0 .156.109.266.28.266.282 0 .36-.266.375-.407l.438-1.703c.234.188.594.266.89.266.313 0 .75-.094 1.22-.64.109.468.53.64.828.64.265 0 .484-.11.687-.485.156-.296.281-.859.281-.89 0-.047-.031-.11-.11-.11-.109 0-.124.047-.155.22-.204.78-.391 1.046-.672 1.046-.235 0-.282-.219-.282-.406 0-.172.047-.36.125-.672l.22-.922.218-.797c.047-.234.156-.64.156-.687 0-.11-.078-.25-.281-.25-.281 0-.344.234-.406.484l-.188.75L3.484-1c0 .047-.437.875-1.187.875-.672 0-.672-.625-.672-.797 0-.203.031-.36.125-.765Zm0 0"/></symbol><symbol overflow="visible" id="R"><path style="stroke:none" d="M4.516-2.469c.062-.281.062-.375.062-.515 0-.797-.594-.985-1.062-.985-.829 0-1.266.594-1.422.781a.84.84 0 0 0-.86-.78c-.375 0-.578.28-.703.53-.14.313-.265.813-.265.86 0 .078.062.11.125.11.093 0 .109-.048.156-.235.172-.703.36-1.031.656-1.031.281 0 .281.28.281.421 0 .188-.078.454-.125.688-.062.234-.156.625-.187.734L.812-.42C.75-.204.75-.189.75-.157c0 .11.078.25.266.25a.402.402 0 0 0 .328-.188c.031-.047.093-.344.14-.515l.204-.797c.109-.422.28-1.078.28-1.157.016-.046.25-.484.563-.796.266-.235.61-.375.953-.375.485 0 .485.468.485.625 0 .25-.031.375-.078.578L2.875 1.484c-.031.125-.031.141-.031.188 0 .156.11.266.281.266.281 0 .344-.266.375-.375Zm0 0"/></symbol><symbol overflow="visible" id="aj"><path style="stroke:none" d="M4.313-3.313c0-.624-.329-.656-.407-.656-.234 0-.469.235-.469.438 0 .14.094.219.157.265.234.22.312.516.312.75 0 .391-.562 2.391-1.594 2.391-.687 0-.687-.625-.687-.797 0-.375.14-.844.453-1.656.14-.375.172-.469.172-.625a.739.739 0 0 0-.766-.766c-.859 0-1.218 1.281-1.218 1.39 0 .079.062.11.125.11.093 0 .109-.062.14-.172.188-.656.547-1.093.922-1.093.172 0 .219.109.219.296 0 .141-.047.313-.125.516-.313.875-.531 1.438-.531 1.89 0 .845.64 1.126 1.25 1.126 1.515 0 2.046-2.828 2.046-3.406Zm0 0"/></symbol><symbol overflow="visible" id="aw"><path style="stroke:none" d="M1.438-.688c-.079.329-.094.407-.766.407-.172 0-.266 0-.266.172C.406 0 .5 0 .656 0h3.016c1.922 0 3.703-1.906 3.703-3.844 0-1.219-.766-2.281-2.172-2.281H2.141c-.172 0-.282 0-.282.156 0 .125.094.125.282.125.03 0 .187 0 .328.016.156.016.219.031.219.14 0 .032 0 .079-.032.172ZM3.421-5.5c.078-.328.094-.344.469-.344h1.015c.938 0 1.672.516 1.672 1.672 0 .516-.219 1.953-.922 2.844C5.25-.812 4.5-.281 3.516-.281h-1.25c-.094-.016-.125-.031-.125-.094 0-.016 0-.031.046-.203Zm0 0"/></symbol><symbol overflow="visible" id="J"><path style="stroke:none" d="M.578.719C.531.875.531.922.281.922c-.078 0-.125 0-.14.031a.483.483 0 0 0-.032.125c0 .016 0 .078.094.078.156 0 .36-.015.531-.015h.329c.109 0 .218.015.328.015.03 0 .078 0 .093-.031.016-.031.047-.094.047-.125-.015-.078-.078-.078-.187-.078-.14 0-.297 0-.297-.078 0-.031.047-.172.062-.266l.22-.875c.14.219.359.36.655.36.797 0 1.594-.829 1.594-1.688 0-.625-.437-1.016-.953-1.016-.484 0-.86.391-.89.422-.11-.344-.485-.422-.657-.422-.281 0-.422.204-.5.329-.14.25-.219.562-.219.593 0 .063.063.078.11.078.094 0 .11-.03.14-.125.125-.5.266-.671.454-.671.218 0 .218.234.218.296 0 .11-.015.125-.031.172Zm1.125-2.516c.031-.11.031-.125.14-.234.188-.219.485-.406.766-.406.282 0 .47.218.47.578 0 .203-.126.875-.36 1.234-.203.313-.485.484-.735.484-.453 0-.562-.468-.562-.515 0-.031.016-.063.016-.078Zm0 0"/></symbol><symbol overflow="visible" id="ab"><path style="stroke:none" d="M6.047-2.047c.172 0 .344 0 .344-.203 0-.188-.188-.188-.344-.188H1.109c-.156 0-.343 0-.343.188 0 .203.171.203.343.203Zm0 0"/></symbol><symbol overflow="visible" id="ae"><path style="stroke:none" d="M7.625-2.047c-1.063.75-1.281 1.938-1.281 2.031 0 .125.125.125.187.125.11 0 .172 0 .203-.125.25-1.046.86-1.75 1.844-2.109.047-.016.125-.047.125-.125s-.062-.094-.125-.125c-1.125-.422-1.64-1.219-1.844-2.094-.03-.125-.062-.125-.203-.125-.078 0-.187 0-.187.125 0 .094.218 1.282 1.281 2.032H.844c-.156 0-.328 0-.328.187 0 .203.171.203.328.203Zm0 0"/></symbol><linearGradient id="c" gradientUnits="userSpaceOnUse" x1="0" y1="25.003" x2="0" y2="74.997" gradientTransform="matrix(2.94843 0 0 -.4536 -82.346 41.267)"><stop offset="0" style="stop-color:#fff;stop-opacity:1"/><stop offset=".016" style="stop-color:#fefefe;stop-opacity:1"/><stop offset=".031" style="stop-color:#fefefe;stop-opacity:1"/><stop offset=".047" style="stop-color:#fdfdfd;stop-opacity:1"/><stop offset=".063" style="stop-color:#fcfcfc;stop-opacity:1"/><stop offset=".078" style="stop-color:#fbfbfb;stop-opacity:1"/><stop offset=".094" style="stop-color:#fafafa;stop-opacity:1"/><stop offset=".109" style="stop-color:#f9f9f9;stop-opacity:1"/><stop offset=".125" style="stop-color:#f8f8f8;stop-opacity:1"/><stop offset=".141" style="stop-color:#f7f7f7;stop-opacity:1"/><stop offset=".156" style="stop-color:#f6f6f6;stop-opacity:1"/><stop offset=".172" style="stop-color:#f5f5f5;stop-opacity:1"/><stop offset=".188" style="stop-color:#f4f4f4;stop-opacity:1"/><stop offset=".203" style="stop-color:#f3f3f3;stop-opacity:1"/><stop offset=".219" style="stop-color:#f2f2f2;stop-opacity:1"/><stop offset=".234" style="stop-color:#f1f1f1;stop-opacity:1"/><stop offset=".25" style="stop-color:#f0f0f0;stop-opacity:1"/><stop offset=".266" style="stop-color:#efefef;stop-opacity:1"/><stop offset=".281" style="stop-color:#eee;stop-opacity:1"/><stop offset=".297" style="stop-color:#ededed;stop-opacity:1"/><stop offset=".313" style="stop-color:#ececec;stop-opacity:1"/><stop offset=".328" style="stop-color:#ebebeb;stop-opacity:1"/><stop offset=".344" style="stop-color:#eaeaea;stop-opacity:1"/><stop offset=".359" style="stop-color:#e9e9e9;stop-opacity:1"/><stop offset=".375" style="stop-color:#e8e8e8;stop-opacity:1"/><stop offset=".391" style="stop-color:#e7e7e7;stop-opacity:1"/><stop offset=".406" style="stop-color:#e6e6e6;stop-opacity:1"/><stop offset=".422" style="stop-color:#e5e5e5;stop-opacity:1"/><stop offset=".438" style="stop-color:#e4e4e4;stop-opacity:1"/><stop offset=".453" style="stop-color:#e3e3e3;stop-opacity:1"/><stop offset=".469" style="stop-color:#e2e2e2;stop-opacity:1"/><stop offset=".484" style="stop-color:#e1e1e1;stop-opacity:1"/><stop offset=".5" style="stop-color:#e0e0e0;stop-opacity:1"/><stop offset=".516" style="stop-color:#dfdfdf;stop-opacity:1"/><stop offset=".531" style="stop-color:#dedede;stop-opacity:1"/><stop offset=".547" style="stop-color:#ddd;stop-opacity:1"/><stop offset=".563" style="stop-color:#dcdcdc;stop-opacity:1"/><stop offset=".578" style="stop-color:#dbdbdb;stop-opacity:1"/><stop offset=".594" style="stop-color:#dadada;stop-opacity:1"/><stop offset=".609" style="stop-color:#d9d9d9;stop-opacity:1"/><stop offset=".625" style="stop-color:#d8d8d8;stop-opacity:1"/><stop offset=".641" style="stop-color:#d7d7d7;stop-opacity:1"/><stop offset=".656" style="stop-color:#d6d6d6;stop-opacity:1"/><stop offset=".672" style="stop-color:#d5d5d5;stop-opacity:1"/><stop offset=".688" style="stop-color:#d4d4d4;stop-opacity:1"/><stop offset=".703" style="stop-color:#d3d3d3;stop-opacity:1"/><stop offset=".719" style="stop-color:#d2d2d2;stop-opacity:1"/><stop offset=".734" style="stop-color:#d1d1d1;stop-opacity:1"/><stop offset=".75" style="stop-color:#d0d0d0;stop-opacity:1"/><stop offset=".766" style="stop-color:#cfcfcf;stop-opacity:1"/><stop offset=".781" style="stop-color:#cecece;stop-opacity:1"/><stop offset=".797" style="stop-color:#cdcdcd;stop-opacity:1"/><stop offset=".813" style="stop-color:#ccc;stop-opacity:1"/><stop offset=".828" style="stop-color:#cbcbcb;stop-opacity:1"/><stop offset=".844" style="stop-color:#cacaca;stop-opacity:1"/><stop offset=".859" style="stop-color:#c9c9c9;stop-opacity:1"/><stop offset=".875" style="stop-color:#c8c8c8;stop-opacity:1"/><stop offset=".891" style="stop-color:#c7c7c7;stop-opacity:1"/><stop offset=".906" style="stop-color:#c6c6c6;stop-opacity:1"/><stop offset=".922" style="stop-color:#c5c5c5;stop-opacity:1"/><stop offset=".938" style="stop-color:#c4c4c4;stop-opacity:1"/><stop offset=".953" style="stop-color:#c3c3c3;stop-opacity:1"/><stop offset=".969" style="stop-color:#c2c2c2;stop-opacity:1"/><stop offset=".984" style="stop-color:#c1c1c1;stop-opacity:1"/><stop offset="1" style="stop-color:silver;stop-opacity:1"/></linearGradient><linearGradient id="f" gradientUnits="userSpaceOnUse" x1="0" y1="25.003" x2="0" y2="74.997" gradientTransform="matrix(2.94843 0 0 -.4536 -82.346 63.945)"><stop offset="0" style="stop-color:#bfbfbf;stop-opacity:1"/><stop offset=".016" style="stop-color:silver;stop-opacity:1"/><stop offset=".031" style="stop-color:#c1c1c1;stop-opacity:1"/><stop offset=".047" style="stop-color:#c2c2c2;stop-opacity:1"/><stop offset=".063" style="stop-color:#c3c3c3;stop-opacity:1"/><stop offset=".078" style="stop-color:#c4c4c4;stop-opacity:1"/><stop offset=".094" style="stop-color:#c5c5c5;stop-opacity:1"/><stop offset=".109" style="stop-color:#c6c6c6;stop-opacity:1"/><stop offset=".125" style="stop-color:#c7c7c7;stop-opacity:1"/><stop offset=".141" style="stop-color:#c8c8c8;stop-opacity:1"/><stop offset=".156" style="stop-color:#c9c9c9;stop-opacity:1"/><stop offset=".172" style="stop-color:#cacaca;stop-opacity:1"/><stop offset=".188" style="stop-color:#cbcbcb;stop-opacity:1"/><stop offset=".203" style="stop-color:#ccc;stop-opacity:1"/><stop offset=".219" style="stop-color:#cdcdcd;stop-opacity:1"/><stop offset=".234" style="stop-color:#cecece;stop-opacity:1"/><stop offset=".25" style="stop-color:#cfcfcf;stop-opacity:1"/><stop offset=".266" style="stop-color:#d0d0d0;stop-opacity:1"/><stop offset=".281" style="stop-color:#d1d1d1;stop-opacity:1"/><stop offset=".297" style="stop-color:#d2d2d2;stop-opacity:1"/><stop offset=".313" style="stop-color:#d3d3d3;stop-opacity:1"/><stop offset=".328" style="stop-color:#d4d4d4;stop-opacity:1"/><stop offset=".344" style="stop-color:#d5d5d5;stop-opacity:1"/><stop offset=".359" style="stop-color:#d6d6d6;stop-opacity:1"/><stop offset=".375" style="stop-color:#d7d7d7;stop-opacity:1"/><stop offset=".391" style="stop-color:#d8d8d8;stop-opacity:1"/><stop offset=".406" style="stop-color:#d9d9d9;stop-opacity:1"/><stop offset=".422" style="stop-color:#dadada;stop-opacity:1"/><stop offset=".438" style="stop-color:#dbdbdb;stop-opacity:1"/><stop offset=".453" style="stop-color:#dcdcdc;stop-opacity:1"/><stop offset=".469" style="stop-color:#ddd;stop-opacity:1"/><stop offset=".484" style="stop-color:#dedede;stop-opacity:1"/><stop offset=".5" style="stop-color:#dfdfdf;stop-opacity:1"/><stop offset=".516" style="stop-color:#e0e0e0;stop-opacity:1"/><stop offset=".531" style="stop-color:#e1e1e1;stop-opacity:1"/><stop offset=".547" style="stop-color:#e2e2e2;stop-opacity:1"/><stop offset=".563" style="stop-color:#e3e3e3;stop-opacity:1"/><stop offset=".578" style="stop-color:#e4e4e4;stop-opacity:1"/><stop offset=".594" style="stop-color:#e5e5e5;stop-opacity:1"/><stop offset=".609" style="stop-color:#e6e6e6;stop-opacity:1"/><stop offset=".625" style="stop-color:#e7e7e7;stop-opacity:1"/><stop offset=".641" style="stop-color:#e8e8e8;stop-opacity:1"/><stop offset=".656" style="stop-color:#e9e9e9;stop-opacity:1"/><stop offset=".672" style="stop-color:#eaeaea;stop-opacity:1"/><stop offset=".688" style="stop-color:#ebebeb;stop-opacity:1"/><stop offset=".703" style="stop-color:#ececec;stop-opacity:1"/><stop offset=".719" style="stop-color:#ededed;stop-opacity:1"/><stop offset=".734" style="stop-color:#eee;stop-opacity:1"/><stop offset=".75" style="stop-color:#efefef;stop-opacity:1"/><stop offset=".766" style="stop-color:#f0f0f0;stop-opacity:1"/><stop offset=".781" style="stop-color:#f1f1f1;stop-opacity:1"/><stop offset=".797" style="stop-color:#f2f2f2;stop-opacity:1"/><stop offset=".813" style="stop-color:#f3f3f3;stop-opacity:1"/><stop offset=".828" style="stop-color:#f4f4f4;stop-opacity:1"/><stop offset=".844" style="stop-color:#f5f5f5;stop-opacity:1"/><stop offset=".859" style="stop-color:#f6f6f6;stop-opacity:1"/><stop offset=".875" style="stop-color:#f7f7f7;stop-opacity:1"/><stop offset=".891" style="stop-color:#f8f8f8;stop-opacity:1"/><stop offset=".906" style="stop-color:#f9f9f9;stop-opacity:1"/><stop offset=".922" style="stop-color:#fafafa;stop-opacity:1"/><stop offset=".938" style="stop-color:#fbfbfb;stop-opacity:1"/><stop offset=".953" style="stop-color:#fcfcfc;stop-opacity:1"/><stop offset=".969" style="stop-color:#fdfdfd;stop-opacity:1"/><stop offset=".984" style="stop-color:#fdfdfd;stop-opacity:1"/><stop offset="1" style="stop-color:#fefefe;stop-opacity:1"/></linearGradient></defs><g clip-path="url(#a)"><g clip-path="url(#b)"><path style="stroke:none;fill-rule:nonzero;fill:url(#c)" d="M4.98 29.926V7.25h133.797v22.676Zm0 0"/></g></g><g clip-path="url(#d)"><g clip-path="url(#e)"><path style="stroke:none;fill-rule:nonzero;fill:url(#f)" d="M4.98 52.605v-22.68h133.797v22.68Zm0 0"/></g></g><g clip-path="url(#g)"><g clip-path="url(#h)"><path style="fill:none;stroke-width:.3985;stroke-linecap:butt;stroke-linejoin:miter;stroke:#000;stroke-opacity:1;stroke-dasharray:2.98883,2.98883;stroke-miterlimit:10" d="M0-11.34h-136.066" transform="matrix(1 0 0 -1 138.777 29.926)"/></g></g><g clip-path="url(#i)"><g clip-path="url(#j)"><path style="fill:none;stroke-width:.3985;stroke-linecap:butt;stroke-linejoin:miter;stroke:#000;stroke-opacity:1;stroke-dasharray:2.98883,2.98883;stroke-miterlimit:10" d="M0 11.34h-136.066" transform="matrix(1 0 0 -1 138.777 29.926)"/></g></g><g clip-path="url(#k)"><g clip-path="url(#l)"><path style="stroke:none;fill-rule:nonzero;fill:#bfbfbf;fill-opacity:1" d="M147.848 29.926c0-12.524-4.063-22.676-9.07-22.676-5.012 0-9.071 10.152-9.071 22.676 0 12.523 4.059 22.68 9.07 22.68 5.008 0 9.07-10.157 9.07-22.68Zm0 0"/></g></g><g clip-path="url(#m)"><g clip-path="url(#n)"><path style="fill:none;stroke-width:.3985;stroke-linecap:butt;stroke-linejoin:miter;stroke:#000;stroke-opacity:1;stroke-miterlimit:10" d="M9.07 0c0 12.524-4.062 22.676-9.07 22.676-5.011 0-9.07-10.152-9.07-22.676 0-12.523 4.059-22.68 9.07-22.68 5.008 0 9.07 10.157 9.07 22.68Zm0 0" transform="matrix(1 0 0 -1 138.777 29.926)"/></g></g><g clip-path="url(#o)"><g clip-path="url(#p)"><path style="stroke:none;fill-rule:nonzero;fill:#fff;fill-opacity:1" d="M143.313 29.926c0-6.262-2.032-11.34-4.536-11.34-2.504 0-4.535 5.078-4.535 11.34s2.031 11.34 4.535 11.34 4.536-5.078 4.536-11.34Zm0 0"/></g></g><g clip-path="url(#q)"><g clip-path="url(#r)"><path style="fill:none;stroke-width:.3985;stroke-linecap:butt;stroke-linejoin:miter;stroke:#000;stroke-opacity:1;stroke-miterlimit:10" d="M4.535 0c0 6.262-2.03 11.34-4.535 11.34-2.504 0-4.535-5.078-4.535-11.34 0-6.261 2.031-11.34 4.535-11.34S4.535-6.26 4.535 0Zm0 0" transform="matrix(1 0 0 -1 138.777 29.926)"/></g></g><g clip-path="url(#s)"><g style="fill:#000;fill-opacity:1" clip-path="url(#t)"><use xlink:href="#u" x="52.122" y="32.167"/><use xlink:href="#v" x="57.24" y="32.167"/><use xlink:href="#w" x="62.358" y="32.167"/><use xlink:href="#x" x="64.917" y="32.167"/><use xlink:href="#y" x="70.035" y="32.167"/><use xlink:href="#z" x="74.134" y="32.167"/></g></g><g clip-path="url(#A)"><g style="fill:#000;fill-opacity:1" clip-path="url(#B)"><use xlink:href="#C" x="77.717" y="32.167"/><use xlink:href="#D" x="83.092" y="32.167"/></g></g><g clip-path="url(#E)"><g clip-path="url(#F)"><use xlink:href="#G" x="89.75" y="32.167" style="fill:#000;fill-opacity:1"/></g></g><g clip-path="url(#H)"><g clip-path="url(#I)"><use xlink:href="#J" x="93.738" y="33.164" style="fill:#000;fill-opacity:1"/></g></g><g clip-path="url(#K)"><g clip-path="url(#L)"><use xlink:href="#D" x="98.077" y="32.167" style="fill:#000;fill-opacity:1"/></g></g><g clip-path="url(#M)"><g style="fill:#000;fill-opacity:1" clip-path="url(#N)"><use xlink:href="#O" x="104.735" y="32.167"/><use xlink:href="#D" x="110.287" y="32.167"/></g></g><g clip-path="url(#P)"><g clip-path="url(#Q)"><use xlink:href="#R" x="116.944" y="32.167" style="fill:#000;fill-opacity:1"/></g></g><g clip-path="url(#S)"><g clip-path="url(#T)"><use xlink:href="#U" x="121.863" y="32.167" style="fill:#000;fill-opacity:1"/></g></g><g clip-path="url(#V)"><g clip-path="url(#W)"><path style="fill:none;stroke-width:.79701;stroke-linecap:butt;stroke-linejoin:miter;stroke:#000;stroke-opacity:1;stroke-miterlimit:10" d="M-113.386 0h8.746" transform="matrix(1 0 0 -1 138.777 29.926)"/></g></g><g clip-path="url(#X)"><g clip-path="url(#Y)"><path style="stroke:none;fill-rule:nonzero;fill:#000;fill-opacity:1" d="m36.727 29.926-4.145-2.07 1.555 2.07L32.582 32"/></g></g><g clip-path="url(#Z)"><g clip-path="url(#aa)"><use xlink:href="#ab" x="38.722" y="28.719" style="fill:#000;fill-opacity:1"/></g></g><g clip-path="url(#ac)"><g clip-path="url(#ad)"><use xlink:href="#ae" x="38.726" y="28.719" style="fill:#000;fill-opacity:1"/></g></g><g clip-path="url(#af)"><g clip-path="url(#ag)"><path style="fill:none;stroke-width:.379;stroke-linecap:butt;stroke-linejoin:miter;stroke:#000;stroke-opacity:1;stroke-miterlimit:10" d="M-.001 0h4.8" transform="matrix(1 0 0 -1 40.931 29.286)"/></g></g><g clip-path="url(#ah)"><g clip-path="url(#ai)"><use xlink:href="#aj" x="40.931" y="34.472" style="fill:#000;fill-opacity:1"/></g></g><g clip-path="url(#ak)"><g clip-path="url(#al)"><path style="fill:none;stroke-width:.3985;stroke-linecap:butt;stroke-linejoin:miter;stroke:#000;stroke-opacity:1;stroke-miterlimit:10" d="M-124.726-8.949V8.949" transform="matrix(1 0 0 -1 138.777 29.926)"/></g></g><g clip-path="url(#am)"><g clip-path="url(#an)"><path style="stroke:none;fill-rule:nonzero;fill:#000;fill-opacity:1" d="m14.05 40.867 1.595-3.187-1.594 1.195-1.594-1.195"/></g></g><g clip-path="url(#ao)"><g clip-path="url(#ap)"><path style="fill:none;stroke-width:.3985;stroke-linecap:square;stroke-linejoin:miter;stroke:#000;stroke-opacity:1;stroke-miterlimit:10" d="M.1-2.59v5.18" transform="matrix(0 1 1 0 14.05 40.966)"/></g></g><g clip-path="url(#aq)"><g clip-path="url(#ar)"><path style="stroke:none;fill-rule:nonzero;fill:#000;fill-opacity:1" d="m14.05 18.984-1.593 3.188 1.594-1.195 1.594 1.195"/></g></g><g clip-path="url(#as)"><g clip-path="url(#at)"><path style="fill:none;stroke-width:.3985;stroke-linecap:square;stroke-linejoin:miter;stroke:#000;stroke-opacity:1;stroke-miterlimit:10" d="M.101-2.59v5.18" transform="matrix(0 -1 -1 0 14.05 18.886)"/></g></g><g clip-path="url(#au)"><g clip-path="url(#av)"><use xlink:href="#aw" x="4.205" y="32.99" style="fill:#000;fill-opacity:1"/></g></g></svg>