<svg xmlns="http://www.w3.org/2000/svg" xmlns:xlink="http://www.w3.org/1999/xlink" width="196.296" height="110.844" viewBox="0 0 147.222 83.133"><defs><symbol overflow="visible" id="b"><path style="stroke:none" d="M3.781-2.953c-.203.031-.39.11-.422.36-.046.218.079.421.344.468.235.031.453-.094.5-.36.11-.64-.625-.984-1.156-1.093l-.094-.016A2.041 2.041 0 0 0 .641-1.875C.453-.797 1.14.281 2.266.469 2.875.579 3.5.344 3.859-.234c.032-.063.094-.141.094-.203.016-.063-.047-.11-.11-.126-.155-.03-.187.204-.28.313-.297.36-.704.563-1.188.484-.969-.156-1.11-1.328-.984-2C1.5-2.5 1.953-3.5 2.937-3.328c.25.031.5.11.688.25.063.031.094.094.156.125Zm0 0"/></symbol><symbol overflow="visible" id="c"><path style="stroke:none" d="M2.797-3.61A2.104 2.104 0 0 0 .578-1.843C.438-.937.922.25 2.266.47c1.03.172 2.14-.485 2.328-1.625.172-1.063-.485-2.235-1.672-2.438-.047 0-.078-.015-.125-.015ZM1.312-1.53l.063-.36c.125-.718.5-1.656 1.531-1.484.688.125 1.047.75 1 1.469-.015.187-.031.375-.062.562-.078.453-.203.985-.594 1.313-.266.203-.61.312-.953.25-.64-.11-1.016-.672-1.031-1.407.03-.109.046-.218.046-.343Zm0 0"/></symbol><symbol overflow="visible" id="d"><path style="stroke:none" d="M.953-3.766.906-3.5l.078.016c.235.046.563.125.532.375 0 .125-.016.203-.032.312l-.296 1.75c-.047.281-.079.531.015.781.188.485.703.688 1.172.75.484.094 1.016-.125 1.25-.562l-.11.765 1.329.11L4.89.53 4.734.5c-.265-.047-.53-.125-.453-.516l.532-3.218-1.344-.11-.047.266.11.015c.28.047.546.126.484.547L3.719-.78c-.14.578-.61 1.156-1.281 1.047-.36-.063-.672-.188-.657-.657.016-.171.047-.328.063-.5l.468-2.75Zm0 0"/></symbol><symbol overflow="visible" id="e"><path style="stroke:none" d="M.906-3.766.86-3.5 1-3.484c.266.046.516.125.453.546L1.047-.483c-.063.343-.297.328-.734.25L.266.03.875.11l1.547.266.047-.25-.297-.047c-.313-.062-.547-.14-.485-.453l.25-1.5c.157-.625.47-1.516 1.375-1.36-.124.032-.203.172-.218.297a.393.393 0 0 0 .312.47c.235.046.422-.126.453-.345.063-.374-.265-.624-.578-.671-.547-.094-1.047.312-1.25.78l.156-.968Zm0 0"/></symbol><symbol overflow="visible" id="f"><path style="stroke:none" d="M1.656-3.25c.282-.188.657-.219.969-.172.313.063.563.281.703.578.125.266.078.531.031.828l-.03.157c-.735-.032-1.454-.157-2.157.203a1.202 1.202 0 0 0-.656.843c-.11.72.703 1.11 1.28 1.204a1.311 1.311 0 0 0 1.329-.532c.016.375.188.735.594.813.531.078.828-.328.922-.813l.062-.406-.25-.047-.078.453c-.047.25-.14.579-.406.532-.297-.047-.25-.438-.219-.641l.281-1.734c.157-.922-.562-1.516-1.36-1.641-.546-.094-1.405 0-1.53.703-.032.235.078.438.406.5a.41.41 0 0 0 .422-.344c.047-.25-.125-.406-.313-.484Zm1.64 1.61-.155.859C3.047-.156 2.53.28 1.906.172h-.062c-.39-.11-.672-.484-.61-.86.141-.843 1.235-1.078 2.063-.953Zm0 0"/></symbol><symbol overflow="visible" id="g"><path style="stroke:none" d="M.953-3.766.906-3.5l.14.031c.25.047.516.125.454.547L1.094-.469c-.063.344-.297.313-.735.235L.313.03l.625.094 1.39.234.047-.25-.203-.03C1.906.03 1.703-.048 1.766-.36l.265-1.594c.11-.672.625-1.39 1.453-1.25.485.078.563.531.47 1.078L3.608-.031c-.062.297-.312.297-.609.25L2.875.187l-.047.266.625.094 1.39.234.048-.25L4.719.5C4.453.453 4.203.375 4.266.062l.328-2c.047-.265.078-.515-.016-.78-.14-.47-.594-.641-1.031-.72-.531-.093-1.156.188-1.438.672l.141-.89Zm0 0"/></symbol><symbol overflow="visible" id="h"><path style="stroke:none" d="M2.25-5.234c-.11.64-.578 1.64-1.453 1.5l-.031.218.765.125-.39 2.344c-.047.281-.079.547.03.797.141.422.563.64.97.703l.078.016c.687-.016.922-.719 1.015-1.25l.047-.328-.234-.032L3-.75c-.063.39-.266 1.047-.797.953-.469-.078-.484-.64-.422-1.094l.407-2.39 1.28.219.048-.266-1.282-.219.266-1.64Zm0 0"/></symbol><symbol overflow="visible" id="i"><path style="stroke:none" d="m1.328-6.016-.047.282.157.03c.265.048.5.126.437.563l-.75 4.454c0 .062 0 .125-.016.203-.062.359-.328.328-.687.265L.359-.234.313.03l.625.094 1.39.234.047-.25-.203-.03C1.906.03 1.703-.048 1.766-.36l.265-1.594c.11-.672.625-1.39 1.453-1.25.485.078.563.531.47 1.078L3.608-.031c-.062.297-.312.297-.609.25L2.875.187l-.047.266.625.094 1.39.234.048-.25L4.719.5C4.453.453 4.203.375 4.266.062l.328-2c.047-.265.078-.53-.016-.78-.14-.438-.562-.641-.984-.72-.5-.078-1.156.126-1.438.626l.5-3.079Zm0 0"/></symbol><symbol overflow="visible" id="j"><path style="stroke:none" d="m1.36-1.86 2.624.438c.11.016.157-.031.172-.14.188-1.11-.406-1.891-1.328-2.047C1.75-3.781.75-2.97.578-1.891.391-.812 1.094.281 2.297.484c.625.094 1.344-.25 1.625-.828.031-.015.031-.062.031-.094.016-.062-.031-.109-.094-.124-.171-.032-.203.234-.328.343A1.33 1.33 0 0 1 2.36.234L2.297.22c-.469-.094-.813-.485-.938-.922-.125-.39-.062-.781 0-1.156Zm.046-.218c.094-.578.453-1.219 1.14-1.313a.446.446 0 0 1 .204 0c.766.125.922.97.797 1.672Zm0 0"/></symbol><symbol overflow="visible" id="k"><path style="stroke:none" d="M.953-3.766.906-3.5l.14.031c.25.047.516.125.454.547L1.094-.469c-.063.344-.297.313-.735.235L.313.03l.625.094 1.39.234.047-.25-.203-.03C1.906.03 1.703-.048 1.766-.36l.296-1.782c.157-.625.672-1.187 1.422-1.062.579.094.547.672.485 1.078L3.625-.031c-.063.297-.328.297-.625.25L2.875.187l-.047.266.625.094L4.86.78l.047-.25-.218-.047c-.25-.03-.485-.125-.422-.437l.296-1.781c.172-.61.688-1.188 1.454-1.047.562.094.53.672.468 1.078L6.141.39c-.063.296-.313.296-.61.25l-.14-.032-.047.266 2.015.344.047-.266L7.25.922C7 .875 6.734.797 6.797.484l.328-2c.047-.265.078-.53-.016-.78-.156-.47-.593-.657-1.03-.72-.532-.093-1.157.172-1.423.641h-.015c.015-.64-.5-.969-1.047-1.063-.563-.093-1.188.141-1.485.672l.141-.89Zm0 0"/></symbol><symbol overflow="visible" id="l"><path style="stroke:none" d="m1-3.75-.047.266.14.015c.282.047.485.14.423.547L1.109-.469c-.062.344-.312.313-.734.235L.328.03 2.234.36l.047-.265-.14-.032c-.235-.03-.454-.109-.407-.374l.563-3.344Zm1.094-2a.502.502 0 0 0-.5.406c-.032.25.14.5.406.532l.063.015c.25.016.468-.125.5-.375a.496.496 0 0 0-.407-.578Zm0 0"/></symbol><symbol overflow="visible" id="m"><path style="stroke:none" d="m3.531.047-.281 1.61c-.047.327-.234.327-.719.234l-.047.265.625.094 1.391.234.047-.25-.188-.03c-.28-.048-.5-.11-.437-.454l.828-4.984-.203-.032-.156.188-.329.547c-.062-.125-.109-.266-.171-.375a1.364 1.364 0 0 0-.938-.64C1.891-3.72.813-2.97.641-1.876.469-.844 1.094.281 2.219.469c.453.078 1-.078 1.312-.422ZM1.36-1.593l.016-.11c.125-.734.688-1.688 1.578-1.578h.031c.563.094.907.734.922 1.265L3.672-.625c-.125.719-1.094.906-1.375.86H2.25c-.625-.157-.875-.876-.89-1.454-.016-.125.015-.25 0-.375Zm0 0"/></symbol><symbol overflow="visible" id="p"><path style="stroke:none" d="M3.063 2.14c0-.046-.032-.078-.079-.14C1.828.937 1.47-.672 1.47-2.25c0-1.375.265-3.063 1.531-4.266.047-.046.063-.062.063-.109a.107.107 0 0 0-.11-.11c-.11 0-.922.657-1.406 1.626-.422.859-.64 1.796-.64 2.859 0 .64.077 1.672.577 2.719.532 1.11 1.36 1.765 1.47 1.765.062 0 .108-.03.108-.093Zm0 0"/></symbol><symbol overflow="visible" id="r"><path style="stroke:none" d="M2.672-2.25c0-.734-.11-1.719-.578-2.719C1.563-6.079.734-6.734.625-6.734c-.094 0-.11.078-.11.109 0 .047.016.063.079.125.531.469 1.515 1.688 1.515 4.25C2.11-.969 1.875.813.58 2.031c-.016.016-.063.063-.063.11 0 .015.015.093.109.093.11 0 .922-.64 1.406-1.625.422-.859.64-1.78.64-2.859Zm0 0"/></symbol><symbol overflow="visible" id="y"><path style="stroke:none" d="M3.484-1.078c0 .156 0 .187-.125.375a1.3 1.3 0 0 1-1.046.578c-.391 0-.75-.219-.985-.594-.234-.39-.25-.906-.25-1.203 0-.422.047-.89.281-1.25a1.262 1.262 0 0 1 1.047-.562c.375 0 .735.187.969.53.11.142.11.142.11.313Zm.032-2.36c-.047-.046-.454-.53-1.141-.53-1.11 0-2.063.89-2.063 2.046 0 1.11.891 2.016 1.954 2.016A1.59 1.59 0 0 0 3.484-.47v.563L4.844 0v-.281c-.61 0-.688-.063-.688-.5V-6.22l-1.328.094v.281c.61 0 .688.063.688.5Zm0 0"/></symbol><symbol overflow="visible" id="q"><path style="stroke:none" d="M5.86-6.078c.03-.094.03-.125.03-.14 0-.016 0-.11-.109-.11-.047 0-.047.016-.156.14-.125.141-.016.016-.438.5-.328-.5-.843-.64-1.328-.64-1.156 0-2.25 1.031-2.25 2.11 0 .374.125.671.36.921.25.281.484.328 1.125.5l.75.188c.297.093.594.375.594.89 0 .797-.766 1.64-1.672 1.64-.516 0-1.594-.155-1.594-1.312 0-.078 0-.218.062-.484.016-.031.016-.047.016-.063 0-.03-.016-.093-.125-.093-.11 0-.125.047-.156.187L.5.094c0 .062.031.11.094.11C.64.203.656.187.766.062c.062-.063.312-.391.421-.5.47.593 1.297.64 1.563.64 1.234 0 2.313-1.156 2.313-2.297 0-1.11-.875-1.328-1.157-1.39l-.812-.22c-.297-.077-.844-.218-.844-.89 0-.687.719-1.484 1.61-1.484.359 0 .718.11.968.36.344.327.344.812.344 1.046 0 .297-.031.39-.031.469 0 .062.03.11.125.11.093 0 .093-.016.14-.188Zm0 0"/></symbol><symbol overflow="visible" id="v"><path style="stroke:none" d="M3.266-2.844c.03-.14.03-.281.03-.281 0-.484-.358-.844-.858-.844-.938 0-1.485 1.281-1.485 1.39 0 .079.063.11.125.11.094 0 .11-.031.172-.203.297-.672.734-1.062 1.156-1.062.25 0 .281.187.281.421 0 .063 0 .204-.03.266l-.86 3.5C1.657 1 1.297 1.61.75 1.61c-.156 0-.313-.046-.375-.062a.51.51 0 0 0 .344-.469C.719.891.563.766.375.766a.494.494 0 0 0-.484.515c0 .422.5.563.875.563.671 0 1.453-.532 1.671-1.375Zm0 0"/></symbol><symbol overflow="visible" id="s"><path style="stroke:none" d="M4.094-2.25c0-1-.828-1.781-1.782-1.781A1.794 1.794 0 0 0 .516-2.25c0 1 .828 1.797 1.78 1.797A1.807 1.807 0 0 0 4.095-2.25Zm0 0"/></symbol><symbol overflow="visible" id="t"><path style="stroke:none" d="M6.047-2.047c.172 0 .344 0 .344-.203 0-.188-.188-.188-.344-.188H1.109c-.156 0-.343 0-.343.188 0 .203.171.203.343.203Zm0 0"/></symbol><symbol overflow="visible" id="u"><path style="stroke:none" d="M7.625-2.047c-1.063.75-1.281 1.938-1.281 2.031 0 .125.125.125.187.125.11 0 .172 0 .203-.125.25-1.046.86-1.75 1.844-2.109.047-.016.125-.047.125-.125s-.062-.094-.125-.125c-1.125-.422-1.64-1.219-1.844-2.094-.03-.125-.062-.125-.203-.125-.078 0-.187 0-.187.125 0 .094.218 1.282 1.281 2.032H.844c-.156 0-.328 0-.328.187 0 .203.171.203.328.203Zm0 0"/></symbol><symbol overflow="visible" id="w"><path style="stroke:none" d="M1.078-3.688c0 .485-.266 1.157-.86 1.157v.187h.579v1.5c0 .203.015.39.125.563.156.25.469.328.75.328.437 0 .734-.344.734-.86v-.28h-.234c0 .093.015.171.015.25 0 .265-.093.687-.453.687-.359 0-.437-.36-.437-.64v-1.548h.984v-.234h-.984v-1.11Zm0 0"/></symbol><symbol overflow="visible" id="x"><path style="stroke:none" d="M.375-4.094v.235h.094c.172 0 .375 0 .375.312v3.078c0 .203-.156.219-.328.219H.375V0l.344-.031h1.094V-.25h-.141c-.172 0-.328-.016-.328-.203v-1.078c0-.547.437-.907.937-.907h.016c.453 0 .484.376.484.657V-.47c0 .203-.172.219-.344.219h-.14V0l.36-.031H3.75V-.25h-.14c-.157 0-.329-.016-.329-.203V-1.75c0-.234-.031-.453-.187-.656-.203-.188-.485-.235-.735-.235-.39 0-.828.157-1.03.532v-2.047Zm0 0"/></symbol><clipPath id="a"><path d="M0 0h147.223v49H0Zm0 0"/></clipPath><clipPath id="n"><path d="M0 15h147.223v68.133H0Zm0 0"/></clipPath><clipPath id="o"><path d="M0 3h147.223v69H0Zm0 0"/></clipPath></defs><g clip-path="url(#a)"><path style="fill:none;stroke-width:1.19553;stroke-linecap:butt;stroke-linejoin:miter;stroke:#00adef;stroke-opacity:1;stroke-miterlimit:10" d="M0 11.338 132.92-10.815" transform="matrix(1 0 0 -1 5.579 20.861)"/></g><path style="stroke:none;fill-rule:nonzero;fill:#00adef;fill-opacity:1" d="m141.645 32.2-4.614-3.356 1.469 2.832-2.305 2.199M61.5 18.84l-4.613-3.352 1.468 2.828-2.308 2.204"/><g style="fill:#000;fill-opacity:1"><use xlink:href="#b" x="37.599" y="11.072"/><use xlink:href="#c" x="41.638" y="11.745"/><use xlink:href="#d" x="46.182" y="12.502"/><use xlink:href="#e" x="51.23" y="13.344"/><use xlink:href="#f" x="54.785" y="13.936"/><use xlink:href="#g" x="59.329" y="14.693"/></g><use xlink:href="#h" x="64.12" y="15.492" style="fill:#000;fill-opacity:1"/><g style="fill:#000;fill-opacity:1"><use xlink:href="#h" x="70.688" y="16.586"/><use xlink:href="#i" x="74.222" y="17.175"/><use xlink:href="#j" x="79.27" y="18.017"/><use xlink:href="#e" x="83.312" y="18.69"/><use xlink:href="#k" x="86.867" y="19.283"/><use xlink:href="#l" x="94.44" y="20.545"/><use xlink:href="#m" x="96.964" y="20.966"/><use xlink:href="#d" x="101.76" y="21.765"/><use xlink:href="#j" x="106.808" y="22.606"/></g><g clip-path="url(#n)"><path style="fill:none;stroke-width:1.19553;stroke-linecap:butt;stroke-linejoin:miter;stroke:#00adef;stroke-opacity:1;stroke-miterlimit:10" d="m0-11.338 133.042-44.348" transform="matrix(1 0 0 -1 5.579 20.861)"/></g><path style="stroke:none;fill-rule:nonzero;fill:#00adef;fill-opacity:1" d="m141.645 77.555-4.032-4.032 1.008 3.024L136 78.359M59.36 50.125l-4.032-4.031 1.008 3.023-2.621 1.817"/><g clip-path="url(#o)"><path style="fill:none;stroke-width:1.19553;stroke-linecap:butt;stroke-linejoin:miter;stroke:#00adef;stroke-opacity:1;stroke-dasharray:2.98883,2.98883;stroke-miterlimit:10" d="m0 .002 132.972-33.246" transform="matrix(1 0 0 -1 5.579 20.861)"/></g><path style="stroke:none;fill-rule:nonzero;fill:#00adef;fill-opacity:1" d="m141.645 54.879-4.333-3.715 1.239 2.941-2.473 2.008M60.578 34.61l-4.328-3.712 1.238 2.938-2.476 2.012"/><path style="stroke:none;fill-rule:nonzero;fill:#bfbfbf;fill-opacity:1" d="M92.535 35.895c-3.988-9.872-11.93-15.973-17.734-13.625-5.805 2.343-7.281 12.246-3.293 22.117 3.988 9.87 11.93 15.972 17.734 13.625 5.809-2.344 7.281-12.246 3.293-22.117Zm0 0"/><use xlink:href="#p" x="76.028" y="68.575" style="fill:#000;fill-opacity:1"/><use xlink:href="#q" x="79.612" y="68.575" style="fill:#000;fill-opacity:1"/><use xlink:href="#r" x="85.751" y="68.575" style="fill:#000;fill-opacity:1"/><path style="fill:none;stroke-width:.79701;stroke-linecap:butt;stroke-linejoin:miter;stroke:#000;stroke-opacity:1;stroke-miterlimit:10" d="m77.105-19.276 20.164-5.043" transform="matrix(1 0 0 -1 5.579 20.861)"/><path style="stroke:none;fill-rule:nonzero;fill:#000;fill-opacity:1" d="m105.36 45.805-3.516-3.016 1.004 2.39-2.012 1.633"/><use xlink:href="#s" x="80.378" y="42.153" style="fill:#000;fill-opacity:1"/><use xlink:href="#t" x="99.896" y="51.137" style="fill:#000;fill-opacity:1"/><use xlink:href="#u" x="101.603" y="51.137" style="fill:#000;fill-opacity:1"/><use xlink:href="#v" x="99.896" y="54.997" style="fill:#000;fill-opacity:1"/><g style="fill:#000;fill-opacity:1"><use xlink:href="#w" x="103.407" y="56.059"/><use xlink:href="#x" x="106.285" y="56.059"/></g><path style="fill:none;stroke-width:.79701;stroke-linecap:butt;stroke-linejoin:miter;stroke:#000;stroke-opacity:1;stroke-miterlimit:10" d="m77.105-19.276 20.164 5.04" transform="matrix(1 0 0 -1 5.579 20.861)"/><path style="stroke:none;fill-rule:nonzero;fill:#000;fill-opacity:1" d="m105.36 34.469-4.524-1.008 2.012 1.637-1.004 2.386"/><use xlink:href="#s" x="80.378" y="42.153" style="fill:#000;fill-opacity:1"/><use xlink:href="#t" x="107.351" y="33.023" style="fill:#000;fill-opacity:1"/><use xlink:href="#u" x="109.399" y="33.023" style="fill:#000;fill-opacity:1"/><use xlink:href="#y" x="107.351" y="39.25" style="fill:#000;fill-opacity:1"/><use xlink:href="#q" x="112.471" y="39.25" style="fill:#000;fill-opacity:1"/></svg>