<svg xmlns="http://www.w3.org/2000/svg" xmlns:xlink="http://www.w3.org/1999/xlink" width="449.501" height="90.836" viewBox="0 0 337.126 68.127"><defs><symbol overflow="visible" id="b"><path style="stroke:none" d="M5.422-5.547c-.25-.422-.984-.75-1.578-.781H3.75C1.969-6.328.516-4.86.516-3.078v.156c.109 1.75 1.5 3.11 3.203 3.11 1.234 0 2.422-.985 2.422-2.282v-.078c-.016-.062-.079-.094-.141-.094-.078 0-.11.063-.11.141v.063c-.093.921-.75 1.968-2.062 1.968-.703 0-1.406-.36-1.844-.922-.437-.578-.562-1.421-.562-2.109 0-.89.234-1.766.906-2.375.39-.344.938-.547 1.469-.547 1.156 0 1.86 1 2.031 2 .016.125 0 .281.156.281.125 0 .157-.062.157-.14v-2.219c0-.094 0-.203-.11-.203-.156 0-.406.531-.61.781Zm0 0"/></symbol><symbol overflow="visible" id="c"><path style="stroke:none" d="M1.094-3.484c.25-.22.61-.313.937-.313.313 0 .594.172.781.438.172.25.172.53.172.828v.156c-.734.078-1.468.078-2.093.547-.297.219-.516.578-.516.937 0 .735.875.985 1.469.985.547 0 .968-.281 1.218-.75.079.375.297.703.704.703.546 0 .78-.453.78-.953v-.406h-.25v.453c0 .25-.046.593-.327.593-.297 0-.313-.39-.313-.593v-1.75c0-.938-.812-1.407-1.61-1.407-.562 0-1.39.235-1.39.938 0 .25.14.437.469.437.219-.015.36-.218.36-.421 0-.25-.188-.376-.391-.422Zm1.89 1.328v.875c0 .625-.437 1.14-1.062 1.14h-.063c-.421-.03-.75-.359-.75-.75 0-.859 1.032-1.265 1.875-1.265Zm0 0"/></symbol><symbol overflow="visible" id="d"><path style="stroke:none" d="M.328-6.14v.28h.11c.312 0 .578.016.578.47v4.718c0 .375-.25.39-.641.39H.328v.266h2.016V-.28h-.235c-.234 0-.453-.047-.453-.36v-5.593Zm0 0"/></symbol><symbol overflow="visible" id="e"><path style="stroke:none" d="M2.172-4.016c-1.047.11-1.906.954-1.906 2.094C.266-1 .953.094 2.312.094c1.047 0 2.032-.844 2.032-2 0-1.078-.844-2.125-2.047-2.125-.047 0-.078.015-.125.015ZM1.047-1.719v-.375c0-.719.219-1.703 1.266-1.703.703 0 1.156.563 1.234 1.281.015.188.015.375.015.563 0 .469-.03 1-.359 1.375a1.19 1.19 0 0 1-.906.422c-.656 0-1.11-.5-1.235-1.219 0-.11 0-.219-.015-.344Zm0 0"/></symbol><symbol overflow="visible" id="f"><path style="stroke:none" d="M.266-3.86v.266h.14c.281 0 .547.031.547.453v2.485c0 .36-.234.375-.687.375v.265L.89-.03h1.562v-.25h-.297c-.312 0-.562-.047-.562-.375v-1.516c.062-.625.234-1.562 1.14-1.562-.125.062-.171.203-.171.328a.39.39 0 1 0 .78 0c0-.375-.359-.563-.687-.563-.547 0-.984.469-1.11.969v-.969Zm0 0"/></symbol><symbol overflow="visible" id="g"><path style="stroke:none" d="M.36-3.86v.266H.5c.297 0 .516.047.516.453v2.485c0 .36-.25.375-.688.375v.265h1.938V-.28h-.141c-.234 0-.469-.031-.469-.313v-3.375Zm.765-2.156c-.234.047-.422.235-.422.485s.219.468.485.468h.062a.474.474 0 0 0 .422-.468.477.477 0 0 0-.484-.485Zm0 0"/></symbol><symbol overflow="visible" id="h"><path style="stroke:none" d="M.313-3.86v.266h.14c.266 0 .547.031.547.453v2.485c0 .36-.234.375-.688.375v.265L.954-.03H2.36v-.25h-.203c-.265 0-.484-.047-.484-.375v-1.797c.047-.64.484-1.281 1.25-1.281.578 0 .64.578.64 1v2.109c0 .313-.265.344-.562.344h-.125v.265L3.5-.03h1.422v-.25h-.219c-.25 0-.484-.047-.484-.375v-1.797c.062-.64.484-1.281 1.265-1.281.563 0 .625.578.625 1v2.109c0 .313-.25.344-.546.344h-.141v.265h2.047V-.28h-.172c-.25 0-.516-.031-.516-.36v-2.015c0-.281-.015-.547-.14-.781-.235-.422-.704-.532-1.141-.532-.547 0-1.11.36-1.297.86h-.016c-.078-.625-.656-.86-1.203-.86-.578 0-1.14.328-1.359.89l-.016-.89Zm0 0"/></symbol><symbol overflow="visible" id="i"><path style="stroke:none" d="M1.031-2.063h2.657c.109 0 .156-.046.156-.156 0-1.125-.703-1.797-1.64-1.797-1.095 0-1.954.954-1.954 2.047C.25-.875 1.125.094 2.344.094c.64 0 1.281-.453 1.469-1.078.015-.016.015-.063.015-.094a.107.107 0 0 0-.11-.11c-.171 0-.171.266-.265.391-.219.375-.656.64-1.094.64h-.062C1.828-.171 1.422-.5 1.219-.921c-.172-.36-.188-.75-.188-1.14Zm.016-.218c0-.594.25-1.281.906-1.485a.914.914 0 0 1 .203-.03c.781 0 1.063.796 1.063 1.515Zm.672-3.5c-.172.015-.297.187-.297.343 0 .235.281.329.453.438.25.125.5.266.75.406l.266.14c.03.016.046.048.093.048H3c.016-.016.125-.125.125-.172 0-.094-.266-.297-.375-.39-.297-.282-.719-.829-.969-.829-.015 0-.047.016-.062.016Zm0 0"/></symbol><symbol overflow="visible" id="j"><path style="stroke:none" d="M1.36-5.531c0 .656-.298 1.718-1.188 1.718v.22h.781v2.374c0 .282.016.547.156.782.22.39.672.53 1.079.53h.078c.687-.124.796-.859.796-1.39v-.328h-.25c0 .125.016.25.016.39 0 .391-.094 1.079-.625 1.079-.484 0-.594-.563-.594-1.016v-2.422h1.313v-.265H1.609v-1.672Zm0 0"/></symbol><symbol overflow="visible" id="k"><path style="stroke:none" d="M1.031-2.063h2.657c.109 0 .156-.046.156-.156 0-1.125-.703-1.797-1.64-1.797-1.095 0-1.954.954-1.954 2.047C.25-.875 1.125.094 2.344.094c.64 0 1.281-.453 1.469-1.078.015-.016.015-.063.015-.094a.107.107 0 0 0-.11-.11c-.171 0-.171.266-.265.391-.219.375-.656.64-1.094.64h-.062C1.828-.171 1.422-.5 1.219-.921c-.172-.36-.188-.75-.188-1.14Zm.016-.218c0-.594.25-1.281.906-1.485a.914.914 0 0 1 .203-.03c.781 0 1.063.796 1.063 1.515Zm0 0"/></symbol><symbol overflow="visible" id="r"><path style="stroke:none" d="M.344-6.11v.282h.344c.296 0 .562.031.562.39v4.75c0 .36-.297.407-.594.407H.344v.265h5.265L6-2.328h-.25c-.094.562-.188 1.203-.563 1.61-.406.421-1.046.437-1.593.437h-1.14c-.188 0-.392 0-.392-.328v-2.438h.86c.312 0 .672.031.828.297.125.188.14.438.14.672v.094h.25v-2.391h-.25v.094c0 .5-.124.906-.687.937-.156.031-.344.031-.515.031h-.626v-2.203c0-.312.188-.312.391-.312h1.172c.625 0 1.328.031 1.656.719.14.328.172.671.219 1.015h.25L5.5-6.109Zm0 0"/></symbol><symbol overflow="visible" id="s"><path style="stroke:none" d="M.313-3.86v.266H.39c.25 0 .593.031.593.281.016.11.016.188.016.297v1.782c0 .28.016.53.14.78.266.438.813.548 1.282.548.5 0 .984-.297 1.14-.766l.016.766 1.328-.11V-.28H4.75c-.266 0-.531-.031-.531-.438v-3.25l-1.36.11v.265h.125c.282 0 .563.031.563.453v1.766C3.5-.797 3.14-.141 2.453-.141c-.36 0-.687-.078-.765-.546-.016-.172-.016-.329-.016-.5V-3.97Zm0 0"/></symbol><symbol overflow="visible" id="v"><path style="stroke:none" d="M5.484-.578c.11.234.438.562.563.562.078 0 .094-.078.094-.14v-1.516c0-.047-.016-.11-.016-.172 0-.328.266-.343.594-.343h.047v-.282l-.641.031H4.172v.25c.156 0 .312-.015.469-.015.375 0 .703.062.703.453 0 .078-.016.156-.016.219 0 .093.016.187.016.297 0 .515-.36 1.14-1.485 1.14-.843 0-1.64-.469-2.046-1.218-.297-.547-.391-1.188-.391-1.797 0-.625.11-1.282.437-1.829.407-.656 1.157-1.109 1.938-1.109 1.094 0 1.828.953 2.031 2.016.016.11.016.265.156.265.125 0 .157-.062.157-.14v-2.219c0-.094 0-.203-.11-.203-.156 0-.406.531-.61.781-.359-.531-1.124-.781-1.75-.781-1.718 0-3.155 1.516-3.155 3.25C.516-1.422 1.796.187 3.75.187c.688 0 1.281-.187 1.734-.765Zm0 0"/></symbol><symbol overflow="visible" id="w"><path style="stroke:none" d="M3.25-3.531c-.188.062-.36.172-.36.422 0 .218.157.406.422.406.235 0 .422-.172.422-.438 0-.64-.765-.859-1.312-.875h-.094A2.04 2.04 0 0 0 .313-1.953c0 1.094.859 2.047 2 2.047.624 0 1.203-.328 1.453-.969.015-.063.062-.14.062-.203s-.062-.11-.125-.11c-.156 0-.156.235-.234.36-.219.406-.61.672-1.094.672-.984 0-1.297-1.125-1.297-1.813 0-.734.266-1.797 1.266-1.797.25 0 .515.032.734.141.063.016.11.063.172.094Zm0 0"/></symbol><symbol overflow="visible" id="x"><path style="stroke:none" d="M2.906-6.734c-.125.046-.281.218-.39.328C1.39-5.313.906-3.796.906-2.25c0 1.656.563 3.344 1.906 4.422.047.031.094.078.141.078.063 0 .11-.047.11-.11 0-.109-.25-.296-.344-.39-.953-1.11-1.25-2.578-1.25-4.016 0-1.5.343-3.078 1.453-4.187.047-.047.14-.11.14-.188 0-.046-.046-.093-.109-.093h-.047Zm0 0"/></symbol><symbol overflow="visible" id="A"><path style="stroke:none" d="M.578-6.734c-.047.03-.062.062-.062.093 0 .11.218.266.296.36C1.797-5.188 2.11-3.656 2.11-2.22 2.11-.75 1.766.86.672 1.953c-.047.047-.156.11-.156.188 0 .046.062.109.125.109.109-.031.296-.219.421-.328 1.11-1.047 1.61-2.61 1.61-4.125 0-1.64-.531-3.406-1.906-4.453-.047-.032-.094-.078-.141-.078H.578Zm0 0"/></symbol><symbol overflow="visible" id="F"><path style="stroke:none" d="M2.828-6.14v.28h.094c.36 0 .594.016.594.548v1.875a1.532 1.532 0 0 0-1.172-.532c-1.11 0-2.031.938-2.031 2.047C.313-.906 1.14.094 2.266.094c.421 0 .984-.203 1.218-.578v.578l1.36-.11V-.28h-.14c-.298 0-.548-.031-.548-.453v-5.5Zm-1.75 4.406v-.125c0-.72.188-1.875 1.313-1.875.468 0 1.109.343 1.109.906 0 .11-.016.219-.016.328v1.484c0 .11-.046.188-.109.282-.234.343-.64.593-1.063.593a1.14 1.14 0 0 1-.89-.453c-.25-.328-.297-.734-.344-1.14Zm0 0"/></symbol><symbol overflow="visible" id="G"><path style="stroke:none" d="M.266-6.14v.28h.14c.297 0 .547.032.547.454v5.39l.25-.015.344-.531c.312.453.75.656 1.234.656 1.125 0 2.031-.953 2.031-2.047 0-.953-.765-2.016-1.937-2.016-.484 0-.89.172-1.281.563v-2.828Zm3.75 4.406c-.032.421-.079.796-.344 1.109a1.252 1.252 0 0 1-.969.484c-.375 0-.75-.218-.953-.546a.457.457 0 0 1-.125-.297v-2c.063-.391.703-.75 1.172-.75 1.047 0 1.234 1.14 1.234 1.812 0 .063 0 .125-.015.188Zm0 0"/></symbol><symbol overflow="visible" id="H"><path style="stroke:none" d="M3.484-.531v1.625c0 .328-.187.36-.687.36v.28l.64-.03h1.407v-.25h-.188c-.281 0-.5-.032-.5-.376v-5.047l-.218.016-.11.203-.234.578c-.094-.11-.156-.234-.235-.328a1.316 1.316 0 0 0-1.03-.469c-1.079 0-2.017.906-2.017 2.016 0 1.047.813 2.047 1.954 2.047.453 0 .984-.235 1.218-.625ZM1.078-1.797v-.11c0-.734.39-1.765 1.297-1.812h.031c.578 0 1.016.563 1.11 1.094v1.406c0 .735-.922 1.078-1.204 1.078h-.046C1.609-.188 1.25-.859 1.14-1.42c-.032-.126-.032-.25-.063-.376Zm0 0"/></symbol><symbol overflow="visible" id="I"><path style="stroke:none" d="M.313-3.86v.266h.14c.266 0 .547.031.547.453v2.485c0 .36-.234.375-.688.375v.265L.954-.03H2.36v-.25h-.203c-.265 0-.484-.047-.484-.375v-1.61c0-.687.406-1.468 1.25-1.468.484 0 .625.437.625 1v2.109c0 .313-.25.344-.547.344h-.14v.265L3.5-.03h1.406v-.25h-.172c-.265 0-.515-.031-.515-.36v-2.015c0-.281-.016-.531-.14-.781-.235-.422-.704-.532-1.141-.532-.547 0-1.11.375-1.313.89l-.016-.89Zm0 0"/></symbol><symbol overflow="visible" id="l"><path style="stroke:none" d="M3.063 2.14c0-.046-.032-.078-.079-.14C1.828.937 1.47-.672 1.47-2.25c0-1.375.265-3.063 1.531-4.266.047-.046.063-.062.063-.109a.107.107 0 0 0-.11-.11c-.11 0-.922.657-1.406 1.626-.422.859-.64 1.796-.64 2.859 0 .64.077 1.672.577 2.719.532 1.11 1.36 1.765 1.47 1.765.062 0 .108-.03.108-.093Zm0 0"/></symbol><symbol overflow="visible" id="q"><path style="stroke:none" d="M2.672-2.25c0-.734-.11-1.719-.578-2.719C1.563-6.079.734-6.734.625-6.734c-.094 0-.11.078-.11.109 0 .047.016.063.079.125.531.469 1.515 1.688 1.515 4.25C2.11-.969 1.875.813.58 2.031c-.016.016-.063.063-.063.11 0 .015.015.093.109.093.11 0 .922-.64 1.406-1.625.422-.859.64-1.78.64-2.859Zm0 0"/></symbol><symbol overflow="visible" id="E"><path style="stroke:none" d="M6.328-2.047c.125 0 .313 0 .313-.203 0-.188-.172-.188-.313-.188H3.781V-5c0-.14 0-.313-.203-.313-.187 0-.187.188-.187.313v2.563H.828c-.125 0-.312 0-.312.187 0 .203.171.203.312.203h2.563V.516c0 .14 0 .312.203.312.187 0 .187-.187.187-.312v-2.563Zm0 0"/></symbol><symbol overflow="visible" id="m"><path style="stroke:none" d="M.406 1.125c-.062.25-.078.344-.453.344-.11 0-.219 0-.219.156 0 .031.032.11.125.11l.375-.016H1.078c.156 0 .297.015.438.015.046 0 .171 0 .171-.156 0-.11-.093-.11-.25-.11-.421 0-.421-.062-.421-.155a2.9 2.9 0 0 1 .109-.438l.328-1.328c.094.187.344.547.86.547C3.359.094 4.5-1.172 4.5-2.516c0-.906-.563-1.453-1.234-1.453-.188 0-.641.047-1.188.656-.125-.5-.547-.656-.844-.656-.375 0-.578.281-.703.531-.14.313-.265.813-.265.86 0 .078.062.11.125.11.093 0 .109-.048.156-.235.172-.703.36-1.031.656-1.031.281 0 .281.28.281.421 0 .063-.015.204-.03.266Zm1.625-3.89c.047-.172.047-.188.172-.329.235-.312.64-.64 1.047-.64.422 0 .594.421.594.843 0 .391-.25 1.516-.531 1.985-.313.515-.688.781-1.016.781-.578 0-.735-.703-.735-.766 0-.062.032-.109.032-.156Zm0 0"/></symbol><symbol overflow="visible" id="n"><path style="stroke:none" d="M1.625-.14c0 .296 0 1.03-.656 1.671-.047.047-.047.063-.047.094 0 .063.062.11.11.11.093 0 .827-.704.827-1.75 0-.563-.203-.954-.578-.954a.467.467 0 0 0-.484.485c0 .25.172.484.484.484a.46.46 0 0 0 .344-.14Zm0 0"/></symbol><symbol overflow="visible" id="o"><path style="stroke:none" d="M3.938-5.469c.046-.187.078-.281.218-.312.078-.016.36-.016.547-.016 1.031 0 1.344.063 1.344.766 0 .11 0 .25-.078.781l-.016.078c0 .063.031.125.125.125.11 0 .125-.094.14-.219l.235-1.562c.016-.031.016-.094.016-.125 0-.125-.078-.125-.25-.125h-5.11c-.218 0-.218.016-.28.187L.265-4.312c-.032.109-.032.14-.032.14 0 .047.032.125.11.125.11 0 .125-.062.172-.219.5-1.406.78-1.53 2.078-1.53h.344c.25 0 .25.03.25.109 0 .046-.016.109-.032.187L1.953-.703c-.078.312-.11.422-1.062.422-.282 0-.36 0-.36.172C.531 0 .641 0 .687 0c.235 0 .485-.016.735-.016s.5-.015.75-.015c.406 0 .422 0 .75.015.125 0 .703.016.781.016.078 0 .188 0 .188-.156 0-.125-.079-.125-.297-.125-.235 0-.344 0-.578-.016-.204-.031-.313-.031-.313-.187 0-.047.016-.11.031-.172Zm0 0"/></symbol><symbol overflow="visible" id="t"><path style="stroke:none" d="M1.688-1.406c.109-.422.28-1.078.28-1.157.016-.046.25-.484.563-.796.266-.235.61-.375.953-.375.485 0 .485.468.485.625 0 .109 0 .234-.11.671l-.203.797c-.281 1.157-.36 1.438-.36 1.485 0 .11.079.25.282.25a.402.402 0 0 0 .328-.188c.016-.047.094-.344.14-.515l.204-.797c.094-.422.266-1.078.281-1.157.016-.046.235-.484.563-.796.265-.235.593-.375.953-.375.484 0 .484.468.484.625 0 .546-.422 1.64-.515 1.921-.11.266-.157.36-.157.532 0 .484.375.75.782.75.859 0 1.203-1.282 1.203-1.375 0-.047-.016-.11-.11-.11-.109 0-.109.047-.14.157-.235.765-.61 1.109-.938 1.109-.062 0-.218 0-.218-.281 0-.235.093-.469.156-.656.187-.47.547-1.407.547-1.922 0-.797-.594-.985-1.063-.985-.86 0-1.328.64-1.484.86-.094-.735-.703-.86-1.078-.86-.829 0-1.266.594-1.422.781a.84.84 0 0 0-.86-.78c-.375 0-.578.28-.703.53-.14.313-.265.813-.265.86 0 .078.062.11.125.11.093 0 .109-.048.156-.235.172-.703.36-1.031.656-1.031.281 0 .281.28.281.421 0 .188-.078.454-.125.688-.062.234-.156.625-.187.734L.812-.42C.75-.204.75-.189.75-.157c0 .11.078.25.266.25a.402.402 0 0 0 .328-.188c.031-.047.093-.344.14-.515Zm0 0"/></symbol><symbol overflow="visible" id="p"><path style="stroke:none" d="M2.14-3.797c0-.187-.015-.187-.203-.187-.39.39-1 .39-1.218.39v.235c.156 0 .562 0 .922-.172v3.015c0 .204 0 .282-.625.282h-.25V0c.328-.031.796-.031 1.125-.031.328 0 .796 0 1.125.031v-.234h-.25c-.625 0-.625-.078-.625-.282Zm0 0"/></symbol><symbol overflow="visible" id="z"><path style="stroke:none" d="M3.219-1.125H3c-.016.094-.078.484-.156.547-.047.047-.531.047-.625.047h-1.11l.766-.625c.203-.172.734-.547.922-.735.172-.171.422-.484.422-.906 0-.75-.672-1.187-1.485-1.187-.765 0-1.296.515-1.296 1.078 0 .297.25.344.312.344a.32.32 0 0 0 .328-.329c0-.125-.078-.328-.344-.328.141-.297.5-.531.922-.531.625 0 .953.469.953.953 0 .422-.28.86-.687 1.25L.5-.25C.437-.187.437-.187.437 0h2.594Zm0 0"/></symbol><symbol overflow="visible" id="u"><path style="stroke:none" d="M.766-1.063c-.032.016-.391.344-.438.391-.125.094-.125.094-.125.14 0 .016.047.11.11.11.03 0 .046 0 .124-.078l.36-.313c.078.36.281.891.828.891.516 0 1.063-.515 1.063-.515.015-.016.03-.016.03-.063s-.062-.125-.109-.125c-.03 0-.046.016-.093.063-.297.234-.594.437-.875.437-.454 0-.454-.734-.454-.844 0-.172 0-.187.063-.25.36-.312.703-.672.984-1.078.5-.672.547-1.187.547-1.375 0-.219-.078-.547-.422-.547-.765 0-1.593 1.813-1.593 2.969v.188Zm.468-.437c.032-.172.235-1.172.516-1.797.094-.187.328-.719.61-.719.187 0 .203.204.203.329 0 .703-.626 1.546-1.329 2.187Zm0 0"/></symbol><symbol overflow="visible" id="y"><path style="stroke:none" d="M.703-.203H.72c.203.203.515.25.781.25.484 0 1.094-.172 1.094-.828 0-.703-.797-.797-1.297-.89-.25-.032-.64-.126-.64-.407 0-.36.546-.406.765-.406.344 0 .687.093.766.484.015.094 0 .203.124.203.094 0 .11-.047.11-.11v-.64c0-.062-.016-.125-.078-.125-.094 0-.203.11-.25.172-.203-.14-.438-.172-.656-.172-.454 0-1.125.125-1.125.75 0 .516.562.672.937.734l.203.032c.234.031.813.11.813.515 0 .422-.532.5-.782.5-.39 0-.796-.172-.921-.734C.53-.953.53-1 .421-1c-.094 0-.11.047-.11.11V-.079c0 .078.032.125.094.125.047 0 .11-.047.156-.094l.032-.031c.047-.047.078-.078.11-.125Zm0 0"/></symbol><symbol overflow="visible" id="C"><path style="stroke:none" d="M.844-1.36h2.031c.094 0 .11-.077.11-.124 0-.641-.422-1.188-1.235-1.188-.719 0-1.469.516-1.469 1.36C.281-.5 1.047.046 1.812.046c.47 0 1-.203 1.157-.703.015-.016.015-.047.015-.078 0-.063-.062-.079-.109-.079-.11 0-.156.204-.234.297a1.005 1.005 0 0 1-.72.36H1.86a1.02 1.02 0 0 1-.89-.531 1.608 1.608 0 0 1-.125-.672Zm.015-.187c.032-.484.375-.922.891-.922.531 0 .781.453.797.922Zm0 0"/></symbol><symbol overflow="visible" id="D"><path style="stroke:none" d="M2.719-.36V.688c0 .172-.063.235-.469.235v.234h1.438V.922h-.141c-.172 0-.328-.031-.328-.235V-2.64l-.188.016-.078.125-.156.375H2.78c-.172-.344-.594-.516-.953-.516-.734 0-1.453.516-1.5 1.282v.046c0 .782.688 1.36 1.469 1.36.344 0 .687-.14.922-.406ZM.89-1.202v-.094c0-.547.406-1.094.968-1.125h.032c.328 0 .625.203.765.485.031.078.078.156.078.234v.828c0 .344-.406.625-.687.703-.078.016-.14.031-.219.031h-.047C1.234-.188.938-.719.891-1.203Zm0 0"/></symbol><clipPath id="a"><path d="M0 0h134v68.129H0Zm0 0"/></clipPath><clipPath id="B"><path d="M191 7h146.125v54H191Zm0 0"/></clipPath></defs><path style="stroke:none;fill-rule:nonzero;fill:#bfbfbf;fill-opacity:1" d="M127.508 34.063c0-15.95-27.383-28.883-61.164-28.883C32.563 5.18 5.18 18.113 5.18 34.063c0 15.953 27.383 28.882 61.164 28.882 33.781 0 61.164-12.93 61.164-28.883Zm0 0"/><g clip-path="url(#a)"><path style="fill:none;stroke-width:.3985;stroke-linecap:butt;stroke-linejoin:miter;stroke:#000;stroke-opacity:1;stroke-dasharray:2.98883,2.98883;stroke-miterlimit:10" d="M61.164.002C61.164 15.95 33.78 28.884 0 28.884c-33.782 0-61.164-12.933-61.164-28.883C-61.164-15.951-33.781-28.88 0-28.88c33.781 0 61.164 12.93 61.164 28.883Zm0 0" transform="matrix(1 0 0 -1 66.344 34.064)"/></g><g style="fill:#fff;fill-opacity:1"><use xlink:href="#b" x="28.076" y="25.347"/><use xlink:href="#c" x="34.73" y="25.347"/><use xlink:href="#d" x="39.337" y="25.347"/><use xlink:href="#e" x="41.896" y="25.347"/><use xlink:href="#f" x="46.503" y="25.347"/><use xlink:href="#g" x="50.106" y="25.347"/><use xlink:href="#h" x="52.665" y="25.347"/><use xlink:href="#i" x="60.343" y="25.347"/><use xlink:href="#j" x="64.442" y="25.347"/><use xlink:href="#f" x="68.025" y="25.347"/><use xlink:href="#k" x="71.628" y="25.347"/></g><use xlink:href="#l" x="78.797" y="25.347" style="fill:#fff;fill-opacity:1"/><g style="fill:#fff;fill-opacity:1"><use xlink:href="#m" x="82.381" y="25.347"/><use xlink:href="#n" x="87.007" y="25.347"/></g><use xlink:href="#o" x="91.1" y="25.347" style="fill:#fff;fill-opacity:1"/><use xlink:href="#p" x="96.478" y="26.343" style="fill:#fff;fill-opacity:1"/><use xlink:href="#q" x="100.629" y="25.347" style="fill:#fff;fill-opacity:1"/><g style="fill:#fff;fill-opacity:1"><use xlink:href="#r" x="28.076" y="36.306"/><use xlink:href="#c" x="34.345" y="36.306"/><use xlink:href="#s" x="38.952" y="36.306"/></g><use xlink:href="#l" x="47.141" y="36.306" style="fill:#fff;fill-opacity:1"/><use xlink:href="#t" x="50.725" y="36.306" style="fill:#fff;fill-opacity:1"/><use xlink:href="#u" x="58.844" y="37.368" style="fill:#fff;fill-opacity:1"/><use xlink:href="#n" x="62.442" y="36.306" style="fill:#fff;fill-opacity:1"/><g style="fill:#fff;fill-opacity:1"><use xlink:href="#m" x="66.535" y="36.306"/><use xlink:href="#n" x="71.161" y="36.306"/></g><use xlink:href="#o" x="75.263" y="36.306" style="fill:#fff;fill-opacity:1"/><use xlink:href="#p" x="80.635" y="37.302" style="fill:#fff;fill-opacity:1"/><use xlink:href="#q" x="84.786" y="36.306" style="fill:#fff;fill-opacity:1"/><g style="fill:#fff;fill-opacity:1"><use xlink:href="#v" x="28.076" y="47.265"/><use xlink:href="#d" x="35.306" y="47.265"/><use xlink:href="#c" x="37.865" y="47.265"/><use xlink:href="#w" x="42.472" y="47.265"/><use xlink:href="#k" x="46.567" y="47.265"/></g><use xlink:href="#x" x="53.732" y="47.265" style="fill:#fff;fill-opacity:1"/><use xlink:href="#t" x="57.318" y="47.265" style="fill:#fff;fill-opacity:1"/><use xlink:href="#y" x="65.437" y="48.261" style="fill:#fff;fill-opacity:1"/><use xlink:href="#n" x="68.851" y="47.265" style="fill:#fff;fill-opacity:1"/><g style="fill:#fff;fill-opacity:1"><use xlink:href="#m" x="72.944" y="47.265"/><use xlink:href="#n" x="77.57" y="47.265"/></g><use xlink:href="#o" x="81.672" y="47.265" style="fill:#fff;fill-opacity:1"/><use xlink:href="#z" x="87.045" y="48.261" style="fill:#fff;fill-opacity:1"/><use xlink:href="#A" x="91.196" y="47.265" style="fill:#fff;fill-opacity:1"/><path style="stroke:none;fill-rule:nonzero;fill:#bfbfbf;fill-opacity:1" d="M331.95 34.063c0-11.672-30.075-21.133-67.177-21.133-37.101 0-67.18 9.46-67.18 21.133 0 11.671 30.079 21.136 67.18 21.136 37.102 0 67.176-9.465 67.176-21.136Zm0 0"/><g clip-path="url(#B)"><path style="fill:none;stroke-width:.3985;stroke-linecap:butt;stroke-linejoin:miter;stroke:#000;stroke-opacity:1;stroke-dasharray:2.98883,2.98883;stroke-miterlimit:10" d="M265.605.002c0 11.671-30.074 21.132-67.176 21.132-37.101 0-67.18-9.46-67.18-21.133 0-11.671 30.079-21.136 67.18-21.136 37.102 0 67.176 9.465 67.176 21.137Zm0 0" transform="matrix(1 0 0 -1 66.344 34.064)"/></g><g style="fill:#fff;fill-opacity:1"><use xlink:href="#b" x="222.249" y="30.826"/><use xlink:href="#c" x="228.903" y="30.826"/><use xlink:href="#d" x="233.51" y="30.826"/><use xlink:href="#e" x="236.069" y="30.826"/><use xlink:href="#f" x="240.676" y="30.826"/><use xlink:href="#g" x="244.279" y="30.826"/><use xlink:href="#h" x="246.838" y="30.826"/><use xlink:href="#i" x="254.516" y="30.826"/><use xlink:href="#j" x="258.615" y="30.826"/><use xlink:href="#f" x="262.198" y="30.826"/><use xlink:href="#k" x="265.801" y="30.826"/></g><use xlink:href="#l" x="272.97" y="30.826" style="fill:#fff;fill-opacity:1"/><g style="fill:#fff;fill-opacity:1"><use xlink:href="#m" x="276.554" y="30.826"/><use xlink:href="#n" x="281.18" y="30.826"/></g><use xlink:href="#o" x="285.273" y="30.826" style="fill:#fff;fill-opacity:1"/><g style="fill:#fff;fill-opacity:1"><use xlink:href="#C" x="290.652" y="31.822"/><use xlink:href="#D" x="293.917" y="31.822"/></g><use xlink:href="#q" x="298.26" y="30.826" style="fill:#fff;fill-opacity:1"/><g style="fill:#fff;fill-opacity:1"><use xlink:href="#r" x="222.249" y="41.785"/><use xlink:href="#c" x="228.518" y="41.785"/><use xlink:href="#s" x="233.125" y="41.785"/></g><use xlink:href="#l" x="241.315" y="41.785" style="fill:#fff;fill-opacity:1"/><use xlink:href="#t" x="244.898" y="41.785" style="fill:#fff;fill-opacity:1"/><use xlink:href="#u" x="253.017" y="42.848" style="fill:#fff;fill-opacity:1"/><use xlink:href="#E" x="257.909" y="41.785" style="fill:#fff;fill-opacity:1"/><use xlink:href="#t" x="266.37" y="41.785" style="fill:#fff;fill-opacity:1"/><use xlink:href="#y" x="274.489" y="42.781" style="fill:#fff;fill-opacity:1"/><use xlink:href="#n" x="277.903" y="41.785" style="fill:#fff;fill-opacity:1"/><g style="fill:#fff;fill-opacity:1"><use xlink:href="#m" x="281.996" y="41.785"/><use xlink:href="#n" x="286.622" y="41.785"/></g><use xlink:href="#o" x="290.724" y="41.785" style="fill:#fff;fill-opacity:1"/><g style="fill:#fff;fill-opacity:1"><use xlink:href="#C" x="296.096" y="42.781"/><use xlink:href="#D" x="299.361" y="42.781"/></g><use xlink:href="#q" x="303.705" y="41.785" style="fill:#fff;fill-opacity:1"/><path style="fill:none;stroke-width:1.59404;stroke-linecap:butt;stroke-linejoin:miter;stroke:gray;stroke-opacity:1;stroke-miterlimit:10" d="M66.144.002h56.34" transform="matrix(1 0 0 -1 66.344 34.064)"/><path style="stroke:none;fill-rule:nonzero;fill:gray;fill-opacity:1" d="m192.613 34.063-6.058-3.028 2.273 3.027-2.273 3.032"/><g style="fill:gray;fill-opacity:1"><use xlink:href="#c" x="139.131" y="30.328"/><use xlink:href="#F" x="143.738" y="30.328"/><use xlink:href="#g" x="148.856" y="30.328"/><use xlink:href="#c" x="151.415" y="30.328"/><use xlink:href="#G" x="156.022" y="30.328"/><use xlink:href="#c" x="161.14" y="30.328"/><use xlink:href="#j" x="165.747" y="30.328"/><use xlink:href="#g" x="169.33" y="30.328"/><use xlink:href="#H" x="171.889" y="30.328"/><use xlink:href="#s" x="176.751" y="30.328"/><use xlink:href="#k" x="181.869" y="30.328"/></g><g style="fill:gray;fill-opacity:1"><use xlink:href="#h" x="142.832" y="42.232"/><use xlink:href="#e" x="150.51" y="42.232"/><use xlink:href="#I" x="155.117" y="42.232"/><use xlink:href="#e" x="160.235" y="42.232"/><use xlink:href="#G" x="164.842" y="42.232"/><use xlink:href="#c" x="169.96" y="42.232"/><use xlink:href="#f" x="174.567" y="42.232"/><use xlink:href="#k" x="178.17" y="42.232"/></g></svg>