<svg xmlns="http://www.w3.org/2000/svg" xmlns:xlink="http://www.w3.org/1999/xlink" width="248.812" height="149.801" viewBox="0 0 186.609 112.351"><defs><symbol overflow="visible" id="a"><path style="stroke:none" d="M3.938-5.469c.046-.187.078-.281.218-.312.078-.016.36-.016.547-.016 1.031 0 1.344.063 1.344.766 0 .11 0 .25-.078.781l-.016.078c0 .063.031.125.125.125.11 0 .125-.094.14-.219l.235-1.562c.016-.031.016-.094.016-.125 0-.125-.078-.125-.25-.125h-5.11c-.218 0-.218.016-.28.187L.265-4.312c-.032.109-.032.14-.032.14 0 .047.032.125.11.125.11 0 .125-.062.172-.219.5-1.406.78-1.53 2.078-1.53h.344c.25 0 .25.03.25.109 0 .046-.016.109-.032.187L1.953-.703c-.078.312-.11.422-1.062.422-.282 0-.36 0-.36.172C.531 0 .641 0 .687 0c.235 0 .485-.016.735-.016s.5-.015.75-.015c.406 0 .422 0 .75.015.125 0 .703.016.781.016.078 0 .188 0 .188-.156 0-.125-.079-.125-.297-.125-.235 0-.344 0-.578-.016-.204-.031-.313-.031-.313-.187 0-.047.016-.11.031-.172Zm0 0"/></symbol><symbol overflow="visible" id="b"><path style="stroke:none" d="M3.688.375c-.016.094-.016.219-.016.328 0 .422.078 1.031.781 1.031C5.531 1.734 5.984.141 5.984 0c0-.047-.046-.11-.125-.11-.062 0-.078.063-.109.126-.203.609-.734.843-1.063.843-.406 0-.546-.265-.64-.906 1.969-.844 2.75-2.61 2.75-3.844 0-1.406-.953-2.437-2.36-2.437-2 0-3.984 2.062-3.984 4.11C.453-.75 1.47.202 2.813.202c.374 0 .734-.094.89-.125ZM2.28-.156c-.422-.172-1.015-.64-1.015-1.797 0-.469.156-1.906 1.125-3.063.468-.546 1.218-1.062 1.984-1.062.89 0 1.61.656 1.61 1.922 0 .89-.438 2.922-1.985 3.781-.078-.484-.25-.969-.828-.969-.5 0-.938.469-.938.922a.73.73 0 0 0 .047.266ZM3.72-.234a2.098 2.098 0 0 1-.844.187c-.11 0-.422 0-.422-.375 0-.328.344-.687.735-.687.53 0 .53.484.53.875Zm0 0"/></symbol><symbol overflow="visible" id="J"><path style="stroke:none" d="M3.422-5.422c.078-.344.11-.422.937-.422.25 0 .329 0 .329-.172 0-.109-.11-.109-.141-.109-.203 0-.438.016-.656.016-.22 0-.422.015-.641.015-.203 0-.422 0-.625-.015-.156 0-.438-.016-.594-.016-.047 0-.172 0-.172.156 0 .125.079.125.266.125.031 0 .203 0 .344.016.156.016.219.031.219.14 0 .032-.016.079-.047.172L1.437-.687c-.078.328-.093.406-.78.406-.157 0-.266 0-.266.172C.39 0 .484 0 .64 0h4.234c.219 0 .234-.016.297-.203.094-.219.734-1.922.734-2 0-.063-.062-.11-.125-.11-.093 0-.093.032-.172.22-.296.796-.687 1.812-2.265 1.812H2.28c-.094-.016-.125-.031-.125-.094 0-.016 0-.031.047-.203Zm0 0"/></symbol><symbol overflow="visible" id="c"><path style="stroke:none" d="M6.047-2.047c.172 0 .344 0 .344-.203 0-.188-.188-.188-.344-.188H1.109c-.156 0-.343 0-.343.188 0 .203.171.203.343.203Zm0 0"/></symbol><symbol overflow="visible" id="d"><path style="stroke:none" d="M4.14-1.594h-.25c-.015.125-.093.657-.203.797-.062.078-.671.078-.859.078H1.234l.891-.844c1.469-1.265 2.016-1.75 2.016-2.656 0-1.031-.844-1.75-1.954-1.75-1.03 0-1.734.813-1.734 1.625 0 .453.39.5.469.5.203 0 .469-.14.469-.469a.451.451 0 0 0-.47-.468c-.046 0-.062 0-.109.015.22-.64.797-.921 1.282-.921.906 0 1.219.843 1.219 1.468 0 .907-.688 1.657-1.11 2.125L.563-.328c-.11.11-.11.125-.11.328h3.438Zm0 0"/></symbol><symbol overflow="visible" id="e"><path style="stroke:none" d="M4.25-2.875c0-.594-.031-1.375-.344-2.047-.406-.844-1.078-1.047-1.594-1.047-.546 0-1.234.203-1.624 1.078-.282.61-.329 1.344-.329 2.016 0 .594.016 1.453.407 2.172.421.75 1.125.906 1.53.906.579 0 1.25-.25 1.626-1.078.265-.61.328-1.281.328-2ZM2.312-.031c-.28 0-.921-.125-1.093-1.14-.094-.516-.094-1.298-.094-1.813 0-.61 0-1.313.11-1.813.187-.797.75-.953 1.062-.953.344 0 .906.188 1.078 1.016.094.484.094 1.187.094 1.75 0 .562 0 1.312-.094 1.843C3.187-.109 2.531-.03 2.312-.03Zm0 0"/></symbol><symbol overflow="visible" id="g"><path style="stroke:none" d="M5.422-5.547c-.281-.281-.797-.781-1.703-.781-1.735 0-3.203 1.453-3.203 3.266C.516-1.22 2 .203 3.719.203 5.203.203 6.14-1.03 6.14-2.078c0-.094 0-.172-.125-.172s-.125.063-.125.14A2.085 2.085 0 0 1 3.812-.077c-.765 0-2.39-.484-2.39-2.985 0-2.5 1.64-2.984 2.375-2.984.89 0 1.828.672 2.047 2.125.015.125.031.156.14.156.157 0 .157-.03.157-.218v-2.11c0-.156 0-.234-.11-.234-.062 0-.093.031-.14.11Zm0 0"/></symbol><symbol overflow="visible" id="h"><path style="stroke:none" d="M2.734-3.156C3.563-3.47 3.97-4.125 3.97-4.75c0-.688-.766-1.219-1.703-1.219-.922 0-1.625.532-1.625 1.203 0 .297.187.47.453.47a.435.435 0 0 0 .453-.454c0-.313-.219-.438-.531-.438.234-.375.78-.562 1.234-.562.734 0 .875.594.875 1.016 0 .265-.047.703-.266 1.046-.28.391-.593.407-.859.438-.219.016-.234.016-.313.016-.078 0-.156.015-.156.109 0 .125.078.125.235.125h.406c.781 0 1.125.625 1.125 1.469 0 1.156-.61 1.484-1.063 1.484-.171 0-1.046-.047-1.437-.719a.475.475 0 0 0 .562-.484.468.468 0 0 0-.484-.484c-.219 0-.484.14-.484.515 0 .797.828 1.422 1.875 1.422 1.109 0 1.953-.812 1.953-1.734 0-.782-.625-1.438-1.485-1.625Zm0 0"/></symbol><symbol overflow="visible" id="u"><path style="stroke:none" d="M6.328-2.047c.125 0 .313 0 .313-.203 0-.188-.172-.188-.313-.188H3.781V-5c0-.14 0-.313-.203-.313-.187 0-.187.188-.187.313v2.563H.828c-.125 0-.312 0-.312.187 0 .203.171.203.312.203h2.563V.516c0 .14 0 .312.203.312.187 0 .187-.187.187-.312v-2.563Zm0 0"/></symbol><symbol overflow="visible" id="f"><path style="stroke:none" d="M3.266-1.5c0-.75-.61-1.36-1.36-1.36-.734 0-1.343.61-1.343 1.36 0 .766.609 1.36 1.343 1.36.75 0 1.36-.594 1.36-1.36ZM1.906-.453A1.024 1.024 0 0 1 .875-1.5c0-.578.453-1.047 1.031-1.047.578 0 1.047.469 1.047 1.047 0 .594-.469 1.047-1.047 1.047Zm0 0"/></symbol><symbol overflow="visible" id="i"><path style="stroke:none" d="M1.016-3.86h-.72v.266h.72v2.969c0 .313-.266.344-.563.344H.328v.265L.953-.03h1.563v-.25h-.297c-.328 0-.563-.047-.563-.422v-2.89h1.032v-.266H1.625v-.829c0-.578.14-1.421.828-1.421.078 0 .188.015.266.062a.395.395 0 0 0-.235.36c0 .218.172.39.391.39.266 0 .406-.172.406-.39 0-.422-.453-.641-.828-.641-.625 0-1.187.406-1.39.984-.047.172-.047.344-.047.516Zm0 0"/></symbol><symbol overflow="visible" id="j"><path style="stroke:none" d="M.313-3.86v.266H.39c.25 0 .593.031.593.281.016.11.016.188.016.297v1.782c0 .28.016.53.14.78.266.438.813.548 1.282.548.5 0 .984-.297 1.14-.766l.016.766 1.328-.11V-.28H4.75c-.266 0-.531-.031-.531-.438v-3.25l-1.36.11v.265h.125c.282 0 .563.031.563.453v1.766C3.5-.797 3.14-.141 2.453-.141c-.36 0-.687-.078-.765-.546-.016-.172-.016-.329-.016-.5V-3.97Zm0 0"/></symbol><symbol overflow="visible" id="k"><path style="stroke:none" d="M.813-.313c.296.297.656.407 1.046.407.735 0 1.454-.375 1.454-1.25v-.094c-.032-.516-.422-.89-.876-1.063a3.528 3.528 0 0 0-.703-.156c-.375-.078-.968-.187-.968-.703 0-.515.656-.656 1.03-.656.579 0 .985.344 1.032.969 0 .078.016.171.125.171.063 0 .125-.03.125-.109v-1.078c0-.063-.015-.14-.094-.14-.14 0-.234.218-.343.218h-.016c-.063-.015-.125-.062-.188-.094-.187-.093-.421-.125-.64-.125-.625 0-1.484.204-1.484 1.125 0 .907 1.046 1.047 1.687 1.172.39.078.828.313.86.75 0 .64-.532.828-1.016.828h-.078C1.109-.17.75-.656.594-1.28c-.031-.094-.031-.25-.156-.25-.11 0-.126.078-.126.156v1.156c0 .047-.015.078-.015.125 0 .094.016.188.11.188.093 0 .156-.11.218-.172l.031-.047c.063-.063.11-.11.156-.188Zm0 0"/></symbol><symbol overflow="visible" id="l"><path style="stroke:none" d="M.36-3.86v.266H.5c.297 0 .516.047.516.453v2.485c0 .36-.25.375-.688.375v.265h1.938V-.28h-.141c-.234 0-.469-.031-.469-.313v-3.375Zm.765-2.156c-.234.047-.422.235-.422.485s.219.468.485.468h.062a.474.474 0 0 0 .422-.468.477.477 0 0 0-.484-.485Zm0 0"/></symbol><symbol overflow="visible" id="m"><path style="stroke:none" d="M2.172-4.016c-1.047.11-1.906.954-1.906 2.094C.266-1 .953.094 2.312.094c1.047 0 2.032-.844 2.032-2 0-1.078-.844-2.125-2.047-2.125-.047 0-.078.015-.125.015ZM1.047-1.719v-.375c0-.719.219-1.703 1.266-1.703.703 0 1.156.563 1.234 1.281.015.188.015.375.015.563 0 .469-.03 1-.359 1.375a1.19 1.19 0 0 1-.906.422c-.656 0-1.11-.5-1.235-1.219 0-.11 0-.219-.015-.344Zm0 0"/></symbol><symbol overflow="visible" id="n"><path style="stroke:none" d="M.313-3.86v.266h.14c.266 0 .547.031.547.453v2.485c0 .36-.234.375-.688.375v.265L.954-.03H2.36v-.25h-.203c-.265 0-.484-.047-.484-.375v-1.61c0-.687.406-1.468 1.25-1.468.484 0 .625.437.625 1v2.109c0 .313-.25.344-.547.344h-.14v.265L3.5-.03h1.406v-.25h-.172c-.265 0-.515-.031-.515-.36v-2.015c0-.281-.016-.531-.14-.781-.235-.422-.704-.532-1.141-.532-.547 0-1.11.375-1.313.89l-.016-.89Zm0 0"/></symbol><symbol overflow="visible" id="C"><path style="stroke:none" d="M3.25-3.531c-.188.062-.36.172-.36.422 0 .218.157.406.422.406.235 0 .422-.172.422-.438 0-.64-.765-.859-1.312-.875h-.094A2.04 2.04 0 0 0 .313-1.953c0 1.094.859 2.047 2 2.047.624 0 1.203-.328 1.453-.969.015-.063.062-.14.062-.203s-.062-.11-.125-.11c-.156 0-.156.235-.234.36-.219.406-.61.672-1.094.672-.984 0-1.297-1.125-1.297-1.813 0-.734.266-1.797 1.266-1.797.25 0 .515.032.734.141.063.016.11.063.172.094Zm0 0"/></symbol><symbol overflow="visible" id="D"><path style="stroke:none" d="M.313-6.14v.28h.156c.281 0 .531.032.531.47v4.515c0 .063.016.125.016.203 0 .375-.266.39-.641.39H.312v.266L.954-.03H2.36v-.25h-.203c-.265 0-.484-.047-.484-.375v-1.61c0-.687.406-1.468 1.25-1.468.484 0 .625.437.625 1v2.109c0 .313-.25.344-.547.344h-.14v.265L3.5-.03h1.406v-.25h-.172c-.265 0-.515-.031-.515-.36v-2.015c0-.281-.016-.547-.14-.781-.22-.407-.673-.532-1.095-.532-.515 0-1.125.297-1.328.844l-.015-3.11Zm0 0"/></symbol><symbol overflow="visible" id="E"><path style="stroke:none" d="M1.094-3.484c.25-.22.61-.313.937-.313.313 0 .594.172.781.438.172.25.172.53.172.828v.156c-.734.078-1.468.078-2.093.547-.297.219-.516.578-.516.937 0 .735.875.985 1.469.985.547 0 .968-.281 1.218-.75.079.375.297.703.704.703.546 0 .78-.453.78-.953v-.406h-.25v.453c0 .25-.046.593-.327.593-.297 0-.313-.39-.313-.593v-1.75c0-.938-.812-1.407-1.61-1.407-.562 0-1.39.235-1.39.938 0 .25.14.437.469.437.219-.015.36-.218.36-.421 0-.25-.188-.376-.391-.422Zm1.89 1.328v.875c0 .625-.437 1.14-1.062 1.14h-.063c-.421-.03-.75-.359-.75-.75 0-.859 1.032-1.265 1.875-1.265Zm0 0"/></symbol><symbol overflow="visible" id="F"><path style="stroke:none" d="M.328-6.14v.28h.11c.312 0 .578.016.578.47v4.718c0 .375-.25.39-.641.39H.328v.266h2.016V-.28h-.235c-.234 0-.453-.047-.453-.36v-5.593Zm0 0"/></symbol><symbol overflow="visible" id="G"><path style="stroke:none" d="M1.031-2.063h2.657c.109 0 .156-.046.156-.156 0-1.125-.703-1.797-1.64-1.797-1.095 0-1.954.954-1.954 2.047C.25-.875 1.125.094 2.344.094c.64 0 1.281-.453 1.469-1.078.015-.016.015-.063.015-.094a.107.107 0 0 0-.11-.11c-.171 0-.171.266-.265.391-.219.375-.656.64-1.094.64h-.062C1.828-.171 1.422-.5 1.219-.921c-.172-.36-.188-.75-.188-1.14Zm.016-.218c0-.594.25-1.281.906-1.485a.914.914 0 0 1 .203-.03c.781 0 1.063.796 1.063 1.515Zm0 0"/></symbol><symbol overflow="visible" id="H"><path style="stroke:none" d="M.266-3.86v.266h.14c.281 0 .547.031.547.453v2.485c0 .36-.234.375-.687.375v.265L.89-.03h1.562v-.25h-.297c-.312 0-.562-.047-.562-.375v-1.516c.062-.625.234-1.562 1.14-1.562-.125.062-.171.203-.171.328a.39.39 0 1 0 .78 0c0-.375-.359-.563-.687-.563-.547 0-.984.469-1.11.969v-.969Zm0 0"/></symbol><symbol overflow="visible" id="I"><path style="stroke:none" d="M1.36-5.531c0 .656-.298 1.718-1.188 1.718v.22h.781v2.374c0 .282.016.547.156.782.22.39.672.53 1.079.53h.078c.687-.124.796-.859.796-1.39v-.328h-.25c0 .125.016.25.016.39 0 .391-.094 1.079-.625 1.079-.484 0-.594-.563-.594-1.016v-2.422h1.313v-.265H1.609v-1.672Zm0 0"/></symbol><symbol overflow="visible" id="o"><path style="stroke:none" d="M5.656-6.219h-.86v2.688H1.72V-6.22h-.86V0h.86v-2.938h3.078V0h.86Zm0 0"/></symbol><symbol overflow="visible" id="q"><path style="stroke:none" d="M6.281-3.078c0-1.906-1.328-3.344-2.875-3.344-1.562 0-2.89 1.438-2.89 3.344 0 1.86 1.343 3.281 2.89 3.281 1.547 0 2.875-1.422 2.875-3.281ZM3.406-.438c-1.078 0-2.031-1.093-2.031-2.78 0-1.641 1-2.595 2.031-2.595 1.016 0 2.016.954 2.016 2.594 0 1.688-.953 2.781-2.016 2.781Zm0 0"/></symbol><symbol overflow="visible" id="p"><path style="stroke:none" d="M1.688-.453H.796l.922-.828c.11-.094.406-.313.515-.407.266-.234.625-.546.625-1.078 0-.671-.5-1.28-1.359-1.28-.64 0-1.031.343-1.234.952l.28.344c.141-.5.345-.89.86-.89.516 0 .89.359.89.89 0 .5-.296.781-.655 1.125-.11.11-.438.39-.563.5-.172.156-.594.563-.766.719V0H2.86v-.453Zm0 0"/></symbol><symbol overflow="visible" id="r"><path style="stroke:none" d="M2.266-4.484c-.094.03-.188.125-.282.187C1.172-3.625.75-2.563.75-1.5c0 1.14.484 2.281 1.438 2.938a.169.169 0 0 0 .109.046c.062 0 .094-.03.094-.078 0-.078-.141-.172-.22-.234-.687-.64-.952-1.625-.983-2.531v-.157c0-1.015.312-2.062 1.109-2.765.031-.032.11-.078.11-.125 0-.063-.063-.094-.11-.094-.016 0-.016 0-.031.016Zm0 0"/></symbol><symbol overflow="visible" id="s"><path style="stroke:none" d="M.703-.203H.72c.203.203.515.25.781.25.484 0 1.094-.172 1.094-.828 0-.703-.797-.797-1.297-.89-.25-.032-.64-.126-.64-.407 0-.36.546-.406.765-.406.344 0 .687.093.766.484.015.094 0 .203.124.203.094 0 .11-.047.11-.11v-.64c0-.062-.016-.125-.078-.125-.094 0-.203.11-.25.172-.203-.14-.438-.172-.656-.172-.454 0-1.125.125-1.125.75 0 .516.562.672.937.734l.203.032c.234.031.813.11.813.515 0 .422-.532.5-.782.5-.39 0-.796-.172-.921-.734C.53-.953.53-1 .421-1c-.094 0-.11.047-.11.11V-.079c0 .078.032.125.094.125.047 0 .11-.047.156-.094l.032-.031c.047-.047.078-.078.11-.125Zm0 0"/></symbol><symbol overflow="visible" id="t"><path style="stroke:none" d="M.531-4.484c-.031 0-.062.03-.062.078 0 .078.125.14.187.187.703.672 1 1.625 1.031 2.563v.156c0 1.016-.296 2.063-1.109 2.781a.136.136 0 0 0-.094.125c0 .047.032.078.094.078.078 0 .203-.109.297-.187C1.703.64 2.125-.437 2.125-1.5c0-1.14-.484-2.297-1.438-2.953C.657-4.47.61-4.5.579-4.5c-.015 0-.031 0-.047.016Zm0 0"/></symbol><symbol overflow="visible" id="K"><path style="stroke:none" d="M.844-2.578H.313v.234h.53v1.89C.844-.25.673-.25.47-.25H.39V0l.328-.031h.969L1.921 0v-.25c-.078 0-.156.016-.234.016-.188 0-.36-.032-.36-.235v-1.875h.797v-.234h-.828v-.547c0-.328.062-.766.5-.89h.094c.062 0 .125 0 .171.015-.046.063-.093.125-.093.219a.27.27 0 0 0 .281.281.28.28 0 0 0 .281-.281c0-.313-.36-.438-.625-.438-.437 0-.89.266-1.015.688-.032.11-.047.234-.047.36Zm0 0"/></symbol><symbol overflow="visible" id="L"><path style="stroke:none" d="M.375-2.578v.25h.094c.234 0 .375.015.375.36v1.155c0 .688.469.86 1.031.86.36 0 .766-.14.922-.484v.484L3.75 0v-.25h-.094c-.187 0-.375-.016-.375-.281v-2.11l-.984.063v.25h.094c.203 0 .39.015.39.297v.969c0 .484-.297.921-.86.921-.171 0-.39-.03-.5-.172a.549.549 0 0 1-.077-.312v-2.016Zm0 0"/></symbol><symbol overflow="visible" id="v"><path style="stroke:none" d="M2.375 1.36C1.719.843 1.187-.095 1.187-1.5c0-1.375.532-2.344 1.188-2.844 0 0 .031-.031.031-.062 0-.032-.031-.078-.11-.078C2.204-4.484.75-3.547.75-1.5c0 2.047 1.438 3 1.547 3 .078 0 .11-.047.11-.094 0-.031-.032-.047-.032-.047Zm0 0"/></symbol><symbol overflow="visible" id="x"><path style="stroke:none" d="M2.125-1.5c0-2.047-1.438-2.984-1.563-2.984-.062 0-.078.046-.078.078 0 .031 0 .047.11.14.531.454 1.094 1.344 1.094 2.766C1.688-.234 1.25.719.563 1.297c-.079.078-.079.078-.079.11 0 .03.016.093.079.093.109 0 1.562-.938 1.562-3Zm0 0"/></symbol><symbol overflow="visible" id="w"><path style="stroke:none" d="M.766-1.063c-.032.016-.391.344-.438.391-.125.094-.125.094-.125.14 0 .016.047.11.11.11.03 0 .046 0 .124-.078l.36-.313c.078.36.281.891.828.891.516 0 1.063-.515 1.063-.515.015-.016.03-.016.03-.063s-.062-.125-.109-.125c-.03 0-.046.016-.093.063-.297.234-.594.437-.875.437-.454 0-.454-.734-.454-.844 0-.172 0-.187.063-.25.36-.312.703-.672.984-1.078.5-.672.547-1.187.547-1.375 0-.219-.078-.547-.422-.547-.765 0-1.593 1.813-1.593 2.969v.188Zm.468-.437c.032-.172.235-1.172.516-1.797.094-.187.328-.719.61-.719.187 0 .203.204.203.329 0 .703-.626 1.546-1.329 2.187Zm0 0"/></symbol><symbol overflow="visible" id="y"><path style="stroke:none" d="m-2.813-7.922-.406.75 2.375 1.266-1.453 2.718-2.375-1.265-.406.766L.406-.75l.406-.766-2.593-1.39 1.453-2.719 2.594 1.39.406-.75Zm0 0"/></symbol><symbol overflow="visible" id="A"><path style="stroke:none" d="M.25-6.984c-1.672-.907-3.563-.407-4.297.953-.734 1.375-.094 3.218 1.578 4.125 1.64.875 3.516.36 4.25-1 .735-1.36.11-3.203-1.531-4.078Zm.969 3.78c-.516.954-1.907 1.267-3.407.47C-3.625-3.516-4-4.844-3.516-5.75c.485-.89 1.797-1.328 3.235-.547 1.5.797 2 2.156 1.5 3.094Zm0 0"/></symbol><symbol overflow="visible" id="z"><path style="stroke:none" d="M.39-1.703c-.03.047-.062.125-.093.172l-.328.61-.281-1.204c-.047-.14-.094-.5-.11-.64-.078-.344-.203-.813-.672-1.063-.593-.313-1.36-.156-1.765.594-.297.578-.188 1.078.25 1.546l.453-.093c-.375-.36-.625-.719-.39-1.172.25-.453.733-.625 1.202-.375.438.234.547.64.688 1.11.031.155.125.577.187.734.031.234.203.796.25 1.015l.36.188 1.203-2.235-.407-.218Zm0 0"/></symbol><symbol overflow="visible" id="B"><path style="stroke:none" d="M-.578-1.172c0 .031.11.5.14.563.016.171.016.171.063.187.016 0 .125 0 .14-.062.016-.016.032-.032 0-.141l-.109-.469C0-.984.578-.922.828-1.406c.25-.453.047-1.172.047-1.172 0-.031 0-.031-.031-.047-.047-.031-.14-.016-.156.031-.016.031-.016.047 0 .11.062.375.109.734-.016.968-.219.407-.86.063-.969.016-.14-.078-.156-.094-.187-.188A5.666 5.666 0 0 0-.97-3.046c-.344-.765-.797-1.047-.953-1.14-.187-.11-.516-.188-.687.125-.36.671.843 2.25 1.859 2.796.094.047.11.063.172.094Zm-.172-.625c-.125-.11-.922-.766-1.328-1.312-.125-.157-.485-.61-.36-.86.094-.172.282-.094.391-.031.625.328 1.078 1.281 1.297 2.203Zm0 0"/></symbol></defs><path style="fill:none;stroke-width:.3985;stroke-linecap:butt;stroke-linejoin:miter;stroke:#000;stroke-opacity:1;stroke-miterlimit:10" d="M.001-28.347V54.7" transform="matrix(1 0 0 -1 36.862 69.794)"/><path style="stroke:none;fill-rule:nonzero;fill:#000;fill-opacity:1" d="m36.863 13.102-1.593 3.187 1.593-1.195 1.594 1.195"/><use xlink:href="#a" x="33.534" y="11.108" style="fill:#000;fill-opacity:1"/><path style="fill:none;stroke-width:.3985;stroke-linecap:butt;stroke-linejoin:miter;stroke:#000;stroke-opacity:1;stroke-miterlimit:10" d="M.001.001h142.575" transform="matrix(1 0 0 -1 36.862 69.794)"/><path style="stroke:none;fill-rule:nonzero;fill:#000;fill-opacity:1" d="m181.43 69.793-3.188-1.594 1.196 1.594-1.196 1.594"/><use xlink:href="#b" x="172.168" y="77.913" style="fill:#000;fill-opacity:1"/><path style="fill:none;stroke-width:.3985;stroke-linecap:butt;stroke-linejoin:miter;stroke:#000;stroke-opacity:1;stroke-dasharray:2.98883,2.98883;stroke-miterlimit:10" d="M.001 45.778h130.82" transform="matrix(1 0 0 -1 36.862 69.794)"/><path style="fill:none;stroke-width:.3985;stroke-linecap:butt;stroke-linejoin:miter;stroke:#000;stroke-opacity:1;stroke-miterlimit:10" d="M.997-18.991H-.995" transform="matrix(1 0 0 -1 36.862 69.794)"/><use xlink:href="#c" x="4.981" y="91.7" style="fill:#000;fill-opacity:1"/><g style="fill:#000;fill-opacity:1"><use xlink:href="#d" x="12.149" y="91.7"/><use xlink:href="#e" x="16.757" y="91.7"/></g><use xlink:href="#f" x="22.9" y="87.891" style="fill:#000;fill-opacity:1"/><use xlink:href="#g" x="27.217" y="91.7" style="fill:#000;fill-opacity:1"/><path style="fill:none;stroke-width:.3985;stroke-linecap:butt;stroke-linejoin:miter;stroke:#000;stroke-opacity:1;stroke-miterlimit:10" d="M.997.001H-.995" transform="matrix(1 0 0 -1 36.862 69.794)"/><use xlink:href="#e" x="16.757" y="73.123" style="fill:#000;fill-opacity:1"/><use xlink:href="#f" x="22.9" y="69.314" style="fill:#000;fill-opacity:1"/><use xlink:href="#g" x="27.217" y="73.123" style="fill:#000;fill-opacity:1"/><path style="fill:none;stroke-width:.3985;stroke-linecap:butt;stroke-linejoin:miter;stroke:#000;stroke-opacity:1;stroke-miterlimit:10" d="M1.993 45.778H-1.99" transform="matrix(1 0 0 -1 36.862 69.794)"/><g style="fill:#000;fill-opacity:1"><use xlink:href="#h" x="11.153" y="27.344"/><use xlink:href="#e" x="15.761" y="27.344"/></g><use xlink:href="#f" x="21.904" y="23.535" style="fill:#000;fill-opacity:1"/><use xlink:href="#g" x="26.221" y="27.344" style="fill:#000;fill-opacity:1"/><path style="fill:none;stroke-width:.79701;stroke-linecap:butt;stroke-linejoin:miter;stroke:#00adef;stroke-opacity:1;stroke-miterlimit:10" d="M.001-18.991 11.908 0h94.394l24.52 45.777" transform="matrix(1 0 0 -1 36.862 69.794)"/><g style="fill:#00adef;fill-opacity:1"><use xlink:href="#i" x="84.038" y="77.962"/><use xlink:href="#j" x="86.853" y="77.962"/><use xlink:href="#k" x="91.971" y="77.962"/><use xlink:href="#l" x="95.606" y="77.962"/><use xlink:href="#m" x="98.165" y="77.962"/><use xlink:href="#n" x="102.772" y="77.962"/></g><use xlink:href="#o" x="64.072" y="64.812" style="fill:#00adef;fill-opacity:1"/><use xlink:href="#p" x="70.589" y="65.809" style="fill:#00adef;fill-opacity:1"/><use xlink:href="#q" x="74.263" y="64.812" style="fill:#00adef;fill-opacity:1"/><g style="fill:#00adef;fill-opacity:1"><use xlink:href="#r" x="81.071" y="66.307"/><use xlink:href="#s" x="83.949" y="66.307"/><use xlink:href="#t" x="86.864" y="66.307"/></g><use xlink:href="#u" x="92.288" y="64.812" style="fill:#00adef;fill-opacity:1"/><use xlink:href="#o" x="101.503" y="64.812" style="fill:#00adef;fill-opacity:1"/><use xlink:href="#p" x="108.02" y="65.809" style="fill:#00adef;fill-opacity:1"/><use xlink:href="#q" x="111.694" y="64.812" style="fill:#00adef;fill-opacity:1"/><use xlink:href="#v" x="118.502" y="66.307" style="fill:#00adef;fill-opacity:1"/><use xlink:href="#w" x="121.38" y="66.307" style="fill:#00adef;fill-opacity:1"/><use xlink:href="#x" x="124.479" y="66.307" style="fill:#00adef;fill-opacity:1"/><use xlink:href="#y" x="147.485" y="54.335" style="fill:#00adef;fill-opacity:1"/><use xlink:href="#z" x="151.441" y="49.061" style="fill:#00adef;fill-opacity:1"/><use xlink:href="#A" x="152.296" y="45.352" style="fill:#00adef;fill-opacity:1"/><use xlink:href="#B" x="156.828" y="40.057" style="fill:#00adef;fill-opacity:1"/><path style="fill:none;stroke-width:.3985;stroke-linecap:butt;stroke-linejoin:miter;stroke:#000;stroke-opacity:1;stroke-miterlimit:10" d="M12.204-28.347h93.797" transform="matrix(1 0 0 -1 36.862 69.794)"/><path style="fill:none;stroke-width:.3985;stroke-linecap:butt;stroke-linejoin:miter;stroke:#000;stroke-opacity:1;stroke-miterlimit:10" d="M-.002 2.293v-4.586" transform="matrix(-1 0 0 1 48.967 98.14)"/><path style="fill:none;stroke-width:.3985;stroke-linecap:butt;stroke-linejoin:miter;stroke:#000;stroke-opacity:1;stroke-miterlimit:10" d="M.002 2.293v-4.586" transform="matrix(1 0 0 -1 142.963 98.14)"/><use xlink:href="#C" x="56.715" y="106.308" style="fill:#000;fill-opacity:1"/><use xlink:href="#D" x="60.55" y="106.308" style="fill:#000;fill-opacity:1"/><use xlink:href="#E" x="65.677" y="106.308" style="fill:#000;fill-opacity:1"/><use xlink:href="#F" x="70.275" y="106.308" style="fill:#000;fill-opacity:1"/><use xlink:href="#G" x="72.843" y="106.308" style="fill:#000;fill-opacity:1"/><use xlink:href="#j" x="76.932" y="106.308" style="fill:#000;fill-opacity:1"/><use xlink:href="#H" x="82.059" y="106.308" style="fill:#000;fill-opacity:1"/><g style="fill:#000;fill-opacity:1"><use xlink:href="#F" x="88.73" y="106.308"/><use xlink:href="#E" x="91.289" y="106.308"/><use xlink:href="#I" x="95.895" y="106.308"/><use xlink:href="#G" x="99.478" y="106.308"/><use xlink:href="#n" x="103.577" y="106.308"/></g><g style="fill:#000;fill-opacity:1"><use xlink:href="#I" x="108.435" y="106.308"/><use xlink:href="#G" x="112.018" y="106.308"/></g><use xlink:href="#J" x="119.191" y="106.308" style="fill:#000;fill-opacity:1"/><g style="fill:#000;fill-opacity:1"><use xlink:href="#K" x="125.462" y="107.37"/><use xlink:href="#L" x="127.759" y="107.37"/><use xlink:href="#s" x="131.798" y="107.37"/></g></svg>