<svg xmlns="http://www.w3.org/2000/svg" xmlns:xlink="http://www.w3.org/1999/xlink" width="444.14" height="120.544" viewBox="0 0 333.105 90.408"><defs><symbol overflow="visible" id="a"><path style="stroke:none" d="M1.031-2.063h2.657c.109 0 .156-.046.156-.156 0-1.125-.703-1.797-1.64-1.797-1.095 0-1.954.954-1.954 2.047C.25-.875 1.125.094 2.344.094c.64 0 1.281-.453 1.469-1.078.015-.016.015-.063.015-.094a.107.107 0 0 0-.11-.11c-.171 0-.171.266-.265.391-.219.375-.656.64-1.094.64h-.062C1.828-.171 1.422-.5 1.219-.921c-.172-.36-.188-.75-.188-1.14Zm.016-.218c0-.594.25-1.281.906-1.485a.914.914 0 0 1 .203-.03c.781 0 1.063.796 1.063 1.515Zm0 0"/></symbol><symbol overflow="visible" id="b"><path style="stroke:none" d="M.313-3.86v.266h.14c.266 0 .547.031.547.453v2.485c0 .36-.234.375-.688.375v.265L.954-.03H2.36v-.25h-.203c-.265 0-.484-.047-.484-.375v-1.61c0-.687.406-1.468 1.25-1.468.484 0 .625.437.625 1v2.109c0 .313-.25.344-.547.344h-.14v.265L3.5-.03h1.406v-.25h-.172c-.265 0-.515-.031-.515-.36v-2.015c0-.281-.016-.531-.14-.781-.235-.422-.704-.532-1.141-.532-.547 0-1.11.375-1.313.89l-.016-.89Zm0 0"/></symbol><symbol overflow="visible" id="c"><path style="stroke:none" d="M1.36-5.531c0 .656-.298 1.718-1.188 1.718v.22h.781v2.374c0 .282.016.547.156.782.22.39.672.53 1.079.53h.078c.687-.124.796-.859.796-1.39v-.328h-.25c0 .125.016.25.016.39 0 .391-.094 1.079-.625 1.079-.484 0-.594-.563-.594-1.016v-2.422h1.313v-.265H1.609v-1.672Zm0 0"/></symbol><symbol overflow="visible" id="d"><path style="stroke:none" d="M.313-6.14v.28h.156c.281 0 .531.032.531.47v4.515c0 .063.016.125.016.203 0 .375-.266.39-.641.39H.312v.266L.954-.03H2.36v-.25h-.203c-.265 0-.484-.047-.484-.375v-1.61c0-.687.406-1.468 1.25-1.468.484 0 .625.437.625 1v2.109c0 .313-.25.344-.547.344h-.14v.265L3.5-.03h1.406v-.25h-.172c-.265 0-.515-.031-.515-.36v-2.015c0-.281-.016-.547-.14-.781-.22-.407-.673-.532-1.095-.532-.515 0-1.125.297-1.328.844l-.015-3.11Zm0 0"/></symbol><symbol overflow="visible" id="e"><path style="stroke:none" d="M1.094-3.484c.25-.22.61-.313.937-.313.313 0 .594.172.781.438.172.25.172.53.172.828v.156c-.734.078-1.468.078-2.093.547-.297.219-.516.578-.516.937 0 .735.875.985 1.469.985.547 0 .968-.281 1.218-.75.079.375.297.703.704.703.546 0 .78-.453.78-.953v-.406h-.25v.453c0 .25-.046.593-.327.593-.297 0-.313-.39-.313-.593v-1.75c0-.938-.812-1.407-1.61-1.407-.562 0-1.39.235-1.39.938 0 .25.14.437.469.437.219-.015.36-.218.36-.421 0-.25-.188-.376-.391-.422Zm1.89 1.328v.875c0 .625-.437 1.14-1.062 1.14h-.063c-.421-.03-.75-.359-.75-.75 0-.859 1.032-1.265 1.875-1.265Zm0 0"/></symbol><symbol overflow="visible" id="f"><path style="stroke:none" d="M.328-6.14v.28h.11c.312 0 .578.016.578.47v4.718c0 .375-.25.39-.641.39H.328v.266h2.016V-.28h-.235c-.234 0-.453-.047-.453-.36v-5.593Zm0 0"/></symbol><symbol overflow="visible" id="g"><path style="stroke:none" d="M.266-3.86v.266h.171c.266 0 .516.031.516.39v4.282c0 .375-.265.375-.687.375v.281l.64-.03h1.406v-.25h-.218c-.25 0-.469-.032-.469-.36V-.438c.297.329.656.532 1.125.532 1.078 0 2.063-.875 2.063-2.031 0-1.016-.797-2.032-1.938-2.032-.5 0-.953.219-1.281.563v-.563Zm3.75 2.063C3.984-1.094 3.562-.14 2.672-.14c-.469 0-1.047-.453-1.047-.843v-1.47c0-.124-.016-.233-.016-.343 0-.5.657-.922 1.172-.922.844 0 1.25 1.063 1.25 1.75 0 .047 0 .11-.015.172Zm0 0"/></symbol><symbol overflow="visible" id="h"><path style="stroke:none" d="M.36-3.86v.266H.5c.297 0 .516.047.516.453v2.485c0 .36-.25.375-.688.375v.265h1.938V-.28h-.141c-.234 0-.469-.031-.469-.313v-3.375Zm.765-2.156c-.234.047-.422.235-.422.485s.219.468.485.468h.062a.474.474 0 0 0 .422-.468.477.477 0 0 0-.484-.485Zm0 0"/></symbol><symbol overflow="visible" id="i"><path style="stroke:none" d="M3.25-3.531c-.188.062-.36.172-.36.422 0 .218.157.406.422.406.235 0 .422-.172.422-.438 0-.64-.765-.859-1.312-.875h-.094A2.04 2.04 0 0 0 .313-1.953c0 1.094.859 2.047 2 2.047.624 0 1.203-.328 1.453-.969.015-.063.062-.14.062-.203s-.062-.11-.125-.11c-.156 0-.156.235-.234.36-.219.406-.61.672-1.094.672-.984 0-1.297-1.125-1.297-1.813 0-.734.266-1.797 1.266-1.797.25 0 .515.032.734.141.063.016.11.063.172.094Zm0 0"/></symbol><symbol overflow="visible" id="j"><path style="stroke:none" d="M.266-3.86v.266h.14c.281 0 .547.031.547.453v2.485c0 .36-.234.375-.687.375v.265L.89-.03h1.562v-.25h-.297c-.312 0-.562-.047-.562-.375v-1.516c.062-.625.234-1.562 1.14-1.562-.125.062-.171.203-.171.328a.39.39 0 1 0 .78 0c0-.375-.359-.563-.687-.563-.547 0-.984.469-1.11.969v-.969Zm0 0"/></symbol><symbol overflow="visible" id="k"><path style="stroke:none" d="M2.172-4.016c-1.047.11-1.906.954-1.906 2.094C.266-1 .953.094 2.312.094c1.047 0 2.032-.844 2.032-2 0-1.078-.844-2.125-2.047-2.125-.047 0-.078.015-.125.015ZM1.047-1.719v-.375c0-.719.219-1.703 1.266-1.703.703 0 1.156.563 1.234 1.281.015.188.015.375.015.563 0 .469-.03 1-.359 1.375a1.19 1.19 0 0 1-.906.422c-.656 0-1.11-.5-1.235-1.219 0-.11 0-.219-.015-.344Zm0 0"/></symbol><symbol overflow="visible" id="l"><path style="stroke:none" d="M.813-.313c.296.297.656.407 1.046.407.735 0 1.454-.375 1.454-1.25v-.094c-.032-.516-.422-.89-.876-1.063a3.528 3.528 0 0 0-.703-.156c-.375-.078-.968-.187-.968-.703 0-.515.656-.656 1.03-.656.579 0 .985.344 1.032.969 0 .078.016.171.125.171.063 0 .125-.03.125-.109v-1.078c0-.063-.015-.14-.094-.14-.14 0-.234.218-.343.218h-.016c-.063-.015-.125-.062-.188-.094-.187-.093-.421-.125-.64-.125-.625 0-1.484.204-1.484 1.125 0 .907 1.046 1.047 1.687 1.172.39.078.828.313.86.75 0 .64-.532.828-1.016.828h-.078C1.109-.17.75-.656.594-1.28c-.031-.094-.031-.25-.156-.25-.11 0-.126.078-.126.156v1.156c0 .047-.015.078-.015.125 0 .094.016.188.11.188.093 0 .156-.11.218-.172l.031-.047c.063-.063.11-.11.156-.188Zm0 0"/></symbol><symbol overflow="visible" id="m"><path style="stroke:none" d="M1.063-.438c.156.11.296.235.468.344.39.203.828.281 1.25.281.938 0 1.813-.78 1.813-1.859 0-.687-.39-1.39-1.032-1.687-.203-.094-.421-.141-.624-.188l-.563-.14c-.234-.047-.484-.094-.688-.22a1.144 1.144 0 0 1-.593-1.015c0-.703.625-1.156 1.281-1.156.89 0 1.484.656 1.672 1.578.031.14 0 .406.172.406.11 0 .125-.078.125-.172v-1.937c0-.063-.032-.125-.125-.125-.11 0-.203.25-.282.36-.046.077-.109.171-.156.265-.422-.375-.828-.625-1.453-.625-.89 0-1.812.64-1.812 1.75 0 .86.656 1.516 1.468 1.687.422.125.938.172 1.329.36.421.203.718.656.718 1.125 0 .703-.515 1.312-1.265 1.312-.985 0-1.86-.484-2-1.75 0-.093 0-.203-.125-.203s-.125.094-.125.172V.047c0 .078.03.14.109.14.125 0 .219-.25.297-.359.047-.094.094-.172.14-.266Zm0 0"/></symbol><symbol overflow="visible" id="n"><path style="stroke:none" d="M2.828-6.14v.28h.094c.36 0 .594.016.594.548v1.875a1.532 1.532 0 0 0-1.172-.532c-1.11 0-2.031.938-2.031 2.047C.313-.906 1.14.094 2.266.094c.421 0 .984-.203 1.218-.578v.578l1.36-.11V-.28h-.14c-.298 0-.548-.031-.548-.453v-5.5Zm-1.75 4.406v-.125c0-.72.188-1.875 1.313-1.875.468 0 1.109.343 1.109.906 0 .11-.016.219-.016.328v1.484c0 .11-.046.188-.109.282-.234.343-.64.593-1.063.593a1.14 1.14 0 0 1-.89-.453c-.25-.328-.297-.734-.344-1.14Zm0 0"/></symbol><symbol overflow="visible" id="o"><path style="stroke:none" d="M.344-6.14v.28h.344c.296 0 .562.048.562.391v4.782c0 .39-.313.406-.656.406h-.25v.265h4.765l.25-2.312h-.25C5.016-1.5 4.938-.625 3.83-.344c-.25.063-.5.063-.767.063h-.671c-.204 0-.329-.094-.329-.313v-4.843c0-.329.188-.375.376-.391.25-.031.515-.031.765-.031v-.282Zm0 0"/></symbol><symbol overflow="visible" id="p"><path style="stroke:none" d="M3.484-.531v1.625c0 .328-.187.36-.687.36v.28l.64-.03h1.407v-.25h-.188c-.281 0-.5-.032-.5-.376v-5.047l-.218.016-.11.203-.234.578c-.094-.11-.156-.234-.235-.328a1.316 1.316 0 0 0-1.03-.469c-1.079 0-2.017.906-2.017 2.016 0 1.047.813 2.047 1.954 2.047.453 0 .984-.235 1.218-.625ZM1.078-1.797v-.11c0-.734.39-1.765 1.297-1.812h.031c.578 0 1.016.563 1.11 1.094v1.406c0 .735-.922 1.078-1.204 1.078h-.046C1.609-.188 1.25-.859 1.14-1.42c-.032-.126-.032-.25-.063-.376Zm0 0"/></symbol><symbol overflow="visible" id="q"><path style="stroke:none" d="M.313-3.86v.266H.39c.25 0 .593.031.593.281.016.11.016.188.016.297v1.782c0 .28.016.53.14.78.266.438.813.548 1.282.548.5 0 .984-.297 1.14-.766l.016.766 1.328-.11V-.28H4.75c-.266 0-.531-.031-.531-.438v-3.25l-1.36.11v.265h.125c.282 0 .563.031.563.453v1.766C3.5-.797 3.14-.141 2.453-.141c-.36 0-.687-.078-.765-.546-.016-.172-.016-.329-.016-.5V-3.97Zm0 0"/></symbol><symbol overflow="visible" id="r"><path style="stroke:none" d="M.969-1.734A1.162 1.162 0 0 0 .688-1c0 .297.125.625.39.797-.422.172-.812.422-.812.89 0 .907 1.406 1.157 2.046 1.157.766 0 2.032-.282 2.032-1.188 0-1.062-1.11-1.281-2.016-1.281H1.5a.575.575 0 0 1-.5-.578c0-.125.063-.375.14-.375h.016c.125.031.25.125.375.156.157.063.344.078.516.078.719 0 1.5-.5 1.5-1.281 0-.313-.125-.672-.375-.875v-.016c.297-.203.547-.328.875-.328-.063.063-.125.125-.125.235 0 .14.125.265.281.265.188 0 .266-.14.266-.265 0-.297-.25-.454-.485-.454h-.078a1.483 1.483 0 0 0-.781.313c-.016.031-.063.078-.11.078-.062 0-.265-.14-.39-.187a1.316 1.316 0 0 0-.547-.11c-.734 0-1.531.5-1.531 1.328 0 .329.156.688.422.907ZM.766.734V.672c0-.469.468-.735.89-.735.078 0 .188.016.266.016h.469c.53 0 1.359.031 1.453.688v.062c0 .781-1.313.89-1.563.89C1.72 1.594.86 1.36.766.735ZM1.25-2.5v-.094c0-.484.11-1.125.797-1.125.547 0 .812.469.812 1.11 0 .515-.234 1.015-.812 1.015a.785.785 0 0 1-.61-.265c-.14-.188-.156-.407-.187-.641Zm0 0"/></symbol><symbol overflow="visible" id="s"><path style="stroke:none" d="M.484-3.86.391-2.39h.25c.015-.313.03-.688.234-.938.219-.281.625-.313 1-.313h1c-.281.329-.531.688-.781 1.016A110.04 110.04 0 0 0 .359-.344C.313-.28.266-.219.266-.14c0 .11.078.125.156.125h3.125l.156-1.703h-.25c-.031.375-.062.813-.281 1.094-.25.344-.703.36-1.094.36h-1a163.476 163.476 0 0 0 2.484-3.266c.047-.063.11-.125.11-.203 0-.094-.063-.125-.14-.125Zm0 0"/></symbol><symbol overflow="visible" id="t"><path style="stroke:none" d="M1.016-3.86h-.72v.266h.72v2.969c0 .313-.266.344-.563.344H.328v.265L.953-.03h1.563v-.25h-.297c-.328 0-.563-.047-.563-.422v-2.89h1.032v-.266H1.625v-.829c0-.578.14-1.421.828-1.421.078 0 .188.015.266.062a.395.395 0 0 0-.235.36c0 .218.172.39.391.39.266 0 .406-.172.406-.39 0-.422-.453-.641-.828-.641-.625 0-1.187.406-1.39.984-.047.172-.047.344-.047.516Zm0 0"/></symbol><symbol overflow="visible" id="u"><path style="stroke:none" d="M.953-3.86H.25v.266h.703v2.969c0 .313-.25.344-.547.344h-.14v.265L.922-.03h.734l.625.015V-.28h-.203c-.25 0-.484-.031-.484-.344v-2.969h1.468c.25 0 .454.078.454.422v2.5c0 .297-.094.39-.688.39v.266l.625-.015h.735l.656.015V-.28h-.219c-.234 0-.469-.047-.469-.375V-3.97l-1.39.11H1.562v-.922c0-.188.016-.375.094-.563.203-.468.75-.765 1.266-.765.281 0 .562.078.765.265a.426.426 0 0 0-.39.422.42.42 0 0 0 .422.422.42.42 0 0 0 .422-.422v-.016c0-.625-.688-.89-1.22-.89-.89 0-1.968.453-1.968 1.469Zm0 0"/></symbol><symbol overflow="visible" id="v"><path style="stroke:none" d="M.172-3.86v.266h.14c.454 0 .485.14.797.844.375.86.704 1.75 1.079 2.594.046.125.093.25.25.25.203 0 .39-.625.53-.969.266-.64.532-1.266.798-1.906.062-.156.109-.297.203-.438a.829.829 0 0 1 .703-.375v-.265l-.438.015h-1.03v.25c.218.016.405.14.405.36v.046c0 .235-.187.563-.296.813-.235.531-.485 1.078-.672 1.625-.11-.203-.188-.422-.266-.625l-.531-1.281c-.078-.172-.14-.328-.219-.485-.016-.062-.063-.14-.063-.203 0-.234.313-.25.5-.25v-.265Zm0 0"/></symbol><symbol overflow="visible" id="w"><path style="stroke:none" d="M1.031-2.063h2.657c.109 0 .156-.046.156-.156 0-1.125-.703-1.797-1.64-1.797-1.095 0-1.954.954-1.954 2.047C.25-.875 1.125.094 2.344.094c.64 0 1.281-.453 1.469-1.078.015-.016.015-.063.015-.094a.107.107 0 0 0-.11-.11c-.171 0-.171.266-.265.391-.219.375-.656.64-1.094.64h-.062C1.828-.171 1.422-.5 1.219-.921c-.172-.36-.188-.75-.188-1.14Zm.016-.218c0-.594.25-1.281.906-1.485a.914.914 0 0 1 .203-.03c.781 0 1.063.796 1.063 1.515Zm1.484-3.5c-.156.015-.312.203-.422.312-.28.282-.578.547-.859.828-.016.016-.016.032-.016.047 0 .063.079.188.141.188.047 0 .094-.047.125-.063l.25-.14c.39-.22 1.172-.516 1.172-.829 0-.171-.156-.359-.344-.359-.015 0-.031.016-.047.016Zm0 0"/></symbol><symbol overflow="visible" id="x"><path style="stroke:none" d="M.266-6.14v.28h.14c.297 0 .547.032.547.454v5.39l.25-.015.344-.531c.312.453.75.656 1.234.656 1.125 0 2.031-.953 2.031-2.047 0-.953-.765-2.016-1.937-2.016-.484 0-.89.172-1.281.563v-2.828Zm3.75 4.406c-.032.421-.079.796-.344 1.109a1.252 1.252 0 0 1-.969.484c-.375 0-.75-.218-.953-.546a.457.457 0 0 1-.125-.297v-2c.063-.391.703-.75 1.172-.75 1.047 0 1.234 1.14 1.234 1.812 0 .063 0 .125-.015.188Zm0 0"/></symbol><symbol overflow="visible" id="y"><path style="stroke:none" d="M.313-3.86v.266h.14c.266 0 .547.031.547.453v2.485c0 .36-.234.375-.688.375v.265L.954-.03H2.36v-.25h-.203c-.265 0-.484-.047-.484-.375v-1.797c.047-.64.484-1.281 1.25-1.281.578 0 .64.578.64 1v2.109c0 .313-.265.344-.562.344h-.125v.265L3.5-.03h1.422v-.25h-.219c-.25 0-.484-.047-.484-.375v-1.797c.062-.64.484-1.281 1.265-1.281.563 0 .625.578.625 1v2.109c0 .313-.25.344-.546.344h-.141v.265h2.047V-.28h-.172c-.25 0-.516-.031-.516-.36v-2.015c0-.281-.015-.547-.14-.781-.235-.422-.704-.532-1.141-.532-.547 0-1.11.36-1.297.86h-.016c-.078-.625-.656-.86-1.203-.86-.578 0-1.14.328-1.359.89l-.016-.89Zm0 0"/></symbol></defs><path style="fill:none;stroke-width:.3985;stroke-linecap:butt;stroke-linejoin:miter;stroke:gray;stroke-opacity:1;stroke-miterlimit:10" d="M-.001 0h281.476" transform="matrix(1 0 0 -1 5.181 45.204)"/><path style="stroke:none;fill-rule:nonzero;fill:gray;fill-opacity:1" d="m288.648 45.203-3.187-1.594 1.195 1.594-1.195 1.594"/><g style="fill:gray;fill-opacity:1"><use xlink:href="#a" x="249.166" y="53.372"/><use xlink:href="#b" x="253.265" y="53.372"/></g><use xlink:href="#c" x="258.132" y="53.372" style="fill:gray;fill-opacity:1"/><use xlink:href="#d" x="261.706" y="53.372" style="fill:gray;fill-opacity:1"/><g style="fill:gray;fill-opacity:1"><use xlink:href="#e" x="266.832" y="53.372"/><use xlink:href="#f" x="271.439" y="53.372"/><use xlink:href="#g" x="273.998" y="53.372"/><use xlink:href="#h" x="279.116" y="53.372"/><use xlink:href="#a" x="281.675" y="53.372"/></g><g style="fill:gray;fill-opacity:1"><use xlink:href="#i" x="288.841" y="53.372"/><use xlink:href="#j" x="292.935" y="53.372"/><use xlink:href="#k" x="296.539" y="53.372"/><use xlink:href="#h" x="301.146" y="53.372"/><use xlink:href="#l" x="303.705" y="53.372"/><use xlink:href="#l" x="307.339" y="53.372"/><use xlink:href="#e" x="310.973" y="53.372"/><use xlink:href="#b" x="315.58" y="53.372"/></g><g style="fill:gray;fill-opacity:1"><use xlink:href="#c" x="320.438" y="53.372"/><use xlink:href="#a" x="324.021" y="53.372"/></g><g style="fill:gray;fill-opacity:1"><use xlink:href="#a" x="251.203" y="41.468"/><use xlink:href="#b" x="255.302" y="41.468"/></g><use xlink:href="#c" x="260.169" y="41.468" style="fill:gray;fill-opacity:1"/><g style="fill:gray;fill-opacity:1"><use xlink:href="#j" x="263.743" y="41.468"/><use xlink:href="#k" x="267.346" y="41.468"/><use xlink:href="#g" x="271.953" y="41.468"/></g><g style="fill:gray;fill-opacity:1"><use xlink:href="#h" x="277.08" y="41.468"/><use xlink:href="#a" x="279.639" y="41.468"/></g><g style="fill:gray;fill-opacity:1"><use xlink:href="#i" x="286.804" y="41.468"/><use xlink:href="#j" x="290.899" y="41.468"/><use xlink:href="#k" x="294.503" y="41.468"/><use xlink:href="#h" x="299.11" y="41.468"/><use xlink:href="#l" x="301.669" y="41.468"/><use xlink:href="#l" x="305.303" y="41.468"/><use xlink:href="#e" x="308.937" y="41.468"/><use xlink:href="#b" x="313.544" y="41.468"/></g><g style="fill:gray;fill-opacity:1"><use xlink:href="#c" x="318.402" y="41.468"/><use xlink:href="#a" x="321.985" y="41.468"/></g><path style="stroke:none;fill-rule:nonzero;fill:#ffe6bf;fill-opacity:1" d="M57.586 45.203c0-6.3-10.77-11.41-24.059-11.41-13.285 0-24.058 5.11-24.058 11.41 0 6.305 10.773 11.414 24.058 11.414 13.29 0 24.059-5.11 24.059-11.414Zm0 0"/><g style="fill:#369;fill-opacity:1"><use xlink:href="#m" x="21.497" y="48.292"/><use xlink:href="#k" x="26.615" y="48.292"/><use xlink:href="#f" x="31.222" y="48.292"/><use xlink:href="#h" x="33.781" y="48.292"/><use xlink:href="#n" x="36.34" y="48.292"/><use xlink:href="#a" x="41.458" y="48.292"/></g><path style="stroke:none;fill-rule:nonzero;fill:#ffe6bf;fill-opacity:1" d="M161.05 45.203c0-6.98-12.671-12.644-28.308-12.644s-28.312 5.664-28.312 12.644c0 6.984 12.675 12.645 28.312 12.645s28.309-5.66 28.309-12.645Zm0 0"/><g style="fill:#369;fill-opacity:1"><use xlink:href="#o" x="117.703" y="47.42"/><use xlink:href="#h" x="123.46" y="47.42"/><use xlink:href="#p" x="126.019" y="47.42"/><use xlink:href="#q" x="130.882" y="47.42"/><use xlink:href="#h" x="136" y="47.42"/><use xlink:href="#n" x="138.559" y="47.42"/><use xlink:href="#a" x="143.677" y="47.42"/></g><path style="stroke:none;fill-rule:nonzero;fill:#ffe6bf;fill-opacity:1" d="M248.41 45.203c0-6.078-7.367-11.004-16.453-11.004-9.09 0-16.457 4.926-16.457 11.004 0 6.078 7.367 11.008 16.457 11.008 9.086 0 16.453-4.93 16.453-11.008Zm0 0"/><g style="fill:#369;fill-opacity:1"><use xlink:href="#r" x="225.298" y="46.262"/><use xlink:href="#e" x="229.905" y="46.262"/><use xlink:href="#s" x="234.512" y="46.262"/></g><path style="fill:none;stroke-width:.79701;stroke-linecap:butt;stroke-linejoin:miter;stroke:#000;stroke-opacity:1;stroke-miterlimit:10" d="M51.452 6.188c18.664 5.371 30.762 5.594 49.61.91" transform="matrix(1 0 0 -1 5.181 45.204)"/><path style="stroke:none;fill-rule:nonzero;fill:#000;fill-opacity:1" d="m78.879 34.879-4.25-1.848 1.664 1.985-1.441 2.152"/><g style="fill:#000;fill-opacity:1"><use xlink:href="#t" x="69.441" y="32.797"/><use xlink:href="#q" x="72.256" y="32.797"/><use xlink:href="#l" x="77.374" y="32.797"/><use xlink:href="#h" x="81.009" y="32.797"/><use xlink:href="#k" x="83.568" y="32.797"/><use xlink:href="#b" x="88.174" y="32.797"/></g><path style="fill:none;stroke-width:.79701;stroke-linecap:butt;stroke-linejoin:miter;stroke:#000;stroke-opacity:1;stroke-miterlimit:10" d="M101.061-7.1c-18.847-4.68-30.945-4.462-49.61.91" transform="matrix(1 0 0 -1 5.181 45.204)"/><path style="stroke:none;fill-rule:nonzero;fill:#000;fill-opacity:1" d="m83.86 55.621 4.18 2.004-1.59-2.047 1.519-2.098"/><g style="fill:#000;fill-opacity:1"><use xlink:href="#l" x="56.005" y="63.786"/><use xlink:href="#k" x="59.639" y="63.786"/><use xlink:href="#f" x="64.246" y="63.786"/><use xlink:href="#h" x="66.805" y="63.786"/><use xlink:href="#n" x="69.364" y="63.786"/><use xlink:href="#h" x="74.482" y="63.786"/><use xlink:href="#u" x="77.041" y="63.786"/><use xlink:href="#i" x="82.159" y="63.786"/><use xlink:href="#e" x="86.254" y="63.786"/><use xlink:href="#c" x="90.861" y="63.786"/><use xlink:href="#h" x="94.444" y="63.786"/><use xlink:href="#k" x="97.003" y="63.786"/><use xlink:href="#b" x="101.61" y="63.786"/></g><path style="fill:none;stroke-width:.79701;stroke-linecap:butt;stroke-linejoin:miter;stroke:#000;stroke-opacity:1;stroke-miterlimit:10" d="M154.057 7.099c21.207 4.68 34.77 4.074 55.477-2.48" transform="matrix(1 0 0 -1 5.181 45.204)"/><path style="stroke:none;fill-rule:nonzero;fill:#000;fill-opacity:1" d="m181.676 35.074-4.192-1.972 1.606 2.035-1.508 2.105"/><use xlink:href="#v" x="162.558" y="31.397" style="fill:#000;fill-opacity:1"/><g style="fill:#000;fill-opacity:1"><use xlink:href="#e" x="166.909" y="31.397"/><use xlink:href="#g" x="171.516" y="31.397"/></g><g style="fill:#000;fill-opacity:1"><use xlink:href="#k" x="176.885" y="31.397"/><use xlink:href="#j" x="181.492" y="31.397"/><use xlink:href="#h" x="185.096" y="31.397"/><use xlink:href="#l" x="187.655" y="31.397"/><use xlink:href="#e" x="191.289" y="31.397"/><use xlink:href="#c" x="195.896" y="31.397"/><use xlink:href="#h" x="199.479" y="31.397"/><use xlink:href="#k" x="202.038" y="31.397"/><use xlink:href="#b" x="206.645" y="31.397"/></g><path style="fill:none;stroke-width:.79701;stroke-linecap:butt;stroke-linejoin:miter;stroke:#000;stroke-opacity:1;stroke-miterlimit:10" d="M209.534-4.62c-20.707-6.551-34.27-7.156-55.477-2.48" transform="matrix(1 0 0 -1 5.181 45.204)"/><path style="stroke:none;fill-rule:nonzero;fill:#000;fill-opacity:1" d="m192.633 54.844 4.351 1.593-1.777-1.886 1.313-2.23"/><g style="fill:#000;fill-opacity:1"><use xlink:href="#f" x="163.871" y="63.443"/><use xlink:href="#h" x="166.43" y="63.443"/><use xlink:href="#p" x="168.989" y="63.443"/><use xlink:href="#q" x="173.851" y="63.443"/><use xlink:href="#w" x="178.97" y="63.443"/><use xlink:href="#t" x="183.068" y="63.443"/><use xlink:href="#e" x="185.884" y="63.443"/><use xlink:href="#i" x="190.49" y="63.443"/><use xlink:href="#c" x="194.585" y="63.443"/><use xlink:href="#h" x="198.168" y="63.443"/><use xlink:href="#k" x="200.727" y="63.443"/><use xlink:href="#b" x="205.334" y="63.443"/></g><path style="fill:none;stroke-width:.79701;stroke-linecap:butt;stroke-linejoin:miter;stroke:#000;stroke-opacity:1;stroke-miterlimit:10" d="M28.346 13.403c73.051 26.422 125.485 26.313 198.43-.402" transform="matrix(1 0 0 -1 5.181 45.204)"/><path style="stroke:none;fill-rule:nonzero;fill:#000;fill-opacity:1" d="m55.04 24.617-4.571-.777 2.09 1.531-.883 2.434"/><path style="stroke:none;fill-rule:nonzero;fill:#fff;fill-opacity:1" d="M107.219 17.156h51.125V6.996h-51.125Zm0 0"/><g style="fill:#000;fill-opacity:1"><use xlink:href="#l" x="109.21" y="15.164"/><use xlink:href="#q" x="112.844" y="15.164"/><use xlink:href="#x" x="117.962" y="15.164"/><use xlink:href="#f" x="123.08" y="15.164"/><use xlink:href="#h" x="125.639" y="15.164"/><use xlink:href="#y" x="128.198" y="15.164"/><use xlink:href="#e" x="135.876" y="15.164"/><use xlink:href="#c" x="140.483" y="15.164"/><use xlink:href="#h" x="144.066" y="15.164"/><use xlink:href="#k" x="146.625" y="15.164"/><use xlink:href="#b" x="151.232" y="15.164"/></g><path style="fill:none;stroke-width:.79701;stroke-linecap:butt;stroke-linejoin:miter;stroke:#000;stroke-opacity:1;stroke-miterlimit:10" d="M226.776-13c-72.945-26.718-125.379-26.823-198.43-.405" transform="matrix(1 0 0 -1 5.181 45.204)"/><path style="stroke:none;fill-rule:nonzero;fill:#000;fill-opacity:1" d="m210.473 65.473 4.574.757-2.098-1.52.875-2.437"/><path style="stroke:none;fill-rule:nonzero;fill:#fff;fill-opacity:1" d="M104.656 83.414h56.25V73.25h-56.25Zm0 0"/><g style="fill:#000;fill-opacity:1"><use xlink:href="#i" x="106.649" y="81.419"/><use xlink:href="#k" x="110.744" y="81.419"/><use xlink:href="#b" x="115.351" y="81.419"/><use xlink:href="#n" x="120.469" y="81.419"/><use xlink:href="#a" x="125.587" y="81.419"/><use xlink:href="#b" x="129.685" y="81.419"/><use xlink:href="#l" x="134.803" y="81.419"/><use xlink:href="#e" x="138.438" y="81.419"/><use xlink:href="#c" x="143.045" y="81.419"/><use xlink:href="#h" x="146.627" y="81.419"/><use xlink:href="#k" x="149.186" y="81.419"/><use xlink:href="#b" x="153.793" y="81.419"/></g></svg>