<svg xmlns="http://www.w3.org/2000/svg" xmlns:xlink="http://www.w3.org/1999/xlink" width="346.139" height="195.98" viewBox="0 0 259.604 146.985"><defs><symbol overflow="visible" id="a"><path style="stroke:none" d="M4.313-3.313c0-.624-.329-.656-.407-.656-.234 0-.469.235-.469.438 0 .14.094.219.157.265.234.22.312.516.312.75 0 .391-.562 2.391-1.594 2.391-.687 0-.687-.625-.687-.797 0-.375.14-.844.453-1.656.14-.375.172-.469.172-.625a.739.739 0 0 0-.766-.766c-.859 0-1.218 1.281-1.218 1.39 0 .079.062.11.125.11.093 0 .109-.062.14-.172.188-.656.547-1.093.922-1.093.172 0 .219.109.219.296 0 .141-.047.313-.125.516-.313.875-.531 1.438-.531 1.89 0 .845.64 1.126 1.25 1.126 1.515 0 2.046-2.828 2.046-3.406Zm0 0"/></symbol><symbol overflow="visible" id="t"><path style="stroke:none" d="M3.938-5.469c.046-.187.078-.281.218-.312.078-.016.36-.016.547-.016 1.031 0 1.344.063 1.344.766 0 .11 0 .25-.078.781l-.016.078c0 .063.031.125.125.125.11 0 .125-.094.14-.219l.235-1.562c.016-.031.016-.094.016-.125 0-.125-.078-.125-.25-.125h-5.11c-.218 0-.218.016-.28.187L.265-4.312c-.032.109-.032.14-.032.14 0 .047.032.125.11.125.11 0 .125-.062.172-.219.5-1.406.78-1.53 2.078-1.53h.344c.25 0 .25.03.25.109 0 .046-.016.109-.032.187L1.953-.703c-.078.312-.11.422-1.062.422-.282 0-.36 0-.36.172C.531 0 .641 0 .687 0c.235 0 .485-.016.735-.016s.5-.015.75-.015c.406 0 .422 0 .75.015.125 0 .703.016.781.016.078 0 .188 0 .188-.156 0-.125-.079-.125-.297-.125-.235 0-.344 0-.578-.016-.204-.031-.313-.031-.313-.187 0-.047.016-.11.031-.172Zm0 0"/></symbol><symbol overflow="visible" id="x"><path style="stroke:none" d="M6.203-2.031c.11-.047.188-.094.188-.219s-.11-.172-.188-.203L1.141-4.891c-.125-.062-.157-.062-.188-.062a.19.19 0 0 0-.187.187c0 .11.062.157.187.22L5.75-2.25.953.047C.828.109.766.157.766.266c0 .062.062.187.203.187.015 0 .047 0 .156-.047Zm0 0"/></symbol><symbol overflow="visible" id="z"><path style="stroke:none" d="M.406 1.125c-.062.25-.078.344-.453.344-.11 0-.219 0-.219.156 0 .031.032.11.125.11l.375-.016H1.078c.156 0 .297.015.438.015.046 0 .171 0 .171-.156 0-.11-.093-.11-.25-.11-.421 0-.421-.062-.421-.155a2.9 2.9 0 0 1 .109-.438l.328-1.328c.094.187.344.547.86.547C3.359.094 4.5-1.172 4.5-2.516c0-.906-.563-1.453-1.234-1.453-.188 0-.641.047-1.188.656-.125-.5-.547-.656-.844-.656-.375 0-.578.281-.703.531-.14.313-.265.813-.265.86 0 .078.062.11.125.11.093 0 .109-.048.156-.235.172-.703.36-1.031.656-1.031.281 0 .281.28.281.421 0 .063-.015.204-.03.266Zm1.625-3.89c.047-.172.047-.188.172-.329.235-.312.64-.64 1.047-.64.422 0 .594.421.594.843 0 .391-.25 1.516-.531 1.985-.313.515-.688.781-1.016.781-.578 0-.735-.703-.735-.766 0-.062.032-.109.032-.156Zm0 0"/></symbol><symbol overflow="visible" id="b"><path style="stroke:none" d="M2.438-2.406a.332.332 0 0 0-.11.234c0 .156.11.281.297.281.188 0 .281-.14.281-.296 0-.47-.656-.485-.937-.485h-.063c-.422 0-.812.11-1.14.39a1.374 1.374 0 0 0-.438 1c0 .766.703 1.329 1.5 1.329.453 0 .89-.172 1.11-.61.015-.046.046-.109.046-.156 0-.062-.046-.094-.109-.094-.125 0-.125.141-.172.22-.156.28-.484.437-.781.437C1.344-.156.89-.61.89-1.281c0-.485.187-1.047.765-1.157.094-.015.188-.015.282-.015.171 0 .343.015.5.047Zm0 0"/></symbol><symbol overflow="visible" id="y"><path style="stroke:none" d="M4.188-3.688a1.84 1.84 0 0 0-1.329-.53c-1.203 0-2.39.89-2.39 2.171C.469-.734 1.703.125 2.875.125c.844 0 1.86-.531 1.86-1.547v-.031c-.016-.063-.079-.094-.126-.094-.062 0-.109.031-.109.11v.046c-.078.813-.813 1.266-1.547 1.266-.625 0-1.265-.313-1.578-.875-.172-.313-.234-.672-.234-1.031 0-.344.062-.703.218-1.016.297-.594.938-.937 1.594-.937.75 0 1.406.578 1.516 1.328.015.094.015.172.14.172.11 0 .125-.063.125-.125v-1.5c0-.063-.03-.11-.093-.11-.094 0-.22.203-.282.313a1.18 1.18 0 0 0-.171.219Zm0 0"/></symbol><symbol overflow="visible" id="g"><path style="stroke:none" d="M4.094-2.25c0-1-.828-1.781-1.782-1.781A1.794 1.794 0 0 0 .516-2.25c0 1 .828 1.797 1.78 1.797A1.807 1.807 0 0 0 4.095-2.25Zm0 0"/></symbol><symbol overflow="visible" id="h"><path style="stroke:none" d="M.344-6.11v.282h.344c.296 0 .562.031.562.39v4.75c0 .36-.297.407-.594.407H.344v.265h5.265L6-2.328h-.25c-.094.562-.188 1.203-.563 1.61-.406.421-1.046.437-1.593.437h-1.14c-.188 0-.392 0-.392-.328v-2.438h.86c.312 0 .672.031.828.297.125.188.14.438.14.672v.094h.25v-2.391h-.25v.094c0 .5-.124.906-.687.937-.156.031-.344.031-.515.031h-.626v-2.203c0-.312.188-.312.391-.312h1.172c.625 0 1.328.031 1.656.719.14.328.172.671.219 1.015h.25L5.5-6.109Zm0 0"/></symbol><symbol overflow="visible" id="l"><path style="stroke:none" d="M.344-6.14v.28h.344c.296 0 .562.048.562.391v4.782c0 .39-.313.406-.656.406h-.25v.265h4.765l.25-2.312h-.25C5.016-1.5 4.938-.625 3.83-.344c-.25.063-.5.063-.767.063h-.671c-.204 0-.329-.094-.329-.313v-4.843c0-.329.188-.375.376-.391.25-.031.515-.031.765-.031v-.282Zm0 0"/></symbol><symbol overflow="visible" id="m"><path style="stroke:none" d="M.36-3.86v.266H.5c.297 0 .516.047.516.453v2.485c0 .36-.25.375-.688.375v.265h1.938V-.28h-.141c-.234 0-.469-.031-.469-.313v-3.375Zm.765-2.156c-.234.047-.422.235-.422.485s.219.468.485.468h.062a.474.474 0 0 0 .422-.468.477.477 0 0 0-.484-.485Zm0 0"/></symbol><symbol overflow="visible" id="n"><path style="stroke:none" d="M3.484-.531v1.625c0 .328-.187.36-.687.36v.28l.64-.03h1.407v-.25h-.188c-.281 0-.5-.032-.5-.376v-5.047l-.218.016-.11.203-.234.578c-.094-.11-.156-.234-.235-.328a1.316 1.316 0 0 0-1.03-.469c-1.079 0-2.017.906-2.017 2.016 0 1.047.813 2.047 1.954 2.047.453 0 .984-.235 1.218-.625ZM1.078-1.797v-.11c0-.734.39-1.765 1.297-1.812h.031c.578 0 1.016.563 1.11 1.094v1.406c0 .735-.922 1.078-1.204 1.078h-.046C1.609-.188 1.25-.859 1.14-1.42c-.032-.126-.032-.25-.063-.376Zm0 0"/></symbol><symbol overflow="visible" id="o"><path style="stroke:none" d="M3.469-2.36H.656c-.078 0-.14.032-.14.11 0 .094.078.11.14.11H3.47V.671c0 .078.031.14.11.156.077 0 .108-.078.108-.14v-2.829h2.829c.062 0 .125-.03.125-.109 0-.078-.079-.11-.141-.11H3.687v-2.812c0-.062-.015-.14-.093-.14-.094 0-.125.062-.125.14Zm0 0"/></symbol><symbol overflow="visible" id="p"><path style="stroke:none" d="M5.484-.578c.11.234.438.562.563.562.078 0 .094-.078.094-.14v-1.516c0-.047-.016-.11-.016-.172 0-.328.266-.343.594-.343h.047v-.282l-.641.031H4.172v.25c.156 0 .312-.015.469-.015.375 0 .703.062.703.453 0 .078-.016.156-.016.219 0 .093.016.187.016.297 0 .515-.36 1.14-1.485 1.14-.843 0-1.64-.469-2.046-1.218-.297-.547-.391-1.188-.391-1.797 0-.625.11-1.282.437-1.829.407-.656 1.157-1.109 1.938-1.109 1.094 0 1.828.953 2.031 2.016.016.11.016.265.156.265.125 0 .157-.062.157-.14v-2.219c0-.094 0-.203-.11-.203-.156 0-.406.531-.61.781-.359-.531-1.124-.781-1.75-.781-1.718 0-3.155 1.516-3.155 3.25C.516-1.422 1.796.187 3.75.187c.688 0 1.281-.187 1.734-.765Zm0 0"/></symbol><symbol overflow="visible" id="q"><path style="stroke:none" d="M1.094-3.484c.25-.22.61-.313.937-.313.313 0 .594.172.781.438.172.25.172.53.172.828v.156c-.734.078-1.468.078-2.093.547-.297.219-.516.578-.516.937 0 .735.875.985 1.469.985.547 0 .968-.281 1.218-.75.079.375.297.703.704.703.546 0 .78-.453.78-.953v-.406h-.25v.453c0 .25-.046.593-.327.593-.297 0-.313-.39-.313-.593v-1.75c0-.938-.812-1.407-1.61-1.407-.562 0-1.39.235-1.39.938 0 .25.14.437.469.437.219-.015.36-.218.36-.421 0-.25-.188-.376-.391-.422Zm1.89 1.328v.875c0 .625-.437 1.14-1.062 1.14h-.063c-.421-.03-.75-.359-.75-.75 0-.859 1.032-1.265 1.875-1.265Zm0 0"/></symbol><symbol overflow="visible" id="r"><path style="stroke:none" d="M.484-3.86.391-2.39h.25c.015-.313.03-.688.234-.938.219-.281.625-.313 1-.313h1c-.281.329-.531.688-.781 1.016A110.04 110.04 0 0 0 .359-.344C.313-.28.266-.219.266-.14c0 .11.078.125.156.125h3.125l.156-1.703h-.25c-.031.375-.062.813-.281 1.094-.25.344-.703.36-1.094.36h-1a163.476 163.476 0 0 0 2.484-3.266c.047-.063.11-.125.11-.203 0-.094-.063-.125-.14-.125Zm0 0"/></symbol><symbol overflow="visible" id="i"><path style="stroke:none" d="M1.766-1.984c.5 0 .843.343.843.953 0 .656-.39.937-.828.937C1.61-.094 1-.125.734-.469c.235-.031.329-.187.329-.344a.328.328 0 0 0-.344-.343.34.34 0 0 0-.344.36c0 .593.656.921 1.422.921.89 0 1.469-.563 1.469-1.156 0-.438-.329-.907-1.047-1.078.484-.157.86-.547.86-1.032 0-.484-.563-.843-1.282-.843-.703 0-1.234.328-1.234.812 0 .266.203.328.328.328.156 0 .312-.094.312-.312 0-.188-.125-.297-.297-.313.281-.312.828-.312.89-.312.298 0 .688.14.688.64 0 .329-.187.907-.796.938-.11 0-.266.015-.313.015-.063.016-.125.016-.125.11s.063.094.156.094Zm0 0"/></symbol><symbol overflow="visible" id="j"><path style="stroke:none" d="M1.016-3.328c.203.062.406.078.609.078.14 0 .469 0 .844-.203.11-.063.469-.313.469-.438 0-.078-.047-.093-.079-.093-.015 0-.015 0-.093.03a2.513 2.513 0 0 1-.907.173c-.296 0-.609-.063-.89-.156C.922-3.97.89-3.985.875-3.985c-.094 0-.094.078-.094.171v1.797c0 .094 0 .172.11.172.062 0 .078-.031.109-.078.156-.187.422-.39.89-.39.735 0 .735.89.735 1.078 0 .234-.016.578-.219.828a.95.95 0 0 1-.719.312C1.281-.094.86-.312.72-.672c.297 0 .328-.234.328-.297a.304.304 0 0 0-.313-.312.303.303 0 0 0-.296.328C.438-.406.953.125 1.702.125c.828 0 1.516-.578 1.516-1.328A1.3 1.3 0 0 0 1.89-2.5c-.375 0-.688.125-.875.281Zm0 0"/></symbol><symbol overflow="visible" id="k"><path style="stroke:none" d="M3.375-.984v-.235h-.703v-2.64c0-.141 0-.188-.14-.188-.11 0-.126.031-.173.094L.281-1.22v.235h1.86V-.5c0 .188 0 .266-.5.266h-.188V0c.125 0 .688-.031.953-.031.266 0 .828.031.938.031v-.234h-.172c-.5 0-.5-.078-.5-.266v-.484ZM2.172-3.391v2.172H.532Zm0 0"/></symbol><symbol overflow="visible" id="v"><path style="stroke:none" d="M2.14-3.797c0-.187-.015-.187-.203-.187-.39.39-1 .39-1.218.39v.235c.156 0 .562 0 .922-.172v3.015c0 .204 0 .282-.625.282h-.25V0c.328-.031.796-.031 1.125-.031.328 0 .796 0 1.125.031v-.234h-.25c-.625 0-.625-.078-.625-.282Zm0 0"/></symbol><symbol overflow="visible" id="w"><path style="stroke:none" d="M3.219-1.125H3c-.016.094-.078.484-.156.547-.047.047-.531.047-.625.047h-1.11l.766-.625c.203-.172.734-.547.922-.735.172-.171.422-.484.422-.906 0-.75-.672-1.187-1.485-1.187-.765 0-1.296.515-1.296 1.078 0 .297.25.344.312.344a.32.32 0 0 0 .328-.329c0-.125-.078-.328-.344-.328.141-.297.5-.531.922-.531.625 0 .953.469.953.953 0 .422-.28.86-.687 1.25L.5-.25C.437-.187.437-.187.437 0h2.594Zm0 0"/></symbol><symbol overflow="visible" id="u"><path style="stroke:none" d="M6.344-2.969c.125 0 .297 0 .297-.187 0-.203-.188-.203-.329-.203H.845c-.14 0-.328 0-.328.203 0 .187.171.187.296.187ZM6.312-1.14c.141 0 .329 0 .329-.203 0-.187-.172-.187-.297-.187H.812c-.125 0-.296 0-.296.187 0 .203.187.203.328.203Zm0 0"/></symbol><clipPath id="c"><path d="M25 11h32v122.027H25Zm0 0"/></clipPath><clipPath id="d"><path d="M45 11h190v122.027H45Zm0 0"/></clipPath><clipPath id="e"><path d="M13.594 7.781h238.633v125.246H13.594Zm0 0"/></clipPath><clipPath id="f"><path d="M17 7.781h235.227v125.246H17Zm0 0"/></clipPath><clipPath id="s"><path d="M13.594 79H27v8H13.594Zm0 0"/></clipPath></defs><path style="fill:none;stroke-width:.3985;stroke-linecap:butt;stroke-linejoin:miter;stroke:#000;stroke-opacity:1;stroke-miterlimit:10" d="M.002.002h236.64" transform="matrix(1 0 0 -1 13.592 133.029)"/><path style="stroke:none;fill-rule:nonzero;fill:#000;fill-opacity:1" d="m252.227 133.027-3.188-1.593 1.195 1.593-1.195 1.594"/><path style="fill:none;stroke-width:.3985;stroke-linecap:butt;stroke-linejoin:miter;stroke:#000;stroke-opacity:1;stroke-miterlimit:10" d="M.002.002v123.254" transform="matrix(1 0 0 -1 13.592 133.029)"/><path style="stroke:none;fill-rule:nonzero;fill:#000;fill-opacity:1" d="m13.594 7.781-1.598 3.188 1.598-1.196 1.594 1.196"/><path style="fill:none;stroke-width:.19925;stroke-linecap:butt;stroke-linejoin:miter;stroke:gray;stroke-opacity:1;stroke-miterlimit:10" d="M37.06-2.127v4.254" transform="matrix(1 0 0 -1 13.592 133.029)"/><use xlink:href="#a" x="46.532" y="141.007" style="fill:#000;fill-opacity:1"/><use xlink:href="#b" x="51.009" y="142.004" style="fill:#000;fill-opacity:1"/><g clip-path="url(#c)"><path style="fill:none;stroke-width:.3985;stroke-linecap:butt;stroke-linejoin:miter;stroke:gray;stroke-opacity:1;stroke-dasharray:2.98883,2.98883;stroke-miterlimit:10" d="m17.334.002.039.96.043.965.043.961.086 1.93.043.961.086 1.93.043.96.043.965.046.965.043.961.043.965.047.965.043.96.047.966.043.96.094 1.93.047.961.047.965.043.965.05.96.094 1.93.047.962.05.964.048.965.05.961.047.965.051.96.102 1.93.05.962.102 1.93.055.96.05.965.055.965.05.96.056.966.054.96.055.965.059.965.054.961.055.965.059.965.058.96.117 1.93.059.961.058.965.063.965.062.961.06.965.065.96.125 1.93.067.962.133 1.93.066.96.14 1.93.071.96.074.966.07.964.075.961.074.965.078.961.156 1.93.079.96.082.966.085.964.082.961.086.965.09.965.09.961.09.965.094.96.195 1.93.098.961.101.965.106.965.11.961.218 1.93.117.96.117.966.121.964.125.961.13.965.132.961.137.965.14.965.145.96.148.966.157.964.16.961.164.965.172.965.183.961.188.965.195.96.207.966.219.964.234.961.25.965.274.965.297.961.328.965.367.965.422.96.492.965.586.965.73.961.957.965 1.5.961 4.793.617" transform="matrix(1 0 0 -1 13.592 133.029)"/></g><g clip-path="url(#d)"><path style="fill:none;stroke-width:.3985;stroke-linecap:butt;stroke-linejoin:miter;stroke:gray;stroke-opacity:1;stroke-dasharray:2.98883,2.98883;stroke-miterlimit:10" d="m215.13.002-2.636.96-2.59.965-2.543.961-2.492.965-2.445.965-2.41.961-2.364.965-2.328.965-2.289.96-2.246.965-2.219.965-2.172.961-2.133.965-2.113.965-2.066.96-2.04.966-2.003.96-1.98.965-1.946.965-1.922.961-1.883.965-1.863.965-1.836.96-1.8.966-1.782.965-1.754.96-1.73.965-1.703.965-1.684.961-1.672.965-1.633.96-1.61.966-1.6.965-1.575.96-1.55.965-1.54.965-1.504.961-1.504.965-1.48.965-1.453.96-1.445.966-1.418.96-1.41.965-1.383.965-1.383.961-1.363.965-1.336.965-1.336.96-1.313.966-1.3.965-1.278.96-1.273.965-1.266.965-1.242.961-1.235.965-1.218.96-1.211.966-1.196.965-1.187.96-1.176.965-1.16.965-1.152.961-1.145.965-1.133.965-1.12.96-1.114.966-1.106.964-1.093.961-1.086.965-1.078.961-1.07.965-1.063.965-1.055.96-2.086 1.93-1.031.961-1.027.965-1.02.965-1.012.961-1.007.965-1.004.96-.996.966-.993.965-.988.96-.984.965-.98.965-.981.961-.973.965-.969.965-.968.96-.97.966-.964.964-.965.961-.969.965-.964.961-.965.965-.969.965-.973.96-.972.966-.98.964-.985.961-.992.965-1 .965-1.008.961-1.02.965-1.035.96-1.05.966-1.07.964-1.095.961-1.117.965-1.148.965-1.192.961-1.234.965-1.293.965-1.367.96-1.465.965-1.59.965-1.785.961-2.11.965-2.906.961-6.46.617" transform="matrix(1 0 0 -1 13.592 133.029)"/></g><g clip-path="url(#e)"><path style="fill:none;stroke-width:.99628;stroke-linecap:butt;stroke-linejoin:miter;stroke:#00adef;stroke-opacity:1;stroke-miterlimit:10" d="m238.635 1.29-.692.145-.691.14-.692.145-.691.141-2.074.434-2.075.445-.69.144-.692.149-.692.152-.691.149-.692.152-.69.148-.692.153-.692.156-.687.152-.692.153-2.765.625-.692.16-.691.156-2.074.48-.692.165-.691.16-2.074.492-1.383.336-.692.164-1.382.336-.692.172-.691.168-1.383.344-.691.175-.692.172-2.765.703-2.075.54-.691.183-.691.18-.692.183-.687.188-1.383.367-1.383.375-.691.191-.692.188-1.383.383-.691.195-.691.191-1.383.391-.692.2-.691.195-1.383.398-2.766.813-1.382.414-.692.21-.691.208-1.383.421-2.766.86-.691.219-.691.222-1.383.438-.692.226-.691.223-.688.226-1.382.454-.692.23-.691.234-.692.23-.69.235H18.212l-6.282 125.25" transform="matrix(1 0 0 -1 13.592 133.029)"/></g><g clip-path="url(#f)"><path style="fill:none;stroke-width:.99628;stroke-linecap:butt;stroke-linejoin:miter;stroke:#00adef;stroke-opacity:1;stroke-miterlimit:10" d="m238.635 9.642-1.579.352-1.574.355-1.578.36-1.574.363-1.578.367-1.574.371-1.579.371-1.574.38-1.578.378-1.574.39-1.578.387-1.575.395-1.578.398-1.574.403-1.578.406-1.574.414-1.578.414-1.575.422-1.578.426-1.574.43-1.578.437-1.574.438-1.578.445-1.575.453-1.578.457-1.574.46-1.578.466-1.574.476-1.578.477-1.575.484-1.578.492-1.574.497-1.578.503-1.574.508-1.578.516-1.575.523-1.578.528-1.574.539-1.578.543-1.574.55-1.578.56-1.575.566-1.578.574-1.574.578-1.578.59-1.574.601-1.578.606-1.575.617-1.578.625-1.574.629-1.578.648-1.574.653-1.579.664-1.574.672-1.578.683-1.574.692-1.578.707-1.574.714-1.579.73-1.574.74-1.578.753-1.574.766-1.578.777-1.574.793-1.579.805-1.574.816-1.578.836-1.574.848-1.578.867-1.574.875-1.579.898-1.574.91-1.578.934-1.574.945-1.578.97-1.575.98-1.578 1-1.574 1.03-1.578 1.063-1.574 1.059-1.578 1.098-1.575 1.109-1.578 1.145-1.574 1.156-1.578 1.187-1.574 1.223-1.578 1.25-1.575 1.281-1.578 1.313-1.574 1.328-1.578 1.367-1.574 1.418-1.578 1.437-1.575 1.493-1.578 1.511-1.574 1.551-1.578 1.61-1.574 1.648-1.578 1.703H22.654l-4.758 60.7" transform="matrix(1 0 0 -1 13.592 133.029)"/></g><path style="fill:none;stroke-width:.79701;stroke-linecap:butt;stroke-linejoin:miter;stroke:#ff9d00;stroke-opacity:1;stroke-miterlimit:10" d="M119.318 19.267V52.99" transform="matrix(1 0 0 -1 13.592 133.029)"/><path style="stroke:none;fill-rule:nonzero;fill:#ff9d00;fill-opacity:1" d="m132.91 96.754-2.074 4.144 2.074-1.554 2.07 1.554"/><use xlink:href="#g" x="130.604" y="115.777" style="fill:#ff9d00;fill-opacity:1"/><use xlink:href="#h" x="127.698" y="121.928" style="fill:#ff9d00;fill-opacity:1"/><use xlink:href="#i" x="133.967" y="122.924" style="fill:#ff9d00;fill-opacity:1"/><use xlink:href="#g" x="130.604" y="82.057" style="fill:#ff9d00;fill-opacity:1"/><use xlink:href="#h" x="127.698" y="77.051" style="fill:#ff9d00;fill-opacity:1"/><use xlink:href="#j" x="133.967" y="78.048" style="fill:#ff9d00;fill-opacity:1"/><path style="fill:none;stroke-width:.79701;stroke-linecap:butt;stroke-linejoin:miter;stroke:#ff9d00;stroke-opacity:1;stroke-miterlimit:10" d="M21.478 19.267v77.078" transform="matrix(1 0 0 -1 13.592 133.029)"/><path style="stroke:none;fill-rule:nonzero;fill:#ff9d00;fill-opacity:1" d="m35.07 96.754-2.074 4.144 2.074-1.554 2.07 1.554"/><use xlink:href="#g" x="32.765" y="115.777" style="fill:#ff9d00;fill-opacity:1"/><path style="stroke:none;fill-rule:nonzero;fill:#fff;fill-opacity:1" d="M29.86 122.926H40.28v-7.172H29.86Zm0 0"/><use xlink:href="#h" x="29.859" y="121.928" style="fill:#ff9d00;fill-opacity:1"/><use xlink:href="#i" x="36.128" y="122.924" style="fill:#ff9d00;fill-opacity:1"/><use xlink:href="#g" x="32.765" y="38.703" style="fill:#ff9d00;fill-opacity:1"/><path style="stroke:none;fill-rule:nonzero;fill:#fff;fill-opacity:1" d="M29.86 34.691H40.28V27.52H29.86Zm0 0"/><use xlink:href="#h" x="29.859" y="33.697" style="fill:#ff9d00;fill-opacity:1"/><use xlink:href="#k" x="36.128" y="34.693" style="fill:#ff9d00;fill-opacity:1"/><path style="stroke:none;fill-rule:nonzero;fill:#fff;fill-opacity:1" d="M63.313 86.89h36.273v-7.917H63.313Zm0 0"/><g style="fill:#000;fill-opacity:1"><use xlink:href="#l" x="63.31" y="85.147"/><use xlink:href="#m" x="69.067" y="85.147"/><use xlink:href="#n" x="71.626" y="85.147"/><use xlink:href="#o" x="76.489" y="85.147"/><use xlink:href="#p" x="83.655" y="85.147"/><use xlink:href="#q" x="90.884" y="85.147"/><use xlink:href="#r" x="95.491" y="85.147"/></g><g style="fill:#000;fill-opacity:1" clip-path="url(#s)"><use xlink:href="#l" x="12.967" y="85.147"/><use xlink:href="#m" x="18.724" y="85.147"/><use xlink:href="#n" x="21.283" y="85.147"/></g><path style="stroke:none;fill-rule:nonzero;fill:#fff;fill-opacity:1" d="M158.766 86.02h15.933v-6.176h-15.933Zm0 0"/><g style="fill:#000;fill-opacity:1"><use xlink:href="#p" x="158.765" y="86.019"/><use xlink:href="#q" x="165.995" y="86.019"/><use xlink:href="#r" x="170.602" y="86.019"/></g><use xlink:href="#t" x="53.049" y="110.771" style="fill:#000;fill-opacity:1"/><use xlink:href="#u" x="62.265" y="110.771" style="fill:#000;fill-opacity:1"/><use xlink:href="#t" x="71.992" y="110.771" style="fill:#000;fill-opacity:1"/><use xlink:href="#v" x="77.368" y="111.768" style="fill:#000;fill-opacity:1"/><use xlink:href="#t" x="42.142" y="46.222" style="fill:#000;fill-opacity:1"/><use xlink:href="#u" x="51.358" y="46.222" style="fill:#000;fill-opacity:1"/><use xlink:href="#t" x="61.085" y="46.222" style="fill:#000;fill-opacity:1"/><use xlink:href="#w" x="66.461" y="47.218" style="fill:#000;fill-opacity:1"/><use xlink:href="#x" x="73.172" y="46.222" style="fill:#000;fill-opacity:1"/><use xlink:href="#t" x="82.895" y="46.222" style="fill:#000;fill-opacity:1"/><use xlink:href="#v" x="88.275" y="47.218" style="fill:#000;fill-opacity:1"/><path style="fill-rule:nonzero;fill:#fff;fill-opacity:1;stroke-width:.3985;stroke-linecap:butt;stroke-linejoin:miter;stroke:#000;stroke-opacity:1;stroke-miterlimit:10" d="M39.053 116.228a1.99 1.99 0 0 1-1.993 1.992 1.993 1.993 0 1 1 1.992-1.992Zm0 0" transform="matrix(1 0 0 -1 13.592 133.029)"/><path style="stroke:none;fill-rule:nonzero;fill:#fff;fill-opacity:1" d="M48.05 25.84h5.204V21.78H48.05Zm0 0"/><use xlink:href="#y" x="48.051" y="25.842" style="fill:#000;fill-opacity:1"/><use xlink:href="#a" x="249.825" y="140.874" style="fill:#000;fill-opacity:1"/><use xlink:href="#z" x="4.981" y="8.842" style="fill:#000;fill-opacity:1"/></svg>