<svg xmlns="http://www.w3.org/2000/svg" xmlns:xlink="http://www.w3.org/1999/xlink" width="288.225" height="266.199" viewBox="0 0 216.169 199.649"><defs><symbol overflow="visible" id="a"><path style="stroke:none" d="M3.938-5.469c.046-.187.078-.281.218-.312.078-.016.36-.016.547-.016 1.031 0 1.344.063 1.344.766 0 .11 0 .25-.078.781l-.016.078c0 .063.031.125.125.125.11 0 .125-.094.14-.219l.235-1.562c.016-.031.016-.094.016-.125 0-.125-.078-.125-.25-.125h-5.11c-.218 0-.218.016-.28.187L.265-4.312c-.032.109-.032.14-.032.14 0 .047.032.125.11.125.11 0 .125-.062.172-.219.5-1.406.78-1.53 2.078-1.53h.344c.25 0 .25.03.25.109 0 .046-.016.109-.032.187L1.953-.703c-.078.312-.11.422-1.062.422-.282 0-.36 0-.36.172C.531 0 .641 0 .687 0c.235 0 .485-.016.735-.016s.5-.015.75-.015c.406 0 .422 0 .75.015.125 0 .703.016.781.016.078 0 .188 0 .188-.156 0-.125-.079-.125-.297-.125-.235 0-.344 0-.578-.016-.204-.031-.313-.031-.313-.187 0-.047.016-.11.031-.172Zm0 0"/></symbol><symbol overflow="visible" id="ac"><path style="stroke:none" d="M6.938-6.078c.03-.11.03-.125.03-.14 0-.016-.015-.11-.109-.11-.046 0-.078.031-.14.11l-.547.593c-.031.047-.078.078-.078.078-.016 0-.016 0-.078-.062-.125-.188-.532-.72-1.47-.72-2.046 0-4.093 2-4.093 4.048C.453-.828 1.531.203 2.97.203c.937 0 1.672-.484 2.015-.797.813-.734.97-1.515.97-1.562 0-.031-.016-.094-.126-.094-.094 0-.11.047-.125.094C5.266-.72 3.984-.078 3.078-.078c-.86 0-1.781-.531-1.781-1.89 0-.407.125-1.813 1.031-2.923.547-.64 1.422-1.156 2.281-1.156 1 0 1.532.766 1.532 1.75 0 .313-.032.375-.032.438 0 .093.11.093.141.093.11 0 .11-.015.156-.187Zm0 0"/></symbol><symbol overflow="visible" id="aG"><path style="stroke:none" d="M.406 1.125c-.062.25-.078.344-.453.344-.11 0-.219 0-.219.156 0 .031.032.11.125.11l.375-.016H1.078c.156 0 .297.015.438.015.046 0 .171 0 .171-.156 0-.11-.093-.11-.25-.11-.421 0-.421-.062-.421-.155a2.9 2.9 0 0 1 .109-.438l.328-1.328c.094.187.344.547.86.547C3.359.094 4.5-1.172 4.5-2.516c0-.906-.563-1.453-1.234-1.453-.188 0-.641.047-1.188.656-.125-.5-.547-.656-.844-.656-.375 0-.578.281-.703.531-.14.313-.265.813-.265.86 0 .078.062.11.125.11.093 0 .109-.048.156-.235.172-.703.36-1.031.656-1.031.281 0 .281.28.281.421 0 .063-.015.204-.03.266Zm1.625-3.89c.047-.172.047-.188.172-.329.235-.312.64-.64 1.047-.64.422 0 .594.421.594.843 0 .391-.25 1.516-.531 1.985-.313.515-.688.781-1.016.781-.578 0-.735-.703-.735-.766 0-.062.032-.109.032-.156Zm0 0"/></symbol><symbol overflow="visible" id="b"><path style="stroke:none" d="M.234-2.578v.234h.11c.25 0 .328.031.578.547.25.547.531 1.078.797 1.625l.047.11c.015.015.03.03.03.062-.015.078-.109.234-.171.344-.156.297-.375.672-.75.672A.73.73 0 0 1 .609.969V.953C.703.922.766.813.766.703.766.531.625.438.484.438.328.438.22.561.22.718c0 .329.344.5.625.5.672 0 .922-.671 1.172-1.187C2.28-.484 2.53-1 2.78-1.516l.188-.343c.11-.266.265-.485.64-.485v-.234l-.562.015-.485-.015v.234c.11 0 .235.094.235.219 0 .172-.14.39-.235.563-.093.187-.187.39-.28.578l-.126.25c-.031.062-.062.125-.078.171h-.015c-.047-.125-.141-.265-.204-.39-.171-.375-.359-.75-.546-1.125-.016-.031-.047-.078-.047-.125v-.016c.015-.11.218-.125.312-.125v-.234Zm0 0"/></symbol><symbol overflow="visible" id="c"><path style="stroke:none" d="M2.438-2.406a.332.332 0 0 0-.11.234c0 .156.11.281.297.281.188 0 .281-.14.281-.296 0-.47-.656-.485-.937-.485h-.063c-.422 0-.812.11-1.14.39a1.374 1.374 0 0 0-.438 1c0 .766.703 1.329 1.5 1.329.453 0 .89-.172 1.11-.61.015-.046.046-.109.046-.156 0-.062-.046-.094-.109-.094-.125 0-.125.141-.172.22-.156.28-.484.437-.781.437C1.344-.156.89-.61.89-1.281c0-.485.187-1.047.765-1.157.094-.015.188-.015.282-.015.171 0 .343.015.5.047Zm0 0"/></symbol><symbol overflow="visible" id="e"><path style="stroke:none" d="M2.86-3.234a.385.385 0 0 0-.25.359c.015.234.187.36.437.36.219 0 .328-.204.312-.376 0-.578-.687-.671-1.171-.703h-.094C1.063-3.563.234-2.75.25-1.719c.016.985.86 1.782 1.875 1.75.563 0 1.11-.312 1.313-.86.015-.062.062-.124.062-.187 0-.078-.047-.109-.11-.109-.156 0-.124.172-.234.313-.172.359-.531.593-.937.593C1.39-.203.969-.969.953-1.78c-.015-.64.235-1.563 1.156-1.578.22 0 .532.015.75.125Zm0 0"/></symbol><symbol overflow="visible" id="f"><path style="stroke:none" d="M1.86-3.625C.952-3.5.124-2.812.171-1.687.219-.61 1.219.03 2.14 0c.921-.031 1.828-.797 1.796-1.844-.03-1.031-.921-1.812-1.968-1.781ZM.874-1.578v-.203c-.016-.422 0-.969.328-1.297.203-.219.5-.313.797-.328.813-.031 1.188.625 1.219 1.453.015.437.015.922-.266 1.297-.219.25-.515.39-.844.406-.593.016-1.062-.39-1.187-1-.016-.11-.016-.219-.047-.328Zm0 0"/></symbol><symbol overflow="visible" id="g"><path style="stroke:none" d="m.11-3.438.015.266.11-.015c.203 0 .453 0 .5.218.015.078.03.172.03.25L.86-1.14c.016.235.047.454.157.657.265.375.765.453 1.156.437.375-.031.719-.172.922-.469a.68.68 0 0 0 .156-.25l.047.657 1.187-.172-.015-.25-.157.015c-.218.016-.453 0-.468-.359l-.172-2.86-1.219.157.016.265h.094c.28-.015.515-.015.546.36l.079 1.36c.03.64-.282 1.265-.97 1.312-.28.015-.64-.031-.702-.438-.032-.14-.032-.297-.047-.437l-.14-2.453Zm0 0"/></symbol><symbol overflow="visible" id="h"><path style="stroke:none" d="m-.016-3.422.032.266.125-.016c.25-.015.484-.031.515.344l.172 2.14C.86-.358.656-.313.25-.28l.016.25.484-.063.906-.078.563-.016-.016-.25c-.078 0-.172 0-.281.016-.25.016-.484 0-.5-.297l-.11-1.328c-.046-.562.204-1.375.875-1.437a.45.45 0 0 0-.078.312c.016.219.188.344.36.328a.377.377 0 0 0 .344-.39c-.032-.344-.391-.485-.672-.47-.454.048-.891.5-.938.938l-.078-.843-.39.062Zm0 0"/></symbol><symbol overflow="visible" id="i"><path style="stroke:none" d="m-.313-5.453.032.266.125-.016c.25-.016.484-.016.531.344l.5 4.75.234-.016.235-.516c.343.297.718.5 1.187.454.969-.11 1.781-.97 1.672-1.985-.094-.937-.937-1.719-1.969-1.61a1.556 1.556 0 0 0-1.093.61L.875-5.656Zm3.844 3.531c0 .313-.015.672-.219.969-.203.312-.515.5-.859.531-.344.047-1.031-.203-1.078-.656l-.14-1.25c0-.094-.016-.203-.032-.297-.047-.469.531-.875 1-.922.89-.094 1.235.813 1.297 1.453.016.063.016.11.031.172Zm0 0"/></symbol><symbol overflow="visible" id="j"><path style="stroke:none" d="m.672-1.938 2.422-.328c.094-.015.14-.062.125-.156C3.172-2.828 3-3.266 2.656-3.5c-.312-.266-.703-.344-1.11-.281-.937.125-1.687.937-1.546 2 .125.89.953 1.734 2.11 1.578.578-.078 1.156-.531 1.234-1.14.015-.016.015-.048.015-.063-.015-.063-.062-.125-.125-.11-.156.016-.14.25-.203.375-.156.36-.515.61-.906.672A1.211 1.211 0 0 1 1-.953C.812-1.22.719-1.578.672-1.938Zm0-.218c.015-.469.031-.938.469-1.235a.72.72 0 0 1 .421-.171c.516-.079.891.312 1.047.859.032.094.047.187.079.281Zm0 0"/></symbol><symbol overflow="visible" id="k"><path style="stroke:none" d="m1.547-5.86.062.266h.079c.312-.062.515-.093.593.36l.313 1.609c-.328-.203-.719-.313-1.125-.234C.5-3.672-.234-2.75-.047-1.734a1.807 1.807 0 0 0 2.11 1.421 1.473 1.473 0 0 0 1-.718l.093.515 1.188-.328-.047-.25-.125.016c-.234.047-.484.062-.547-.297l-.906-4.781ZM.672-1.702l-.016-.11c-.11-.546-.125-1.234.422-1.609.14-.11.313-.203.453-.219.36-.078.797.063 1.032.329.03.03.078.062.078.109l.328 1.687c.078.407-.5.875-.89.954C1.483-.454.983-.829.796-1.36.75-1.484.719-1.58.672-1.703Zm0 0"/></symbol><symbol overflow="visible" id="u"><path style="stroke:none" d="M.297-5.047c.11.547.016 1.531-.781 1.688l.046.218.704-.14.39 2.015c.047.25.11.5.266.704.265.265.672.343 1.031.265.656-.125.688-.86.594-1.375L2.5-1.953l-.25.047c.016.11.047.203.078.328.063.344.078.937-.375 1.031-.437.078-.625-.36-.687-.75L.859-3.39l1.172-.218-.047-.266-1.171.219L.53-5.094Zm0 0"/></symbol><symbol overflow="visible" id="l"><path style="stroke:none" d="m.484-2 2.375-.547c.094-.015.141-.078.11-.172-.078-.39-.297-.812-.64-1.031-.36-.219-.75-.25-1.142-.156-.921.203-1.593 1.094-1.359 2.14C.047-.89.938-.14 2.063-.406c.578-.125 1.124-.656 1.14-1.266.016 0 0-.031 0-.047-.015-.062-.078-.11-.14-.093-.141.03-.094.265-.141.39a1.17 1.17 0 0 1-.86.734A1.17 1.17 0 0 1 .907-1.03C.687-1.297.578-1.656.484-2Zm-.03-.219C.436-2.672.405-3.156.796-3.5a.86.86 0 0 1 .422-.188c.5-.124.922.204 1.125.75.047.094.062.188.094.266Zm0 0"/></symbol><symbol overflow="visible" id="m"><path style="stroke:none" d="m-.469-1.938.14.5 2.157-.625-.14-.5Zm0 0"/></symbol><symbol overflow="visible" id="x"><path style="stroke:none" d="m-.672-3.375.078.25.156-.031c.22-.078.454-.11.547.234L.72-.844c.094.313-.11.39-.5.5l.078.235.469-.157.796-.234.485-.125-.078-.234-.157.046c-.234.079-.421.094-.515-.187L.89-2.422c-.172-.562.015-1.281.75-1.5.437-.125.671.235.796.672l.532 1.781c.078.266-.125.36-.328.422L2.469-1l.078.234.469-.156.812-.234.469-.125-.078-.235-.14.047c-.235.063-.438.094-.516-.172l-.485-1.64C3-3.531 2.922-3.797 2.734-4c-.296-.266-.734-.25-1.093-.156-.47.14-.954.562-1 1.093l-.22-.734-.265.125Zm0 0"/></symbol><symbol overflow="visible" id="n"><path style="stroke:none" d="M.75-.281c.25.219.563.344.906.328.625 0 1.39-.25 1.375-1.14v-.063c-.047-.485-.437-.828-.875-.953-.453-.141-1.484-.079-1.5-.688 0-.469.594-.578.938-.594.484 0 .89.235.953.797 0 .063 0 .14.11.14.109 0 .14-.077.14-.171v-.14l-.016-.72c0-.062-.047-.109-.125-.109-.14 0-.203.188-.297.188h-.015c-.125-.031-.235-.11-.375-.14-.125-.017-.235-.032-.36-.032-.578.015-1.39.187-1.375 1.031v.063c.032.28.22.468.438.64.64.407 1.828.11 1.937.922.016.563-.484.735-.921.735C1.078-.172.64-.595.546-1.141.516-1.234.516-1.344.39-1.328c-.125 0-.125.078-.125.156l.015.969c0 .031-.015.078-.015.11 0 .077.03.171.109.171.078 0 .156-.11.188-.156l.046-.047c.047-.063.094-.11.141-.156Zm0 0"/></symbol><symbol overflow="visible" id="o"><path style="stroke:none" d="m.203-3.438.016.266h.11c.202 0 .452 0 .483.219.016.078.032.172.032.25L.89-1.125c0 .234.03.469.14.672.25.375.75.469 1.14.469.376-.016.72-.157.923-.438a.714.714 0 0 0 .172-.25l.03.64 1.188-.124-.015-.25h-.157c-.218.015-.453-.016-.453-.375l-.093-2.86-1.22.141.017.266h.093c.281-.016.516 0 .531.375L3.22-1.5c.015.64-.297 1.25-.985 1.281-.28 0-.64-.047-.703-.453C1.5-.812 1.5-.969 1.5-1.109l-.078-2.454Zm0 0"/></symbol><symbol overflow="visible" id="p"><path style="stroke:none" d="m-.031-5.453.015.25H.11c.25-.016.485 0 .516.36l.25 4.78.234-.015.266-.5c.328.328.688.547 1.156.515.969-.046 1.86-.859 1.797-1.89a1.813 1.813 0 0 0-1.89-1.703 1.618 1.618 0 0 0-1.126.547l-.14-2.485ZM3.625-1.75c-.016.328-.047.688-.266.969a1.242 1.242 0 0 1-.89.5C2.125-.266 1.453-.547 1.438-1l-.063-1.266c-.016-.093-.016-.203-.016-.296-.03-.47.563-.844 1.032-.876.89-.046 1.187.876 1.218 1.516 0 .063.016.11.016.172Zm0 0"/></symbol><symbol overflow="visible" id="q"><path style="stroke:none" d="m-.063-5.469.016.266h.11c.25-.016.5-.016.53.39l.282 3.97a.64.64 0 0 1 .016.171c.03.328-.22.36-.5.375H.312l.016.25.484-.047.829-.062.484-.016-.016-.25-.187.016c-.219.015-.422 0-.453-.281l-.344-4.938Zm0 0"/></symbol><symbol overflow="visible" id="r"><path style="stroke:none" d="m.063-3.438.03.266.126-.015c.25-.016.453.015.484.359l.188 2.14c.015.329-.188.36-.579.391l.016.25.484-.047.813-.078.438-.016-.016-.25h-.11c-.234.016-.453.032-.468-.25l-.25-2.937-.282.047Zm.515-1.984a.465.465 0 0 0-.344.469.45.45 0 0 0 .47.406.477.477 0 0 0 .421-.5.443.443 0 0 0-.484-.39c-.016 0-.047.015-.063.015Zm0 0"/></symbol><symbol overflow="visible" id="s"><path style="stroke:none" d="m-.078-3.438.031.266.156-.015c.235-.032.454-.032.5.328L.86-.72c.032.328-.171.375-.578.422l.031.25.5-.078.813-.094.5-.047-.031-.25-.172.016c-.234.031-.438.031-.469-.266l-.172-1.453c-.062-.578.235-1.281 1.016-1.375.453-.047.64.328.687.813l.22 1.828c.03.281-.188.328-.423.36l-.156.015.031.25.5-.063.828-.109.485-.031-.032-.25-.171.015c-.25.032-.438.016-.47-.28L3.626-2.5c-.063-.578.234-1.266 1.016-1.36.453-.062.625.313.671.797l.22 1.829c.03.28-.188.343-.423.375l-.156.015.031.25.5-.078.829-.094.484-.046-.031-.25-.141.03c-.234.016-.469.016-.5-.265l-.203-1.687c-.031-.266-.063-.532-.203-.75-.235-.329-.657-.391-1.032-.344-.484.062-1.046.344-1.187.875h-.016c-.125-.547-.687-.656-1.171-.594-.485.047-1.032.39-1.157.89l-.093-.75-.297.048Zm0 0"/></symbol><symbol overflow="visible" id="t"><path style="stroke:none" d="M.563-3.266v-.015c.234-.14.453-.235.75-.281.515-.094.937.25 1.03.859l.032.187C1.406-2.359.062-1.844.219-.844c.11.656.937.735 1.453.656.437-.062.89-.343 1.031-.828a.619.619 0 0 0 .688.516.726.726 0 0 0 .625-.828l-.079-.469-.25.047.063.39c.031.188.047.485-.203.532-.25.031-.328-.25-.344-.406l-.219-1.329c-.015-.093-.03-.203-.046-.296-.126-.797-.97-1.032-1.657-.922-.422.062-1.203.312-1.11.937.032.172.157.36.391.328.266-.046.375-.234.344-.437a.331.331 0 0 0-.344-.313Zm1.843.938.125.781a.964.964 0 0 1-.812 1.11c-.36.062-.766-.11-.86-.47v-.046c-.14-.86.891-1.235 1.547-1.375Zm0 0"/></symbol><symbol overflow="visible" id="v"><path style="stroke:none" d="m-.375-3.422.063.25.124-.015c.25-.063.454-.063.532.28l.453 2.11c.062.313-.156.375-.531.469l.062.25.469-.125.797-.172.422-.078-.063-.25-.11.031c-.218.047-.421.078-.484-.187L.75-3.75l-.281.078Zm.281-2.015a.456.456 0 0 0-.297.5c.047.218.282.39.516.328a.445.445 0 0 0 .36-.532.457.457 0 0 0-.532-.328c-.015 0-.047.032-.047.032Zm0 0"/></symbol><symbol overflow="visible" id="w"><path style="stroke:none" d="M1.063-3.922c-.844.297-1.5 1.14-1.235 2.235C.094-.641 1.203-.22 2.094-.438c.89-.22 1.625-1.157 1.375-2.172-.25-1-1.281-1.579-2.297-1.329ZM.53-1.719C.516-1.78.5-1.859.484-1.922.391-2.328.281-2.875.547-3.25c.156-.266.437-.422.719-.5.78-.188 1.28.39 1.484 1.188.11.437.203.906 0 1.312-.156.313-.438.5-.75.578-.578.14-1.11-.156-1.36-.75a1.666 1.666 0 0 0-.109-.297Zm0 0"/></symbol><symbol overflow="visible" id="y"><path style="stroke:none" d="M.36-5.453v.266c.093 0 .203-.016.296-.016.281 0 .5.047.5.36v4.218c0 .328-.25.36-.531.36H.359v.25h2.344v-.25h-.297c-.281 0-.515-.047-.515-.36V-2.5h1.578c.797-.047 1.734-.516 1.812-1.375v-.063c0-1.046-1.172-1.515-2.125-1.515h-.484Zm1.515 2.719v-2.204c0-.203.14-.25.313-.25h.671c.704 0 1.594.047 1.594 1.25 0 1.032-.781 1.204-1.453 1.204Zm0 0"/></symbol><symbol overflow="visible" id="z"><path style="stroke:none" d="M1.984-3.547c-.906.094-1.75.75-1.75 1.875 0 1.078.985 1.75 1.907 1.75C3.062.078 4-.64 4-1.688c0-1.03-.86-1.859-1.906-1.859Zm-1.046 2v-.203c0-.422.03-.969.375-1.281.218-.203.515-.297.812-.297.813 0 1.156.672 1.156 1.5 0 .437-.015.922-.312 1.281-.219.25-.531.375-.86.375-.593 0-1.046-.422-1.14-1.047-.016-.11-.016-.218-.031-.328Zm0 0"/></symbol><symbol overflow="visible" id="A"><path style="stroke:none" d="M.36-3.422v.266h.124c.25 0 .454.047.454.39v2.157c0 .328-.22.343-.61.343v.25L.812-.03h.813l.438.015v-.25h-.11c-.234 0-.437-.015-.437-.296v-2.954l-.282.032Zm.687-1.922a.45.45 0 0 0-.39.438c0 .218.187.437.437.437a.453.453 0 0 0 .453-.453.446.446 0 0 0-.438-.437c-.015 0-.046.015-.062.015Zm0 0"/></symbol><symbol overflow="visible" id="B"><path style="stroke:none" d="M.313-3.422v.266h.156c.234 0 .453.031.453.39v2.157c0 .328-.203.343-.61.343v.25l.5-.015h.829l.5.015v-.25h-.172c-.235 0-.438-.03-.438-.328v-1.469c0-.593.39-1.234 1.157-1.234.453 0 .578.406.578.875v1.844c0 .281-.22.312-.438.312h-.172v.25l.5-.015H4l.484.015v-.25h-.156c-.234 0-.453-.03-.453-.312v-1.703c0-.266 0-.531-.125-.781-.203-.344-.625-.454-1-.454-.484 0-1.078.266-1.266.766v-.766l-.296.032Zm0 0"/></symbol><symbol overflow="visible" id="C"><path style="stroke:none" d="M1.234-4.906c0 .562-.265 1.515-1.078 1.515v.22h.719v2.062c0 .25.016.5.14.734.204.313.594.453.954.453.672 0 .843-.719.843-1.234v-.297h-.25c0 .11.016.219.016.344 0 .343-.094.937-.562.937-.438 0-.532-.469-.532-.86v-2.14h1.188v-.265H1.484v-1.47Zm0 0"/></symbol><symbol overflow="visible" id="D"><path style="stroke:none" d="M.266-3.422v.266H.39c.25 0 .484.015.484.39v2.157c0 .328-.203.343-.61.343v.25L.75-.03h.906l.563.015v-.25h-.281c-.25 0-.47-.03-.47-.328v-1.328c0-.578.313-1.375 1-1.375A.427.427 0 0 0 2.345-3c0 .219.187.36.36.36.202 0 .358-.172.358-.36 0-.344-.343-.516-.624-.516-.47 0-.938.422-1.016.844l-.016-.844-.39.032Zm0 0"/></symbol><symbol overflow="visible" id="E"><path style="stroke:none" d="M.266-3.422v.266H.39c.25 0 .484.015.484.328V.953c0 .313-.219.328-.61.328v.25l.485-.015h.844l.5.015v-.25h-.188c-.218 0-.422-.031-.422-.328L1.5-.39c.172.297.672.47 1.047.47.969 0 1.875-.782 1.875-1.798 0-.89-.719-1.797-1.75-1.797-.453 0-.875.157-1.203.485v-.485Zm3.437 1.828C3.672-.954 3.25-.156 2.47-.156c-.406 0-.985-.39-.985-.75V-2.47c0-.453.594-.797 1.063-.797.797 0 1.156.922 1.156 1.547v.125Zm0 0"/></symbol><symbol overflow="visible" id="F"><path style="stroke:none" d="M.328-5.453v.266h.11c.25 0 .5.015.5.421v4.157c0 .328-.25.343-.532.343H.328v.25L.812-.03h.829l.484.015v-.25h-.188c-.218 0-.421-.03-.421-.312v-4.953Zm0 0"/></symbol><symbol overflow="visible" id="G"><path style="stroke:none" d="M.938-1.828h2.437c.094 0 .14-.047.14-.14 0-.407-.109-.876-.406-1.157-.28-.297-.671-.422-1.078-.422-.937 0-1.797.703-1.797 1.781C.234-.859.954.078 2.11.078c.594 0 1.235-.375 1.391-.969.016-.015.016-.046.016-.062 0-.063-.047-.125-.11-.125-.156 0-.172.25-.25.36a1.175 1.175 0 0 1-.984.53c-.422 0-.828-.218-1.047-.609-.156-.312-.188-.672-.188-1.031Zm.015-.219c.078-.453.156-.937.625-1.172a.867.867 0 0 1 .438-.11c.515 0 .859.423.937 1 .016.095.016.188.031.282Zm0 0"/></symbol><symbol overflow="visible" id="ae"><path style="stroke:none" d="M2.922-3.172c-.156.063-.25.188-.25.344 0 .234.172.375.422.375.219 0 .328-.203.328-.375 0-.578-.688-.688-1.172-.719h-.094c-1.031 0-1.875.797-1.875 1.828 0 .985.828 1.797 1.844 1.797.563 0 1.11-.297 1.328-.844.016-.062.063-.125.063-.187 0-.078-.047-.11-.11-.11-.156 0-.125.172-.234.313-.188.36-.547.578-.953.578C1.39-.172.984-.953.984-1.766c0-.64.266-1.546 1.188-1.546.219 0 .531.015.75.14Zm0 0"/></symbol><symbol overflow="visible" id="af"><path style="stroke:none" d="M3.203-.484 3.22.969c0 .281-.188.312-.61.312v.25l.5-.015h.829l.5.015v-.25h-.172c-.235 0-.438-.031-.438-.343v-4.454L3.61-3.5l-.312.672c-.25-.422-.672-.688-1.172-.688-1 0-1.844.813-1.844 1.797 0 1 .828 1.797 1.797 1.797.39 0 .922-.203 1.125-.562ZM.984-1.61v-.079c0-.53.204-1.156.735-1.437a.97.97 0 0 1 .5-.14c.484 0 .953.468 1.015.953v1.203c0 .484-.562.843-.859.921-.078.016-.156.032-.25.032h-.047c-.562-.032-.922-.578-1.031-1.063a2.916 2.916 0 0 1-.063-.39Zm0 0"/></symbol><symbol overflow="visible" id="ag"><path style="stroke:none" d="M.313-3.422v.266h.109c.203 0 .453.015.484.234.016.078.016.172.016.25v1.578c0 .235.015.469.125.672.234.39.734.5 1.125.5.375 0 .719-.125.937-.406a.714.714 0 0 0 .172-.25l.016.656 1.187-.094v-.25h-.156c-.219 0-.453-.03-.453-.39v-2.86l-1.219.094v.266h.094c.281 0 .516.015.516.39v1.36c0 .64-.344 1.25-1.032 1.25-.28 0-.64-.063-.687-.469-.016-.14-.016-.297-.016-.438v-2.453Zm0 0"/></symbol><symbol overflow="visible" id="I"><path style="stroke:none" d="M.453-4.281c-.078.14-.094.281 0 .422.14.187.375.203.578.046.172-.124.14-.359.032-.484-.344-.469-.954-.156-1.36.11l-.078.062c-.828.61-1.047 1.75-.422 2.578.578.781 1.735.953 2.547.344.453-.328.719-.89.578-1.453-.047-.078-.031-.156-.062-.203-.047-.063-.11-.063-.157-.032-.125.094 0 .22-.015.391.078.406-.094.797-.422 1.047C1.016-.97.234-1.343-.25-2c-.39-.516-.719-1.406.031-1.953.172-.125.422-.313.672-.328Zm0 0"/></symbol><symbol overflow="visible" id="J"><path style="stroke:none" d="M-.672-4.016c-.656.657-.89 1.704-.187 2.579.671.828 1.859.734 2.578.156.718-.578.984-1.735.328-2.547-.64-.813-1.813-.906-2.64-.25Zm.438 2.22a1.095 1.095 0 0 1-.125-.157c-.266-.328-.594-.781-.532-1.234.047-.282.22-.547.454-.735.625-.515 1.328-.203 1.859.438.266.343.562.734.547 1.203-.016.328-.172.61-.438.812-.453.375-1.078.328-1.547-.093-.062-.063-.14-.157-.218-.235Zm0 0"/></symbol><symbol overflow="visible" id="K"><path style="stroke:none" d="m-1.984-2.797.171.188.094-.079c.14-.124.344-.265.5-.124.078.062.14.124.188.187L0-1.422c.14.172.313.344.516.406.437.157.89-.078 1.187-.328.281-.25.469-.562.438-.922a.627.627 0 0 0-.016-.296l.422.484.844-.844-.157-.187-.109.093c-.172.141-.36.282-.594 0L.671-5.187l-.874.875.172.187.078-.063c.203-.187.39-.328.64-.046l.891 1.046c.406.485.547 1.157.031 1.61-.218.187-.53.375-.843.11-.11-.11-.204-.235-.297-.345l-1.594-1.859Zm0 0"/></symbol><symbol overflow="visible" id="L"><path style="stroke:none" d="m-2.14-2.703.187.203.094-.078c.187-.172.375-.328.625-.047L.234-1.047c.22.25.078.406-.234.672l.172.172.36-.328.671-.61.406-.375-.171-.171c-.047.046-.125.109-.204.187-.187.172-.359.281-.562.063l-.89-.97c-.407-.437-.704-1.218-.204-1.687a.356.356 0 0 0 .11.297c.14.156.374.14.5.031a.37.37 0 0 0 .03-.515c-.234-.25-.609-.14-.812.047-.344.312-.39.953-.172 1.296l-.593-.593-.25.281Zm0 0"/></symbol><symbol overflow="visible" id="M"><path style="stroke:none" d="m-3.625-4.094.188.203.093-.078c.172-.187.36-.328.61-.078L.609-.625l.172-.172-.125-.547c.469.032.86-.031 1.203-.36.688-.687.813-1.874.094-2.624C1.297-5 .156-5.078-.578-4.344a1.6 1.6 0 0 0-.5 1.14l-1.734-1.78Zm5.188.39c.203.267.421.548.437.907.031.375-.094.703-.328.953-.25.235-.938.485-1.25.157l-.89-.907c-.063-.062-.141-.14-.204-.219C-1-3.14-.797-3.827-.469-4.155c.64-.61 1.453-.125 1.906.328l.125.125Zm0 0"/></symbol><symbol overflow="visible" id="N"><path style="stroke:none" d="m-.656-1.938 1.687-1.75c.063-.062.078-.14 0-.218-.281-.281-.703-.531-1.125-.5-.39 0-.75.187-1.047.484-.64.672-.75 1.766.032 2.516.64.64 1.828.765 2.64-.063.407-.422.578-1.14.266-1.672 0-.015-.016-.046-.031-.046-.047-.047-.141-.047-.172-.016-.11.125.062.297.093.437.079.375-.046.797-.312 1.079a1.195 1.195 0 0 1-1.172.328c-.328-.11-.61-.329-.86-.579Zm-.156-.171c-.266-.36-.563-.766-.407-1.266.047-.156.125-.266.235-.39.359-.36.89-.313 1.359.015.078.078.156.14.234.188Zm0 0"/></symbol><symbol overflow="visible" id="O"><path style="stroke:none" d="m-2.344-5.594.203.188.063-.047c.203-.234.344-.406.703-.094l1.219 1.094c-.39.031-.766.203-1.032.516-.656.734-.687 1.906.094 2.593.735.657 1.875.578 2.532-.172.28-.312.421-.75.359-1.171l.39.343.735-.984-.188-.156-.093.093c-.141.172-.329.329-.61.079l-3.64-3.22ZM-.5-1.766l-.078-.062c-.422-.375-.86-.906-.672-1.563.047-.156.14-.328.25-.437.234-.281.64-.422 1.016-.344.046-.016.093-.016.125.016l1.28 1.14c.313.266.157 1-.109 1.297-.39.453-1.03.453-1.515.172-.11-.094-.203-.14-.297-.219Zm0 0"/></symbol><symbol overflow="visible" id="P"><path style="stroke:none" d="M-.781-1.89.78-3.75c.063-.078.047-.14-.015-.203-.313-.266-.75-.485-1.157-.438-.39.032-.75.25-1.015.563a1.75 1.75 0 0 0 .218 2.515c.688.594 1.86.625 2.61-.25.375-.453.5-1.187.14-1.687.016-.016-.015-.047-.03-.047a.123.123 0 0 0-.173 0c-.093.125.079.297.125.422.125.36.032.797-.218 1.094a1.27 1.27 0 0 1-1.157.406c-.328-.078-.625-.297-.89-.516Zm-.172-.157c-.281-.344-.61-.719-.5-1.234a1.24 1.24 0 0 1 .203-.406c.328-.391.89-.391 1.375-.079.078.063.14.125.234.172Zm0 0"/></symbol><symbol overflow="visible" id="Q"><path style="stroke:none" d="m-2.61-2.25.22.172.078-.094c.265-.344.437-.265 1.03-.11.782.188 1.595.391 2.376.61.125.031.25.063.343-.047.079-.093.016-.203-.03-.328C.983-2.75.577-3.516.171-4.25c-.203-.406-.313-.719-.047-1.063l-.219-.171-.156.25-.375.468-.266.313.22.172a.321.321 0 0 1 .437-.11l.015.016c.157.11.235.328.328.5.188.39.422.781.625 1.156.079.125.141.25.22.406-.75-.203-1.485-.406-2.235-.578-.063-.015-.14-.03-.188-.078l-.031-.015c-.094-.11.047-.297.14-.422l-.218-.172-.281.406-.47.625Zm0 0"/></symbol><symbol overflow="visible" id="R"><path style="stroke:none" d="m-1.89-2.719-.016-.015c.078-.266.156-.5.328-.735.312-.422.86-.469 1.344-.11l.156.11c-.578.797-1.172 2.11-.375 2.703.547.407 1.203-.109 1.516-.53.265-.36.39-.876.156-1.313a.621.621 0 0 0 .86-.141c.233-.328.187-.766-.142-1.016l-.375-.28-.156.202.313.235c.156.125.375.328.234.53-.156.204-.406.048-.547-.062L.328-3.937C.25-4 .172-4.064.094-4.11c-.64-.485-1.422-.047-1.844.515-.25.344-.64 1.078-.125 1.453.14.11.36.125.5-.062.156-.219.125-.422-.031-.531a.36.36 0 0 0-.485.015Zm1.968-.625.625.469c.453.328.547.922.219 1.36-.203.296-.625.452-.938.265l-.046-.031c-.688-.516-.204-1.5.14-2.063Zm0 0"/></symbol><symbol overflow="visible" id="S"><path style="stroke:none" d="m-2.64-2.188.218.141.063-.094c.156-.203.296-.39.546-.203L1.281-.172c.25.188.14.375-.078.688l.203.156.266-.406.484-.688.297-.39L2.25-.97l-.11.14c-.124.188-.265.329-.5.157L.548-1.437c.344.03.765-.297.984-.594.563-.797.438-1.985-.39-2.563-.72-.515-1.875-.468-2.47.375-.265.375-.39.813-.296 1.266l-.406-.281ZM.843-3.952c.5.406.906 1.203.453 1.844-.234.328-.89.578-1.172.375L-.922-2.47c-.062-.062-.14-.11-.234-.172-.375-.265-.313-.953-.047-1.328C-.75-4.625.219-4.39.734-4.016a.896.896 0 0 1 .11.063Zm0 0"/></symbol><symbol overflow="visible" id="T"><path style="stroke:none" d="M-1.828-3.625c-.422.797-.36 1.875.562 2.5.907.61 2.016.156 2.532-.61.515-.75.437-1.937-.438-2.515-.844-.578-2.015-.344-2.594.531ZM-.75-1.641c-.047-.046-.125-.078-.172-.125-.344-.234-.781-.546-.86-1.03a1.143 1.143 0 0 1 .204-.829c.453-.672 1.203-.578 1.89-.11.36.235.766.532.891.97.078.312.016.656-.156.921-.344.5-.938.64-1.516.36-.094-.063-.187-.11-.281-.157Zm0 0"/></symbol><symbol overflow="visible" id="U"><path style="stroke:none" d="m-2.719-2.094.219.14.078-.109c.125-.203.281-.39.594-.187l1.797 1.188c.281.171.187.359-.047.703l.203.125.25-.407.5-.765.328-.469L1-2c-.047.063-.094.14-.156.234-.14.22-.281.375-.531.204l-1.11-.72c-.484-.327-.984-1.015-.594-1.593a.46.46 0 0 0 .157.281c.187.11.421.016.515-.125.11-.172.031-.39-.125-.484-.281-.188-.61 0-.765.25-.25.39-.157 1 .156 1.297l-.719-.438-.187.344Zm0 0"/></symbol><symbol overflow="visible" id="V"><path style="stroke:none" d="m-2.703-2.14.234.156.078-.11c.125-.219.266-.375.563-.187l1.812 1.156c.282.172.188.375-.03.703l.202.125.25-.406.438-.688.25-.359-.203-.125-.063.094c-.125.187-.25.343-.484.203l-2.5-1.594-.125.25Zm-1.25-1.626a.471.471 0 0 0 .172.579.452.452 0 0 0 .61-.126c.14-.218.046-.515-.157-.64a.44.44 0 0 0-.594.14c0 .016-.031.047-.031.047Zm0 0"/></symbol><symbol overflow="visible" id="W"><path style="stroke:none" d="M.172-.781a1.29 1.29 0 0 0 .766-.578c.343-.532.562-1.297-.204-1.782l-.046-.03C.266-3.407-.25-3.25-.61-2.97c-.344.328-.86 1.219-1.375.89-.391-.233-.157-.812.015-1.108.266-.407.672-.61 1.188-.376.047.047.125.079.187-.015.063-.094 0-.14-.078-.203-.031-.016-.078-.047-.11-.063l-.609-.39c-.062-.032-.125-.032-.171.046-.063.11.062.282 0 .36v.015c-.11.063-.235.126-.344.22-.063.109-.14.187-.203.28-.313.5-.61 1.282.109 1.72l.047.046c.25.125.516.078.781-.016C-.5-1.875-.094-3.03.656-2.688c.469.297.344.813.11 1.172-.313.532-.907.641-1.422.438-.094-.016-.188-.078-.25.031-.063.11 0 .156.062.188l.828.515c.032.016.047.063.079.078.062.032.156.063.203 0 .03-.078 0-.203-.016-.25L.234-.578a1.01 1.01 0 0 1-.062-.203Zm0 0"/></symbol><symbol overflow="visible" id="X"><path style="stroke:none" d="m-2.125-2.531-.016-.016c.047-.297.11-.515.25-.765.282-.454.813-.532 1.344-.22l.156.095c-.515.828-.984 2.203-.125 2.718C.047-.375.656-.938.938-1.375c.234-.39.312-.922.03-1.344.298.172.688.078.845-.203a.705.705 0 0 0-.235-1l-.39-.234-.125.218.328.204c.171.093.406.265.265.484-.125.219-.39.078-.531 0l-1.156-.703C-.11-4-.203-4.063-.281-4.11c-.672-.422-1.422.093-1.797.687-.219.36-.531 1.125.015 1.453.141.094.376.11.5-.093.141-.235.079-.422-.093-.532-.157-.094-.328-.094-.469.063Zm1.906-.797.672.406c.469.297.61.875.328 1.328-.187.313-.578.516-.922.344l-.03-.031C-.907-1.734-.517-2.75-.22-3.328Zm0 0"/></symbol><symbol overflow="visible" id="Y"><path style="stroke:none" d="M-3.594-3.563c.485.282 1.172 1 .75 1.688l.188.125.375-.61L-.5-1.312c.219.125.422.235.688.25.39-.015.687-.28.875-.578C1.405-2.219.89-2.75.438-3.016l-.25-.14-.126.219c.094.046.188.093.297.156.297.172.766.547.532.953-.235.375-.688.219-1.032.016l-1.843-1.079.609-1.015-.219-.14-.61 1.015-1.265-.75Zm0 0"/></symbol><symbol overflow="visible" id="Z"><path style="stroke:none" d="m-2.797-2.016.235.125L-2.5-2c.125-.219.281-.36.578-.188l1.86 1.079c.28.156.187.359-.016.703l.219.125.234-.438.406-.703.235-.36-.22-.124-.062.093c-.109.204-.234.36-.468.22l-2.563-1.47-.11.266Zm-1.312-1.562a.456.456 0 0 0 .187.562c.188.11.469.047.594-.171a.451.451 0 0 0-.172-.61c-.172-.11-.453-.062-.594.156 0 .016 0 .047-.015.063Zm0 0"/></symbol><symbol overflow="visible" id="aa"><path style="stroke:none" d="M-2.125-3.469c-.36.844-.203 1.906.781 2.453.938.516 2-.015 2.453-.828.454-.797.282-1.953-.625-2.468-.906-.5-2.046-.157-2.562.75Zm1.234 1.906c-.062-.03-.125-.078-.187-.109-.36-.203-.828-.5-.922-.953-.078-.281-.016-.594.125-.86.406-.703 1.172-.671 1.89-.265.376.203.782.469.954.89.11.313.062.657-.094.938-.297.516-.875.703-1.469.484-.094-.046-.187-.093-.297-.125Zm0 0"/></symbol><symbol overflow="visible" id="ab"><path style="stroke:none" d="m-2.844-1.922.235.125.062-.125c.125-.219.235-.39.563-.219l1.89 1.032c.281.156.203.359.016.703l.219.125.218-.453.391-.72.266-.421L.796-2l-.093.14c-.11.22-.234.376-.484.235l-1.297-.703c-.516-.281-.89-.938-.531-1.61.218-.39.64-.312 1.046-.078l1.625.875c.235.141.157.344.063.532l-.094.156.219.125.234-.453.407-.75.234-.406-.219-.126-.062.141c-.125.203-.25.375-.485.235L-.14-4.5c-.234-.125-.468-.25-.75-.266-.39.032-.703.329-.89.657-.235.437-.282 1.078.062 1.5l-.672-.375-.109.265Zm0 0"/></symbol><symbol overflow="visible" id="ai"><path style="stroke:none" d="M-3.047-3.063c.063.157.172.266.328.266.235.016.39-.156.406-.406 0-.219-.203-.328-.374-.344-.579-.015-.704.656-.766 1.14v.095c-.047 1.03.719 1.906 1.75 1.953C-.72-.313.125-1.11.172-2.125c.016-.563-.25-1.125-.781-1.36-.063-.015-.125-.062-.188-.078-.078 0-.11.047-.125.11 0 .156.172.14.313.25.343.203.546.578.53.984-.03.828-.827 1.188-1.64 1.156-.64-.03-1.547-.328-1.5-1.25.016-.218.047-.53.172-.75Zm0 0"/></symbol><symbol overflow="visible" id="aj"><path style="stroke:none" d="M-3.453-2.14c.047.906.672 1.78 1.797 1.828C-.578-.267.125-1.22.172-2.141c.031-.921-.64-1.89-1.688-1.937-1.03-.047-1.89.781-1.937 1.828ZM-1.5-1c-.063 0-.14-.016-.203-.016-.422-.015-.969-.078-1.266-.421a1.151 1.151 0 0 1-.265-.829c.03-.812.718-1.125 1.546-1.093.438.015.922.046 1.266.359.25.234.36.563.344.89-.031.594-.469 1.016-1.094 1.094-.11 0-.219 0-.328.016Zm0 0"/></symbol><symbol overflow="visible" id="ak"><path style="stroke:none" d="M-3.406-.453h.265v-.11c.016-.203.032-.453.266-.468a.673.673 0 0 1 .25 0l1.578.062c.234.016.469 0 .672-.094.406-.218.531-.718.547-1.109.016-.375-.094-.719-.36-.953a1.046 1.046 0 0 0-.25-.188l.657.016-.047-1.187-.25-.016v.156c-.016.219-.047.453-.406.438l-2.86-.125.031 1.234h.266l.016-.094c0-.28.031-.515.406-.5l1.36.063c.64.031 1.234.406 1.202 1.094-.015.28-.093.625-.5.656-.14.016-.296 0-.437 0l-2.453-.11Zm0 0"/></symbol><symbol overflow="visible" id="al"><path style="stroke:none" d="M-3.406-.406h.265v-.125c.016-.25.032-.485.407-.469l2.156.094c.328.015.344.219.328.625L0-.266V-.75l.047-.906.031-.563-.25-.015c0 .078 0 .171-.016.28 0 .25-.046.47-.343.454l-1.328-.047c-.579-.031-1.36-.375-1.329-1.062a.528.528 0 0 0 .297.14c.22 0 .36-.172.375-.344 0-.203-.171-.374-.359-.374-.344-.016-.516.312-.531.593-.031.469.375.953.797 1.063l-.844-.032.015.391Zm0 0"/></symbol><symbol overflow="visible" id="am"><path style="stroke:none" d="m-5.438-.5.266.016V-.61c.016-.25.047-.485.406-.47l4.782.204.015-.234-.469-.313c.36-.297.61-.64.625-1.11C.234-3.5-.5-4.452-1.53-4.5c-.938-.031-1.828.688-1.875 1.719-.016.453.14.86.437 1.187l-2.5-.11Zm4.047-3.266c.329.047.672.11.938.344.281.25.422.594.406.938-.015.343-.36.984-.812.953l-1.266-.047c-.094 0-.203-.016-.297-.016-.469-.015-.781-.64-.765-1.11.046-.89.984-1.108 1.624-1.077.063 0 .11.015.172.015Zm0 0"/></symbol><symbol overflow="visible" id="an"><path style="stroke:none" d="m-1.781-1.016.093-2.437c.016-.094-.03-.14-.125-.14-.406-.032-.89.062-1.171.343-.313.281-.454.656-.47 1.063C-3.5-1.25-2.827-.36-1.75-.313A1.846 1.846 0 0 0 .172-2.109c.031-.594-.328-1.25-.906-1.422-.016-.031-.047-.031-.063-.031a.15.15 0 0 0-.14.109c0 .156.25.187.359.265.312.22.5.61.484 1-.015.422-.25.829-.656 1.032-.313.14-.672.156-1.031.14ZM-2-1.046c-.453-.095-.938-.188-1.156-.673a.841.841 0 0 1-.078-.437c.015-.516.453-.844 1.03-.89.095-.017.188-.017.282-.032Zm0 0"/></symbol><symbol overflow="visible" id="ao"><path style="stroke:none" d="m-5.344-2.86.266.016.016-.078c0-.312.03-.531.5-.515l1.64.078c-.297.28-.484.625-.5 1.046-.047.985.688 1.907 1.719 1.954C-.72-.313.125-1.094.172-2.08a1.51 1.51 0 0 0-.469-1.14l.516.016-.047-1.219-.25-.016v.125c-.016.235-.047.485-.422.47l-4.86-.204ZM-1.5-1.046l-.11-.016c-.562-.015-1.234-.156-1.484-.78a1.158 1.158 0 0 1-.11-.5c.017-.36.235-.75.579-.923.031-.03.063-.062.11-.046l1.718.062c.406.031.75.703.735 1.11-.032.593-.516.984-1.079 1.062-.125 0-.234.016-.359.031Zm0 0"/></symbol><symbol overflow="visible" id="ap"><path style="stroke:none" d="m-3.39-1.094-.032.657.266.015.031-.656 2.61.11c.28.015.28.265.265.515v.11L0-.329v-.484l.047-.907.031-.562-.25-.016v.25c-.016.328-.062.516-.39.5l-2.547-.11.046-.968-.265-.016-.047.985-.734-.032c-.516-.015-1.204-.203-1.188-.796 0-.063.031-.157.047-.22a.36.36 0 0 0 .313.204.354.354 0 0 0 .375-.344c.015-.234-.172-.375-.36-.39-.39-.016-.594.39-.61.718-.03.75.5 1.36 1.313 1.391Zm0 0"/></symbol><symbol overflow="visible" id="aq"><path style="stroke:none" d="M-.234-.766C0-1 .14-1.312.156-1.656c.016-.625-.187-1.39-1.078-1.438h-.062c-.485.016-.844.39-1 .813-.157.453-.157 1.484-.766 1.453-.469-.016-.547-.625-.531-.969.015-.484.281-.875.844-.906.062 0 .14 0 .156-.11 0-.109-.078-.14-.172-.14-.047 0-.094 0-.14-.016L-3.314-3c-.062 0-.109.047-.109.125-.015.14.172.219.172.313v.015c-.063.125-.14.219-.172.36a1.419 1.419 0 0 0-.047.359c-.031.578.094 1.406.938 1.437h.062c.281 0 .485-.187.672-.39.438-.61.219-1.828 1.031-1.875.563.015.704.531.688.969-.031.609-.469 1-1.016 1.078-.11.03-.218.015-.218.14s.078.14.156.14l.968.032a.29.29 0 0 0 .11.031c.078 0 .172-.03.172-.109 0-.078-.094-.156-.125-.188l-.047-.046c-.063-.047-.11-.11-.156-.157Zm0 0"/></symbol><symbol overflow="visible" id="ar"><path style="stroke:none" d="M-3.406-.5h.265v-.125c.016-.25.079-.453.422-.438l2.156.094c.329.016.329.235.313.625L0-.328v-.484l.047-.813.031-.438-.25-.015-.016.11c0 .234-.03.437-.312.421l-2.953-.125.015.281Zm-1.89-.781a.438.438 0 0 0 .421.406.433.433 0 0 0 .453-.406.468.468 0 0 0-.437-.485.456.456 0 0 0-.454.422c0 .016.016.047.016.063Zm0 0"/></symbol><symbol overflow="visible" id="as"><path style="stroke:none" d="M-3.406-.453h.265V-.61c.016-.235.063-.454.422-.438l2.156.094c.329.015.329.219.313.625L0-.312v-.5l.047-.829.031-.5-.25-.015-.016.172c0 .234-.046.437-.343.421L-2-1.625c-.594-.016-1.219-.438-1.188-1.203.032-.453.438-.563.907-.547l1.844.078c.28.016.296.235.296.453l-.015.172.25.016.015-.5L.141-4l.03-.484-.25-.016v.156c-.015.235-.046.453-.327.438L-2.11-3.97c-.266-.015-.532-.031-.797.094-.344.188-.469.594-.485.969-.03.484.22 1.094.704 1.297l-.766-.032.015.297Zm0 0"/></symbol><symbol overflow="visible" id="au"><path style="stroke:none" d="M1.063-.438c.156.11.296.235.468.344.39.203.828.281 1.25.281.938 0 1.813-.78 1.813-1.859 0-.687-.39-1.39-1.032-1.687-.203-.094-.421-.141-.624-.188l-.563-.14c-.234-.047-.484-.094-.688-.22a1.144 1.144 0 0 1-.593-1.015c0-.703.625-1.156 1.281-1.156.89 0 1.484.656 1.672 1.578.031.14 0 .406.172.406.11 0 .125-.078.125-.172v-1.937c0-.063-.032-.125-.125-.125-.11 0-.203.25-.282.36-.046.077-.109.171-.156.265-.422-.375-.828-.625-1.453-.625-.89 0-1.812.64-1.812 1.75 0 .86.656 1.516 1.468 1.687.422.125.938.172 1.329.36.421.203.718.656.718 1.125 0 .703-.515 1.312-1.265 1.312-.985 0-1.86-.484-2-1.75 0-.093 0-.203-.125-.203s-.125.094-.125.172V.047c0 .078.03.14.109.14.125 0 .219-.25.297-.359.047-.094.094-.172.14-.266Zm0 0"/></symbol><symbol overflow="visible" id="av"><path style="stroke:none" d="M3.422-6.328c-.797.094-1.485.375-2.047.984a3.425 3.425 0 0 0-.86 2.282C.516-1.5 1.642.188 3.595.188c1.719 0 3.047-1.532 3.047-3.22 0-1.343-.766-2.671-2.141-3.14a2.59 2.59 0 0 0-.906-.172c-.063 0-.125.016-.172.016Zm-2 3.375v-.156c0-1.032.266-2.266 1.344-2.782.25-.125.53-.187.828-.187h.062C5.078-6 5.734-4.531 5.734-3.218c0 1.062-.25 2.28-1.296 2.905a1.763 1.763 0 0 1-.922.235C2.296-.11 1.625-1.344 1.484-2.406a6.508 6.508 0 0 1-.062-.547Zm0 0"/></symbol><symbol overflow="visible" id="aw"><path style="stroke:none" d="M.344-6.14v.28h.344c.296 0 .562.048.562.391v4.782c0 .39-.313.406-.656.406h-.25v.265h4.765l.25-2.312h-.25C5.016-1.5 4.938-.625 3.83-.344c-.25.063-.5.063-.767.063h-.671c-.204 0-.329-.094-.329-.313v-4.843c0-.329.188-.375.376-.391.25-.031.515-.031.765-.031v-.282Zm0 0"/></symbol><symbol overflow="visible" id="ax"><path style="stroke:none" d="M.297-6.14v.28h.36c.327 0 .593.048.593.391v4.782c0 .359-.313.406-.625.406H.297v.265h2.719V-.28h-.36c-.312 0-.594-.047-.594-.406v-4.766c0-.36.313-.406.626-.406h.328v-.282Zm0 0"/></symbol><symbol overflow="visible" id="ay"><path style="stroke:none" d="M.36-6.14v.28h.343c.297 0 .578.048.578.391v4.782c0 .39-.328.406-.672.406H.36v.265h2.563c.203 0 .39.016.594.016 1.078 0 2.437-.516 2.89-2.14.078-.297.11-.579.11-.876 0-1.609-1.11-3.125-2.985-3.125h-.61ZM5.624-2.72c0 1.11-.547 2.063-1.547 2.344-.297.094-.578.094-.875.094h-.797c-.203 0-.36-.047-.36-.328V-5.453c0-.266.032-.406.407-.406h.766c.656 0 1.344.093 1.875.78.468.579.547 1.407.547 2.11 0 .078-.016.156-.016.25Zm0 0"/></symbol><symbol overflow="visible" id="az"><path style="stroke:none" d="M.344-6.11v.282h.344c.296 0 .562.031.562.39v4.75c0 .36-.297.407-.594.407H.344v.265h5.265L6-2.328h-.25c-.094.562-.188 1.203-.563 1.61-.406.421-1.046.437-1.593.437h-1.14c-.188 0-.392 0-.392-.328v-2.438h.86c.312 0 .672.031.828.297.125.188.14.438.14.672v.094h.25v-2.391h-.25v.094c0 .5-.124.906-.687.937-.156.031-.344.031-.515.031h-.626v-2.203c0-.312.188-.312.391-.312h1.172c.625 0 1.328.031 1.656.719.14.328.172.671.219 1.015h.25L5.5-6.109Zm0 0"/></symbol><symbol overflow="visible" id="aA"><path style="stroke:none" d="M4.453.063c0 .156.047.328.078.468.11.531.282 1.125.969 1.203h.078c.875 0 1.125-1.062 1.125-1.64V.03c0-.078-.031-.14-.125-.14-.14 0-.11.25-.14.343-.11.329-.422.579-.766.579-.531 0-.75-.5-.906-.891.203-.063.375-.188.546-.297C6.157-.985 6.641-2 6.641-3.047c0-1.562-1.141-3.281-3.063-3.281-1.734 0-3.062 1.516-3.062 3.281 0 .89.343 1.766 1 2.406a3.011 3.011 0 0 0 2.078.829h.094c.265-.016.515-.079.765-.126Zm.172-.454c-.125-.437-.453-.859-.953-.953h-.078a.757.757 0 0 0-.766.766c0 .125.031.265.11.39-1.204-.406-1.532-1.921-1.532-2.89 0-1.172.407-2.61 1.782-2.953.14-.047.28-.047.421-.047.891 0 1.579.703 1.891 1.469.188.5.266 1.062.266 1.609 0 .984-.282 1.984-1.141 2.61Zm-.25.141c-.266.11-.531.203-.813.203-.296 0-.515-.266-.515-.547 0-.297.265-.531.562-.531.485 0 .641.422.766.875Zm0 0"/></symbol><symbol overflow="visible" id="aB"><path style="stroke:none" d="M.344-6.14v.28H.64c.406 0 .609.032.609.423v3.14c0 .266.016.516.063.766C1.578-.47 2.563.187 3.624.187c1.031 0 1.844-.89 1.984-1.859.032-.187.032-.375.032-.547v-2.906c0-.672.5-.734.921-.734v-.282H4.454v.282c.406 0 .906.062.906.687v2.984c0 .813-.296 1.657-1.187 1.985-.188.078-.406.11-.61.11-.437 0-.812-.22-1.093-.532-.375-.438-.406-1.016-.406-1.578V-5.47c0-.343.296-.39.593-.39h.328v-.282Zm0 0"/></symbol><symbol overflow="visible" id="aC"><path style="stroke:none" d="M.172-6.14v.28H.39c.187 0 .406.016.53.126.126.125.173.312.22.453.656 1.703 1.359 3.39 2.015 5.11.047.14.094.359.297.359.188 0 .235-.22.281-.36l.47-1.156c.5-1.266.984-2.563 1.5-3.828.218-.532.546-.703 1.015-.703v-.282l-.516.032h-1.36v.25a.73.73 0 0 1 .532.203l.063.093c.03.032.03.094.03.141 0 .234-.187.578-.296.844-.422 1.094-.828 2.187-1.281 3.266-.063.14-.125.296-.172.437-.047-.125-.094-.25-.14-.36C3-2.624 2.515-4.093 1.905-5.468c-.015-.031-.015-.078-.015-.125v-.031c.062-.219.39-.234.625-.234h.078v-.282Zm0 0"/></symbol><symbol overflow="visible" id="aD"><path style="stroke:none" d="M.313-.281v.265L.859-.03h1.36v-.25c-.25 0-.64-.125-.64-.453 0-.125.046-.235.093-.344.156-.422.281-.984.437-.984H4.25c.156 0 .266.5.36.75.077.234.265.593.265.75 0 .28-.5.28-.734.28v.266h2.453V-.28h-.25c-.203 0-.422-.031-.516-.125-.125-.125-.156-.297-.219-.438-.64-1.734-1.234-3.484-1.875-5.218l-.078-.188c-.031-.094-.062-.188-.219-.188-.187 0-.218.22-.265.36C2.625-4.547 2.078-3 1.516-1.484l-.157.453c-.187.562-.562.75-1.046.75Zm1.812-2.063L3.188-5.28 4.25-2.344Zm0 0"/></symbol><symbol overflow="visible" id="aE"><path style="stroke:none" d="M.36-6.14v.28h.343c.297 0 .578.048.578.391v4.782c0 .39-.328.406-.672.406H.36v.265H3V-.28h-.313c-.39 0-.609-.047-.609-.422v-2.125h1.625c.875-.047 2.047-.547 2.047-1.625 0-1.031-1.063-1.625-2.047-1.688Zm1.687 3.062v-2.438c0-.234.094-.343.344-.343h.687c.781 0 1.75.046 1.75 1.406 0 .297-.031.672-.234.906-.328.406-.86.469-1.344.469Zm0 0"/></symbol><symbol overflow="visible" id="aF"><path style="stroke:none" d="M.36-6.14v.28h.343c.297 0 .578.048.578.391v4.782c0 .39-.328.406-.672.406H.36v.265h2.61V-.28h-.344c-.313 0-.578-.047-.578-.422v-2.25h1c.61 0 1.234.265 1.328 1v.64c0 .594.094 1.235 1.031 1.454.125.03.266.047.422.047.484 0 .922-.36.922-1.016 0-.078-.047-.14-.125-.14-.172 0-.156.452-.281.655-.094.157-.266.282-.453.282-.438 0-.516-.516-.579-.844-.03-.266-.062-.531-.109-.797-.031-.219-.047-.437-.156-.64-.203-.391-.547-.563-.969-.75.656-.188 1.547-.61 1.547-1.454 0-1.109-1.375-1.562-2.281-1.625Zm1.687 2.952V-5.53c0-.203.094-.328.328-.328h.672c.75 0 1.672.171 1.672 1.359 0 1.078-.86 1.313-1.86 1.313Zm0 0"/></symbol><symbol overflow="visible" id="aH"><path style="stroke:none" d="M.36-3.86v.266H.5c.297 0 .516.047.516.453v2.485c0 .36-.25.375-.688.375v.265h1.938V-.28h-.141c-.234 0-.469-.031-.469-.313v-3.375Zm.765-2.156c-.234.047-.422.235-.422.485s.219.468.485.468h.062a.474.474 0 0 0 .422-.468.477.477 0 0 0-.484-.485Zm0 0"/></symbol><symbol overflow="visible" id="aI"><path style="stroke:none" d="M1.094-3.484c.25-.22.61-.313.937-.313.313 0 .594.172.781.438.172.25.172.53.172.828v.156c-.734.078-1.468.078-2.093.547-.297.219-.516.578-.516.937 0 .735.875.985 1.469.985.547 0 .968-.281 1.218-.75.079.375.297.703.704.703.546 0 .78-.453.78-.953v-.406h-.25v.453c0 .25-.046.593-.327.593-.297 0-.313-.39-.313-.593v-1.75c0-.938-.812-1.407-1.61-1.407-.562 0-1.39.235-1.39.938 0 .25.14.437.469.437.219-.015.36-.218.36-.421 0-.25-.188-.376-.391-.422Zm1.89 1.328v.875c0 .625-.437 1.14-1.062 1.14h-.063c-.421-.03-.75-.359-.75-.75 0-.859 1.032-1.265 1.875-1.265Zm0 0"/></symbol><symbol overflow="visible" id="aJ"><path style="stroke:none" d="M.969-1.734A1.162 1.162 0 0 0 .688-1c0 .297.125.625.39.797-.422.172-.812.422-.812.89 0 .907 1.406 1.157 2.046 1.157.766 0 2.032-.282 2.032-1.188 0-1.062-1.11-1.281-2.016-1.281H1.5a.575.575 0 0 1-.5-.578c0-.125.063-.375.14-.375h.016c.125.031.25.125.375.156.157.063.344.078.516.078.719 0 1.5-.5 1.5-1.281 0-.313-.125-.672-.375-.875v-.016c.297-.203.547-.328.875-.328-.063.063-.125.125-.125.235 0 .14.125.265.281.265.188 0 .266-.14.266-.265 0-.297-.25-.454-.485-.454h-.078a1.483 1.483 0 0 0-.781.313c-.016.031-.063.078-.11.078-.062 0-.265-.14-.39-.187a1.316 1.316 0 0 0-.547-.11c-.734 0-1.531.5-1.531 1.328 0 .329.156.688.422.907ZM.766.734V.672c0-.469.468-.735.89-.735.078 0 .188.016.266.016h.469c.53 0 1.359.031 1.453.688v.062c0 .781-1.313.89-1.563.89C1.72 1.594.86 1.36.766.735ZM1.25-2.5v-.094c0-.484.11-1.125.797-1.125.547 0 .812.469.812 1.11 0 .515-.234 1.015-.812 1.015a.785.785 0 0 1-.61-.265c-.14-.188-.156-.407-.187-.641Zm0 0"/></symbol><symbol overflow="visible" id="aK"><path style="stroke:none" d="M.266-3.86v.266h.14c.281 0 .547.031.547.453v2.485c0 .36-.234.375-.687.375v.265L.89-.03h1.562v-.25h-.297c-.312 0-.562-.047-.562-.375v-1.516c.062-.625.234-1.562 1.14-1.562-.125.062-.171.203-.171.328a.39.39 0 1 0 .78 0c0-.375-.359-.563-.687-.563-.547 0-.984.469-1.11.969v-.969Zm0 0"/></symbol><symbol overflow="visible" id="aL"><path style="stroke:none" d="M.313-3.86v.266h.14c.266 0 .547.031.547.453v2.485c0 .36-.234.375-.688.375v.265L.954-.03H2.36v-.25h-.203c-.265 0-.484-.047-.484-.375v-1.797c.047-.64.484-1.281 1.25-1.281.578 0 .64.578.64 1v2.109c0 .313-.265.344-.562.344h-.125v.265L3.5-.03h1.422v-.25h-.219c-.25 0-.484-.047-.484-.375v-1.797c.062-.64.484-1.281 1.265-1.281.563 0 .625.578.625 1v2.109c0 .313-.25.344-.546.344h-.141v.265h2.047V-.28h-.172c-.25 0-.516-.031-.516-.36v-2.015c0-.281-.015-.547-.14-.781-.235-.422-.704-.532-1.141-.532-.547 0-1.11.36-1.297.86h-.016c-.078-.625-.656-.86-1.203-.86-.578 0-1.14.328-1.359.89l-.016-.89Zm0 0"/></symbol><symbol overflow="visible" id="aM"><path style="stroke:none" d="M1.031-2.063h2.657c.109 0 .156-.046.156-.156 0-1.125-.703-1.797-1.64-1.797-1.095 0-1.954.954-1.954 2.047C.25-.875 1.125.094 2.344.094c.64 0 1.281-.453 1.469-1.078.015-.016.015-.063.015-.094a.107.107 0 0 0-.11-.11c-.171 0-.171.266-.265.391-.219.375-.656.64-1.094.64h-.062C1.828-.171 1.422-.5 1.219-.921c-.172-.36-.188-.75-.188-1.14Zm.016-.218c0-.594.25-1.281.906-1.485a.914.914 0 0 1 .203-.03c.781 0 1.063.796 1.063 1.515Zm0 0"/></symbol><symbol overflow="visible" id="aN"><path style="stroke:none" d="M.813-.313c.296.297.656.407 1.046.407.735 0 1.454-.375 1.454-1.25v-.094c-.032-.516-.422-.89-.876-1.063a3.528 3.528 0 0 0-.703-.156c-.375-.078-.968-.187-.968-.703 0-.515.656-.656 1.03-.656.579 0 .985.344 1.032.969 0 .078.016.171.125.171.063 0 .125-.03.125-.109v-1.078c0-.063-.015-.14-.094-.14-.14 0-.234.218-.343.218h-.016c-.063-.015-.125-.062-.188-.094-.187-.093-.421-.125-.64-.125-.625 0-1.484.204-1.484 1.125 0 .907 1.046 1.047 1.687 1.172.39.078.828.313.86.75 0 .64-.532.828-1.016.828h-.078C1.109-.17.75-.656.594-1.28c-.031-.094-.031-.25-.156-.25-.11 0-.126.078-.126.156v1.156c0 .047-.015.078-.015.125 0 .094.016.188.11.188.093 0 .156-.11.218-.172l.031-.047c.063-.063.11-.11.156-.188Zm0 0"/></symbol><symbol overflow="visible" id="aO"><path style="stroke:none" d="M2.172-4.016c-1.047.11-1.906.954-1.906 2.094C.266-1 .953.094 2.312.094c1.047 0 2.032-.844 2.032-2 0-1.078-.844-2.125-2.047-2.125-.047 0-.078.015-.125.015ZM1.047-1.719v-.375c0-.719.219-1.703 1.266-1.703.703 0 1.156.563 1.234 1.281.015.188.015.375.015.563 0 .469-.03 1-.359 1.375a1.19 1.19 0 0 1-.906.422c-.656 0-1.11-.5-1.235-1.219 0-.11 0-.219-.015-.344Zm0 0"/></symbol><symbol overflow="visible" id="aP"><path style="stroke:none" d="M.313-3.86v.266h.14c.266 0 .547.031.547.453v2.485c0 .36-.234.375-.688.375v.265L.954-.03H2.36v-.25h-.203c-.265 0-.484-.047-.484-.375v-1.61c0-.687.406-1.468 1.25-1.468.484 0 .625.437.625 1v2.109c0 .313-.25.344-.547.344h-.14v.265L3.5-.03h1.406v-.25h-.172c-.265 0-.515-.031-.515-.36v-2.015c0-.281-.016-.531-.14-.781-.235-.422-.704-.532-1.141-.532-.547 0-1.11.375-1.313.89l-.016-.89Zm0 0"/></symbol><symbol overflow="visible" id="aQ"><path style="stroke:none" d="M.094-2.219v.563h2.469v-.563Zm0 0"/></symbol><symbol overflow="visible" id="aR"><path style="stroke:none" d="M.516-6.078.328-4.062h.25c.031-.5.078-1.172.438-1.485.296-.25.765-.266 1.14-.266h.328c.22 0 .438.016.438.329v4.78c0 .376-.36.423-.672.423h-.625v.265h3.39V-.28h-.577c-.36 0-.704-.047-.704-.422v-4.781c0-.282.141-.329.5-.329h.297c.578 0 1.235.063 1.422.875.063.297.094.594.11.875h.25L6.14-6.078Zm0 0"/></symbol><symbol overflow="visible" id="aS"><path style="stroke:none" d="M.266-3.86v.266h.171c.266 0 .516.031.516.39v4.282c0 .375-.265.375-.687.375v.281l.64-.03h1.406v-.25h-.218c-.25 0-.469-.032-.469-.36V-.438c.297.329.656.532 1.125.532 1.078 0 2.063-.875 2.063-2.031 0-1.016-.797-2.032-1.938-2.032-.5 0-.953.219-1.281.563v-.563Zm3.75 2.063C3.984-1.094 3.562-.14 2.672-.14c-.469 0-1.047-.453-1.047-.843v-1.47c0-.124-.016-.233-.016-.343 0-.5.657-.922 1.172-.922.844 0 1.25 1.063 1.25 1.75 0 .047 0 .11-.015.172Zm0 0"/></symbol><symbol overflow="visible" id="aT"><path style="stroke:none" d="M1.031-2.063h2.657c.109 0 .156-.046.156-.156 0-1.125-.703-1.797-1.64-1.797-1.095 0-1.954.954-1.954 2.047C.25-.875 1.125.094 2.344.094c.64 0 1.281-.453 1.469-1.078.015-.016.015-.063.015-.094a.107.107 0 0 0-.11-.11c-.171 0-.171.266-.265.391-.219.375-.656.64-1.094.64h-.062C1.828-.171 1.422-.5 1.219-.921c-.172-.36-.188-.75-.188-1.14Zm.016-.218c0-.594.25-1.281.906-1.485a.914.914 0 0 1 .203-.03c.781 0 1.063.796 1.063 1.515Zm1.484-3.5c-.156.015-.312.203-.422.312-.28.282-.578.547-.859.828-.016.016-.016.032-.016.047 0 .063.079.188.141.188.047 0 .094-.047.125-.063l.25-.14c.39-.22 1.172-.516 1.172-.829 0-.171-.156-.359-.344-.359-.015 0-.031.016-.047.016Zm0 0"/></symbol><symbol overflow="visible" id="aU"><path style="stroke:none" d="M1.36-5.531c0 .656-.298 1.718-1.188 1.718v.22h.781v2.374c0 .282.016.547.156.782.22.39.672.53 1.079.53h.078c.687-.124.796-.859.796-1.39v-.328h-.25c0 .125.016.25.016.39 0 .391-.094 1.079-.625 1.079-.484 0-.594-.563-.594-1.016v-2.422h1.313v-.265H1.609v-1.672Zm0 0"/></symbol><symbol overflow="visible" id="aV"><path style="stroke:none" d="M.313-3.86v.266H.39c.25 0 .593.031.593.281.016.11.016.188.016.297v1.782c0 .28.016.53.14.78.266.438.813.548 1.282.548.5 0 .984-.297 1.14-.766l.016.766 1.328-.11V-.28H4.75c-.266 0-.531-.031-.531-.438v-3.25l-1.36.11v.265h.125c.282 0 .563.031.563.453v1.766C3.5-.797 3.14-.141 2.453-.141c-.36 0-.687-.078-.765-.546-.016-.172-.016-.329-.016-.5V-3.97Zm0 0"/></symbol><clipPath id="d"><path d="M13.594 161H77v21.266H13.594Zm0 0"/></clipPath><clipPath id="H"><path d="M48 58h120v124.266H48Zm0 0"/></clipPath><clipPath id="ad"><path d="M180 45h27.863v8H180Zm0 0"/></clipPath><clipPath id="ah"><path d="M48 20.867h36v161.399H48Zm0 0"/></clipPath><clipPath id="at"><path d="M62 72h92v110.266H62Zm0 0"/></clipPath></defs><path style="fill:none;stroke-width:.19925;stroke-linecap:butt;stroke-linejoin:miter;stroke:gray;stroke-opacity:1;stroke-miterlimit:10" d="M48.955-2.127v4.254m90.918-4.254v4.254" transform="matrix(1 0 0 -1 13.592 182.264)"/><path style="fill:none;stroke-width:.3985;stroke-linecap:butt;stroke-linejoin:miter;stroke:#000;stroke-opacity:1;stroke-miterlimit:10" d="M.002-.002h192.277" transform="matrix(1 0 0 -1 13.592 182.264)"/><path style="stroke:none;fill-rule:nonzero;fill:#000;fill-opacity:1" d="m207.863 182.266-3.187-1.594 1.195 1.594-1.195 1.593"/><path style="fill:none;stroke-width:.3985;stroke-linecap:butt;stroke-linejoin:miter;stroke:#000;stroke-opacity:1;stroke-miterlimit:10" d="M.002-.002v159.407" transform="matrix(1 0 0 -1 13.592 182.264)"/><path style="stroke:none;fill-rule:nonzero;fill:#000;fill-opacity:1" d="m13.594 20.867-1.598 3.188 1.598-1.196 1.594 1.196"/><use xlink:href="#a" x="57.688" y="192.509" style="fill:#000;fill-opacity:1"/><use xlink:href="#b" x="63.064" y="193.506" style="fill:#000;fill-opacity:1"/><use xlink:href="#a" x="148.895" y="192.509" style="fill:#000;fill-opacity:1"/><use xlink:href="#c" x="154.271" y="193.506" style="fill:#000;fill-opacity:1"/><g clip-path="url(#d)"><path style="fill:none;stroke-width:.99628;stroke-linecap:butt;stroke-linejoin:miter;stroke:#00adef;stroke-opacity:1;stroke-miterlimit:10" d="M.002-.002h.492L.99.002h.492l.496.004h.492l.993.008.492.004.496.004.492.008.496.007.496.004.493.012.496.008.492.008.992.023.492.012.496.015.492.012.497.016.492.015.992.04.492.019.496.02.492.02.993.046.492.027.496.028.492.027.496.027.496.032.492.03.497.032.492.035.496.035.492.04.992.078.492.039.496.043.493.046.496.043.496.051.492.047.496.05.492.056.496.05.493.059.496.055.496.062.492.059.496.062.492.067.992.132.493.07.496.075.492.074.496.074.496.079.492.078.496.082.493.086.496.086.492.086.496.093.496.09.492.094.496.098.492.097.497.102.496.105.492.106.496.11.492.108.992.227.493.117.496.121.492.121.496.125.492.13.496.128.496.133.492.137.497.136.492.141.496.14.496.15.492.148.496.148.492.156.993.313.492.164.496.164" transform="matrix(1 0 0 -1 13.592 182.264)"/></g><use xlink:href="#e" x="18.819" y="168.147" style="fill:#000;fill-opacity:1"/><use xlink:href="#f" x="22.337" y="168.083" style="fill:#000;fill-opacity:1"/><use xlink:href="#g" x="26.269" y="167.949" style="fill:#000;fill-opacity:1"/><use xlink:href="#h" x="30.655" y="167.694" style="fill:#000;fill-opacity:1"/><use xlink:href="#i" x="33.593" y="167.475" style="fill:#000;fill-opacity:1"/><use xlink:href="#j" x="37.88" y="167.022" style="fill:#000;fill-opacity:1"/><use xlink:href="#k" x="43.626" y="166.205" style="fill:#000;fill-opacity:1"/><use xlink:href="#l" x="47.696" y="165.43" style="fill:#000;fill-opacity:1"/><use xlink:href="#m" x="53.308" y="164.064" style="fill:#000;fill-opacity:1"/><use xlink:href="#n" x="18.06" y="177.548" style="fill:#000;fill-opacity:1"/><use xlink:href="#o" x="21.332" y="177.5" style="fill:#000;fill-opacity:1"/><use xlink:href="#p" x="25.928" y="177.361" style="fill:#000;fill-opacity:1"/><use xlink:href="#q" x="30.538" y="177.108" style="fill:#000;fill-opacity:1"/><use xlink:href="#r" x="32.815" y="176.947" style="fill:#000;fill-opacity:1"/><use xlink:href="#s" x="35.026" y="176.796" style="fill:#000;fill-opacity:1"/><use xlink:href="#t" x="41.842" y="175.977" style="fill:#000;fill-opacity:1"/><use xlink:href="#u" x="45.871" y="175.337" style="fill:#000;fill-opacity:1"/><use xlink:href="#v" x="49.004" y="174.732" style="fill:#000;fill-opacity:1"/><use xlink:href="#w" x="51.161" y="174.287" style="fill:#000;fill-opacity:1"/><use xlink:href="#x" x="55.076" y="173.333" style="fill:#000;fill-opacity:1"/><use xlink:href="#y" x="83.607" y="177.923" style="fill:#00adef;fill-opacity:1"/><g style="fill:#00adef;fill-opacity:1"><use xlink:href="#z" x="89.125" y="177.923"/><use xlink:href="#A" x="93.358" y="177.923"/><use xlink:href="#B" x="95.71" y="177.923"/></g><use xlink:href="#C" x="100.182" y="177.923" style="fill:#00adef;fill-opacity:1"/><g style="fill:#00adef;fill-opacity:1"><use xlink:href="#C" x="106.296" y="177.923"/><use xlink:href="#D" x="109.589" y="177.923"/><use xlink:href="#A" x="112.888" y="177.923"/><use xlink:href="#E" x="115.24" y="177.923"/><use xlink:href="#F" x="119.943" y="177.923"/><use xlink:href="#G" x="122.295" y="177.923"/></g><path style="fill:none;stroke-width:.19925;stroke-linecap:butt;stroke-linejoin:miter;stroke:gray;stroke-opacity:1;stroke-miterlimit:10" d="M52.94 6.31h14.085" transform="matrix(1 0 0 -1 13.592 182.264)"/><g clip-path="url(#H)"><path style="fill:none;stroke-width:.99628;stroke-linecap:butt;stroke-linejoin:miter;stroke:#00adef;stroke-opacity:1;stroke-miterlimit:10" d="m48.955 6.31.918.317.918.32.922.337.918.343.918.356.918.363.918.379.918.387.918.398.917.406.918.422.918.434.922.441.918.457.918.469.918.48.918.493.918.504.918.515.918.531.918.543.918.555.922.57.918.582.918.594.918.61.918.625.918.636.918.653.918.664.918.68.918.695.921.707.918.726.918.739.918.753.918.77.918.785.918.8.918.817.918.832.918.848.922.867.918.88.918.898.918.914.918.933.918.946.918.968.918.98.918 1 .918 1.02.918 1.035.922 1.051.918 1.074.918 1.09.918 1.106.918 1.129.917 1.144.918 1.164.918 1.184.918 1.203.918 1.219.922 1.242.918 1.262.918 1.277.918 1.3.918 1.321.918 1.34.918 1.363.918 1.38.918 1.401.918 1.422.922 1.446.918 1.464.918 1.485.918 1.508.918 1.527.918 1.55.918 1.575.918 1.594.918 1.617.918 1.637.921 1.664.918 1.683.918 1.707.918 1.73.918 1.75.918 1.778.918 1.8.918 1.821.918 1.848.918 1.871.922 1.895.918 1.917.918 1.946.918 1.965.918 1.992.918 2.015" transform="matrix(1 0 0 -1 13.592 182.264)"/></g><use xlink:href="#I" x="86.523" y="158.375" style="fill:#000;fill-opacity:1"/><use xlink:href="#J" x="89.399" y="156.254" style="fill:#000;fill-opacity:1"/><use xlink:href="#K" x="92.589" y="153.688" style="fill:#000;fill-opacity:1"/><use xlink:href="#L" x="96.017" y="150.737" style="fill:#000;fill-opacity:1"/><use xlink:href="#M" x="98.356" y="148.6" style="fill:#000;fill-opacity:1"/><use xlink:href="#N" x="101.623" y="145.398" style="fill:#000;fill-opacity:1"/><use xlink:href="#O" x="106.014" y="140.771" style="fill:#000;fill-opacity:1"/><use xlink:href="#P" x="109.043" y="137.329" style="fill:#000;fill-opacity:1"/><use xlink:href="#Q" x="113.117" y="132.399" style="fill:#000;fill-opacity:1"/><use xlink:href="#R" x="115.789" y="128.954" style="fill:#000;fill-opacity:1"/><use xlink:href="#S" x="118.252" y="125.639" style="fill:#000;fill-opacity:1"/><use xlink:href="#T" x="120.914" y="121.884" style="fill:#000;fill-opacity:1"/><use xlink:href="#U" x="123.249" y="118.43" style="fill:#000;fill-opacity:1"/><use xlink:href="#V" x="125.026" y="115.726" style="fill:#000;fill-opacity:1"/><use xlink:href="#W" x="126.275" y="113.769" style="fill:#000;fill-opacity:1"/><use xlink:href="#X" x="128.014" y="110.989" style="fill:#000;fill-opacity:1"/><use xlink:href="#Y" x="130.176" y="107.418" style="fill:#000;fill-opacity:1"/><use xlink:href="#Z" x="131.818" y="104.63" style="fill:#000;fill-opacity:1"/><use xlink:href="#aa" x="132.971" y="102.645" style="fill:#000;fill-opacity:1"/><use xlink:href="#ab" x="135.016" y="99.001" style="fill:#000;fill-opacity:1"/><use xlink:href="#ac" x="149.856" y="68.036" style="fill:#00adef;fill-opacity:1"/><use xlink:href="#y" x="157.346" y="50.924" style="fill:#00adef;fill-opacity:1"/><g style="fill:#00adef;fill-opacity:1"><use xlink:href="#z" x="162.864" y="50.924"/><use xlink:href="#A" x="167.097" y="50.924"/><use xlink:href="#B" x="169.449" y="50.924"/></g><use xlink:href="#C" x="173.921" y="50.924" style="fill:#00adef;fill-opacity:1"/><g style="fill:#00adef;fill-opacity:1" clip-path="url(#ad)"><use xlink:href="#ae" x="180.035" y="50.924"/><use xlink:href="#D" x="183.798" y="50.924"/><use xlink:href="#A" x="187.098" y="50.924"/><use xlink:href="#C" x="189.45" y="50.924"/><use xlink:href="#A" x="192.742" y="50.924"/><use xlink:href="#af" x="195.094" y="50.924"/><use xlink:href="#ag" x="199.562" y="50.924"/><use xlink:href="#G" x="204.265" y="50.924"/></g><path style="fill:none;stroke-width:.19925;stroke-linecap:butt;stroke-linejoin:miter;stroke:gray;stroke-opacity:1;stroke-miterlimit:10" d="m142.861 112.155 18.168 14.648" transform="matrix(1 0 0 -1 13.592 182.264)"/><g clip-path="url(#ah)"><path style="fill:none;stroke-width:.99628;stroke-linecap:butt;stroke-linejoin:miter;stroke:#00adef;stroke-opacity:1;stroke-miterlimit:10" d="m48.955 6.31 6.734 155.087" transform="matrix(1 0 0 -1 13.592 182.264)"/></g><use xlink:href="#ai" x="59.972" y="127.018" style="fill:#000;fill-opacity:1"/><use xlink:href="#aj" x="60.135" y="123.259" style="fill:#000;fill-opacity:1"/><use xlink:href="#ak" x="60.319" y="119.03" style="fill:#000;fill-opacity:1"/><use xlink:href="#al" x="60.523" y="114.331" style="fill:#000;fill-opacity:1"/><use xlink:href="#am" x="60.666" y="111.035" style="fill:#000;fill-opacity:1"/><use xlink:href="#an" x="60.87" y="106.337" style="fill:#000;fill-opacity:1"/><use xlink:href="#ao" x="61.155" y="99.758" style="fill:#000;fill-opacity:1"/><use xlink:href="#an" x="61.359" y="95.06" style="fill:#000;fill-opacity:1"/><use xlink:href="#ap" x="61.645" y="88.481" style="fill:#000;fill-opacity:1"/><use xlink:href="#ak" x="61.757" y="85.897" style="fill:#000;fill-opacity:1"/><use xlink:href="#aq" x="61.961" y="81.198" style="fill:#000;fill-opacity:1"/><use xlink:href="#ar" x="62.106" y="77.862" style="fill:#000;fill-opacity:1"/><use xlink:href="#aj" x="62.208" y="75.513" style="fill:#000;fill-opacity:1"/><use xlink:href="#as" x="62.391" y="71.284" style="fill:#000;fill-opacity:1"/><g clip-path="url(#at)"><path style="fill:none;stroke-width:.3985;stroke-linecap:butt;stroke-linejoin:miter;stroke:#000;stroke-opacity:1;stroke-dasharray:2.98883,1.99255;stroke-miterlimit:10" d="M48.955-.002v6.313m90.918-6.313v109.75" transform="matrix(1 0 0 -1 13.592 182.264)"/></g><path style="stroke:none;fill-rule:nonzero;fill:#fff;fill-opacity:1" d="M19.566 56.234h34.676V50.06H19.566Zm0 0"/><g style="fill:#000;fill-opacity:1"><use xlink:href="#au" x="19.567" y="56.236"/><use xlink:href="#av" x="24.685" y="56.236"/><use xlink:href="#aw" x="31.851" y="56.236"/><use xlink:href="#ax" x="37.608" y="56.236"/><use xlink:href="#ay" x="40.934" y="56.236"/><use xlink:href="#az" x="47.971" y="56.236"/></g><path style="stroke:none;fill-rule:nonzero;fill:#fff;fill-opacity:1" d="M81.117 97.453h39.79v-7.918h-39.79Zm0 0"/><g style="fill:#000;fill-opacity:1"><use xlink:href="#aw" x="81.117" y="95.713"/><use xlink:href="#ax" x="86.874" y="95.713"/><use xlink:href="#aA" x="90.2" y="95.713"/><use xlink:href="#aB" x="97.366" y="95.713"/><use xlink:href="#ax" x="104.275" y="95.713"/><use xlink:href="#ay" x="107.6" y="95.713"/><use xlink:href="#az" x="114.637" y="95.713"/></g><path style="stroke:none;fill-rule:nonzero;fill:#fff;fill-opacity:1" d="M125.086 141.914h48.988v-16.137h-48.988Zm0 0"/><use xlink:href="#aC" x="130.068" y="136.933" style="fill:#000;fill-opacity:1"/><g style="fill:#000;fill-opacity:1"><use xlink:href="#aD" x="135.954" y="136.933"/><use xlink:href="#aE" x="142.863" y="136.933"/><use xlink:href="#az" x="149.132" y="136.933"/><use xlink:href="#aB" x="155.402" y="136.933"/><use xlink:href="#aF" x="162.31" y="136.933"/></g><path style="fill-rule:nonzero;fill:#fff;fill-opacity:1;stroke-width:.3985;stroke-linecap:butt;stroke-linejoin:miter;stroke:#000;stroke-opacity:1;stroke-miterlimit:10" d="M50.947 6.31a1.993 1.993 0 1 1-3.983-.002 1.993 1.993 0 0 1 3.983.003ZM141.865 109.748a1.993 1.993 0 1 1-3.983-.002 1.993 1.993 0 0 1 3.983.002Zm0 0" transform="matrix(1 0 0 -1 13.592 182.264)"/><use xlink:href="#a" x="204.532" y="192.376" style="fill:#000;fill-opacity:1"/><use xlink:href="#aG" x="4.981" y="21.928" style="fill:#000;fill-opacity:1"/><g style="fill:#000;fill-opacity:1"><use xlink:href="#ay" x="41.91" y="11.156"/><use xlink:href="#aH" x="48.947" y="11.156"/><use xlink:href="#aI" x="51.506" y="11.156"/><use xlink:href="#aJ" x="56.113" y="11.156"/><use xlink:href="#aK" x="60.72" y="11.156"/><use xlink:href="#aI" x="64.323" y="11.156"/><use xlink:href="#aL" x="68.93" y="11.156"/><use xlink:href="#aL" x="76.608" y="11.156"/><use xlink:href="#aM" x="84.286" y="11.156"/></g><g style="fill:#000;fill-opacity:1"><use xlink:href="#aE" x="91.451" y="11.156"/><use xlink:href="#aK" x="97.72" y="11.156"/><use xlink:href="#aM" x="101.324" y="11.156"/><use xlink:href="#aN" x="105.423" y="11.156"/><use xlink:href="#aN" x="109.057" y="11.156"/><use xlink:href="#aH" x="112.691" y="11.156"/><use xlink:href="#aO" x="115.25" y="11.156"/><use xlink:href="#aP" x="119.857" y="11.156"/><use xlink:href="#aQ" x="124.975" y="11.156"/><use xlink:href="#aR" x="128.046" y="11.156"/></g><g style="fill:#000;fill-opacity:1"><use xlink:href="#aM" x="133.938" y="11.156"/><use xlink:href="#aL" x="138.036" y="11.156"/><use xlink:href="#aS" x="145.714" y="11.156"/><use xlink:href="#aT" x="150.832" y="11.156"/><use xlink:href="#aK" x="154.931" y="11.156"/><use xlink:href="#aI" x="158.534" y="11.156"/><use xlink:href="#aU" x="163.141" y="11.156"/><use xlink:href="#aV" x="166.724" y="11.156"/><use xlink:href="#aK" x="171.842" y="11.156"/><use xlink:href="#aM" x="175.446" y="11.156"/></g></svg>