<svg xmlns="http://www.w3.org/2000/svg" xmlns:xlink="http://www.w3.org/1999/xlink" width="222.687" height="186.207" viewBox="0 0 167.015 139.655"><defs><symbol overflow="visible" id="a"><path style="stroke:none" d="M5.203-5.531h-.812v2.39H1.578v-2.39H.766V0h.812v-2.61h2.813V0h.812Zm0 0"/></symbol><symbol overflow="visible" id="c"><path style="stroke:none" d="M3.89-2.594c0-.375 0-1.312-.374-1.969C3.109-5.28 2.5-5.39 2.109-5.39c-.359 0-.984.11-1.375.797-.39.64-.406 1.5-.406 2C.328-2 .36-1.28.703-.672c.344.64.938.844 1.406.844.797 0 1.235-.469 1.47-.969.28-.562.312-1.297.312-1.797ZM2.11-.359c-.329 0-.72-.188-.922-.766-.157-.484-.157-.984-.157-1.563 0-.734 0-2.187 1.078-2.187 1.094 0 1.094 1.453 1.094 2.188 0 .515 0 1.124-.203 1.624-.219.579-.625.704-.89.704Zm0 0"/></symbol><symbol overflow="visible" id="b"><path style="stroke:none" d="M1.688-.453H.796l.922-.828c.11-.094.406-.313.515-.407.266-.234.625-.546.625-1.078 0-.671-.5-1.28-1.359-1.28-.64 0-1.031.343-1.234.952l.28.344c.141-.5.345-.89.86-.89.516 0 .89.359.89.89 0 .5-.296.781-.655 1.125-.11.11-.438.39-.563.5-.172.156-.594.563-.766.719V0H2.86v-.453Zm0 0"/></symbol><symbol overflow="visible" id="d"><path style="stroke:none" d="M2.375 1.36C1.719.843 1.187-.095 1.187-1.5c0-1.375.532-2.344 1.188-2.844 0 0 .031-.031.031-.062 0-.032-.031-.078-.11-.078C2.204-4.484.75-3.547.75-1.5c0 2.047 1.438 3 1.547 3 .078 0 .11-.047.11-.094 0-.031-.032-.047-.032-.047Zm0 0"/></symbol><symbol overflow="visible" id="f"><path style="stroke:none" d="M2.125-1.5c0-2.047-1.438-2.984-1.563-2.984-.062 0-.078.046-.078.078 0 .031 0 .047.11.14.531.454 1.094 1.344 1.094 2.766C1.688-.234 1.25.719.563 1.297c-.079.078-.079.078-.079.11 0 .03.016.093.079.093.109 0 1.562-.938 1.562-3Zm0 0"/></symbol><symbol overflow="visible" id="e"><path style="stroke:none" d="M2.734-2.25a.301.301 0 0 0-.234.281c0 .094.063.203.203.203.125 0 .297-.093.297-.343 0-.407-.453-.532-.844-.532-.922 0-1.14.61-1.14.86 0 .484.546.578.703.61.453.077.797.14.797.437a.56.56 0 0 1-.313.453c-.234.125-.484.14-.672.14-.203 0-.578-.015-.75-.218a.347.347 0 0 0 .313-.344c0-.125-.078-.219-.25-.219C.688-.922.5-.797.5-.516c0 .329.328.579 1.031.579 1.125 0 1.36-.704 1.36-.97a.535.535 0 0 0-.22-.452c-.187-.172-.421-.204-.702-.25-.297-.063-.578-.11-.578-.344 0 0 0-.484.75-.484.156 0 .453.015.593.187Zm0 0"/></symbol><symbol overflow="visible" id="g"><path style="stroke:none" d="M3.39-2.188c.032-.093.032-.124.032-.14 0-.125-.11-.203-.219-.203-.094 0-.234.078-.281.25a.748.748 0 0 0-.656-.36C1.453-2.64.672-1.812.672-1c0 .594.406 1 .969 1 .312 0 .593-.156.796-.328l-.14.547c-.063.234-.094.406-.344.594-.281.203-.516.203-.703.203-.25 0-.328 0-.453-.032A.305.305 0 0 0 .953.72C.953.516.797.484.72.484a.35.35 0 0 0-.344.36c0 .375.563.375.89.375.782 0 1.344-.297 1.485-.844Zm-.828 1.36c-.03.094-.03.11-.109.203-.219.25-.515.422-.797.422-.218 0-.468-.125-.468-.578 0-.266.14-.86.328-1.156.218-.36.515-.5.75-.5.437 0 .578.437.578.5 0 .03-.016.062-.031.093Zm0 0"/></symbol><symbol overflow="visible" id="h"><path style="stroke:none" d="M.766-1.063c-.032.016-.391.344-.438.391-.125.094-.125.094-.125.14 0 .016.047.11.11.11.03 0 .046 0 .124-.078l.36-.313c.078.36.281.891.828.891.516 0 1.063-.515 1.063-.515.015-.016.03-.016.03-.063s-.062-.125-.109-.125c-.03 0-.046.016-.093.063-.297.234-.594.437-.875.437-.454 0-.454-.734-.454-.844 0-.172 0-.187.063-.25.36-.312.703-.672.984-1.078.5-.672.547-1.187.547-1.375 0-.219-.078-.547-.422-.547-.765 0-1.593 1.813-1.593 2.969v.188Zm.468-.437c.032-.172.235-1.172.516-1.797.094-.187.328-.719.61-.719.187 0 .203.204.203.329 0 .703-.626 1.546-1.329 2.187Zm0 0"/></symbol><symbol overflow="visible" id="i"><path style="stroke:none" d="M1.25.766c-.297 0-.36 0-.36-.22v-.78a.81.81 0 0 0 .626.28c.609 0 1.14-.468 1.14-1.077 0-.594-.484-1.078-1.062-1.078a.992.992 0 0 0-.719.296v-.296l-.703.046v.172c.328 0 .36.016.36.22V.546c0 .219-.063.219-.36.219v.156C.375.906.578.906.719.906c.125 0 .328 0 .531.016Zm-.36-2.36c.11-.187.36-.36.657-.36.36 0 .672.407.672.923 0 .547-.344.937-.735.937a.631.631 0 0 1-.53-.297C.89-.484.89-.484.89-.578Zm0 0"/></symbol><symbol overflow="visible" id="j"><path style="stroke:none" d="M2.39-1.016c0-.593-.5-1.109-1.124-1.109-.625 0-1.125.516-1.125 1.11C.14-.423.656.046 1.266.046c.625 0 1.125-.469 1.125-1.063Zm-1.124.922A.659.659 0 0 1 .703-.39c-.125-.203-.14-.437-.14-.671 0-.188 0-.47.156-.672A.667.667 0 0 1 1.266-2c.25 0 .453.125.562.281.125.203.14.469.14.657 0 .218-.015.484-.14.687a.688.688 0 0 1-.562.281Zm0 0"/></symbol><symbol overflow="visible" id="k"><path style="stroke:none" d="M.938-2.938c0-.14-.11-.28-.266-.28-.14 0-.266.109-.266.265 0 .172.14.265.266.265.156 0 .265-.14.265-.25Zm-.72.876v.171c.298 0 .345.016.345.25v1.266c0 .219-.063.219-.36.219V0c.188-.016.453-.016.531-.016.047 0 .344 0 .516.016v-.156c-.313 0-.344-.032-.344-.219v-1.734Zm0 0"/></symbol><symbol overflow="visible" id="l"><path style="stroke:none" d="M2.328-1.453c0-.39-.187-.656-.687-.656-.47 0-.688.343-.75.453v-.453l-.688.046v.172c.313 0 .36.032.36.266v1.25c0 .219-.063.219-.36.219V0C.406-.016.61-.016.734-.016c.141 0 .344 0 .547.016v-.156c-.297 0-.36 0-.36-.219v-.86c0-.5.391-.734.673-.734.297 0 .36.203.36.5v1.094c0 .219-.048.219-.36.219V0c.203-.016.422-.016.547-.016.14 0 .343 0 .546.016v-.156c-.312 0-.359 0-.359-.219Zm0 0"/></symbol><symbol overflow="visible" id="m"><path style="stroke:none" d="M.89-1.906h.72v-.157H.89v-.874H.735c0 .437-.187.89-.64.906v.125H.53v1.312c0 .563.422.64.64.64.329 0 .516-.28.516-.64v-.265h-.14v.25c0 .328-.156.515-.344.515-.312 0-.312-.422-.312-.5Zm0 0"/></symbol><symbol overflow="visible" id="n"><path style="stroke:none" d="M.875-1.094c0-.36.156-.875.61-.875-.032.016-.079.047-.079.157 0 .156.125.218.219.218.11 0 .219-.078.219-.218 0-.157-.157-.297-.375-.297-.313 0-.516.234-.625.5v-.5l-.672.046v.172c.328 0 .36.032.36.266v1.25c0 .219-.063.219-.36.219V0c.187-.016.437-.016.562-.016.282 0 .282 0 .594.016v-.156h-.094c-.343 0-.359-.047-.359-.219Zm0 0"/></symbol><symbol overflow="visible" id="o"><path style="stroke:none" d="m.906-3.313-.703.047v.157c.328 0 .36.03.36.265v2.469c0 .219-.063.219-.36.219V0c.188-.016.453-.016.531-.016.094 0 .36 0 .547.016v-.156c-.312 0-.375 0-.375-.219Zm0 0"/></symbol><symbol overflow="visible" id="p"><path style="stroke:none" d="M1.969-1.094c.11 0 .14 0 .14-.11 0-.421-.234-.921-.906-.921-.594 0-1.062.484-1.062 1.078C.14-.437.656.047 1.266.047c.609 0 .843-.516.843-.625 0-.016-.015-.063-.078-.063-.047 0-.062.032-.078.063a.69.69 0 0 1-.656.484.686.686 0 0 1-.578-.328C.563-.64.563-.953.563-1.094Zm-1.39-.125C.608-1.89 1.015-2 1.202-2c.563 0 .578.672.578.781Zm0 0"/></symbol><symbol overflow="visible" id="q"><path style="stroke:none" d="M1.766-1.89c-.141.03-.157.14-.157.202 0 .125.094.22.22.22.124 0 .234-.079.234-.22 0-.296-.329-.437-.782-.437a1.08 1.08 0 0 0-1.11 1.094c0 .61.5 1.078 1.095 1.078.671 0 .843-.563.843-.625 0-.047-.062-.047-.078-.047-.031 0-.062 0-.078.047-.031.094-.156.484-.64.484-.297 0-.72-.234-.72-.937 0-.688.36-.953.704-.953.047 0 .297 0 .469.093Zm0 0"/></symbol><symbol overflow="visible" id="r"><path style="stroke:none" d="M2.297-2.11h-.14l-.173.422c-.156-.265-.39-.421-.687-.421-.61 0-1.125.468-1.125 1.078A1.08 1.08 0 0 0 1.25.047a.84.84 0 0 0 .672-.328v.828c0 .219-.047.219-.36.219v.156c.204-.016.422-.016.547-.016.141 0 .344 0 .547.016V.766c-.312 0-.36 0-.36-.22Zm-.36 1.438c0 .063 0 .094-.062.219-.188.297-.438.36-.594.36-.39 0-.687-.423-.687-.938 0-.547.36-.922.734-.922.39 0 .61.375.61.64Zm0 0"/></symbol><symbol overflow="visible" id="s"><path style="stroke:none" d="M1.594-2.063v.172c.328 0 .36.032.36.266v.828c0 .406-.235.703-.595.703-.421 0-.437-.203-.437-.437V-2.11l-.719.046v.172c.36 0 .36 0 .36.438v.719c0 .343 0 .78.765.78a.678.678 0 0 0 .64-.39v.39L2.689 0v-.156c-.329 0-.36-.032-.36-.266v-1.687Zm0 0"/></symbol><symbol overflow="visible" id="t"><path style="stroke:none" d="M.969-.422c.25.078.312.094.312.406 0 .11 0 .204.157.204.062 0 .109-.063.109-.11 0-.078-.031-.11-.031-.703 0-.563.03-.734.03-.797 0-.031 0-.14-.155-.14-.11 0-.11.109-.11.203 0 .375-.047.375-.125.375-.047 0-.61-.141-1.547-.375.188-.11.47-.36.47-.782 0-.984-1.126-2-2.282-2-.797 0-1.313.5-1.313 1.141 0 .484.329.86.563 1.094-.563.172-.563.703-.563.781 0 .281.188.484.438.61.36.187.765.28.781.28.078 0 .11-.062.11-.124 0-.11-.032-.11-.25-.172-.407-.094-.86-.235-.86-.563 0-.203.188-.265.375-.265.078 0 .281.03.344.046Zm-3.422-1.453c-.14-.047-.156-.047-.297-.172-.36-.297-.547-.64-.547-.922 0-.406.39-.547.75-.547.297 0 1.156.172 1.625.407.422.203.781.593.781.968 0 .532-.625.672-.687.672A.483.483 0 0 1-.953-1.5Zm0 0"/></symbol><symbol overflow="visible" id="u"><path style="stroke:none" d="M1.984-2.156h-.359v.797h-7.234v-.797h-.36v1.172h7.953Zm0 0"/></symbol><symbol overflow="visible" id="v"><path style="stroke:none" d="M-2.375-3.344c-.781 0-1.172.75-1.172 1.485 0 .656.25 1.25.781 1.25a.36.36 0 0 0 .375-.375c0-.235-.156-.375-.375-.375-.187 0-.328.109-.359.296-.203-.296-.203-.734-.203-.78 0-.454.312-.891.969-.891h.234c.031.453.047.984.281 1.546.313.704.766.844 1.032.844.687 0 .89-.812.89-1.36 0-.577-.328-.937-.64-1.124.296-.031.609-.235.609-.594 0-.078-.031-.75-.766-.75h-.437v.25h.437c.328 0 .453.11.453.281 0 .297-.359.297-.453.297Zm1.25.61c.781 0 .984.64.984.968 0 .407-.28.766-.671.766-.516 0-1.063-.5-1.094-1.734Zm0 0"/></symbol><symbol overflow="visible" id="w"><path style="stroke:none" d="M-3.172-1.484v-1.188h-.265v1.188h-1.47v.25c.735 0 1.485.328 1.516 1.078h.22v-.719H-1c.938 0 1.078-.719 1.078-1.078 0-.547-.469-.86-1.078-.86h-.438v.25h.422c.547 0 .844.25.844.547 0 .532-.687.532-.812.532Zm0 0"/></symbol><symbol overflow="visible" id="x"><path style="stroke:none" d="M-2.422-6.219c-.64 0-1.094.282-1.094 1.14 0 .735.5 1.11.735 1.235-.578.14-.735.594-.735 1.11 0 .78.547 1.14.766 1.25h-.766l.094 1.156h.266c0-.547.047-.61.437-.61h2.094c.36 0 .36.094.36.61H0c-.031-.344-.031-.688-.031-.906 0-.235 0-.563.031-.907h-.266c0 .5 0 .61-.359.61h-1.438c-.843 0-1.234-.64-1.234-1.14 0-.517.406-.61.844-.61h1.828c.36 0 .36.11.36.61H0c-.031-.345-.031-.688-.031-.907 0-.235 0-.563.031-.906h-.266c0 .515 0 .609-.359.609h-1.438c-.843 0-1.234-.64-1.234-1.14 0-.516.406-.61.844-.61h1.828c.36 0 .36.11.36.61H0c-.031-.344-.031-.688-.031-.907 0-.234 0-.562.031-.906h-.266c0 .516 0 .61-.359.61Zm0 0"/></symbol><symbol overflow="visible" id="y"><path style="stroke:none" d="M-5.969-1.36v1.173h.36v-.797h7.234v.796h.36v-1.171Zm0 0"/></symbol><symbol overflow="visible" id="z"><path style="stroke:none" d="M3.61-4.828c.062-.281.078-.297.406-.297h.593c.829 0 .922.266.922.656 0 .203-.047.547-.047.594-.015.078-.03.156-.03.172 0 .094.077.125.124.125.094 0 .125-.047.14-.203l.22-1.5c0-.11-.094-.11-.235-.11H1c-.188 0-.219 0-.266.172L.25-3.844c-.016.047-.047.11-.047.156 0 .063.063.11.125.11.094 0 .11-.047.156-.172.454-1.281.672-1.375 1.891-1.375h.313c.234 0 .25.016.25.078 0 .016-.032.172-.047.203L1.844-.656c-.078.312-.094.39-.922.39-.266 0-.344 0-.344.157 0 0 0 .109.14.109.22 0 .766-.031.985-.031h.672c.219 0 .781.031 1 .031.063 0 .188 0 .188-.156 0-.11-.094-.11-.297-.11-.204 0-.266 0-.47-.015-.25-.016-.28-.047-.28-.156 0-.032 0-.063.03-.141Zm0 0"/></symbol><symbol overflow="visible" id="A"><path style="stroke:none" d="M2.156 1.984v-.359H1.36v-7.234h.797v-.36H.984v7.953Zm0 0"/></symbol><symbol overflow="visible" id="C"><path style="stroke:none" d="M5.64-5.406c0-.125 0-.203-.109-.203-.062 0-.062 0-.14.109l-.407.594a2.117 2.117 0 0 0-1.578-.703C1.812-5.61.47-4.33.47-2.72S1.797.171 3.422.171C4.75.172 5.64-.89 5.64-1.858c0-.079 0-.157-.141-.157-.078 0-.11.047-.11.125C5.329-.67 4.329-.094 3.485-.094c-.671 0-2.187-.422-2.187-2.625 0-2.156 1.437-2.625 2.187-2.625.75 0 1.672.532 1.891 1.907 0 .062.016.109.125.109.14 0 .14-.047.14-.203Zm0 0"/></symbol><symbol overflow="visible" id="D"><path style="stroke:none" d="M1.36-5.969H.186v.36h.797v7.234H.188v.36h1.171Zm0 0"/></symbol><symbol overflow="visible" id="B"><path style="stroke:none" d="M3.266-1.5c0-.75-.61-1.36-1.36-1.36-.734 0-1.343.61-1.343 1.36 0 .766.609 1.36 1.343 1.36.75 0 1.36-.594 1.36-1.36ZM1.906-.453A1.024 1.024 0 0 1 .875-1.5c0-.578.453-1.047 1.031-1.047.578 0 1.047.469 1.047 1.047 0 .594-.469 1.047-1.047 1.047Zm0 0"/></symbol><symbol overflow="visible" id="E"><path style="stroke:none" d="M2.734-1.781c0-.594-.062-.953-.25-1.313-.25-.5-.703-.61-1-.61-.703 0-.968.517-1.046.673-.204.406-.204.969-.204 1.25 0 .375.016.937.282 1.375.25.422.671.515.968.515A1.09 1.09 0 0 0 2.5-.516c.203-.406.234-.906.234-1.265Zm-1.25 1.75c-.203 0-.578-.094-.703-.688C.72-1.03.72-1.563.72-1.844c0-.39 0-.781.062-1.078.125-.578.563-.625.703-.625.188 0 .563.094.688.594.062.312.062.734.062 1.11 0 .327 0 .827-.062 1.14-.125.594-.516.672-.688.672Zm0 0"/></symbol><symbol overflow="visible" id="F"><path style="stroke:none" d="M1.125-.313a.3.3 0 0 0-.297-.312.313.313 0 0 0-.312.313A.3.3 0 0 0 .812 0a.303.303 0 0 0 .313-.313Zm0 0"/></symbol><symbol overflow="visible" id="G"><path style="stroke:none" d="M1.75-3.547c0-.156-.016-.156-.156-.156-.235.219-.532.344-1.063.344v.187c.156 0 .453 0 .781-.14v2.859c0 .203-.015.266-.546.266H.562V0c.235-.016.72-.016.97-.016s.734 0 .968.016v-.188h-.203c-.531 0-.547-.062-.547-.265Zm0 0"/></symbol><symbol overflow="visible" id="H"><path style="stroke:none" d="M.766-1.844c0-.468.046-.875.25-1.218.156-.266.453-.5.796-.5.11 0 .375.015.5.203-.25.015-.28.203-.28.265 0 .172.14.266.265.266.11 0 .265-.063.265-.266 0-.344-.25-.61-.75-.61-.78 0-1.562.735-1.562 1.938C.25-.25.953.11 1.484.11c.266 0 .563-.062.813-.296.219-.22.406-.454.406-.938 0-.734-.547-1.25-1.156-1.25-.406 0-.656.25-.781.531Zm.718 1.797c-.296 0-.468-.203-.562-.36-.125-.25-.14-.64-.14-.843 0-.563.312-.969.734-.969.28 0 .453.14.546.344.126.203.126.453.126.734 0 .282 0 .532-.11.735-.14.25-.344.36-.594.36Zm0 0"/></symbol><symbol overflow="visible" id="I"><path style="stroke:none" d="M1.406-1.86c.453 0 .719.313.719.907 0 .703-.39.906-.688.906-.312 0-.718-.11-.921-.406.203 0 .343-.125.343-.313 0-.187-.125-.312-.312-.312-.14 0-.297.094-.297.312 0 .532.563.875 1.203.875.734 0 1.25-.5 1.25-1.062 0-.469-.36-.89-.922-1.016.438-.156.766-.531.766-.968 0-.454-.5-.766-1.078-.766-.61 0-1.063.312-1.063.734 0 .219.14.297.297.297.172 0 .281-.11.281-.281 0-.203-.187-.281-.296-.281.234-.313.656-.329.75-.329.156 0 .578.047.578.626 0 .374-.157.609-.235.703-.172.171-.297.187-.64.203-.11.015-.157.015-.157.094 0 .078.047.078.141.078Zm0 0"/></symbol><symbol overflow="visible" id="J"><path style="stroke:none" d="M2.828-3.39c.047-.063.047-.079.047-.204H1.453c-.14 0-.312 0-.453-.015-.281-.016-.297-.079-.313-.157H.516L.328-2.594H.5c.016-.078.078-.469.156-.515.063-.032.469-.032.563-.032h1.187l-.578.782c-.64.843-.781 1.718-.781 2.171 0 .047 0 .297.266.297.265 0 .265-.25.265-.312V-.47c0-.797.14-1.469.406-1.828Zm0 0"/></symbol><symbol overflow="visible" id="K"><path style="stroke:none" d="M2.203-3.61c0-.109 0-.156-.125-.156-.062 0-.078 0-.125.079L.172-1.095v.172h1.562v.469c0 .203-.015.266-.437.266h-.125V0c.469-.016.484-.016.797-.016.312 0 .328 0 .797.016v-.188H2.64c-.422 0-.438-.062-.438-.265v-.469h.578v-.172h-.578Zm-.422.454v2.062H.36Zm0 0"/></symbol><symbol overflow="visible" id="L"><path style="stroke:none" d="M1.578-1.14c.078-.079.313-.266.406-.344.344-.313.672-.625.672-1.125 0-.672-.547-1.094-1.25-1.094-.672 0-1.11.5-1.11 1 0 .265.22.312.298.312.11 0 .281-.093.281-.296 0-.297-.266-.297-.344-.297a.885.885 0 0 1 .813-.547c.515 0 .781.453.781.922 0 .578-.406 1-1.063 1.671l-.703.72C.297-.157.297-.142.297 0H2.5l.156-1h-.172c-.015.11-.062.39-.125.5-.03.047-.453.047-.546.047h-1Zm0 0"/></symbol><symbol overflow="visible" id="M"><path style="stroke:none" d="M1.86-2.016c.312-.156.687-.421.687-.859 0-.531-.547-.828-1.063-.828-.593 0-1.078.406-1.078.922 0 .203.078.406.219.562.094.11.11.125.469.344C.39-1.562.25-1.156.25-.844c0 .61.61.953 1.219.953.687 0 1.234-.453 1.234-1.046 0-.344-.187-.579-.265-.688-.094-.078-.11-.094-.579-.39ZM.983-2.53c-.156-.11-.296-.266-.296-.453 0-.36.39-.579.78-.579.438 0 .798.297.798.688 0 .313-.25.594-.579.75Zm.282.75c.015.015.656.406.75.468.093.047.375.235.375.563 0 .438-.454.703-.907.703-.5 0-.921-.344-.921-.797 0-.422.312-.75.703-.937Zm0 0"/></symbol></defs><use xlink:href="#a" x="32.953" y="70.404" style="fill:#000;fill-opacity:1"/><use xlink:href="#b" x="38.93" y="71.582" style="fill:#000;fill-opacity:1"/><use xlink:href="#c" x="42.604" y="70.404" style="fill:#000;fill-opacity:1"/><use xlink:href="#d" x="46.838" y="72.142" style="fill:#000;fill-opacity:1"/><use xlink:href="#e" x="49.716" y="72.142" style="fill:#000;fill-opacity:1"/><use xlink:href="#f" x="53.21" y="72.142" style="fill:#000;fill-opacity:1"/><use xlink:href="#a" x="95.137" y="93.081" style="fill:#000;fill-opacity:1"/><use xlink:href="#b" x="101.115" y="94.259" style="fill:#000;fill-opacity:1"/><use xlink:href="#c" x="104.788" y="93.081" style="fill:#000;fill-opacity:1"/><use xlink:href="#d" x="109.023" y="94.819" style="fill:#000;fill-opacity:1"/><use xlink:href="#g" x="111.901" y="94.819" style="fill:#000;fill-opacity:1"/><use xlink:href="#f" x="115.748" y="94.819" style="fill:#000;fill-opacity:1"/><use xlink:href="#a" x="84.173" y="43.192" style="fill:#000;fill-opacity:1"/><use xlink:href="#b" x="90.15" y="44.37" style="fill:#000;fill-opacity:1"/><use xlink:href="#c" x="93.824" y="43.192" style="fill:#000;fill-opacity:1"/><use xlink:href="#d" x="98.058" y="44.93" style="fill:#000;fill-opacity:1"/><use xlink:href="#h" x="100.936" y="44.93" style="fill:#000;fill-opacity:1"/><use xlink:href="#f" x="104.036" y="44.93" style="fill:#000;fill-opacity:1"/><path style="fill:none;stroke-width:.99628;stroke-linecap:butt;stroke-linejoin:miter;stroke:#00adef;stroke-opacity:1;stroke-miterlimit:10" d="M0-.001c20.836 7.586 34.27 14.816 45.355 34.02M45.355 34.019c32.617 11.87 52.95 24.367 70.301 54.425M45.355 34.019l-22.676 79.37" transform="matrix(1 0 0 -1 27.762 116.874)"/><path style="fill:none;stroke-width:.3985;stroke-linecap:butt;stroke-linejoin:miter;stroke:#000;stroke-opacity:1;stroke-dasharray:2.98883,2.98883;stroke-miterlimit:10" d="M37.261 62.366V0M45.355 34.019V-.001M45.355 34.019H0M95.672 62.37V0M95.672 62.37H0M115.656 88.444V0M115.656 88.444H0" transform="matrix(1 0 0 -1 27.762 116.874)"/><path style="fill-rule:nonzero;fill:#fff;fill-opacity:1;stroke-width:.3985;stroke-linecap:butt;stroke-linejoin:miter;stroke:#000;stroke-opacity:1;stroke-miterlimit:10" d="M38.457 62.366c0 .66-.535 1.196-1.196 1.196a1.196 1.196 0 1 1 1.196-1.196ZM96.867 62.37a1.195 1.195 0 1 1-2.39 0 1.195 1.195 0 0 1 2.39 0Zm0 0" transform="matrix(1 0 0 -1 27.762 116.874)"/><path style="stroke:none;fill-rule:nonzero;fill:#00adef;fill-opacity:1" d="M74.71 82.855a1.593 1.593 0 1 0-3.187 0 1.594 1.594 0 1 0 3.188 0Zm0 0"/><use xlink:href="#i" x="75.515" y="88.177" style="fill:#00adef;fill-opacity:1"/><use xlink:href="#j" x="78.482" y="88.177" style="fill:#00adef;fill-opacity:1"/><use xlink:href="#k" x="81.017" y="88.177" style="fill:#00adef;fill-opacity:1"/><use xlink:href="#l" x="82.433" y="88.177" style="fill:#00adef;fill-opacity:1"/><use xlink:href="#m" x="85.113" y="88.177" style="fill:#00adef;fill-opacity:1"/><g style="fill:#00adef;fill-opacity:1"><use xlink:href="#m" x="75.229" y="92.66"/><use xlink:href="#n" x="77.205" y="92.66"/><use xlink:href="#k" x="79.185" y="92.66"/><use xlink:href="#i" x="80.596" y="92.66"/><use xlink:href="#o" x="83.419" y="92.66"/><use xlink:href="#p" x="84.83" y="92.66"/></g><path style="stroke:none;fill-rule:nonzero;fill:#00adef;fill-opacity:1" d="M145.012 28.43a1.593 1.593 0 1 0-3.188 0 1.593 1.593 0 1 0 3.188 0Zm0 0"/><use xlink:href="#i" x="137.631" y="19.911" style="fill:#00adef;fill-opacity:1"/><g style="fill:#00adef;fill-opacity:1"><use xlink:href="#j" x="140.592" y="19.911"/><use xlink:href="#k" x="143.133" y="19.911"/><use xlink:href="#l" x="144.544" y="19.911"/></g><use xlink:href="#m" x="147.228" y="19.911" style="fill:#00adef;fill-opacity:1"/><g style="fill:#00adef;fill-opacity:1"><use xlink:href="#q" x="135.017" y="24.394"/><use xlink:href="#n" x="137.275" y="24.394"/><use xlink:href="#k" x="139.255" y="24.394"/><use xlink:href="#m" x="140.667" y="24.394"/><use xlink:href="#k" x="142.642" y="24.394"/><use xlink:href="#r" x="144.054" y="24.394"/><use xlink:href="#s" x="146.735" y="24.394"/><use xlink:href="#p" x="149.558" y="24.394"/></g><path style="fill:none;stroke-width:.3985;stroke-linecap:butt;stroke-linejoin:miter;stroke:#000;stroke-opacity:1;stroke-miterlimit:10" d="M0-.001v113.39h136.066V0Zm0 0" transform="matrix(1 0 0 -1 27.762 116.874)"/><use xlink:href="#t" x="12.287" y="73.368" style="fill:#000;fill-opacity:1"/><g style="fill:#000;fill-opacity:1"><use xlink:href="#u" x="12.287" y="66.283"/><use xlink:href="#v" x="12.287" y="63.931"/><use xlink:href="#w" x="12.287" y="59.697"/><use xlink:href="#x" x="12.287" y="56.403"/><use xlink:href="#y" x="12.287" y="49.347"/></g><use xlink:href="#z" x="83.761" y="131.353" style="fill:#000;fill-opacity:1"/><use xlink:href="#A" x="92.69" y="131.353" style="fill:#000;fill-opacity:1"/><use xlink:href="#B" x="95.043" y="128.54" style="fill:#000;fill-opacity:1"/><g style="fill:#000;fill-opacity:1"><use xlink:href="#C" x="99.36" y="131.353"/><use xlink:href="#D" x="105.476" y="131.353"/></g><path style="fill:none;stroke-width:.3985;stroke-linecap:butt;stroke-linejoin:miter;stroke:#000;stroke-opacity:1;stroke-miterlimit:10" d="M37.261 1.194v-2.39" transform="matrix(1 0 0 -1 27.762 116.874)"/><use xlink:href="#E" x="62.843" y="123.133" style="fill:#000;fill-opacity:1"/><path style="fill:none;stroke-width:.3985;stroke-linecap:butt;stroke-linejoin:miter;stroke:#000;stroke-opacity:1;stroke-miterlimit:10" d="M45.36 1.194v-2.39" transform="matrix(1 0 0 -1 27.762 116.874)"/><g style="fill:#000;fill-opacity:1"><use xlink:href="#E" x="70.987" y="123.133"/><use xlink:href="#F" x="73.951" y="123.133"/><use xlink:href="#E" x="75.598" y="123.133"/><use xlink:href="#G" x="78.562" y="123.133"/></g><path style="fill:none;stroke-width:.3985;stroke-linecap:butt;stroke-linejoin:miter;stroke:#000;stroke-opacity:1;stroke-miterlimit:10" d="M1.195 34.019h-2.39" transform="matrix(1 0 0 -1 27.762 116.874)"/><g style="fill:#000;fill-opacity:1"><use xlink:href="#E" x="11.597" y="84.655"/><use xlink:href="#F" x="14.561" y="84.655"/><use xlink:href="#E" x="16.208" y="84.655"/><use xlink:href="#E" x="19.172" y="84.655"/><use xlink:href="#H" x="22.136" y="84.655"/></g><path style="fill:none;stroke-width:.3985;stroke-linecap:butt;stroke-linejoin:miter;stroke:#000;stroke-opacity:1;stroke-miterlimit:10" d="M95.675 1.194v-2.39" transform="matrix(1 0 0 -1 27.762 116.874)"/><g style="fill:#000;fill-opacity:1"><use xlink:href="#G" x="118.989" y="123.133"/><use xlink:href="#E" x="121.953" y="123.133"/><use xlink:href="#E" x="124.917" y="123.133"/></g><path style="fill:none;stroke-width:.3985;stroke-linecap:butt;stroke-linejoin:miter;stroke:#000;stroke-opacity:1;stroke-miterlimit:10" d="M1.195 62.374h-2.39" transform="matrix(1 0 0 -1 27.762 116.874)"/><use xlink:href="#G" x="22.135" y="56.3" style="fill:#000;fill-opacity:1"/><path style="fill:none;stroke-width:.3985;stroke-linecap:butt;stroke-linejoin:miter;stroke:#000;stroke-opacity:1;stroke-miterlimit:10" d="M115.66 1.194v-2.39" transform="matrix(1 0 0 -1 27.762 116.874)"/><g style="fill:#000;fill-opacity:1"><use xlink:href="#I" x="138.975" y="123.133"/><use xlink:href="#J" x="141.939" y="123.133"/><use xlink:href="#K" x="144.903" y="123.133"/></g><path style="fill:none;stroke-width:.3985;stroke-linecap:butt;stroke-linejoin:miter;stroke:#000;stroke-opacity:1;stroke-miterlimit:10" d="M1.195 88.448h-2.39" transform="matrix(1 0 0 -1 27.762 116.874)"/><g style="fill:#000;fill-opacity:1"><use xlink:href="#L" x="16.207" y="30.227"/><use xlink:href="#G" x="19.171" y="30.227"/><use xlink:href="#M" x="22.135" y="30.227"/></g></svg>