<svg xmlns="http://www.w3.org/2000/svg" xmlns:xlink="http://www.w3.org/1999/xlink" width="199.865" height="184.444" viewBox="0 0 149.899 138.333"><defs><symbol overflow="visible" id="a"><path style="stroke:none" d="M2.75-3.828c.047-.14.063-.203.172-.219.047-.016.25-.016.375-.016.719 0 .937.047.937.532 0 .094 0 .187-.062.547v.062c0 .031.031.078.094.078.062 0 .078-.047.093-.14l.157-1.094c.015-.031.015-.063.015-.094 0-.078-.062-.078-.172-.078H.781c-.156 0-.156 0-.203.125l-.39 1.11c-.032.078-.032.093-.032.093 0 .031.032.078.094.078.063 0 .078-.031.11-.14.343-.985.546-1.079 1.453-1.079h.25c.171 0 .171.032.171.079 0 .03-.015.078-.015.125L1.375-.5c-.063.234-.078.313-.75.313-.203 0-.25 0-.25.109C.375 0 .453 0 .485 0 .64 0 .827-.016 1-.016H2.047c.078 0 .5.016.547.016.062 0 .125 0 .125-.11 0-.077-.047-.077-.203-.077-.157 0-.235 0-.407-.016-.14-.016-.218-.031-.218-.14 0-.032.015-.079.03-.126Zm0 0"/></symbol><symbol overflow="visible" id="f"><path style="stroke:none" d="M4.86-4.266c.015-.062.015-.078.015-.093 0 0 0-.063-.063-.063-.046 0-.062.016-.109.063l-.375.421-.062.063s-.016-.016-.047-.063c-.094-.124-.375-.484-1.032-.484-1.437 0-2.859 1.39-2.859 2.813 0 1.03.734 1.75 1.75 1.75.656 0 1.172-.344 1.422-.563.563-.5.672-1.062.672-1.078 0-.031-.016-.078-.094-.078-.062 0-.078.047-.078.062C3.687-.5 2.781-.062 2.156-.062c-.61 0-1.25-.36-1.25-1.313 0-.281.094-1.281.735-2.047.375-.453.984-.812 1.593-.812.688 0 1.063.53 1.063 1.218 0 .22-.016.266-.016.313 0 .078.078.078.094.078.078 0 .078-.016.11-.14Zm0 0"/></symbol><symbol overflow="visible" id="x"><path style="stroke:none" d="M.281.781c-.031.188-.047.25-.312.25-.078 0-.157 0-.157.11 0 .015.016.078.094.078l.266-.016H.766c.093 0 .203.016.296.016.032 0 .125 0 .125-.11 0-.078-.062-.078-.171-.078-.297 0-.297-.047-.297-.11C.719.892.766.72.78.61l.235-.937c.062.14.234.39.593.39.735 0 1.547-.875 1.547-1.828 0-.64-.406-1.015-.875-1.015-.125 0-.437.031-.828.469a.592.592 0 0 0-.594-.47c-.265 0-.39.204-.484.376-.11.219-.188.578-.188.594 0 .062.032.078.079.078.078 0 .093-.032.125-.157.109-.5.25-.734.453-.734.187 0 .187.203.187.297 0 .047 0 .156-.015.203Zm1.14-2.719c.032-.125.032-.14.11-.234.172-.203.453-.453.75-.453.281 0 .406.297.406.594 0 .281-.171 1.062-.374 1.39-.204.36-.47.547-.704.547-.406 0-.515-.484-.515-.531 0-.047.015-.078.031-.11Zm0 0"/></symbol><symbol overflow="visible" id="b"><path style="stroke:none" d="M.172-1.813v.172h.062c.188 0 .235.032.407.391l.562 1.125.031.078c.016.016.016.031.016.047 0 .047-.078.156-.11.234-.109.22-.265.47-.53.485C.546.719.483.688.421.672.5.64.532.562.532.5.531.375.436.312.343.312A.18.18 0 0 0 .156.5c0 .234.235.344.438.344.469 0 .64-.469.828-.813.172-.36.344-.719.531-1.093l.125-.25c.078-.172.188-.329.438-.329v-.171l-.375.03-.36-.03v.171c.094 0 .172.063.172.157 0 .109-.094.265-.156.39-.078.125-.14.266-.203.407L1.5-.516c-.016.047-.031.079-.047.125h-.016c-.03-.093-.093-.187-.125-.28-.14-.25-.265-.516-.39-.782C.906-1.484.89-1.516.89-1.547v-.016c.015-.078.14-.078.203-.078v-.171Zm0 0"/></symbol><symbol overflow="visible" id="c"><path style="stroke:none" d="M1.703-1.688a.25.25 0 0 0-.078.172.21.21 0 0 0 .219.204c.125 0 .187-.11.187-.22 0-.327-.453-.343-.656-.343h-.047a1.17 1.17 0 0 0-.781.281.916.916 0 0 0-.313.688C.234-.36.72.03 1.281.03c.313 0 .625-.125.766-.422.015-.03.047-.078.047-.109 0-.047-.047-.063-.078-.063-.094 0-.094.094-.125.157a.636.636 0 0 1-.547.297C.937-.11.625-.422.625-.906c0-.328.125-.719.531-.797.078-.016.14-.016.203-.016.11 0 .235.016.344.032Zm0 0"/></symbol><symbol overflow="visible" id="i"><path style="stroke:none" d="M.75-.313c.11.094.203.172.328.25.266.141.578.188.875.188.64 0 1.266-.547 1.266-1.297 0-.484-.266-.969-.719-1.187-.14-.063-.297-.094-.453-.125l-.39-.094c-.157-.047-.329-.063-.47-.156a.822.822 0 0 1-.421-.704c0-.5.437-.828.89-.828.625 0 1.047.47 1.172 1.11.031.11 0 .281.125.281.078 0 .094-.047.094-.11v-1.359c0-.047-.031-.093-.094-.093-.078 0-.14.171-.203.25L2.656-4c-.297-.266-.578-.438-1.015-.438-.625 0-1.282.454-1.282 1.235 0 .594.47 1.062 1.032 1.187.296.079.656.11.937.235.297.14.485.468.485.797 0 .484-.344.921-.876.921C1.25-.063.641-.406.532-1.296c0-.062 0-.14-.078-.14-.094 0-.094.078-.094.125V.03c0 .063.032.094.079.094.078 0 .156-.172.203-.25.03-.063.078-.11.109-.188Zm0 0"/></symbol><symbol overflow="visible" id="j"><path style="stroke:none" d="M2.39-4.438c-.546.079-1.03.266-1.421.688a2.406 2.406 0 0 0-.61 1.61c0 1.093.797 2.265 2.157 2.265 1.203 0 2.14-1.063 2.14-2.25 0-.938-.547-1.875-1.5-2.203a2.296 2.296 0 0 0-.64-.11H2.39ZM1-2.078v-.094c0-.734.188-1.594.938-1.953.171-.094.375-.14.578-.14h.046c1 .062 1.454 1.093 1.454 2.015 0 .75-.172 1.594-.907 2.031-.203.125-.421.157-.64.157-.86-.016-1.328-.875-1.438-1.625-.015-.125-.015-.25-.031-.391Zm0 0"/></symbol><symbol overflow="visible" id="k"><path style="stroke:none" d="M.234-4.297v.188h.25c.204 0 .391.046.391.28v3.345c0 .28-.219.28-.453.28H.234V0h3.344l.172-1.625h-.172c-.062.578-.125 1.188-.89 1.39-.188.032-.36.032-.547.032h-.47c-.14 0-.234-.047-.234-.219v-3.39c0-.22.125-.25.266-.266.188-.031.36-.031.547-.031v-.188Zm0 0"/></symbol><symbol overflow="visible" id="l"><path style="stroke:none" d="M.203-4.297v.188h.25c.234 0 .422.046.422.28v3.345c0 .25-.219.296-.438.296-.078 0-.156-.015-.234-.015V0H2.11v-.203c-.078 0-.156.016-.25.016-.218 0-.421-.047-.421-.297v-3.329c0-.25.234-.296.453-.296h.218v-.188Zm0 0"/></symbol><symbol overflow="visible" id="m"><path style="stroke:none" d="M.25-4.297v.188h.234c.22 0 .407.046.407.28v3.345c0 .28-.22.28-.47.28H.25V0h2.219c.75 0 1.703-.36 2.015-1.5a2.04 2.04 0 0 0 .079-.61c0-1.124-.782-2.187-2.094-2.187h-.422Zm3.688 2.39c0 .782-.376 1.454-1.079 1.657-.203.047-.406.047-.609.047h-.563c-.14 0-.25-.031-.25-.219V-3.812c0-.188.016-.297.282-.297h.531c.469 0 .938.078 1.313.546.328.422.39 1 .39 1.485 0 .062-.015.11-.015.172Zm0 0"/></symbol><symbol overflow="visible" id="n"><path style="stroke:none" d="M.234-4.281v.203h.25c.204 0 .391.016.391.266v3.328c0 .25-.203.296-.406.296-.078 0-.156-.015-.235-.015V0h3.704l.265-1.625h-.172c-.078.39-.125.828-.39 1.11-.297.312-.75.312-1.125.312h-.797c-.14 0-.282 0-.282-.219v-1.703h.61c.219 0 .469.016.578.203.094.125.094.313.094.469v.062h.172v-1.671h-.172V-3c0 .344-.094.625-.469.656-.125.016-.25.016-.36.016h-.452V-3.86c0-.22.14-.22.28-.22h.813c.438 0 .938.016 1.156.5.11.235.126.47.157.72h.187l-.187-1.422Zm0 0"/></symbol><symbol overflow="visible" id="o"><path style="stroke:none" d="M3.11.047c.015.11.046.219.062.328.078.375.203.781.687.844h.047c.61 0 .781-.75.781-1.157v-.03c0-.063-.015-.11-.078-.11-.093 0-.078.172-.109.25a.588.588 0 0 1-.531.406c-.375 0-.531-.36-.625-.625.14-.047.265-.14.375-.219.594-.421.937-1.14.937-1.859 0-1.11-.812-2.313-2.156-2.313-1.219 0-2.14 1.063-2.14 2.313 0 .61.234 1.234.703 1.672.39.375.906.578 1.453.578h.062c.188 0 .36-.047.531-.078Zm.124-.328c-.078-.297-.312-.594-.671-.656h-.047a.527.527 0 0 0-.532.53c0 .094.016.188.063.282C1.219-.422.984-1.485.984-2.156c0-.813.282-1.828 1.25-2.078.094-.016.204-.032.297-.032.61.016 1.094.5 1.313 1.032.14.359.187.75.187 1.125 0 .703-.187 1.39-.797 1.828Zm-.171.11c-.172.077-.376.14-.563.14-.219 0-.36-.188-.36-.39 0-.204.172-.36.391-.36.328 0 .438.297.531.61Zm0 0"/></symbol><symbol overflow="visible" id="p"><path style="stroke:none" d="M.234-4.297v.188h.22c.28 0 .421.03.421.296v2.204c0 .187.016.359.047.546.187.735.875 1.188 1.625 1.188.719 0 1.281-.625 1.39-1.297.016-.125.016-.266.016-.39v-2.032c0-.469.344-.515.64-.515v-.188H3.11v.188c.297 0 .641.046.641.484v2.094c0 .562-.203 1.156-.828 1.39a1.34 1.34 0 0 1-.422.078 1.01 1.01 0 0 1-.766-.374c-.265-.313-.296-.72-.296-1.094v-2.297c0-.235.218-.281.421-.281h.22v-.188Zm0 0"/></symbol><symbol overflow="visible" id="q"><path style="stroke:none" d="M3.844-.406c.062.172.297.39.39.39.063 0 .063-.046.063-.093v-1.188c0-.234.187-.234.406-.234h.047v-.203l-.453.03H2.922v.173h.328c.266 0 .484.031.484.312v.36c0 .359-.25.796-1.03.796a1.633 1.633 0 0 1-1.438-.859C1.062-1.297 1-1.75 1-2.172c0-.453.078-.906.297-1.281a1.622 1.622 0 0 1 1.36-.781c.765 0 1.28.671 1.421 1.406.016.078.016.203.11.203.093 0 .109-.063.109-.11V-4.296c0-.062 0-.14-.078-.14-.11 0-.282.375-.422.562-.25-.375-.781-.563-1.235-.563C1.36-4.438.36-3.375.36-2.155.36-1 1.266.125 2.625.125c.484 0 .906-.125 1.219-.531Zm0 0"/></symbol><symbol overflow="visible" id="r"><path style="stroke:none" d="M.219-.203V0l.39-.031h.954v-.172c-.188 0-.454-.078-.454-.313 0-.078.032-.156.063-.234.11-.297.187-.688.312-.688h1.5c.11 0 .188.344.25.516.047.172.172.406.172.531 0 .188-.344.188-.515.188V0h1.718v-.203h-.171c-.141 0-.282-.016-.36-.078-.078-.094-.11-.203-.14-.313-.454-1.203-.876-2.437-1.329-3.656l-.046-.125c-.032-.078-.047-.125-.157-.125-.125 0-.156.14-.187.25-.39 1.063-.766 2.14-1.156 3.203l-.11.328c-.14.39-.39.516-.734.516Zm1.265-1.438.75-2.046.735 2.046Zm0 0"/></symbol><symbol overflow="visible" id="s"><path style="stroke:none" d="M.516-4.297.453-2.89h.172c.016-.312.078-.671.313-.906.296-.312.734-.312 1.14-.312h.844c-.219.312-.422.64-.61.953-.624.937-1.25 1.875-1.859 2.828C.422-.25.36-.188.36-.11.36-.031.406 0 .484 0h3.032l.109-1.688h-.188c0 .407-.046.891-.359 1.172-.281.282-.734.297-1.125.297h-.937c.671-1 1.328-2.031 2-3.047l.468-.718c.032-.047.11-.141.11-.22 0-.077-.063-.093-.14-.093h-.095Zm0 0"/></symbol><symbol overflow="visible" id="t"><path style="stroke:none" d="M3.39-1.906A1.484 1.484 0 1 0 1.907-.422c.813 0 1.485-.672 1.485-1.484Zm0 0"/></symbol><symbol overflow="visible" id="u"><path style="stroke:none" d="M1.234-1.39c.36 0 .594.234.594.671 0 .453-.281.656-.578.656-.125 0-.547-.03-.734-.265.156-.016.218-.125.218-.234 0-.157-.093-.25-.234-.25-.11 0-.234.078-.234.25 0 .421.453.656.984.656.625 0 1.047-.406 1.047-.813 0-.312-.235-.64-.735-.765.329-.11.594-.375.594-.72 0-.327-.39-.577-.89-.577S.39-2.562.39-2.22c0 .188.14.235.234.235.11 0 .219-.079.219-.22 0-.14-.094-.202-.203-.218.187-.219.578-.219.609-.219.219 0 .484.094.484.438 0 .234-.125.64-.546.656-.079.016-.188.016-.235.016-.031 0-.078.015-.078.078 0 .062.047.062.11.062Zm0 0"/></symbol><symbol overflow="visible" id="v"><path style="stroke:none" d="M1.5-2.656c0-.125-.016-.125-.14-.125-.282.265-.704.265-.86.265v.157c.11 0 .39 0 .64-.11v2.11c0 .14 0 .203-.421.203H.53V0c.235-.016.563-.016.797-.016.234 0 .563 0 .781.016v-.156h-.171C1.5-.156 1.5-.22 1.5-.36Zm0 0"/></symbol><symbol overflow="visible" id="w"><path style="stroke:none" d="M2.25-.781h-.156c0 .062-.047.328-.11.375-.03.031-.375.031-.421.031H.78l.531-.438c.141-.109.516-.375.641-.5s.297-.343.297-.64c0-.531-.469-.828-1.031-.828-.547 0-.922.36-.922.75 0 .203.187.234.234.234.094 0 .219-.078.219-.219 0-.093-.047-.234-.234-.234.093-.219.343-.375.64-.375.438 0 .672.328.672.672 0 .297-.187.594-.484.875l-1 .906C.313-.14.297-.125.297 0h1.828Zm0 0"/></symbol><clipPath id="d"><path d="M6.602 110H60v14.668H6.602Zm0 0"/></clipPath><clipPath id="e"><path d="M39 37h100v87.668H39Zm0 0"/></clipPath><clipPath id="g"><path d="M39 11.691h27v112.977H39Zm0 0"/></clipPath><clipPath id="h"><path d="M49 47h81v77.668H49Zm0 0"/></clipPath></defs><path style="fill:none;stroke-width:.19925;stroke-linecap:butt;stroke-linejoin:miter;stroke:gray;stroke-opacity:1;stroke-miterlimit:10" d="M61.196-2.124v4.252m113.65-4.252v4.252" transform="matrix(.7 0 0 -.7 6.6 124.67)"/><path style="fill:none;stroke-width:.3985;stroke-linecap:butt;stroke-linejoin:miter;stroke:#000;stroke-opacity:1;stroke-miterlimit:10" d="M.002.002H192.28" transform="matrix(.7 0 0 -.7 6.6 124.67)"/><path style="stroke:none;fill-rule:nonzero;fill:#000;fill-opacity:1" d="m142.59 124.668-2.23-1.113.835 1.113-.836 1.117"/><path style="fill:none;stroke-width:.3985;stroke-linecap:butt;stroke-linejoin:miter;stroke:#000;stroke-opacity:1;stroke-miterlimit:10" d="M.002.002v159.403" transform="matrix(.7 0 0 -.7 6.6 124.67)"/><path style="stroke:none;fill-rule:nonzero;fill:#000;fill-opacity:1" d="m6.602 11.691-1.118 2.23 1.118-.835 1.113.836"/><use xlink:href="#a" x="46.035" y="131.841" style="fill:#000;fill-opacity:1"/><use xlink:href="#b" x="49.798" y="132.539" style="fill:#000;fill-opacity:1"/><use xlink:href="#a" x="125.792" y="131.841" style="fill:#000;fill-opacity:1"/><use xlink:href="#c" x="129.555" y="132.539" style="fill:#000;fill-opacity:1"/><g clip-path="url(#d)"><path style="fill:none;stroke-width:.99628;stroke-linecap:butt;stroke-linejoin:miter;stroke:#00adef;stroke-opacity:1;stroke-miterlimit:10" d="M.002.002h2.472l.614.005h.62l1.858.017.614.006 1.238.01.62.012.614.006L10.51.09l.614.011.62.017.619.011.619.017.614.017.62.016.619.023.62.016.619.023.613.022 1.859.067.613.028 1.24.056.619.033.614.028 1.238.067.62.04.614.033.62.039.618.044.62.04.62.044.613.045 1.239.089.62.05.613.05.62.056.62.05.619.056.613.062.62.055 1.239.123.613.067 1.24.134 1.238.145.614.073.62.072.619.078.62.084.613.078.62.084 1.238.178.614.09.62.089.619.095.62.1.613.095.62.1 1.858.319.614.111.62.112 1.238.234.614.123.62.117 1.238.257.614.128 1.239.268.62.14.613.14.62.139.619.145 1.239.301.614.15.619.163.62.156.619.162.614.167" transform="matrix(.7 0 0 -.7 6.6 124.67)"/></g><g clip-path="url(#e)"><path style="fill:none;stroke-width:.99628;stroke-linecap:butt;stroke-linejoin:miter;stroke:#00adef;stroke-opacity:1;stroke-miterlimit:10" d="m61.196 6.313 1.15.313 1.144.323 1.15.335 1.149.346 1.144.352 1.15.368 1.149.374 1.15.385 1.144.402 1.15.407 1.149.419 1.144.435 1.15.44 1.149.458 1.15.469 1.143.48 1.15.491 1.15.502 1.143.52 1.15.53 1.15.54 1.149.559 1.144.569 1.15.58 1.15.597 1.143.609 1.15.625 1.15.636 1.149.653 1.144.664 1.15.68 1.149.692 1.144.71 1.15.725 1.149.742 1.15.753 1.143.77 1.15.782 1.15.803 1.143.815 1.15.831 1.15.849 1.15.864 1.143.882 1.15.899 1.15.915 1.143.932 1.15.948 1.15.966 1.149.982 1.144.999 1.15 1.015 1.149 1.038 1.144 1.055 1.15 1.071 1.149 1.089 1.15 1.11 1.144 1.127 1.15 1.144 1.149 1.161 1.144 1.183 1.15 1.205 1.149 1.223 1.15 1.238 1.143 1.262 1.15 1.277 1.15 1.3 1.143 1.323 1.15 1.34 1.15 1.361 1.149 1.378 1.144 1.407 1.15 1.417 1.15 1.445 1.143 1.468 1.15 1.484 1.15 1.507 1.149 1.53 1.144 1.55 1.15 1.574 1.149 1.59 1.144 1.619 1.15 1.64 1.149 1.663 1.15 1.68 1.143 1.708 1.15 1.73 1.15 1.752 1.143 1.78 1.15 1.797 1.15 1.825 1.15 1.847 1.143 1.87 1.15 1.89 1.15 1.92 1.143 1.943 1.15 1.97 1.15 1.992 1.149 2.014" transform="matrix(.7 0 0 -.7 6.6 124.67)"/></g><use xlink:href="#f" x="126.463" y="44.71" style="fill:#00adef;fill-opacity:1"/><g clip-path="url(#g)"><path style="fill:none;stroke-width:.99628;stroke-linecap:butt;stroke-linejoin:miter;stroke:#00adef;stroke-opacity:1;stroke-miterlimit:10" d="m61.196 6.313 8.415 155.084" transform="matrix(.7 0 0 -.7 6.6 124.67)"/></g><g clip-path="url(#h)"><path style="fill:none;stroke-width:.3985;stroke-linecap:butt;stroke-linejoin:miter;stroke:#000;stroke-opacity:1;stroke-dasharray:2.98883,1.99255;stroke-miterlimit:10" d="M61.196.002v6.311M174.846.002V109.75" transform="matrix(.7 0 0 -.7 6.6 124.67)"/></g><path style="stroke:none;fill-rule:nonzero;fill:#fff;fill-opacity:1" d="M21.66 70.344h24.274V66.02H21.66Zm0 0"/><g style="fill:#000;fill-opacity:1"><use xlink:href="#i" x="21.662" y="70.342"/><use xlink:href="#j" x="25.245" y="70.342"/><use xlink:href="#k" x="30.261" y="70.342"/><use xlink:href="#l" x="34.291" y="70.342"/><use xlink:href="#m" x="36.619" y="70.342"/><use xlink:href="#n" x="41.545" y="70.342"/></g><path style="stroke:none;fill-rule:nonzero;fill:#fff;fill-opacity:1" d="M67.469 70.953H95.32V65.41H67.47Zm0 0"/><g style="fill:#000;fill-opacity:1"><use xlink:href="#k" x="67.468" y="69.733"/><use xlink:href="#l" x="71.498" y="69.733"/><use xlink:href="#o" x="73.826" y="69.733"/><use xlink:href="#p" x="78.842" y="69.733"/><use xlink:href="#l" x="83.678" y="69.733"/><use xlink:href="#m" x="86.006" y="69.733"/><use xlink:href="#n" x="90.932" y="69.733"/></g><path style="stroke:none;fill-rule:nonzero;fill:#fff;fill-opacity:1" d="M91.387 119.02h20.812v-11.297H91.387Zm0 0"/><g style="fill:#000;fill-opacity:1"><use xlink:href="#q" x="94.873" y="115.532"/><use xlink:href="#r" x="99.934" y="115.532"/><use xlink:href="#s" x="104.77" y="115.532"/></g><path style="fill:none;stroke-width:.79701;stroke-linecap:butt;stroke-linejoin:miter;stroke:#ff9d00;stroke-opacity:1;stroke-miterlimit:10" d="M161.894 32.279v56.127" transform="matrix(.7 0 0 -.7 6.6 124.67)"/><path style="stroke:none;fill-rule:nonzero;fill:#ff9d00;fill-opacity:1" d="m119.926 82.23-1.45 2.903 1.45-1.09 1.449 1.09"/><use xlink:href="#t" x="118.015" y="64.484" style="fill:#ff9d00;fill-opacity:1"/><use xlink:href="#n" x="111.235" y="64.6" style="fill:#ff9d00;fill-opacity:1"/><use xlink:href="#u" x="115.624" y="65.297" style="fill:#ff9d00;fill-opacity:1"/><path style="fill:none;stroke-width:.79701;stroke-linecap:butt;stroke-linejoin:miter;stroke:#ff9d00;stroke-opacity:1;stroke-miterlimit:10" d="M161.894 32.279H80.945" transform="matrix(.7 0 0 -.7 6.6 124.67)"/><path style="stroke:none;fill-rule:nonzero;fill:#ff9d00;fill-opacity:1" d="m100.082 102.074 2.902 1.45-1.09-1.45 1.09-1.449"/><use xlink:href="#t" x="118.015" y="103.771" style="fill:#ff9d00;fill-opacity:1"/><use xlink:href="#n" x="116.277" y="107.791" style="fill:#ff9d00;fill-opacity:1"/><use xlink:href="#v" x="120.666" y="108.489" style="fill:#ff9d00;fill-opacity:1"/><use xlink:href="#t" x="61.353" y="103.771" style="fill:#ff9d00;fill-opacity:1"/><use xlink:href="#n" x="54.573" y="103.887" style="fill:#ff9d00;fill-opacity:1"/><use xlink:href="#w" x="58.962" y="104.584" style="fill:#ff9d00;fill-opacity:1"/><path style="fill-rule:nonzero;fill:#fff;fill-opacity:1;stroke-width:.3985;stroke-linecap:butt;stroke-linejoin:miter;stroke:#000;stroke-opacity:1;stroke-miterlimit:10" d="M63.188 6.313a1.993 1.993 0 0 1-3.984 0 1.993 1.993 0 0 1 3.984 0ZM176.838 109.75a1.993 1.993 0 0 1-3.984 0 1.993 1.993 0 0 1 3.984 0Zm0 0" transform="matrix(.7 0 0 -.7 6.6 124.67)"/><use xlink:href="#a" x="140.26" y="131.748" style="fill:#000;fill-opacity:1"/><use xlink:href="#x" x="4.981" y="7.683" style="fill:#000;fill-opacity:1"/></svg>