<svg xmlns="http://www.w3.org/2000/svg" xmlns:xlink="http://www.w3.org/1999/xlink" width="233.985" height="213.685" viewBox="0 0 175.489 160.264"><defs><symbol overflow="visible" id="a"><path style="stroke:none" d="M3.938-5.469c.046-.187.078-.281.218-.312.078-.016.36-.016.547-.016 1.031 0 1.344.063 1.344.766 0 .11 0 .25-.078.781l-.016.078c0 .063.031.125.125.125.11 0 .125-.094.14-.219l.235-1.562c.016-.031.016-.094.016-.125 0-.125-.078-.125-.25-.125h-5.11c-.218 0-.218.016-.28.187L.265-4.312c-.032.109-.032.14-.032.14 0 .047.032.125.11.125.11 0 .125-.062.172-.219.5-1.406.78-1.53 2.078-1.53h.344c.25 0 .25.03.25.109 0 .046-.016.109-.032.187L1.953-.703c-.078.312-.11.422-1.062.422-.282 0-.36 0-.36.172C.531 0 .641 0 .687 0c.235 0 .485-.016.735-.016s.5-.015.75-.015c.406 0 .422 0 .75.015.125 0 .703.016.781.016.078 0 .188 0 .188-.156 0-.125-.079-.125-.297-.125-.235 0-.344 0-.578-.016-.204-.031-.313-.031-.313-.187 0-.047.016-.11.031-.172Zm0 0"/></symbol><symbol overflow="visible" id="K"><path style="stroke:none" d="M.406 1.125c-.062.25-.078.344-.453.344-.11 0-.219 0-.219.156 0 .031.032.11.125.11l.375-.016H1.078c.156 0 .297.015.438.015.046 0 .171 0 .171-.156 0-.11-.093-.11-.25-.11-.421 0-.421-.062-.421-.155a2.9 2.9 0 0 1 .109-.438l.328-1.328c.094.187.344.547.86.547C3.359.094 4.5-1.172 4.5-2.516c0-.906-.563-1.453-1.234-1.453-.188 0-.641.047-1.188.656-.125-.5-.547-.656-.844-.656-.375 0-.578.281-.703.531-.14.313-.265.813-.265.86 0 .078.062.11.125.11.093 0 .109-.048.156-.235.172-.703.36-1.031.656-1.031.281 0 .281.28.281.421 0 .063-.015.204-.03.266Zm1.625-3.89c.047-.172.047-.188.172-.329.235-.312.64-.64 1.047-.64.422 0 .594.421.594.843 0 .391-.25 1.516-.531 1.985-.313.515-.688.781-1.016.781-.578 0-.735-.703-.735-.766 0-.062.032-.109.032-.156Zm0 0"/></symbol><symbol overflow="visible" id="b"><path style="stroke:none" d="M.234-2.578v.234h.11c.25 0 .328.031.578.547.25.547.531 1.078.797 1.625l.047.11c.015.015.03.03.03.062-.015.078-.109.234-.171.344-.156.297-.375.672-.75.672A.73.73 0 0 1 .609.969V.953C.703.922.766.813.766.703.766.531.625.438.484.438.328.438.22.561.22.718c0 .329.344.5.625.5.672 0 .922-.671 1.172-1.187C2.28-.484 2.53-1 2.78-1.516l.188-.343c.11-.266.265-.485.64-.485v-.234l-.562.015-.485-.015v.234c.11 0 .235.094.235.219 0 .172-.14.39-.235.563-.093.187-.187.39-.28.578l-.126.25c-.031.062-.062.125-.078.171h-.015c-.047-.125-.141-.265-.204-.39-.171-.375-.359-.75-.546-1.125-.016-.031-.047-.078-.047-.125v-.016c.015-.11.218-.125.312-.125v-.234Zm0 0"/></symbol><symbol overflow="visible" id="c"><path style="stroke:none" d="M2.438-2.406a.332.332 0 0 0-.11.234c0 .156.11.281.297.281.188 0 .281-.14.281-.296 0-.47-.656-.485-.937-.485h-.063c-.422 0-.812.11-1.14.39a1.374 1.374 0 0 0-.438 1c0 .766.703 1.329 1.5 1.329.453 0 .89-.172 1.11-.61.015-.046.046-.109.046-.156 0-.062-.046-.094-.109-.094-.125 0-.125.141-.172.22-.156.28-.484.437-.781.437C1.344-.156.89-.61.89-1.281c0-.485.187-1.047.765-1.157.094-.015.188-.015.282-.015.171 0 .343.015.5.047Zm0 0"/></symbol><symbol overflow="visible" id="d"><path style="stroke:none" d="M.11-4.313a.355.355 0 0 0 .046.422c.157.172.36.172.547 0 .156-.14.125-.359.016-.484-.39-.438-.969-.063-1.375.219l-.063.062c-.781.688-.875 1.844-.203 2.61.656.75 1.797.812 2.563.14.421-.36.656-.968.453-1.515-.031-.047-.047-.125-.078-.172-.063-.063-.11-.047-.157-.016-.125.11.016.203.032.39.109.391-.032.798-.329 1.063-.625.547-1.453.219-2-.39-.421-.485-.812-1.329-.124-1.938.171-.14.421-.344.671-.39Zm0 0"/></symbol><symbol overflow="visible" id="e"><path style="stroke:none" d="M-1.016-3.938c-.593.688-.75 1.766.032 2.579.75.78 1.906.578 2.578-.063.672-.625.86-1.812.125-2.562-.703-.75-1.907-.75-2.657-.032Zm.625 2.172a.6.6 0 0 1-.14-.14c-.297-.297-.64-.735-.61-1.188.016-.312.172-.578.375-.781.594-.563 1.313-.313 1.875.281.313.328.625.688.657 1.156.015.313-.125.626-.36.86-.437.406-1.047.422-1.547.031-.093-.062-.172-.156-.25-.219Zm0 0"/></symbol><symbol overflow="visible" id="f"><path style="stroke:none" d="m-2.266-2.578.188.172.078-.078c.125-.141.313-.313.5-.172.078.031.14.094.203.156l1.14 1.078c.173.156.345.313.563.36.453.109.875-.188 1.14-.47.266-.265.407-.593.36-.952-.015-.094-.031-.204-.078-.297l.5.437.735-.937-.172-.172-.11.125c-.14.156-.344.312-.61.062L.095-5.234l-.75.953.187.172.063-.063c.187-.203.375-.36.64-.11l1 .938c.454.438.657 1.11.188 1.61-.188.203-.484.421-.813.187C.484-1.64.375-1.75.281-1.844L-1.516-3.53Zm0 0"/></symbol><symbol overflow="visible" id="g"><path style="stroke:none" d="m-2.406-2.453.203.172.078-.094c.172-.188.344-.344.625-.11L.125-1.062c.234.22.11.391-.156.688l.187.156.313-.36.594-.687.375-.421-.188-.157c-.047.063-.11.125-.172.219-.172.188-.328.313-.562.125l-1-.875c-.422-.375-.829-1.14-.375-1.656.015.11.062.218.14.297a.38.38 0 0 0 .516-.032.369.369 0 0 0-.047-.515c-.25-.235-.594-.078-.781.14-.313.344-.313.985-.047 1.313l-.64-.547-.235.313Zm0 0"/></symbol><symbol overflow="visible" id="h"><path style="stroke:none" d="m-4.031-3.672.203.156.078-.093c.156-.204.344-.344.61-.125L.546-.688l.14-.187L.5-1.391c.469-.03.875-.156 1.172-.515.625-.75.61-1.938-.188-2.594a1.793 1.793 0 0 0-2.515.25c-.282.344-.407.75-.375 1.188l-1.922-1.594Zm5.203-.172c.234.235.469.485.531.86.078.343-.031.703-.25.968-.219.266-.86.579-1.203.282l-.984-.797-.235-.188c-.36-.297-.25-.984.047-1.344.578-.687 1.469-.296 1.953.11a.859.859 0 0 1 .14.11Zm0 0"/></symbol><symbol overflow="visible" id="i"><path style="stroke:none" d="M-.875-1.86.609-3.78c.047-.078.047-.14-.03-.203-.329-.25-.75-.454-1.173-.391-.406.063-.734.281-.984.61-.563.75-.531 1.843.312 2.5.72.546 1.907.562 2.61-.36.36-.469.453-1.219.093-1.703-.015 0-.046-.031-.046-.031-.063-.047-.141-.047-.172 0-.094.125.093.296.14.421.125.36.047.797-.187 1.11a1.217 1.217 0 0 1-1.11.453c-.343-.063-.656-.266-.937-.484ZM-1.047-2c-.312-.344-.64-.688-.531-1.219a.787.787 0 0 1 .172-.406c.312-.406.86-.422 1.36-.14.093.046.155.109.233.156Zm0 0"/></symbol><symbol overflow="visible" id="j"><path style="stroke:none" d="m-2.938-5.281.22.156.046-.063c.172-.265.297-.437.688-.156l1.343.938c-.406.078-.75.265-1 .61-.562.812-.453 1.983.391 2.577a1.82 1.82 0 0 0 2.516-.437c.234-.344.328-.797.218-1.219l.422.297.625-1.047-.203-.14-.078.093c-.125.188-.297.39-.594.172l-3.968-2.797Zm2.235 3.578-.094-.063c-.453-.328-.937-.796-.812-1.453.03-.172.093-.36.187-.484.203-.297.594-.5.969-.453.047-.016.094-.032.125 0l1.406.984c.328.235.266 1 .031 1.328-.343.485-.984.563-1.484.313a1.656 1.656 0 0 1-.328-.172Zm0 0"/></symbol><symbol overflow="visible" id="k"><path style="stroke:none" d="M-1.016-1.781.328-3.813c.047-.078.047-.156-.031-.203-.344-.234-.797-.39-1.203-.296-.39.078-.719.328-.938.656-.515.797-.406 1.89.5 2.484.75.5 1.938.422 2.563-.547.328-.484.375-1.234-.047-1.687.016-.031-.016-.047-.031-.063C1.094-3.5 1-3.484.969-3.438c-.094.126.125.282.172.407.156.344.109.781-.11 1.11-.218.343-.64.577-1.078.546-.344-.047-.656-.219-.969-.406Zm-.156-.14c-.36-.313-.703-.641-.64-1.157a.854.854 0 0 1 .14-.438c.281-.421.828-.484 1.36-.234.093.031.171.094.25.14Zm0 0"/></symbol><symbol overflow="visible" id="l"><path style="stroke:none" d="m-2.844-1.922.235.14.062-.109c.219-.375.406-.312 1.016-.234.812.11 1.625.234 2.422.344.125 0 .265.031.328-.078.062-.11 0-.22-.063-.329-.5-.64-.984-1.374-1.468-2.062-.25-.375-.391-.672-.172-1.047l-.235-.14-.125.28-.312.5-.235.345.235.14a.335.335 0 0 1 .422-.172l.03.016c.157.094.25.312.36.469.266.359.516.734.75 1.078.11.11.203.234.266.375-.735-.125-1.516-.219-2.266-.313a.335.335 0 0 1-.187-.062l-.032-.016c-.125-.094 0-.297.079-.437l-.235-.141-.234.453-.406.656Zm0 0"/></symbol><symbol overflow="visible" id="m"><path style="stroke:none" d="m-2.172-2.484-.015-.016c.03-.297.093-.516.234-.766.266-.453.797-.562 1.328-.25l.156.094c-.5.844-.922 2.219-.062 2.719C.047-.375.64-.953.906-1.406c.219-.39.297-.907.016-1.344.297.172.672.078.828-.203.203-.36.11-.797-.25-1l-.406-.235-.125.22.344.187c.171.11.406.281.28.484-.124.219-.39.11-.546.016L-.11-3.953c-.079-.047-.172-.094-.25-.14-.704-.407-1.422.109-1.782.718-.203.36-.5 1.125.047 1.453.156.078.375.094.5-.11.125-.218.063-.421-.11-.53-.155-.079-.327-.079-.468.078Zm1.89-.844.673.39c.484.282.625.86.359 1.329-.188.312-.578.515-.906.359l-.047-.016c-.75-.437-.375-1.468-.078-2.062Zm0 0"/></symbol><symbol overflow="visible" id="n"><path style="stroke:none" d="m-2.875-1.89.234.124.063-.109c.125-.219.25-.406.531-.266L1.25-.297c.281.14.188.344 0 .688L1.469.5l.218-.422.407-.734.265-.438-.218-.11-.094.157c-.11.203-.235.36-.5.219L.39-1.5c.343-.016.718-.375.906-.703.469-.844.234-2.016-.656-2.5-.782-.438-1.922-.234-2.422.656a1.705 1.705 0 0 0-.157 1.297l-.421-.234ZM.406-4c.547.313 1.031 1.078.656 1.766-.203.359-.828.671-1.14.5l-1.11-.61c-.078-.047-.156-.094-.25-.156-.406-.219-.421-.89-.187-1.313.39-.687 1.375-.562 1.922-.25A.896.896 0 0 1 .407-4Zm0 0"/></symbol><symbol overflow="visible" id="o"><path style="stroke:none" d="M-2.219-3.406c-.328.844-.14 1.89.844 2.422.953.5 2-.063 2.438-.875.437-.813.25-1.97-.672-2.47a1.9 1.9 0 0 0-2.547.829Zm1.297 1.86c-.062-.032-.125-.079-.187-.095-.375-.203-.844-.484-.954-.937-.078-.297-.015-.594.126-.86.375-.718 1.125-.718 1.859-.328.375.204.812.454.984.891.11.297.078.64-.078.938-.281.515-.86.718-1.453.515-.094-.047-.188-.094-.297-.125Zm0 0"/></symbol><symbol overflow="visible" id="p"><path style="stroke:none" d="m-2.922-1.797.235.125.046-.11c.125-.218.25-.437.594-.265l1.906.985c.297.156.22.343.032.703l.218.125.204-.454.406-.796L1-1.97l-.219-.125c-.031.063-.078.14-.125.25-.125.219-.25.39-.515.266l-1.172-.61c-.516-.265-1.094-.89-.782-1.515.047.11.125.203.22.25a.35.35 0 0 0 .484-.156c.093-.172.015-.391-.157-.485-.296-.156-.609.063-.75.313-.203.422-.046 1.031.297 1.297l-.765-.375-.141.359Zm0 0"/></symbol><symbol overflow="visible" id="q"><path style="stroke:none" d="m-2.906-1.86.234.126.063-.11c.109-.218.25-.39.562-.234l1.922.969c.297.14.219.343.031.687l.219.125.203-.453.36-.719.218-.375-.219-.125-.046.094c-.11.219-.22.39-.47.266l-2.64-1.329-.11.266Zm-1.406-1.468a.45.45 0 0 0 .218.547.431.431 0 0 0 .578-.203.445.445 0 0 0-.203-.61.44.44 0 0 0-.578.203c-.016.016-.016.047-.016.063Zm0 0"/></symbol><symbol overflow="visible" id="r"><path style="stroke:none" d="M.094-.781c.297-.14.547-.375.687-.672.281-.563.406-1.344-.39-1.734L.328-3.22c-.453-.203-.937.016-1.25.344-.328.344-.719 1.297-1.265 1.031-.422-.203-.25-.812-.11-1.11.219-.437.61-.687 1.125-.483.063.03.125.062.188-.047.046-.094-.016-.157-.094-.204-.047-.015-.094-.046-.14-.062l-.641-.313c-.063-.03-.11 0-.141.063-.063.14.078.266.047.36h-.016c-.093.109-.218.171-.297.28-.078.094-.14.204-.187.313-.25.516-.469 1.313.281 1.688l.063.03c.25.095.53.016.78-.093.626-.39.923-1.594 1.688-1.312.5.234.422.765.235 1.156-.266.547-.828.734-1.36.594-.093-.032-.187-.079-.25.046-.046.11.016.141.094.172l.86.422c.03.016.062.063.093.063.063.047.157.047.188-.031.047-.063 0-.172-.032-.22L.172-.593A.6.6 0 0 1 .094-.78Zm0 0"/></symbol><symbol overflow="visible" id="s"><path style="stroke:none" d="m-2.375-2.281-.016-.016c0-.297.032-.531.157-.797.234-.469.765-.625 1.312-.36l.172.079c-.422.89-.75 2.281.156 2.719.61.281 1.172-.36 1.39-.828.188-.407.204-.922-.109-1.329a.604.604 0 0 0 .813-.28.71.71 0 0 0-.344-.97l-.422-.203-.109.22.36.171c.171.094.437.25.328.469-.094.234-.391.14-.547.062l-1.204-.578a1.385 1.385 0 0 1-.265-.125c-.735-.344-1.406.234-1.719.86-.172.39-.406 1.187.172 1.453.156.078.39.046.484-.157.11-.25.032-.437-.156-.53-.156-.063-.328-.032-.453.14Zm1.813-1 .703.328c.515.234.703.797.468 1.297-.156.328-.53.547-.875.422l-.046-.016c-.782-.375-.5-1.422-.25-2.031Zm0 0"/></symbol><symbol overflow="visible" id="t"><path style="stroke:none" d="M-3.938-3.172c.5.235 1.266.875.922 1.61l.204.093.296-.656 1.86.86c.234.109.484.202.734.187.375-.063.672-.36.828-.688.266-.609-.312-1.062-.781-1.28l-.281-.126-.11.235c.11.046.22.078.329.124.312.157.812.47.625.907-.188.39-.641.297-1 .125l-1.938-.89.484-1.079-.25-.11L-2.5-2.78l-1.328-.61Zm0 0"/></symbol><symbol overflow="visible" id="u"><path style="stroke:none" d="m-2.984-1.719.25.11.062-.11c.094-.234.203-.406.516-.265l1.969.875c.312.14.234.343.078.703l.234.11.172-.454.328-.75.203-.39L.594-2l-.047.11c-.094.218-.172.39-.438.265l-2.687-1.203-.11.281Zm-1.47-1.406c-.062.219.048.453.235.531.203.094.485 0 .594-.234a.45.45 0 0 0-.25-.578.422.422 0 0 0-.563.203c0 .015 0 .062-.015.078Zm0 0"/></symbol><symbol overflow="visible" id="v"><path style="stroke:none" d="M-2.453-3.234c-.281.875-.016 1.906 1.015 2.343.985.438 2-.203 2.375-1.046.36-.844.063-1.985-.89-2.407-.953-.406-2.047.047-2.469 1Zm1.406 1.765c-.047-.031-.125-.062-.187-.093-.375-.157-.875-.407-1.032-.844-.093-.297-.046-.594.063-.875.328-.735 1.078-.797 1.844-.469.39.188.828.39 1.046.813.141.296.125.64 0 .937-.234.547-.812.797-1.421.625-.11-.031-.204-.078-.313-.094Zm0 0"/></symbol><symbol overflow="visible" id="w"><path style="stroke:none" d="m-3.031-1.61.25.094.062-.156c.094-.203.203-.39.531-.25l1.985.844c.297.125.234.312.078.687l.234.11.172-.485.328-.765.204-.438-.235-.11-.062.157c-.094.219-.188.406-.47.281l-1.359-.562c-.546-.235-.968-.844-.671-1.547.171-.422.593-.375 1.015-.188l1.703.72c.266.109.204.296.125.5l-.078.155.235.11.187-.469.328-.781.203-.422-.234-.11-.063.141c-.093.219-.187.422-.453.313l-1.562-.672c-.25-.11-.5-.203-.766-.188-.422.047-.672.391-.812.735-.188.437-.188 1.094.203 1.469l-.703-.297-.078.28Zm0 0"/></symbol><symbol overflow="visible" id="x"><path style="stroke:none" d="M.344-6.14v.28h.344c.296 0 .562.048.562.391v4.782c0 .39-.313.406-.656.406h-.25v.265h4.765l.25-2.312h-.25C5.016-1.5 4.938-.625 3.83-.344c-.25.063-.5.063-.767.063h-.671c-.204 0-.329-.094-.329-.313v-4.843c0-.329.188-.375.376-.391.25-.031.515-.031.765-.031v-.282Zm0 0"/></symbol><symbol overflow="visible" id="y"><path style="stroke:none" d="M.297-6.14v.28h.36c.327 0 .593.048.593.391v4.782c0 .359-.313.406-.625.406H.297v.265h2.719V-.28h-.36c-.312 0-.594-.047-.594-.406v-4.766c0-.36.313-.406.626-.406h.328v-.282Zm0 0"/></symbol><symbol overflow="visible" id="z"><path style="stroke:none" d="M4.453.063c0 .156.047.328.078.468.11.531.282 1.125.969 1.203h.078c.875 0 1.125-1.062 1.125-1.64V.03c0-.078-.031-.14-.125-.14-.14 0-.11.25-.14.343-.11.329-.422.579-.766.579-.531 0-.75-.5-.906-.891.203-.063.375-.188.546-.297C6.157-.985 6.641-2 6.641-3.047c0-1.562-1.141-3.281-3.063-3.281-1.734 0-3.062 1.516-3.062 3.281 0 .89.343 1.766 1 2.406a3.011 3.011 0 0 0 2.078.829h.094c.265-.016.515-.079.765-.126Zm.172-.454c-.125-.437-.453-.859-.953-.953h-.078a.757.757 0 0 0-.766.766c0 .125.031.265.11.39-1.204-.406-1.532-1.921-1.532-2.89 0-1.172.407-2.61 1.782-2.953.14-.047.28-.047.421-.047.891 0 1.579.703 1.891 1.469.188.5.266 1.062.266 1.609 0 .984-.282 1.984-1.141 2.61Zm-.25.141c-.266.11-.531.203-.813.203-.296 0-.515-.266-.515-.547 0-.297.265-.531.562-.531.485 0 .641.422.766.875Zm0 0"/></symbol><symbol overflow="visible" id="A"><path style="stroke:none" d="M.344-6.14v.28H.64c.406 0 .609.032.609.423v3.14c0 .266.016.516.063.766C1.578-.47 2.563.187 3.624.187c1.031 0 1.844-.89 1.984-1.859.032-.187.032-.375.032-.547v-2.906c0-.672.5-.734.921-.734v-.282H4.454v.282c.406 0 .906.062.906.687v2.984c0 .813-.296 1.657-1.187 1.985-.188.078-.406.11-.61.11-.437 0-.812-.22-1.093-.532-.375-.438-.406-1.016-.406-1.578V-5.47c0-.343.296-.39.593-.39h.328v-.282Zm0 0"/></symbol><symbol overflow="visible" id="B"><path style="stroke:none" d="M.36-6.14v.28h.343c.297 0 .578.048.578.391v4.782c0 .39-.328.406-.672.406H.36v.265h2.563c.203 0 .39.016.594.016 1.078 0 2.437-.516 2.89-2.14.078-.297.11-.579.11-.876 0-1.609-1.11-3.125-2.985-3.125h-.61ZM5.624-2.72c0 1.11-.547 2.063-1.547 2.344-.297.094-.578.094-.875.094h-.797c-.203 0-.36-.047-.36-.328V-5.453c0-.266.032-.406.407-.406h.766c.656 0 1.344.093 1.875.78.468.579.547 1.407.547 2.11 0 .078-.016.156-.016.25Zm0 0"/></symbol><symbol overflow="visible" id="C"><path style="stroke:none" d="M.344-6.11v.282h.344c.296 0 .562.031.562.39v4.75c0 .36-.297.407-.594.407H.344v.265h5.265L6-2.328h-.25c-.094.562-.188 1.203-.563 1.61-.406.421-1.046.437-1.593.437h-1.14c-.188 0-.392 0-.392-.328v-2.438h.86c.312 0 .672.031.828.297.125.188.14.438.14.672v.094h.25v-2.391h-.25v.094c0 .5-.124.906-.687.937-.156.031-.344.031-.515.031h-.626v-2.203c0-.312.188-.312.391-.312h1.172c.625 0 1.328.031 1.656.719.14.328.172.671.219 1.015h.25L5.5-6.109Zm0 0"/></symbol><symbol overflow="visible" id="D"><path style="stroke:none" d="M.172-6.14v.28H.39c.187 0 .406.016.53.126.126.125.173.312.22.453.656 1.703 1.359 3.39 2.015 5.11.047.14.094.359.297.359.188 0 .235-.22.281-.36l.47-1.156c.5-1.266.984-2.563 1.5-3.828.218-.532.546-.703 1.015-.703v-.282l-.516.032h-1.36v.25a.73.73 0 0 1 .532.203l.063.093c.03.032.03.094.03.141 0 .234-.187.578-.296.844-.422 1.094-.828 2.187-1.281 3.266-.063.14-.125.296-.172.437-.047-.125-.094-.25-.14-.36C3-2.624 2.515-4.093 1.905-5.468c-.015-.031-.015-.078-.015-.125v-.031c.062-.219.39-.234.625-.234h.078v-.282Zm0 0"/></symbol><symbol overflow="visible" id="E"><path style="stroke:none" d="M.313-.281v.265L.859-.03h1.36v-.25c-.25 0-.64-.125-.64-.453 0-.125.046-.235.093-.344.156-.422.281-.984.437-.984H4.25c.156 0 .266.5.36.75.077.234.265.593.265.75 0 .28-.5.28-.734.28v.266h2.453V-.28h-.25c-.203 0-.422-.031-.516-.125-.125-.125-.156-.297-.219-.438-.64-1.734-1.234-3.484-1.875-5.218l-.078-.188c-.031-.094-.062-.188-.219-.188-.187 0-.218.22-.265.36C2.625-4.547 2.078-3 1.516-1.484l-.157.453c-.187.562-.562.75-1.046.75Zm1.812-2.063L3.188-5.28 4.25-2.344Zm0 0"/></symbol><symbol overflow="visible" id="F"><path style="stroke:none" d="M.36-6.14v.28h.343c.297 0 .578.048.578.391v4.782c0 .39-.328.406-.672.406H.36v.265H3V-.28h-.313c-.39 0-.609-.047-.609-.422v-2.125h1.625c.875-.047 2.047-.547 2.047-1.625 0-1.031-1.063-1.625-2.047-1.688Zm1.687 3.062v-2.438c0-.234.094-.343.344-.343h.687c.781 0 1.75.046 1.75 1.406 0 .297-.031.672-.234.906-.328.406-.86.469-1.344.469Zm0 0"/></symbol><symbol overflow="visible" id="G"><path style="stroke:none" d="M.36-6.14v.28h.343c.297 0 .578.048.578.391v4.782c0 .39-.328.406-.672.406H.36v.265h2.61V-.28h-.344c-.313 0-.578-.047-.578-.422v-2.25h1c.61 0 1.234.265 1.328 1v.64c0 .594.094 1.235 1.031 1.454.125.03.266.047.422.047.484 0 .922-.36.922-1.016 0-.078-.047-.14-.125-.14-.172 0-.156.452-.281.655-.094.157-.266.282-.453.282-.438 0-.516-.516-.579-.844-.03-.266-.062-.531-.109-.797-.031-.219-.047-.437-.156-.64-.203-.391-.547-.563-.969-.75.656-.188 1.547-.61 1.547-1.454 0-1.109-1.375-1.562-2.281-1.625Zm1.687 2.952V-5.53c0-.203.094-.328.328-.328h.672c.75 0 1.672.171 1.672 1.359 0 1.078-.86 1.313-1.86 1.313Zm0 0"/></symbol><symbol overflow="visible" id="H"><path style="stroke:none" d="M.11-6.14v.28h.203c.39 0 .625.063.828.407l.265.406c.485.781.985 1.547 1.485 2.328L3-2.563c.016.047.063.094.063.157v1.703c0 .406-.282.422-.922.422v.265H4.75V-.28h-.344c-.312 0-.578-.047-.578-.406 0-.079.016-.141.016-.204v-1.453a.33.33 0 0 1 .062-.219l.125-.187a83.05 83.05 0 0 1 1.25-1.953l.266-.438c.344-.515.719-.718 1.234-.718v-.282l-.531.032H4.89v.25c.204 0 .485.093.485.343 0 .172-.14.344-.219.47-.297.484-.625.968-.937 1.452l-.297.469c-.063.11-.125.188-.172.297h-.016c-.046-.094-.093-.172-.14-.25L2.438-4.891C2.28-5.125 2-5.484 2-5.64v-.03c.016-.188.39-.188.594-.188v-.282Zm0 0"/></symbol><symbol overflow="visible" id="I"><path style="stroke:none" d="M5.422-5.547c-.25-.422-.984-.75-1.578-.781H3.75C1.969-6.328.516-4.86.516-3.078v.156c.109 1.75 1.5 3.11 3.203 3.11 1.234 0 2.422-.985 2.422-2.282v-.078c-.016-.062-.079-.094-.141-.094-.078 0-.11.063-.11.141v.063c-.093.921-.75 1.968-2.062 1.968-.703 0-1.406-.36-1.844-.922-.437-.578-.562-1.421-.562-2.109 0-.89.234-1.766.906-2.375.39-.344.938-.547 1.469-.547 1.156 0 1.86 1 2.031 2 .016.125 0 .281.156.281.125 0 .157-.062.157-.14v-2.219c0-.094 0-.203-.11-.203-.156 0-.406.531-.61.781Zm0 0"/></symbol><symbol overflow="visible" id="J"><path style="stroke:none" d="M.375-6.14v.28h.328c.313 0 .578.048.578.391v4.782c0 .39-.328.406-.656.406h-.25v.265h3.39c.485 0 .907-.046 1.344-.265.5-.266.907-.781.907-1.375 0-.953-.97-1.438-1.782-1.547.157-.047.329-.094.47-.14.53-.22 1.046-.657 1.046-1.298 0-.578-.469-1.046-.969-1.265-.437-.203-.906-.235-1.375-.235Zm1.656 3.062H3.25c.14 0 .281-.016.422-.016.89 0 1.453.656 1.453 1.422 0 .875-.734 1.39-1.578 1.39H2.375c-.234 0-.344-.109-.344-.343Zm0-.235V-5.53c0-.235.11-.328.344-.328h1.156c.625 0 1.36.28 1.36 1.25 0 .812-.782 1.312-1.5 1.312-.11 0-.22-.015-.329-.015Zm0 0"/></symbol></defs><path style="fill:none;stroke-width:.19925;stroke-linecap:butt;stroke-linejoin:miter;stroke:gray;stroke-opacity:1;stroke-miterlimit:10" d="M38.705-2.125v4.25m71.879-4.25v4.25" transform="matrix(1 0 0 -1 13.592 142.879)"/><path style="fill:none;stroke-width:.3985;stroke-linecap:butt;stroke-linejoin:miter;stroke:#000;stroke-opacity:1;stroke-miterlimit:10" d="M.002 0h151.594" transform="matrix(1 0 0 -1 13.592 142.879)"/><path style="stroke:none;fill-rule:nonzero;fill:#000;fill-opacity:1" d="m167.18 142.879-3.188-1.594 1.196 1.594-1.196 1.594"/><path style="fill:none;stroke-width:.3985;stroke-linecap:butt;stroke-linejoin:miter;stroke:#000;stroke-opacity:1;stroke-miterlimit:10" d="M.002 0v124.317" transform="matrix(1 0 0 -1 13.592 142.879)"/><path style="stroke:none;fill-rule:nonzero;fill:#000;fill-opacity:1" d="m13.594 16.57-1.598 3.188 1.598-1.195 1.594 1.195"/><use xlink:href="#a" x="47.436" y="153.124" style="fill:#000;fill-opacity:1"/><use xlink:href="#b" x="52.812" y="154.121" style="fill:#000;fill-opacity:1"/><use xlink:href="#a" x="119.606" y="153.124" style="fill:#000;fill-opacity:1"/><use xlink:href="#c" x="124.982" y="154.121" style="fill:#000;fill-opacity:1"/><path style="fill:none;stroke-width:.99628;stroke-linecap:butt;stroke-linejoin:miter;stroke:#00adef;stroke-opacity:1;stroke-miterlimit:10" d="m38.705 6.176.726.305.727.316.727.328.722.336.727.348.726.36.727.366.726.38.727.386.727.402.722.41.727.422.726.438.727.445.727.457.726.469.727.48.726.492.723.508.726.52.727.531.727.543.726.555.727.57.726.582.723.598.726.61.727.624.727.637.726.648.727.668.726.68.727.691.722.711.727.723.727.738.726.75.727.77.726.781.727.8.726.813.723.832.727.844.726.863.727.88.726.894.727.91.726.93.723.941.727.961.726.98.727.997.726 1.011.727 1.032.726 1.046.727 1.067.723 1.086.726 1.101.727 1.121.726 1.137.727 1.156.727 1.176.726 1.195.723 1.215.726 1.235.727 1.25.726 1.273.727 1.293.727 1.309.726 1.332.727 1.351.722 1.371.727 1.391.726 1.414.727 1.43.727 1.457.726 1.472.727 1.497.722 1.515.727 1.54.726 1.558.727 1.582.727 1.605.726 1.625.727 1.649.726 1.668.723 1.691.727 1.715.726 1.738.727 1.762.726 1.781.727 1.809.726 1.828.727 1.855.723 1.875.726 1.903.727 1.922.726 1.949.727 1.972" transform="matrix(1 0 0 -1 13.592 142.879)"/><use xlink:href="#d" x="68.788" y="121.045" style="fill:#000;fill-opacity:1"/><use xlink:href="#e" x="71.459" y="118.686" style="fill:#000;fill-opacity:1"/><use xlink:href="#f" x="74.35" y="115.928" style="fill:#000;fill-opacity:1"/><use xlink:href="#g" x="77.459" y="112.643" style="fill:#000;fill-opacity:1"/><use xlink:href="#h" x="79.558" y="110.269" style="fill:#000;fill-opacity:1"/><use xlink:href="#i" x="82.447" y="106.77" style="fill:#000;fill-opacity:1"/><use xlink:href="#j" x="86.299" y="101.672" style="fill:#000;fill-opacity:1"/><use xlink:href="#k" x="88.914" y="97.94" style="fill:#000;fill-opacity:1"/><use xlink:href="#l" x="92.412" y="92.565" style="fill:#000;fill-opacity:1"/><use xlink:href="#m" x="94.684" y="88.83" style="fill:#000;fill-opacity:1"/><use xlink:href="#n" x="96.764" y="85.25" style="fill:#000;fill-opacity:1"/><use xlink:href="#o" x="98.999" y="81.212" style="fill:#000;fill-opacity:1"/><use xlink:href="#p" x="100.949" y="77.519" style="fill:#000;fill-opacity:1"/><use xlink:href="#q" x="102.428" y="74.631" style="fill:#000;fill-opacity:1"/><use xlink:href="#r" x="103.459" y="72.576" style="fill:#000;fill-opacity:1"/><use xlink:href="#s" x="104.898" y="69.62" style="fill:#000;fill-opacity:1"/><use xlink:href="#t" x="106.679" y="65.835" style="fill:#000;fill-opacity:1"/><use xlink:href="#u" x="108.03" y="62.886" style="fill:#000;fill-opacity:1"/><use xlink:href="#v" x="108.979" y="60.785" style="fill:#000;fill-opacity:1"/><use xlink:href="#w" x="110.652" y="56.946" style="fill:#000;fill-opacity:1"/><path style="fill:none;stroke-width:.3985;stroke-linecap:butt;stroke-linejoin:miter;stroke:#000;stroke-opacity:1;stroke-dasharray:2.98883,1.99255;stroke-miterlimit:10" d="M38.705 0v6.176M110.584 0v107.363" transform="matrix(1 0 0 -1 13.592 142.879)"/><path style="stroke:none;fill-rule:nonzero;fill:#fff;fill-opacity:1" d="M62.813 33.16h39.789v-7.918h-39.79Zm0 0"/><g style="fill:#000;fill-opacity:1"><use xlink:href="#x" x="62.811" y="31.418"/><use xlink:href="#y" x="68.568" y="31.418"/><use xlink:href="#z" x="71.894" y="31.418"/><use xlink:href="#A" x="79.06" y="31.418"/><use xlink:href="#y" x="85.969" y="31.418"/><use xlink:href="#B" x="89.294" y="31.418"/><use xlink:href="#C" x="96.331" y="31.418"/></g><path style="stroke:none;fill-rule:nonzero;fill:#fff;fill-opacity:1" d="M73.574 138.316h48.985V122.18H73.574Zm0 0"/><use xlink:href="#D" x="78.555" y="133.335" style="fill:#000;fill-opacity:1"/><g style="fill:#000;fill-opacity:1"><use xlink:href="#E" x="84.441" y="133.335"/><use xlink:href="#F" x="91.35" y="133.335"/><use xlink:href="#C" x="97.619" y="133.335"/><use xlink:href="#A" x="103.889" y="133.335"/><use xlink:href="#G" x="110.797" y="133.335"/></g><use xlink:href="#H" x="48.842" y="130.727" style="fill:#000;fill-opacity:1"/><use xlink:href="#I" x="120.848" y="29.539" style="fill:#000;fill-opacity:1"/><use xlink:href="#E" x="109.969" y="95.444" style="fill:#000;fill-opacity:1"/><use xlink:href="#J" x="110.16" y="32.29" style="fill:#000;fill-opacity:1"/><path style="fill:none;stroke-width:.3985;stroke-linecap:butt;stroke-linejoin:miter;stroke:gray;stroke-opacity:1;stroke-miterlimit:10" d="M99.834 55.602v49.41" transform="matrix(1 0 0 -1 13.592 142.879)"/><path style="stroke:none;fill-rule:nonzero;fill:gray;fill-opacity:1" d="M113.426 34.281c-.2 1.063-.797 2.79-1.496 3.985h2.988c-.695-1.196-1.293-2.922-1.492-3.985"/><path style="fill:none;stroke-width:.3985;stroke-linecap:butt;stroke-linejoin:miter;stroke:gray;stroke-opacity:1;stroke-dasharray:2.98883,2.98883;stroke-miterlimit:10" d="M105.28 50.524c26.71.074 18.644 87.175 2.335 70.777" transform="matrix(1 0 0 -1 13.592 142.879)"/><path style="stroke:none;fill-rule:nonzero;fill:gray;fill-opacity:1" d="M118.68 24.121c.89-.613 2.53-1.418 3.867-1.773l-2.117-2.106c-.348 1.34-1.14 2.985-1.75 3.88"/><path style="fill-rule:nonzero;fill:#fff;fill-opacity:1;stroke-width:.3985;stroke-linecap:butt;stroke-linejoin:miter;stroke:#000;stroke-opacity:1;stroke-miterlimit:10" d="M40.697 6.176a1.993 1.993 0 1 1-3.986-.002 1.993 1.993 0 0 1 3.986.002ZM112.576 107.363a1.99 1.99 0 0 1-1.992 1.993 1.99 1.99 0 0 1-1.992-1.993 1.99 1.99 0 0 1 1.992-1.992 1.99 1.99 0 0 1 1.992 1.992Zm0 0" transform="matrix(1 0 0 -1 13.592 142.879)"/><use xlink:href="#a" x="163.852" y="152.991" style="fill:#000;fill-opacity:1"/><use xlink:href="#K" x="4.981" y="17.629" style="fill:#000;fill-opacity:1"/></svg>