<svg xmlns="http://www.w3.org/2000/svg" xmlns:xlink="http://www.w3.org/1999/xlink" width="172.643" height="247.955" viewBox="0 0 129.482 185.966"><defs><symbol overflow="visible" id="e"><path style="stroke:none" d="M.406 1.125c-.062.25-.078.344-.453.344-.11 0-.219 0-.219.156 0 .031.032.11.125.11l.375-.016H1.078c.156 0 .297.015.438.015.046 0 .171 0 .171-.156 0-.11-.093-.11-.25-.11-.421 0-.421-.062-.421-.155a2.9 2.9 0 0 1 .109-.438l.328-1.328c.094.187.344.547.86.547C3.359.094 4.5-1.172 4.5-2.516c0-.906-.563-1.453-1.234-1.453-.188 0-.641.047-1.188.656-.125-.5-.547-.656-.844-.656-.375 0-.578.281-.703.531-.14.313-.265.813-.265.86 0 .078.062.11.125.11.093 0 .109-.048.156-.235.172-.703.36-1.031.656-1.031.281 0 .281.28.281.421 0 .063-.015.204-.03.266Zm1.625-3.89c.047-.172.047-.188.172-.329.235-.312.64-.64 1.047-.64.422 0 .594.421.594.843 0 .391-.25 1.516-.531 1.985-.313.515-.688.781-1.016.781-.578 0-.735-.703-.735-.766 0-.062.032-.109.032-.156Zm0 0"/></symbol><symbol overflow="visible" id="f"><path style="stroke:none" d="M.344-6.14v.28h.344c.296 0 .562.048.562.391v4.782c0 .39-.313.406-.656.406h-.25v.265h2.64V-.28h-.343c-.313 0-.579-.047-.579-.422v-2.36h2.766v2.36c0 .39-.297.422-.672.422h-.234v.265h2.64V-.28h-.359c-.281 0-.562-.031-.562-.406V-5.47c0-.343.296-.39.593-.39h.329v-.282H3.921v.282h.297c.406 0 .61.03.61.421v2.094H2.062v-2.094c0-.406.28-.421.921-.421v-.282Zm0 0"/></symbol><symbol overflow="visible" id="g"><path style="stroke:none" d="M.969-1.734A1.162 1.162 0 0 0 .688-1c0 .297.125.625.39.797-.422.172-.812.422-.812.89 0 .907 1.406 1.157 2.046 1.157.766 0 2.032-.282 2.032-1.188 0-1.062-1.11-1.281-2.016-1.281H1.5a.575.575 0 0 1-.5-.578c0-.125.063-.375.14-.375h.016c.125.031.25.125.375.156.157.063.344.078.516.078.719 0 1.5-.5 1.5-1.281 0-.313-.125-.672-.375-.875v-.016c.297-.203.547-.328.875-.328-.063.063-.125.125-.125.235 0 .14.125.265.281.265.188 0 .266-.14.266-.265 0-.297-.25-.454-.485-.454h-.078a1.483 1.483 0 0 0-.781.313c-.016.031-.063.078-.11.078-.062 0-.265-.14-.39-.187a1.316 1.316 0 0 0-.547-.11c-.734 0-1.531.5-1.531 1.328 0 .329.156.688.422.907ZM.766.734V.672c0-.469.468-.735.89-.735.078 0 .188.016.266.016h.469c.53 0 1.359.031 1.453.688v.062c0 .781-1.313.89-1.563.89C1.72 1.594.86 1.36.766.735ZM1.25-2.5v-.094c0-.484.11-1.125.797-1.125.547 0 .812.469.812 1.11 0 .515-.234 1.015-.812 1.015a.785.785 0 0 1-.61-.265c-.14-.188-.156-.407-.187-.641Zm0 0"/></symbol><symbol overflow="visible" id="h"><path style="stroke:none" d="M.953-3.86H.25v.266h.703v2.969c0 .313-.25.344-.547.344h-.14v.265L.922-.03h.734l.625.015V-.28h-.203c-.25 0-.484-.031-.484-.344v-2.969h1.922v2.969c0 .313-.266.344-.563.344h-.125v.265l.625-.015h.735l.656.015V-.28h-.219c-.25 0-.469-.047-.469-.36v-5.593c-.11.015-.218.046-.328.046h-.031c-.063 0-.172-.062-.235-.078a1.613 1.613 0 0 0-.468-.062h-.156c-.922 0-1.985.469-1.985 1.469Zm2.563 0H1.562v-.968c0-.656.422-1.281 1.375-1.281.204 0 .376.03.579.062-.125.094-.204.203-.204.36 0 .218.188.265.204.406.015.047.015.11.015.156 0 .11-.015.219-.015.313Zm0 0"/></symbol><symbol overflow="visible" id="i"><path style="stroke:none" d="M.313-3.86v.266H.39c.25 0 .593.031.593.281.016.11.016.188.016.297v1.782c0 .28.016.53.14.78.266.438.813.548 1.282.548.5 0 .984-.297 1.14-.766l.016.766 1.328-.11V-.28H4.75c-.266 0-.531-.031-.531-.438v-3.25l-1.36.11v.265h.125c.282 0 .563.031.563.453v1.766C3.5-.797 3.14-.141 2.453-.141c-.36 0-.687-.078-.765-.546-.016-.172-.016-.329-.016-.5V-3.97Zm0 0"/></symbol><symbol overflow="visible" id="j"><path style="stroke:none" d="M.36-3.86v.266H.5c.297 0 .516.047.516.453v2.485c0 .36-.25.375-.688.375v.265h1.938V-.28h-.141c-.234 0-.469-.031-.469-.313v-3.375Zm.765-2.156c-.234.047-.422.235-.422.485s.219.468.485.468h.062a.474.474 0 0 0 .422-.468.477.477 0 0 0-.484-.485Zm0 0"/></symbol><symbol overflow="visible" id="k"><path style="stroke:none" d="M2.828-6.14v.28h.094c.36 0 .594.016.594.548v1.875a1.532 1.532 0 0 0-1.172-.532c-1.11 0-2.031.938-2.031 2.047C.313-.906 1.14.094 2.266.094c.421 0 .984-.203 1.218-.578v.578l1.36-.11V-.28h-.14c-.298 0-.548-.031-.548-.453v-5.5Zm-1.75 4.406v-.125c0-.72.188-1.875 1.313-1.875.468 0 1.109.343 1.109.906 0 .11-.016.219-.016.328v1.484c0 .11-.046.188-.109.282-.234.343-.64.593-1.063.593a1.14 1.14 0 0 1-.89-.453c-.25-.328-.297-.734-.344-1.14Zm0 0"/></symbol><symbol overflow="visible" id="l"><path style="stroke:none" d="M1.031-2.063h2.657c.109 0 .156-.046.156-.156 0-1.125-.703-1.797-1.64-1.797-1.095 0-1.954.954-1.954 2.047C.25-.875 1.125.094 2.344.094c.64 0 1.281-.453 1.469-1.078.015-.016.015-.063.015-.094a.107.107 0 0 0-.11-.11c-.171 0-.171.266-.265.391-.219.375-.656.64-1.094.64h-.062C1.828-.171 1.422-.5 1.219-.921c-.172-.36-.188-.75-.188-1.14Zm.016-.218c0-.594.25-1.281.906-1.485a.914.914 0 0 1 .203-.03c.781 0 1.063.796 1.063 1.515Zm0 0"/></symbol><clipPath id="a"><path d="M31 61h92v120H31Zm0 0"/></clipPath><clipPath id="b"><path d="M65.813 63.414v24.363c0 1.102.894 1.993 1.996 1.993h21.37a1.99 1.99 0 0 1 1.993 1.992v81.054a1.99 1.99 0 0 1-1.992 1.993H39.46a1.99 1.99 0 0 1-1.991-1.993v-24.359a1.993 1.993 0 0 0-1.992-1.992H33.48c-1.097 0-1.992.89-1.992 1.992v30.34c0 1.098.895 1.992 1.992 1.992h61.676a1.993 1.993 0 0 0 1.992-1.992V91.762c0-1.102.895-1.992 1.993-1.992h21.375a1.99 1.99 0 0 0 1.992-1.993V63.414c0-1.098-.89-1.992-1.992-1.992H67.809a1.996 1.996 0 0 0-1.996 1.992Zm0 0"/></clipPath><clipPath id="d"><path d="M25 17h104v168.965H25Zm0 0"/></clipPath><linearGradient id="c" gradientUnits="userSpaceOnUse" x1="0" y1="25.003" x2="0" y2="74.997" gradientTransform="matrix(0 -2.38759 -1.82057 0 168.027 240.485)"><stop offset="0" style="stop-color:#bfbfbf;stop-opacity:1"/><stop offset=".008" style="stop-color:silver;stop-opacity:1"/><stop offset=".016" style="stop-color:#c1c1c1;stop-opacity:1"/><stop offset=".023" style="stop-color:#c2c2c2;stop-opacity:1"/><stop offset=".031" style="stop-color:#c3c3c3;stop-opacity:1"/><stop offset=".039" style="stop-color:#c4c4c4;stop-opacity:1"/><stop offset=".047" style="stop-color:#c5c5c5;stop-opacity:1"/><stop offset=".055" style="stop-color:#c6c6c6;stop-opacity:1"/><stop offset=".063" style="stop-color:#c7c7c7;stop-opacity:1"/><stop offset=".07" style="stop-color:#c8c8c8;stop-opacity:1"/><stop offset=".078" style="stop-color:#c9c9c9;stop-opacity:1"/><stop offset=".086" style="stop-color:#cacaca;stop-opacity:1"/><stop offset=".094" style="stop-color:#cbcbcb;stop-opacity:1"/><stop offset=".102" style="stop-color:#ccc;stop-opacity:1"/><stop offset=".109" style="stop-color:#cdcdcd;stop-opacity:1"/><stop offset=".117" style="stop-color:#cecece;stop-opacity:1"/><stop offset=".125" style="stop-color:#cfcfcf;stop-opacity:1"/><stop offset=".133" style="stop-color:#d0d0d0;stop-opacity:1"/><stop offset=".141" style="stop-color:#d1d1d1;stop-opacity:1"/><stop offset=".148" style="stop-color:#d2d2d2;stop-opacity:1"/><stop offset=".156" style="stop-color:#d3d3d3;stop-opacity:1"/><stop offset=".164" style="stop-color:#d4d4d4;stop-opacity:1"/><stop offset=".172" style="stop-color:#d5d5d5;stop-opacity:1"/><stop offset=".18" style="stop-color:#d6d6d6;stop-opacity:1"/><stop offset=".188" style="stop-color:#d7d7d7;stop-opacity:1"/><stop offset=".195" style="stop-color:#d8d8d8;stop-opacity:1"/><stop offset=".203" style="stop-color:#d9d9d9;stop-opacity:1"/><stop offset=".211" style="stop-color:#dadada;stop-opacity:1"/><stop offset=".219" style="stop-color:#dbdbdb;stop-opacity:1"/><stop offset=".227" style="stop-color:#dcdcdc;stop-opacity:1"/><stop offset=".234" style="stop-color:#ddd;stop-opacity:1"/><stop offset=".242" style="stop-color:#dedede;stop-opacity:1"/><stop offset=".25" style="stop-color:#dfdfdf;stop-opacity:1"/><stop offset=".258" style="stop-color:#e0e0e0;stop-opacity:1"/><stop offset=".266" style="stop-color:#e1e1e1;stop-opacity:1"/><stop offset=".273" style="stop-color:#e2e2e2;stop-opacity:1"/><stop offset=".281" style="stop-color:#e3e3e3;stop-opacity:1"/><stop offset=".289" style="stop-color:#e4e4e4;stop-opacity:1"/><stop offset=".297" style="stop-color:#e5e5e5;stop-opacity:1"/><stop offset=".305" style="stop-color:#e6e6e6;stop-opacity:1"/><stop offset=".313" style="stop-color:#e7e7e7;stop-opacity:1"/><stop offset=".32" style="stop-color:#e8e8e8;stop-opacity:1"/><stop offset=".328" style="stop-color:#e9e9e9;stop-opacity:1"/><stop offset=".336" style="stop-color:#eaeaea;stop-opacity:1"/><stop offset=".344" style="stop-color:#ebebeb;stop-opacity:1"/><stop offset=".352" style="stop-color:#ececec;stop-opacity:1"/><stop offset=".359" style="stop-color:#ededed;stop-opacity:1"/><stop offset=".367" style="stop-color:#eee;stop-opacity:1"/><stop offset=".375" style="stop-color:#efefef;stop-opacity:1"/><stop offset=".383" style="stop-color:#f0f0f0;stop-opacity:1"/><stop offset=".391" style="stop-color:#f1f1f1;stop-opacity:1"/><stop offset=".398" style="stop-color:#f2f2f2;stop-opacity:1"/><stop offset=".406" style="stop-color:#f3f3f3;stop-opacity:1"/><stop offset=".414" style="stop-color:#f4f4f4;stop-opacity:1"/><stop offset=".422" style="stop-color:#f5f5f5;stop-opacity:1"/><stop offset=".43" style="stop-color:#f6f6f6;stop-opacity:1"/><stop offset=".438" style="stop-color:#f7f7f7;stop-opacity:1"/><stop offset=".445" style="stop-color:#f8f8f8;stop-opacity:1"/><stop offset=".453" style="stop-color:#f9f9f9;stop-opacity:1"/><stop offset=".461" style="stop-color:#fafafa;stop-opacity:1"/><stop offset=".469" style="stop-color:#fbfbfb;stop-opacity:1"/><stop offset=".477" style="stop-color:#fcfcfc;stop-opacity:1"/><stop offset=".484" style="stop-color:#fdfdfd;stop-opacity:1"/><stop offset=".492" style="stop-color:#fefefe;stop-opacity:1"/><stop offset=".5" style="stop-color:#fefefe;stop-opacity:1"/><stop offset=".508" style="stop-color:#fefefe;stop-opacity:1"/><stop offset=".516" style="stop-color:#fefefe;stop-opacity:1"/><stop offset=".523" style="stop-color:#fdfdfd;stop-opacity:1"/><stop offset=".531" style="stop-color:#fcfcfc;stop-opacity:1"/><stop offset=".539" style="stop-color:#fbfbfb;stop-opacity:1"/><stop offset=".547" style="stop-color:#fafafa;stop-opacity:1"/><stop offset=".555" style="stop-color:#f9f9f9;stop-opacity:1"/><stop offset=".563" style="stop-color:#f8f8f8;stop-opacity:1"/><stop offset=".57" style="stop-color:#f7f7f7;stop-opacity:1"/><stop offset=".578" style="stop-color:#f6f6f6;stop-opacity:1"/><stop offset=".586" style="stop-color:#f5f5f5;stop-opacity:1"/><stop offset=".594" style="stop-color:#f4f4f4;stop-opacity:1"/><stop offset=".602" style="stop-color:#f3f3f3;stop-opacity:1"/><stop offset=".609" style="stop-color:#f2f2f2;stop-opacity:1"/><stop offset=".617" style="stop-color:#f1f1f1;stop-opacity:1"/><stop offset=".625" style="stop-color:#f0f0f0;stop-opacity:1"/><stop offset=".633" style="stop-color:#efefef;stop-opacity:1"/><stop offset=".641" style="stop-color:#eee;stop-opacity:1"/><stop offset=".648" style="stop-color:#ededed;stop-opacity:1"/><stop offset=".656" style="stop-color:#ececec;stop-opacity:1"/><stop offset=".664" style="stop-color:#ebebeb;stop-opacity:1"/><stop offset=".672" style="stop-color:#eaeaea;stop-opacity:1"/><stop offset=".68" style="stop-color:#e9e9e9;stop-opacity:1"/><stop offset=".688" style="stop-color:#e8e8e8;stop-opacity:1"/><stop offset=".695" style="stop-color:#e7e7e7;stop-opacity:1"/><stop offset=".703" style="stop-color:#e6e6e6;stop-opacity:1"/><stop offset=".711" style="stop-color:#e5e5e5;stop-opacity:1"/><stop offset=".719" style="stop-color:#e4e4e4;stop-opacity:1"/><stop offset=".727" style="stop-color:#e3e3e3;stop-opacity:1"/><stop offset=".734" style="stop-color:#e2e2e2;stop-opacity:1"/><stop offset=".742" style="stop-color:#e1e1e1;stop-opacity:1"/><stop offset=".75" style="stop-color:#e0e0e0;stop-opacity:1"/><stop offset=".758" style="stop-color:#dfdfdf;stop-opacity:1"/><stop offset=".766" style="stop-color:#dedede;stop-opacity:1"/><stop offset=".773" style="stop-color:#ddd;stop-opacity:1"/><stop offset=".781" style="stop-color:#dcdcdc;stop-opacity:1"/><stop offset=".789" style="stop-color:#dbdbdb;stop-opacity:1"/><stop offset=".797" style="stop-color:#dadada;stop-opacity:1"/><stop offset=".805" style="stop-color:#d9d9d9;stop-opacity:1"/><stop offset=".813" style="stop-color:#d8d8d8;stop-opacity:1"/><stop offset=".82" style="stop-color:#d7d7d7;stop-opacity:1"/><stop offset=".828" style="stop-color:#d6d6d6;stop-opacity:1"/><stop offset=".836" style="stop-color:#d5d5d5;stop-opacity:1"/><stop offset=".844" style="stop-color:#d4d4d4;stop-opacity:1"/><stop offset=".852" style="stop-color:#d3d3d3;stop-opacity:1"/><stop offset=".859" style="stop-color:#d2d2d2;stop-opacity:1"/><stop offset=".867" style="stop-color:#d1d1d1;stop-opacity:1"/><stop offset=".875" style="stop-color:#d0d0d0;stop-opacity:1"/><stop offset=".883" style="stop-color:#cfcfcf;stop-opacity:1"/><stop offset=".891" style="stop-color:#cecece;stop-opacity:1"/><stop offset=".898" style="stop-color:#cdcdcd;stop-opacity:1"/><stop offset=".906" style="stop-color:#ccc;stop-opacity:1"/><stop offset=".914" style="stop-color:#cbcbcb;stop-opacity:1"/><stop offset=".922" style="stop-color:#cacaca;stop-opacity:1"/><stop offset=".93" style="stop-color:#c9c9c9;stop-opacity:1"/><stop offset=".938" style="stop-color:#c8c8c8;stop-opacity:1"/><stop offset=".945" style="stop-color:#c7c7c7;stop-opacity:1"/><stop offset=".953" style="stop-color:#c6c6c6;stop-opacity:1"/><stop offset=".961" style="stop-color:#c5c5c5;stop-opacity:1"/><stop offset=".969" style="stop-color:#c4c4c4;stop-opacity:1"/><stop offset=".977" style="stop-color:#c3c3c3;stop-opacity:1"/><stop offset=".984" style="stop-color:#c2c2c2;stop-opacity:1"/><stop offset=".992" style="stop-color:#c1c1c1;stop-opacity:1"/><stop offset="1" style="stop-color:silver;stop-opacity:1"/></linearGradient></defs><path style="stroke:none;fill-rule:nonzero;fill:#effafb;fill-opacity:1" d="M37.469 174.809V33.074c0-5.5-1.34-9.96-2.989-9.96-1.652 0-2.992 4.46-2.992 9.96V174.81Zm0 0"/><path style="stroke:none;fill-rule:nonzero;fill:#000;fill-opacity:1" d="M65.813 63.414v24.363c0 1.102.894 1.993 1.996 1.993h21.37a1.99 1.99 0 0 1 1.993 1.992v81.054a1.99 1.99 0 0 1-1.992 1.993H39.46a1.99 1.99 0 0 1-1.991-1.993v-24.359a1.993 1.993 0 0 0-1.992-1.992H33.48c-1.097 0-1.992.89-1.992 1.992v30.34c0 1.098.895 1.992 1.992 1.992h61.676a1.993 1.993 0 0 0 1.992-1.992V91.762c0-1.102.895-1.992 1.993-1.992h21.375a1.99 1.99 0 0 0 1.992-1.993V63.414c0-1.098-.89-1.992-1.992-1.992H67.809a1.996 1.996 0 0 0-1.996 1.992Zm0 0"/><g clip-path="url(#a)"><g clip-path="url(#b)"><path style="stroke:none;fill-rule:nonzero;fill:url(#c)" d="M122.508 180.79h-91.02V61.421h91.02Zm0 0"/></g></g><g clip-path="url(#d)"><path style="fill:none;stroke-width:.3985;stroke-linecap:butt;stroke-linejoin:miter;stroke:#000;stroke-opacity:1;stroke-miterlimit:10" d="M-28.349.002v-54.703c0-1.102.895-1.993 1.997-1.993h21.37a1.99 1.99 0 0 0 1.993-1.992v-81.054a1.99 1.99 0 0 0-1.992-1.993h-49.72a1.99 1.99 0 0 0-1.991 1.993V1.994c0 3.508-1.34 7.969-2.989 7.969-1.652 0-2.992-4.461-2.992-7.969v-147.715c0-1.098.895-1.992 1.992-1.992H.995c1.102 0 1.992.894 1.992 1.992v87.035c0 1.102.895 1.992 1.993 1.992h21.375a1.99 1.99 0 0 1 1.992 1.993V.002" transform="matrix(1 0 0 -1 94.161 33.076)"/></g><path style="fill:none;stroke-width:3.9851;stroke-linecap:butt;stroke-linejoin:miter;stroke:gray;stroke-opacity:1;stroke-miterlimit:10" d="M-28.349-28.346h56.696" transform="matrix(1 0 0 -1 94.161 33.076)"/><path style="fill:none;stroke-width:.3985;stroke-linecap:butt;stroke-linejoin:miter;stroke:#000;stroke-opacity:1;stroke-miterlimit:10" d="M-25.513-24.361v3.984" transform="matrix(1 0 0 -1 94.161 33.076)"/><path style="stroke:none;fill-rule:nonzero;fill:#000;fill-opacity:1" d="m68.648 59.43 1.594-3.188-1.594 1.196-1.593-1.196"/><path style="fill:none;stroke-width:.3985;stroke-linecap:butt;stroke-linejoin:miter;stroke:#000;stroke-opacity:1;stroke-miterlimit:10" d="M-19.845-24.361v3.984" transform="matrix(1 0 0 -1 94.161 33.076)"/><path style="stroke:none;fill-rule:nonzero;fill:#000;fill-opacity:1" d="m74.316 59.43 1.594-3.188-1.594 1.196-1.593-1.196"/><path style="fill:none;stroke-width:.3985;stroke-linecap:butt;stroke-linejoin:miter;stroke:#000;stroke-opacity:1;stroke-miterlimit:10" d="M-14.173-24.361v3.984" transform="matrix(1 0 0 -1 94.161 33.076)"/><path style="stroke:none;fill-rule:nonzero;fill:#000;fill-opacity:1" d="m79.988 59.43 1.594-3.188-1.594 1.196-1.593-1.196"/><path style="fill:none;stroke-width:.3985;stroke-linecap:butt;stroke-linejoin:miter;stroke:#000;stroke-opacity:1;stroke-miterlimit:10" d="M-8.505-24.361v3.984" transform="matrix(1 0 0 -1 94.161 33.076)"/><path style="stroke:none;fill-rule:nonzero;fill:#000;fill-opacity:1" d="m85.656 59.43 1.594-3.188-1.594 1.196-1.594-1.196"/><path style="fill:none;stroke-width:.3985;stroke-linecap:butt;stroke-linejoin:miter;stroke:#000;stroke-opacity:1;stroke-miterlimit:10" d="M-2.837-24.361v3.984" transform="matrix(1 0 0 -1 94.161 33.076)"/><path style="stroke:none;fill-rule:nonzero;fill:#000;fill-opacity:1" d="m91.324 59.43 1.598-3.188-1.598 1.196-1.594-1.196"/><path style="fill:none;stroke-width:.3985;stroke-linecap:butt;stroke-linejoin:miter;stroke:#000;stroke-opacity:1;stroke-miterlimit:10" d="M2.835-24.361v3.984" transform="matrix(1 0 0 -1 94.161 33.076)"/><path style="stroke:none;fill-rule:nonzero;fill:#000;fill-opacity:1" d="m96.996 59.43 1.594-3.188-1.594 1.196-1.594-1.196"/><path style="fill:none;stroke-width:.3985;stroke-linecap:butt;stroke-linejoin:miter;stroke:#000;stroke-opacity:1;stroke-miterlimit:10" d="M8.503-24.361v3.984" transform="matrix(1 0 0 -1 94.161 33.076)"/><path style="stroke:none;fill-rule:nonzero;fill:#000;fill-opacity:1" d="m102.664 59.43 1.594-3.188-1.594 1.196-1.594-1.196"/><path style="fill:none;stroke-width:.3985;stroke-linecap:butt;stroke-linejoin:miter;stroke:#000;stroke-opacity:1;stroke-miterlimit:10" d="M14.175-24.361v3.984" transform="matrix(1 0 0 -1 94.161 33.076)"/><path style="stroke:none;fill-rule:nonzero;fill:#000;fill-opacity:1" d="m108.336 59.43 1.594-3.188-1.594 1.196-1.594-1.196"/><path style="fill:none;stroke-width:.3985;stroke-linecap:butt;stroke-linejoin:miter;stroke:#000;stroke-opacity:1;stroke-miterlimit:10" d="M19.843-24.361v3.984" transform="matrix(1 0 0 -1 94.161 33.076)"/><path style="stroke:none;fill-rule:nonzero;fill:#000;fill-opacity:1" d="m114.004 59.43 1.594-3.188-1.594 1.196-1.594-1.196"/><path style="fill:none;stroke-width:.3985;stroke-linecap:butt;stroke-linejoin:miter;stroke:#000;stroke-opacity:1;stroke-miterlimit:10" d="M25.515-24.361v3.984" transform="matrix(1 0 0 -1 94.161 33.076)"/><path style="stroke:none;fill-rule:nonzero;fill:#000;fill-opacity:1" d="m119.676 59.43 1.594-3.188-1.594 1.196-1.594-1.196"/><path style="fill:none;stroke-width:.3985;stroke-linecap:butt;stroke-linejoin:miter;stroke:#000;stroke-opacity:1;stroke-miterlimit:10" d="M-59.68 9.963v9.96h-19.926" transform="matrix(1 0 0 -1 94.161 33.076)"/><path style="fill-rule:nonzero;fill:#fff;fill-opacity:1;stroke-width:.3985;stroke-linecap:butt;stroke-linejoin:miter;stroke:#000;stroke-opacity:1;stroke-miterlimit:10" d="M-71.638 19.924c0 4.402-3.57 7.972-7.968 7.972a7.974 7.974 0 0 1-7.973-7.972 7.972 7.972 0 0 1 15.941 0Zm0 0" transform="matrix(1 0 0 -1 94.161 33.076)"/><use xlink:href="#e" x="12.241" y="26.973" style="fill:#000;fill-opacity:1"/><path style="fill:none;stroke-width:.3985;stroke-linecap:butt;stroke-linejoin:miter;stroke:#000;stroke-opacity:1;stroke-miterlimit:10" d="m-74.43 16.935 1.726-.996M-73.63 19.924h1.992M-74.43 22.916l1.726.996M-76.618 25.103l.996 1.727M-79.606 25.904v1.992M-82.599 25.103l-.996 1.727M-84.786 22.916l-1.723.996M-85.587 19.924h-1.992M-84.786 16.935l-1.723-.996" transform="matrix(1 0 0 -1 94.161 33.076)"/><path style="fill:none;stroke-width:.79701;stroke-linecap:butt;stroke-linejoin:miter;stroke:gray;stroke-opacity:1;stroke-miterlimit:10" d="m-79.606 19.924-2.692 4.66" transform="matrix(1 0 0 -1 94.161 33.076)"/><path style="stroke:none;fill-rule:nonzero;fill:gray;fill-opacity:1" d="m10.566 6.25.278 4.625 1.02-2.383 2.57.309"/><g style="fill:#000;fill-opacity:1"><use xlink:href="#f" x="111.882" y="132.008"/><use xlink:href="#g" x="118.791" y="132.008"/></g><path style="fill:none;stroke-width:.19925;stroke-linecap:butt;stroke-linejoin:miter;stroke:gray;stroke-opacity:1;stroke-miterlimit:10" d="m2.491-86.28 13.239-6.585" transform="matrix(1 0 0 -1 94.161 33.076)"/><g style="fill:#000;fill-opacity:1"><use xlink:href="#h" x="4.981" y="101.432"/><use xlink:href="#i" x="10.099" y="101.432"/><use xlink:href="#j" x="15.217" y="101.432"/><use xlink:href="#k" x="17.776" y="101.432"/><use xlink:href="#l" x="22.894" y="101.432"/></g><path style="fill:none;stroke-width:.19925;stroke-linecap:butt;stroke-linejoin:miter;stroke:gray;stroke-opacity:1;stroke-miterlimit:10" d="M-59.184-82.748-72.657-70.35" transform="matrix(1 0 0 -1 94.161 33.076)"/></svg>