<svg xmlns="http://www.w3.org/2000/svg" xmlns:xlink="http://www.w3.org/1999/xlink" width="346.751" height="259.749" viewBox="0 0 260.063 194.812"><defs><symbol overflow="visible" id="a"><path style="stroke:none" d="M2.172-5.984C.719-5.844.359-4.328.359-2.922c0 .875.047 1.906.672 2.578.313.328.797.547 1.25.547.797 0 1.406-.516 1.688-1.219.234-.609.281-1.265.281-1.906 0-1.281-.297-3.062-1.938-3.062h-.14ZM1.14-2.328c-.016-.078-.016-.156-.016-.235 0-.562 0-1.124.047-1.703.031-.328.062-.718.266-1 .187-.296.515-.5.875-.5.75 0 1.046.735 1.109 1.36.047.437.047.875.047 1.328v.672c0 .969-.078 1.953-.781 2.281a.802.802 0 0 1-.391.094c-.578 0-.953-.531-1.063-1.078-.062-.407-.046-.813-.093-1.22Zm0 0"/></symbol><symbol overflow="visible" id="b"><path style="stroke:none" d="M1.203-.969A.473.473 0 0 0 .797-.5c0 .234.172.484.453.484.234 0 .516-.156.516-.484a.497.497 0 0 0-.485-.484c-.031 0-.047 0-.078.015Zm0 0"/></symbol><symbol overflow="visible" id="c"><path style="stroke:none" d="M.766-1.063a.388.388 0 0 0 .125.016c.25 0 .453-.172.453-.437a.434.434 0 0 0-.422-.438.457.457 0 0 0-.469.453c0 .875.734 1.657 1.688 1.657 1.078 0 2-.875 2-2 0-.97-.657-1.97-1.766-1.97-.422 0-.86.173-1.172.47v-1.766c.25.062.469.11.719.125h.125c.61 0 1.234-.266 1.64-.734.047-.063.094-.11.094-.188v-.016c-.015-.062-.047-.093-.094-.093-.062 0-.14.062-.203.078-.296.14-.765.218-1.125.218-.406 0-.796-.093-1.171-.234a.252.252 0 0 0-.141-.047H1.03a.1.1 0 0 0-.093.094v2.86c0 .078.015.171.125.171.109 0 .203-.203.25-.234.25-.297.64-.469 1.03-.469h.016c.922 0 .985 1.219.985 1.781 0 .579-.11 1.235-.688 1.563a1.14 1.14 0 0 1-.547.14c-.625 0-1.093-.406-1.343-1Zm0 0"/></symbol><symbol overflow="visible" id="d"><path style="stroke:none" d="M.828-5.406v.281c.453 0 .766-.078 1.203-.234v4.64c0 .406-.344.438-.844.438H.891v.265h2.984V-.28h-.406c-.469 0-.75-.031-.75-.438v-5.11c0-.093-.031-.155-.14-.155-.142 0-.25.156-.36.234-.422.266-.906.344-1.39.344Zm0 0"/></symbol><symbol overflow="visible" id="e"><path style="stroke:none" d="M.813-4.781c.14-.532.75-.922 1.296-.922.891 0 1.204.875 1.204 1.562-.094.922-.657 1.547-1.235 2.172-.5.532-1 1.094-1.515 1.625-.063.063-.11.125-.11.235v.093h3.438l.25-1.578h-.25c-.063.375-.047.797-.391.844-.078.016-.156.016-.234.016h-.22c-.265.015-.515.015-.78.015H1.234A39.486 39.486 0 0 1 2.938-2.28c.562-.485 1.171-1.063 1.203-1.86v-.078c0-1.125-.954-1.765-1.97-1.765-.874 0-1.718.687-1.718 1.625 0 .296.203.5.484.5.25 0 .454-.204.454-.47a.46.46 0 0 0-.47-.468c-.03 0-.062 0-.109.016Zm0 0"/></symbol><symbol overflow="visible" id="f"><path style="stroke:none" d="M1.016-5.203c.265-.344.734-.563 1.203-.563.5 0 .906.313.906 1.032 0 .562-.234 1.25-.781 1.421-.328.11-.813-.03-.813.188 0 .063.047.11.11.11h.468c.813 0 1.188.578 1.188 1.5 0 .624-.25 1.452-1.078 1.452-.547 0-1.125-.234-1.422-.703h.078a.477.477 0 0 0 .484-.484.468.468 0 0 0-.484-.484c-.344 0-.484.265-.484.515C.39-.266 1.437.188 2.25.188c.938 0 1.969-.641 1.969-1.704 0-.625-.375-1.171-.969-1.468-.156-.079-.328-.157-.516-.172.11-.094.313-.14.454-.235.468-.296.78-.796.78-1.39v-.078c-.093-.766-1.015-1.125-1.718-1.125-.719 0-1.61.406-1.61 1.218 0 .297.204.454.454.454a.44.44 0 0 0 .453-.438.453.453 0 0 0-.453-.453h-.078Zm0 0"/></symbol><symbol overflow="visible" id="F"><path style="stroke:none" d="M.344-6.14v.28h.344c.296 0 .562.048.562.391v4.782c0 .39-.313.406-.656.406h-.25v.265h4.765l.25-2.312h-.25C5.016-1.5 4.938-.625 3.83-.344c-.25.063-.5.063-.767.063h-.671c-.204 0-.329-.094-.329-.313v-4.843c0-.329.188-.375.376-.391.25-.031.515-.031.765-.031v-.282Zm0 0"/></symbol><symbol overflow="visible" id="G"><path style="stroke:none" d="M.36-3.86v.266H.5c.297 0 .516.047.516.453v2.485c0 .36-.25.375-.688.375v.265h1.938V-.28h-.141c-.234 0-.469-.031-.469-.313v-3.375Zm.765-2.156c-.234.047-.422.235-.422.485s.219.468.485.468h.062a.474.474 0 0 0 .422-.468.477.477 0 0 0-.484-.485Zm0 0"/></symbol><symbol overflow="visible" id="H"><path style="stroke:none" d="M3.484-.531v1.625c0 .328-.187.36-.687.36v.28l.64-.03h1.407v-.25h-.188c-.281 0-.5-.032-.5-.376v-5.047l-.218.016-.11.203-.234.578c-.094-.11-.156-.234-.235-.328a1.316 1.316 0 0 0-1.03-.469c-1.079 0-2.017.906-2.017 2.016 0 1.047.813 2.047 1.954 2.047.453 0 .984-.235 1.218-.625ZM1.078-1.797v-.11c0-.734.39-1.765 1.297-1.812h.031c.578 0 1.016.563 1.11 1.094v1.406c0 .735-.922 1.078-1.204 1.078h-.046C1.609-.188 1.25-.859 1.14-1.42c-.032-.126-.032-.25-.063-.376Zm0 0"/></symbol><symbol overflow="visible" id="I"><path style="stroke:none" d="M3.469-2.36H.656c-.078 0-.14.032-.14.11 0 .094.078.11.14.11H3.47V.671c0 .078.031.14.11.156.077 0 .108-.078.108-.14v-2.829h2.829c.062 0 .125-.03.125-.109 0-.078-.079-.11-.141-.11H3.687v-2.812c0-.062-.015-.14-.093-.14-.094 0-.125.062-.125.14Zm0 0"/></symbol><symbol overflow="visible" id="J"><path style="stroke:none" d="M5.484-.578c.11.234.438.562.563.562.078 0 .094-.078.094-.14v-1.516c0-.047-.016-.11-.016-.172 0-.328.266-.343.594-.343h.047v-.282l-.641.031H4.172v.25c.156 0 .312-.015.469-.015.375 0 .703.062.703.453 0 .078-.016.156-.016.219 0 .093.016.187.016.297 0 .515-.36 1.14-1.485 1.14-.843 0-1.64-.469-2.046-1.218-.297-.547-.391-1.188-.391-1.797 0-.625.11-1.282.437-1.829.407-.656 1.157-1.109 1.938-1.109 1.094 0 1.828.953 2.031 2.016.016.11.016.265.156.265.125 0 .157-.062.157-.14v-2.219c0-.094 0-.203-.11-.203-.156 0-.406.531-.61.781-.359-.531-1.124-.781-1.75-.781-1.718 0-3.155 1.516-3.155 3.25C.516-1.422 1.796.187 3.75.187c.688 0 1.281-.187 1.734-.765Zm0 0"/></symbol><symbol overflow="visible" id="K"><path style="stroke:none" d="M1.094-3.484c.25-.22.61-.313.937-.313.313 0 .594.172.781.438.172.25.172.53.172.828v.156c-.734.078-1.468.078-2.093.547-.297.219-.516.578-.516.937 0 .735.875.985 1.469.985.547 0 .968-.281 1.218-.75.079.375.297.703.704.703.546 0 .78-.453.78-.953v-.406h-.25v.453c0 .25-.046.593-.327.593-.297 0-.313-.39-.313-.593v-1.75c0-.938-.812-1.407-1.61-1.407-.562 0-1.39.235-1.39.938 0 .25.14.437.469.437.219-.015.36-.218.36-.421 0-.25-.188-.376-.391-.422Zm1.89 1.328v.875c0 .625-.437 1.14-1.062 1.14h-.063c-.421-.03-.75-.359-.75-.75 0-.859 1.032-1.265 1.875-1.265Zm0 0"/></symbol><symbol overflow="visible" id="L"><path style="stroke:none" d="M.484-3.86.391-2.39h.25c.015-.313.03-.688.234-.938.219-.281.625-.313 1-.313h1c-.281.329-.531.688-.781 1.016A110.04 110.04 0 0 0 .359-.344C.313-.28.266-.219.266-.14c0 .11.078.125.156.125h3.125l.156-1.703h-.25c-.031.375-.062.813-.281 1.094-.25.344-.703.36-1.094.36h-1a163.476 163.476 0 0 0 2.484-3.266c.047-.063.11-.125.11-.203 0-.094-.063-.125-.14-.125Zm0 0"/></symbol><symbol overflow="visible" id="Q"><path style="stroke:none" d="M1.031-2.063h2.657c.109 0 .156-.046.156-.156 0-1.125-.703-1.797-1.64-1.797-1.095 0-1.954.954-1.954 2.047C.25-.875 1.125.094 2.344.094c.64 0 1.281-.453 1.469-1.078.015-.016.015-.063.015-.094a.107.107 0 0 0-.11-.11c-.171 0-.171.266-.265.391-.219.375-.656.64-1.094.64h-.062C1.828-.171 1.422-.5 1.219-.921c-.172-.36-.188-.75-.188-1.14Zm.016-.218c0-.594.25-1.281.906-1.485a.914.914 0 0 1 .203-.03c.781 0 1.063.796 1.063 1.515Zm0 0"/></symbol><symbol overflow="visible" id="R"><path style="stroke:none" d="M1.36-5.531c0 .656-.298 1.718-1.188 1.718v.22h.781v2.374c0 .282.016.547.156.782.22.39.672.53 1.079.53h.078c.687-.124.796-.859.796-1.39v-.328h-.25c0 .125.016.25.016.39 0 .391-.094 1.079-.625 1.079-.484 0-.594-.563-.594-1.016v-2.422h1.313v-.265H1.609v-1.672Zm0 0"/></symbol><symbol overflow="visible" id="S"><path style="stroke:none" d="M5.422-5.547c-.25-.422-.984-.75-1.578-.781H3.75C1.969-6.328.516-4.86.516-3.078v.156c.109 1.75 1.5 3.11 3.203 3.11 1.234 0 2.422-.985 2.422-2.282v-.078c-.016-.062-.079-.094-.141-.094-.078 0-.11.063-.11.141v.063c-.093.921-.75 1.968-2.062 1.968-.703 0-1.406-.36-1.844-.922-.437-.578-.562-1.421-.562-2.109 0-.89.234-1.766.906-2.375.39-.344.938-.547 1.469-.547 1.156 0 1.86 1 2.031 2 .016.125 0 .281.156.281.125 0 .157-.062.157-.14v-2.219c0-.094 0-.203-.11-.203-.156 0-.406.531-.61.781Zm0 0"/></symbol><symbol overflow="visible" id="T"><path style="stroke:none" d="M.375-6.14v.28h.328c.313 0 .578.048.578.391v4.782c0 .39-.328.406-.656.406h-.25v.265h3.39c.485 0 .907-.046 1.344-.265.5-.266.907-.781.907-1.375 0-.953-.97-1.438-1.782-1.547.157-.047.329-.094.47-.14.53-.22 1.046-.657 1.046-1.298 0-.578-.469-1.046-.969-1.265-.437-.203-.906-.235-1.375-.235Zm1.656 3.062H3.25c.14 0 .281-.016.422-.016.89 0 1.453.656 1.453 1.422 0 .875-.734 1.39-1.578 1.39H2.375c-.234 0-.344-.109-.344-.343Zm0-.235V-5.53c0-.235.11-.328.344-.328h1.156c.625 0 1.36.28 1.36 1.25 0 .812-.782 1.312-1.5 1.312-.11 0-.22-.015-.329-.015Zm0 0"/></symbol><symbol overflow="visible" id="U"><path style="stroke:none" d="M.313-.281v.265L.859-.03h1.36v-.25c-.25 0-.64-.125-.64-.453 0-.125.046-.235.093-.344.156-.422.281-.984.437-.984H4.25c.156 0 .266.5.36.75.077.234.265.593.265.75 0 .28-.5.28-.734.28v.266h2.453V-.28h-.25c-.203 0-.422-.031-.516-.125-.125-.125-.156-.297-.219-.438-.64-1.734-1.234-3.484-1.875-5.218l-.078-.188c-.031-.094-.062-.188-.219-.188-.187 0-.218.22-.265.36C2.625-4.547 2.078-3 1.516-1.484l-.157.453c-.187.562-.562.75-1.046.75Zm1.812-2.063L3.188-5.28 4.25-2.344Zm0 0"/></symbol><symbol overflow="visible" id="V"><path style="stroke:none" d="M.39-6.14v.28h.313c.313 0 .61.032.61.376 0 .062-.016.125-.016.171v4.375c0 .594-.516.657-.906.657v.265H2.5V-.28c-.422 0-.938-.078-.938-.672 0-.094.016-.172.016-.25l.016-4.578c.047.187.125.375.203.547.531 1.28 1.031 2.593 1.547 3.89L3.75-.312c.047.109.078.296.234.296.157 0 .188-.203.235-.312.64-1.64 1.297-3.297 1.953-4.922.078-.188.172-.39.234-.594v5.14c0 .376-.281.423-.562.423H5.5v.265h2.547V-.28h-.344c-.281 0-.562-.031-.562-.406V-5.47c0-.343.296-.39.593-.39h.313v-.282H6.5l-.172.032-.094.14L4.22-.89c-.063-.14-.11-.296-.172-.453l-.375-.937c-.453-1.14-.906-2.297-1.36-3.438l-.093-.234c-.078-.14-.125-.188-.281-.188Zm0 0"/></symbol><symbol overflow="visible" id="W"><path style="stroke:none" d="M2.906-6.734c-.125.046-.281.218-.39.328C1.39-5.313.906-3.796.906-2.25c0 1.656.563 3.344 1.906 4.422.047.031.094.078.141.078.063 0 .11-.047.11-.11 0-.109-.25-.296-.344-.39-.953-1.11-1.25-2.578-1.25-4.016 0-1.5.343-3.078 1.453-4.187.047-.047.14-.11.14-.188 0-.046-.046-.093-.109-.093h-.047Zm0 0"/></symbol><symbol overflow="visible" id="X"><path style="stroke:none" d="M.266-6.14v.28h.156c.281 0 .531.032.531.47v4.515c0 .063.016.125.016.203 0 .375-.266.39-.64.39H.265v.266L.89-.03h1.375v-.25H2.03c-.265 0-.469-.047-.469-.422V-1.5c0-.125.11-.172.188-.25.14-.11.266-.234.406-.328.25.437.64.844.938 1.281.047.094.14.219.14.328 0 .14-.171.188-.312.188v.265h1.781V-.28c-.297 0-.5-.063-.719-.313-.14-.156-.25-.328-.375-.484-.328-.469-.687-.922-1.015-1.39.062-.032.11-.079.156-.126L3-2.797c.422-.344.906-.797 1.5-.797v-.265H2.86v.265c.093.031.218.063.218.219 0 .25-.328.453-.515.61l-.61.515c-.125.094-.25.188-.36.297v-4.281Zm0 0"/></symbol><symbol overflow="visible" id="Y"><path style="stroke:none" d="M1.61-6.11v.25h.5c.343 0 .687.032.687.391v3.532c0 .14.015.296.015.453 0 .53-.171 1.453-.984 1.453-.39 0-.75-.203-.969-.516.016 0 .032.016.063.016a.487.487 0 0 0 .484-.485c0-.296-.203-.5-.484-.5-.266 0-.485.172-.485.516 0 .766.797 1.188 1.454 1.188.765 0 1.53-.47 1.671-1.266.016-.125.016-.25.016-.36v-4.078c0-.328.266-.343.625-.343h.063v-.282l-.672.032Zm0 0"/></symbol><symbol overflow="visible" id="Z"><path style="stroke:none" d="M3.953-6.734c-.11.046-.172.296-.219.437C2.688-3.53 1.594-.797.563 1.97a.252.252 0 0 0-.047.14c0 .063.046.11.109.11h.016c.062 0 .078-.063.109-.11l.14-.343c1.016-2.72 2.094-5.407 3.094-8.11.047-.093.11-.218.11-.281-.016-.063-.063-.11-.125-.11Zm0 0"/></symbol><symbol overflow="visible" id="aa"><path style="stroke:none" d="M.969-1.734A1.162 1.162 0 0 0 .688-1c0 .297.125.625.39.797-.422.172-.812.422-.812.89 0 .907 1.406 1.157 2.046 1.157.766 0 2.032-.282 2.032-1.188 0-1.062-1.11-1.281-2.016-1.281H1.5a.575.575 0 0 1-.5-.578c0-.125.063-.375.14-.375h.016c.125.031.25.125.375.156.157.063.344.078.516.078.719 0 1.5-.5 1.5-1.281 0-.313-.125-.672-.375-.875v-.016c.297-.203.547-.328.875-.328-.063.063-.125.125-.125.235 0 .14.125.265.281.265.188 0 .266-.14.266-.265 0-.297-.25-.454-.485-.454h-.078a1.483 1.483 0 0 0-.781.313c-.016.031-.063.078-.11.078-.062 0-.265-.14-.39-.187a1.316 1.316 0 0 0-.547-.11c-.734 0-1.531.5-1.531 1.328 0 .329.156.688.422.907ZM.766.734V.672c0-.469.468-.735.89-.735.078 0 .188.016.266.016h.469c.53 0 1.359.031 1.453.688v.062c0 .781-1.313.89-1.563.89C1.72 1.594.86 1.36.766.735ZM1.25-2.5v-.094c0-.484.11-1.125.797-1.125.547 0 .812.469.812 1.11 0 .515-.234 1.015-.812 1.015a.785.785 0 0 1-.61-.265c-.14-.188-.156-.407-.187-.641Zm0 0"/></symbol><symbol overflow="visible" id="ab"><path style="stroke:none" d="M.578-6.734c-.047.03-.062.062-.062.093 0 .11.218.266.296.36C1.797-5.188 2.11-3.656 2.11-2.22 2.11-.75 1.766.86.672 1.953c-.047.047-.156.11-.156.188 0 .046.062.109.125.109.109-.031.296-.219.421-.328 1.11-1.047 1.61-2.61 1.61-4.125 0-1.64-.531-3.406-1.906-4.453-.047-.032-.094-.078-.141-.078H.578Zm0 0"/></symbol><symbol overflow="visible" id="ad"><path style="stroke:none" d="M.266-6.14v.28h.14c.297 0 .547.032.547.454v5.39l.25-.015.344-.531c.312.453.75.656 1.234.656 1.125 0 2.031-.953 2.031-2.047 0-.953-.765-2.016-1.937-2.016-.484 0-.89.172-1.281.563v-2.828Zm3.75 4.406c-.032.421-.079.796-.344 1.109a1.252 1.252 0 0 1-.969.484c-.375 0-.75-.218-.953-.546a.457.457 0 0 1-.125-.297v-2c.063-.391.703-.75 1.172-.75 1.047 0 1.234 1.14 1.234 1.812 0 .063 0 .125-.015.188Zm0 0"/></symbol><symbol overflow="visible" id="ae"><path style="stroke:none" d="M.266-3.86v.266h.14c.281 0 .547.031.547.453v2.485c0 .36-.234.375-.687.375v.265L.89-.03h1.562v-.25h-.297c-.312 0-.562-.047-.562-.375v-1.516c.062-.625.234-1.562 1.14-1.562-.125.062-.171.203-.171.328a.39.39 0 1 0 .78 0c0-.375-.359-.563-.687-.563-.547 0-.984.469-1.11.969v-.969Zm0 0"/></symbol><symbol overflow="visible" id="g"><path style="stroke:none" d="M2.719-5.734c0-.22 0-.235-.219-.235-.563.563-1.39.563-1.672.563v.281c.172 0 .719 0 1.203-.234v4.64c0 .328-.015.438-.86.438h-.28V0c.312-.031 1.125-.031 1.484-.031.375 0 1.172 0 1.5.031v-.281h-.281c-.844 0-.875-.11-.875-.438Zm0 0"/></symbol><symbol overflow="visible" id="h"><path style="stroke:none" d="M4.25-2.875c0-.594-.031-1.375-.344-2.047-.406-.844-1.078-1.047-1.594-1.047-.546 0-1.234.203-1.624 1.078-.282.61-.329 1.344-.329 2.016 0 .594.016 1.453.407 2.172.421.75 1.125.906 1.53.906.579 0 1.25-.25 1.626-1.078.265-.61.328-1.281.328-2ZM2.312-.031c-.28 0-.921-.125-1.093-1.14-.094-.516-.094-1.298-.094-1.813 0-.61 0-1.313.11-1.813.187-.797.75-.953 1.062-.953.344 0 .906.188 1.078 1.016.094.484.094 1.187.094 1.75 0 .562 0 1.312-.094 1.843C3.187-.109 2.531-.03 2.312-.03Zm0 0"/></symbol><symbol overflow="visible" id="N"><path style="stroke:none" d="M6.344-2.969c.125 0 .297 0 .297-.187 0-.203-.188-.203-.329-.203H.845c-.14 0-.328 0-.328.203 0 .187.171.187.296.187ZM6.312-1.14c.141 0 .329 0 .329-.203 0-.187-.172-.187-.297-.187H.812c-.125 0-.296 0-.296.187 0 .203.187.203.328.203Zm0 0"/></symbol><symbol overflow="visible" id="i"><path style="stroke:none" d="M3.297-1.906c0-.438 0-2.078-1.469-2.078S.36-2.344.36-1.906c0 .422 0 2.031 1.47 2.031 1.468 0 1.468-1.61 1.468-2.031ZM1.828-.063a.84.84 0 0 1-.812-.625C.922-1.03.922-1.609.922-1.984c0-.407 0-.86.094-1.188.14-.531.593-.61.812-.61.266 0 .672.126.797.579.094.312.094.75.094 1.219 0 .375 0 .984-.094 1.312a.825.825 0 0 1-.797.61Zm0 0"/></symbol><symbol overflow="visible" id="j"><path style="stroke:none" d="M2.14-3.797c0-.187-.015-.187-.203-.187-.39.39-1 .39-1.218.39v.235c.156 0 .562 0 .922-.172v3.015c0 .204 0 .282-.625.282h-.25V0c.328-.031.796-.031 1.125-.031.328 0 .796 0 1.125.031v-.234h-.25c-.625 0-.625-.078-.625-.282Zm0 0"/></symbol><symbol overflow="visible" id="k"><path style="stroke:none" d="M3.219-1.125H3c-.016.094-.078.484-.156.547-.047.047-.531.047-.625.047h-1.11l.766-.625c.203-.172.734-.547.922-.735.172-.171.422-.484.422-.906 0-.75-.672-1.187-1.485-1.187-.765 0-1.296.515-1.296 1.078 0 .297.25.344.312.344a.32.32 0 0 0 .328-.329c0-.125-.078-.328-.344-.328.141-.297.5-.531.922-.531.625 0 .953.469.953.953 0 .422-.28.86-.687 1.25L.5-.25C.437-.187.437-.187.437 0h2.594Zm0 0"/></symbol><symbol overflow="visible" id="l"><path style="stroke:none" d="M2.578-5.922c.031-.125.031-.14.031-.172 0-.078-.046-.125-.14-.125-.125 0-.906.063-1.094.078-.078.016-.188.032-.188.172 0 .125.11.125.25.125.422 0 .422.063.422.14 0 .032 0 .048-.046.22L.53-.328C.5-.203.5-.188.5-.156c0 .14.11.25.266.25a.371.371 0 0 0 .343-.203c.016-.047.094-.375.141-.563l.219-.797c.015-.14.11-.484.14-.61l.11-.39c.047-.219.547-1.265 1.515-1.265.485 0 .485.468.485.625 0 .546-.422 1.64-.516 1.921-.11.266-.14.36-.14.532 0 .484.359.75.765.75.86 0 1.219-1.282 1.219-1.375 0-.047-.031-.11-.125-.11s-.11.047-.14.157c-.22.765-.61 1.109-.923 1.109-.062 0-.234 0-.234-.281 0-.235.094-.469.172-.656.172-.47.531-1.407.531-1.922 0-.797-.594-.985-1.062-.985-.547 0-1 .25-1.36.688Zm0 0"/></symbol><symbol overflow="visible" id="M"><path style="stroke:none" d="M4.406-3.625a.504.504 0 0 0-.422.484c0 .172.125.329.344.329.25 0 .5-.22.5-.532 0-.422-.453-.625-.875-.625-.531 0-.844.485-.953.672a1.042 1.042 0 0 0-1-.672c-.953 0-1.484 1.156-1.484 1.39 0 .079.062.11.125.11.078 0 .109-.047.125-.11.28-.89.875-1.155 1.218-1.155.266 0 .485.171.485.593 0 .313-.375 1.75-.5 2.188-.063.265-.344.828-.828.828-.188 0-.375-.063-.454-.11.235-.046.422-.265.422-.484 0-.234-.171-.328-.343-.328-.266 0-.5.219-.5.531 0 .438.484.61.859.61.531 0 .828-.422.969-.672.219.594.75.672.984.672.969 0 1.485-1.157 1.485-1.375 0-.047-.032-.11-.11-.11-.11 0-.11.032-.156.172-.203.64-.719 1.094-1.188 1.094-.25 0-.5-.156-.5-.594 0-.203.125-.687.204-1.031.046-.156.28-1.125.296-1.188.11-.328.375-.796.844-.796.156 0 .328.015.453.109Zm0 0"/></symbol><symbol overflow="visible" id="ac"><path style="stroke:none" d="M.406 1.125c-.062.25-.078.344-.453.344-.11 0-.219 0-.219.156 0 .031.032.11.125.11l.375-.016H1.078c.156 0 .297.015.438.015.046 0 .171 0 .171-.156 0-.11-.093-.11-.25-.11-.421 0-.421-.062-.421-.155a2.9 2.9 0 0 1 .109-.438l.328-1.328c.094.187.344.547.86.547C3.359.094 4.5-1.172 4.5-2.516c0-.906-.563-1.453-1.234-1.453-.188 0-.641.047-1.188.656-.125-.5-.547-.656-.844-.656-.375 0-.578.281-.703.531-.14.313-.265.813-.265.86 0 .078.062.11.125.11.093 0 .109-.048.156-.235.172-.703.36-1.031.656-1.031.281 0 .281.28.281.421 0 .063-.015.204-.03.266Zm1.625-3.89c.047-.172.047-.188.172-.329.235-.312.64-.64 1.047-.64.422 0 .594.421.594.843 0 .391-.25 1.516-.531 1.985-.313.515-.688.781-1.016.781-.578 0-.735-.703-.735-.766 0-.062.032-.109.032-.156Zm0 0"/></symbol><symbol overflow="visible" id="m"><path style="stroke:none" d="M.766-1.063c-.032.016-.391.344-.438.391-.125.094-.125.094-.125.14 0 .016.047.11.11.11.03 0 .046 0 .124-.078l.36-.313c.078.36.281.891.828.891.516 0 1.063-.515 1.063-.515.015-.016.03-.016.03-.063s-.062-.125-.109-.125c-.03 0-.046.016-.093.063-.297.234-.594.437-.875.437-.454 0-.454-.734-.454-.844 0-.172 0-.187.063-.25.36-.312.703-.672.984-1.078.5-.672.547-1.187.547-1.375 0-.219-.078-.547-.422-.547-.765 0-1.593 1.813-1.593 2.969v.188Zm.468-.437c.032-.172.235-1.172.516-1.797.094-.187.328-.719.61-.719.187 0 .203.204.203.329 0 .703-.626 1.546-1.329 2.187Zm0 0"/></symbol><symbol overflow="visible" id="n"><path style="stroke:none" d="M.422-4.094v.235h.234c.219 0 .406.03.406.234v2.969c0 .39-.39.406-.64.406V0l.36-.031h1.155V-.25c-.265 0-.64-.016-.64-.422v-.14l.016-3c.03.109.093.218.14.328.375.875.781 1.734 1.156 2.609l.313.672c.031.078.062.203.187.203.11-.016.141-.125.188-.219.5-1.11.969-2.203 1.484-3.312.047-.11.11-.219.14-.328v3.234c0 .047.016.094.016.14 0 .22-.203.25-.406.25-.078 0-.172-.015-.234-.015V0h1.156l.406-.031.235.031v-.25c-.078 0-.157.016-.235.016-.203 0-.406-.032-.406-.235V-3.609c0-.22.203-.25.406-.25h.235v-.235h-1.11c-.109 0-.171.032-.218.14l-.063.142c-.453.984-.89 1.968-1.312 2.937-.047.11-.11.203-.125.297-.5-1.063-.954-2.156-1.438-3.219l-.078-.156c-.047-.11-.11-.14-.219-.14Zm0 0"/></symbol><symbol overflow="visible" id="o"><path style="stroke:none" d="M.875-.14C.609-.079.281.14.281.452c0 .625 1.11.766 1.578.766.313 0 .625-.047.922-.157.25-.093.563-.265.594-.578V.438c0-.766-.906-.875-1.484-.875H1.25a.405.405 0 0 1-.375-.391c0-.063.031-.203.078-.203H.97c.047 0 .14.062.203.078.156.062.328.078.484.078.485 0 1.047-.297 1.094-.828v-.047c0-.234-.094-.375-.25-.578.219-.094.375-.172.61-.172a.177.177 0 0 0-.047.125c0 .125.109.188.203.188.125 0 .203-.079.203-.188v-.016c0-.171-.156-.296-.328-.312h-.047c-.235 0-.453.078-.656.203-.016.016-.047.047-.079.047h-.015c-.031 0-.094-.047-.125-.063a1.246 1.246 0 0 0-.578-.125c-.485 0-1.125.282-1.125.875 0 .204.078.391.203.532.015.03.062.046.062.078 0 .062-.094.172-.125.265-.015.079-.031.141-.031.22 0 .202.094.39.25.53ZM.672.483V.438c0-.36.437-.438.672-.438h.547c.39 0 1.03.016 1.078.422v.031c0 .5-1.031.563-1.156.563C1.405 1.016.718.875.671.484Zm.344-2.156c0-.031-.016-.062-.016-.094 0-.359.219-.671.625-.671.375 0 .625.25.625.687 0 .39-.234.672-.61.672-.359 0-.577-.219-.624-.594Zm0 0"/></symbol><symbol overflow="visible" id="O"><path style="stroke:none" d="M.328-.25V0l.313-.031h1.078V-.25c-.188 0-.438-.063-.438-.266 0-.062.032-.125.047-.187.078-.172.156-.36.234-.547.016-.047.016-.11.11-.11h1.656c.11 0 .188.329.266.485.047.125.094.234.14.344a.368.368 0 0 1 .032.125v.015c-.032.141-.282.141-.438.141h-.047V0h.672l.11-.031h.578L5.03 0v-.25h-.187c-.344 0-.422-.078-.516-.344-.344-.875-.719-1.734-1.078-2.61l-.328-.812c-.063-.125-.078-.265-.25-.265s-.188.14-.235.25l-.312.797c-.36.828-.703 1.671-1.047 2.5-.156.421-.406.484-.75.484Zm1.375-1.344L2.5-3.516l.797 1.922Zm0 0"/></symbol><symbol overflow="visible" id="P"><path style="stroke:none" d="M.406-4.094v.235h.235c.218 0 .406.03.406.234V-.485c0 .22-.203.25-.39.25-.095 0-.173-.015-.25-.015V0h2.452c.594 0 1.344-.094 1.672-.75a.852.852 0 0 0 .078-.344c0-.64-.718-.984-1.296-1.047.421-.109 1.109-.312 1.109-.921 0-.438-.39-.75-.75-.891-.328-.125-.656-.14-.985-.14ZM1.61-2.03h.907c.109 0 .218-.016.328-.016.531 0 1.125.313 1.125.922 0 .484-.453.797-.906.875H1.859c-.125 0-.25 0-.25-.203Zm0-.203v-1.422c0-.172.094-.203.235-.203h.89c.407 0 .797.093 1 .5a.634.634 0 0 1 .063.296c0 .485-.547.829-1.031.829Zm0 0"/></symbol><symbol overflow="visible" id="s"><path style="stroke:none" d="M.36-3.422v.266h.124c.25 0 .454.047.454.39v2.157c0 .328-.22.343-.61.343v.25L.812-.03h.813l.438.015v-.25h-.11c-.234 0-.437-.015-.437-.296v-2.954l-.282.032Zm.687-1.922a.45.45 0 0 0-.39.438c0 .218.187.437.437.437a.453.453 0 0 0 .453-.453.446.446 0 0 0-.438-.437c-.015 0-.046.015-.062.015Zm0 0"/></symbol><symbol overflow="visible" id="t"><path style="stroke:none" d="M.75-.266c.25.22.563.344.906.344.625 0 1.39-.234 1.39-1.125v-.062c-.03-.485-.421-.829-.858-.97-.454-.14-1.485-.093-1.485-.702 0-.469.61-.578.953-.578.485 0 .875.25.938.812 0 .063 0 .14.11.14.108 0 .14-.077.14-.171v-.86c0-.062-.047-.109-.125-.109-.14 0-.203.188-.297.188h-.016c-.125-.047-.234-.125-.375-.157-.125-.015-.234-.03-.36-.03-.577 0-1.39.155-1.39 1v.062c.016.28.203.484.422.656.625.406 1.828.14 1.922.953 0 .563-.5.719-.938.719-.609 0-1.03-.422-1.125-.969-.03-.094-.03-.203-.156-.203-.125 0-.125.078-.125.156v.969c0 .031-.015.078-.015.11 0 .077.03.171.109.171.078 0 .156-.094.188-.14L.609-.11C.656-.172.703-.22.75-.266Zm0 0"/></symbol><symbol overflow="visible" id="u"><path style="stroke:none" d="M1.984-3.547c-.906.094-1.75.75-1.75 1.875 0 1.078.985 1.75 1.907 1.75C3.062.078 4-.64 4-1.688c0-1.03-.86-1.859-1.906-1.859Zm-1.046 2v-.203c0-.422.03-.969.375-1.281.218-.203.515-.297.812-.297.813 0 1.156.672 1.156 1.5 0 .437-.015.922-.312 1.281-.219.25-.531.375-.86.375-.593 0-1.046-.422-1.14-1.047-.016-.11-.016-.218-.031-.328Zm0 0"/></symbol><symbol overflow="visible" id="v"><path style="stroke:none" d="M1.234-4.906c0 .562-.265 1.515-1.078 1.515v.22h.719v2.062c0 .25.016.5.14.734.204.313.594.453.954.453.672 0 .843-.719.843-1.234v-.297h-.25c0 .11.016.219.016.344 0 .343-.094.937-.562.937-.438 0-.532-.469-.532-.86v-2.14h1.188v-.265H1.484v-1.47Zm0 0"/></symbol><symbol overflow="visible" id="w"><path style="stroke:none" d="M.313-5.453v.266h.156c.25 0 .453.03.453.39V-.78c0 .047.015.11.015.172 0 .328-.25.343-.578.343H.313v.25l.5-.015h.828l.5.015v-.25h-.172c-.235 0-.438-.03-.438-.328v-1.469c0-.593.39-1.234 1.157-1.234.453 0 .578.406.578.875v1.844c0 .281-.22.312-.438.312h-.172v.25l.5-.015H4l.484.015v-.25h-.156c-.219 0-.453-.03-.453-.312v-1.719c0-.25 0-.5-.11-.719-.187-.375-.609-.5-1-.5-.468 0-1.046.235-1.25.704v-2.72Zm0 0"/></symbol><symbol overflow="visible" id="x"><path style="stroke:none" d="M.938-1.828h2.437c.094 0 .14-.047.14-.14 0-.407-.109-.876-.406-1.157-.28-.297-.671-.422-1.078-.422-.937 0-1.797.703-1.797 1.781C.234-.859.954.078 2.11.078c.594 0 1.235-.375 1.391-.969.016-.015.016-.046.016-.062 0-.063-.047-.125-.11-.125-.156 0-.172.25-.25.36a1.175 1.175 0 0 1-.984.53c-.422 0-.828-.218-1.047-.609-.156-.312-.188-.672-.188-1.031Zm.015-.219c.078-.453.156-.937.625-1.172a.867.867 0 0 1 .438-.11c.515 0 .859.423.937 1 .016.095.016.188.031.282Zm0 0"/></symbol><symbol overflow="visible" id="y"><path style="stroke:none" d="M.266-3.422v.266H.39c.25 0 .484.015.484.39v2.157c0 .328-.203.343-.61.343v.25L.75-.03h.906l.563.015v-.25h-.281c-.25 0-.47-.03-.47-.328v-1.328c0-.578.313-1.375 1-1.375A.427.427 0 0 0 2.345-3c0 .219.187.36.36.36.202 0 .358-.172.358-.36 0-.344-.343-.516-.624-.516-.47 0-.938.422-1.016.844l-.016-.844-.39.032Zm0 0"/></symbol><symbol overflow="visible" id="z"><path style="stroke:none" d="M.313-3.422v.266h.156c.234 0 .453.031.453.39v2.157c0 .328-.203.343-.61.343v.25l.5-.015h.829l.5.015v-.25h-.172c-.235 0-.438-.03-.438-.328v-1.469c0-.578.375-1.234 1.157-1.234.453 0 .593.39.593.875v1.844c0 .281-.219.312-.453.312h-.156v.25l.5-.015h.844l.484.015v-.25h-.172c-.25 0-.437-.03-.437-.328v-1.469c0-.578.375-1.234 1.156-1.234.453 0 .578.39.578.875v1.844c0 .281-.219.312-.453.312h-.156v.25l.5-.015h.843l.485.015v-.25h-.14c-.235 0-.47-.03-.47-.312v-1.703c0-.266 0-.531-.125-.766-.187-.344-.609-.469-.984-.469-.484 0-1.078.235-1.266.735h-.015c-.063-.547-.625-.735-1.11-.735-.484 0-1.062.282-1.25.766v-.766l-.296.032Zm0 0"/></symbol><symbol overflow="visible" id="A"><path style="stroke:none" d="M2.5-5.078c0-.219-.016-.219-.234-.219-.329.313-.75.5-1.5.5v.266c.218 0 .64 0 1.109-.203v4.078c0 .297-.031.39-.781.39H.812V0c.329-.031 1.016-.031 1.375-.031.36 0 1.047 0 1.376.031v-.266H3.28c-.75 0-.781-.093-.781-.39Zm0 0"/></symbol><symbol overflow="visible" id="B"><path style="stroke:none" d="M4.031-4.86c.078-.077.078-.093.078-.265H2.08a8.79 8.79 0 0 1-.642-.031c-.421-.032-.421-.11-.453-.235h-.25L.47-3.703h.25c.015-.125.11-.672.219-.735.078-.046.687-.046.796-.046h1.688l-.813 1.109C1.703-2.172 1.5-.906 1.5-.281c0 .078 0 .453.375.453s.375-.36.375-.453v-.39c0-1.141.203-2.079.594-2.61Zm0 0"/></symbol><symbol overflow="visible" id="C"><path style="stroke:none" d="M1.11-4.484c.109.03.421.125.765.125 1 0 1.594-.704 1.594-.829 0-.093-.047-.109-.094-.109-.016 0-.031 0-.094.031a2.982 2.982 0 0 1-1.11.22c-.468 0-.858-.11-1.108-.22-.079-.03-.094-.03-.11-.03-.094 0-.094.077-.094.234v2.328c0 .14 0 .234.125.234.063 0 .079-.031.125-.094.094-.11.391-.515 1.079-.515.437 0 .656.359.734.515.125.281.14.656.14.953 0 .297 0 .735-.218 1.079-.156.25-.485.484-.906.484A1.271 1.271 0 0 1 .734-.922c.016.016.079.016.079.016.218 0 .406-.14.406-.39a.388.388 0 0 0-.39-.407c-.157 0-.407.078-.407.422 0 .718.625 1.453 1.531 1.453 1 0 1.844-.781 1.844-1.766 0-.922-.672-1.75-1.61-1.75-.39 0-.765.125-1.078.406Zm0 0"/></symbol><symbol overflow="visible" id="E"><path style="stroke:none" d="M5.64-5.406c0-.125 0-.203-.109-.203-.062 0-.062 0-.14.109l-.407.594a2.117 2.117 0 0 0-1.578-.703C1.812-5.61.47-4.33.47-2.72S1.797.171 3.422.171C4.75.172 5.64-.89 5.64-1.858c0-.079 0-.157-.141-.157-.078 0-.11.047-.11.125C5.329-.67 4.329-.094 3.485-.094c-.671 0-2.187-.422-2.187-2.625 0-2.156 1.437-2.625 2.187-2.625.75 0 1.672.532 1.891 1.907 0 .062.016.109.125.109.14 0 .14-.047.14-.203Zm0 0"/></symbol><symbol overflow="visible" id="D"><path style="stroke:none" d="M3.266-1.5c0-.75-.61-1.36-1.36-1.36-.734 0-1.343.61-1.343 1.36 0 .766.609 1.36 1.343 1.36.75 0 1.36-.594 1.36-1.36ZM1.906-.453A1.024 1.024 0 0 1 .875-1.5c0-.578.453-1.047 1.031-1.047.578 0 1.047.469 1.047 1.047 0 .594-.469 1.047-1.047 1.047Zm0 0"/></symbol><clipPath id="p"><path d="M41 23h110v154.332H41Zm0 0"/></clipPath><clipPath id="q"><path d="M139 23h55v154.332h-55Zm0 0"/></clipPath><clipPath id="r"><path d="M52 15.938h155v161.394H52Zm0 0"/></clipPath></defs><path style="fill:none;stroke-width:.3985;stroke-linecap:butt;stroke-linejoin:miter;stroke:#bfbfbf;stroke-opacity:1;stroke-miterlimit:10" d="M29.386-.001v161.394M58.83 0v161.394M88.276 0v161.394M117.722 0v161.394M147.162 0v161.394M176.609 0v161.394M-.001-.001h194.277M0 19.097h194.277M0 30.268h194.277M0 38.194h194.277M0 44.343h194.277M0 49.366h194.277M0 53.612h194.277M0 57.292h194.277M0 60.538h194.277M0 63.44h194.277M0 82.538h194.277M0 93.71h194.277M0 101.636h194.277M0 107.784h194.277M0 112.808h194.277M0 117.054h194.277M0 120.734h194.277M0 123.978h194.277M0 126.882h194.277M0 145.979h194.277M0 157.151h194.277M-.001-.001h194.277M0 63.44h194.277M0 126.882h194.277" transform="matrix(1 0 0 -1 22.466 177.331)"/><path style="fill:none;stroke-width:.19925;stroke-linecap:butt;stroke-linejoin:miter;stroke:gray;stroke-opacity:1;stroke-miterlimit:10" d="M29.386-2.122v4.246M58.83-2.122v4.246m29.445-4.246v4.246m29.446-4.246v4.246m29.44-4.246v4.246m29.446-4.246v4.246M-1.42-.001h2.837M-1.42 19.097h2.836M-1.42 30.268h2.836m-2.836 7.926h2.836m-2.836 6.149h2.836m-2.836 5.023h2.836m-2.836 4.246h2.836m-2.836 3.68h2.836m-2.836 3.246h2.836M-1.42 63.44h2.836M-1.42 82.538h2.836M-1.42 93.71h2.836m-2.836 7.926h2.836m-2.836 6.148h2.836m-2.836 5.024h2.836m-2.836 4.246h2.836m-2.836 3.68h2.836m-2.836 3.245h2.836m-2.836 2.903h2.836m-2.836 19.097h2.836m-2.836 11.172h2.836M-2.126-.001h4.254M-2.126 63.44h4.254m-4.254 63.442h4.254" transform="matrix(1 0 0 -1 22.466 177.331)"/><path style="fill:none;stroke-width:.3985;stroke-linecap:butt;stroke-linejoin:miter;stroke:#000;stroke-opacity:1;stroke-miterlimit:10" d="M-.001-.001h192.285" transform="matrix(1 0 0 -1 22.466 177.331)"/><path style="stroke:none;fill-rule:nonzero;fill:#000;fill-opacity:1" d="m216.742 177.332-3.187-1.594 1.195 1.594-1.195 1.594"/><path style="fill:none;stroke-width:.3985;stroke-linecap:butt;stroke-linejoin:miter;stroke:#000;stroke-opacity:1;stroke-miterlimit:10" d="M-.001-.001v159.402" transform="matrix(1 0 0 -1 22.466 177.331)"/><path style="stroke:none;fill-rule:nonzero;fill:#000;fill-opacity:1" d="m22.465 15.938-1.594 3.187 1.594-1.195 1.594 1.195"/><g style="fill:#000;fill-opacity:1"><use xlink:href="#a" x="45.965" y="187.212"/><use xlink:href="#b" x="50.572" y="187.212"/><use xlink:href="#c" x="53.131" y="187.212"/></g><use xlink:href="#d" x="78.993" y="187.212" style="fill:#000;fill-opacity:1"/><g style="fill:#000;fill-opacity:1"><use xlink:href="#d" x="104.854" y="187.212"/><use xlink:href="#b" x="109.461" y="187.212"/><use xlink:href="#c" x="112.02" y="187.212"/></g><use xlink:href="#e" x="137.881" y="187.212" style="fill:#000;fill-opacity:1"/><g style="fill:#000;fill-opacity:1"><use xlink:href="#e" x="163.743" y="187.212"/><use xlink:href="#b" x="168.35" y="187.212"/><use xlink:href="#c" x="170.909" y="187.212"/></g><use xlink:href="#f" x="196.77" y="187.212" style="fill:#000;fill-opacity:1"/><g style="fill:#000;fill-opacity:1"><use xlink:href="#g" x="4.981" y="181.162"/><use xlink:href="#h" x="9.589" y="181.162"/></g><use xlink:href="#i" x="14.197" y="177.353" style="fill:#000;fill-opacity:1"/><g style="fill:#000;fill-opacity:1"><use xlink:href="#g" x="4.981" y="117.722"/><use xlink:href="#h" x="9.589" y="117.722"/></g><use xlink:href="#j" x="14.197" y="113.913" style="fill:#000;fill-opacity:1"/><g style="fill:#000;fill-opacity:1"><use xlink:href="#g" x="4.981" y="54.282"/><use xlink:href="#h" x="9.589" y="54.282"/></g><use xlink:href="#k" x="14.197" y="50.473" style="fill:#000;fill-opacity:1"/><path style="fill:none;stroke-width:.3985;stroke-linecap:butt;stroke-linejoin:miter;stroke:#bfbfbf;stroke-opacity:1;stroke-miterlimit:10" d="M43.67-.001v161.394M132.445 0v161.394M163.241 0v161.394" transform="matrix(1 0 0 -1 22.466 177.331)"/><path style="fill:none;stroke-width:.19925;stroke-linecap:butt;stroke-linejoin:miter;stroke:gray;stroke-opacity:1;stroke-miterlimit:10" d="M43.67-2.122v4.246m88.774-4.246v4.246m30.797-4.246v4.246" transform="matrix(1 0 0 -1 22.466 177.331)"/><use xlink:href="#l" x="61.682" y="187.672" style="fill:#000;fill-opacity:1"/><use xlink:href="#m" x="66.992" y="188.735" style="fill:#000;fill-opacity:1"/><use xlink:href="#l" x="148.744" y="187.672" style="fill:#000;fill-opacity:1"/><use xlink:href="#n" x="154.053" y="188.669" style="fill:#000;fill-opacity:1"/><use xlink:href="#l" x="180.976" y="187.672" style="fill:#000;fill-opacity:1"/><use xlink:href="#o" x="186.285" y="188.669" style="fill:#000;fill-opacity:1"/><g clip-path="url(#p)"><path style="fill:none;stroke-width:.3985;stroke-linecap:butt;stroke-linejoin:miter;stroke:gray;stroke-opacity:1;stroke-dasharray:2.98883,2.98883;stroke-miterlimit:10" d="m24.526-.001 9.024 32.016 4.816 14.41 3.465 9.41 1.84 4.703.93 2.305 2.335 5.578 2.04 4.637 1.816 3.968 1.648 3.47 1.52 3.081 1.406 2.77 1.313 2.515 1.242 2.305 1.168 2.129 1.113 1.972 1.066 1.844 1.02 1.727.976 1.625.942 1.539.914 1.453.883 1.383.855 1.312.828 1.254.809 1.203.781 1.149.774 1.105.746 1.059.73 1.023.719.989.703.949.691.918.672.89.668.864.653.832.648.812.629.79.625.769.617.746.61.726.597.707.598.688.582.676.582.656.57.64.567.63.566.609.55.601.556.586.546.575.543.562.543.55.528.544.539.531.523.52.528.511.52.5.523.493.519.484.512.476.511.465.512.461.516.45.512.445.503.437.508.43.508.426.512.418.508.41.504.41.507.395.512.394 1.023.774.512.375 1.04.742.53.363.524.355 1.07.704.547.343.555.34.558.336.57.332.579.328.59.328.601.32.617.317.63.309.648.308.672.309.687.309.719.296.754.297.8.293.86.29.96.288 1.11.286 1.36.28 1.855.278 6.445.277" transform="matrix(1 0 0 -1 22.466 177.331)"/></g><g clip-path="url(#q)"><path style="fill:none;stroke-width:.3985;stroke-linecap:butt;stroke-linejoin:miter;stroke:gray;stroke-opacity:1;stroke-dasharray:2.98883,2.98883;stroke-miterlimit:10" d="m157.464-.001 3.117 32.016 1.394 14.41.86 9.41.406 4.703.195 2.305.434 5.578.324 4.637.254 3.968.188 3.47.136 3.081.106 2.77.07 2.515.047 2.305.02 2.129v1.972l-.012 1.844-.035 1.727-.043 1.625-.059 1.539-.07 1.453-.082 1.383-.09 1.312-.098 1.254-.113 1.203-.117 1.149-.125 1.105-.13 1.059-.136 1.023-.144.989-.153.949-.156.918-.164.89-.172.864-.168.832-.184.812-.183.79-.188.769-.195.746-.2.726-.206.707-.211.688-.211.676-.219.656-.23.64-.223.63-.234.609-.243.601-.242.586-.246.575-.254.562-.261.55-.262.544-.266.531-.277.52-.277.511-.282.5-.289.493-.297.484-.297.476-.308.465-.313.461-.316.45-.324.445-.328.437-.336.43-.348.426-.348.418-.359.41-.367.41-.375.395-.38.394-.386.387-.402.387-.41.375-.414.37-.43.372-.441.363-.446.355-.469.352-.476.352-.488.343-.504.34-.528.336-.535.332-.558.328-.582.328-.61.32-.629.317-.66.309-.695.308-.734.309-.786.309-.84.296-.906.297-.992.293-1.105.29-1.254.288-1.47.286-1.804.28-2.465.278-8.168.277" transform="matrix(1 0 0 -1 22.466 177.331)"/></g><g clip-path="url(#r)"><path style="fill:none;stroke-width:.99628;stroke-linecap:butt;stroke-linejoin:miter;stroke:#00adef;stroke-opacity:1;stroke-miterlimit:10" d="M43.67 148.604V60.538h119.571c9.965 0 5.89-50.574 5.89-60.539" transform="matrix(1 0 0 -1 22.466 177.331)"/></g><use xlink:href="#s" x="83.109" y="112.099" style="fill:#000;fill-opacity:1"/><use xlink:href="#t" x="85.461" y="112.099" style="fill:#000;fill-opacity:1"/><use xlink:href="#u" x="88.8" y="112.099" style="fill:#000;fill-opacity:1"/><use xlink:href="#v" x="93.033" y="112.099" style="fill:#000;fill-opacity:1"/><use xlink:href="#w" x="96.325" y="112.099" style="fill:#000;fill-opacity:1"/><use xlink:href="#x" x="101.029" y="112.099" style="fill:#000;fill-opacity:1"/><use xlink:href="#y" x="104.792" y="112.099" style="fill:#000;fill-opacity:1"/><use xlink:href="#z" x="108.091" y="112.099" style="fill:#000;fill-opacity:1"/><use xlink:href="#x" x="115.146" y="112.099" style="fill:#000;fill-opacity:1"/><g style="fill:#000;fill-opacity:1"><use xlink:href="#A" x="121.731" y="112.099"/><use xlink:href="#B" x="125.966" y="112.099"/><use xlink:href="#C" x="130.2" y="112.099"/></g><use xlink:href="#D" x="135.845" y="109.286" style="fill:#000;fill-opacity:1"/><use xlink:href="#E" x="140.162" y="112.099" style="fill:#000;fill-opacity:1"/><path style="stroke:none;fill-rule:nonzero;fill:#fff;fill-opacity:1" d="M121.598 84.453h36.273v-7.918h-36.273Zm0 0"/><g style="fill:#000;fill-opacity:1"><use xlink:href="#F" x="121.596" y="82.711"/><use xlink:href="#G" x="127.353" y="82.711"/><use xlink:href="#H" x="129.912" y="82.711"/><use xlink:href="#I" x="134.775" y="82.711"/><use xlink:href="#J" x="141.941" y="82.711"/><use xlink:href="#K" x="149.17" y="82.711"/><use xlink:href="#L" x="153.777" y="82.711"/></g><path style="stroke:none;fill-rule:nonzero;fill:#fff;fill-opacity:1" d="M43.887 84.453h13.18v-7.918h-13.18Zm0 0"/><g style="fill:#000;fill-opacity:1"><use xlink:href="#F" x="43.887" y="82.711"/><use xlink:href="#G" x="49.644" y="82.711"/><use xlink:href="#H" x="52.203" y="82.711"/></g><path style="stroke:none;fill-rule:nonzero;fill:#fff;fill-opacity:1" d="M199.305 83.582h15.933v-6.176h-15.933Zm0 0"/><g style="fill:#000;fill-opacity:1"><use xlink:href="#J" x="199.304" y="83.582"/><use xlink:href="#K" x="206.534" y="83.582"/><use xlink:href="#L" x="211.141" y="83.582"/></g><path style="stroke:none;fill-rule:nonzero;fill:#ffe5bf;fill-opacity:1" d="M69.043 152.434h101.121v-14.762H69.043Zm0 0"/><use xlink:href="#M" x="71.035" y="147.398" style="fill:#000;fill-opacity:1"/><use xlink:href="#o" x="76.258" y="148.394" style="fill:#000;fill-opacity:1"/><use xlink:href="#N" x="82.968" y="147.398" style="fill:#000;fill-opacity:1"/><g style="fill:#000;fill-opacity:1"><use xlink:href="#O" x="93.891" y="143.725"/><use xlink:href="#n" x="99.248" y="143.725"/></g><path style="fill:none;stroke-width:.379;stroke-linecap:butt;stroke-linejoin:miter;stroke:#000;stroke-opacity:1;stroke-miterlimit:10" d="M0 0h11.875" transform="matrix(1 0 0 -1 93.891 145.157)"/><g style="fill:#000;fill-opacity:1"><use xlink:href="#O" x="94.608" y="150.441"/><use xlink:href="#P" x="99.965" y="150.441"/></g><g style="fill:#000;fill-opacity:1"><use xlink:href="#Q" x="116.174" y="147.398"/><use xlink:href="#R" x="120.273" y="147.398"/></g><use xlink:href="#M" x="133.069" y="147.398" style="fill:#000;fill-opacity:1"/><use xlink:href="#m" x="138.292" y="148.461" style="fill:#000;fill-opacity:1"/><use xlink:href="#N" x="144.45" y="147.398" style="fill:#000;fill-opacity:1"/><g style="fill:#000;fill-opacity:1"><use xlink:href="#n" x="155.372" y="143.725"/><use xlink:href="#P" x="161.891" y="143.725"/></g><path style="fill:none;stroke-width:.379;stroke-linecap:butt;stroke-linejoin:miter;stroke:#000;stroke-opacity:1;stroke-miterlimit:10" d="M0 0h11.605" transform="matrix(1 0 0 -1 155.372 145.157)"/><g style="fill:#000;fill-opacity:1"><use xlink:href="#O" x="155.953" y="150.441"/><use xlink:href="#P" x="161.31" y="150.441"/></g><path style="fill-rule:nonzero;fill:#fff;fill-opacity:1;stroke-width:.3985;stroke-linecap:butt;stroke-linejoin:miter;stroke:#000;stroke-opacity:1;stroke-miterlimit:10" d="M125.147 148.686a1.993 1.993 0 1 1-1.992-1.996c1.102 0 1.992.895 1.992 1.996Zm0 0" transform="matrix(1 0 0 -1 22.466 177.331)"/><path style="stroke:none;fill-rule:nonzero;fill:#fff;fill-opacity:1" d="M142.293 39.805h6.656v-6.176h-6.656Zm0 0"/><use xlink:href="#S" x="142.293" y="39.805" style="fill:#000;fill-opacity:1"/><path style="fill-rule:nonzero;fill:#fff;fill-opacity:1;stroke-width:.3985;stroke-linecap:butt;stroke-linejoin:miter;stroke:#000;stroke-opacity:1;stroke-miterlimit:10" d="M165.233 60.538a1.99 1.99 0 0 1-1.992 1.992 1.99 1.99 0 0 1-1.992-1.992 1.99 1.99 0 0 1 1.992-1.992 1.99 1.99 0 0 1 1.992 1.992Zm0 0" transform="matrix(1 0 0 -1 22.466 177.331)"/><path style="stroke:none;fill-rule:nonzero;fill:#fff;fill-opacity:1" d="M182.445 127.95h6.524v-6.177h-6.524Zm0 0"/><use xlink:href="#T" x="182.443" y="127.951" style="fill:#000;fill-opacity:1"/><path style="fill-rule:nonzero;fill:#fff;fill-opacity:1;stroke-width:.3985;stroke-linecap:butt;stroke-linejoin:miter;stroke:#000;stroke-opacity:1;stroke-miterlimit:10" d="M45.663 60.538a1.99 1.99 0 0 1-1.992 1.992 1.99 1.99 0 0 1-1.992-1.992 1.99 1.99 0 0 1 1.992-1.992 1.99 1.99 0 0 1 1.992 1.992Zm0 0" transform="matrix(1 0 0 -1 22.466 177.331)"/><path style="stroke:none;fill-rule:nonzero;fill:#fff;fill-opacity:1" d="M62.684 127.95h6.906v-6.177h-6.906Zm0 0"/><use xlink:href="#U" x="62.681" y="127.951" style="fill:#000;fill-opacity:1"/><path style="fill-rule:nonzero;fill:#fff;fill-opacity:1;stroke-width:.3985;stroke-linecap:butt;stroke-linejoin:miter;stroke:#000;stroke-opacity:1;stroke-miterlimit:10" d="M134.436 60.538a1.994 1.994 0 0 1-3.988 0 1.994 1.994 0 0 1 3.988 0Zm0 0" transform="matrix(1 0 0 -1 22.466 177.331)"/><path style="stroke:none;fill-rule:nonzero;fill:#fff;fill-opacity:1" d="M150.688 127.95h8.44v-6.177h-8.44Zm0 0"/><use xlink:href="#V" x="150.685" y="127.951" style="fill:#000;fill-opacity:1"/><use xlink:href="#l" x="220.725" y="179.572" style="fill:#000;fill-opacity:1"/><g style="fill:#000;fill-opacity:1"><use xlink:href="#W" x="229.106" y="179.572"/><use xlink:href="#X" x="232.689" y="179.572"/><use xlink:href="#Y" x="237.551" y="179.572"/><use xlink:href="#Z" x="242.286" y="179.572"/><use xlink:href="#aa" x="246.893" y="179.572"/><use xlink:href="#ab" x="251.5" y="179.572"/></g><use xlink:href="#ac" x="6.378" y="11.705" style="fill:#000;fill-opacity:1"/><g style="fill:#000;fill-opacity:1"><use xlink:href="#W" x="14.075" y="11.705"/><use xlink:href="#ad" x="17.658" y="11.705"/><use xlink:href="#K" x="22.776" y="11.705"/><use xlink:href="#ae" x="27.383" y="11.705"/><use xlink:href="#ab" x="30.987" y="11.705"/></g></svg>