<svg xmlns="http://www.w3.org/2000/svg" xmlns:xlink="http://www.w3.org/1999/xlink" width="314.812" height="256.144" viewBox="0 0 236.109 192.108"><defs><symbol overflow="visible" id="a"><path style="stroke:none" d="M2.5-5.078c0-.219-.016-.219-.234-.219-.329.313-.75.5-1.5.5v.266c.218 0 .64 0 1.109-.203v4.078c0 .297-.031.39-.781.39H.812V0c.329-.031 1.016-.031 1.375-.031.36 0 1.047 0 1.376.031v-.266H3.28c-.75 0-.781-.093-.781-.39Zm0 0"/></symbol><symbol overflow="visible" id="b"><path style="stroke:none" d="M3.89-2.547c0-.844-.078-1.36-.343-1.875-.344-.703-1-.875-1.438-.875-1 0-1.375.75-1.484.969C.344-3.75.328-2.953.328-2.547c0 .531.016 1.328.406 1.969.36.594.954.75 1.375.75.391 0 1.063-.125 1.47-.906.296-.579.312-1.297.312-1.813ZM2.11-.062c-.266 0-.813-.126-.985-.954-.094-.453-.094-1.203-.094-1.625 0-.546 0-1.109.094-1.546.172-.813.781-.891.984-.891.266 0 .829.14.985.86.094.437.094 1.046.094 1.577 0 .47 0 1.188-.094 1.641-.172.828-.719.938-.985.938Zm0 0"/></symbol><symbol overflow="visible" id="c"><path style="stroke:none" d="M4.766-1.344c.093 0 .25 0 .25-.156s-.157-.156-.25-.156H1c-.11 0-.25 0-.25.156s.14.156.25.156Zm0 0"/></symbol><symbol overflow="visible" id="r"><path style="stroke:none" d="M3.266-1.5c0-.75-.61-1.36-1.36-1.36-.734 0-1.343.61-1.343 1.36 0 .766.609 1.36 1.343 1.36.75 0 1.36-.594 1.36-1.36ZM1.906-.453A1.024 1.024 0 0 1 .875-1.5c0-.578.453-1.047 1.031-1.047.578 0 1.047.469 1.047 1.047 0 .594-.469 1.047-1.047 1.047Zm0 0"/></symbol><symbol overflow="visible" id="d"><path style="stroke:none" d="M1.766-1.984c.5 0 .843.343.843.953 0 .656-.39.937-.828.937C1.61-.094 1-.125.734-.469c.235-.031.329-.187.329-.344a.328.328 0 0 0-.344-.343.34.34 0 0 0-.344.36c0 .593.656.921 1.422.921.89 0 1.469-.563 1.469-1.156 0-.438-.329-.907-1.047-1.078.484-.157.86-.547.86-1.032 0-.484-.563-.843-1.282-.843-.703 0-1.234.328-1.234.812 0 .266.203.328.328.328.156 0 .312-.094.312-.312 0-.188-.125-.297-.297-.313.281-.312.828-.312.89-.312.298 0 .688.14.688.64 0 .329-.187.907-.796.938-.11 0-.266.015-.313.015-.063.016-.125.016-.125.11s.063.094.156.094Zm0 0"/></symbol><symbol overflow="visible" id="e"><path style="stroke:none" d="M3.219-1.125H3c-.016.094-.078.484-.156.547-.047.047-.531.047-.625.047h-1.11l.766-.625c.203-.172.734-.547.922-.735.172-.171.422-.484.422-.906 0-.75-.672-1.187-1.485-1.187-.765 0-1.296.515-1.296 1.078 0 .297.25.344.312.344a.32.32 0 0 0 .328-.329c0-.125-.078-.328-.344-.328.141-.297.5-.531.922-.531.625 0 .953.469.953.953 0 .422-.28.86-.687 1.25L.5-.25C.437-.187.437-.187.437 0h2.594Zm0 0"/></symbol><symbol overflow="visible" id="f"><path style="stroke:none" d="M2.14-3.797c0-.187-.015-.187-.203-.187-.39.39-1 .39-1.218.39v.235c.156 0 .562 0 .922-.172v3.015c0 .204 0 .282-.625.282h-.25V0c.328-.031.796-.031 1.125-.031.328 0 .796 0 1.125.031v-.234h-.25c-.625 0-.625-.078-.625-.282Zm0 0"/></symbol><symbol overflow="visible" id="g"><path style="stroke:none" d="M3.297-1.906c0-.438 0-2.078-1.469-2.078S.36-2.344.36-1.906c0 .422 0 2.031 1.47 2.031 1.468 0 1.468-1.61 1.468-2.031ZM1.828-.063a.84.84 0 0 1-.812-.625C.922-1.03.922-1.609.922-1.984c0-.407 0-.86.094-1.188.14-.531.593-.61.812-.61.266 0 .672.126.797.579.094.312.094.75.094 1.219 0 .375 0 .984-.094 1.312a.825.825 0 0 1-.797.61Zm0 0"/></symbol><symbol overflow="visible" id="h"><path style="stroke:none" d="M.766-4.797v.266c.39 0 .75-.063 1.109-.219v4.094c0 .39-.328.39-.781.39H.812v.25h2.75v-.25h-.359c-.422 0-.687-.015-.687-.39v-4.5c0-.078-.032-.157-.141-.157-.156 0-.234.125-.344.204-.375.234-.812.312-1.265.312Zm0 0"/></symbol><symbol overflow="visible" id="i"><path style="stroke:none" d="M1.984-5.313C.484-5.093.328-3.671.328-2.483c0 1.109.281 2.64 1.797 2.64.75 0 1.297-.453 1.563-1.14.187-.516.203-1.094.203-1.657 0-.718-.094-1.609-.579-2.156a1.659 1.659 0 0 0-1.171-.516h-.157Zm-.953 3.22v-.188c0-.485 0-.985.032-1.469.03-.453.093-.89.546-1.188a.97.97 0 0 1 .5-.14c1.016 0 1.079 1.187 1.079 2v.875c0 .875-.063 1.765-.72 2.062a.914.914 0 0 1-.343.078c-.86 0-1.047-.906-1.078-1.796 0-.079 0-.157-.016-.235Zm0 0"/></symbol><symbol overflow="visible" id="I"><path style="stroke:none" d="M.36-5.453v.266c.093 0 .203-.016.296-.016.281 0 .5.047.5.36v4.218c0 .328-.25.36-.531.36H.359v.25h2.344v-.25h-.297c-.281 0-.515-.047-.515-.36V-2.5h1.578c.797-.047 1.734-.516 1.812-1.375v-.063c0-1.046-1.172-1.515-2.125-1.515h-.484Zm1.515 2.719v-2.204c0-.203.14-.25.313-.25h.671c.704 0 1.594.047 1.594 1.25 0 1.032-.781 1.204-1.453 1.204Zm0 0"/></symbol><symbol overflow="visible" id="J"><path style="stroke:none" d="M1.984-3.547c-.906.094-1.75.75-1.75 1.875 0 1.078.985 1.75 1.907 1.75C3.062.078 4-.64 4-1.688c0-1.03-.86-1.859-1.906-1.859Zm-1.046 2v-.203c0-.422.03-.969.375-1.281.218-.203.515-.297.812-.297.813 0 1.156.672 1.156 1.5 0 .437-.015.922-.312 1.281-.219.25-.531.375-.86.375-.593 0-1.046-.422-1.14-1.047-.016-.11-.016-.218-.031-.328Zm0 0"/></symbol><symbol overflow="visible" id="K"><path style="stroke:none" d="M.36-3.422v.266h.124c.25 0 .454.047.454.39v2.157c0 .328-.22.343-.61.343v.25L.812-.03h.813l.438.015v-.25h-.11c-.234 0-.437-.015-.437-.296v-2.954l-.282.032Zm.687-1.922a.45.45 0 0 0-.39.438c0 .218.187.437.437.437a.453.453 0 0 0 .453-.453.446.446 0 0 0-.438-.437c-.015 0-.046.015-.062.015Zm0 0"/></symbol><symbol overflow="visible" id="L"><path style="stroke:none" d="M.313-3.422v.266h.156c.234 0 .453.031.453.39v2.157c0 .328-.203.343-.61.343v.25l.5-.015h.829l.5.015v-.25h-.172c-.235 0-.438-.03-.438-.328v-1.469c0-.593.39-1.234 1.157-1.234.453 0 .578.406.578.875v1.844c0 .281-.22.312-.438.312h-.172v.25l.5-.015H4l.484.015v-.25h-.156c-.234 0-.453-.03-.453-.312v-1.703c0-.266 0-.531-.125-.781-.203-.344-.625-.454-1-.454-.484 0-1.078.266-1.266.766v-.766l-.296.032Zm0 0"/></symbol><symbol overflow="visible" id="M"><path style="stroke:none" d="M1.234-4.906c0 .562-.265 1.515-1.078 1.515v.22h.719v2.062c0 .25.016.5.14.734.204.313.594.453.954.453.672 0 .843-.719.843-1.234v-.297h-.25c0 .11.016.219.016.344 0 .343-.094.937-.562.937-.438 0-.532-.469-.532-.86v-2.14h1.188v-.265H1.484v-1.47Zm0 0"/></symbol><symbol overflow="visible" id="N"><path style="stroke:none" d="M2.922-3.172c-.156.063-.25.188-.25.344 0 .234.172.375.422.375.219 0 .328-.203.328-.375 0-.578-.688-.688-1.172-.719h-.094c-1.031 0-1.875.797-1.875 1.828 0 .985.828 1.797 1.844 1.797.563 0 1.11-.297 1.328-.844.016-.062.063-.125.063-.187 0-.078-.047-.11-.11-.11-.156 0-.125.172-.234.313-.188.36-.547.578-.953.578C1.39-.172.984-.953.984-1.766c0-.64.266-1.546 1.188-1.546.219 0 .531.015.75.14Zm0 0"/></symbol><symbol overflow="visible" id="O"><path style="stroke:none" d="M.266-3.422v.266H.39c.25 0 .484.015.484.39v2.157c0 .328-.203.343-.61.343v.25L.75-.03h.906l.563.015v-.25h-.281c-.25 0-.47-.03-.47-.328v-1.328c0-.578.313-1.375 1-1.375A.427.427 0 0 0 2.345-3c0 .219.187.36.36.36.202 0 .358-.172.358-.36 0-.344-.343-.516-.624-.516-.47 0-.938.422-1.016.844l-.016-.844-.39.032Zm0 0"/></symbol><symbol overflow="visible" id="P"><path style="stroke:none" d="M3.203-.484 3.22.969c0 .281-.188.312-.61.312v.25l.5-.015h.829l.5.015v-.25h-.172c-.235 0-.438-.031-.438-.343v-4.454L3.61-3.5l-.312.672c-.25-.422-.672-.688-1.172-.688-1 0-1.844.813-1.844 1.797 0 1 .828 1.797 1.797 1.797.39 0 .922-.203 1.125-.562ZM.984-1.61v-.079c0-.53.204-1.156.735-1.437a.97.97 0 0 1 .5-.14c.484 0 .953.468 1.015.953v1.203c0 .484-.562.843-.859.921-.078.016-.156.032-.25.032h-.047c-.562-.032-.922-.578-1.031-1.063a2.916 2.916 0 0 1-.063-.39Zm0 0"/></symbol><symbol overflow="visible" id="Q"><path style="stroke:none" d="M.313-3.422v.266h.109c.203 0 .453.015.484.234.016.078.016.172.016.25v1.578c0 .235.015.469.125.672.234.39.734.5 1.125.5.375 0 .719-.125.937-.406a.714.714 0 0 0 .172-.25l.016.656 1.187-.094v-.25h-.156c-.219 0-.453-.03-.453-.39v-2.86l-1.219.094v.266h.094c.281 0 .516.015.516.39v1.36c0 .64-.344 1.25-1.032 1.25-.28 0-.64-.063-.687-.469-.016-.14-.016-.297-.016-.438v-2.453Zm0 0"/></symbol><symbol overflow="visible" id="R"><path style="stroke:none" d="M.938-1.828h2.437c.094 0 .14-.047.14-.14 0-.407-.109-.876-.406-1.157-.28-.297-.671-.422-1.078-.422-.937 0-1.797.703-1.797 1.781C.234-.859.954.078 2.11.078c.594 0 1.235-.375 1.391-.969.016-.015.016-.046.016-.062 0-.063-.047-.125-.11-.125-.156 0-.172.25-.25.36a1.175 1.175 0 0 1-.984.53c-.422 0-.828-.218-1.047-.609-.156-.312-.188-.672-.188-1.031Zm.015-.219c.078-.453.156-.937.625-1.172a.867.867 0 0 1 .438-.11c.515 0 .859.423.937 1 .016.095.016.188.031.282Zm0 0"/></symbol><symbol overflow="visible" id="p"><path style="stroke:none" d="M2.719-5.734c0-.22 0-.235-.219-.235-.563.563-1.39.563-1.672.563v.281c.172 0 .719 0 1.203-.234v4.64c0 .328-.015.438-.86.438h-.28V0c.312-.031 1.125-.031 1.484-.031.375 0 1.172 0 1.5.031v-.281h-.281c-.844 0-.875-.11-.875-.438Zm0 0"/></symbol><symbol overflow="visible" id="q"><path style="stroke:none" d="M4.25-2.875c0-.594-.031-1.375-.344-2.047-.406-.844-1.078-1.047-1.594-1.047-.546 0-1.234.203-1.624 1.078-.282.61-.329 1.344-.329 2.016 0 .594.016 1.453.407 2.172.421.75 1.125.906 1.53.906.579 0 1.25-.25 1.626-1.078.265-.61.328-1.281.328-2ZM2.312-.031c-.28 0-.921-.125-1.093-1.14-.094-.516-.094-1.298-.094-1.813 0-.61 0-1.313.11-1.813.187-.797.75-.953 1.062-.953.344 0 .906.188 1.078 1.016.094.484.094 1.187.094 1.75 0 .562 0 1.312-.094 1.843C3.187-.109 2.531-.03 2.312-.03Zm0 0"/></symbol><symbol overflow="visible" id="s"><path style="stroke:none" d="M5.422-5.547c-.281-.281-.797-.781-1.703-.781-1.735 0-3.203 1.453-3.203 3.266C.516-1.22 2 .203 3.719.203 5.203.203 6.14-1.03 6.14-2.078c0-.094 0-.172-.125-.172s-.125.063-.125.14A2.085 2.085 0 0 1 3.812-.077c-.765 0-2.39-.484-2.39-2.985 0-2.5 1.64-2.984 2.375-2.984.89 0 1.828.672 2.047 2.125.015.125.031.156.14.156.157 0 .157-.03.157-.218v-2.11c0-.156 0-.234-.11-.234-.062 0-.093.031-.14.11Zm0 0"/></symbol><symbol overflow="visible" id="v"><path style="stroke:none" d="M4.14-1.594h-.25c-.015.125-.093.657-.203.797-.062.078-.671.078-.859.078H1.234l.891-.844c1.469-1.265 2.016-1.75 2.016-2.656 0-1.031-.844-1.75-1.954-1.75-1.03 0-1.734.813-1.734 1.625 0 .453.39.5.469.5.203 0 .469-.14.469-.469a.451.451 0 0 0-.47-.468c-.046 0-.062 0-.109.015.22-.64.797-.921 1.282-.921.906 0 1.219.843 1.219 1.468 0 .907-.688 1.657-1.11 2.125L.563-.328c-.11.11-.11.125-.11.328h3.438Zm0 0"/></symbol><symbol overflow="visible" id="y"><path style="stroke:none" d="M2.734-3.156C3.563-3.47 3.97-4.125 3.97-4.75c0-.688-.766-1.219-1.703-1.219-.922 0-1.625.532-1.625 1.203 0 .297.187.47.453.47a.435.435 0 0 0 .453-.454c0-.313-.219-.438-.531-.438.234-.375.78-.562 1.234-.562.734 0 .875.594.875 1.016 0 .265-.047.703-.266 1.046-.28.391-.593.407-.859.438-.219.016-.234.016-.313.016-.078 0-.156.015-.156.109 0 .125.078.125.235.125h.406c.781 0 1.125.625 1.125 1.469 0 1.156-.61 1.484-1.063 1.484-.171 0-1.046-.047-1.437-.719a.475.475 0 0 0 .562-.484.468.468 0 0 0-.484-.484c-.219 0-.484.14-.484.515 0 .797.828 1.422 1.875 1.422 1.109 0 1.953-.812 1.953-1.734 0-.782-.625-1.438-1.485-1.625Zm0 0"/></symbol><symbol overflow="visible" id="T"><path style="stroke:none" d="M3.063 2.14c0-.046-.032-.078-.079-.14C1.828.937 1.47-.672 1.47-2.25c0-1.375.265-3.063 1.531-4.266.047-.046.063-.062.063-.109a.107.107 0 0 0-.11-.11c-.11 0-.922.657-1.406 1.626-.422.859-.64 1.796-.64 2.859 0 .64.077 1.672.577 2.719.532 1.11 1.36 1.765 1.47 1.765.062 0 .108-.03.108-.093Zm0 0"/></symbol><symbol overflow="visible" id="U"><path style="stroke:none" d="M1.672-2.328c0-.969.703-1.406 1.234-1.406.5 0 .656.343.656.968v2.079c0 .406-.093.406-.687.406V0c.422-.016.594-.031 1.016-.031.437 0 .546.015 1.03.031v-.281c-.593 0-.702 0-.702-.406v-1.641c0-.969.703-1.406 1.25-1.406.484 0 .64.343.64.968v2.079c0 .406-.093.406-.687.406V0c.422-.016.594-.031 1.031-.031.422 0 .547.015 1.016.031v-.281c-.453 0-.672 0-.688-.281v-1.72c0-.78 0-1.03-.297-1.359-.187-.218-.546-.328-.953-.328-.656 0-1.093.375-1.343.86-.11-.532-.47-.86-1.22-.86-.718 0-1.155.469-1.343.89h-.016v-.89l-1.296.11v.265c.609 0 .687.063.687.516v2.39C1-.28.906-.28.312-.28V0c.422-.016.594-.031 1.032-.031.422 0 .547.015 1.015.031v-.281c-.593 0-.687 0-.687-.406Zm0 0"/></symbol><symbol overflow="visible" id="W"><path style="stroke:none" d="M1.594-1.953V-6.22l-1.328.094v.281c.609 0 .687.063.687.5v4.657c0 .406-.094.406-.687.406V0c.39-.016.625-.031 1-.031.359 0 .593.015 1 .031v-.281c-.594 0-.704 0-.704-.406v-.907l.579-.484.875 1.172c.14.203.218.312.218.437 0 .078-.03.188-.312.188V0c.406-.016.625-.031.969-.031.265 0 .546 0 .812.031v-.281c-.297 0-.516 0-.844-.438L2.594-2.453c.875-.75 1.297-1.11 1.906-1.14v-.266c-.328.015-.344.015-.672.015-.265 0-.5 0-.984-.015v.265c.14.016.234.078.234.219 0 .172-.14.297-.219.36Zm0 0"/></symbol><symbol overflow="visible" id="X"><path style="stroke:none" d="M1.125-1.61c.219.141.5.282.906.282.86 0 1.5-.61 1.5-1.313 0-.437-.25-.75-.36-.875.36-.328.782-.328.876-.328-.031.031-.11.078-.11.235 0 .109.063.265.266.265.125 0 .266-.078.266-.265a.457.457 0 0 0-.485-.454c-.25 0-.656.094-.968.422a1.541 1.541 0 0 0-.97-.328c-.858 0-1.5.61-1.5 1.328 0 .454.266.782.407.907a1.262 1.262 0 0 0-.265.75c0 .296.14.625.39.78C.625-.046.266.282.266.704c0 .64.875 1.14 2.03 1.14 1.11 0 2.048-.468 2.048-1.155 0-.375-.172-.766-.5-.985-.5-.312-1.031-.312-1.875-.312-.188 0-.469 0-.547-.016C1.172-.688 1-.922 1-1.203c0-.156.047-.281.125-.406Zm.906.048c-.797 0-.797-.891-.797-1.079 0-.25.016-.546.172-.765a.792.792 0 0 1 .625-.313c.813 0 .813.86.813 1.078 0 .204 0 1.079-.813 1.079Zm.422 1.515c.281 0 1.39.016 1.39.735 0 .515-.702.921-1.53.921-.891 0-1.547-.421-1.547-.921 0-.141.093-.735.859-.735Zm0 0"/></symbol><symbol overflow="visible" id="Y"><path style="stroke:none" d="M2.672-2.25c0-.734-.11-1.719-.578-2.719C1.563-6.079.734-6.734.625-6.734c-.094 0-.11.078-.11.109 0 .047.016.063.079.125.531.469 1.515 1.688 1.515 4.25C2.11-.969 1.875.813.58 2.031c-.016.016-.063.063-.063.11 0 .015.015.093.109.093.11 0 .922-.64 1.406-1.625.422-.859.64-1.78.64-2.859Zm0 0"/></symbol><symbol overflow="visible" id="A"><path style="stroke:none" d="M.344-6.14v.28h.344c.296 0 .562.048.562.391v4.782c0 .39-.313.406-.656.406h-.25v.265h4.765l.25-2.312h-.25C5.016-1.5 4.938-.625 3.83-.344c-.25.063-.5.063-.767.063h-.671c-.204 0-.329-.094-.329-.313v-4.843c0-.329.188-.375.376-.391.25-.031.515-.031.765-.031v-.282Zm0 0"/></symbol><symbol overflow="visible" id="B"><path style="stroke:none" d="M.36-3.86v.266H.5c.297 0 .516.047.516.453v2.485c0 .36-.25.375-.688.375v.265h1.938V-.28h-.141c-.234 0-.469-.031-.469-.313v-3.375Zm.765-2.156c-.234.047-.422.235-.422.485s.219.468.485.468h.062a.474.474 0 0 0 .422-.468.477.477 0 0 0-.484-.485Zm0 0"/></symbol><symbol overflow="visible" id="C"><path style="stroke:none" d="M3.484-.531v1.625c0 .328-.187.36-.687.36v.28l.64-.03h1.407v-.25h-.188c-.281 0-.5-.032-.5-.376v-5.047l-.218.016-.11.203-.234.578c-.094-.11-.156-.234-.235-.328a1.316 1.316 0 0 0-1.03-.469c-1.079 0-2.017.906-2.017 2.016 0 1.047.813 2.047 1.954 2.047.453 0 .984-.235 1.218-.625ZM1.078-1.797v-.11c0-.734.39-1.765 1.297-1.812h.031c.578 0 1.016.563 1.11 1.094v1.406c0 .735-.922 1.078-1.204 1.078h-.046C1.609-.188 1.25-.859 1.14-1.42c-.032-.126-.032-.25-.063-.376Zm0 0"/></symbol><symbol overflow="visible" id="F"><path style="stroke:none" d="M.172-6.14v.28H.39c.187 0 .406.016.53.126.126.125.173.312.22.453.656 1.703 1.359 3.39 2.015 5.11.047.14.094.359.297.359.188 0 .235-.22.281-.36l.47-1.156c.5-1.266.984-2.563 1.5-3.828.218-.532.546-.703 1.015-.703v-.282l-.516.032h-1.36v.25a.73.73 0 0 1 .532.203l.063.093c.03.032.03.094.03.141 0 .234-.187.578-.296.844-.422 1.094-.828 2.187-1.281 3.266-.063.14-.125.296-.172.437-.047-.125-.094-.25-.14-.36C3-2.624 2.515-4.093 1.905-5.468c-.015-.031-.015-.078-.015-.125v-.031c.062-.219.39-.234.625-.234h.078v-.282Zm0 0"/></symbol><symbol overflow="visible" id="G"><path style="stroke:none" d="M1.094-3.484c.25-.22.61-.313.937-.313.313 0 .594.172.781.438.172.25.172.53.172.828v.156c-.734.078-1.468.078-2.093.547-.297.219-.516.578-.516.937 0 .735.875.985 1.469.985.547 0 .968-.281 1.218-.75.079.375.297.703.704.703.546 0 .78-.453.78-.953v-.406h-.25v.453c0 .25-.046.593-.327.593-.297 0-.313-.39-.313-.593v-1.75c0-.938-.812-1.407-1.61-1.407-.562 0-1.39.235-1.39.938 0 .25.14.437.469.437.219-.015.36-.218.36-.421 0-.25-.188-.376-.391-.422Zm1.89 1.328v.875c0 .625-.437 1.14-1.062 1.14h-.063c-.421-.03-.75-.359-.75-.75 0-.859 1.032-1.265 1.875-1.265Zm0 0"/></symbol><symbol overflow="visible" id="H"><path style="stroke:none" d="M.266-3.86v.266h.171c.266 0 .516.031.516.39v4.282c0 .375-.265.375-.687.375v.281l.64-.03h1.406v-.25h-.218c-.25 0-.469-.032-.469-.36V-.438c.297.329.656.532 1.125.532 1.078 0 2.063-.875 2.063-2.031 0-1.016-.797-2.032-1.938-2.032-.5 0-.953.219-1.281.563v-.563Zm3.75 2.063C3.984-1.094 3.562-.14 2.672-.14c-.469 0-1.047-.453-1.047-.843v-1.47c0-.124-.016-.233-.016-.343 0-.5.657-.922 1.172-.922.844 0 1.25 1.063 1.25 1.75 0 .047 0 .11-.015.172Zm0 0"/></symbol><symbol overflow="visible" id="D"><path style="stroke:none" d="M8.438-2.047c.187 0 .265 0 .265-.156 0-.078-.015-.125-.094-.172-.859-.5-1.437-1.11-1.859-2.094-.047-.11-.063-.125-.219-.125-.062 0-.187 0-.187.11 0 .078.39 1.187 1.453 2.046H.844c-.156 0-.328 0-.328.188 0 .203.171.203.328.203Zm0 0"/></symbol><symbol overflow="visible" id="E"><path style="stroke:none" d="M8.375-2.047c.156 0 .328 0 .328-.203 0-.188-.187-.188-.328-.188H.765c-.187 0-.25 0-.25.157 0 .078.016.11.079.156.875.5 1.437 1.11 1.86 2.094.062.125.062.14.218.14.078 0 .187 0 .187-.125 0-.062-.375-1.171-1.437-2.03Zm0 0"/></symbol><symbol overflow="visible" id="S"><path style="stroke:none" d="M4.313-3.313c0-.624-.329-.656-.407-.656-.234 0-.469.235-.469.438 0 .14.094.219.157.265.234.22.312.516.312.75 0 .391-.562 2.391-1.594 2.391-.687 0-.687-.625-.687-.797 0-.375.14-.844.453-1.656.14-.375.172-.469.172-.625a.739.739 0 0 0-.766-.766c-.859 0-1.218 1.281-1.218 1.39 0 .079.062.11.125.11.093 0 .109-.062.14-.172.188-.656.547-1.093.922-1.093.172 0 .219.109.219.296 0 .141-.047.313-.125.516-.313.875-.531 1.438-.531 1.89 0 .845.64 1.126 1.25 1.126 1.515 0 2.046-2.828 2.046-3.406Zm0 0"/></symbol><symbol overflow="visible" id="V"><path style="stroke:none" d="M1.766-.484A.487.487 0 0 0 1.28-.97a.477.477 0 0 0-.484.485C.797-.22 1 0 1.28 0a.487.487 0 0 0 .485-.484Zm0 0"/></symbol><symbol overflow="visible" id="af"><path style="stroke:none" d="M3.938-5.469c.046-.187.078-.281.218-.312.078-.016.36-.016.547-.016 1.031 0 1.344.063 1.344.766 0 .11 0 .25-.078.781l-.016.078c0 .063.031.125.125.125.11 0 .125-.094.14-.219l.235-1.562c.016-.031.016-.094.016-.125 0-.125-.078-.125-.25-.125h-5.11c-.218 0-.218.016-.28.187L.265-4.312c-.032.109-.032.14-.032.14 0 .047.032.125.11.125.11 0 .125-.062.172-.219.5-1.406.78-1.53 2.078-1.53h.344c.25 0 .25.03.25.109 0 .046-.016.109-.032.187L1.953-.703c-.078.312-.11.422-1.062.422-.282 0-.36 0-.36.172C.531 0 .641 0 .687 0c.235 0 .485-.016.735-.016s.5-.015.75-.015c.406 0 .422 0 .75.015.125 0 .703.016.781.016.078 0 .188 0 .188-.156 0-.125-.079-.125-.297-.125-.235 0-.344 0-.578-.016-.204-.031-.313-.031-.313-.187 0-.047.016-.11.031-.172Zm0 0"/></symbol><symbol overflow="visible" id="ag"><path style="stroke:none" d="M6.203-2.031c.11-.047.188-.094.188-.219s-.11-.172-.188-.203L1.141-4.891c-.125-.062-.157-.062-.188-.062a.19.19 0 0 0-.187.187c0 .11.062.157.187.22L5.75-2.25.953.047C.828.109.766.157.766.266c0 .062.062.187.203.187.015 0 .047 0 .156-.047Zm0 0"/></symbol><symbol overflow="visible" id="ai"><path style="stroke:none" d="M6.203-4.547c.078-.031.188-.094.188-.203a.197.197 0 0 0-.204-.203c-.015 0-.046 0-.156.062L.953-2.453c-.078.031-.187.078-.187.203s.093.172.187.219L6.016.39c.125.062.156.062.171.062.141 0 .204-.125.204-.187 0-.11-.063-.157-.172-.188L1.406-2.25Zm0 0"/></symbol><symbol overflow="visible" id="Z"><path style="stroke:none" d="M1.125-.406c.25.062.344.078.344.453 0 .11 0 .219.156.219a.12.12 0 0 0 .11-.125l-.016-.375V-1.078c0-.156.015-.297.015-.438 0-.046 0-.171-.156-.171-.11 0-.11.093-.11.25 0 .421-.062.421-.155.421a2.9 2.9 0 0 1-.438-.109l-1.328-.328c.187-.094.547-.344.547-.86 0-1.046-1.266-2.187-2.61-2.187-.906 0-1.453.563-1.453 1.234 0 .188.047.641.656 1.188-.5.125-.656.547-.656.844 0 .375.281.578.531.703.313.14.813.265.86.265.078 0 .11-.062.11-.125 0-.093-.048-.109-.235-.156-.703-.172-1.031-.36-1.031-.656 0-.281.28-.281.421-.281.063 0 .204.015.266.03Zm-3.89-1.625c-.172-.047-.188-.047-.329-.172-.312-.235-.64-.64-.64-1.047 0-.422.421-.594.843-.594.391 0 1.516.25 1.985.531.515.313.781.688.781 1.016 0 .578-.703.735-.766.735-.062 0-.109-.032-.156-.032Zm0 0"/></symbol><symbol overflow="visible" id="aa"><path style="stroke:none" d="M-6.734-2.906c.046.125.218.281.328.39 1.093 1.125 2.61 1.61 4.156 1.61 1.656 0 3.344-.563 4.422-1.906.031-.047.078-.094.078-.141a.107.107 0 0 0-.11-.11c-.109 0-.296.25-.39.344-1.11.953-2.578 1.25-4.016 1.25-1.5 0-3.078-.343-4.187-1.453-.047-.047-.11-.14-.188-.14-.046 0-.093.046-.093.109v.047Zm0 0"/></symbol><symbol overflow="visible" id="ab"><path style="stroke:none" d="M-6.14-.266h.28v-.14c0-.297.032-.547.454-.547h5.39l-.015-.25-.531-.344c.453-.312.656-.75.656-1.234 0-1.125-.953-2.031-2.047-2.031-.953 0-2.016.765-2.016 1.937 0 .484.172.89.563 1.281h-2.828Zm4.406-3.75c.421.032.796.079 1.109.344.297.235.484.594.484.969s-.218.75-.546.953a.457.457 0 0 1-.297.125h-2c-.391-.063-.75-.703-.75-1.172 0-1.047 1.14-1.234 1.812-1.234a.76.76 0 0 1 .188.015Zm0 0"/></symbol><symbol overflow="visible" id="ac"><path style="stroke:none" d="M-3.484-1.094c-.22-.25-.313-.61-.313-.937 0-.313.172-.594.438-.781.25-.172.53-.172.828-.172h.156c.078.734.078 1.468.547 2.093.219.297.578.516.937.516.735 0 .985-.875.985-1.469 0-.547-.281-.968-.75-1.218.375-.079.703-.297.703-.704 0-.546-.453-.78-.953-.78h-.406v.25h.453c.25 0 .593.046.593.327 0 .297-.39.313-.593.313h-1.75c-.938 0-1.407.812-1.407 1.61 0 .562.235 1.39.938 1.39.25 0 .437-.14.437-.469-.015-.219-.218-.36-.421-.36-.25 0-.376.188-.422.391Zm1.328-1.89h.875c.625 0 1.14.437 1.14 1.062v.063c-.03.421-.359.75-.75.75-.859 0-1.265-1.032-1.265-1.875Zm0 0"/></symbol><symbol overflow="visible" id="ad"><path style="stroke:none" d="M-3.86-.266h.266v-.14c0-.281.031-.547.453-.547h2.485c.36 0 .375.234.375.687h.265L-.03-.89v-1.562h-.25v.297c0 .312-.047.562-.375.562h-1.516c-.625-.062-1.562-.234-1.562-1.14.062.125.203.171.328.171a.39.39 0 1 0 0-.78c-.375 0-.563.359-.563.687 0 .547.469.984.969 1.11h-.969Zm0 0"/></symbol><symbol overflow="visible" id="ae"><path style="stroke:none" d="M-6.734-.578c.03.047.062.062.093.062.11 0 .266-.218.36-.296C-5.188-1.797-3.656-2.11-2.22-2.11c1.469 0 3.078.343 4.172 1.437.047.047.11.156.188.156.046 0 .109-.062.109-.125-.031-.109-.219-.296-.328-.421-1.047-1.11-2.61-1.61-4.125-1.61-1.64 0-3.406.531-4.453 1.906-.032.047-.078.094-.078.141v.047Zm0 0"/></symbol><symbol overflow="visible" id="ah"><path style="stroke:none" d="M2.781-2.297c-.078.016-.281.125-.281.344 0 .14.11.219.234.219.141 0 .344-.094.344-.391 0-.375-.453-.516-.828-.516C1.312-2.64.453-1.844.453-1 .453-.437.86.063 1.641.063c1.125 0 1.546-.594 1.546-.672 0-.047-.062-.11-.109-.11-.031 0-.031 0-.125.094-.328.375-.875.484-1.312.484-.485 0-.672-.312-.672-.671 0-.016.015-.704.422-1.22.093-.093.406-.405.859-.405.031 0 .344 0 .531.14Zm0 0"/></symbol><clipPath id="j"><path d="M48 33h176.82v133.574H48Zm0 0"/></clipPath><clipPath id="k"><path d="M42 28h182.82v138.574H42Zm0 0"/></clipPath><clipPath id="l"><path d="M35 5.18h189.82v161.394H35Zm0 0"/></clipPath><clipPath id="m"><path d="M37 5.18h187.82v161.394H37Zm0 0"/></clipPath><clipPath id="n"><path d="M37 5.18h187.82V157H37Zm0 0"/></clipPath><clipPath id="o"><path d="M48 5.18h144V137H48Zm0 0"/></clipPath><clipPath id="t"><path d="M176 121h48.82v45.574H176Zm0 0"/></clipPath><clipPath id="u"><path d="M50 5.18h87V80H50Zm0 0"/></clipPath><clipPath id="w"><path d="M122 65h102.82v101.574H122Zm0 0"/></clipPath><clipPath id="x"><path d="M54 5.18h51V50H54Zm0 0"/></clipPath><clipPath id="z"><path d="M89 34h135.82v132.574H89Zm0 0"/></clipPath></defs><path style="fill:none;stroke-width:.19925;stroke-linecap:butt;stroke-linejoin:miter;stroke:gray;stroke-opacity:1;stroke-miterlimit:10" d="M-150.098-30.5v2.833m4.281-2.832v2.832m3.496-2.832v2.832m2.957-2.832v2.832m2.563-2.832v2.832m2.258-2.832v2.832m2.023-2.832v2.832m13.297-2.832v2.832m7.777-2.832v2.832m5.52-2.832v2.832m4.281-2.832v2.832m3.496-2.832v2.832m2.961-2.832v2.832m2.559-2.832v2.832m2.261-2.832v2.832m2.02-2.832v2.832m13.297-2.832v2.832m7.781-2.832v2.832m5.52-2.832v2.832m4.277-2.832v2.832m3.5-2.832v2.832m2.957-2.832v2.832m2.562-2.832v2.832m2.258-2.832v2.832m2.024-2.832v2.832m13.297-2.832v2.832m7.777-2.832v2.832m5.52-2.832v2.832m4.28-2.832v2.832M-9.8-30.5v2.832m2.957-2.832v2.832m2.562-2.832v2.832M-2.02-30.5v2.832M0-30.5v2.832M13.296-30.5v2.832m7.782-2.832v2.832m5.515-2.832v2.832m4.282-2.832v2.832m3.5-2.832v2.832m2.957-2.832v2.832m2.562-2.832v2.832m2.258-2.832v2.832m-192.25 158.562v-2.832m4.281 2.832v-2.832m3.496 2.832v-2.832m2.957 2.832v-2.832m2.563 2.832v-2.832m2.258 2.832v-2.832m2.023 2.832v-2.832m13.297 2.832v-2.832m7.777 2.832v-2.832m5.52 2.832v-2.832m4.281 2.832v-2.832m3.496 2.832v-2.832m2.961 2.832v-2.832m2.559 2.832v-2.832m2.261 2.832v-2.832m2.02 2.832v-2.832m13.297 2.832v-2.832m7.781 2.832v-2.832m5.52 2.832v-2.832m4.277 2.832v-2.832m3.5 2.832v-2.832m2.957 2.832v-2.832m2.562 2.832v-2.832m2.258 2.832v-2.832m2.024 2.832v-2.832m13.297 2.832v-2.832m7.777 2.832v-2.832m5.52 2.832v-2.832m4.28 2.832v-2.832m3.497 2.832v-2.832m2.957 2.832v-2.832m2.562 2.832v-2.832m2.262 2.832v-2.832M0 130.895v-2.832m13.296 2.832v-2.832m7.782 2.832v-2.832m5.515 2.832v-2.832m4.282 2.832v-2.832m3.5 2.832v-2.832m2.957 2.832v-2.832m2.562 2.832v-2.832m2.258 2.832v-2.832M-132.52-30.5v4.247m44.172-4.246v4.246m44.176-4.246v4.246M0-30.5v4.246M44.175-30.5v4.246M-132.52 130.895v-4.246m44.172 4.246v-4.246m44.176 4.246v-4.246M0 130.895v-4.246m44.175 4.246v-4.246M-150.098 0h2.832m-2.832 13.134h2.832m-2.832 7.683h2.832m-2.832 5.453h2.832m-2.832 4.227h2.832m-2.832 3.457h2.832m-2.832 2.918h2.832m-2.832 2.531h2.832m-2.832 2.23h2.832m-2.832 2h2.832m-2.832 13.133h2.832m-2.832 7.684h2.832m-2.832 5.45h2.832m-2.832 4.23h2.832m-2.832 3.453h2.832m-2.832 2.922h2.832m-2.832 2.53h2.832m-2.832 2.231h2.832M44.175.001H41.34m2.836 13.133H41.34m2.836 7.683H41.34m2.836 5.453H41.34m2.836 4.227H41.34m2.836 3.457H41.34m2.836 2.918H41.34m2.836 2.531H41.34m2.836 2.23H41.34m2.836 2H41.34m2.836 13.133H41.34m2.836 7.684H41.34m2.836 5.45H41.34m2.836 4.23H41.34m2.836 3.453H41.34m2.836 2.922H41.34m2.836 2.53H41.34m2.836 2.231H41.34M-150.098 0h4.25m-4.25 43.634h4.25m-4.25 43.629h4.25M44.175 0h-4.25m4.25 43.633h-4.25m4.25 43.629h-4.25" transform="matrix(1 0 0 -1 180.645 136.075)"/><path style="fill:none;stroke-width:.3985;stroke-linecap:butt;stroke-linejoin:miter;stroke:#000;stroke-opacity:1;stroke-miterlimit:10" d="M-150.098-30.5v161.395H44.175V-30.499Zm0 0" transform="matrix(1 0 0 -1 180.645 136.075)"/><g style="fill:#000;fill-opacity:1"><use xlink:href="#a" x="38.938" y="175.231"/><use xlink:href="#b" x="43.173" y="175.231"/></g><use xlink:href="#c" x="47.407" y="172.419" style="fill:#000;fill-opacity:1"/><use xlink:href="#d" x="53.163" y="172.419" style="fill:#000;fill-opacity:1"/><g style="fill:#000;fill-opacity:1"><use xlink:href="#a" x="83.111" y="175.231"/><use xlink:href="#b" x="87.346" y="175.231"/></g><use xlink:href="#c" x="91.58" y="172.419" style="fill:#000;fill-opacity:1"/><use xlink:href="#e" x="97.336" y="172.419" style="fill:#000;fill-opacity:1"/><g style="fill:#000;fill-opacity:1"><use xlink:href="#a" x="127.284" y="175.231"/><use xlink:href="#b" x="131.519" y="175.231"/></g><use xlink:href="#c" x="135.753" y="172.419" style="fill:#000;fill-opacity:1"/><use xlink:href="#f" x="141.509" y="172.419" style="fill:#000;fill-opacity:1"/><g style="fill:#000;fill-opacity:1"><use xlink:href="#a" x="174.336" y="175.231"/><use xlink:href="#b" x="178.571" y="175.231"/></g><use xlink:href="#g" x="182.804" y="172.419" style="fill:#000;fill-opacity:1"/><g style="fill:#000;fill-opacity:1"><use xlink:href="#a" x="218.509" y="175.231"/><use xlink:href="#b" x="222.744" y="175.231"/></g><use xlink:href="#f" x="226.977" y="172.419" style="fill:#000;fill-opacity:1"/><use xlink:href="#h" x="24.322" y="138.645" style="fill:#000;fill-opacity:1"/><g style="fill:#000;fill-opacity:1"><use xlink:href="#h" x="20.089" y="95.014"/><use xlink:href="#i" x="24.322" y="95.014"/></g><g style="fill:#000;fill-opacity:1"><use xlink:href="#h" x="15.938" y="52.145"/><use xlink:href="#i" x="20.171" y="52.145"/></g><use xlink:href="#e" x="24.404" y="49.332" style="fill:#000;fill-opacity:1"/><g clip-path="url(#j)"><path style="stroke:none;fill-rule:nonzero;fill:#ececec;fill-opacity:1" d="M48.316 179.707s.426-33.934.614-43.633c.191-9.699.535-20.215.742-26.27.207-6.05.36-11.308.746-17.363.387-6.05 1.355-20.214 2.031-26.265.676-6.055 2.016-13.719 2.84-17.364.828-3.644 2.484-7.363 3.113-8.906.63-1.547.95-1.644 1.418-2.234.473-.586.586-1.457 1.98-1.992 1.395-.535 5.255-1.86 8.067-1.86 2.809 0 9.844 1.325 12.192 1.86 2.347.535 3.492 1.406 4.722 1.992 1.23.59 1.809.687 4.145 2.234 2.332 1.543 8.215 5.262 12.68 8.907 4.46 3.644 13.152 11.308 19.484 17.363 6.328 6.05 16.742 16.57 26.133 26.265 9.386 9.7 30.023 31.528 41.53 43.633a87845.917 87845.917 0 0 1 41.415 43.633Zm0 0"/></g><g clip-path="url(#k)"><path style="fill:none;stroke-width:.3985;stroke-linecap:butt;stroke-linejoin:miter;stroke:gray;stroke-opacity:1;stroke-miterlimit:10" d="M-132.329-43.632s.426 33.934.614 43.633c.191 9.699.535 20.215.742 26.27.207 6.05.36 11.308.746 17.363.387 6.05 1.355 20.214 2.031 26.265.676 6.055 2.016 13.719 2.84 17.364.828 3.644 2.484 7.363 3.113 8.906.63 1.547.95 1.644 1.418 2.234.473.586.586 1.457 1.98 1.992 1.395.535 5.255 1.86 8.067 1.86 2.809 0 9.844-1.325 12.192-1.86 2.347-.535 3.492-1.406 4.722-1.992 1.23-.59 1.809-.687 4.145-2.234 2.332-1.543 8.215-5.262 12.68-8.906 4.46-3.645 13.152-11.31 19.484-17.364 6.328-6.05 16.742-16.57 26.133-26.265C-22.036 33.934-1.4 12.106 10.108 0c11.513-12.11 41.415-43.633 41.415-43.633Zm0 0" transform="matrix(1 0 0 -1 180.645 136.075)"/></g><g clip-path="url(#l)"><path style="fill:none;stroke-width:.99628;stroke-linecap:butt;stroke-linejoin:miter;stroke:#00adef;stroke-opacity:1;stroke-dasharray:2.98883,2.98883;stroke-miterlimit:10" d="m-130.735 195.997 1.785-23.567 1.782-14.214 1.785-10.707 1.785-8.465 1.785-6.676 1.785-5.152 1.785-3.887 1.785-2.906 1.786-2.196 1.785-1.715 1.785-1.417 1.781-1.243 1.785-1.16 1.786-1.117 1.785-1.121 1.785-1.14 1.785-1.173 1.785-1.207 1.785-1.25 1.785-1.289 1.786-1.328 1.785-1.363 1.781-1.399 1.785-1.425 1.785-1.461 1.785-1.485 1.786-1.511 1.785-1.532 1.785-1.554 1.785-1.575 1.785-1.59 1.785-1.605 1.782-1.62 1.785-1.634 1.785-1.644 1.785-1.656 1.785-1.665 1.785-1.671 1.786-1.68 1.785-1.692 1.785-1.695 1.785-1.7 1.785-1.71 1.781-1.71 3.57-3.438 1.786-1.723 1.785-1.73 1.785-1.723 1.785-1.735 3.57-3.476 1.786-1.742 1.781-1.75 1.785-1.739 1.785-1.754 1.786-1.746 1.785-1.75 1.785-1.754 3.57-3.5 1.785-1.757 1.786-1.75 1.78-1.758 1.786-1.754 1.785-1.758 1.785-1.754 1.785-1.762 1.786-1.753 1.785-1.762 3.57-3.516 1.785-1.761L1.34 14.09l1.782-1.766 3.57-3.516 1.785-1.761 1.785-1.758 8.926-8.809 1.781-1.765 1.785-1.758 1.786-1.766 1.785-1.758 1.785-1.761 1.785-1.766 7.14-7.047 1.782-1.765 5.355-5.286" transform="matrix(1 0 0 -1 180.645 136.075)"/></g><g clip-path="url(#m)"><path style="fill:none;stroke-width:.99628;stroke-linecap:butt;stroke-linejoin:miter;stroke:#00adef;stroke-opacity:1;stroke-dasharray:2.98883,2.98883;stroke-miterlimit:10" d="m-128.915 184.509 3.606-20.735 3.605-12.101 3.606-8.157 3.605-5.933 3.606-4.703 3.605-4.024 3.61-3.676 3.605-3.492 3.606-3.41 7.21-6.766 3.606-3.39 3.605-3.406 3.606-3.43 3.605-3.441 3.606-3.465 3.61-3.473 3.605-3.492 3.605-3.5 3.606-3.512 3.605-3.516 3.606-3.527 3.605-3.535 3.606-3.531 3.605-3.54 3.605-3.546 3.61-3.555 3.605-3.547 3.606-3.554L-20.74 45l3.606-3.555L-6.317 30.77l7.211-7.11 3.61-3.558 7.21-7.125 3.606-3.554 7.21-7.125 3.606-3.559 7.211-7.125 3.606-3.559 3.609-3.562 3.605-3.563" transform="matrix(1 0 0 -1 180.645 136.075)"/></g><g clip-path="url(#n)"><path style="fill:none;stroke-width:.99628;stroke-linecap:butt;stroke-linejoin:miter;stroke:#00adef;stroke-opacity:1;stroke-dasharray:2.98883,2.98883;stroke-miterlimit:10" d="m-128.915 199.946 3.606-18.574 3.605-10.945 3.606-7.883 3.605-6.25 3.606-5.285 3.605-4.7 3.61-4.328 3.605-4.082 3.606-3.926 3.605-3.816 3.606-3.746 3.605-3.695 3.605-3.66 3.606-3.633 3.605-3.621 3.606-3.602 3.61-3.594 3.605-3.586 3.605-3.582 3.606-3.578 3.605-3.574 7.211-7.14 10.816-10.7 3.61-3.574 14.422-14.25 3.605-3.567L-2.71 40.368l3.605-3.559 3.61-3.562 3.605-3.559 3.605-3.566 3.606-3.559 10.816-10.687 3.606-3.559 7.21-7.125 3.61-3.562 3.605-3.563" transform="matrix(1 0 0 -1 180.645 136.075)"/></g><g clip-path="url(#o)"><path style="fill:none;stroke-width:.99628;stroke-linecap:butt;stroke-linejoin:miter;stroke:#00adef;stroke-opacity:1;stroke-miterlimit:10" d="M-131.715 130.895V.001H10.109" transform="matrix(1 0 0 -1 180.645 136.075)"/></g><g style="fill:#00adef;fill-opacity:1"><use xlink:href="#p" x="68.386" y="134.082"/><use xlink:href="#q" x="72.994" y="134.082"/><use xlink:href="#q" x="77.602" y="134.082"/></g><use xlink:href="#r" x="83.745" y="130.273" style="fill:#00adef;fill-opacity:1"/><use xlink:href="#s" x="88.062" y="134.082" style="fill:#00adef;fill-opacity:1"/><g clip-path="url(#t)"><path style="fill:none;stroke-width:.99628;stroke-linecap:butt;stroke-linejoin:miter;stroke:#00adef;stroke-opacity:1;stroke-miterlimit:10" d="m10.109 0 .344-.34.347-.339.344-.34.344-.336.344-.343.343-.34.344-.336.344-.344.344-.34.343-.336.344-.343 2.063-2.04.343-.335.344-.344.348-.34.343-.336 5.844-5.777.348-.34 1.031-1.02.344-.336.344-.343 1.03-1.02.345-.336.343-.344.344-.34.344-.335.344-.344 1.03-1.02.345-.336.343-.34.348-.34.344-.34.344-.343.343-.336 4.813-4.758.344-.336.347-.343 1.031-1.02.344-.336.344-.344.344-.34.343-.335.344-.344.688-.68.343-.336.344-.34.344-.343 1.375-1.36.348-.34.687-.68.344-.335.344-.34" transform="matrix(1 0 0 -1 180.645 136.075)"/></g><g clip-path="url(#u)"><path style="fill:none;stroke-width:.99628;stroke-linecap:butt;stroke-linejoin:miter;stroke:#00adef;stroke-opacity:1;stroke-miterlimit:10" d="M-129.395 130.895V56.766h85.145" transform="matrix(1 0 0 -1 180.645 136.075)"/></g><g style="fill:#00adef;fill-opacity:1"><use xlink:href="#v" x="67.886" y="77.318"/><use xlink:href="#p" x="72.494" y="77.318"/><use xlink:href="#v" x="77.102" y="77.318"/></g><use xlink:href="#r" x="83.245" y="73.509" style="fill:#00adef;fill-opacity:1"/><use xlink:href="#s" x="87.562" y="77.318" style="fill:#00adef;fill-opacity:1"/><g clip-path="url(#w)"><path style="fill:none;stroke-width:.99628;stroke-linecap:butt;stroke-linejoin:miter;stroke:#00adef;stroke-opacity:1;stroke-miterlimit:10" d="m-44.25 56.766.89-.882.895-.883.89-.883.895-.871.894-.883.891-.883 1.79-1.773.89-.883.894-.879.895-.887.89-.879.895-.882.89-.883.895-.883.895-.879.89-.883.895-.886.894-.883.89-.88.895-.886.895-.879.89-.879.895-.886.89-.883.895-.883.895-.879.89-.883.895-.886.895-.88.89-.878.895-.887.894-.879.89-.887.895-.882.895-.88.89-.882.895-.883.89-.883.895-.879.895-.886.89-.88 1.79-1.765.89-.883.895-.879.894-.882.89-.883.895-.883.89-.879 1.79-1.766.89-.882.895-.88.895-.882.89-.883.895-.883.894-.879.89-.882.895-.883.891-.883 1.79-1.766.89-.879 1.789-1.765.89-.883 1.79-1.766.89-.882.895-.88.894-.882.89-.883.895-.883.891-.883.895-.879.894-.882.89-.883 1.79-1.766.89-.883.895-.879.894-.882.891-.883.895-.883.89-.883 1.79-1.765.89-.88 1.789-1.765.89-.883.895-.883.895-.878.89-.883.895-.883.89-.883 1.79-1.766" transform="matrix(1 0 0 -1 180.645 136.075)"/></g><g clip-path="url(#x)"><path style="fill:none;stroke-width:.99628;stroke-linecap:butt;stroke-linejoin:miter;stroke:#00adef;stroke-opacity:1;stroke-miterlimit:10" d="M-125.356 130.895V87.262h48.316" transform="matrix(1 0 0 -1 180.645 136.075)"/></g><g style="fill:#00adef;fill-opacity:1"><use xlink:href="#y" x="66.283" y="46.819"/><use xlink:href="#p" x="70.891" y="46.819"/><use xlink:href="#p" x="75.499" y="46.819"/></g><use xlink:href="#r" x="81.642" y="43.01" style="fill:#00adef;fill-opacity:1"/><use xlink:href="#s" x="85.959" y="46.819" style="fill:#00adef;fill-opacity:1"/><g clip-path="url(#z)"><path style="fill:none;stroke-width:.99628;stroke-linecap:butt;stroke-linejoin:miter;stroke:#00adef;stroke-opacity:1;stroke-miterlimit:10" d="m-77.04 87.22 1.223-1.063 1.223-1.074L-73.368 84l1.223-1.094 1.227-1.098 1.222-1.105 1.223-1.11 1.226-1.12 1.223-1.122 1.227-1.129 2.445-2.273 1.227-1.145 1.222-1.148 1.227-1.152 1.222-1.157 1.223-1.16 1.227-1.16 1.222-1.164 1.227-1.168 1.222-1.168 1.223-1.176 1.227-1.172 1.222-1.18 1.227-1.175 1.223-1.184 1.222-1.175 1.227-1.192 1.222-1.187 1.227-1.176 1.223-1.2 1.222-1.19 1.227-1.184 1.223-1.2 1.222-1.19 1.227-1.196 1.222-1.196 1.227-1.199 2.445-2.39 1.227-1.203 1.223-1.196 1.226-1.207 1.223-1.195 1.222-1.2 1.227-1.203 1.223-1.203 1.226-1.199 1.223-1.203 1.223-1.207 1.226-1.203 1.223-1.203 1.226-1.211 1.223-1.2 1.223-1.203 1.226-1.207 1.223-1.207 1.226-1.203L-3.59 16.9l1.226-1.203 1.223-1.207 1.226-1.203 1.223-1.211 1.223-1.203 1.226-1.207L4.98 8.458 6.207 7.25l2.445-2.414L9.878 3.63l1.223-1.207 1.227-1.207L13.55.005l1.223-1.207L16-2.41l1.222-1.207 1.223-1.211 1.226-1.211 1.223-1.203 1.227-1.211 2.445-2.414 1.227-1.211 1.222-1.207 1.227-1.211 2.445-2.414 1.227-1.211 1.222-1.211 1.227-1.207 1.222-1.207 1.223-1.211 1.227-1.207 1.222-1.211 1.227-1.207 1.223-1.211L42.929-29l1.227-1.207" transform="matrix(1 0 0 -1 180.645 136.075)"/></g><g style="fill:#000;fill-opacity:1"><use xlink:href="#A" x="34.692" y="107.794"/><use xlink:href="#B" x="40.449" y="107.794"/><use xlink:href="#C" x="43.008" y="107.794"/></g><g style="fill:#000;fill-opacity:1"><use xlink:href="#A" x="77.251" y="107.794"/><use xlink:href="#B" x="83.008" y="107.794"/><use xlink:href="#C" x="85.567" y="107.794"/></g><use xlink:href="#D" x="99.644" y="106.225" style="fill:#000;fill-opacity:1"/><use xlink:href="#E" x="99.644" y="108.218" style="fill:#000;fill-opacity:1"/><use xlink:href="#F" x="118.072" y="107.794" style="fill:#000;fill-opacity:1"/><g style="fill:#000;fill-opacity:1"><use xlink:href="#G" x="124.21" y="107.794"/><use xlink:href="#H" x="128.816" y="107.794"/></g><use xlink:href="#F" x="193.788" y="107.794" style="fill:#000;fill-opacity:1"/><g style="fill:#000;fill-opacity:1"><use xlink:href="#G" x="199.926" y="107.794"/><use xlink:href="#H" x="204.532" y="107.794"/></g><use xlink:href="#I" x="108.203" y="19.81" style="fill:#000;fill-opacity:1"/><g style="fill:#000;fill-opacity:1"><use xlink:href="#J" x="113.721" y="19.81"/><use xlink:href="#K" x="117.954" y="19.81"/><use xlink:href="#L" x="120.306" y="19.81"/></g><use xlink:href="#M" x="124.778" y="19.81" style="fill:#000;fill-opacity:1"/><g style="fill:#000;fill-opacity:1"><use xlink:href="#N" x="130.892" y="19.81"/><use xlink:href="#O" x="134.655" y="19.81"/><use xlink:href="#K" x="137.955" y="19.81"/><use xlink:href="#M" x="140.307" y="19.81"/><use xlink:href="#K" x="143.599" y="19.81"/><use xlink:href="#P" x="145.951" y="19.81"/><use xlink:href="#Q" x="150.419" y="19.81"/><use xlink:href="#R" x="155.122" y="19.81"/></g><path style="fill:none;stroke-width:.19925;stroke-linecap:butt;stroke-linejoin:miter;stroke:gray;stroke-opacity:1;stroke-miterlimit:10" d="m-108.29 102.88 35.258 8.847" transform="matrix(1 0 0 -1 180.645 136.075)"/><path style="fill-rule:nonzero;fill:#00adef;fill-opacity:1;stroke-width:.99628;stroke-linecap:butt;stroke-linejoin:miter;stroke:#00adef;stroke-opacity:1;stroke-miterlimit:10" d="M-108.786 102.255a1.994 1.994 0 0 1-3.988 0c0-1.098.895-1.992 1.996-1.992 1.098 0 1.992.894 1.992 1.992Zm0 0" transform="matrix(1 0 0 -1 180.645 136.075)"/><use xlink:href="#S" x="103.216" y="184.885" style="fill:#000;fill-opacity:1"/><g style="fill:#000;fill-opacity:1"><use xlink:href="#T" x="111.085" y="184.885"/><use xlink:href="#U" x="114.669" y="184.885"/></g><use xlink:href="#d" x="122.349" y="181.076" style="fill:#000;fill-opacity:1"/><use xlink:href="#V" x="126.5" y="184.885" style="fill:#000;fill-opacity:1"/><g style="fill:#000;fill-opacity:1"><use xlink:href="#W" x="129.059" y="184.885"/><use xlink:href="#X" x="133.922" y="184.885"/></g><use xlink:href="#c" x="138.659" y="181.076" style="fill:#000;fill-opacity:1"/><use xlink:href="#f" x="144.415" y="181.076" style="fill:#000;fill-opacity:1"/><use xlink:href="#Y" x="148.566" y="184.885" style="fill:#000;fill-opacity:1"/><use xlink:href="#Z" x="11.704" y="99.973" style="fill:#000;fill-opacity:1"/><g style="fill:#000;fill-opacity:1"><use xlink:href="#aa" x="11.704" y="92.276"/><use xlink:href="#ab" x="11.704" y="88.693"/><use xlink:href="#ac" x="11.704" y="83.575"/><use xlink:href="#ad" x="11.704" y="78.968"/><use xlink:href="#ae" x="11.704" y="75.364"/></g><path style="fill-rule:nonzero;fill:#fff;fill-opacity:1;stroke-width:.3985;stroke-linecap:butt;stroke-linejoin:miter;stroke:#000;stroke-opacity:1;stroke-miterlimit:10" d="M-17.832 98.212h56.128v27.465h-56.129Zm0 0" transform="matrix(1 0 0 -1 180.645 136.075)"/><path style="fill:none;stroke-width:.99628;stroke-linecap:butt;stroke-linejoin:miter;stroke:#00adef;stroke-opacity:1;stroke-dasharray:2.98883,2.98883;stroke-miterlimit:10" d="M0-.002H17.01" transform="matrix(1 0 0 -1 166.3 18.264)"/><use xlink:href="#af" x="185.799" y="20.514" style="fill:#000;fill-opacity:1"/><use xlink:href="#ag" x="195.013" y="20.514" style="fill:#000;fill-opacity:1"/><use xlink:href="#af" x="204.745" y="20.514" style="fill:#000;fill-opacity:1"/><use xlink:href="#ah" x="210.118" y="21.51" style="fill:#000;fill-opacity:1"/><path style="fill:none;stroke-width:.99628;stroke-linecap:butt;stroke-linejoin:miter;stroke:#00adef;stroke-opacity:1;stroke-miterlimit:10" d="M.002 0H17.01" transform="matrix(1 0 0 -1 166.299 30.003)"/><use xlink:href="#af" x="185.798" y="32.253" style="fill:#000;fill-opacity:1"/><use xlink:href="#ai" x="195.012" y="32.253" style="fill:#000;fill-opacity:1"/><use xlink:href="#af" x="204.744" y="32.253" style="fill:#000;fill-opacity:1"/><use xlink:href="#ah" x="210.117" y="33.249" style="fill:#000;fill-opacity:1"/></svg>