<svg xmlns="http://www.w3.org/2000/svg" xmlns:xlink="http://www.w3.org/1999/xlink" width="286.989" height="245.727" viewBox="0 0 215.242 184.295"><defs><symbol overflow="visible" id="a"><path style="stroke:none" d="M4.313-3.313c0-.624-.329-.656-.407-.656-.234 0-.469.235-.469.438 0 .14.094.219.157.265.234.22.312.516.312.75 0 .391-.562 2.391-1.594 2.391-.687 0-.687-.625-.687-.797 0-.375.14-.844.453-1.656.14-.375.172-.469.172-.625a.739.739 0 0 0-.766-.766c-.859 0-1.218 1.281-1.218 1.39 0 .079.062.11.125.11.093 0 .109-.062.14-.172.188-.656.547-1.093.922-1.093.172 0 .219.109.219.296 0 .141-.047.313-.125.516-.313.875-.531 1.438-.531 1.89 0 .845.64 1.126 1.25 1.126 1.515 0 2.046-2.828 2.046-3.406Zm0 0"/></symbol><symbol overflow="visible" id="m"><path style="stroke:none" d="M4.406-3.625a.504.504 0 0 0-.422.484c0 .172.125.329.344.329.25 0 .5-.22.5-.532 0-.422-.453-.625-.875-.625-.531 0-.844.485-.953.672a1.042 1.042 0 0 0-1-.672c-.953 0-1.484 1.156-1.484 1.39 0 .079.062.11.125.11.078 0 .109-.047.125-.11.28-.89.875-1.155 1.218-1.155.266 0 .485.171.485.593 0 .313-.375 1.75-.5 2.188-.063.265-.344.828-.828.828-.188 0-.375-.063-.454-.11.235-.046.422-.265.422-.484 0-.234-.171-.328-.343-.328-.266 0-.5.219-.5.531 0 .438.484.61.859.61.531 0 .828-.422.969-.672.219.594.75.672.984.672.969 0 1.485-1.157 1.485-1.375 0-.047-.032-.11-.11-.11-.11 0-.11.032-.156.172-.203.64-.719 1.094-1.188 1.094-.25 0-.5-.156-.5-.594 0-.203.125-.687.204-1.031.046-.156.28-1.125.296-1.188.11-.328.375-.796.844-.796.156 0 .328.015.453.109Zm0 0"/></symbol><symbol overflow="visible" id="q"><path style="stroke:none" d="M.406 1.125c-.062.25-.078.344-.453.344-.11 0-.219 0-.219.156 0 .031.032.11.125.11l.375-.016H1.078c.156 0 .297.015.438.015.046 0 .171 0 .171-.156 0-.11-.093-.11-.25-.11-.421 0-.421-.062-.421-.155a2.9 2.9 0 0 1 .109-.438l.328-1.328c.094.187.344.547.86.547C3.359.094 4.5-1.172 4.5-2.516c0-.906-.563-1.453-1.234-1.453-.188 0-.641.047-1.188.656-.125-.5-.547-.656-.844-.656-.375 0-.578.281-.703.531-.14.313-.265.813-.265.86 0 .078.062.11.125.11.093 0 .109-.048.156-.235.172-.703.36-1.031.656-1.031.281 0 .281.28.281.421 0 .063-.015.204-.03.266Zm1.625-3.89c.047-.172.047-.188.172-.329.235-.312.64-.64 1.047-.64.422 0 .594.421.594.843 0 .391-.25 1.516-.531 1.985-.313.515-.688.781-1.016.781-.578 0-.735-.703-.735-.766 0-.062.032-.109.032-.156Zm0 0"/></symbol><symbol overflow="visible" id="b"><path style="stroke:none" d="M.766-1.063c-.032.016-.391.344-.438.391-.125.094-.125.094-.125.14 0 .016.047.11.11.11.03 0 .046 0 .124-.078l.36-.313c.078.36.281.891.828.891.516 0 1.063-.515 1.063-.515.015-.016.03-.016.03-.063s-.062-.125-.109-.125c-.03 0-.046.016-.093.063-.297.234-.594.437-.875.437-.454 0-.454-.734-.454-.844 0-.172 0-.187.063-.25.36-.312.703-.672.984-1.078.5-.672.547-1.187.547-1.375 0-.219-.078-.547-.422-.547-.765 0-1.593 1.813-1.593 2.969v.188Zm.468-.437c.032-.172.235-1.172.516-1.797.094-.187.328-.719.61-.719.187 0 .203.204.203.329 0 .703-.626 1.546-1.329 2.187Zm0 0"/></symbol><symbol overflow="visible" id="c"><path style="stroke:none" d="M.422-4.094v.235h.234c.219 0 .406.03.406.234v2.969c0 .39-.39.406-.64.406V0l.36-.031h1.155V-.25c-.265 0-.64-.016-.64-.422v-.14l.016-3c.03.109.093.218.14.328.375.875.781 1.734 1.156 2.609l.313.672c.031.078.062.203.187.203.11-.016.141-.125.188-.219.5-1.11.969-2.203 1.484-3.312.047-.11.11-.219.14-.328v3.234c0 .047.016.094.016.14 0 .22-.203.25-.406.25-.078 0-.172-.015-.234-.015V0h1.156l.406-.031.235.031v-.25c-.078 0-.157.016-.235.016-.203 0-.406-.032-.406-.235V-3.609c0-.22.203-.25.406-.25h.235v-.235h-1.11c-.109 0-.171.032-.218.14l-.063.142c-.453.984-.89 1.968-1.312 2.937-.047.11-.11.203-.125.297-.5-1.063-.954-2.156-1.438-3.219l-.078-.156c-.047-.11-.11-.14-.219-.14Zm0 0"/></symbol><symbol overflow="visible" id="d"><path style="stroke:none" d="M.875-.14C.609-.079.281.14.281.452c0 .625 1.11.766 1.578.766.313 0 .625-.047.922-.157.25-.093.563-.265.594-.578V.438c0-.766-.906-.875-1.484-.875H1.25a.405.405 0 0 1-.375-.391c0-.063.031-.203.078-.203H.97c.047 0 .14.062.203.078.156.062.328.078.484.078.485 0 1.047-.297 1.094-.828v-.047c0-.234-.094-.375-.25-.578.219-.094.375-.172.61-.172a.177.177 0 0 0-.047.125c0 .125.109.188.203.188.125 0 .203-.079.203-.188v-.016c0-.171-.156-.296-.328-.312h-.047c-.235 0-.453.078-.656.203-.016.016-.047.047-.079.047h-.015c-.031 0-.094-.047-.125-.063a1.246 1.246 0 0 0-.578-.125c-.485 0-1.125.282-1.125.875 0 .204.078.391.203.532.015.03.062.046.062.078 0 .062-.094.172-.125.265-.015.079-.031.141-.031.22 0 .202.094.39.25.53ZM.672.483V.438c0-.36.437-.438.672-.438h.547c.39 0 1.03.016 1.078.422v.031c0 .5-1.031.563-1.156.563C1.405 1.016.718.875.671.484Zm.344-2.156c0-.031-.016-.062-.016-.094 0-.359.219-.671.625-.671.375 0 .625.25.625.687 0 .39-.234.672-.61.672-.359 0-.577-.219-.624-.594Zm0 0"/></symbol><symbol overflow="visible" id="f"><path style="stroke:none" d="M.39-4.094v.235h.235c.203 0 .406.03.406.234 0 .031-.015.078-.015.11v3.03c0 .22-.188.25-.391.25C.547-.234.453-.25.391-.25V0h3.546l.188-1.61h-.219c-.047.407-.094.844-.437 1.11-.328.25-.735.25-1.11.25h-.5c-.125 0-.234-.016-.234-.188v-3.171c0-.22.188-.25.375-.25H2.422v-.235h-.797l-.11.032H.829Zm0 0"/></symbol><symbol overflow="visible" id="g"><path style="stroke:none" d="M.406-2.578v.25h.078c.22 0 .36.015.36.375v1.469c0 .218-.11.234-.453.234V0l.328-.031H1.75V-.25h-.14c-.141 0-.282-.016-.282-.203v-2.188Zm.547-1.469a.367.367 0 0 0-.312.36c0 .187.14.359.359.359.203 0 .36-.172.36-.36 0-.187-.141-.359-.36-.359H.953Zm0 0"/></symbol><symbol overflow="visible" id="h"><path style="stroke:none" d="M2.719-.36V.688c0 .172-.063.235-.469.235v.234h1.438V.922h-.141c-.172 0-.328-.031-.328-.235V-2.64l-.188.016-.078.125-.156.375H2.78c-.172-.344-.594-.516-.953-.516-.734 0-1.453.516-1.5 1.282v.046c0 .782.688 1.36 1.469 1.36.344 0 .687-.14.922-.406ZM.89-1.202v-.094c0-.547.406-1.094.968-1.125h.032c.328 0 .625.203.765.485.031.078.078.156.078.234v.828c0 .344-.406.625-.687.703-.078.016-.14.031-.219.031h-.047C1.234-.188.938-.719.891-1.203Zm0 0"/></symbol><symbol overflow="visible" id="i"><path style="stroke:none" d="M2.703-1.61H.672c-.094 0-.203 0-.203.11 0 .094.11.094.187.094h2.047v2.14a.1.1 0 0 0 .094.094c.062-.015.094-.047.094-.094v-2.14h2.14c.047 0 .078-.047.078-.094 0-.11-.093-.11-.187-.11H2.89v-2.124a.1.1 0 0 0-.094-.094c-.063 0-.094.047-.094.094Zm0 0"/></symbol><symbol overflow="visible" id="j"><path style="stroke:none" d="M4.266-.344c.078.125.28.328.39.328.047 0 .078-.046.078-.093v-1.062c0-.235.11-.25.485-.25v-.235l-.375.015H3.578l-.312-.015v.234c.093 0 .218-.016.343-.016.329 0 .532.032.532.282v.343c0 .188-.032.344-.235.485-.234.172-.578.203-.86.203-1.03 0-1.905-.672-1.905-1.938 0-.359.062-.703.234-1.015.281-.578.953-.906 1.578-.906.735 0 1.39.546 1.516 1.312.015.094.015.188.14.188s.125-.063.125-.125v-1.5c0-.063-.03-.11-.093-.11-.094 0-.204.203-.282.313-.046.062-.109.14-.156.219a1.906 1.906 0 0 0-1.328-.532c-1.14 0-2.406.844-2.406 2.14C.469-.686 1.734.126 2.938.126c.484 0 .968-.078 1.328-.469Zm0 0"/></symbol><symbol overflow="visible" id="k"><path style="stroke:none" d="M1.047-2.406c.172-.031.344-.063.516-.063.343 0 .78.14.78.703v.141c-.75 0-1.952.188-1.952.984 0 .532.625.688 1.062.688.36 0 .797-.125.953-.469h.016c0 .25.219.453.453.453.281 0 .61-.156.656-.469v-.437h-.219v.344c0 .14-.078.297-.234.297-.219 0-.234-.235-.234-.36v-.937c0-.078.015-.14.015-.219 0-.672-.718-.922-1.265-.922-.39 0-.985.047-.985.516 0 .14.094.297.282.297a.287.287 0 0 0 .296-.297c0-.094-.046-.203-.14-.25Zm1.297.969v.468c0 .172 0 .313-.094.469-.14.234-.438.36-.703.36-.266 0-.64-.157-.64-.5 0-.61.921-.797 1.437-.797Zm0 0"/></symbol><symbol overflow="visible" id="l"><path style="stroke:none" d="M.453-2.578.375-1.547h.219c.015-.219.031-.453.172-.625.156-.187.453-.203.718-.203h.72C1.593-1.672.968-.985.358-.281c-.046.047-.078.11-.078.156 0 .094.063.125.14.125h2.36l.11-1.188h-.22c-.03.235-.046.5-.187.704-.187.25-.53.265-.828.265H.938c.593-.719 1.234-1.39 1.843-2.094.047-.046.078-.093.078-.156 0-.094-.062-.11-.125-.11Zm0 0"/></symbol><symbol overflow="visible" id="o"><path style="stroke:none" d="M.328-.25V0l.313-.031h1.078V-.25c-.188 0-.438-.063-.438-.266 0-.062.032-.125.047-.187.078-.172.156-.36.234-.547.016-.047.016-.11.11-.11h1.656c.11 0 .188.329.266.485.047.125.094.234.14.344a.368.368 0 0 1 .032.125v.015c-.032.141-.282.141-.438.141h-.047V0h.672l.11-.031h.578L5.03 0v-.25h-.187c-.344 0-.422-.078-.516-.344-.344-.875-.719-1.734-1.078-2.61l-.328-.812c-.063-.125-.078-.265-.25-.265s-.188.14-.235.25l-.312.797c-.36.828-.703 1.671-1.047 2.5-.156.421-.406.484-.75.484Zm1.375-1.344L2.5-3.516l.797 1.922Zm0 0"/></symbol><symbol overflow="visible" id="p"><path style="stroke:none" d="M.406-4.094v.235h.235c.218 0 .406.03.406.234V-.485c0 .22-.203.25-.39.25-.095 0-.173-.015-.25-.015V0h2.452c.594 0 1.344-.094 1.672-.75a.852.852 0 0 0 .078-.344c0-.64-.718-.984-1.296-1.047.421-.109 1.109-.312 1.109-.921 0-.438-.39-.75-.75-.891-.328-.125-.656-.14-.985-.14ZM1.61-2.03h.907c.109 0 .218-.016.328-.016.531 0 1.125.313 1.125.922 0 .484-.453.797-.906.875H1.859c-.125 0-.25 0-.25-.203Zm0-.203v-1.422c0-.172.094-.203.235-.203h.89c.407 0 .797.093 1 .5a.634.634 0 0 1 .063.296c0 .485-.547.829-1.031.829Zm0 0"/></symbol><symbol overflow="visible" id="n"><path style="stroke:none" d="M6.344-2.969c.125 0 .297 0 .297-.187 0-.203-.188-.203-.329-.203H.845c-.14 0-.328 0-.328.203 0 .187.171.187.296.187ZM6.312-1.14c.141 0 .329 0 .329-.203 0-.187-.172-.187-.297-.187H.812c-.125 0-.296 0-.296.187 0 .203.187.203.328.203Zm0 0"/></symbol><clipPath id="e"><path d="M14 7.781h193.863V161H14Zm0 0"/></clipPath></defs><path style="fill:none;stroke-width:.3985;stroke-linecap:butt;stroke-linejoin:miter;stroke:#000;stroke-opacity:1;stroke-miterlimit:10" d="M.002 0h192.277" transform="matrix(1 0 0 -1 13.592 169.176)"/><path style="stroke:none;fill-rule:nonzero;fill:#000;fill-opacity:1" d="m207.863 169.176-3.187-1.594 1.195 1.594-1.195 1.594"/><path style="fill:none;stroke-width:.3985;stroke-linecap:butt;stroke-linejoin:miter;stroke:#000;stroke-opacity:1;stroke-miterlimit:10" d="M.002 0v159.403" transform="matrix(1 0 0 -1 13.592 169.176)"/><path style="stroke:none;fill-rule:nonzero;fill:#000;fill-opacity:1" d="m13.594 7.781-1.598 3.188 1.598-1.196 1.594 1.196"/><path style="fill:none;stroke-width:.19925;stroke-linecap:butt;stroke-linejoin:miter;stroke:gray;stroke-opacity:1;stroke-miterlimit:10" d="M14.826-2.125v4.25m62.883-4.25v4.25m60.847-4.25v4.25" transform="matrix(1 0 0 -1 13.592 169.176)"/><use xlink:href="#a" x="24.381" y="177.155" style="fill:#000;fill-opacity:1"/><use xlink:href="#b" x="28.857" y="178.218" style="fill:#000;fill-opacity:1"/><use xlink:href="#a" x="85.554" y="177.155" style="fill:#000;fill-opacity:1"/><use xlink:href="#c" x="90.03" y="178.152" style="fill:#000;fill-opacity:1"/><use xlink:href="#a" x="147.832" y="177.155" style="fill:#000;fill-opacity:1"/><use xlink:href="#d" x="152.309" y="178.152" style="fill:#000;fill-opacity:1"/><path style="fill:none;stroke-width:.3985;stroke-linecap:butt;stroke-linejoin:miter;stroke:gray;stroke-opacity:1;stroke-dasharray:2.98883,2.98883;stroke-miterlimit:10" d="m14.111 21.52.031 1.074.036 1.078.035 1.074.035 1.078.035 1.075.035 1.078.07 2.148.036 1.078.035 1.075.035 1.078.035 1.074.04 1.078.034 1.074.035 1.078.04 1.075.035 1.074.039 1.078.035 1.074.039 1.078.039 1.075.035 1.078.04 1.074.038 1.078.04 1.074.038 1.078.079 2.149.039 1.078.043 1.074.039 1.078.043 1.074.039 1.079.043 1.074.043 1.078.039 1.074.043 1.074.043 1.078.043 1.075.043 1.078.046 1.074.043 1.078.043 1.074.047 1.079.047 1.074.043 1.074.047 1.078.047 1.074.05 1.078.048 1.075.046 1.078.051 1.074.05 1.078.048 1.074.05 1.075.051 1.078.055 1.074.05 1.078.056 1.074.05 1.078.055 1.075.055 1.078.058 1.074.055 1.078.117 2.148.059 1.079.062 1.074.059 1.078.062 1.074.063 1.078.066 1.075.063 1.078.066 1.074.07 1.074.067 1.078.07 1.074.074 1.079.07 1.074.079 1.078.074 1.074.078 1.078.078 1.074.082 1.075.082 1.078.086 1.074.09 1.078.086 1.074.094 1.078.094 1.075.097 1.078.098 1.074.101 1.074.106 1.078.105 1.075.114 1.078.113 1.074.117 1.078.121 1.074.125 1.078.133 1.075.137 1.074.137 1.078.148 1.074.152 1.078.16 1.075.168 1.078.18 1.074.192 1.078.203 1.074.222 1.078.239 1.075.27 1.074.3 1.078.34 1.074.402 1.078.477 1.074.593 1.079.778 1.074 1.226 1.078 3.899.687" transform="matrix(1 0 0 -1 13.592 169.176)"/><path style="fill:none;stroke-width:.3985;stroke-linecap:butt;stroke-linejoin:miter;stroke:gray;stroke-opacity:1;stroke-dasharray:2.98883,2.98883;stroke-miterlimit:10" d="m175.135 21.52-2.145 1.074-2.11 1.078-2.066 1.074-2.031 1.078-1.992 1.075-1.961 1.078-1.926 1.074-1.89 1.074-1.868 1.078-1.824 1.075-1.809 1.078-1.765 1.074-1.742 1.078-1.72 1.074-1.679 1.078-1.66 1.075-1.633 1.074-1.613 1.078-1.582 1.074-1.563 1.078-1.535 1.075-1.515 1.078-1.496 1.074-1.47 1.078-1.445 1.074-1.43 1.078-1.405 1.075-1.391 1.074-1.367 1.078-1.364 1.074-1.328 1.078-1.312 1.074-1.3 1.079-1.282 1.074-1.266 1.078-1.254 1.074-1.222 1.074-1.223 1.078-1.207 1.075-1.184 1.078-1.175 1.074-1.157 1.078-1.144 1.074-1.13 1.079-1.124 1.074-1.11 1.074-1.085 1.078-1.09 1.074-1.067 1.078-1.058 1.075-1.04 1.078-1.038 1.074-1.032 1.078-2.015 2.149-.992 1.078-.985 1.074-.972 1.078L91.38 85l-.957 1.078-.95 1.075-.937 1.078-.93 1.074-.922 1.078-.914 1.074-.906 1.074-.898 1.079-.895 1.074-.883 1.078-.879 1.074-.867 1.078-.867 1.075-.855 1.078-.852 1.074-.848 1.074-.84 1.078-.835 1.074-.833 1.079-.824 1.074-.82 1.078-.816 1.074-.813 1.078-.809 1.074-.804 1.075-.801 1.078-.797 1.074-.797 1.078-.793 1.074-.789 1.078-.789 1.075-.789 1.078-1.57 2.148-.785 1.078-.79 1.075-.785 1.078-.789 1.074-.789 1.078-.793 1.074-.8 1.078-.801 1.075-.805 1.074-.812 1.078-.825 1.074-.832 1.078-.84 1.075-.855 1.078-.871 1.074-.89 1.078-.91 1.074-.934 1.078-.97 1.075-1.007 1.074-1.055 1.078-1.113 1.074-1.188 1.078-1.296 1.074-1.454 1.079-1.714 1.074-2.368 1.078-5.261.687" transform="matrix(1 0 0 -1 13.592 169.176)"/><g clip-path="url(#e)"><path style="fill:none;stroke-width:.99628;stroke-linecap:butt;stroke-linejoin:miter;stroke:#00adef;stroke-opacity:1;stroke-miterlimit:10" d="m194.271 22.961-1.125.32-.562.157-.563.16-.562.164-1.125.32-.563.164-.562.168-.567.164-.562.164-.563.168-.562.164-1.688.504-2.812.86-1.125.351-.567.172-.562.18-1.125.351-1.125.36-.563.183-.562.18-2.25.734-1.125.375-.566.184-.563.188-2.25.765-1.125.39-.562.192-.563.2-.562.195-1.125.398-.567.2-.562.203-.563.199-.562.203-1.688.62-.562.204-2.813 1.055-.562.215-.567.218-.562.215-.563.219-.562.215-.563.222-.562.22-1.125.445-.563.226-.562.23-1.125.454-.563.23-.566.23-.563.235-.562.23-.563.239-.562.234-1.125.477-1.688.726-1.687.739-.563.25-.566.25-1.688.761-1.125.516-1.125.523H14.826v139.875" transform="matrix(1 0 0 -1 13.592 169.176)"/></g><path style="stroke:none;fill-rule:nonzero;fill:#fff;fill-opacity:1" d="M54.438 91.09h28.585v-5.223H54.438Zm0 0"/><g style="fill:#000;fill-opacity:1"><use xlink:href="#f" x="54.438" y="89.928"/><use xlink:href="#g" x="58.942" y="89.928"/><use xlink:href="#h" x="61.045" y="89.928"/><use xlink:href="#i" x="64.891" y="89.928"/><use xlink:href="#j" x="70.48" y="89.928"/><use xlink:href="#k" x="76.107" y="89.928"/><use xlink:href="#l" x="79.76" y="89.928"/></g><path style="stroke:none;fill-rule:nonzero;fill:#fff;fill-opacity:1" d="M15.586 91.09h10.453v-5.223H15.586Zm0 0"/><g style="fill:#000;fill-opacity:1"><use xlink:href="#f" x="15.585" y="89.928"/><use xlink:href="#g" x="20.089" y="89.928"/><use xlink:href="#h" x="22.192" y="89.928"/></g><path style="stroke:none;fill-rule:nonzero;fill:#fff;fill-opacity:1" d="M132.148 90.508h12.547v-4.059h-12.547Zm0 0"/><g style="fill:#000;fill-opacity:1"><use xlink:href="#j" x="132.148" y="90.509"/><use xlink:href="#k" x="137.775" y="90.509"/><use xlink:href="#l" x="141.428" y="90.509"/></g><path style="stroke:none;fill-rule:nonzero;fill:#ffe5bf;fill-opacity:1" d="M71.344 160.418h39.91v-14.762h-39.91Zm0 0"/><use xlink:href="#m" x="73.336" y="155.381" style="fill:#000;fill-opacity:1"/><use xlink:href="#d" x="78.559" y="156.377" style="fill:#000;fill-opacity:1"/><use xlink:href="#n" x="85.269" y="155.381" style="fill:#000;fill-opacity:1"/><g style="fill:#000;fill-opacity:1"><use xlink:href="#o" x="96.192" y="151.707"/><use xlink:href="#c" x="101.549" y="151.707"/></g><path style="fill:none;stroke-width:.379;stroke-linecap:butt;stroke-linejoin:miter;stroke:#000;stroke-opacity:1;stroke-miterlimit:10" d="M0-.002h11.874" transform="matrix(1 0 0 -1 96.192 153.139)"/><g style="fill:#000;fill-opacity:1"><use xlink:href="#o" x="96.909" y="158.424"/><use xlink:href="#p" x="102.266" y="158.424"/></g><path style="fill-rule:nonzero;fill:#fff;fill-opacity:1;stroke-width:.3985;stroke-linecap:butt;stroke-linejoin:miter;stroke:#000;stroke-opacity:1;stroke-miterlimit:10" d="M140.549 43.04a1.993 1.993 0 1 1-3.986-.002 1.993 1.993 0 0 1 3.986.001Zm0 0" transform="matrix(1 0 0 -1 13.592 169.176)"/><path style="stroke:none;fill-rule:nonzero;fill:#fff;fill-opacity:1" d="M149.605 135.18h5.086v-4.063h-5.086Zm0 0"/><use xlink:href="#p" x="149.603" y="135.179" style="fill:#000;fill-opacity:1"/><path style="fill-rule:nonzero;fill:#fff;fill-opacity:1;stroke-width:.3985;stroke-linecap:butt;stroke-linejoin:miter;stroke:#000;stroke-opacity:1;stroke-miterlimit:10" d="M16.818 43.04a1.99 1.99 0 0 1-1.992 1.991 1.99 1.99 0 0 1-1.992-1.992 1.99 1.99 0 0 1 1.992-1.992 1.99 1.99 0 0 1 1.992 1.992Zm0 0" transform="matrix(1 0 0 -1 13.592 169.176)"/><path style="stroke:none;fill-rule:nonzero;fill:#fff;fill-opacity:1" d="M25.738 135.18h5.36v-4.063h-5.36Zm0 0"/><use xlink:href="#o" x="25.74" y="135.179" style="fill:#000;fill-opacity:1"/><path style="fill-rule:nonzero;fill:#fff;fill-opacity:1;stroke-width:.3985;stroke-linecap:butt;stroke-linejoin:miter;stroke:#000;stroke-opacity:1;stroke-miterlimit:10" d="M79.701 43.04a1.99 1.99 0 0 1-1.992 1.991 1.99 1.99 0 0 1-1.992-1.992 1.99 1.99 0 0 1 1.992-1.992A1.99 1.99 0 0 1 79.7 43.04Zm0 0" transform="matrix(1 0 0 -1 13.592 169.176)"/><path style="stroke:none;fill-rule:nonzero;fill:#fff;fill-opacity:1" d="M88.043 135.18h6.516v-4.063h-6.516Zm0 0"/><use xlink:href="#c" x="88.041" y="135.179" style="fill:#000;fill-opacity:1"/><use xlink:href="#a" x="205.463" y="177.022" style="fill:#000;fill-opacity:1"/><use xlink:href="#q" x="4.981" y="8.842" style="fill:#000;fill-opacity:1"/></svg>