<svg xmlns="http://www.w3.org/2000/svg" xmlns:xlink="http://www.w3.org/1999/xlink" width="325.476" height="142.844" viewBox="0 0 244.107 107.133"><defs><symbol overflow="visible" id="a"><path style="stroke:none" d="M.406 1.125c-.062.25-.078.344-.453.344-.11 0-.219 0-.219.156 0 .031.032.11.125.11l.375-.016H1.078c.156 0 .297.015.438.015.046 0 .171 0 .171-.156 0-.11-.093-.11-.25-.11-.421 0-.421-.062-.421-.155a2.9 2.9 0 0 1 .109-.438l.328-1.328c.094.187.344.547.86.547C3.359.094 4.5-1.172 4.5-2.516c0-.906-.563-1.453-1.234-1.453-.188 0-.641.047-1.188.656-.125-.5-.547-.656-.844-.656-.375 0-.578.281-.703.531-.14.313-.265.813-.265.86 0 .078.062.11.125.11.093 0 .109-.048.156-.235.172-.703.36-1.031.656-1.031.281 0 .281.28.281.421 0 .063-.015.204-.03.266Zm1.625-3.89c.047-.172.047-.188.172-.329.235-.312.64-.64 1.047-.64.422 0 .594.421.594.843 0 .391-.25 1.516-.531 1.985-.313.515-.688.781-1.016.781-.578 0-.735-.703-.735-.766 0-.062.032-.109.032-.156Zm0 0"/></symbol><symbol overflow="visible" id="d"><path style="stroke:none" d="M5.797-5.063c.36-.578.672-.75 1.094-.78.109-.016.187-.016.187-.173 0-.062-.062-.109-.125-.109-.031 0-.25.031-.734.031-.282 0-.594-.031-.86-.031-.062 0-.171.016-.171.156 0 .11.109.125.125.125.093 0 .421.016.421.282 0 .078-.03.14-.062.203-.047.078-.063.109-.094.171L2.766-.827l-.672-4.75c0-.078.062-.266.61-.266.108 0 .218 0 .218-.172 0-.093-.094-.109-.14-.109-.157 0-.345.016-.516.016-.188 0-.375.015-.579.015-.156 0-.406 0-.484-.015-.078 0-.437-.016-.516-.016-.03 0-.156 0-.156.156 0 .125.094.125.203.125.5 0 .516.078.547.297L2.078-.03c.016.172.031.234.188.234.14 0 .187-.078.25-.187Zm0 0"/></symbol><symbol overflow="visible" id="e"><path style="stroke:none" d="M3.938-5.469c.046-.187.078-.281.218-.312.078-.016.36-.016.547-.016 1.031 0 1.344.063 1.344.766 0 .11 0 .25-.078.781l-.016.078c0 .063.031.125.125.125.11 0 .125-.094.14-.219l.235-1.562c.016-.031.016-.094.016-.125 0-.125-.078-.125-.25-.125h-5.11c-.218 0-.218.016-.28.187L.265-4.312c-.032.109-.032.14-.032.14 0 .047.032.125.11.125.11 0 .125-.062.172-.219.5-1.406.78-1.53 2.078-1.53h.344c.25 0 .25.03.25.109 0 .046-.016.109-.032.187L1.953-.703c-.078.312-.11.422-1.062.422-.282 0-.36 0-.36.172C.531 0 .641 0 .687 0c.235 0 .485-.016.735-.016s.5-.015.75-.015c.406 0 .422 0 .75.015.125 0 .703.016.781.016.078 0 .188 0 .188-.156 0-.125-.079-.125-.297-.125-.235 0-.344 0-.578-.016-.204-.031-.313-.031-.313-.187 0-.047.016-.11.031-.172Zm0 0"/></symbol><symbol overflow="visible" id="b"><path style="stroke:none" d="M2.14-3.797c0-.187-.015-.187-.203-.187-.39.39-1 .39-1.218.39v.235c.156 0 .562 0 .922-.172v3.015c0 .204 0 .282-.625.282h-.25V0c.328-.031.796-.031 1.125-.031.328 0 .796 0 1.125.031v-.234h-.25c-.625 0-.625-.078-.625-.282Zm0 0"/></symbol><symbol overflow="visible" id="z"><path style="stroke:none" d="M1.297-2.344h.984v-.234h-.984v-1.11h-.219c0 .547-.266 1.126-.86 1.157v.187h.595V-.75c0 .625.468.813.875.813.406 0 .718-.329.718-.813v-.328h-.234v.312c0 .422-.219.61-.438.61-.437 0-.437-.485-.437-.594Zm0 0"/></symbol><symbol overflow="visible" id="A"><path style="stroke:none" d="M2.813-1.36c.124 0 .171 0 .171-.14 0-.453-.25-1.172-1.25-1.172-.843 0-1.453.64-1.453 1.36C.281-.563.97.063 1.812.063c.875 0 1.172-.657 1.172-.782 0-.031-.015-.094-.109-.094-.078 0-.094.032-.11.11-.187.437-.64.547-.906.547a.981.981 0 0 1-.78-.36c-.22-.28-.22-.671-.22-.843ZM.875-1.53c.063-.797.61-.953.86-.953.765 0 .812.78.812.953Zm0 0"/></symbol><symbol overflow="visible" id="B"><path style="stroke:none" d="M3.219-1.125H3c-.016.094-.078.484-.156.547-.047.047-.531.047-.625.047h-1.11l.766-.625c.203-.172.734-.547.922-.735.172-.171.422-.484.422-.906 0-.75-.672-1.187-1.485-1.187-.765 0-1.296.515-1.296 1.078 0 .297.25.344.312.344a.32.32 0 0 0 .328-.329c0-.125-.078-.328-.344-.328.141-.297.5-.531.922-.531.625 0 .953.469.953.953 0 .422-.28.86-.687 1.25L.5-.25C.437-.187.437-.187.437 0h2.594Zm0 0"/></symbol><symbol overflow="visible" id="c"><path style="stroke:none" d="M1.625-.156c0 .61-.156 1.172-.61 1.625-.03.031-.093.093-.093.14 0 .063.062.11.094.11.156 0 .375-.313.484-.485a2.37 2.37 0 0 0 .36-1.25c0-.39-.094-.968-.626-.968C.97-.984.797-.72.797-.5c0 .281.203.484.469.484.14 0 .265-.03.359-.14Zm0 0"/></symbol><symbol overflow="visible" id="n"><path style="stroke:none" d="M.344-6.11v.282h.344c.296 0 .562.031.562.39v4.75c0 .36-.297.407-.594.407H.344v.265h5.265L6-2.328h-.25c-.094.562-.188 1.203-.563 1.61-.406.421-1.046.437-1.593.437h-1.14c-.188 0-.392 0-.392-.328v-2.438h.86c.312 0 .672.031.828.297.125.188.14.438.14.672v.094h.25v-2.391h-.25v.094c0 .5-.124.906-.687.937-.156.031-.344.031-.515.031h-.626v-2.203c0-.312.188-.312.391-.312h1.172c.625 0 1.328.031 1.656.719.14.328.172.671.219 1.015h.25L5.5-6.109Zm2.406-.765.11.234c.421-.14.843-.25 1.265-.39.188-.047.5-.094.5-.375 0-.188-.156-.36-.344-.36-.11 0-.203.079-.297.125l-.28.172c-.313.188-.626.39-.954.594Zm0 0"/></symbol><symbol overflow="visible" id="o"><path style="stroke:none" d="M3.484-.531v1.625c0 .328-.187.36-.687.36v.28l.64-.03h1.407v-.25h-.188c-.281 0-.5-.032-.5-.376v-5.047l-.218.016-.11.203-.234.578c-.094-.11-.156-.234-.235-.328a1.316 1.316 0 0 0-1.03-.469c-1.079 0-2.017.906-2.017 2.016 0 1.047.813 2.047 1.954 2.047.453 0 .984-.235 1.218-.625ZM1.078-1.797v-.11c0-.734.39-1.765 1.297-1.812h.031c.578 0 1.016.563 1.11 1.094v1.406c0 .735-.922 1.078-1.204 1.078h-.046C1.609-.188 1.25-.859 1.14-1.42c-.032-.126-.032-.25-.063-.376Zm0 0"/></symbol><symbol overflow="visible" id="p"><path style="stroke:none" d="M.313-3.86v.266H.39c.25 0 .593.031.593.281.016.11.016.188.016.297v1.782c0 .28.016.53.14.78.266.438.813.548 1.282.548.5 0 .984-.297 1.14-.766l.016.766 1.328-.11V-.28H4.75c-.266 0-.531-.031-.531-.438v-3.25l-1.36.11v.265h.125c.282 0 .563.031.563.453v1.766C3.5-.797 3.14-.141 2.453-.141c-.36 0-.687-.078-.765-.546-.016-.172-.016-.329-.016-.5V-3.97Zm0 0"/></symbol><symbol overflow="visible" id="q"><path style="stroke:none" d="M.36-3.86v.266H.5c.297 0 .516.047.516.453v2.485c0 .36-.25.375-.688.375v.265h1.938V-.28h-.141c-.234 0-.469-.031-.469-.313v-3.375Zm.765-2.156c-.234.047-.422.235-.422.485s.219.468.485.468h.062a.474.474 0 0 0 .422-.468.477.477 0 0 0-.484-.485Zm0 0"/></symbol><symbol overflow="visible" id="r"><path style="stroke:none" d="M.328-6.14v.28h.11c.312 0 .578.016.578.47v4.718c0 .375-.25.39-.641.39H.328v.266h2.016V-.28h-.235c-.234 0-.453-.047-.453-.36v-5.593Zm0 0"/></symbol><symbol overflow="visible" id="s"><path style="stroke:none" d="M.266-6.14v.28h.14c.297 0 .547.032.547.454v5.39l.25-.015.344-.531c.312.453.75.656 1.234.656 1.125 0 2.031-.953 2.031-2.047 0-.953-.765-2.016-1.937-2.016-.484 0-.89.172-1.281.563v-2.828Zm3.75 4.406c-.032.421-.079.796-.344 1.109a1.252 1.252 0 0 1-.969.484c-.375 0-.75-.218-.953-.546a.457.457 0 0 1-.125-.297v-2c.063-.391.703-.75 1.172-.75 1.047 0 1.234 1.14 1.234 1.812 0 .063 0 .125-.015.188Zm0 0"/></symbol><symbol overflow="visible" id="t"><path style="stroke:none" d="M.266-3.86v.266h.14c.281 0 .547.031.547.453v2.485c0 .36-.234.375-.687.375v.265L.89-.03h1.562v-.25h-.297c-.312 0-.562-.047-.562-.375v-1.516c.062-.625.234-1.562 1.14-1.562-.125.062-.171.203-.171.328a.39.39 0 1 0 .78 0c0-.375-.359-.563-.687-.563-.547 0-.984.469-1.11.969v-.969Zm0 0"/></symbol><symbol overflow="visible" id="u"><path style="stroke:none" d="M1.031-2.063h2.657c.109 0 .156-.046.156-.156 0-1.125-.703-1.797-1.64-1.797-1.095 0-1.954.954-1.954 2.047C.25-.875 1.125.094 2.344.094c.64 0 1.281-.453 1.469-1.078.015-.016.015-.063.015-.094a.107.107 0 0 0-.11-.11c-.171 0-.171.266-.265.391-.219.375-.656.64-1.094.64h-.062C1.828-.171 1.422-.5 1.219-.921c-.172-.36-.188-.75-.188-1.14Zm.016-.218c0-.594.25-1.281.906-1.485a.914.914 0 0 1 .203-.03c.781 0 1.063.796 1.063 1.515Zm0 0"/></symbol><symbol overflow="visible" id="v"><path style="stroke:none" d="M.313-3.86v.266h.14c.266 0 .547.031.547.453v2.485c0 .36-.234.375-.688.375v.265L.954-.03H2.36v-.25h-.203c-.265 0-.484-.047-.484-.375v-1.61c0-.687.406-1.468 1.25-1.468.484 0 .625.437.625 1v2.109c0 .313-.25.344-.547.344h-.14v.265L3.5-.03h1.406v-.25h-.172c-.265 0-.515-.031-.515-.36v-2.015c0-.281-.016-.531-.14-.781-.235-.422-.704-.532-1.141-.532-.547 0-1.11.375-1.313.89l-.016-.89Zm0 0"/></symbol><symbol overflow="visible" id="w"><path style="stroke:none" d="M1.36-5.531c0 .656-.298 1.718-1.188 1.718v.22h.781v2.374c0 .282.016.547.156.782.22.39.672.53 1.079.53h.078c.687-.124.796-.859.796-1.39v-.328h-.25c0 .125.016.25.016.39 0 .391-.094 1.079-.625 1.079-.484 0-.594-.563-.594-1.016v-2.422h1.313v-.265H1.609v-1.672Zm0 0"/></symbol><symbol overflow="visible" id="x"><path style="stroke:none" d="M1.094-3.484c.25-.22.61-.313.937-.313.313 0 .594.172.781.438.172.25.172.53.172.828v.156c-.734.078-1.468.078-2.093.547-.297.219-.516.578-.516.937 0 .735.875.985 1.469.985.547 0 .968-.281 1.218-.75.079.375.297.703.704.703.546 0 .78-.453.78-.953v-.406h-.25v.453c0 .25-.046.593-.327.593-.297 0-.313-.39-.313-.593v-1.75c0-.938-.812-1.407-1.61-1.407-.562 0-1.39.235-1.39.938 0 .25.14.437.469.437.219-.015.36-.218.36-.421 0-.25-.188-.376-.391-.422Zm1.89 1.328v.875c0 .625-.437 1.14-1.062 1.14h-.063c-.421-.03-.75-.359-.75-.75 0-.859 1.032-1.265 1.875-1.265Zm0 0"/></symbol><symbol overflow="visible" id="D"><path style="stroke:none" d="M.953-3.86H.25v.266h.703v2.969c0 .313-.25.344-.547.344h-.14v.265L.922-.03h.734l.625.015V-.28h-.203c-.25 0-.484-.031-.484-.344v-2.969h1.468c.25 0 .454.078.454.422v2.5c0 .297-.094.39-.688.39v.266l.625-.015h.735l.656.015V-.28h-.219c-.234 0-.469-.047-.469-.375V-3.97l-1.39.11H1.562v-.922c0-.188.016-.375.094-.563.203-.468.75-.765 1.266-.765.281 0 .562.078.765.265a.426.426 0 0 0-.39.422.42.42 0 0 0 .422.422.42.42 0 0 0 .422-.422v-.016c0-.625-.688-.89-1.22-.89-.89 0-1.968.453-1.968 1.469Zm0 0"/></symbol><symbol overflow="visible" id="f"><path style="stroke:none" d="M.844-1.36h2.031c.094 0 .11-.077.11-.124 0-.641-.422-1.188-1.235-1.188-.719 0-1.469.516-1.469 1.36C.281-.5 1.047.046 1.812.046c.47 0 1-.203 1.157-.703.015-.016.015-.047.015-.078 0-.063-.062-.079-.109-.079-.11 0-.156.204-.234.297a1.005 1.005 0 0 1-.72.36H1.86a1.02 1.02 0 0 1-.89-.531 1.608 1.608 0 0 1-.125-.672Zm.015-.187c.032-.484.375-.922.891-.922.531 0 .781.453.797.922Zm0 0"/></symbol><symbol overflow="visible" id="g"><path style="stroke:none" d="M.25-2.578v.234h.125c.11 0 .219.016.313.047.109.047.171.156.25.219l.421.453c.094.11.297.297.297.36 0 .062-.203.25-.297.343-.156.156-.28.313-.453.453-.203.14-.453.219-.703.219V0H1.36v-.25c-.078 0-.109-.078-.109-.125 0-.14.125-.25.234-.344.11-.125.25-.25.344-.375h.016c.172.25.64.61.64.735 0 .078-.093.109-.156.109V0h1.313v-.25h-.125c-.375 0-.485-.156-.672-.36-.203-.234-.39-.453-.61-.671-.03-.032-.062-.078-.109-.125.219-.172.406-.469.64-.657.204-.187.47-.28.75-.28v-.235H2.36v.234l.063.016c.031.031.062.078.062.125 0 .14-.171.281-.28.39-.079.079-.157.172-.235.25-.094-.156-.532-.484-.563-.64v-.016c0-.078.094-.11.157-.125v-.234Zm0 0"/></symbol><symbol overflow="visible" id="h"><path style="stroke:none" d="M1.078-3.688c0 .485-.266 1.157-.86 1.157v.187h.579v1.5c0 .203.015.39.125.563.156.25.469.328.75.328.437 0 .734-.344.734-.86v-.28h-.234c0 .093.015.171.015.25 0 .265-.093.687-.453.687-.359 0-.437-.36-.437-.64v-1.548h.984v-.234h-.984v-1.11Zm0 0"/></symbol><symbol overflow="visible" id="i"><path style="stroke:none" d="M6.344-2.969c.125 0 .297 0 .297-.187 0-.203-.188-.203-.329-.203H.845c-.14 0-.328 0-.328.203 0 .187.171.187.296.187ZM6.312-1.14c.141 0 .329 0 .329-.203 0-.187-.172-.187-.297-.187H.812c-.125 0-.296 0-.296.187 0 .203.187.203.328.203Zm0 0"/></symbol><symbol overflow="visible" id="j"><path style="stroke:none" d="M2.719-5.734c0-.22 0-.235-.219-.235-.563.563-1.39.563-1.672.563v.281c.172 0 .719 0 1.203-.234v4.64c0 .328-.015.438-.86.438h-.28V0c.312-.031 1.125-.031 1.484-.031.375 0 1.172 0 1.5.031v-.281h-.281c-.844 0-.875-.11-.875-.438Zm0 0"/></symbol><symbol overflow="visible" id="k"><path style="stroke:none" d="M1.625-2.86c0-.171 0-.187.094-.328.312-.406.75-.546 1.093-.546.376 0 .735.203.97.593.234.375.25.907.25 1.188 0 .422-.048.906-.282 1.266-.203.28-.563.562-1.047.562-.39 0-.734-.219-.953-.547-.125-.187-.125-.203-.125-.375ZM1.547-.546c.281.39.719.64 1.203.64 1.078 0 2.063-.859 2.063-2.03 0-1.125-.891-2.032-1.97-2.032-.609 0-1.03.313-1.25.563V-6.22l-1.327.094v.281c.609 0 .687.063.687.5V0h.25Zm0 0"/></symbol><symbol overflow="visible" id="l"><path style="stroke:none" d="M3.063-.64c.046.374.312.687.703.687.218 0 .78-.125.78-.844v-.5h-.25v.484c0 .11 0 .547-.327.547-.313 0-.313-.421-.313-.562v-1.578c0-.516 0-.813-.406-1.188-.328-.297-.766-.422-1.219-.422-.75 0-1.375.375-1.375.954 0 .265.188.421.422.421a.394.394 0 0 0 .406-.406c0-.39-.39-.437-.406-.437.25-.235.688-.313.938-.313.453 0 .968.344.968 1.14v.282c-.484.031-1.156.063-1.75.36-.656.312-.843.78-.843 1.14 0 .734.859.969 1.468.969.735 0 1.079-.485 1.204-.735Zm-.079-.626c0 .875-.671 1.141-1.062 1.141-.422 0-.813-.313-.813-.75 0-.594.5-1.219 1.875-1.281Zm0 0"/></symbol><symbol overflow="visible" id="m"><path style="stroke:none" d="M1.594-2.047c0-.375.093-1.687 1.125-1.687-.016.015-.156.125-.156.328a.39.39 0 1 0 .78 0c0-.281-.265-.563-.671-.563-.531 0-.906.375-1.125.938v-.938l-1.281.11v.265c.609 0 .687.063.687.516v2.39C.953-.28.86-.28.266-.28V0C.75-.016.859-.031 1.312-.031c.36 0 .579.015 1.141.031v-.281h-.172c-.656 0-.687-.094-.687-.422Zm0 0"/></symbol><symbol overflow="visible" id="y"><path style="stroke:none" d="M5.422-5.547c-.281-.281-.797-.781-1.703-.781-1.735 0-3.203 1.453-3.203 3.266C.516-1.22 2 .203 3.719.203 5.203.203 6.14-1.03 6.14-2.078c0-.094 0-.172-.125-.172s-.125.063-.125.14A2.085 2.085 0 0 1 3.812-.077c-.765 0-2.39-.484-2.39-2.985 0-2.5 1.64-2.984 2.375-2.984.89 0 1.828.672 2.047 2.125.015.125.031.156.14.156.157 0 .157-.03.157-.218v-2.11c0-.156 0-.234-.11-.234-.062 0-.093.031-.14.11Zm0 0"/></symbol><symbol overflow="visible" id="C"><path style="stroke:none" d="M4.14-1.594h-.25c-.015.125-.093.657-.203.797-.062.078-.671.078-.859.078H1.234l.891-.844c1.469-1.265 2.016-1.75 2.016-2.656 0-1.031-.844-1.75-1.954-1.75-1.03 0-1.734.813-1.734 1.625 0 .453.39.5.469.5.203 0 .469-.14.469-.469a.451.451 0 0 0-.47-.468c-.046 0-.062 0-.109.015.22-.64.797-.921 1.282-.921.906 0 1.219.843 1.219 1.468 0 .907-.688 1.657-1.11 2.125L.563-.328c-.11.11-.11.125-.11.328h3.438Zm0 0"/></symbol></defs><path style="stroke:none;fill-rule:nonzero;fill:#effafb;fill-opacity:1" d="M5.68 34.023V90.72h61.672V34.023"/><path style="fill:none;stroke-width:4.98138;stroke-linecap:round;stroke-linejoin:miter;stroke:gray;stroke-opacity:1;stroke-miterlimit:10" d="M-28.346 56.695h56.691" transform="matrix(1 0 0 -1 37.014 90.718)"/><path style="fill:none;stroke-width:1.39478;stroke-linecap:butt;stroke-linejoin:miter;stroke:#000;stroke-opacity:1;stroke-miterlimit:10" d="M-31.334 85.042V0h62.672v85.043" transform="matrix(1 0 0 -1 37.014 90.718)"/><path style="fill:none;stroke-width:.59776;stroke-linecap:butt;stroke-linejoin:miter;stroke:#fff;stroke-opacity:1;stroke-miterlimit:10" d="M-31.334 85.042V0h62.672v85.043" transform="matrix(1 0 0 -1 37.014 90.718)"/><use xlink:href="#a" x="17.469" y="64.563" style="fill:#000;fill-opacity:1"/><use xlink:href="#b" x="22.095" y="65.56" style="fill:#000;fill-opacity:1"/><use xlink:href="#c" x="26.246" y="64.563" style="fill:#000;fill-opacity:1"/><use xlink:href="#d" x="31.876" y="64.563" style="fill:#000;fill-opacity:1"/><use xlink:href="#b" x="37.251" y="65.56" style="fill:#000;fill-opacity:1"/><use xlink:href="#c" x="41.402" y="64.563" style="fill:#000;fill-opacity:1"/><use xlink:href="#e" x="47.032" y="64.563" style="fill:#000;fill-opacity:1"/><use xlink:href="#b" x="52.408" y="65.56" style="fill:#000;fill-opacity:1"/><use xlink:href="#a" x="13.577" y="21.323" style="fill:#000;fill-opacity:1"/><g style="fill:#000;fill-opacity:1"><use xlink:href="#f" x="18.203" y="17.514"/><use xlink:href="#g" x="21.468" y="17.514"/><use xlink:href="#h" x="25.314" y="17.514"/></g><use xlink:href="#i" x="31.249" y="21.323" style="fill:#000;fill-opacity:1"/><use xlink:href="#j" x="40.972" y="21.323" style="fill:#000;fill-opacity:1"/><g style="fill:#000;fill-opacity:1"><use xlink:href="#k" x="47.122" y="21.323"/><use xlink:href="#l" x="52.242" y="21.323"/><use xlink:href="#m" x="56.85" y="21.323"/></g><g style="fill:#000;fill-opacity:1"><use xlink:href="#n" x="5.332" y="100.409"/><use xlink:href="#o" x="11.601" y="100.409"/><use xlink:href="#p" x="16.464" y="100.409"/><use xlink:href="#q" x="21.582" y="100.409"/><use xlink:href="#r" x="24.141" y="100.409"/><use xlink:href="#q" x="26.7" y="100.409"/><use xlink:href="#s" x="29.259" y="100.409"/><use xlink:href="#t" x="34.377" y="100.409"/><use xlink:href="#u" x="37.98" y="100.409"/></g><g style="fill:#000;fill-opacity:1"><use xlink:href="#q" x="45.154" y="100.409"/><use xlink:href="#v" x="47.713" y="100.409"/><use xlink:href="#q" x="52.832" y="100.409"/><use xlink:href="#w" x="55.391" y="100.409"/><use xlink:href="#q" x="58.973" y="100.409"/><use xlink:href="#x" x="61.532" y="100.409"/><use xlink:href="#r" x="66.139" y="100.409"/></g><path style="fill:none;stroke-width:3.9851;stroke-linecap:butt;stroke-linejoin:miter;stroke:#bfbfbf;stroke-opacity:1;stroke-miterlimit:10" d="M70.869 28.347H91.84" transform="matrix(1 0 0 -1 37.014 90.718)"/><path style="stroke:none;fill-rule:nonzero;fill:#bfbfbf;fill-opacity:1" d="m136.227 62.371-11.793-5.898 4.421 5.898-4.421 5.899"/><use xlink:href="#e" x="100.69" y="55.398" style="fill:#000;fill-opacity:1"/><g style="fill:#000;fill-opacity:1"><use xlink:href="#f" x="107.346" y="51.589"/><use xlink:href="#g" x="110.611" y="51.589"/><use xlink:href="#h" x="114.457" y="51.589"/></g><use xlink:href="#i" x="120.392" y="55.398" style="fill:#000;fill-opacity:1"/><use xlink:href="#y" x="130.115" y="55.398" style="fill:#000;fill-opacity:1"/><g style="fill:#000;fill-opacity:1"><use xlink:href="#z" x="136.775" y="51.589"/><use xlink:href="#A" x="139.653" y="51.589"/></g><path style="stroke:none;fill-rule:nonzero;fill:#effafb;fill-opacity:1" d="M175.758 48.2v42.519h61.676v-42.52"/><path style="fill:none;stroke-width:4.98138;stroke-linecap:round;stroke-linejoin:miter;stroke:gray;stroke-opacity:1;stroke-miterlimit:10" d="M141.732 42.519h56.695" transform="matrix(1 0 0 -1 37.014 90.718)"/><path style="fill:none;stroke-width:1.39478;stroke-linecap:butt;stroke-linejoin:miter;stroke:#000;stroke-opacity:1;stroke-miterlimit:10" d="M138.744 85.042V0h62.672v85.043" transform="matrix(1 0 0 -1 37.014 90.718)"/><path style="fill:none;stroke-width:.59776;stroke-linecap:butt;stroke-linejoin:miter;stroke:#fff;stroke-opacity:1;stroke-miterlimit:10" d="M138.744 85.042V0h62.672v85.043" transform="matrix(1 0 0 -1 37.014 90.718)"/><use xlink:href="#a" x="187.548" y="72.809" style="fill:#000;fill-opacity:1"/><use xlink:href="#B" x="192.174" y="73.805" style="fill:#000;fill-opacity:1"/><use xlink:href="#c" x="196.325" y="72.809" style="fill:#000;fill-opacity:1"/><use xlink:href="#d" x="201.955" y="72.809" style="fill:#000;fill-opacity:1"/><use xlink:href="#B" x="207.329" y="73.805" style="fill:#000;fill-opacity:1"/><use xlink:href="#c" x="211.48" y="72.809" style="fill:#000;fill-opacity:1"/><use xlink:href="#e" x="217.111" y="72.809" style="fill:#000;fill-opacity:1"/><use xlink:href="#B" x="222.487" y="73.805" style="fill:#000;fill-opacity:1"/><use xlink:href="#a" x="183.655" y="21.323" style="fill:#000;fill-opacity:1"/><g style="fill:#000;fill-opacity:1"><use xlink:href="#f" x="188.281" y="17.514"/><use xlink:href="#g" x="191.546" y="17.514"/><use xlink:href="#h" x="195.392" y="17.514"/></g><use xlink:href="#i" x="201.327" y="21.323" style="fill:#000;fill-opacity:1"/><use xlink:href="#C" x="211.05" y="21.323" style="fill:#000;fill-opacity:1"/><g style="fill:#000;fill-opacity:1"><use xlink:href="#k" x="217.2" y="21.323"/><use xlink:href="#l" x="222.32" y="21.323"/><use xlink:href="#m" x="226.928" y="21.323"/></g><g style="fill:#000;fill-opacity:1"><use xlink:href="#n" x="178.482" y="100.409"/><use xlink:href="#o" x="184.751" y="100.409"/><use xlink:href="#p" x="189.614" y="100.409"/><use xlink:href="#q" x="194.732" y="100.409"/><use xlink:href="#r" x="197.291" y="100.409"/><use xlink:href="#q" x="199.85" y="100.409"/><use xlink:href="#s" x="202.409" y="100.409"/><use xlink:href="#t" x="207.527" y="100.409"/><use xlink:href="#u" x="211.13" y="100.409"/></g><g style="fill:#000;fill-opacity:1"><use xlink:href="#D" x="218.304" y="100.409"/><use xlink:href="#v" x="223.422" y="100.409"/><use xlink:href="#x" x="228.541" y="100.409"/><use xlink:href="#r" x="233.147" y="100.409"/></g></svg>