<svg xmlns="http://www.w3.org/2000/svg" xmlns:xlink="http://www.w3.org/1999/xlink" width="375.584" height="78.46" viewBox="0 0 281.688 58.845"><defs><symbol overflow="visible" id="a"><path style="stroke:none" d="M.344-6.11v.282h.344c.296 0 .562.031.562.39v4.75c0 .36-.297.407-.594.407H.344v.265h5.265L6-2.328h-.25c-.094.562-.188 1.203-.563 1.61-.406.421-1.046.437-1.593.437h-1.14c-.188 0-.392 0-.392-.328v-2.438h.86c.312 0 .672.031.828.297.125.188.14.438.14.672v.094h.25v-2.391h-.25v.094c0 .5-.124.906-.687.937-.156.031-.344.031-.515.031h-.626v-2.203c0-.312.188-.312.391-.312h1.172c.625 0 1.328.031 1.656.719.14.328.172.671.219 1.015h.25L5.5-6.109Zm2.406-.765.11.234c.421-.14.843-.25 1.265-.39.188-.047.5-.094.5-.375 0-.188-.156-.36-.344-.36-.11 0-.203.079-.297.125l-.28.172c-.313.188-.626.39-.954.594Zm0 0"/></symbol><symbol overflow="visible" id="b"><path style="stroke:none" d="M1.36-5.531c0 .656-.298 1.718-1.188 1.718v.22h.781v2.374c0 .282.016.547.156.782.22.39.672.53 1.079.53h.078c.687-.124.796-.859.796-1.39v-.328h-.25c0 .125.016.25.016.39 0 .391-.094 1.079-.625 1.079-.484 0-.594-.563-.594-1.016v-2.422h1.313v-.265H1.609v-1.672Zm0 0"/></symbol><symbol overflow="visible" id="c"><path style="stroke:none" d="M1.094-3.484c.25-.22.61-.313.937-.313.313 0 .594.172.781.438.172.25.172.53.172.828v.156c-.734.078-1.468.078-2.093.547-.297.219-.516.578-.516.937 0 .735.875.985 1.469.985.547 0 .968-.281 1.218-.75.079.375.297.703.704.703.546 0 .78-.453.78-.953v-.406h-.25v.453c0 .25-.046.593-.327.593-.297 0-.313-.39-.313-.593v-1.75c0-.938-.812-1.407-1.61-1.407-.562 0-1.39.235-1.39.938 0 .25.14.437.469.437.219-.015.36-.218.36-.421 0-.25-.188-.376-.391-.422Zm1.89 1.328v.875c0 .625-.437 1.14-1.062 1.14h-.063c-.421-.03-.75-.359-.75-.75 0-.859 1.032-1.265 1.875-1.265Zm0 0"/></symbol><symbol overflow="visible" id="d"><path style="stroke:none" d="M.36-3.86v.266H.5c.297 0 .516.047.516.453v2.485c0 .36-.25.375-.688.375v.265h1.938V-.28h-.141c-.234 0-.469-.031-.469-.313v-3.375Zm.765-2.156c-.234.047-.422.235-.422.485s.219.468.485.468h.062a.474.474 0 0 0 .422-.468.477.477 0 0 0-.484-.485Zm0 0"/></symbol><symbol overflow="visible" id="e"><path style="stroke:none" d="M.313-3.86v.266h.14c.266 0 .547.031.547.453v2.485c0 .36-.234.375-.688.375v.265L.954-.03H2.36v-.25h-.203c-.265 0-.484-.047-.484-.375v-1.61c0-.687.406-1.468 1.25-1.468.484 0 .625.437.625 1v2.109c0 .313-.25.344-.547.344h-.14v.265L3.5-.03h1.406v-.25h-.172c-.265 0-.515-.031-.515-.36v-2.015c0-.281-.016-.531-.14-.781-.235-.422-.704-.532-1.141-.532-.547 0-1.11.375-1.313.89l-.016-.89Zm0 0"/></symbol><symbol overflow="visible" id="f"><path style="stroke:none" d="M.328-6.14v.28h.11c.312 0 .578.016.578.47v4.718c0 .375-.25.39-.641.39H.328v.266h2.016V-.28h-.235c-.234 0-.453-.047-.453-.36v-5.593Zm0 0"/></symbol><symbol overflow="visible" id="h"><path style="stroke:none" d="M.953-3.86H.25v.266h.703v2.969c0 .313-.25.344-.547.344h-.14v.265L.922-.03h.734l.625.015V-.28h-.203c-.25 0-.484-.031-.484-.344v-2.969h1.468c.25 0 .454.078.454.422v2.5c0 .297-.094.39-.688.39v.266l.625-.015h.735l.656.015V-.28h-.219c-.234 0-.469-.047-.469-.375V-3.97l-1.39.11H1.562v-.922c0-.188.016-.375.094-.563.203-.468.75-.765 1.266-.765.281 0 .562.078.765.265a.426.426 0 0 0-.39.422.42.42 0 0 0 .422.422.42.42 0 0 0 .422-.422v-.016c0-.625-.688-.89-1.22-.89-.89 0-1.968.453-1.968 1.469Zm0 0"/></symbol><symbol overflow="visible" id="i"><path style="stroke:none" d="M.266-3.86v.266h.14c.281 0 .547.031.547.453v2.485c0 .36-.234.375-.687.375v.265L.89-.03h1.562v-.25h-.297c-.312 0-.562-.047-.562-.375v-1.516c.062-.625.234-1.562 1.14-1.562-.125.062-.171.203-.171.328a.39.39 0 1 0 .78 0c0-.375-.359-.563-.687-.563-.547 0-.984.469-1.11.969v-.969Zm0 0"/></symbol><symbol overflow="visible" id="j"><path style="stroke:none" d="M.813-.313c.296.297.656.407 1.046.407.735 0 1.454-.375 1.454-1.25v-.094c-.032-.516-.422-.89-.876-1.063a3.528 3.528 0 0 0-.703-.156c-.375-.078-.968-.187-.968-.703 0-.515.656-.656 1.03-.656.579 0 .985.344 1.032.969 0 .078.016.171.125.171.063 0 .125-.03.125-.109v-1.078c0-.063-.015-.14-.094-.14-.14 0-.234.218-.343.218h-.016c-.063-.015-.125-.062-.188-.094-.187-.093-.421-.125-.64-.125-.625 0-1.484.204-1.484 1.125 0 .907 1.046 1.047 1.687 1.172.39.078.828.313.86.75 0 .64-.532.828-1.016.828h-.078C1.109-.17.75-.656.594-1.28c-.031-.094-.031-.25-.156-.25-.11 0-.126.078-.126.156v1.156c0 .047-.015.078-.015.125 0 .094.016.188.11.188.093 0 .156-.11.218-.172l.031-.047c.063-.063.11-.11.156-.188Zm0 0"/></symbol><symbol overflow="visible" id="k"><path style="stroke:none" d="M1.016-3.86h-.72v.266h.72v2.969c0 .313-.266.344-.563.344H.328v.265L.953-.03h1.563v-.25h-.297c-.328 0-.563-.047-.563-.422v-2.89h1.032v-.266H1.625v-.829c0-.578.14-1.421.828-1.421.078 0 .188.015.266.062a.395.395 0 0 0-.235.36c0 .218.172.39.391.39.266 0 .406-.172.406-.39 0-.422-.453-.641-.828-.641-.625 0-1.187.406-1.39.984-.047.172-.047.344-.047.516Zm0 0"/></symbol><symbol overflow="visible" id="l"><path style="stroke:none" d="M2.172-4.016c-1.047.11-1.906.954-1.906 2.094C.266-1 .953.094 2.312.094c1.047 0 2.032-.844 2.032-2 0-1.078-.844-2.125-2.047-2.125-.047 0-.078.015-.125.015ZM1.047-1.719v-.375c0-.719.219-1.703 1.266-1.703.703 0 1.156.563 1.234 1.281.015.188.015.375.015.563 0 .469-.03 1-.359 1.375a1.19 1.19 0 0 1-.906.422c-.656 0-1.11-.5-1.235-1.219 0-.11 0-.219-.015-.344Zm0 0"/></symbol><symbol overflow="visible" id="m"><path style="stroke:none" d="M.313-3.86v.266h.14c.266 0 .547.031.547.453v2.485c0 .36-.234.375-.688.375v.265L.954-.03H2.36v-.25h-.203c-.265 0-.484-.047-.484-.375v-1.797c.047-.64.484-1.281 1.25-1.281.578 0 .64.578.64 1v2.109c0 .313-.265.344-.562.344h-.125v.265L3.5-.03h1.422v-.25h-.219c-.25 0-.484-.047-.484-.375v-1.797c.062-.64.484-1.281 1.265-1.281.563 0 .625.578.625 1v2.109c0 .313-.25.344-.546.344h-.141v.265h2.047V-.28h-.172c-.25 0-.516-.031-.516-.36v-2.015c0-.281-.015-.547-.14-.781-.235-.422-.704-.532-1.141-.532-.547 0-1.11.36-1.297.86h-.016c-.078-.625-.656-.86-1.203-.86-.578 0-1.14.328-1.359.89l-.016-.89Zm0 0"/></symbol><symbol overflow="visible" id="n"><path style="stroke:none" d="M1.031-2.063h2.657c.109 0 .156-.046.156-.156 0-1.125-.703-1.797-1.64-1.797-1.095 0-1.954.954-1.954 2.047C.25-.875 1.125.094 2.344.094c.64 0 1.281-.453 1.469-1.078.015-.016.015-.063.015-.094a.107.107 0 0 0-.11-.11c-.171 0-.171.266-.265.391-.219.375-.656.64-1.094.64h-.062C1.828-.171 1.422-.5 1.219-.921c-.172-.36-.188-.75-.188-1.14Zm.016-.218c0-.594.25-1.281.906-1.485a.914.914 0 0 1 .203-.03c.781 0 1.063.796 1.063 1.515Zm1.484-3.5c-.156.015-.312.203-.422.312-.28.282-.578.547-.859.828-.016.016-.016.032-.016.047 0 .063.079.188.141.188.047 0 .094-.047.125-.063l.25-.14c.39-.22 1.172-.516 1.172-.829 0-.171-.156-.359-.344-.359-.015 0-.031.016-.047.016Zm0 0"/></symbol><symbol overflow="visible" id="o"><path style="stroke:none" d="M1.031-2.063h2.657c.109 0 .156-.046.156-.156 0-1.125-.703-1.797-1.64-1.797-1.095 0-1.954.954-1.954 2.047C.25-.875 1.125.094 2.344.094c.64 0 1.281-.453 1.469-1.078.015-.016.015-.063.015-.094a.107.107 0 0 0-.11-.11c-.171 0-.171.266-.265.391-.219.375-.656.64-1.094.64h-.062C1.828-.171 1.422-.5 1.219-.921c-.172-.36-.188-.75-.188-1.14Zm.016-.218c0-.594.25-1.281.906-1.485a.914.914 0 0 1 .203-.03c.781 0 1.063.796 1.063 1.515Zm0 0"/></symbol><symbol overflow="visible" id="q"><path style="stroke:none" d="M3.36-4.61c-.25.61-.938 1.485-1.766 1.141l-.078.203.718.297-.906 2.203c-.094.25-.187.5-.125.782.047.437.422.75.797.906l.063.031c.687.125 1.062-.5 1.25-1l.124-.297-.218-.094c-.047.11-.078.235-.125.36-.156.36-.5.969-.985.765-.453-.171-.359-.75-.187-1.156l.922-2.25 1.219.5.093-.25-1.218-.5.64-1.547Zm0 0"/></symbol><symbol overflow="visible" id="r"><path style="stroke:none" d="m1.64-3.5-.093.25.125.047c.266.11.516.219.36.625L1.124-.266C1 .063.781 0 .359-.172L.25.078l.594.219 1.453.562.094-.234-.266-.11c-.297-.109-.516-.25-.406-.546l.547-1.422c.296-.563.796-1.375 1.64-1.047-.14.016-.234.125-.281.25a.381.381 0 0 0 .219.516c.219.093.422-.016.5-.22.14-.359-.125-.671-.438-.78-.5-.204-1.078.078-1.375.5l.344-.907Zm0 0"/></symbol><symbol overflow="visible" id="s"><path style="stroke:none" d="M2.234-2.89c.297-.126.657-.094.97.03.296.094.515.36.593.672.062.297-.031.563-.125.844l-.063.14c-.718-.187-1.406-.437-2.14-.202-.36.093-.688.36-.797.687C.406-.016 1.14.516 1.703.734c.516.188 1 .063 1.39-.296-.046.374.048.765.423.906.515.187.89-.157 1.062-.625l.14-.39-.234-.095-.156.422c-.094.235-.25.547-.5.453-.281-.093-.172-.468-.094-.671l.594-1.641c.328-.875-.281-1.594-1.031-1.86-.531-.187-1.39-.265-1.625.391-.094.235-.016.469.297.578.203.063.406-.078.468-.265.094-.235-.03-.438-.203-.532ZM3.531-1l-.297.828C3.016.422 2.438.75 1.86.531L1.797.516c-.39-.172-.578-.61-.438-.985.282-.797 1.391-.828 2.172-.531Zm0 0"/></symbol><symbol overflow="visible" id="t"><path style="stroke:none" d="m1.531-3.563-.093.25.125.047c.265.094.53.204.39.61L1.156-.312c-.11.343-.343.296-.765.14l-.094.25.625.188L2.25.719l.078-.235-.187-.062c-.25-.078-.454-.203-.36-.516l.516-1.515c.219-.657.86-1.266 1.656-.985.469.156.453.594.281 1.125l-.671 2c-.11.297-.344.25-.626.156l-.14-.046-.094.25.625.203 1.344.437.078-.234-.172-.047c-.25-.094-.484-.203-.375-.516l.64-1.906c.095-.266.157-.5.11-.781-.078-.469-.484-.734-.906-.875-.516-.172-1.172 0-1.516.422l.266-.844Zm0 0"/></symbol><symbol overflow="visible" id="u"><path style="stroke:none" d="M.875-.063c.188.376.5.594.875.704.703.218 1.484.078 1.75-.766l.031-.078c.125-.516-.125-.984-.515-1.281a3.587 3.587 0 0 0-.625-.36c-.344-.187-.875-.453-.72-.953.157-.484.829-.437 1.188-.328.547.172.829.625.688 1.234-.016.079-.031.172.078.204.047.015.125 0 .14-.079l.329-1.03c.015-.063.015-.126-.063-.142-.125-.046-.281.126-.39.094h-.016c-.047-.031-.094-.11-.14-.156-.141-.14-.376-.234-.579-.297-.594-.187-1.484-.25-1.75.625-.265.875.688 1.313 1.266 1.625.344.188.703.547.594.969-.188.61-.75.625-1.204.484L1.734.375C1.11.156.906-.406.938-1.047c0-.094.046-.25-.063-.297-.11-.031-.14.047-.172.125L.36-.109C.344-.08.33-.047.313 0 .28.094.266.188.358.219.453.234.531.156.61.109L.656.063C.75.046.796.015.875-.064Zm0 0"/></symbol><symbol overflow="visible" id="v"><path style="stroke:none" d="m2.047-3.422-.688-.203-.078.25.688.203-.828 2.86c-.079.296-.344.25-.625.171L.39-.17l-.079.25.625.155 1.5.438L2.5.437 2.203.36c-.312-.093-.515-.203-.406-.562l.797-2.781.984.28.078-.25-1.015-.296.234-.797c.156-.562.531-1.344 1.188-1.14a.492.492 0 0 1 .234.125.432.432 0 0 0-.328.28c-.047.22.047.423.265.485.25.078.454-.031.5-.25.125-.406-.25-.75-.609-.844a1.519 1.519 0 0 0-1.625.563c-.094.14-.14.312-.188.469Zm0 0"/></symbol><symbol overflow="visible" id="w"><path style="stroke:none" d="M3.125-3.313C2.094-3.483 1.031-2.89.75-1.796.5-.907.89.343 2.203.687 3.22.954 4.391.392 4.688-.734c.28-1.047-.282-2.25-1.438-2.563-.047-.015-.078 0-.125-.015ZM1.453-1.39l.094-.359c.187-.703.64-1.594 1.656-1.328.688.187.985.844.86 1.547-.032.203-.079.39-.125.562-.126.453-.282.953-.688 1.235-.281.203-.656.25-.984.171-.641-.171-.954-.765-.875-1.5.015-.109.046-.218.062-.328Zm0 0"/></symbol><symbol overflow="visible" id="x"><path style="stroke:none" d="m1.156-3.688-.062.25.125.032c.281.062.531.156.437.578L1.078-.422c-.094.36-.312.313-.75.203L.266.047l.593.125 1.532.36.062-.25-.297-.063C1.86.14 1.625.062 1.703-.266l.344-1.468c.219-.594.61-1.47 1.484-1.25-.14.015-.203.14-.234.265-.063.25.078.438.281.485.219.046.406-.079.469-.297.078-.36-.219-.64-.547-.703-.531-.141-1.063.218-1.297.671l.219-.937Zm0 0"/></symbol><symbol overflow="visible" id="y"><path style="stroke:none" d="m1.078-3.719-.062.25.125.031c.265.047.546.141.453.563L1.109-.437c-.062.343-.296.312-.734.218L.312.047l.625.11 1.375.28.063-.25-.203-.046C1.922.094 1.703 0 1.766-.313l.359-1.765c.172-.61.719-1.156 1.469-1 .578.11.531.687.437 1.094L3.625.094C3.562.39 3.297.359 3 .312l-.125-.03-.063.265.626.11 1.39.28.063-.25-.22-.046C4.422.594 4.204.5 4.267.187l.359-1.765c.188-.61.719-1.156 1.484-1 .547.11.5.687.407 1.094L6.109.594c-.062.297-.296.281-.593.219L5.375.78l-.063.266 2.016.406.063-.266-.172-.03c-.25-.048-.5-.141-.438-.454l.39-1.984c.063-.266.095-.532.016-.797-.14-.438-.578-.64-1.015-.735-.531-.109-1.156.141-1.438.594H4.72c.047-.625-.469-.984-1.016-1.078a1.425 1.425 0 0 0-1.5.594l.156-.875Zm0 0"/></symbol><symbol overflow="visible" id="z"><path style="stroke:none" d="M1.625-3.266c.281-.187.656-.218.969-.171.312.046.562.265.703.562.14.266.094.547.047.844l-.016.156c-.75-.047-1.469-.156-2.172.203-.312.172-.593.5-.64.86C.406-.095 1.219.28 1.812.375c.532.094 1-.125 1.329-.547.015.375.171.734.578.797.547.094.828-.328.906-.813l.063-.406-.235-.031-.062.453c-.047.234-.141.563-.422.516-.297-.047-.25-.422-.219-.625l.266-1.735c.14-.921-.579-1.515-1.375-1.64-.547-.078-1.407.031-1.516.719-.047.25.063.453.39.5.22.015.391-.157.423-.36.046-.234-.125-.39-.313-.469Zm1.656 1.61-.125.86C3.062-.173 2.531.25 1.922.155L1.859.141c-.406-.094-.687-.47-.625-.844.125-.86 1.204-1.094 2.047-.953Zm0 0"/></symbol><symbol overflow="visible" id="A"><path style="stroke:none" d="M2.047-5.313c-.094.657-.516 1.672-1.39 1.547l-.032.22.781.108-.297 2.36c-.03.266-.062.531.047.781.157.422.594.61 1 .672h.078c.688-.031.891-.75.954-1.266l.046-.328L3-1.25c-.016.125-.016.25-.031.39-.047.376-.235 1.047-.766.985-.484-.063-.515-.64-.469-1.078l.313-2.406 1.297.171.031-.265-1.297-.172.219-1.656Zm0 0"/></symbol><symbol overflow="visible" id="B"><path style="stroke:none" d="m.766-3.813-.032.266.141.016c.297.031.516.11.469.515l-.266 2.47C1.047-.188.797-.204.36-.25L.33.016 2.25.219l.031-.266-.14-.015c-.235-.016-.47-.079-.438-.36l.344-3.36Zm.984-2.046a.5.5 0 0 0-.469.437c-.031.25.172.484.438.516h.062a.469.469 0 0 0 .453-.422.476.476 0 0 0-.421-.531Zm0 0"/></symbol><symbol overflow="visible" id="C"><path style="stroke:none" d="M2.484-3.828C1.438-3.797.5-3.031.422-1.906.344-.984.953.172 2.312.28 3.345.36 4.392-.406 4.485-1.563c.079-1.062-.687-2.171-1.875-2.28-.046 0-.078.015-.125.015ZM1.188-1.641l.015-.375c.063-.703.36-1.671 1.406-1.578.688.047 1.094.64 1.125 1.36 0 .187-.015.375-.03.562-.048.469-.11 1-.47 1.344-.234.25-.593.375-.921.344-.657-.047-1.079-.579-1.141-1.313 0-.11.016-.219.016-.344Zm0 0"/></symbol><symbol overflow="visible" id="D"><path style="stroke:none" d="M.469-3.844v.266h.14c.266.015.547.062.516.484L1.031-.609c-.015.359-.25.359-.703.343L.312 0l.641.016L2.36.062l.016-.25h-.203c-.266-.015-.485-.078-.469-.406l.063-1.61c.03-.687.468-1.437 1.312-1.405.485.015.61.468.578 1.03l-.078 2.11c-.015.313-.265.328-.562.313h-.141l-.016.265H3.5l1.406.063.016-.25H4.75c-.266-.016-.516-.063-.5-.39l.078-2.016c.016-.282.016-.532-.11-.782-.218-.437-.671-.562-1.109-.578-.546-.031-1.125.328-1.359.828l.031-.89Zm0 0"/></symbol><symbol overflow="visible" id="E"><path style="stroke:none" d="M.219-3.86v.266h.14c.282-.015.547.016.547.438L.937-.672c.016.36-.218.375-.671.39v.266l.625-.03 1.562-.017v-.25h-.297c-.312 0-.562-.03-.578-.359l-.016-1.515c.063-.626.22-1.579 1.125-1.579-.124.063-.171.204-.171.329 0 .25.187.406.39.39.235 0 .39-.187.39-.406 0-.375-.374-.563-.702-.547-.547 0-.969.484-1.094.984l-.016-.968Zm0 0"/></symbol><symbol overflow="visible" id="F"><path style="stroke:none" d="m.938-2.11 2.656-.109c.11 0 .156-.047.156-.156-.047-1.125-.781-1.781-1.719-1.734C.937-4.063.125-3.08.171-1.984A2.073 2.073 0 0 0 2.345 0c.64-.031 1.265-.516 1.422-1.14.015-.016.015-.063.015-.094a.107.107 0 0 0-.11-.11c-.171 0-.171.266-.25.407A1.361 1.361 0 0 1 2.36-.25h-.062c-.469 0-.89-.313-1.125-.719-.172-.36-.219-.75-.234-1.14Zm.015-.218c-.031-.594.188-1.297.844-1.516A.481.481 0 0 1 2-3.89c.781-.03 1.094.75 1.125 1.47Zm0 0"/></symbol><symbol overflow="visible" id="G"><path style="stroke:none" d="m-.125-3.86.031.266.14-.015c.454-.032.485.109.86.796.438.813.828 1.672 1.266 2.485.062.125.11.25.265.234.204-.015.329-.656.454-1 .218-.672.437-1.312.64-1.953.063-.172.094-.312.172-.453a.885.885 0 0 1 .688-.438l-.032-.265-.437.047-1.031.078.03.25c.22 0 .407.11.423.328l.015.047c.016.234-.156.562-.25.828-.187.547-.39 1.11-.53 1.672-.126-.188-.22-.406-.313-.61L1.64-2.796a6.527 6.527 0 0 1-.25-.453c-.032-.063-.079-.14-.079-.203-.015-.235.297-.266.485-.281L1.766-4Zm0 0"/></symbol><symbol overflow="visible" id="H"><path style="stroke:none" d="m.813-2.156 2.64-.297c.11 0 .14-.063.14-.172C3.47-3.75 2.689-4.328 1.75-4.219.672-4.109-.078-3.079.031-1.984A2.098 2.098 0 0 0 2.344-.156c.64-.078 1.234-.594 1.344-1.25.015-.016.015-.063.015-.094-.015-.063-.062-.094-.125-.094-.172.016-.14.282-.234.422a1.29 1.29 0 0 1-1.016.766h-.062c-.47.031-.907-.25-1.141-.64-.219-.345-.281-.72-.313-1.11Zm-.016-.219c-.063-.594.11-1.313.734-1.594.063-.015.14-.047.203-.047.782-.078 1.141.688 1.22 1.407Zm0 0"/></symbol><symbol overflow="visible" id="I"><path style="stroke:none" d="m-.266-3.86.047.266.14-.031c.282-.031.532-.031.595.39L.844-.78c.047.36-.156.406-.61.469l.032.265.609-.11 1.563-.202-.032-.25-.297.03c-.312.048-.578.032-.625-.296l-.203-1.5c-.015-.61.016-1.578.907-1.703-.11.078-.141.234-.126.36a.39.39 0 0 0 .454.343c.234-.031.359-.234.328-.453-.047-.375-.438-.516-.766-.469-.531.078-.906.594-.953 1.125l-.14-.969Zm0 0"/></symbol><symbol overflow="visible" id="J"><path style="stroke:none" d="M.75-.438c.344.25.719.297 1.094.235.734-.125 1.375-.61 1.234-1.469l-.015-.094c-.11-.515-.547-.812-1.032-.906-.234-.047-.484-.047-.703-.047-.39-.015-1-.031-1.094-.531-.078-.516.547-.766.907-.828.578-.094 1.046.187 1.187.797.016.078.047.172.156.156.047-.016.11-.063.094-.14l-.172-1.063c-.015-.063-.031-.14-.11-.125-.124.031-.187.266-.296.281h-.016c-.062 0-.14-.047-.203-.062a1.542 1.542 0 0 0-.656-.032c-.61.11-1.422.454-1.281 1.36.156.906 1.203.875 1.843.875.407.015.875.187.985.61.11.624-.39.905-.875.984l-.063.015C1.063-.344.625-.766.391-1.359c-.047-.094-.079-.25-.204-.235-.109.032-.109.11-.093.188L.28-.266v.125c.016.094.047.188.14.172.095-.015.142-.14.173-.203l.031-.062C.672-.297.719-.36.75-.437Zm0 0"/></symbol><symbol overflow="visible" id="K"><path style="stroke:none" d="m-.344-3.86.047.266.125-.031c.297-.047.531-.047.594.344L.875-.828c.078.344-.172.406-.594.484l.047.266 1.906-.344-.046-.266-.141.016c-.235.047-.485.063-.531-.203l-.61-3.328Zm.36-2.265a.528.528 0 0 0-.344.563c.047.25.312.406.578.359l.063-.016a.451.451 0 0 0 .312-.531.466.466 0 0 0-.547-.39Zm0 0"/></symbol><symbol overflow="visible" id="L"><path style="stroke:none" d="m-1.016-6.063.063.266.125-.016c.297-.062.562-.093.64.329L.938-.22l.235-.062.234-.594c.39.375.86.484 1.328.39 1.11-.234 1.797-1.359 1.563-2.421-.203-.938-1.172-1.813-2.313-1.563-.468.094-.828.344-1.125.813L.266-6.422ZM3.563-2.53c.062.422.109.797-.094 1.156a1.292 1.292 0 0 1-.86.672 1.11 1.11 0 0 1-1.03-.328c-.095-.078-.173-.172-.188-.282L.969-3.266c-.016-.375.531-.875.984-.968 1.031-.22 1.453.859 1.578 1.515a.784.784 0 0 1 .031.188Zm0 0"/></symbol><symbol overflow="visible" id="M"><path style="stroke:none" d="m-1.11-6.047.063.266.11-.016c.312-.078.562-.125.671.313L.781-1.078c.016.047.031.11.047.187.094.375-.14.438-.531.516L.25-.359l.063.265L2.28-.563 2.22-.828l-.235.062c-.218.047-.453.063-.53-.25L.171-6.453Zm0 0"/></symbol><symbol overflow="visible" id="N"><path style="stroke:none" d="m.484-2.266 2.563-.656c.11-.031.14-.094.11-.187-.282-1.094-1.126-1.579-2.048-1.344C.063-4.172-.53-3.031-.266-1.97A2.084 2.084 0 0 0 2.297-.5c.625-.156 1.125-.75 1.14-1.406.016-.032 0-.078 0-.11-.015-.062-.078-.093-.14-.078-.156.047-.094.313-.156.453a1.33 1.33 0 0 1-.907.891l-.062.016c-.453.109-.922-.11-1.235-.47C.688-1.5.579-1.89.484-2.265Zm-.046-.203C.296-3.047.358-3.78.938-4.14c.062-.03.14-.062.203-.078.75-.187 1.218.5 1.39 1.203Zm0 0"/></symbol><symbol overflow="visible" id="O"><path style="stroke:none" d="m-.14-3.984-.688.218.062.25.688-.218.86 2.843c.093.297-.141.407-.423.5l-.125.032.078.25.579-.204 1.5-.453L2.328-1l-.281.094c-.313.094-.563.11-.672-.25L.531-3.922l1-.297-.062-.25-1.016.313-.25-.797C.031-5.516-.078-6.36.578-6.547a.43.43 0 0 1 .281-.016c-.125.079-.171.25-.125.407a.395.395 0 0 0 .485.265c.25-.078.343-.296.281-.5-.125-.406-.625-.484-.984-.375-.594.172-1.016.735-1.047 1.344 0 .172.047.344.11.5Zm0 0"/></symbol><symbol overflow="visible" id="P"><path style="stroke:none" d="m-.828-3.781.078.25.125-.047c.297-.094.516-.11.64.281l.75 2.36c.11.343-.109.437-.53.578l.078.25 1.843-.594-.078-.25-.125.047c-.234.062-.469.11-.562-.156L.375-4.283Zm.078-2.297a.524.524 0 0 0-.266.594c.079.234.36.375.61.296l.062-.015a.471.471 0 0 0 .25-.578.467.467 0 0 0-.61-.313Zm0 0"/></symbol><symbol overflow="visible" id="Q"><path style="stroke:none" d="M1.938-4.39c-.141.124-.282.28-.204.53.079.204.282.313.532.235a.405.405 0 0 0 .25-.547c-.204-.61-.985-.562-1.516-.406l-.094.031c-.969.328-1.625 1.453-1.234 2.61C.016-.907 1.14-.282 2.219-.657 2.813-.843 3.25-1.343 3.28-2.03c0-.078.016-.172 0-.219-.015-.063-.094-.078-.156-.063-.14.047-.078.266-.11.422-.078.438-.359.829-.812.985C1.266-.594.61-1.562.391-2.203.14-2.906.062-4 1.016-4.313c.234-.078.484-.14.734-.109.063-.016.125.016.188.031Zm0 0"/></symbol><symbol overflow="visible" id="R"><path style="stroke:none" d="M-.594-5.672c.219.625.297 1.734-.547 2.031l.079.204.734-.266.797 2.234c.11.266.203.516.422.688.343.281.812.265 1.203.125l.062-.016c.61-.36.453-1.094.281-1.594l-.109-.312-.234.094c.031.125.094.218.14.359.141.36.297 1.047-.203 1.234-.469.172-.765-.328-.922-.765L.297-3.922l1.234-.453-.093-.25-1.235.453-.562-1.578Zm0 0"/></symbol><symbol overflow="visible" id="S"><path style="stroke:none" d="m-1.031-3.734.093.25.125-.047c.282-.11.516-.14.657.234L.719-.969c.125.328-.094.438-.5.594l.093.25 1.813-.688-.094-.25-.14.047c-.22.079-.454.125-.547-.14L.14-4.313Zm-.047-2.297c-.203.14-.313.375-.219.61.078.234.36.359.61.265l.062-.016c.203-.125.313-.36.234-.594a.48.48 0 0 0-.625-.28Zm0 0"/></symbol><symbol overflow="visible" id="T"><path style="stroke:none" d="m-1.281-3.64.11.234.14-.047c.422-.172.484-.047 1.047.5.656.656 1.296 1.36 1.953 2 .093.094.187.203.328.14.187-.078.125-.734.125-1.093.015-.703.031-1.375.047-2.063 0-.187-.016-.328.031-.484a.844.844 0 0 1 .516-.625l-.11-.234-.39.171-.97.391.095.219c.203-.063.437-.016.515.187l.016.047c.094.203.031.594.031.86-.031.578-.062 1.187-.031 1.75-.188-.141-.328-.313-.485-.47l-.953-1C.594-3.28.47-3.39.344-3.53c-.031-.031-.11-.094-.125-.156-.094-.22.187-.36.375-.422l-.11-.235Zm0 0"/></symbol><symbol overflow="visible" id="U"><path style="stroke:none" d="m.156-2.313 2.438-1.03c.11-.048.125-.095.094-.204-.438-1.031-1.36-1.375-2.22-1.015-1.015.421-1.421 1.656-1 2.656a2.065 2.065 0 0 0 2.72 1.093c.593-.25 1.015-.921.937-1.578.016-.015 0-.062-.016-.093-.015-.047-.093-.079-.156-.063-.156.078-.047.328-.078.469-.063.422-.36.844-.766 1.015l-.062.032c-.422.156-.922.031-1.281-.282-.297-.28-.47-.64-.61-1ZM.078-2.5c-.234-.547-.281-1.281.25-1.734.063-.032.11-.079.172-.11.719-.297 1.297.328 1.578 1Zm0 0"/></symbol><clipPath id="g"><path d="M202 0h79.688v36H202Zm0 0"/></clipPath><clipPath id="p"><path d="M52 7h182v51.844H52Zm0 0"/></clipPath></defs><path style="fill-rule:nonzero;fill:#bfbfbf;fill-opacity:1;stroke-width:.3985;stroke-linecap:butt;stroke-linejoin:miter;stroke:#000;stroke-opacity:1;stroke-dasharray:2.98883,2.98883;stroke-miterlimit:10" d="M38.623 0c0 6.898-17.293 12.488-38.621 12.488-21.332 0-38.625-5.59-38.625-12.488S-21.33-12.488.002-12.488c21.328 0 38.62 5.59 38.62 12.488Zm0 0" transform="matrix(1 0 0 -1 43.803 17.668)"/><g style="fill:#fff;fill-opacity:1"><use xlink:href="#a" x="21.474" y="21.517"/><use xlink:href="#b" x="27.743" y="21.517"/><use xlink:href="#c" x="31.326" y="21.517"/><use xlink:href="#b" x="35.933" y="21.517"/></g><use xlink:href="#d" x="42.583" y="21.517" style="fill:#fff;fill-opacity:1"/><g style="fill:#fff;fill-opacity:1"><use xlink:href="#e" x="45.151" y="21.517"/><use xlink:href="#d" x="50.269" y="21.517"/><use xlink:href="#b" x="52.828" y="21.517"/><use xlink:href="#d" x="56.411" y="21.517"/><use xlink:href="#c" x="58.97" y="21.517"/><use xlink:href="#f" x="63.577" y="21.517"/></g><path style="stroke:none;fill-rule:nonzero;fill:#bfbfbf;fill-opacity:1" d="M276.512 17.668c0-6.898-15.348-12.488-34.282-12.488-18.933 0-34.28 5.59-34.28 12.488s15.347 12.488 34.28 12.488c18.934 0 34.282-5.59 34.282-12.488Zm0 0"/><g clip-path="url(#g)"><path style="fill:none;stroke-width:.3985;stroke-linecap:butt;stroke-linejoin:miter;stroke:#000;stroke-opacity:1;stroke-dasharray:2.98883,2.98883;stroke-miterlimit:10" d="M232.709 0c0 6.898-15.348 12.488-34.282 12.488-18.933 0-34.28-5.59-34.28-12.488s15.347-12.488 34.28-12.488c18.934 0 34.282 5.59 34.282 12.488Zm0 0" transform="matrix(1 0 0 -1 43.803 17.668)"/></g><g style="fill:#fff;fill-opacity:1"><use xlink:href="#a" x="222.97" y="21.517"/><use xlink:href="#b" x="229.239" y="21.517"/><use xlink:href="#c" x="232.822" y="21.517"/><use xlink:href="#b" x="237.429" y="21.517"/></g><use xlink:href="#h" x="244.079" y="21.517" style="fill:#fff;fill-opacity:1"/><g style="fill:#fff;fill-opacity:1"><use xlink:href="#e" x="249.206" y="21.517"/><use xlink:href="#c" x="254.324" y="21.517"/><use xlink:href="#f" x="258.931" y="21.517"/></g><path style="fill:none;stroke-width:1.59404;stroke-linecap:butt;stroke-linejoin:miter;stroke:gray;stroke-opacity:1;stroke-miterlimit:10" d="M43.603 0h111.778" transform="matrix(1 0 0 -1 43.803 17.668)"/><path style="stroke:none;fill-rule:nonzero;fill:gray;fill-opacity:1" d="m202.969 17.668-6.055-3.027 2.27 3.027-2.27 3.027"/><g style="fill:gray;fill-opacity:1"><use xlink:href="#b" x="103.282" y="15.676"/><use xlink:href="#i" x="106.865" y="15.676"/><use xlink:href="#c" x="110.469" y="15.676"/><use xlink:href="#e" x="115.076" y="15.676"/><use xlink:href="#j" x="120.194" y="15.676"/><use xlink:href="#k" x="123.828" y="15.676"/><use xlink:href="#l" x="126.643" y="15.676"/><use xlink:href="#i" x="131.25" y="15.676"/><use xlink:href="#m" x="134.854" y="15.676"/><use xlink:href="#c" x="142.532" y="15.676"/><use xlink:href="#b" x="147.138" y="15.676"/><use xlink:href="#d" x="150.721" y="15.676"/><use xlink:href="#l" x="153.28" y="15.676"/><use xlink:href="#e" x="157.887" y="15.676"/></g><g style="fill:gray;fill-opacity:1"><use xlink:href="#i" x="166.072" y="15.676"/><use xlink:href="#n" x="169.676" y="15.676"/><use xlink:href="#o" x="173.774" y="15.676"/><use xlink:href="#f" x="177.873" y="15.676"/><use xlink:href="#f" x="180.432" y="15.676"/><use xlink:href="#o" x="182.991" y="15.676"/></g><g clip-path="url(#p)"><path style="fill:none;stroke-width:1.59404;stroke-linecap:butt;stroke-linejoin:miter;stroke:gray;stroke-opacity:1;stroke-dasharray:2.98883,2.98883;stroke-miterlimit:10" d="M30.834-12.352c49.422-23.046 90.41-23.046 136.402-1.601" transform="matrix(1 0 0 -1 43.803 17.668)"/></g><path style="stroke:none;fill-rule:nonzero;fill:gray;fill-opacity:1" d="m214.469 30.02-6.77-.184 3.34 1.785-.781 3.703"/><use xlink:href="#q" x="80.06" y="42.692" style="fill:gray;fill-opacity:1"/><use xlink:href="#r" x="83.525" y="44.105" style="fill:gray;fill-opacity:1"/><use xlink:href="#s" x="87.062" y="45.483" style="fill:gray;fill-opacity:1"/><use xlink:href="#t" x="91.615" y="47.147" style="fill:gray;fill-opacity:1"/><use xlink:href="#u" x="96.687" y="48.845" style="fill:gray;fill-opacity:1"/><use xlink:href="#v" x="100.33" y="49.97" style="fill:gray;fill-opacity:1"/><use xlink:href="#w" x="103.233" y="50.821" style="fill:gray;fill-opacity:1"/><use xlink:href="#x" x="107.924" y="52.059" style="fill:gray;fill-opacity:1"/><use xlink:href="#y" x="111.76" y="53.009" style="fill:gray;fill-opacity:1"/><use xlink:href="#z" x="119.686" y="54.557" style="fill:gray;fill-opacity:1"/><use xlink:href="#A" x="124.511" y="55.303" style="fill:gray;fill-opacity:1"/><use xlink:href="#B" x="128.275" y="55.775" style="fill:gray;fill-opacity:1"/><use xlink:href="#C" x="131.068" y="56.077" style="fill:gray;fill-opacity:1"/><use xlink:href="#D" x="136.001" y="56.463" style="fill:gray;fill-opacity:1"/><use xlink:href="#E" x="144.714" y="56.708" style="fill:gray;fill-opacity:1"/><use xlink:href="#F" x="148.592" y="56.653" style="fill:gray;fill-opacity:1"/><use xlink:href="#G" x="153.004" y="56.466" style="fill:gray;fill-opacity:1"/><use xlink:href="#H" x="158.161" y="56.061" style="fill:gray;fill-opacity:1"/><use xlink:href="#I" x="162.496" y="55.58" style="fill:gray;fill-opacity:1"/><use xlink:href="#J" x="166.304" y="55.054" style="fill:gray;fill-opacity:1"/><use xlink:href="#K" x="170.089" y="54.427" style="fill:gray;fill-opacity:1"/><use xlink:href="#L" x="172.847" y="53.929" style="fill:gray;fill-opacity:1"/><use xlink:href="#M" x="178.083" y="52.798" style="fill:gray;fill-opacity:1"/><use xlink:href="#N" x="180.766" y="52.164" style="fill:gray;fill-opacity:1"/><use xlink:href="#O" x="188.04" y="50.187" style="fill:gray;fill-opacity:1"/><use xlink:href="#P" x="190.872" y="49.328" style="fill:gray;fill-opacity:1"/><use xlink:href="#Q" x="193.476" y="48.503" style="fill:gray;fill-opacity:1"/><use xlink:href="#R" x="197.533" y="47.122" style="fill:gray;fill-opacity:1"/><use xlink:href="#S" x="201.037" y="45.849" style="fill:gray;fill-opacity:1"/><use xlink:href="#T" x="203.592" y="44.89" style="fill:gray;fill-opacity:1"/><use xlink:href="#U" x="208.285" y="43.009" style="fill:gray;fill-opacity:1"/></svg>