<svg xmlns="http://www.w3.org/2000/svg" xmlns:xlink="http://www.w3.org/1999/xlink" width="331.62" height="135.228" viewBox="0 0 248.715 101.421"><defs><clipPath id="e"><path d="M31 17h70v68.195H31Zm0 0"/></clipPath><clipPath id="f"><path d="M26 11h81v74.195H26Zm0 0"/></clipPath><clipPath id="g"><path d="M17.879 7.781h96.898v77.414H17.88Zm0 0"/></clipPath><clipPath id="h"><path d="M31 17h71v68.195H31Zm0 0"/></clipPath><clipPath id="k"><path d="M146 7.781h94.023V78H146Zm0 0"/></clipPath><clipPath id="l"><path d="M160 25h72v60.2h-72Zm0 0"/></clipPath><symbol overflow="visible" id="a"><path style="stroke:none" d="M5.797-5.063c.36-.578.672-.75 1.094-.78.109-.016.187-.016.187-.173 0-.062-.062-.109-.125-.109-.031 0-.25.031-.734.031-.282 0-.594-.031-.86-.031-.062 0-.171.016-.171.156 0 .11.109.125.125.125.093 0 .421.016.421.282 0 .078-.03.14-.062.203-.047.078-.063.109-.094.171L2.766-.827l-.672-4.75c0-.078.062-.266.61-.266.108 0 .218 0 .218-.172 0-.093-.094-.109-.14-.109-.157 0-.345.016-.516.016-.188 0-.375.015-.579.015-.156 0-.406 0-.484-.015-.078 0-.437-.016-.516-.016-.03 0-.156 0-.156.156 0 .125.094.125.203.125.5 0 .516.078.547.297L2.078-.03c.016.172.031.234.188.234.14 0 .187-.078.25-.187Zm0 0"/></symbol><symbol overflow="visible" id="d"><path style="stroke:none" d="M.406 1.125c-.062.25-.078.344-.453.344-.11 0-.219 0-.219.156 0 .031.032.11.125.11l.375-.016H1.078c.156 0 .297.015.438.015.046 0 .171 0 .171-.156 0-.11-.093-.11-.25-.11-.421 0-.421-.062-.421-.155a2.9 2.9 0 0 1 .109-.438l.328-1.328c.094.187.344.547.86.547C3.359.094 4.5-1.172 4.5-2.516c0-.906-.563-1.453-1.234-1.453-.188 0-.641.047-1.188.656-.125-.5-.547-.656-.844-.656-.375 0-.578.281-.703.531-.14.313-.265.813-.265.86 0 .078.062.11.125.11.093 0 .109-.048.156-.235.172-.703.36-1.031.656-1.031.281 0 .281.28.281.421 0 .063-.015.204-.03.266Zm1.625-3.89c.047-.172.047-.188.172-.329.235-.312.64-.64 1.047-.64.422 0 .594.421.594.843 0 .391-.25 1.516-.531 1.985-.313.515-.688.781-1.016.781-.578 0-.735-.703-.735-.766 0-.062.032-.109.032-.156Zm0 0"/></symbol><symbol overflow="visible" id="j"><path style="stroke:none" d="M8.469-5.078a1.52 1.52 0 0 1 .156-.234c.328-.485.656-.516.906-.532.11-.015.11-.156.11-.172 0-.046-.032-.109-.11-.109-.047 0-.219.031-.719.031-.296 0-.609-.031-.906-.031-.047 0-.172 0-.172.156 0 .11.11.125.141.125.125 0 .516.016.516.344 0 .063-.016.14-.125.328L5.828-1l-.39-4.563c0-.093.093-.28.656-.28.11 0 .218 0 .218-.173 0-.078-.062-.109-.14-.109-.25 0-.844.031-1.094.031-.328 0-.344 0-.484-.015-.125 0-.36-.016-.469-.016-.047 0-.156 0-.156.156 0 .125.094.125.203.125.406 0 .453.063.469.203 0 .047.046.594.046.625 0 .032 0 .063-.062.157L2.375-1 2-5.422c-.016-.172-.031-.422.625-.422.125 0 .234 0 .234-.172 0-.093-.109-.109-.14-.109-.156 0-.344.016-.516.016-.187 0-.375.015-.562.015-.157 0-.391 0-.5-.015-.079 0-.391-.016-.454-.016-.046 0-.171 0-.171.156 0 .125.109.125.203.125.453 0 .469.063.484.313l.453 5.5c.016.156.016.234.157.234.125 0 .156-.062.234-.187l2.687-4.594.375 4.531c0 .156.016.25.157.25.03 0 .14 0 .234-.187Zm0 0"/></symbol><symbol overflow="visible" id="b"><path style="stroke:none" d="M2.14-3.797c0-.187-.015-.187-.203-.187-.39.39-1 .39-1.218.39v.235c.156 0 .562 0 .922-.172v3.015c0 .204 0 .282-.625.282h-.25V0c.328-.031.796-.031 1.125-.031.328 0 .796 0 1.125.031v-.234h-.25c-.625 0-.625-.078-.625-.282Zm0 0"/></symbol><symbol overflow="visible" id="c"><path style="stroke:none" d="M3.219-1.125H3c-.016.094-.078.484-.156.547-.047.047-.531.047-.625.047h-1.11l.766-.625c.203-.172.734-.547.922-.735.172-.171.422-.484.422-.906 0-.75-.672-1.187-1.485-1.187-.765 0-1.296.515-1.296 1.078 0 .297.25.344.312.344a.32.32 0 0 0 .328-.329c0-.125-.078-.328-.344-.328.141-.297.5-.531.922-.531.625 0 .953.469.953.953 0 .422-.28.86-.687 1.25L.5-.25C.437-.187.437-.187.437 0h2.594Zm0 0"/></symbol><symbol overflow="visible" id="i"><path style="stroke:none" d="M1.469-6.39c0-.157 0-.344-.188-.344-.203 0-.203.171-.203.343v8.297c0 .157 0 .344.203.344.188 0 .188-.172.188-.344Zm0 0"/></symbol></defs><path style="fill:none;stroke-width:.19925;stroke-linecap:butt;stroke-linejoin:miter;stroke:gray;stroke-opacity:1;stroke-miterlimit:10" d="M13.842-2.127v4.254m69.215-4.254v4.254M-2.127 67.736h4.254m-4.254-58.64h4.254" transform="matrix(1 0 0 -1 17.877 85.197)"/><path style="fill:none;stroke-width:.3985;stroke-linecap:butt;stroke-linejoin:miter;stroke:#000;stroke-opacity:1;stroke-miterlimit:10" d="M.002.002h94.906" transform="matrix(1 0 0 -1 17.877 85.197)"/><path style="stroke:none;fill-rule:nonzero;fill:#000;fill-opacity:1" d="m114.777 85.195-3.187-1.593 1.195 1.593-1.195 1.594"/><path style="fill:none;stroke-width:.3985;stroke-linecap:butt;stroke-linejoin:miter;stroke:#000;stroke-opacity:1;stroke-miterlimit:10" d="M.002.002v75.422" transform="matrix(1 0 0 -1 17.877 85.197)"/><path style="stroke:none;fill-rule:nonzero;fill:#000;fill-opacity:1" d="M17.879 7.781 16.28 10.97l1.598-1.196 1.594 1.196"/><use xlink:href="#a" x="26.957" y="95.443" style="fill:#000;fill-opacity:1"/><use xlink:href="#b" x="32.331" y="96.439" style="fill:#000;fill-opacity:1"/><use xlink:href="#a" x="96.171" y="95.443" style="fill:#000;fill-opacity:1"/><use xlink:href="#c" x="101.545" y="96.439" style="fill:#000;fill-opacity:1"/><use xlink:href="#d" x="4.981" y="18.519" style="fill:#000;fill-opacity:1"/><use xlink:href="#b" x="9.607" y="19.515" style="fill:#000;fill-opacity:1"/><use xlink:href="#d" x="4.981" y="77.16" style="fill:#000;fill-opacity:1"/><use xlink:href="#c" x="9.607" y="78.156" style="fill:#000;fill-opacity:1"/><g clip-path="url(#e)"><path style="stroke:none;fill-rule:nonzero;fill:#cceffc;fill-opacity:.2" d="m31.719 17.57 3.644 8.606 3.64 7.062 3.645 5.907 3.645 4.992 3.64 4.273 3.645 3.695 3.64 3.22 3.645 2.823 3.64 2.497 3.645 2.218 3.641 1.98 3.645 1.782 3.644 1.605 3.64 1.457 3.645 1.325 3.64 1.21 3.645 1.11 3.641 1.016 3.645.937v9.91H31.719Zm0 0"/></g><g clip-path="url(#f)"><path style="fill:none;stroke-width:.3985;stroke-linecap:butt;stroke-linejoin:miter;stroke:#fff;stroke-opacity:.2;stroke-miterlimit:10" d="m13.842 67.627 3.644-8.606 3.64-7.062 3.645-5.907 3.645-4.992 3.64-4.273 3.645-3.695 3.64-3.22 3.645-2.823 3.64-2.497 3.645-2.218 3.641-1.98 3.645-1.782 3.644-1.605 3.64-1.457 3.645-1.325 3.64-1.21 3.645-1.11 3.641-1.016 3.645-.937V.002H13.842Zm0 0" transform="matrix(1 0 0 -1 17.877 85.197)"/></g><g clip-path="url(#g)"><path style="fill:none;stroke-width:.99628;stroke-linecap:butt;stroke-linejoin:miter;stroke:#00adef;stroke-opacity:1;stroke-miterlimit:10" d="m13.842 67.627 3.644-8.606 3.64-7.062 3.645-5.907 3.645-4.992 3.64-4.273 3.645-3.695 3.64-3.22 3.645-2.823 3.64-2.497 3.645-2.218 3.641-1.98 3.645-1.782 3.644-1.605 3.64-1.457 3.645-1.325 3.64-1.21 3.645-1.11 3.641-1.016 3.645-.937" transform="matrix(1 0 0 -1 17.877 85.197)"/></g><path style="stroke:none;fill-rule:nonzero;fill:#00adef;fill-opacity:1" d="m65.867 61.473-2.746-4.375.277 2.875-2.68 1.07"/><g clip-path="url(#h)"><path style="fill:none;stroke-width:.3985;stroke-linecap:butt;stroke-linejoin:miter;stroke:#000;stroke-opacity:1;stroke-dasharray:2.98883,1.99255;stroke-miterlimit:10" d="M13.842.002v67.625M83.057.002v9.906" transform="matrix(1 0 0 -1 17.877 85.197)"/></g><use xlink:href="#i" x="58.776" y="75.827" style="fill:#00adef;fill-opacity:1"/><use xlink:href="#j" x="61.336" y="75.827" style="fill:#00adef;fill-opacity:1"/><use xlink:href="#i" x="71.318" y="75.827" style="fill:#00adef;fill-opacity:1"/><path style="fill-rule:nonzero;fill:#fff;fill-opacity:1;stroke-width:.3985;stroke-linecap:butt;stroke-linejoin:miter;stroke:#000;stroke-opacity:1;stroke-miterlimit:10" d="M15.834 67.627a1.993 1.993 0 1 1-3.983-.002 1.993 1.993 0 0 1 3.983.002ZM85.049 9.908a1.993 1.993 0 1 1-3.983-.002 1.993 1.993 0 0 1 3.983.002Zm0 0" transform="matrix(1 0 0 -1 17.877 85.197)"/><use xlink:href="#a" x="111.065" y="95.309" style="fill:#000;fill-opacity:1"/><use xlink:href="#d" x="9.266" y="8.842" style="fill:#000;fill-opacity:1"/><path style="fill:none;stroke-width:.19925;stroke-linecap:butt;stroke-linejoin:miter;stroke:gray;stroke-opacity:1;stroke-miterlimit:10" d="M17.62-2.126v4.254m70.472-4.254v4.254" transform="matrix(1 0 0 -1 143.123 85.198)"/><path style="fill:none;stroke-width:.3985;stroke-linecap:butt;stroke-linejoin:miter;stroke:#000;stroke-opacity:1;stroke-miterlimit:10" d="M-.002-.001h94.91" transform="matrix(1 0 0 -1 143.123 85.198)"/><path style="stroke:none;fill-rule:nonzero;fill:#000;fill-opacity:1" d="m240.023 85.2-3.187-1.595 1.195 1.594-1.195 1.594"/><path style="fill:none;stroke-width:.3985;stroke-linecap:butt;stroke-linejoin:miter;stroke:#000;stroke-opacity:1;stroke-miterlimit:10" d="M-.002-.001v75.426" transform="matrix(1 0 0 -1 143.123 85.198)"/><path style="stroke:none;fill-rule:nonzero;fill:#000;fill-opacity:1" d="m143.121 7.781-1.594 3.188 1.594-1.196 1.598 1.196"/><use xlink:href="#a" x="155.978" y="95.443" style="fill:#000;fill-opacity:1"/><use xlink:href="#b" x="161.352" y="96.44" style="fill:#000;fill-opacity:1"/><use xlink:href="#a" x="226.451" y="95.443" style="fill:#000;fill-opacity:1"/><use xlink:href="#c" x="231.825" y="96.44" style="fill:#000;fill-opacity:1"/><g clip-path="url(#k)"><path style="fill:none;stroke-width:.99628;stroke-linecap:butt;stroke-linejoin:miter;stroke:#00adef;stroke-opacity:1;stroke-miterlimit:10" d="m88.092 59.878-.035-.672-.094-.703-.152-.723-.223-.75-.277-.773-.344-.793-.399-.813-.464-.832-.52-.848-.582-.867-.637-.875-.691-.89-.746-.903-.801-.914-.855-.918-.903-.922-.949-.93-1.004-.933-1.043-.93-1.09-.933-1.129-.93-1.172-.926-1.207-.918-1.242-.914-1.277-.906-1.305-.894-1.336-.88-1.363-.867-1.383-.855-1.41-.836-1.426-.816-1.441-.801-1.457-.777-1.465-.754-1.477-.73-1.484-.708-1.484-.68-1.485-.652-1.484-.625-1.477-.594-1.472-.562-1.461-.531-1.45-.5-1.433-.465-1.418-.43-1.398-.395-1.375-.359-1.348-.324-1.32-.285-1.293-.246-1.262-.211-1.223-.168-1.191-.137-1.149-.09-1.109-.055-1.066-.015-1.024.023-.976.067-.93.101-.879.14-.824.184-.774.22-.722.257-.664.293-.61.332-.547.367-.496.407-.43.437-.37.473-.313.507-.25.54-.188.57-.125.601-.062.633v.66l.063.688.124.71.188.74.25.76.313.782.37.805.43.82.492.84.551.86.61.87.664.883.722.899.774.906.824.914.879.922.93.926.976.933 1.024.93 1.066.933 1.11.93 1.148.93 1.191.922 1.223.918 1.262.906 1.293.902 1.32.887 1.348.875 1.375.86 1.394.847 1.418.824 1.438.813 1.449.785 1.46.766 1.473.746 1.477.718 1.484.692 1.485.668 1.484.636 1.484.61 1.473.578 1.469.547 1.457.515 1.441.485 1.426.445 1.406.414 1.387.38 1.363.339 1.336.305 1.305.265 1.277.23 1.242.188 1.207.153 1.172.113 1.13.074 1.09.035 1.042-.008 1-.043.953-.082.903-.125.855-.16.8-.199.747-.238.691-.278.637-.312.582-.352.52-.386.46-.418.403-.457.344-.493.277-.523.219-.555.156-.586.094-.617.035-.644" transform="matrix(1 0 0 -1 143.123 85.198)"/></g><path style="stroke:none;fill-rule:nonzero;fill:#00adef;fill-opacity:1" d="m188.57 59.535 5.121.684-2.39-1.621.887-2.75"/><path style="fill-rule:nonzero;fill:#cceffc;fill-opacity:.2;stroke-width:.3985;stroke-linecap:butt;stroke-linejoin:miter;stroke:#fff;stroke-opacity:.2;stroke-miterlimit:10" d="m88.092 59.878-.035-.672-.094-.703-.152-.723-.223-.75-.277-.773-.344-.793-.399-.813-.464-.832-.52-.848-.582-.867-.637-.875-.691-.89-.746-.903-.801-.914-.855-.918-.903-.922-.949-.93-1.004-.933-1.043-.93-1.09-.933-1.129-.93-1.172-.926-1.207-.918-1.242-.914-1.277-.906-1.305-.894-1.336-.88-1.363-.867-1.383-.855-1.41-.836-1.426-.816-1.441-.801-1.457-.777-1.465-.754-1.477-.73-1.484-.708-1.484-.68-1.485-.652-1.484-.625-1.477-.594-1.472-.562-1.461-.531-1.45-.5-1.433-.465-1.418-.43-1.398-.395-1.375-.359-1.348-.324-1.32-.285-1.293-.246-1.262-.211-1.223-.168-1.191-.137-1.149-.09-1.109-.055-1.066-.015-1.024.023-.976.067-.93.101-.879.14-.824.184-.774.22-.722.257-.664.293-.61.332-.547.367-.496.407-.43.437-.37.473-.313.507-.25.54-.188.57-.125.601-.062.633v.66l.063.688.124.71.188.74.25.76.313.782.37.805.43.82.492.84.551.86.61.87.664.883.722.899.774.906.824.914.879.922.93.926.976.933 1.024.93 1.066.933 1.11.93 1.148.93 1.191.922 1.223.918 1.262.906 1.293.902 1.32.887 1.348.875 1.375.86 1.394.847 1.418.824 1.438.813 1.449.785 1.46.766 1.473.746 1.477.718 1.484.692 1.485.668 1.484.636 1.484.61 1.473.578 1.469.547 1.457.515 1.441.485 1.426.445 1.406.414 1.387.38 1.363.339 1.336.305 1.305.265 1.277.23 1.242.188 1.207.153 1.172.113 1.13.074 1.09.035 1.042-.008 1-.043.953-.082.903-.125.855-.16.8-.199.747-.238.691-.278.637-.312.582-.352.52-.386.46-.418.403-.457.344-.493.277-.523.219-.555.156-.586.094-.617.035-.644" transform="matrix(1 0 0 -1 143.123 85.198)"/><g clip-path="url(#l)"><path style="fill:none;stroke-width:.3985;stroke-linecap:butt;stroke-linejoin:miter;stroke:#000;stroke-opacity:1;stroke-dasharray:2.98883,1.99255;stroke-miterlimit:10" d="M17.62-.001V28.6M88.091 0v59.879" transform="matrix(1 0 0 -1 143.123 85.198)"/></g><use xlink:href="#i" x="184.022" y="48.732" style="fill:#00adef;fill-opacity:1"/><use xlink:href="#j" x="186.581" y="48.732" style="fill:#00adef;fill-opacity:1"/><use xlink:href="#i" x="196.563" y="48.732" style="fill:#00adef;fill-opacity:1"/><use xlink:href="#a" x="236.311" y="95.31" style="fill:#000;fill-opacity:1"/><use xlink:href="#d" x="134.512" y="8.841" style="fill:#000;fill-opacity:1"/></svg>