<svg xmlns="http://www.w3.org/2000/svg" xmlns:xlink="http://www.w3.org/1999/xlink" width="220.944" height="276.877" viewBox="0 0 165.708 207.658"><defs><symbol overflow="visible" id="a"><path style="stroke:none" d="M.406 1.125c-.062.25-.078.344-.453.344-.11 0-.219 0-.219.156 0 .031.032.11.125.11l.375-.016H1.078c.156 0 .297.015.438.015.046 0 .171 0 .171-.156 0-.11-.093-.11-.25-.11-.421 0-.421-.062-.421-.155a2.9 2.9 0 0 1 .109-.438l.328-1.328c.094.187.344.547.86.547C3.359.094 4.5-1.172 4.5-2.516c0-.906-.563-1.453-1.234-1.453-.188 0-.641.047-1.188.656-.125-.5-.547-.656-.844-.656-.375 0-.578.281-.703.531-.14.313-.265.813-.265.86 0 .078.062.11.125.11.093 0 .109-.048.156-.235.172-.703.36-1.031.656-1.031.281 0 .281.28.281.421 0 .063-.015.204-.03.266Zm1.625-3.89c.047-.172.047-.188.172-.329.235-.312.64-.64 1.047-.64.422 0 .594.421.594.843 0 .391-.25 1.516-.531 1.985-.313.515-.688.781-1.016.781-.578 0-.735-.703-.735-.766 0-.062.032-.109.032-.156Zm0 0"/></symbol><symbol overflow="visible" id="c"><path style="stroke:none" d="M1.625-.14c0 .296 0 1.03-.656 1.671-.047.047-.047.063-.047.094 0 .063.062.11.11.11.093 0 .827-.704.827-1.75 0-.563-.203-.954-.578-.954a.467.467 0 0 0-.484.485c0 .25.172.484.484.484a.46.46 0 0 0 .344-.14Zm0 0"/></symbol><symbol overflow="visible" id="d"><path style="stroke:none" d="M3.938-5.469c.046-.187.078-.281.218-.312.078-.016.36-.016.547-.016 1.031 0 1.344.063 1.344.766 0 .11 0 .25-.078.781l-.016.078c0 .063.031.125.125.125.11 0 .125-.094.14-.219l.235-1.562c.016-.031.016-.094.016-.125 0-.125-.078-.125-.25-.125h-5.11c-.218 0-.218.016-.28.187L.265-4.312c-.032.109-.032.14-.032.14 0 .047.032.125.11.125.11 0 .125-.062.172-.219.5-1.406.78-1.53 2.078-1.53h.344c.25 0 .25.03.25.109 0 .046-.016.109-.032.187L1.953-.703c-.078.312-.11.422-1.062.422-.282 0-.36 0-.36.172C.531 0 .641 0 .687 0c.235 0 .485-.016.735-.016s.5-.015.75-.015c.406 0 .422 0 .75.015.125 0 .703.016.781.016.078 0 .188 0 .188-.156 0-.125-.079-.125-.297-.125-.235 0-.344 0-.578-.016-.204-.031-.313-.031-.313-.187 0-.047.016-.11.031-.172Zm0 0"/></symbol><symbol overflow="visible" id="i"><path style="stroke:none" d="M1.906-3.594h.86c.156 0 .265 0 .265-.156 0-.11-.094-.11-.25-.11h-.797l.36-1.5c0-.14-.11-.25-.266-.25-.297 0-.36.25-.39.344l-.344 1.407H.5c-.172 0-.281 0-.281.156 0 .11.093.11.25.11h.812L.656-1.142c-.062.266-.062.282-.062.407 0 .53.406.828.875.828.922 0 1.453-1.282 1.453-1.375 0-.047-.031-.11-.11-.11-.093 0-.109.032-.171.188-.266.64-.72 1.078-1.157 1.078-.187 0-.296-.11-.296-.406 0-.203.03-.313.062-.453Zm0 0"/></symbol><symbol overflow="visible" id="B"><path style="stroke:none" d="M6.203-2.031c.11-.047.188-.094.188-.219s-.11-.172-.188-.203L1.141-4.891c-.125-.062-.157-.062-.188-.062a.19.19 0 0 0-.187.187c0 .11.062.157.187.22L5.75-2.25.953.047C.828.109.766.157.766.266c0 .062.062.187.203.187.015 0 .047 0 .156-.047Zm0 0"/></symbol><symbol overflow="visible" id="b"><path style="stroke:none" d="M2.14-3.797c0-.187-.015-.187-.203-.187-.39.39-1 .39-1.218.39v.235c.156 0 .562 0 .922-.172v3.015c0 .204 0 .282-.625.282h-.25V0c.328-.031.796-.031 1.125-.031.328 0 .796 0 1.125.031v-.234h-.25c-.625 0-.625-.078-.625-.282Zm0 0"/></symbol><symbol overflow="visible" id="E"><path style="stroke:none" d="M3.219-1.125H3c-.016.094-.078.484-.156.547-.047.047-.531.047-.625.047h-1.11l.766-.625c.203-.172.734-.547.922-.735.172-.171.422-.484.422-.906 0-.75-.672-1.187-1.485-1.187-.765 0-1.296.515-1.296 1.078 0 .297.25.344.312.344a.32.32 0 0 0 .328-.329c0-.125-.078-.328-.344-.328.141-.297.5-.531.922-.531.625 0 .953.469.953.953 0 .422-.28.86-.687 1.25L.5-.25C.437-.187.437-.187.437 0h2.594Zm0 0"/></symbol><symbol overflow="visible" id="e"><path style="stroke:none" d="M.844-1.36h2.031c.094 0 .11-.077.11-.124 0-.641-.422-1.188-1.235-1.188-.719 0-1.469.516-1.469 1.36C.281-.5 1.047.046 1.812.046c.47 0 1-.203 1.157-.703.015-.016.015-.047.015-.078 0-.063-.062-.079-.109-.079-.11 0-.156.204-.234.297a1.005 1.005 0 0 1-.72.36H1.86a1.02 1.02 0 0 1-.89-.531 1.608 1.608 0 0 1-.125-.672Zm.015-.187c.032-.484.375-.922.891-.922.531 0 .781.453.797.922Zm0 0"/></symbol><symbol overflow="visible" id="f"><path style="stroke:none" d="M.25-2.578v.234h.125c.11 0 .219.016.313.047.109.047.171.156.25.219l.421.453c.094.11.297.297.297.36 0 .062-.203.25-.297.343-.156.156-.28.313-.453.453-.203.14-.453.219-.703.219V0H1.36v-.25c-.078 0-.109-.078-.109-.125 0-.14.125-.25.234-.344.11-.125.25-.25.344-.375h.016c.172.25.64.61.64.735 0 .078-.093.109-.156.109V0h1.313v-.25h-.125c-.375 0-.485-.156-.672-.36-.203-.234-.39-.453-.61-.671-.03-.032-.062-.078-.109-.125.219-.172.406-.469.64-.657.204-.187.47-.28.75-.28v-.235H2.36v.234l.063.016c.031.031.062.078.062.125 0 .14-.171.281-.28.39-.079.079-.157.172-.235.25-.094-.156-.532-.484-.563-.64v-.016c0-.078.094-.11.157-.125v-.234Zm0 0"/></symbol><symbol overflow="visible" id="g"><path style="stroke:none" d="M1.078-3.688c0 .485-.266 1.157-.86 1.157v.187h.579v1.5c0 .203.015.39.125.563.156.25.469.328.75.328.437 0 .734-.344.734-.86v-.28h-.234c0 .093.015.171.015.25 0 .265-.093.687-.453.687-.359 0-.437-.36-.437-.64v-1.548h.984v-.234h-.984v-1.11Zm0 0"/></symbol><symbol overflow="visible" id="h"><path style="stroke:none" d="M6.344-2.969c.125 0 .297 0 .297-.187 0-.203-.188-.203-.329-.203H.845c-.14 0-.328 0-.328.203 0 .187.171.187.296.187ZM6.312-1.14c.141 0 .329 0 .329-.203 0-.187-.172-.187-.297-.187H.812c-.125 0-.296 0-.296.187 0 .203.187.203.328.203Zm0 0"/></symbol><symbol overflow="visible" id="v"><path style="stroke:none" d="M3.063 2.14c0-.046-.032-.078-.079-.14C1.828.937 1.47-.672 1.47-2.25c0-1.375.265-3.063 1.531-4.266.047-.046.063-.062.063-.109a.107.107 0 0 0-.11-.11c-.11 0-.922.657-1.406 1.626-.422.859-.64 1.796-.64 2.859 0 .64.077 1.672.577 2.719.532 1.11 1.36 1.765 1.47 1.765.062 0 .108-.03.108-.093Zm0 0"/></symbol><symbol overflow="visible" id="w"><path style="stroke:none" d="M2.672-2.25c0-.734-.11-1.719-.578-2.719C1.563-6.079.734-6.734.625-6.734c-.094 0-.11.078-.11.109 0 .047.016.063.079.125.531.469 1.515 1.688 1.515 4.25C2.11-.969 1.875.813.58 2.031c-.016.016-.063.063-.063.11 0 .015.015.093.109.093.11 0 .922-.64 1.406-1.625.422-.859.64-1.78.64-2.859Zm0 0"/></symbol><symbol overflow="visible" id="j"><path style="stroke:none" d="M1.203-3.86a.49.49 0 0 0-.406.485c0 .234.187.484.484.484.25 0 .485-.218.485-.484 0-.234-.188-.484-.47-.484h-.093Zm0 2.891A.473.473 0 0 0 .797-.5c0 .234.172.484.453.484.234 0 .516-.156.516-.484a.497.497 0 0 0-.485-.484c-.031 0-.047 0-.078.015Zm0 0"/></symbol><symbol overflow="visible" id="k"><path style="stroke:none" d="M1.031-2.063h2.657c.109 0 .156-.046.156-.156 0-1.125-.703-1.797-1.64-1.797-1.095 0-1.954.954-1.954 2.047C.25-.875 1.125.094 2.344.094c.64 0 1.281-.453 1.469-1.078.015-.016.015-.063.015-.094a.107.107 0 0 0-.11-.11c-.171 0-.171.266-.265.391-.219.375-.656.64-1.094.64h-.062C1.828-.171 1.422-.5 1.219-.921c-.172-.36-.188-.75-.188-1.14Zm.016-.218c0-.594.25-1.281.906-1.485a.914.914 0 0 1 .203-.03c.781 0 1.063.796 1.063 1.515Zm1.484-3.5c-.156.015-.312.203-.422.312-.28.282-.578.547-.859.828-.016.016-.016.032-.016.047 0 .063.079.188.141.188.047 0 .094-.047.125-.063l.25-.14c.39-.22 1.172-.516 1.172-.829 0-.171-.156-.359-.344-.359-.015 0-.031.016-.047.016Zm0 0"/></symbol><symbol overflow="visible" id="l"><path style="stroke:none" d="M3.484-.531v1.625c0 .328-.187.36-.687.36v.28l.64-.03h1.407v-.25h-.188c-.281 0-.5-.032-.5-.376v-5.047l-.218.016-.11.203-.234.578c-.094-.11-.156-.234-.235-.328a1.316 1.316 0 0 0-1.03-.469c-1.079 0-2.017.906-2.017 2.016 0 1.047.813 2.047 1.954 2.047.453 0 .984-.235 1.218-.625ZM1.078-1.797v-.11c0-.734.39-1.765 1.297-1.812h.031c.578 0 1.016.563 1.11 1.094v1.406c0 .735-.922 1.078-1.204 1.078h-.046C1.609-.188 1.25-.859 1.14-1.42c-.032-.126-.032-.25-.063-.376Zm0 0"/></symbol><symbol overflow="visible" id="m"><path style="stroke:none" d="M.313-3.86v.266H.39c.25 0 .593.031.593.281.016.11.016.188.016.297v1.782c0 .28.016.53.14.78.266.438.813.548 1.282.548.5 0 .984-.297 1.14-.766l.016.766 1.328-.11V-.28H4.75c-.266 0-.531-.031-.531-.438v-3.25l-1.36.11v.265h.125c.282 0 .563.031.563.453v1.766C3.5-.797 3.14-.141 2.453-.141c-.36 0-.687-.078-.765-.546-.016-.172-.016-.329-.016-.5V-3.97Zm0 0"/></symbol><symbol overflow="visible" id="n"><path style="stroke:none" d="M.36-3.86v.266H.5c.297 0 .516.047.516.453v2.485c0 .36-.25.375-.688.375v.265h1.938V-.28h-.141c-.234 0-.469-.031-.469-.313v-3.375Zm.765-2.156c-.234.047-.422.235-.422.485s.219.468.485.468h.062a.474.474 0 0 0 .422-.468.477.477 0 0 0-.484-.485Zm0 0"/></symbol><symbol overflow="visible" id="o"><path style="stroke:none" d="M.328-6.14v.28h.11c.312 0 .578.016.578.47v4.718c0 .375-.25.39-.641.39H.328v.266h2.016V-.28h-.235c-.234 0-.453-.047-.453-.36v-5.593Zm0 0"/></symbol><symbol overflow="visible" id="p"><path style="stroke:none" d="M.266-6.14v.28h.14c.297 0 .547.032.547.454v5.39l.25-.015.344-.531c.312.453.75.656 1.234.656 1.125 0 2.031-.953 2.031-2.047 0-.953-.765-2.016-1.937-2.016-.484 0-.89.172-1.281.563v-2.828Zm3.75 4.406c-.032.421-.079.796-.344 1.109a1.252 1.252 0 0 1-.969.484c-.375 0-.75-.218-.953-.546a.457.457 0 0 1-.125-.297v-2c.063-.391.703-.75 1.172-.75 1.047 0 1.234 1.14 1.234 1.812 0 .063 0 .125-.015.188Zm0 0"/></symbol><symbol overflow="visible" id="q"><path style="stroke:none" d="M.266-3.86v.266h.14c.281 0 .547.031.547.453v2.485c0 .36-.234.375-.687.375v.265L.89-.03h1.562v-.25h-.297c-.312 0-.562-.047-.562-.375v-1.516c.062-.625.234-1.562 1.14-1.562-.125.062-.171.203-.171.328a.39.39 0 1 0 .78 0c0-.375-.359-.563-.687-.563-.547 0-.984.469-1.11.969v-.969Zm0 0"/></symbol><symbol overflow="visible" id="r"><path style="stroke:none" d="M1.031-2.063h2.657c.109 0 .156-.046.156-.156 0-1.125-.703-1.797-1.64-1.797-1.095 0-1.954.954-1.954 2.047C.25-.875 1.125.094 2.344.094c.64 0 1.281-.453 1.469-1.078.015-.016.015-.063.015-.094a.107.107 0 0 0-.11-.11c-.171 0-.171.266-.265.391-.219.375-.656.64-1.094.64h-.062C1.828-.171 1.422-.5 1.219-.921c-.172-.36-.188-.75-.188-1.14Zm.016-.218c0-.594.25-1.281.906-1.485a.914.914 0 0 1 .203-.03c.781 0 1.063.796 1.063 1.515Zm0 0"/></symbol><symbol overflow="visible" id="s"><path style="stroke:none" d="M.313-3.86v.266h.14c.266 0 .547.031.547.453v2.485c0 .36-.234.375-.688.375v.265L.954-.03H2.36v-.25h-.203c-.265 0-.484-.047-.484-.375v-1.61c0-.687.406-1.468 1.25-1.468.484 0 .625.437.625 1v2.109c0 .313-.25.344-.547.344h-.14v.265L3.5-.03h1.406v-.25h-.172c-.265 0-.515-.031-.515-.36v-2.015c0-.281-.016-.531-.14-.781-.235-.422-.704-.532-1.141-.532-.547 0-1.11.375-1.313.89l-.016-.89Zm0 0"/></symbol><symbol overflow="visible" id="t"><path style="stroke:none" d="M1.36-5.531c0 .656-.298 1.718-1.188 1.718v.22h.781v2.374c0 .282.016.547.156.782.22.39.672.53 1.079.53h.078c.687-.124.796-.859.796-1.39v-.328h-.25c0 .125.016.25.016.39 0 .391-.094 1.079-.625 1.079-.484 0-.594-.563-.594-1.016v-2.422h1.313v-.265H1.609v-1.672Zm0 0"/></symbol><symbol overflow="visible" id="u"><path style="stroke:none" d="M1.094-3.484c.25-.22.61-.313.937-.313.313 0 .594.172.781.438.172.25.172.53.172.828v.156c-.734.078-1.468.078-2.093.547-.297.219-.516.578-.516.937 0 .735.875.985 1.469.985.547 0 .968-.281 1.218-.75.079.375.297.703.704.703.546 0 .78-.453.78-.953v-.406h-.25v.453c0 .25-.046.593-.327.593-.297 0-.313-.39-.313-.593v-1.75c0-.938-.812-1.407-1.61-1.407-.562 0-1.39.235-1.39.938 0 .25.14.437.469.437.219-.015.36-.218.36-.421 0-.25-.188-.376-.391-.422Zm1.89 1.328v.875c0 .625-.437 1.14-1.062 1.14h-.063c-.421-.03-.75-.359-.75-.75 0-.859 1.032-1.265 1.875-1.265Zm0 0"/></symbol><symbol overflow="visible" id="x"><path style="stroke:none" d="M3.25-3.531c-.188.062-.36.172-.36.422 0 .218.157.406.422.406.235 0 .422-.172.422-.438 0-.64-.765-.859-1.312-.875h-.094A2.04 2.04 0 0 0 .313-1.953c0 1.094.859 2.047 2 2.047.624 0 1.203-.328 1.453-.969.015-.063.062-.14.062-.203s-.062-.11-.125-.11c-.156 0-.156.235-.234.36-.219.406-.61.672-1.094.672-.984 0-1.297-1.125-1.297-1.813 0-.734.266-1.797 1.266-1.797.25 0 .515.032.734.141.063.016.11.063.172.094Zm0 0"/></symbol><symbol overflow="visible" id="y"><path style="stroke:none" d="M2.172-4.016c-1.047.11-1.906.954-1.906 2.094C.266-1 .953.094 2.312.094c1.047 0 2.032-.844 2.032-2 0-1.078-.844-2.125-2.047-2.125-.047 0-.078.015-.125.015ZM1.047-1.719v-.375c0-.719.219-1.703 1.266-1.703.703 0 1.156.563 1.234 1.281.015.188.015.375.015.563 0 .469-.03 1-.359 1.375a1.19 1.19 0 0 1-.906.422c-.656 0-1.11-.5-1.235-1.219 0-.11 0-.219-.015-.344Zm0 0"/></symbol><symbol overflow="visible" id="z"><path style="stroke:none" d="M.36-3.86v.266H.5c.297 0 .516.047.516.453v2.485c0 .36-.25.375-.688.375v.265h1.938V-.28h-.141c-.234 0-.469-.031-.469-.313v-3.375Zm-.266-.656.187.172.969-.937.094-.063.265.235.782.765.187-.172-.922-1-.312-.328-.328.328Zm0 0"/></symbol><symbol overflow="visible" id="A"><path style="stroke:none" d="M.313-3.86v.266h.14c.266 0 .547.031.547.453v2.485c0 .36-.234.375-.688.375v.265L.954-.03H2.36v-.25h-.203c-.265 0-.484-.047-.484-.375v-1.797c.047-.64.484-1.281 1.25-1.281.578 0 .64.578.64 1v2.109c0 .313-.265.344-.562.344h-.125v.265L3.5-.03h1.422v-.25h-.219c-.25 0-.484-.047-.484-.375v-1.797c.062-.64.484-1.281 1.265-1.281.563 0 .625.578.625 1v2.109c0 .313-.25.344-.546.344h-.141v.265h2.047V-.28h-.172c-.25 0-.516-.031-.516-.36v-2.015c0-.281-.015-.547-.14-.781-.235-.422-.704-.532-1.141-.532-.547 0-1.11.36-1.297.86h-.016c-.078-.625-.656-.86-1.203-.86-.578 0-1.14.328-1.359.89l-.016-.89Zm0 0"/></symbol><symbol overflow="visible" id="C"><path style="stroke:none" d="M2.828-6.14v.28h.094c.36 0 .594.016.594.548v1.875a1.532 1.532 0 0 0-1.172-.532c-1.11 0-2.031.938-2.031 2.047C.313-.906 1.14.094 2.266.094c.421 0 .984-.203 1.218-.578v.578l1.36-.11V-.28h-.14c-.298 0-.548-.031-.548-.453v-5.5Zm-1.75 4.406v-.125c0-.72.188-1.875 1.313-1.875.468 0 1.109.343 1.109.906 0 .11-.016.219-.016.328v1.484c0 .11-.046.188-.109.282-.234.343-.64.593-1.063.593a1.14 1.14 0 0 1-.89-.453c-.25-.328-.297-.734-.344-1.14Zm0 0"/></symbol><symbol overflow="visible" id="D"><path style="stroke:none" d="M1.656-5.422v.156c0 .438-.156.875-.422 1.235-.093.125-.312.281-.312.39 0 .063.062.11.094.11.14 0 .406-.36.53-.563.22-.36.345-.765.345-1.187 0-.39-.125-.953-.625-.953-.282 0-.47.218-.47.5v.062c.032.25.25.406.485.406a.546.546 0 0 0 .375-.156Zm0 0"/></symbol><symbol overflow="visible" id="F"><path style="stroke:none" d="M.953-3.86H.25v.266h.703v2.969c0 .313-.25.344-.547.344h-.14v.265L.922-.03h.734l.625.015V-.28h-.203c-.25 0-.484-.031-.484-.344v-2.969h1.468c.25 0 .454.078.454.422v2.5c0 .297-.094.39-.688.39v.266l.625-.015h.735l.656.015V-.28h-.219c-.234 0-.469-.047-.469-.375V-3.97l-1.39.11H1.562v-.922c0-.188.016-.375.094-.563.203-.468.75-.765 1.266-.765.281 0 .562.078.765.265a.426.426 0 0 0-.39.422.42.42 0 0 0 .422.422.42.42 0 0 0 .422-.422v-.016c0-.625-.688-.89-1.22-.89-.89 0-1.968.453-1.968 1.469Zm0 0"/></symbol></defs><path style="stroke:none;fill-rule:nonzero;fill:#effafb;fill-opacity:1" d="M108.387 5.68v45.355H9.172V5.68Zm0 0"/><path style="fill:none;stroke-width:4.98138;stroke-linecap:round;stroke-linejoin:miter;stroke:gray;stroke-opacity:1;stroke-miterlimit:10" d="M99.215 2.987v39.379" transform="matrix(1 0 0 -1 9.172 51.034)"/><path style="fill:none;stroke-width:1.39478;stroke-linecap:butt;stroke-linejoin:miter;stroke:#000;stroke-opacity:1;stroke-miterlimit:10" d="M141.734 45.354H0V0h141.734" transform="matrix(1 0 0 -1 9.172 51.034)"/><path style="fill:none;stroke-width:.59776;stroke-linecap:butt;stroke-linejoin:miter;stroke:#fff;stroke-opacity:1;stroke-miterlimit:10" d="M141.734 45.354H0V0h141.734" transform="matrix(1 0 0 -1 9.172 51.034)"/><use xlink:href="#a" x="39.511" y="30.548" style="fill:#000;fill-opacity:1"/><use xlink:href="#b" x="44.137" y="31.544" style="fill:#000;fill-opacity:1"/><use xlink:href="#c" x="48.288" y="30.548" style="fill:#000;fill-opacity:1"/><use xlink:href="#d" x="53.923" y="30.548" style="fill:#000;fill-opacity:1"/><use xlink:href="#b" x="59.296" y="31.544" style="fill:#000;fill-opacity:1"/><use xlink:href="#a" x="124.551" y="31.227" style="fill:#000;fill-opacity:1"/><g style="fill:#000;fill-opacity:1"><use xlink:href="#e" x="129.177" y="27.418"/><use xlink:href="#f" x="132.442" y="27.418"/><use xlink:href="#g" x="136.288" y="27.418"/></g><use xlink:href="#h" x="142.222" y="31.227" style="fill:#000;fill-opacity:1"/><use xlink:href="#a" x="151.95" y="31.227" style="fill:#000;fill-opacity:1"/><use xlink:href="#b" x="156.576" y="32.223" style="fill:#000;fill-opacity:1"/><use xlink:href="#i" x="33.032" y="59.201" style="fill:#000;fill-opacity:1"/><use xlink:href="#h" x="38.92" y="59.201" style="fill:#000;fill-opacity:1"/><use xlink:href="#i" x="48.647" y="59.201" style="fill:#000;fill-opacity:1"/><use xlink:href="#b" x="51.975" y="60.198" style="fill:#000;fill-opacity:1"/><use xlink:href="#j" x="59.197" y="59.201" style="fill:#000;fill-opacity:1"/><g style="fill:#000;fill-opacity:1"><use xlink:href="#k" x="65.854" y="59.201"/><use xlink:href="#l" x="69.952" y="59.201"/><use xlink:href="#m" x="74.815" y="59.201"/><use xlink:href="#n" x="79.933" y="59.201"/><use xlink:href="#o" x="82.492" y="59.201"/><use xlink:href="#n" x="85.051" y="59.201"/><use xlink:href="#p" x="87.61" y="59.201"/><use xlink:href="#q" x="92.728" y="59.201"/><use xlink:href="#r" x="96.331" y="59.201"/></g><g style="fill:#000;fill-opacity:1"><use xlink:href="#n" x="103.496" y="59.201"/><use xlink:href="#s" x="106.055" y="59.201"/><use xlink:href="#n" x="111.173" y="59.201"/><use xlink:href="#t" x="113.732" y="59.201"/><use xlink:href="#n" x="117.315" y="59.201"/><use xlink:href="#u" x="119.874" y="59.201"/><use xlink:href="#o" x="124.481" y="59.201"/></g><path style="fill:none;stroke-width:.3985;stroke-linecap:butt;stroke-linejoin:miter;stroke:#000;stroke-opacity:1;stroke-miterlimit:10" d="M103.695 5.67h5.98" transform="matrix(1 0 0 -1 9.172 51.034)"/><path style="stroke:none;fill-rule:nonzero;fill:#000;fill-opacity:1" d="m110.875 45.363 3.191 1.594-1.199-1.594 1.2-1.593"/><path style="fill:none;stroke-width:.3985;stroke-linecap:butt;stroke-linejoin:miter;stroke:#000;stroke-opacity:1;stroke-miterlimit:10" d="M103.695 11.339h5.98" transform="matrix(1 0 0 -1 9.172 51.034)"/><path style="stroke:none;fill-rule:nonzero;fill:#000;fill-opacity:1" d="m110.875 39.695 3.191 1.594-1.199-1.594 1.2-1.593"/><path style="fill:none;stroke-width:.3985;stroke-linecap:butt;stroke-linejoin:miter;stroke:#000;stroke-opacity:1;stroke-miterlimit:10" d="M103.695 17.007h5.98" transform="matrix(1 0 0 -1 9.172 51.034)"/><path style="stroke:none;fill-rule:nonzero;fill:#000;fill-opacity:1" d="m110.875 34.027 3.191 1.594-1.199-1.594 1.2-1.593"/><path style="fill:none;stroke-width:.3985;stroke-linecap:butt;stroke-linejoin:miter;stroke:#000;stroke-opacity:1;stroke-miterlimit:10" d="M103.695 22.679h5.98" transform="matrix(1 0 0 -1 9.172 51.034)"/><path style="stroke:none;fill-rule:nonzero;fill:#000;fill-opacity:1" d="m110.875 28.355 3.191 1.594-1.199-1.594 1.2-1.593"/><path style="fill:none;stroke-width:.3985;stroke-linecap:butt;stroke-linejoin:miter;stroke:#000;stroke-opacity:1;stroke-miterlimit:10" d="M103.695 28.346h5.98" transform="matrix(1 0 0 -1 9.172 51.034)"/><path style="stroke:none;fill-rule:nonzero;fill:#000;fill-opacity:1" d="m110.875 22.688 3.191 1.593-1.199-1.593 1.2-1.594"/><path style="fill:none;stroke-width:.3985;stroke-linecap:butt;stroke-linejoin:miter;stroke:#000;stroke-opacity:1;stroke-miterlimit:10" d="M103.695 34.014h5.98" transform="matrix(1 0 0 -1 9.172 51.034)"/><path style="stroke:none;fill-rule:nonzero;fill:#000;fill-opacity:1" d="m110.875 17.02 3.191 1.593-1.199-1.593 1.2-1.594"/><path style="fill:none;stroke-width:.3985;stroke-linecap:butt;stroke-linejoin:miter;stroke:#000;stroke-opacity:1;stroke-miterlimit:10" d="M103.695 39.686h5.98" transform="matrix(1 0 0 -1 9.172 51.034)"/><path style="stroke:none;fill-rule:nonzero;fill:#000;fill-opacity:1" d="m110.875 11.348 3.191 1.593-1.199-1.593 1.2-1.594"/><path style="stroke:none;fill-rule:nonzero;fill:#effafb;fill-opacity:1" d="M94.21 76.547v45.355H9.173V76.547Zm0 0"/><path style="fill:none;stroke-width:4.98138;stroke-linecap:round;stroke-linejoin:miter;stroke:gray;stroke-opacity:1;stroke-miterlimit:10" d="M85.039-67.88v39.379" transform="matrix(1 0 0 -1 9.172 51.034)"/><path style="fill:none;stroke-width:1.39478;stroke-linecap:butt;stroke-linejoin:miter;stroke:#000;stroke-opacity:1;stroke-miterlimit:10" d="M141.734-25.513H0v-45.355h141.734" transform="matrix(1 0 0 -1 9.172 51.034)"/><path style="fill:none;stroke-width:.59776;stroke-linecap:butt;stroke-linejoin:miter;stroke:#fff;stroke-opacity:1;stroke-miterlimit:10" d="M141.734-25.513H0v-45.355h141.734" transform="matrix(1 0 0 -1 9.172 51.034)"/><use xlink:href="#a" x="39.511" y="94.988" style="fill:#000;fill-opacity:1"/><use xlink:href="#v" x="44.137" y="94.988" style="fill:#000;fill-opacity:1"/><use xlink:href="#i" x="47.721" y="94.988" style="fill:#000;fill-opacity:1"/><use xlink:href="#w" x="51.049" y="94.988" style="fill:#000;fill-opacity:1"/><use xlink:href="#h" x="57.188" y="94.988" style="fill:#000;fill-opacity:1"/><use xlink:href="#a" x="66.92" y="94.988" style="fill:#000;fill-opacity:1"/><g style="fill:#000;fill-opacity:1"><use xlink:href="#e" x="71.546" y="91.179"/><use xlink:href="#f" x="74.811" y="91.179"/><use xlink:href="#g" x="78.657" y="91.179"/></g><use xlink:href="#d" x="39.511" y="107.94" style="fill:#000;fill-opacity:1"/><use xlink:href="#v" x="46.167" y="107.94" style="fill:#000;fill-opacity:1"/><use xlink:href="#i" x="49.751" y="107.94" style="fill:#000;fill-opacity:1"/><use xlink:href="#w" x="53.079" y="107.94" style="fill:#000;fill-opacity:1"/><use xlink:href="#h" x="59.218" y="107.94" style="fill:#000;fill-opacity:1"/><use xlink:href="#d" x="68.95" y="107.94" style="fill:#000;fill-opacity:1"/><use xlink:href="#b" x="74.326" y="108.936" style="fill:#000;fill-opacity:1"/><use xlink:href="#a" x="110.377" y="92.006" style="fill:#000;fill-opacity:1"/><g style="fill:#000;fill-opacity:1"><use xlink:href="#e" x="115.003" y="88.197"/><use xlink:href="#f" x="118.268" y="88.197"/><use xlink:href="#g" x="122.114" y="88.197"/></g><use xlink:href="#v" x="125.489" y="92.006" style="fill:#000;fill-opacity:1"/><use xlink:href="#i" x="129.073" y="92.006" style="fill:#000;fill-opacity:1"/><use xlink:href="#w" x="132.401" y="92.006" style="fill:#000;fill-opacity:1"/><g style="fill:#000;fill-opacity:1"><use xlink:href="#x" x="110.377" y="102.965"/><use xlink:href="#q" x="114.472" y="102.965"/><use xlink:href="#y" x="118.076" y="102.965"/><use xlink:href="#z" x="122.682" y="102.965"/><use xlink:href="#t" x="125.241" y="102.965"/></g><g style="fill:#000;fill-opacity:1"><use xlink:href="#o" x="110.377" y="113.924"/><use xlink:href="#r" x="112.936" y="113.924"/><use xlink:href="#s" x="117.035" y="113.924"/></g><g style="fill:#000;fill-opacity:1"><use xlink:href="#t" x="121.902" y="113.924"/><use xlink:href="#r" x="125.484" y="113.924"/></g><g style="fill:#000;fill-opacity:1"><use xlink:href="#A" x="129.574" y="113.924"/><use xlink:href="#r" x="137.252" y="113.924"/><use xlink:href="#s" x="141.351" y="113.924"/></g><use xlink:href="#t" x="146.217" y="113.924" style="fill:#000;fill-opacity:1"/><use xlink:href="#i" x="4.981" y="130.068" style="fill:#000;fill-opacity:1"/><use xlink:href="#B" x="10.873" y="130.068" style="fill:#000;fill-opacity:1"/><use xlink:href="#i" x="20.596" y="130.068" style="fill:#000;fill-opacity:1"/><use xlink:href="#b" x="23.924" y="131.064" style="fill:#000;fill-opacity:1"/><use xlink:href="#j" x="31.146" y="130.068" style="fill:#000;fill-opacity:1"/><g style="fill:#000;fill-opacity:1"><use xlink:href="#k" x="37.803" y="130.068"/><use xlink:href="#t" x="41.901" y="130.068"/><use xlink:href="#u" x="45.484" y="130.068"/><use xlink:href="#t" x="50.091" y="130.068"/></g><g style="fill:#000;fill-opacity:1"><use xlink:href="#n" x="56.741" y="130.068"/><use xlink:href="#s" x="59.3" y="130.068"/></g><g style="fill:#000;fill-opacity:1"><use xlink:href="#t" x="64.167" y="130.068"/><use xlink:href="#r" x="67.75" y="130.068"/><use xlink:href="#q" x="71.848" y="130.068"/><use xlink:href="#A" x="75.452" y="130.068"/><use xlink:href="#k" x="83.13" y="130.068"/><use xlink:href="#C" x="87.228" y="130.068"/><use xlink:href="#n" x="92.346" y="130.068"/><use xlink:href="#u" x="94.905" y="130.068"/><use xlink:href="#n" x="99.512" y="130.068"/><use xlink:href="#q" x="102.071" y="130.068"/><use xlink:href="#r" x="105.675" y="130.068"/></g><g style="fill:#000;fill-opacity:1"><use xlink:href="#C" x="112.84" y="130.068"/><use xlink:href="#D" x="117.958" y="130.068"/><use xlink:href="#k" x="120.517" y="130.068"/><use xlink:href="#l" x="124.615" y="130.068"/><use xlink:href="#m" x="129.478" y="130.068"/><use xlink:href="#n" x="134.596" y="130.068"/><use xlink:href="#o" x="137.155" y="130.068"/><use xlink:href="#n" x="139.714" y="130.068"/><use xlink:href="#p" x="142.273" y="130.068"/><use xlink:href="#q" x="147.391" y="130.068"/><use xlink:href="#r" x="150.994" y="130.068"/></g><path style="fill:none;stroke-width:.3985;stroke-linecap:butt;stroke-linejoin:miter;stroke:#000;stroke-opacity:1;stroke-miterlimit:10" d="M89.523-65.196h7.97" transform="matrix(1 0 0 -1 9.172 51.034)"/><path style="stroke:none;fill-rule:nonzero;fill:#000;fill-opacity:1" d="m96.703 116.23 3.188 1.594-1.196-1.594 1.196-1.593"/><path style="fill:none;stroke-width:.3985;stroke-linecap:butt;stroke-linejoin:miter;stroke:#000;stroke-opacity:1;stroke-miterlimit:10" d="M89.523-59.529h7.97" transform="matrix(1 0 0 -1 9.172 51.034)"/><path style="stroke:none;fill-rule:nonzero;fill:#000;fill-opacity:1" d="m96.703 110.563 3.188 1.593-1.196-1.594 1.196-1.593"/><path style="fill:none;stroke-width:.3985;stroke-linecap:butt;stroke-linejoin:miter;stroke:#000;stroke-opacity:1;stroke-miterlimit:10" d="M89.523-53.86h7.97" transform="matrix(1 0 0 -1 9.172 51.034)"/><path style="stroke:none;fill-rule:nonzero;fill:#000;fill-opacity:1" d="m96.703 104.895 3.188 1.593-1.196-1.593 1.196-1.594"/><path style="fill:none;stroke-width:.3985;stroke-linecap:butt;stroke-linejoin:miter;stroke:#000;stroke-opacity:1;stroke-miterlimit:10" d="M89.523-48.189h7.97" transform="matrix(1 0 0 -1 9.172 51.034)"/><path style="stroke:none;fill-rule:nonzero;fill:#000;fill-opacity:1" d="m96.703 99.223 3.188 1.593-1.196-1.593 1.196-1.594"/><path style="fill:none;stroke-width:.3985;stroke-linecap:butt;stroke-linejoin:miter;stroke:#000;stroke-opacity:1;stroke-miterlimit:10" d="M89.523-42.52h7.97" transform="matrix(1 0 0 -1 9.172 51.034)"/><path style="stroke:none;fill-rule:nonzero;fill:#000;fill-opacity:1" d="m96.703 93.555 3.188 1.593-1.196-1.593 1.196-1.594"/><path style="fill:none;stroke-width:.3985;stroke-linecap:butt;stroke-linejoin:miter;stroke:#000;stroke-opacity:1;stroke-miterlimit:10" d="M89.523-36.853h7.97" transform="matrix(1 0 0 -1 9.172 51.034)"/><path style="stroke:none;fill-rule:nonzero;fill:#000;fill-opacity:1" d="m96.703 87.887 3.188 1.593-1.196-1.593 1.196-1.594"/><path style="fill:none;stroke-width:.3985;stroke-linecap:butt;stroke-linejoin:miter;stroke:#000;stroke-opacity:1;stroke-miterlimit:10" d="M89.523-31.18h7.97" transform="matrix(1 0 0 -1 9.172 51.034)"/><path style="stroke:none;fill-rule:nonzero;fill:#000;fill-opacity:1" d="m96.703 82.215 3.188 1.594-1.196-1.594 1.196-1.594"/><path style="stroke:none;fill-rule:nonzero;fill:#effafb;fill-opacity:1" d="M65.867 147.414v45.356H9.172v-45.356Zm0 0"/><path style="fill:none;stroke-width:4.98138;stroke-linecap:round;stroke-linejoin:miter;stroke:gray;stroke-opacity:1;stroke-miterlimit:10" d="M56.695-138.743v39.375" transform="matrix(1 0 0 -1 9.172 51.034)"/><path style="fill:none;stroke-width:1.39478;stroke-linecap:butt;stroke-linejoin:miter;stroke:#000;stroke-opacity:1;stroke-miterlimit:10" d="M141.734-96.38H0v-45.356h141.734" transform="matrix(1 0 0 -1 9.172 51.034)"/><path style="fill:none;stroke-width:.59776;stroke-linecap:butt;stroke-linejoin:miter;stroke:#fff;stroke-opacity:1;stroke-miterlimit:10" d="M141.734-96.38H0v-45.356h141.734" transform="matrix(1 0 0 -1 9.172 51.034)"/><use xlink:href="#a" x="16.146" y="166.353" style="fill:#000;fill-opacity:1"/><use xlink:href="#E" x="20.772" y="167.349" style="fill:#000;fill-opacity:1"/><use xlink:href="#d" x="16.146" y="178.208" style="fill:#000;fill-opacity:1"/><use xlink:href="#E" x="21.522" y="179.204" style="fill:#000;fill-opacity:1"/><use xlink:href="#h" x="28.233" y="178.208" style="fill:#000;fill-opacity:1"/><use xlink:href="#d" x="37.96" y="178.208" style="fill:#000;fill-opacity:1"/><use xlink:href="#b" x="43.336" y="179.204" style="fill:#000;fill-opacity:1"/><use xlink:href="#a" x="96.204" y="172.959" style="fill:#000;fill-opacity:1"/><g style="fill:#000;fill-opacity:1"><use xlink:href="#e" x="100.83" y="169.15"/><use xlink:href="#f" x="104.095" y="169.15"/><use xlink:href="#g" x="107.941" y="169.15"/></g><use xlink:href="#h" x="113.876" y="172.959" style="fill:#000;fill-opacity:1"/><use xlink:href="#a" x="123.603" y="172.959" style="fill:#000;fill-opacity:1"/><use xlink:href="#E" x="128.229" y="173.955" style="fill:#000;fill-opacity:1"/><use xlink:href="#i" x="22.794" y="200.934" style="fill:#000;fill-opacity:1"/><use xlink:href="#h" x="28.681" y="200.934" style="fill:#000;fill-opacity:1"/><use xlink:href="#i" x="38.409" y="200.934" style="fill:#000;fill-opacity:1"/><use xlink:href="#E" x="41.736" y="201.93" style="fill:#000;fill-opacity:1"/><use xlink:href="#j" x="48.959" y="200.934" style="fill:#000;fill-opacity:1"/><g style="fill:#000;fill-opacity:1"><use xlink:href="#k" x="55.616" y="200.934"/><use xlink:href="#t" x="59.714" y="200.934"/><use xlink:href="#u" x="63.297" y="200.934"/><use xlink:href="#t" x="67.904" y="200.934"/></g><g style="fill:#000;fill-opacity:1"><use xlink:href="#F" x="74.554" y="200.934"/><use xlink:href="#s" x="79.672" y="200.934"/><use xlink:href="#u" x="84.79" y="200.934"/><use xlink:href="#o" x="89.397" y="200.934"/></g><g style="fill:#000;fill-opacity:1"><use xlink:href="#C" x="95.031" y="200.934"/><use xlink:href="#D" x="100.149" y="200.934"/><use xlink:href="#k" x="102.708" y="200.934"/><use xlink:href="#l" x="106.807" y="200.934"/><use xlink:href="#m" x="111.669" y="200.934"/><use xlink:href="#n" x="116.787" y="200.934"/><use xlink:href="#o" x="119.346" y="200.934"/><use xlink:href="#n" x="121.905" y="200.934"/><use xlink:href="#p" x="124.464" y="200.934"/><use xlink:href="#q" x="129.582" y="200.934"/><use xlink:href="#r" x="133.186" y="200.934"/></g><path style="fill:none;stroke-width:.79701;stroke-linecap:butt;stroke-linejoin:miter;stroke:#000;stroke-opacity:1;stroke-miterlimit:10" d="M61.773-136.064h9.367" transform="matrix(1 0 0 -1 9.172 51.034)"/><path style="stroke:none;fill-rule:nonzero;fill:#000;fill-opacity:1" d="m68.355 187.098 4.145 2.074-1.555-2.074 1.555-2.07"/><path style="fill:none;stroke-width:.79701;stroke-linecap:butt;stroke-linejoin:miter;stroke:#000;stroke-opacity:1;stroke-miterlimit:10" d="M61.773-130.396h9.367" transform="matrix(1 0 0 -1 9.172 51.034)"/><path style="stroke:none;fill-rule:nonzero;fill:#000;fill-opacity:1" d="m68.355 181.43 4.145 2.07-1.555-2.07 1.555-2.075"/><path style="fill:none;stroke-width:.79701;stroke-linecap:butt;stroke-linejoin:miter;stroke:#000;stroke-opacity:1;stroke-miterlimit:10" d="M61.773-124.728h9.367" transform="matrix(1 0 0 -1 9.172 51.034)"/><path style="stroke:none;fill-rule:nonzero;fill:#000;fill-opacity:1" d="m68.355 175.762 4.145 2.07-1.555-2.07 1.555-2.075"/><path style="fill:none;stroke-width:.79701;stroke-linecap:butt;stroke-linejoin:miter;stroke:#000;stroke-opacity:1;stroke-miterlimit:10" d="M61.773-119.056h9.367" transform="matrix(1 0 0 -1 9.172 51.034)"/><path style="stroke:none;fill-rule:nonzero;fill:#000;fill-opacity:1" d="m68.355 170.09 4.145 2.074-1.555-2.074 1.555-2.07"/><path style="fill:none;stroke-width:.79701;stroke-linecap:butt;stroke-linejoin:miter;stroke:#000;stroke-opacity:1;stroke-miterlimit:10" d="M61.773-113.388h9.367" transform="matrix(1 0 0 -1 9.172 51.034)"/><path style="stroke:none;fill-rule:nonzero;fill:#000;fill-opacity:1" d="m68.355 164.422 4.145 2.07-1.555-2.07 1.555-2.074"/><path style="fill:none;stroke-width:.79701;stroke-linecap:butt;stroke-linejoin:miter;stroke:#000;stroke-opacity:1;stroke-miterlimit:10" d="M61.773-107.72h9.367" transform="matrix(1 0 0 -1 9.172 51.034)"/><path style="stroke:none;fill-rule:nonzero;fill:#000;fill-opacity:1" d="m68.355 158.754 4.145 2.07-1.555-2.07 1.555-2.074"/><path style="fill:none;stroke-width:.79701;stroke-linecap:butt;stroke-linejoin:miter;stroke:#000;stroke-opacity:1;stroke-miterlimit:10" d="M61.773-102.048h9.367" transform="matrix(1 0 0 -1 9.172 51.034)"/><path style="stroke:none;fill-rule:nonzero;fill:#000;fill-opacity:1" d="m68.355 153.082 4.145 2.074-1.555-2.074 1.555-2.07"/></svg>