<svg xmlns="http://www.w3.org/2000/svg" xmlns:xlink="http://www.w3.org/1999/xlink" width="218.064" height="287.184" viewBox="0 0 163.548 215.388"><defs><symbol overflow="visible" id="a"><path style="stroke:none" d="M.344-6.14v.28h.344c.296 0 .562.048.562.391v4.782c0 .39-.313.406-.656.406h-.25v.265h4.765l.25-2.312h-.25C5.016-1.5 4.938-.625 3.83-.344c-.25.063-.5.063-.767.063h-.671c-.204 0-.329-.094-.329-.313v-4.843c0-.329.188-.375.376-.391.25-.031.515-.031.765-.031v-.282Zm0 0"/></symbol><symbol overflow="visible" id="b"><path style="stroke:none" d="M1.031-2.063h2.657c.109 0 .156-.046.156-.156 0-1.125-.703-1.797-1.64-1.797-1.095 0-1.954.954-1.954 2.047C.25-.875 1.125.094 2.344.094c.64 0 1.281-.453 1.469-1.078.015-.016.015-.063.015-.094a.107.107 0 0 0-.11-.11c-.171 0-.171.266-.265.391-.219.375-.656.64-1.094.64h-.062C1.828-.171 1.422-.5 1.219-.921c-.172-.36-.188-.75-.188-1.14Zm.016-.218c0-.594.25-1.281.906-1.485a.914.914 0 0 1 .203-.03c.781 0 1.063.796 1.063 1.515Zm0 0"/></symbol><symbol overflow="visible" id="c"><path style="stroke:none" d="M.266-3.86v.266h.171c.266 0 .516.031.516.39v4.282c0 .375-.265.375-.687.375v.281l.64-.03h1.406v-.25h-.218c-.25 0-.469-.032-.469-.36V-.438c.297.329.656.532 1.125.532 1.078 0 2.063-.875 2.063-2.031 0-1.016-.797-2.032-1.938-2.032-.5 0-.953.219-1.281.563v-.563Zm3.75 2.063C3.984-1.094 3.562-.14 2.672-.14c-.469 0-1.047-.453-1.047-.843v-1.47c0-.124-.016-.233-.016-.343 0-.5.657-.922 1.172-.922.844 0 1.25 1.063 1.25 1.75 0 .047 0 .11-.015.172Zm0 0"/></symbol><symbol overflow="visible" id="d"><path style="stroke:none" d="M.36-3.86v.266H.5c.297 0 .516.047.516.453v2.485c0 .36-.25.375-.688.375v.265h1.938V-.28h-.141c-.234 0-.469-.031-.469-.313v-3.375Zm.765-2.156c-.234.047-.422.235-.422.485s.219.468.485.468h.062a.474.474 0 0 0 .422-.468.477.477 0 0 0-.484-.485Zm0 0"/></symbol><symbol overflow="visible" id="e"><path style="stroke:none" d="M.813-.313c.296.297.656.407 1.046.407.735 0 1.454-.375 1.454-1.25v-.094c-.032-.516-.422-.89-.876-1.063a3.528 3.528 0 0 0-.703-.156c-.375-.078-.968-.187-.968-.703 0-.515.656-.656 1.03-.656.579 0 .985.344 1.032.969 0 .078.016.171.125.171.063 0 .125-.03.125-.109v-1.078c0-.063-.015-.14-.094-.14-.14 0-.234.218-.343.218h-.016c-.063-.015-.125-.062-.188-.094-.187-.093-.421-.125-.64-.125-.625 0-1.484.204-1.484 1.125 0 .907 1.046 1.047 1.687 1.172.39.078.828.313.86.75 0 .64-.532.828-1.016.828h-.078C1.109-.17.75-.656.594-1.28c-.031-.094-.031-.25-.156-.25-.11 0-.126.078-.126.156v1.156c0 .047-.015.078-.015.125 0 .094.016.188.11.188.093 0 .156-.11.218-.172l.031-.047c.063-.063.11-.11.156-.188Zm0 0"/></symbol><symbol overflow="visible" id="f"><path style="stroke:none" d="M1.36-5.531c0 .656-.298 1.718-1.188 1.718v.22h.781v2.374c0 .282.016.547.156.782.22.39.672.53 1.079.53h.078c.687-.124.796-.859.796-1.39v-.328h-.25c0 .125.016.25.016.39 0 .391-.094 1.079-.625 1.079-.484 0-.594-.563-.594-1.016v-2.422h1.313v-.265H1.609v-1.672Zm0 0"/></symbol><symbol overflow="visible" id="g"><path style="stroke:none" d="M2.172-4.016c-1.047.11-1.906.954-1.906 2.094C.266-1 .953.094 2.312.094c1.047 0 2.032-.844 2.032-2 0-1.078-.844-2.125-2.047-2.125-.047 0-.078.015-.125.015ZM1.047-1.719v-.375c0-.719.219-1.703 1.266-1.703.703 0 1.156.563 1.234 1.281.015.188.015.375.015.563 0 .469-.03 1-.359 1.375a1.19 1.19 0 0 1-.906.422c-.656 0-1.11-.5-1.235-1.219 0-.11 0-.219-.015-.344Zm0 0"/></symbol><symbol overflow="visible" id="h"><path style="stroke:none" d="M.313-3.86v.266h.14c.266 0 .547.031.547.453v2.485c0 .36-.234.375-.688.375v.265L.954-.03H2.36v-.25h-.203c-.265 0-.484-.047-.484-.375v-1.61c0-.687.406-1.468 1.25-1.468.484 0 .625.437.625 1v2.109c0 .313-.25.344-.547.344h-.14v.265L3.5-.03h1.406v-.25h-.172c-.265 0-.515-.031-.515-.36v-2.015c0-.281-.016-.531-.14-.781-.235-.422-.704-.532-1.141-.532-.547 0-1.11.375-1.313.89l-.016-.89Zm0 0"/></symbol><symbol overflow="visible" id="i"><path style="stroke:none" d="M2.828-6.14v.28h.094c.36 0 .594.016.594.548v1.875a1.532 1.532 0 0 0-1.172-.532c-1.11 0-2.031.938-2.031 2.047C.313-.906 1.14.094 2.266.094c.421 0 .984-.203 1.218-.578v.578l1.36-.11V-.28h-.14c-.298 0-.548-.031-.548-.453v-5.5Zm-1.75 4.406v-.125c0-.72.188-1.875 1.313-1.875.468 0 1.109.343 1.109.906 0 .11-.016.219-.016.328v1.484c0 .11-.046.188-.109.282-.234.343-.64.593-1.063.593a1.14 1.14 0 0 1-.89-.453c-.25-.328-.297-.734-.344-1.14Zm0 0"/></symbol><symbol overflow="visible" id="j"><path style="stroke:none" d="M1.031-2.063h2.657c.109 0 .156-.046.156-.156 0-1.125-.703-1.797-1.64-1.797-1.095 0-1.954.954-1.954 2.047C.25-.875 1.125.094 2.344.094c.64 0 1.281-.453 1.469-1.078.015-.016.015-.063.015-.094a.107.107 0 0 0-.11-.11c-.171 0-.171.266-.265.391-.219.375-.656.64-1.094.64h-.062C1.828-.171 1.422-.5 1.219-.921c-.172-.36-.188-.75-.188-1.14Zm.016-.218c0-.594.25-1.281.906-1.485a.914.914 0 0 1 .203-.03c.781 0 1.063.796 1.063 1.515Zm1.484-3.5c-.156.015-.312.203-.422.312-.28.282-.578.547-.859.828-.016.016-.016.032-.016.047 0 .063.079.188.141.188.047 0 .094-.047.125-.063l.25-.14c.39-.22 1.172-.516 1.172-.829 0-.171-.156-.359-.344-.359-.015 0-.031.016-.047.016Zm0 0"/></symbol><symbol overflow="visible" id="k"><path style="stroke:none" d="M.328-6.14v.28h.11c.312 0 .578.016.578.47v4.718c0 .375-.25.39-.641.39H.328v.266h2.016V-.28h-.235c-.234 0-.453-.047-.453-.36v-5.593Zm0 0"/></symbol><symbol overflow="visible" id="l"><path style="stroke:none" d="M1.094-3.484c.25-.22.61-.313.937-.313.313 0 .594.172.781.438.172.25.172.53.172.828v.156c-.734.078-1.468.078-2.093.547-.297.219-.516.578-.516.937 0 .735.875.985 1.469.985.547 0 .968-.281 1.218-.75.079.375.297.703.704.703.546 0 .78-.453.78-.953v-.406h-.25v.453c0 .25-.046.593-.327.593-.297 0-.313-.39-.313-.593v-1.75c0-.938-.812-1.407-1.61-1.407-.562 0-1.39.235-1.39.938 0 .25.14.437.469.437.219-.015.36-.218.36-.421 0-.25-.188-.376-.391-.422Zm1.89 1.328v.875c0 .625-.437 1.14-1.062 1.14h-.063c-.421-.03-.75-.359-.75-.75 0-.859 1.032-1.265 1.875-1.265Zm0 0"/></symbol><symbol overflow="visible" id="m"><path style="stroke:none" d="M3.25-3.531c-.188.062-.36.172-.36.422 0 .218.157.406.422.406.235 0 .422-.172.422-.438 0-.64-.765-.859-1.312-.875h-.094A2.04 2.04 0 0 0 .313-1.953c0 1.094.859 2.047 2 2.047.624 0 1.203-.328 1.453-.969.015-.063.062-.14.062-.203s-.062-.11-.125-.11c-.156 0-.156.235-.234.36-.219.406-.61.672-1.094.672-.984 0-1.297-1.125-1.297-1.813 0-.734.266-1.797 1.266-1.797.25 0 .515.032.734.141.063.016.11.063.172.094Zm0 0"/></symbol><symbol overflow="visible" id="n"><path style="stroke:none" d="M.172-3.86v.266h.14c.454 0 .485.14.797.844.375.86.704 1.75 1.079 2.594.046.125.093.25.25.25.203 0 .39-.625.53-.969.266-.64.532-1.266.798-1.906.062-.156.109-.297.203-.438a.829.829 0 0 1 .703-.375v-.265l-.438.015h-1.03v.25c.218.016.405.14.405.36v.046c0 .235-.187.563-.296.813-.235.531-.485 1.078-.672 1.625-.11-.203-.188-.422-.266-.625l-.531-1.281c-.078-.172-.14-.328-.219-.485-.016-.062-.063-.14-.063-.203 0-.234.313-.25.5-.25v-.265Zm0 0"/></symbol><symbol overflow="visible" id="o"><path style="stroke:none" d="M.266-3.86v.266h.14c.281 0 .547.031.547.453v2.485c0 .36-.234.375-.687.375v.265L.89-.03h1.562v-.25h-.297c-.312 0-.562-.047-.562-.375v-1.516c.062-.625.234-1.562 1.14-1.562-.125.062-.171.203-.171.328a.39.39 0 1 0 .78 0c0-.375-.359-.563-.687-.563-.547 0-.984.469-1.11.969v-.969Zm0 0"/></symbol><symbol overflow="visible" id="p"><path style="stroke:none" d="M.969-1.734A1.162 1.162 0 0 0 .688-1c0 .297.125.625.39.797-.422.172-.812.422-.812.89 0 .907 1.406 1.157 2.046 1.157.766 0 2.032-.282 2.032-1.188 0-1.062-1.11-1.281-2.016-1.281H1.5a.575.575 0 0 1-.5-.578c0-.125.063-.375.14-.375h.016c.125.031.25.125.375.156.157.063.344.078.516.078.719 0 1.5-.5 1.5-1.281 0-.313-.125-.672-.375-.875v-.016c.297-.203.547-.328.875-.328-.063.063-.125.125-.125.235 0 .14.125.265.281.265.188 0 .266-.14.266-.265 0-.297-.25-.454-.485-.454h-.078a1.483 1.483 0 0 0-.781.313c-.016.031-.063.078-.11.078-.062 0-.265-.14-.39-.187a1.316 1.316 0 0 0-.547-.11c-.734 0-1.531.5-1.531 1.328 0 .329.156.688.422.907ZM.766.734V.672c0-.469.468-.735.89-.735.078 0 .188.016.266.016h.469c.53 0 1.359.031 1.453.688v.062c0 .781-1.313.89-1.563.89C1.72 1.594.86 1.36.766.735ZM1.25-2.5v-.094c0-.484.11-1.125.797-1.125.547 0 .812.469.812 1.11 0 .515-.234 1.015-.812 1.015a.785.785 0 0 1-.61-.265c-.14-.188-.156-.407-.187-.641Zm0 0"/></symbol><symbol overflow="visible" id="q"><path style="stroke:none" d="M.313-3.86v.266H.39c.25 0 .593.031.593.281.016.11.016.188.016.297v1.782c0 .28.016.53.14.78.266.438.813.548 1.282.548.5 0 .984-.297 1.14-.766l.016.766 1.328-.11V-.28H4.75c-.266 0-.531-.031-.531-.438v-3.25l-1.36.11v.265h.125c.282 0 .563.031.563.453v1.766C3.5-.797 3.14-.141 2.453-.141c-.36 0-.687-.078-.765-.546-.016-.172-.016-.329-.016-.5V-3.97Zm0 0"/></symbol><symbol overflow="visible" id="r"><path style="stroke:none" d="M.313-6.14v.28h.156c.281 0 .531.032.531.47v4.515c0 .063.016.125.016.203 0 .375-.266.39-.641.39H.312v.266L.954-.03H2.36v-.25h-.203c-.265 0-.484-.047-.484-.375v-1.61c0-.687.406-1.468 1.25-1.468.484 0 .625.437.625 1v2.109c0 .313-.25.344-.547.344h-.14v.265L3.5-.03h1.406v-.25h-.172c-.265 0-.515-.031-.515-.36v-2.015c0-.281-.016-.547-.14-.781-.22-.407-.673-.532-1.095-.532-.515 0-1.125.297-1.328.844l-.015-3.11Zm0 0"/></symbol><symbol overflow="visible" id="D"><path style="stroke:none" d="M2.156-4.047c-.875.125-1.64.797-1.64 1.797 0 .89.687 1.813 1.812 1.813.953 0 1.766-.86 1.766-1.813 0-.89-.735-1.797-1.813-1.797h-.125Zm0 0"/></symbol><symbol overflow="visible" id="E"><path style="stroke:none" d="M.313-.281v.265L.859-.03h1.36v-.25c-.25 0-.64-.125-.64-.453 0-.125.046-.235.093-.344.156-.422.281-.984.437-.984H4.25c.156 0 .266.5.36.75.077.234.265.593.265.75 0 .28-.5.28-.734.28v.266h2.453V-.28h-.25c-.203 0-.422-.031-.516-.125-.125-.125-.156-.297-.219-.438-.64-1.734-1.234-3.484-1.875-5.218l-.078-.188c-.031-.094-.062-.188-.219-.188-.187 0-.218.22-.265.36C2.625-4.547 2.078-3 1.516-1.484l-.157.453c-.187.562-.562.75-1.046.75Zm1.812-2.063L3.188-5.28 4.25-2.344Zm0 0"/></symbol><symbol overflow="visible" id="F"><path style="stroke:none" d="M.375-6.14v.28h.328c.313 0 .578.048.578.391v4.782c0 .39-.328.406-.656.406h-.25v.265h3.39c.485 0 .907-.046 1.344-.265.5-.266.907-.781.907-1.375 0-.953-.97-1.438-1.782-1.547.157-.047.329-.094.47-.14.53-.22 1.046-.657 1.046-1.298 0-.578-.469-1.046-.969-1.265-.437-.203-.906-.235-1.375-.235Zm1.656 3.062H3.25c.14 0 .281-.016.422-.016.89 0 1.453.656 1.453 1.422 0 .875-.734 1.39-1.578 1.39H2.375c-.234 0-.344-.109-.344-.343Zm0-.235V-5.53c0-.235.11-.328.344-.328h1.156c.625 0 1.36.28 1.36 1.25 0 .812-.782 1.312-1.5 1.312-.11 0-.22-.015-.329-.015Zm0 0"/></symbol><symbol overflow="visible" id="s"><path style="stroke:none" d="M.406 1.125c-.062.25-.078.344-.453.344-.11 0-.219 0-.219.156 0 .031.032.11.125.11l.375-.016H1.078c.156 0 .297.015.438.015.046 0 .171 0 .171-.156 0-.11-.093-.11-.25-.11-.421 0-.421-.062-.421-.155a2.9 2.9 0 0 1 .109-.438l.328-1.328c.094.187.344.547.86.547C3.359.094 4.5-1.172 4.5-2.516c0-.906-.563-1.453-1.234-1.453-.188 0-.641.047-1.188.656-.125-.5-.547-.656-.844-.656-.375 0-.578.281-.703.531-.14.313-.265.813-.265.86 0 .078.062.11.125.11.093 0 .109-.048.156-.235.172-.703.36-1.031.656-1.031.281 0 .281.28.281.421 0 .063-.015.204-.03.266Zm1.625-3.89c.047-.172.047-.188.172-.329.235-.312.64-.64 1.047-.64.422 0 .594.421.594.843 0 .391-.25 1.516-.531 1.985-.313.515-.688.781-1.016.781-.578 0-.735-.703-.735-.766 0-.062.032-.109.032-.156Zm0 0"/></symbol><symbol overflow="visible" id="w"><path style="stroke:none" d="M5.86-6.078c.03-.094.03-.125.03-.14 0-.016 0-.11-.109-.11-.047 0-.047.016-.156.14-.125.141-.016.016-.438.5-.328-.5-.843-.64-1.328-.64-1.156 0-2.25 1.031-2.25 2.11 0 .374.125.671.36.921.25.281.484.328 1.125.5l.75.188c.297.093.594.375.594.89 0 .797-.766 1.64-1.672 1.64-.516 0-1.594-.155-1.594-1.312 0-.078 0-.218.062-.484.016-.031.016-.047.016-.063 0-.03-.016-.093-.125-.093-.11 0-.125.047-.156.187L.5.094c0 .062.031.11.094.11C.64.203.656.187.766.062c.062-.063.312-.391.421-.5.47.593 1.297.64 1.563.64 1.234 0 2.313-1.156 2.313-2.297 0-1.11-.875-1.328-1.157-1.39l-.812-.22c-.297-.077-.844-.218-.844-.89 0-.687.719-1.484 1.61-1.484.359 0 .718.11.968.36.344.327.344.812.344 1.046 0 .297-.031.39-.031.469 0 .062.03.11.125.11.093 0 .093-.016.14-.188Zm0 0"/></symbol><symbol overflow="visible" id="z"><path style="stroke:none" d="M3.36-3.594h.796c.188 0 .282 0 .282-.156 0-.11-.094-.11-.266-.11h-.766c.094-.546.219-1.28.344-1.765.078-.344.297-.469.469-.469.062 0 .265.016.422.125-.188.032-.438.188-.438.485 0 .234.172.328.328.328.25 0 .5-.203.5-.532 0-.406-.39-.64-.812-.64-.407 0-.813.297-1 .656-.203.39-.266.734-.453 1.813h-.641c-.172 0-.281 0-.281.156 0 .11.11.11.265.11h.61C2.469-2.282 2.156-.5 1.953.436c-.11.5-.25 1.172-.672 1.172-.14 0-.328-.046-.406-.125.219-.03.438-.218.438-.484 0-.234-.172-.328-.329-.328a.51.51 0 0 0-.5.531c0 .422.407.64.797.64.907 0 1.328-1.5 1.469-2.265Zm0 0"/></symbol><symbol overflow="visible" id="B"><path style="stroke:none" d="M1.906-3.594h.86c.156 0 .265 0 .265-.156 0-.11-.094-.11-.25-.11h-.797l.36-1.5c0-.14-.11-.25-.266-.25-.297 0-.36.25-.39.344l-.344 1.407H.5c-.172 0-.281 0-.281.156 0 .11.093.11.25.11h.812L.656-1.142c-.062.266-.062.282-.062.407 0 .53.406.828.875.828.922 0 1.453-1.282 1.453-1.375 0-.047-.031-.11-.11-.11-.093 0-.109.032-.171.188-.266.64-.72 1.078-1.157 1.078-.187 0-.296-.11-.296-.406 0-.203.03-.313.062-.453Zm0 0"/></symbol><symbol overflow="visible" id="t"><path style="stroke:none" d="M.844-1.36h2.031c.094 0 .11-.077.11-.124 0-.641-.422-1.188-1.235-1.188-.719 0-1.469.516-1.469 1.36C.281-.5 1.047.046 1.812.046c.47 0 1-.203 1.157-.703.015-.016.015-.047.015-.078 0-.063-.062-.079-.109-.079-.11 0-.156.204-.234.297a1.005 1.005 0 0 1-.72.36H1.86a1.02 1.02 0 0 1-.89-.531 1.608 1.608 0 0 1-.125-.672Zm.015-.187c.032-.484.375-.922.891-.922.531 0 .781.453.797.922Zm0 0"/></symbol><symbol overflow="visible" id="u"><path style="stroke:none" d="M.25-2.578v.234h.125c.11 0 .219.016.313.047.109.047.171.156.25.219l.421.453c.094.11.297.297.297.36 0 .062-.203.25-.297.343-.156.156-.28.313-.453.453-.203.14-.453.219-.703.219V0H1.36v-.25c-.078 0-.109-.078-.109-.125 0-.14.125-.25.234-.344.11-.125.25-.25.344-.375h.016c.172.25.64.61.64.735 0 .078-.093.109-.156.109V0h1.313v-.25h-.125c-.375 0-.485-.156-.672-.36-.203-.234-.39-.453-.61-.671-.03-.032-.062-.078-.109-.125.219-.172.406-.469.64-.657.204-.187.47-.28.75-.28v-.235H2.36v.234l.063.016c.031.031.062.078.062.125 0 .14-.171.281-.28.39-.079.079-.157.172-.235.25-.094-.156-.532-.484-.563-.64v-.016c0-.078.094-.11.157-.125v-.234Zm0 0"/></symbol><symbol overflow="visible" id="v"><path style="stroke:none" d="M1.078-3.688c0 .485-.266 1.157-.86 1.157v.187h.579v1.5c0 .203.015.39.125.563.156.25.469.328.75.328.437 0 .734-.344.734-.86v-.28h-.234c0 .093.015.171.015.25 0 .265-.093.687-.453.687-.359 0-.437-.36-.437-.64v-1.548h.984v-.234h-.984v-1.11Zm0 0"/></symbol><symbol overflow="visible" id="x"><path style="stroke:none" d="M6.344-2.969c.125 0 .297 0 .297-.187 0-.203-.188-.203-.329-.203H.845c-.14 0-.328 0-.328.203 0 .187.171.187.296.187ZM6.312-1.14c.141 0 .329 0 .329-.203 0-.187-.172-.187-.297-.187H.812c-.125 0-.296 0-.296.187 0 .203.187.203.328.203Zm0 0"/></symbol><symbol overflow="visible" id="y"><path style="stroke:none" d="M6.328-2.047c.125 0 .313 0 .313-.203 0-.188-.172-.188-.313-.188H3.781V-5c0-.14 0-.313-.203-.313-.187 0-.187.188-.187.313v2.563H.828c-.125 0-.312 0-.312.187 0 .203.171.203.312.203h2.563V.516c0 .14 0 .312.203.312.187 0 .187-.187.187-.312v-2.563Zm0 0"/></symbol><symbol overflow="visible" id="A"><path style="stroke:none" d="M6.047-2.047c.172 0 .344 0 .344-.203 0-.188-.188-.188-.344-.188H1.109c-.156 0-.343 0-.343.188 0 .203.171.203.343.203Zm0 0"/></symbol><symbol overflow="visible" id="C"><path style="stroke:none" d="M2.14-3.797c0-.187-.015-.187-.203-.187-.39.39-1 .39-1.218.39v.235c.156 0 .562 0 .922-.172v3.015c0 .204 0 .282-.625.282h-.25V0c.328-.031.796-.031 1.125-.031.328 0 .796 0 1.125.031v-.234h-.25c-.625 0-.625-.078-.625-.282Zm0 0"/></symbol></defs><g style="fill:#000;fill-opacity:1"><use xlink:href="#a" x="17.743" y="11.157"/><use xlink:href="#b" x="23.5" y="11.157"/></g><g style="fill:#000;fill-opacity:1"><use xlink:href="#c" x="30.674" y="11.157"/><use xlink:href="#d" x="35.792" y="11.157"/><use xlink:href="#e" x="38.351" y="11.157"/><use xlink:href="#f" x="41.985" y="11.157"/><use xlink:href="#g" x="45.568" y="11.157"/><use xlink:href="#h" x="50.175" y="11.157"/></g><g style="fill:#000;fill-opacity:1"><use xlink:href="#e" x="58.36" y="11.157"/><use xlink:href="#b" x="61.994" y="11.157"/></g><g style="fill:#000;fill-opacity:1"><use xlink:href="#i" x="69.168" y="11.157"/><use xlink:href="#j" x="74.286" y="11.157"/><use xlink:href="#c" x="78.385" y="11.157"/><use xlink:href="#k" x="83.503" y="11.157"/><use xlink:href="#l" x="86.062" y="11.157"/><use xlink:href="#m" x="90.669" y="11.157"/><use xlink:href="#b" x="94.763" y="11.157"/></g><use xlink:href="#n" x="101.929" y="11.157" style="fill:#000;fill-opacity:1"/><g style="fill:#000;fill-opacity:1"><use xlink:href="#b" x="106.54" y="11.157"/><use xlink:href="#o" x="110.638" y="11.157"/><use xlink:href="#e" x="114.242" y="11.157"/></g><g style="fill:#000;fill-opacity:1"><use xlink:href="#k" x="120.943" y="11.157"/><use xlink:href="#l" x="123.502" y="11.157"/></g><use xlink:href="#p" x="131.184" y="11.157" style="fill:#000;fill-opacity:1"/><g style="fill:#000;fill-opacity:1"><use xlink:href="#l" x="135.782" y="11.157"/><use xlink:href="#q" x="140.389" y="11.157"/><use xlink:href="#m" x="145.507" y="11.157"/></g><g style="fill:#000;fill-opacity:1"><use xlink:href="#r" x="149.351" y="11.157"/><use xlink:href="#b" x="154.469" y="11.157"/></g><path style="stroke:none;fill-rule:nonzero;fill:#effafb;fill-opacity:1" d="M15.75 60.246V14.891h56.695v45.355Zm0 0"/><path style="fill:none;stroke-width:1.39478;stroke-linecap:butt;stroke-linejoin:miter;stroke:#000;stroke-opacity:1;stroke-miterlimit:10" d="M113.386 45.356H-.001V.001h113.387" transform="matrix(1 0 0 -1 15.751 60.247)"/><path style="fill:none;stroke-width:.59776;stroke-linecap:butt;stroke-linejoin:miter;stroke:#fff;stroke-opacity:1;stroke-miterlimit:10" d="M113.386 45.356H-.001V.001h113.387" transform="matrix(1 0 0 -1 15.751 60.247)"/><path style="fill:none;stroke-width:.3985;stroke-linecap:butt;stroke-linejoin:miter;stroke:#000;stroke-opacity:1;stroke-miterlimit:10" d="M56.694 44.56h20.684" transform="matrix(1 0 0 -1 15.751 60.247)"/><path style="stroke:none;fill-rule:nonzero;fill:#000;fill-opacity:1" d="m95.121 15.688-3.187-1.594 1.195 1.594-1.195 1.593"/><path style="fill:none;stroke-width:.3985;stroke-linecap:butt;stroke-linejoin:miter;stroke:#000;stroke-opacity:1;stroke-miterlimit:10" d="M56.694.798h20.684" transform="matrix(1 0 0 -1 15.751 60.247)"/><path style="stroke:none;fill-rule:nonzero;fill:#000;fill-opacity:1" d="m95.121 59.45-3.187-1.595 1.195 1.594-1.195 1.594"/><path style="fill:none;stroke-width:4.98138;stroke-linecap:round;stroke-linejoin:miter;stroke:gray;stroke-opacity:1;stroke-miterlimit:10" d="M56.694 2.392v40.574" transform="matrix(1 0 0 -1 15.751 60.247)"/><use xlink:href="#s" x="29.082" y="38.628" style="fill:#000;fill-opacity:1"/><use xlink:href="#s" x="88.043" y="40.441" style="fill:#000;fill-opacity:1"/><g style="fill:#000;fill-opacity:1"><use xlink:href="#t" x="92.669" y="36.632"/><use xlink:href="#u" x="95.934" y="36.632"/><use xlink:href="#v" x="99.78" y="36.632"/></g><use xlink:href="#w" x="103.155" y="40.441" style="fill:#000;fill-opacity:1"/><use xlink:href="#x" x="111.854" y="40.441" style="fill:#000;fill-opacity:1"/><g style="fill:#000;fill-opacity:1"><use xlink:href="#s" x="121.582" y="40.441"/><use xlink:href="#w" x="126.208" y="40.441"/></g><use xlink:href="#y" x="134.395" y="40.441" style="fill:#000;fill-opacity:1"/><use xlink:href="#z" x="143.61" y="40.441" style="fill:#000;fill-opacity:1"/><path style="fill:none;stroke-width:.3985;stroke-linecap:butt;stroke-linejoin:miter;stroke:#000;stroke-opacity:1;stroke-miterlimit:10" d="M60.679 4.536H71.44" transform="matrix(1 0 0 -1 15.751 60.247)"/><path style="stroke:none;fill-rule:nonzero;fill:#000;fill-opacity:1" d="m74.438 55.71 3.187 1.595-1.195-1.594 1.195-1.594"/><path style="fill:none;stroke-width:.3985;stroke-linecap:butt;stroke-linejoin:miter;stroke:#000;stroke-opacity:1;stroke-miterlimit:10" d="M48.323 4.536h2.793" transform="matrix(1 0 0 -1 15.751 60.247)"/><path style="stroke:none;fill-rule:nonzero;fill:#000;fill-opacity:1" d="m68.86 55.71-3.188-1.593 1.195 1.594-1.195 1.594"/><path style="fill:none;stroke-width:.3985;stroke-linecap:butt;stroke-linejoin:miter;stroke:#000;stroke-opacity:1;stroke-miterlimit:10" d="M60.679 9.071H71.44" transform="matrix(1 0 0 -1 15.751 60.247)"/><path style="stroke:none;fill-rule:nonzero;fill:#000;fill-opacity:1" d="m74.438 51.176 3.187 1.594-1.195-1.594 1.195-1.594"/><path style="fill:none;stroke-width:.3985;stroke-linecap:butt;stroke-linejoin:miter;stroke:#000;stroke-opacity:1;stroke-miterlimit:10" d="M48.323 9.071h2.793" transform="matrix(1 0 0 -1 15.751 60.247)"/><path style="stroke:none;fill-rule:nonzero;fill:#000;fill-opacity:1" d="m68.86 51.176-3.188-1.594 1.195 1.594-1.195 1.594"/><path style="fill:none;stroke-width:.3985;stroke-linecap:butt;stroke-linejoin:miter;stroke:#000;stroke-opacity:1;stroke-miterlimit:10" d="M60.679 13.606H71.44" transform="matrix(1 0 0 -1 15.751 60.247)"/><path style="stroke:none;fill-rule:nonzero;fill:#000;fill-opacity:1" d="m74.438 46.64 3.187 1.594-1.195-1.593 1.195-1.594"/><path style="fill:none;stroke-width:.3985;stroke-linecap:butt;stroke-linejoin:miter;stroke:#000;stroke-opacity:1;stroke-miterlimit:10" d="M48.323 13.606h2.793" transform="matrix(1 0 0 -1 15.751 60.247)"/><path style="stroke:none;fill-rule:nonzero;fill:#000;fill-opacity:1" d="m68.86 46.64-3.188-1.593 1.195 1.594-1.195 1.593"/><path style="fill:none;stroke-width:.3985;stroke-linecap:butt;stroke-linejoin:miter;stroke:#000;stroke-opacity:1;stroke-miterlimit:10" d="M60.679 18.142H71.44" transform="matrix(1 0 0 -1 15.751 60.247)"/><path style="stroke:none;fill-rule:nonzero;fill:#000;fill-opacity:1" d="m74.438 42.105 3.187 1.594-1.195-1.594 1.195-1.593"/><path style="fill:none;stroke-width:.3985;stroke-linecap:butt;stroke-linejoin:miter;stroke:#000;stroke-opacity:1;stroke-miterlimit:10" d="M48.323 18.142h2.793" transform="matrix(1 0 0 -1 15.751 60.247)"/><path style="stroke:none;fill-rule:nonzero;fill:#000;fill-opacity:1" d="m68.86 42.105-3.188-1.593 1.195 1.593-1.195 1.594"/><path style="fill:none;stroke-width:.3985;stroke-linecap:butt;stroke-linejoin:miter;stroke:#000;stroke-opacity:1;stroke-miterlimit:10" d="M60.679 22.677H71.44" transform="matrix(1 0 0 -1 15.751 60.247)"/><path style="stroke:none;fill-rule:nonzero;fill:#000;fill-opacity:1" d="m74.438 37.57 3.187 1.594-1.195-1.594 1.195-1.593"/><path style="fill:none;stroke-width:.3985;stroke-linecap:butt;stroke-linejoin:miter;stroke:#000;stroke-opacity:1;stroke-miterlimit:10" d="M48.323 22.677h2.793" transform="matrix(1 0 0 -1 15.751 60.247)"/><path style="stroke:none;fill-rule:nonzero;fill:#000;fill-opacity:1" d="m68.86 37.57-3.188-1.593 1.195 1.593-1.195 1.594"/><path style="fill:none;stroke-width:.3985;stroke-linecap:butt;stroke-linejoin:miter;stroke:#000;stroke-opacity:1;stroke-miterlimit:10" d="M60.679 27.212H71.44" transform="matrix(1 0 0 -1 15.751 60.247)"/><path style="stroke:none;fill-rule:nonzero;fill:#000;fill-opacity:1" d="m74.438 33.035 3.187 1.594-1.195-1.594 1.195-1.594"/><path style="fill:none;stroke-width:.3985;stroke-linecap:butt;stroke-linejoin:miter;stroke:#000;stroke-opacity:1;stroke-miterlimit:10" d="M48.323 27.212h2.793" transform="matrix(1 0 0 -1 15.751 60.247)"/><path style="stroke:none;fill-rule:nonzero;fill:#000;fill-opacity:1" d="m68.86 33.035-3.188-1.594 1.195 1.594-1.195 1.594"/><path style="fill:none;stroke-width:.3985;stroke-linecap:butt;stroke-linejoin:miter;stroke:#000;stroke-opacity:1;stroke-miterlimit:10" d="M60.679 31.747H71.44" transform="matrix(1 0 0 -1 15.751 60.247)"/><path style="stroke:none;fill-rule:nonzero;fill:#000;fill-opacity:1" d="m74.438 28.5 3.187 1.594L76.43 28.5l1.195-1.594"/><path style="fill:none;stroke-width:.3985;stroke-linecap:butt;stroke-linejoin:miter;stroke:#000;stroke-opacity:1;stroke-miterlimit:10" d="M48.323 31.747h2.793" transform="matrix(1 0 0 -1 15.751 60.247)"/><path style="stroke:none;fill-rule:nonzero;fill:#000;fill-opacity:1" d="m68.86 28.5-3.188-1.594 1.195 1.594-1.195 1.594"/><path style="fill:none;stroke-width:.3985;stroke-linecap:butt;stroke-linejoin:miter;stroke:#000;stroke-opacity:1;stroke-miterlimit:10" d="M60.679 36.282H71.44" transform="matrix(1 0 0 -1 15.751 60.247)"/><path style="stroke:none;fill-rule:nonzero;fill:#000;fill-opacity:1" d="m74.438 23.965 3.187 1.594-1.195-1.594 1.195-1.594"/><path style="fill:none;stroke-width:.3985;stroke-linecap:butt;stroke-linejoin:miter;stroke:#000;stroke-opacity:1;stroke-miterlimit:10" d="M48.323 36.282h2.793" transform="matrix(1 0 0 -1 15.751 60.247)"/><path style="stroke:none;fill-rule:nonzero;fill:#000;fill-opacity:1" d="m68.86 23.965-3.188-1.594 1.195 1.594-1.195 1.594"/><path style="fill:none;stroke-width:.3985;stroke-linecap:butt;stroke-linejoin:miter;stroke:#000;stroke-opacity:1;stroke-miterlimit:10" d="M60.679 40.817H71.44" transform="matrix(1 0 0 -1 15.751 60.247)"/><path style="stroke:none;fill-rule:nonzero;fill:#000;fill-opacity:1" d="m74.438 19.43 3.187 1.593-1.195-1.593 1.195-1.594"/><path style="fill:none;stroke-width:.3985;stroke-linecap:butt;stroke-linejoin:miter;stroke:#000;stroke-opacity:1;stroke-miterlimit:10" d="M48.323 40.817h2.793" transform="matrix(1 0 0 -1 15.751 60.247)"/><path style="stroke:none;fill-rule:nonzero;fill:#000;fill-opacity:1" d="m68.86 19.43-3.188-1.594 1.195 1.594-1.195 1.593"/><path style="stroke:none;fill-rule:nonzero;fill:#effafb;fill-opacity:1" d="M15.75 116.941V71.586h34.016v45.355Zm0 0"/><path style="fill:none;stroke-width:1.39478;stroke-linecap:butt;stroke-linejoin:miter;stroke:#000;stroke-opacity:1;stroke-miterlimit:10" d="M113.386-11.339H-.001v-45.355h113.387" transform="matrix(1 0 0 -1 15.751 60.247)"/><path style="fill:none;stroke-width:.59776;stroke-linecap:butt;stroke-linejoin:miter;stroke:#fff;stroke-opacity:1;stroke-miterlimit:10" d="M113.386-11.339H-.001v-45.355h113.387" transform="matrix(1 0 0 -1 15.751 60.247)"/><path style="fill:none;stroke-width:.3985;stroke-linecap:butt;stroke-linejoin:miter;stroke:#000;stroke-opacity:1;stroke-miterlimit:10" d="M34.015-12.136H13.33" transform="matrix(1 0 0 -1 15.751 60.247)"/><path style="stroke:none;fill-rule:nonzero;fill:#000;fill-opacity:1" d="m27.09 72.383 3.187 1.594-1.195-1.594 1.195-1.594"/><path style="fill:none;stroke-width:.3985;stroke-linecap:butt;stroke-linejoin:miter;stroke:#000;stroke-opacity:1;stroke-miterlimit:10" d="M34.015-55.898H13.33" transform="matrix(1 0 0 -1 15.751 60.247)"/><path style="stroke:none;fill-rule:nonzero;fill:#000;fill-opacity:1" d="m27.09 116.145 3.187 1.593-1.195-1.593 1.195-1.594"/><path style="fill:none;stroke-width:4.98138;stroke-linecap:round;stroke-linejoin:miter;stroke:gray;stroke-opacity:1;stroke-miterlimit:10" d="M34.015-54.304v40.574" transform="matrix(1 0 0 -1 15.751 60.247)"/><use xlink:href="#s" x="29.082" y="95.321" style="fill:#000;fill-opacity:1"/><use xlink:href="#s" x="88.043" y="97.134" style="fill:#000;fill-opacity:1"/><g style="fill:#000;fill-opacity:1"><use xlink:href="#t" x="92.669" y="93.325"/><use xlink:href="#u" x="95.934" y="93.325"/><use xlink:href="#v" x="99.78" y="93.325"/></g><use xlink:href="#w" x="103.155" y="97.134" style="fill:#000;fill-opacity:1"/><use xlink:href="#x" x="111.854" y="97.134" style="fill:#000;fill-opacity:1"/><g style="fill:#000;fill-opacity:1"><use xlink:href="#s" x="121.582" y="97.134"/><use xlink:href="#w" x="126.208" y="97.134"/></g><use xlink:href="#A" x="134.395" y="97.134" style="fill:#000;fill-opacity:1"/><use xlink:href="#z" x="143.61" y="97.134" style="fill:#000;fill-opacity:1"/><g style="fill:#000;fill-opacity:1"><use xlink:href="#a" x="17.743" y="125.108"/><use xlink:href="#b" x="23.5" y="125.108"/></g><g style="fill:#000;fill-opacity:1"><use xlink:href="#c" x="30.674" y="125.108"/><use xlink:href="#d" x="35.792" y="125.108"/><use xlink:href="#e" x="38.351" y="125.108"/><use xlink:href="#f" x="41.985" y="125.108"/><use xlink:href="#g" x="45.568" y="125.108"/><use xlink:href="#h" x="50.175" y="125.108"/></g><g style="fill:#000;fill-opacity:1"><use xlink:href="#e" x="58.36" y="125.108"/><use xlink:href="#b" x="61.994" y="125.108"/></g><g style="fill:#000;fill-opacity:1"><use xlink:href="#i" x="69.168" y="125.108"/><use xlink:href="#j" x="74.286" y="125.108"/><use xlink:href="#c" x="78.385" y="125.108"/><use xlink:href="#k" x="83.503" y="125.108"/><use xlink:href="#l" x="86.062" y="125.108"/><use xlink:href="#m" x="90.669" y="125.108"/><use xlink:href="#b" x="94.763" y="125.108"/></g><use xlink:href="#n" x="101.929" y="125.108" style="fill:#000;fill-opacity:1"/><g style="fill:#000;fill-opacity:1"><use xlink:href="#b" x="106.54" y="125.108"/><use xlink:href="#o" x="110.638" y="125.108"/><use xlink:href="#e" x="114.242" y="125.108"/></g><g style="fill:#000;fill-opacity:1"><use xlink:href="#k" x="120.943" y="125.108"/><use xlink:href="#l" x="123.502" y="125.108"/></g><g style="fill:#000;fill-opacity:1"><use xlink:href="#i" x="131.184" y="125.108"/><use xlink:href="#o" x="136.302" y="125.108"/><use xlink:href="#g" x="139.906" y="125.108"/><use xlink:href="#d" x="144.513" y="125.108"/><use xlink:href="#f" x="147.072" y="125.108"/><use xlink:href="#b" x="150.655" y="125.108"/></g><path style="fill:none;stroke-width:.3985;stroke-linecap:butt;stroke-linejoin:miter;stroke:#000;stroke-opacity:1;stroke-miterlimit:10" d="M38.003-52.16h4.383" transform="matrix(1 0 0 -1 15.751 60.247)"/><path style="stroke:none;fill-rule:nonzero;fill:#000;fill-opacity:1" d="M51.762 112.406 54.949 114l-1.195-1.594 1.195-1.594"/><path style="fill:none;stroke-width:.3985;stroke-linecap:butt;stroke-linejoin:miter;stroke:#000;stroke-opacity:1;stroke-miterlimit:10" d="M19.272-52.16H30.03" transform="matrix(1 0 0 -1 15.751 60.247)"/><path style="stroke:none;fill-rule:nonzero;fill:#000;fill-opacity:1" d="m47.773 112.406-3.187-1.594 1.195 1.594L44.586 114"/><path style="fill:none;stroke-width:.3985;stroke-linecap:butt;stroke-linejoin:miter;stroke:#000;stroke-opacity:1;stroke-miterlimit:10" d="M38.003-47.624h4.383" transform="matrix(1 0 0 -1 15.751 60.247)"/><path style="stroke:none;fill-rule:nonzero;fill:#000;fill-opacity:1" d="m51.762 107.871 3.187 1.594-1.195-1.594 1.195-1.594"/><path style="fill:none;stroke-width:.3985;stroke-linecap:butt;stroke-linejoin:miter;stroke:#000;stroke-opacity:1;stroke-miterlimit:10" d="M19.272-47.624H30.03" transform="matrix(1 0 0 -1 15.751 60.247)"/><path style="stroke:none;fill-rule:nonzero;fill:#000;fill-opacity:1" d="m47.773 107.871-3.187-1.594 1.195 1.594-1.195 1.594"/><path style="fill:none;stroke-width:.3985;stroke-linecap:butt;stroke-linejoin:miter;stroke:#000;stroke-opacity:1;stroke-miterlimit:10" d="M38.003-43.089h4.383" transform="matrix(1 0 0 -1 15.751 60.247)"/><path style="stroke:none;fill-rule:nonzero;fill:#000;fill-opacity:1" d="m51.762 103.336 3.187 1.594-1.195-1.594 1.195-1.594"/><path style="fill:none;stroke-width:.3985;stroke-linecap:butt;stroke-linejoin:miter;stroke:#000;stroke-opacity:1;stroke-miterlimit:10" d="M19.272-43.089H30.03" transform="matrix(1 0 0 -1 15.751 60.247)"/><path style="stroke:none;fill-rule:nonzero;fill:#000;fill-opacity:1" d="m47.773 103.336-3.187-1.594 1.195 1.594-1.195 1.594"/><path style="fill:none;stroke-width:.3985;stroke-linecap:butt;stroke-linejoin:miter;stroke:#000;stroke-opacity:1;stroke-miterlimit:10" d="M38.003-38.554h4.383" transform="matrix(1 0 0 -1 15.751 60.247)"/><path style="stroke:none;fill-rule:nonzero;fill:#000;fill-opacity:1" d="m51.762 98.8 3.187 1.595-1.195-1.594 1.195-1.598"/><path style="fill:none;stroke-width:.3985;stroke-linecap:butt;stroke-linejoin:miter;stroke:#000;stroke-opacity:1;stroke-miterlimit:10" d="M19.272-38.554H30.03" transform="matrix(1 0 0 -1 15.751 60.247)"/><path style="stroke:none;fill-rule:nonzero;fill:#000;fill-opacity:1" d="m47.773 98.8-3.187-1.597 1.195 1.598-1.195 1.594"/><path style="fill:none;stroke-width:.3985;stroke-linecap:butt;stroke-linejoin:miter;stroke:#000;stroke-opacity:1;stroke-miterlimit:10" d="M38.003-34.015h4.383" transform="matrix(1 0 0 -1 15.751 60.247)"/><path style="stroke:none;fill-rule:nonzero;fill:#000;fill-opacity:1" d="m51.762 94.262 3.187 1.597-1.195-1.597 1.195-1.594"/><path style="fill:none;stroke-width:.3985;stroke-linecap:butt;stroke-linejoin:miter;stroke:#000;stroke-opacity:1;stroke-miterlimit:10" d="M19.272-34.015H30.03" transform="matrix(1 0 0 -1 15.751 60.247)"/><path style="stroke:none;fill-rule:nonzero;fill:#000;fill-opacity:1" d="m47.773 94.262-3.187-1.594 1.195 1.594-1.195 1.597"/><path style="fill:none;stroke-width:.3985;stroke-linecap:butt;stroke-linejoin:miter;stroke:#000;stroke-opacity:1;stroke-miterlimit:10" d="M38.003-29.48h4.383" transform="matrix(1 0 0 -1 15.751 60.247)"/><path style="stroke:none;fill-rule:nonzero;fill:#000;fill-opacity:1" d="m51.762 89.727 3.187 1.593-1.195-1.593 1.195-1.594"/><path style="fill:none;stroke-width:.3985;stroke-linecap:butt;stroke-linejoin:miter;stroke:#000;stroke-opacity:1;stroke-miterlimit:10" d="M19.272-29.48H30.03" transform="matrix(1 0 0 -1 15.751 60.247)"/><path style="stroke:none;fill-rule:nonzero;fill:#000;fill-opacity:1" d="m47.773 89.727-3.187-1.594 1.195 1.594-1.195 1.593"/><path style="fill:none;stroke-width:.3985;stroke-linecap:butt;stroke-linejoin:miter;stroke:#000;stroke-opacity:1;stroke-miterlimit:10" d="M38.003-24.944h4.383" transform="matrix(1 0 0 -1 15.751 60.247)"/><path style="stroke:none;fill-rule:nonzero;fill:#000;fill-opacity:1" d="m51.762 85.191 3.187 1.594-1.195-1.594 1.195-1.593"/><path style="fill:none;stroke-width:.3985;stroke-linecap:butt;stroke-linejoin:miter;stroke:#000;stroke-opacity:1;stroke-miterlimit:10" d="M19.272-24.944H30.03" transform="matrix(1 0 0 -1 15.751 60.247)"/><path style="stroke:none;fill-rule:nonzero;fill:#000;fill-opacity:1" d="m47.773 85.191-3.187-1.593 1.195 1.593-1.195 1.594"/><path style="fill:none;stroke-width:.3985;stroke-linecap:butt;stroke-linejoin:miter;stroke:#000;stroke-opacity:1;stroke-miterlimit:10" d="M38.003-20.41h4.383" transform="matrix(1 0 0 -1 15.751 60.247)"/><path style="stroke:none;fill-rule:nonzero;fill:#000;fill-opacity:1" d="m51.762 80.656 3.187 1.594-1.195-1.594 1.195-1.594"/><path style="fill:none;stroke-width:.3985;stroke-linecap:butt;stroke-linejoin:miter;stroke:#000;stroke-opacity:1;stroke-miterlimit:10" d="M19.272-20.41H30.03" transform="matrix(1 0 0 -1 15.751 60.247)"/><path style="stroke:none;fill-rule:nonzero;fill:#000;fill-opacity:1" d="m47.773 80.656-3.187-1.594 1.195 1.594-1.195 1.594"/><path style="fill:none;stroke-width:.3985;stroke-linecap:butt;stroke-linejoin:miter;stroke:#000;stroke-opacity:1;stroke-miterlimit:10" d="M38.003-15.874h4.383" transform="matrix(1 0 0 -1 15.751 60.247)"/><path style="stroke:none;fill-rule:nonzero;fill:#000;fill-opacity:1" d="m51.762 76.121 3.187 1.594-1.195-1.594 1.195-1.594"/><path style="fill:none;stroke-width:.3985;stroke-linecap:butt;stroke-linejoin:miter;stroke:#000;stroke-opacity:1;stroke-miterlimit:10" d="M19.272-15.874H30.03" transform="matrix(1 0 0 -1 15.751 60.247)"/><path style="stroke:none;fill-rule:nonzero;fill:#000;fill-opacity:1" d="m47.773 76.121-3.187-1.594 1.195 1.594-1.195 1.594"/><path style="fill:none;stroke-width:.3985;stroke-linecap:butt;stroke-linejoin:miter;stroke:gray;stroke-opacity:1;stroke-miterlimit:10" d="M-.001-147.405v66.043" transform="matrix(1 0 0 -1 15.751 60.247)"/><path style="stroke:none;fill-rule:nonzero;fill:gray;fill-opacity:1" d="m15.75 139.617-1.594 3.188 1.594-1.196 1.594 1.196"/><g style="fill:gray;fill-opacity:1"><use xlink:href="#c" x="17.743" y="147.574"/><use xlink:href="#o" x="22.861" y="147.574"/><use xlink:href="#b" x="26.465" y="147.574"/><use xlink:href="#e" x="30.563" y="147.574"/><use xlink:href="#e" x="34.197" y="147.574"/><use xlink:href="#d" x="37.831" y="147.574"/><use xlink:href="#g" x="40.39" y="147.574"/><use xlink:href="#h" x="44.997" y="147.574"/></g><path style="fill:none;stroke-width:.3985;stroke-linecap:butt;stroke-linejoin:miter;stroke:gray;stroke-opacity:1;stroke-miterlimit:10" d="M-.001-147.405h111.395" transform="matrix(1 0 0 -1 15.751 60.247)"/><path style="stroke:none;fill-rule:nonzero;fill:gray;fill-opacity:1" d="m129.137 207.652-3.188-1.593 1.196 1.593-1.196 1.594"/><use xlink:href="#B" x="131.13" y="210.407" style="fill:gray;fill-opacity:1"/><path style="fill:none;stroke-width:.79701;stroke-linecap:butt;stroke-linejoin:miter;stroke:#ff9d00;stroke-opacity:1;stroke-miterlimit:10" d="M-.001-136.065 56.694-79.37l56.692-56.695" transform="matrix(1 0 0 -1 15.751 60.247)"/><path style="stroke:none;fill-rule:nonzero;fill:#ff9d00;fill-opacity:1" d="m65.863 146.203-4.398 1.465 2.566.363.364 2.567M126.11 193.285l-1.465-4.398-.368 2.566-2.562.363"/><use xlink:href="#s" x="4.981" y="197.369" style="fill:#ff9d00;fill-opacity:1"/><use xlink:href="#C" x="9.607" y="198.365" style="fill:#ff9d00;fill-opacity:1"/><path style="fill:none;stroke-width:.3985;stroke-linecap:butt;stroke-linejoin:miter;stroke:#ff9d00;stroke-opacity:1;stroke-dasharray:2.98883,2.98883;stroke-miterlimit:10" d="m-.001-141.733 56.695 56.69h11.34l45.352-45.355" transform="matrix(1 0 0 -1 15.751 60.247)"/><path style="stroke:none;fill-rule:nonzero;fill:#ff9d00;fill-opacity:1" d="M65.863 151.871 62.48 153l1.973.281.281 1.973"/><use xlink:href="#D" x="13.448" y="203.996" style="fill:#ff9d00;fill-opacity:1"/><use xlink:href="#E" x="17.743" y="205.067" style="fill:#ff9d00;fill-opacity:1"/><use xlink:href="#D" x="126.834" y="192.657" style="fill:#ff9d00;fill-opacity:1"/><use xlink:href="#F" x="131.13" y="193.729" style="fill:#ff9d00;fill-opacity:1"/><path style="fill:none;stroke-width:.79701;stroke-linecap:butt;stroke-linejoin:miter;stroke:#ff9d00;stroke-opacity:1;stroke-miterlimit:10" d="M90.71-85.042h11.34" transform="matrix(1 0 0 -1 15.751 60.247)"/><use xlink:href="#s" x="119.791" y="148.157" style="fill:#ff9d00;fill-opacity:1"/><g style="fill:#ff9d00;fill-opacity:1"><use xlink:href="#t" x="124.417" y="144.348"/><use xlink:href="#u" x="127.682" y="144.348"/><use xlink:href="#v" x="131.528" y="144.348"/></g><path style="fill:none;stroke-width:.3985;stroke-linecap:butt;stroke-linejoin:miter;stroke:#ff9d00;stroke-opacity:1;stroke-dasharray:2.98883,2.98883;stroke-miterlimit:10" d="M90.71-96.378h11.34" transform="matrix(1 0 0 -1 15.751 60.247)"/><use xlink:href="#s" x="119.791" y="157.684" style="fill:#ff9d00;fill-opacity:1"/></svg>