<svg xmlns="http://www.w3.org/2000/svg" xmlns:xlink="http://www.w3.org/1999/xlink" width="150.192" height="171.253" viewBox="0 0 112.644 128.44"><defs><symbol overflow="visible" id="a"><path style="stroke:none" d="M.406 1.125c-.062.25-.078.344-.453.344-.11 0-.219 0-.219.156 0 .031.032.11.125.11l.375-.016H1.078c.156 0 .297.015.438.015.046 0 .171 0 .171-.156 0-.11-.093-.11-.25-.11-.421 0-.421-.062-.421-.155a2.9 2.9 0 0 1 .109-.438l.328-1.328c.094.187.344.547.86.547C3.359.094 4.5-1.172 4.5-2.516c0-.906-.563-1.453-1.234-1.453-.188 0-.641.047-1.188.656-.125-.5-.547-.656-.844-.656-.375 0-.578.281-.703.531-.14.313-.265.813-.265.86 0 .078.062.11.125.11.093 0 .109-.048.156-.235.172-.703.36-1.031.656-1.031.281 0 .281.28.281.421 0 .063-.015.204-.03.266Zm1.625-3.89c.047-.172.047-.188.172-.329.235-.312.64-.64 1.047-.64.422 0 .594.421.594.843 0 .391-.25 1.516-.531 1.985-.313.515-.688.781-1.016.781-.578 0-.735-.703-.735-.766 0-.062.032-.109.032-.156Zm0 0"/></symbol><symbol overflow="visible" id="c"><path style="stroke:none" d="M5.797-5.063c.36-.578.672-.75 1.094-.78.109-.016.187-.016.187-.173 0-.062-.062-.109-.125-.109-.031 0-.25.031-.734.031-.282 0-.594-.031-.86-.031-.062 0-.171.016-.171.156 0 .11.109.125.125.125.093 0 .421.016.421.282 0 .078-.03.14-.062.203-.047.078-.063.109-.094.171L2.766-.827l-.672-4.75c0-.078.062-.266.61-.266.108 0 .218 0 .218-.172 0-.093-.094-.109-.14-.109-.157 0-.345.016-.516.016-.188 0-.375.015-.579.015-.156 0-.406 0-.484-.015-.078 0-.437-.016-.516-.016-.03 0-.156 0-.156.156 0 .125.094.125.203.125.5 0 .516.078.547.297L2.078-.03c.016.172.031.234.188.234.14 0 .187-.078.25-.187Zm0 0"/></symbol><symbol overflow="visible" id="d"><path style="stroke:none" d="M3.938-5.469c.046-.187.078-.281.218-.312.078-.016.36-.016.547-.016 1.031 0 1.344.063 1.344.766 0 .11 0 .25-.078.781l-.016.078c0 .063.031.125.125.125.11 0 .125-.094.14-.219l.235-1.562c.016-.031.016-.094.016-.125 0-.125-.078-.125-.25-.125h-5.11c-.218 0-.218.016-.28.187L.265-4.312c-.032.109-.032.14-.032.14 0 .047.032.125.11.125.11 0 .125-.062.172-.219.5-1.406.78-1.53 2.078-1.53h.344c.25 0 .25.03.25.109 0 .046-.016.109-.032.187L1.953-.703c-.078.312-.11.422-1.062.422-.282 0-.36 0-.36.172C.531 0 .641 0 .687 0c.235 0 .485-.016.735-.016s.5-.015.75-.015c.406 0 .422 0 .75.015.125 0 .703.016.781.016.078 0 .188 0 .188-.156 0-.125-.079-.125-.297-.125-.235 0-.344 0-.578-.016-.204-.031-.313-.031-.313-.187 0-.047.016-.11.031-.172Zm0 0"/></symbol><symbol overflow="visible" id="e"><path style="stroke:none" d="M1.688-1.406c.109-.422.28-1.078.28-1.157.016-.046.25-.484.563-.796.266-.235.61-.375.953-.375.485 0 .485.468.485.625 0 .546-.422 1.64-.516 1.921-.11.266-.14.36-.14.532 0 .484.359.75.765.75.86 0 1.219-1.282 1.219-1.375 0-.047-.031-.11-.125-.11s-.11.047-.14.157c-.22.765-.595 1.109-.923 1.109-.062 0-.218 0-.218-.281 0-.235.078-.469.156-.656.172-.47.531-1.407.531-1.922 0-.797-.594-.985-1.062-.985-.829 0-1.266.594-1.422.781a.84.84 0 0 0-.86-.78c-.375 0-.578.28-.703.53-.14.313-.265.813-.265.86 0 .078.062.11.125.11.093 0 .109-.048.156-.235.172-.703.36-1.031.656-1.031.281 0 .281.28.281.421 0 .188-.078.454-.125.688-.062.234-.156.625-.187.734L.812-.42C.75-.204.75-.189.75-.157c0 .11.078.25.266.25a.402.402 0 0 0 .328-.188c.031-.047.093-.344.14-.515Zm0 0"/></symbol><symbol overflow="visible" id="b"><path style="stroke:none" d="M1.625-.156c0 .61-.156 1.172-.61 1.625-.03.031-.093.093-.093.14 0 .063.062.11.094.11.156 0 .375-.313.484-.485a2.37 2.37 0 0 0 .36-1.25c0-.39-.094-.968-.626-.968C.97-.984.797-.72.797-.5c0 .281.203.484.469.484.14 0 .265-.03.359-.14Zm0 0"/></symbol><symbol overflow="visible" id="i"><path style="stroke:none" d="M.266-3.86v.266h.14c.281 0 .547.031.547.453v2.485c0 .36-.234.375-.687.375v.265L.89-.03h1.562v-.25h-.297c-.312 0-.562-.047-.562-.375v-1.516c.062-.625.234-1.562 1.14-1.562-.125.062-.171.203-.171.328a.39.39 0 1 0 .78 0c0-.375-.359-.563-.687-.563-.547 0-.984.469-1.11.969v-.969Zm0 0"/></symbol><symbol overflow="visible" id="j"><path style="stroke:none" d="M1.031-2.063h2.657c.109 0 .156-.046.156-.156 0-1.125-.703-1.797-1.64-1.797-1.095 0-1.954.954-1.954 2.047C.25-.875 1.125.094 2.344.094c.64 0 1.281-.453 1.469-1.078.015-.016.015-.063.015-.094a.107.107 0 0 0-.11-.11c-.171 0-.171.266-.265.391-.219.375-.656.64-1.094.64h-.062C1.828-.171 1.422-.5 1.219-.921c-.172-.36-.188-.75-.188-1.14Zm.016-.218c0-.594.25-1.281.906-1.485a.914.914 0 0 1 .203-.03c.781 0 1.063.796 1.063 1.515Zm1.484-3.5c-.156.015-.312.203-.422.312-.28.282-.578.547-.859.828-.016.016-.016.032-.016.047 0 .063.079.188.141.188.047 0 .094-.047.125-.063l.25-.14c.39-.22 1.172-.516 1.172-.829 0-.171-.156-.359-.344-.359-.015 0-.031.016-.047.016Zm0 0"/></symbol><symbol overflow="visible" id="k"><path style="stroke:none" d="M.172-3.86v.266h.14c.454 0 .485.14.797.844.375.86.704 1.75 1.079 2.594.046.125.093.25.25.25.203 0 .39-.625.53-.969.266-.64.532-1.266.798-1.906.062-.156.109-.297.203-.438a.829.829 0 0 1 .703-.375v-.265l-.438.015h-1.03v.25c.218.016.405.14.405.36v.046c0 .235-.187.563-.296.813-.235.531-.485 1.078-.672 1.625-.11-.203-.188-.422-.266-.625l-.531-1.281c-.078-.172-.14-.328-.219-.485-.016-.062-.063-.14-.063-.203 0-.234.313-.25.5-.25v-.265Zm0 0"/></symbol><symbol overflow="visible" id="l"><path style="stroke:none" d="M1.031-2.063h2.657c.109 0 .156-.046.156-.156 0-1.125-.703-1.797-1.64-1.797-1.095 0-1.954.954-1.954 2.047C.25-.875 1.125.094 2.344.094c.64 0 1.281-.453 1.469-1.078.015-.016.015-.063.015-.094a.107.107 0 0 0-.11-.11c-.171 0-.171.266-.265.391-.219.375-.656.64-1.094.64h-.062C1.828-.171 1.422-.5 1.219-.921c-.172-.36-.188-.75-.188-1.14Zm.016-.218c0-.594.25-1.281.906-1.485a.914.914 0 0 1 .203-.03c.781 0 1.063.796 1.063 1.515Zm0 0"/></symbol><symbol overflow="visible" id="m"><path style="stroke:none" d="M.813-.313c.296.297.656.407 1.046.407.735 0 1.454-.375 1.454-1.25v-.094c-.032-.516-.422-.89-.876-1.063a3.528 3.528 0 0 0-.703-.156c-.375-.078-.968-.187-.968-.703 0-.515.656-.656 1.03-.656.579 0 .985.344 1.032.969 0 .078.016.171.125.171.063 0 .125-.03.125-.109v-1.078c0-.063-.015-.14-.094-.14-.14 0-.234.218-.343.218h-.016c-.063-.015-.125-.062-.188-.094-.187-.093-.421-.125-.64-.125-.625 0-1.484.204-1.484 1.125 0 .907 1.046 1.047 1.687 1.172.39.078.828.313.86.75 0 .64-.532.828-1.016.828h-.078C1.109-.17.75-.656.594-1.28c-.031-.094-.031-.25-.156-.25-.11 0-.126.078-.126.156v1.156c0 .047-.015.078-.015.125 0 .094.016.188.11.188.093 0 .156-.11.218-.172l.031-.047c.063-.063.11-.11.156-.188Zm0 0"/></symbol><symbol overflow="visible" id="n"><path style="stroke:none" d="M.36-3.86v.266H.5c.297 0 .516.047.516.453v2.485c0 .36-.25.375-.688.375v.265h1.938V-.28h-.141c-.234 0-.469-.031-.469-.313v-3.375Zm.765-2.156c-.234.047-.422.235-.422.485s.219.468.485.468h.062a.474.474 0 0 0 .422-.468.477.477 0 0 0-.484-.485Zm0 0"/></symbol><symbol overflow="visible" id="o"><path style="stroke:none" d="M.266-6.14v.28h.14c.297 0 .547.032.547.454v5.39l.25-.015.344-.531c.312.453.75.656 1.234.656 1.125 0 2.031-.953 2.031-2.047 0-.953-.765-2.016-1.937-2.016-.484 0-.89.172-1.281.563v-2.828Zm3.75 4.406c-.032.421-.079.796-.344 1.109a1.252 1.252 0 0 1-.969.484c-.375 0-.75-.218-.953-.546a.457.457 0 0 1-.125-.297v-2c.063-.391.703-.75 1.172-.75 1.047 0 1.234 1.14 1.234 1.812 0 .063 0 .125-.015.188Zm0 0"/></symbol><symbol overflow="visible" id="p"><path style="stroke:none" d="M.328-6.14v.28h.11c.312 0 .578.016.578.47v4.718c0 .375-.25.39-.641.39H.328v.266h2.016V-.28h-.235c-.234 0-.453-.047-.453-.36v-5.593Zm0 0"/></symbol><symbol overflow="visible" id="g"><path style="stroke:none" d="M6.328-2.047c.125 0 .313 0 .313-.203 0-.188-.172-.188-.313-.188H3.781V-5c0-.14 0-.313-.203-.313-.187 0-.187.188-.187.313v2.563H.828c-.125 0-.312 0-.312.187 0 .203.171.203.312.203h2.563V.516c0 .14 0 .312.203.312.187 0 .187-.187.187-.312v-2.563Zm0 0"/></symbol><symbol overflow="visible" id="h"><path style="stroke:none" d="M3.484-1.078c0 .156 0 .187-.125.375a1.3 1.3 0 0 1-1.046.578c-.391 0-.75-.219-.985-.594-.234-.39-.25-.906-.25-1.203 0-.422.047-.89.281-1.25a1.262 1.262 0 0 1 1.047-.562c.375 0 .735.187.969.53.11.142.11.142.11.313Zm.032-2.36c-.047-.046-.454-.53-1.141-.53-1.11 0-2.063.89-2.063 2.046 0 1.11.891 2.016 1.954 2.016A1.59 1.59 0 0 0 3.484-.47v.563L4.844 0v-.281c-.61 0-.688-.063-.688-.5V-6.22l-1.328.094v.281c.61 0 .688.063.688.5Zm0 0"/></symbol><clipPath id="f"><path d="M0 76h112.645v52.441H0Zm0 0"/></clipPath></defs><path style="fill-rule:nonzero;fill:#bfbfbf;fill-opacity:1;stroke-width:.3985;stroke-linecap:butt;stroke-linejoin:miter;stroke:#000;stroke-opacity:1;stroke-dasharray:2.98883,2.98883;stroke-miterlimit:10" d="M36.147.002c0 6.96-16.184 12.61-36.149 12.61-19.96 0-36.144-5.65-36.144-12.61 0-6.965 16.183-12.613 36.144-12.613 19.965 0 36.149 5.648 36.149 12.613Zm0 0" transform="matrix(1 0 0 -1 56.322 17.791)"/><use xlink:href="#a" x="35.745" y="19.983" style="fill:#fff;fill-opacity:1"/><use xlink:href="#b" x="40.371" y="19.983" style="fill:#fff;fill-opacity:1"/><use xlink:href="#c" x="46.001" y="19.983" style="fill:#fff;fill-opacity:1"/><use xlink:href="#b" x="53.423" y="19.983" style="fill:#fff;fill-opacity:1"/><use xlink:href="#d" x="59.054" y="19.983" style="fill:#fff;fill-opacity:1"/><use xlink:href="#b" x="65.71" y="19.983" style="fill:#fff;fill-opacity:1"/><use xlink:href="#e" x="71.34" y="19.983" style="fill:#fff;fill-opacity:1"/><path style="stroke:none;fill-rule:nonzero;fill:#bfbfbf;fill-opacity:1" d="M107.465 102.832c0-11.285-22.899-20.43-51.145-20.43-28.242 0-51.14 9.145-51.14 20.43 0 11.281 22.898 20.43 51.14 20.43 28.246 0 51.145-9.149 51.145-20.43Zm0 0"/><g clip-path="url(#f)"><path style="fill:none;stroke-width:.3985;stroke-linecap:butt;stroke-linejoin:miter;stroke:#000;stroke-opacity:1;stroke-dasharray:2.98883,2.98883;stroke-miterlimit:10" d="M51.143-85.041c0 11.285-22.899 20.43-51.145 20.43-28.242 0-51.14-9.145-51.14-20.43 0-11.281 22.898-20.43 51.14-20.43 28.246 0 51.145 9.149 51.145 20.43Zm0 0" transform="matrix(1 0 0 -1 56.322 17.791)"/></g><use xlink:href="#a" x="25.141" y="99.593" style="fill:#fff;fill-opacity:1"/><use xlink:href="#g" x="31.143" y="99.593" style="fill:#fff;fill-opacity:1"/><use xlink:href="#h" x="39.683" y="99.593" style="fill:#fff;fill-opacity:1"/><use xlink:href="#a" x="44.805" y="99.593" style="fill:#fff;fill-opacity:1"/><use xlink:href="#b" x="49.431" y="99.593" style="fill:#fff;fill-opacity:1"/><use xlink:href="#c" x="55.061" y="99.593" style="fill:#fff;fill-opacity:1"/><use xlink:href="#g" x="63.859" y="99.593" style="fill:#fff;fill-opacity:1"/><use xlink:href="#h" x="72.399" y="99.593" style="fill:#fff;fill-opacity:1"/><use xlink:href="#c" x="77.522" y="99.593" style="fill:#fff;fill-opacity:1"/><use xlink:href="#b" x="84.944" y="99.593" style="fill:#fff;fill-opacity:1"/><use xlink:href="#d" x="25.141" y="110.552" style="fill:#fff;fill-opacity:1"/><use xlink:href="#g" x="33.845" y="110.552" style="fill:#fff;fill-opacity:1"/><use xlink:href="#h" x="43.057" y="110.552" style="fill:#fff;fill-opacity:1"/><use xlink:href="#d" x="48.18" y="110.552" style="fill:#fff;fill-opacity:1"/><use xlink:href="#b" x="54.836" y="110.552" style="fill:#fff;fill-opacity:1"/><use xlink:href="#e" x="60.466" y="110.552" style="fill:#fff;fill-opacity:1"/><path style="fill:none;stroke-width:1.59404;stroke-linecap:butt;stroke-linejoin:miter;stroke:gray;stroke-opacity:1;stroke-miterlimit:10" d="M-.002-17.592v-38.25" transform="matrix(1 0 0 -1 56.322 17.791)"/><path style="stroke:none;fill-rule:nonzero;fill:gray;fill-opacity:1" d="m56.32 77.422 3.032-6.059-3.032 2.27-3.027-2.27"/><path style="stroke:none;fill-rule:nonzero;fill:#fff;fill-opacity:1" d="M37.332 59.488h37.98v-6.175h-37.98Zm0 0"/><g style="fill:gray;fill-opacity:1"><use xlink:href="#i" x="37.332" y="59.489"/><use xlink:href="#j" x="40.936" y="59.489"/><use xlink:href="#k" x="45.034" y="59.489"/></g><g style="fill:gray;fill-opacity:1"><use xlink:href="#l" x="49.637" y="59.489"/><use xlink:href="#i" x="53.735" y="59.489"/><use xlink:href="#m" x="57.339" y="59.489"/><use xlink:href="#n" x="60.973" y="59.489"/><use xlink:href="#o" x="63.532" y="59.489"/><use xlink:href="#p" x="68.65" y="59.489"/></g><use xlink:href="#l" x="71.218" y="59.489" style="fill:gray;fill-opacity:1"/></svg>